<?xml version="1.0" encoding="UTF-8" standalone="no"?>
<!DOCTYPE svg PUBLIC "-//W3C//DTD SVG 1.1//EN"
 "http://www.w3.org/Graphics/SVG/1.1/DTD/svg11.dtd">
<!-- Generated by graphviz version 2.38.0 (20140413.2041)
 -->
<!-- Title: BandwidthCalculator.cpp Pages: 1 -->
<svg width="2066pt" height="252pt"
 viewBox="0.00 0.00 2065.50 252.00" xmlns="http://www.w3.org/2000/svg" xmlns:xlink="http://www.w3.org/1999/xlink">
<g id="graph0" class="graph" transform="scale(1 1) rotate(0) translate(4 248)">
<title>BandwidthCalculator.cpp</title>
<polygon fill="white" stroke="none" points="-4,4 -4,-248 2061.5,-248 2061.5,4 -4,4"/>
<!-- Node1 -->
<g id="node1" class="node"><title>Node1</title>
<polygon fill="#bfbfbf" stroke="black" points="724,-224.5 724,-243.5 849,-243.5 849,-224.5 724,-224.5"/>
<text text-anchor="middle" x="786.5" y="-231.5" font-family="Helvetica,sans-Serif" font-size="10.00">BandwidthCalculator.cpp</text>
</g>
<!-- Node2 -->
<g id="node2" class="node"><title>Node2</title>
<g id="a_node2"><a xlink:href="BandwidthCalculator_8h.html" target="_top" xlink:title="BandwidthCalculator.h">
<polygon fill="white" stroke="black" points="220,-168.5 220,-187.5 335,-187.5 335,-168.5 220,-168.5"/>
<text text-anchor="middle" x="277.5" y="-175.5" font-family="Helvetica,sans-Serif" font-size="10.00">BandwidthCalculator.h</text>
</a>
</g>
</g>
<!-- Node1&#45;&gt;Node2 -->
<g id="edge1" class="edge"><title>Node1&#45;&gt;Node2</title>
<path fill="none" stroke="midnightblue" d="M723.848,-227.259C640.134,-219.447 486.904,-204.651 345.396,-188.071"/>
<polygon fill="midnightblue" stroke="midnightblue" points="345.569,-184.567 335.229,-186.874 344.751,-191.519 345.569,-184.567"/>
</g>
<!-- Node12 -->
<g id="node12" class="node"><title>Node12</title>
<polygon fill="white" stroke="#bfbfbf" points="463.5,-168.5 463.5,-187.5 525.5,-187.5 525.5,-168.5 463.5,-168.5"/>
<text text-anchor="middle" x="494.5" y="-175.5" font-family="Helvetica,sans-Serif" font-size="10.00">arpa/inet.h</text>
</g>
<!-- Node1&#45;&gt;Node12 -->
<g id="edge12" class="edge"><title>Node1&#45;&gt;Node12</title>
<path fill="none" stroke="midnightblue" d="M734.731,-224.45C685.89,-216.227 610.384,-203.114 535.934,-188.223"/>
<polygon fill="midnightblue" stroke="midnightblue" points="536.409,-184.749 525.915,-186.207 535.028,-191.611 536.409,-184.749"/>
</g>
<!-- Node13 -->
<g id="node13" class="node"><title>Node13</title>
<polygon fill="white" stroke="#bfbfbf" points="544,-168.5 544,-187.5 591,-187.5 591,-168.5 544,-168.5"/>
<text text-anchor="middle" x="567.5" y="-175.5" font-family="Helvetica,sans-Serif" font-size="10.00">errno.h</text>
</g>
<!-- Node1&#45;&gt;Node13 -->
<g id="edge13" class="edge"><title>Node1&#45;&gt;Node13</title>
<path fill="none" stroke="midnightblue" d="M749.142,-224.451C713.388,-216.171 657.707,-203.023 601.073,-188.347"/>
<polygon fill="midnightblue" stroke="midnightblue" points="601.798,-184.919 591.238,-185.785 600.033,-191.692 601.798,-184.919"/>
</g>
<!-- Node14 -->
<g id="node14" class="node"><title>Node14</title>
<polygon fill="white" stroke="#bfbfbf" points="609,-168.5 609,-187.5 698,-187.5 698,-168.5 609,-168.5"/>
<text text-anchor="middle" x="653.5" y="-175.5" font-family="Helvetica,sans-Serif" font-size="10.00">netinet/if_ether.h</text>
</g>
<!-- Node1&#45;&gt;Node14 -->
<g id="edge14" class="edge"><title>Node1&#45;&gt;Node14</title>
<path fill="none" stroke="midnightblue" d="M765.426,-224.444C743.44,-215.517 708.766,-201.439 683.836,-191.317"/>
<polygon fill="midnightblue" stroke="midnightblue" points="685.058,-188.035 674.476,-187.516 682.424,-194.521 685.058,-188.035"/>
</g>
<!-- Node15 -->
<g id="node15" class="node"><title>Node15</title>
<polygon fill="white" stroke="#bfbfbf" points="716,-168.5 716,-187.5 781,-187.5 781,-168.5 716,-168.5"/>
<text text-anchor="middle" x="748.5" y="-175.5" font-family="Helvetica,sans-Serif" font-size="10.00">netinet/ip.h</text>
</g>
<!-- Node1&#45;&gt;Node15 -->
<g id="edge15" class="edge"><title>Node1&#45;&gt;Node15</title>
<path fill="none" stroke="midnightblue" d="M780.225,-224.083C774.858,-216.455 766.982,-205.264 760.421,-195.941"/>
<polygon fill="midnightblue" stroke="midnightblue" points="763.275,-193.915 754.658,-187.751 757.551,-197.943 763.275,-193.915"/>
</g>
<!-- Node16 -->
<g id="node16" class="node"><title>Node16</title>
<polygon fill="white" stroke="#bfbfbf" points="799.5,-168.5 799.5,-187.5 851.5,-187.5 851.5,-168.5 799.5,-168.5"/>
<text text-anchor="middle" x="825.5" y="-175.5" font-family="Helvetica,sans-Serif" font-size="10.00">sstream</text>
</g>
<!-- Node1&#45;&gt;Node16 -->
<g id="edge16" class="edge"><title>Node1&#45;&gt;Node16</title>
<path fill="none" stroke="midnightblue" d="M792.94,-224.083C798.449,-216.455 806.531,-205.264 813.265,-195.941"/>
<polygon fill="midnightblue" stroke="midnightblue" points="816.162,-197.907 819.18,-187.751 810.487,-193.809 816.162,-197.907"/>
</g>
<!-- Node17 -->
<g id="node17" class="node"><title>Node17</title>
<polygon fill="white" stroke="#bfbfbf" points="870,-168.5 870,-187.5 919,-187.5 919,-168.5 870,-168.5"/>
<text text-anchor="middle" x="894.5" y="-175.5" font-family="Helvetica,sans-Serif" font-size="10.00">string.h</text>
</g>
<!-- Node1&#45;&gt;Node17 -->
<g id="edge17" class="edge"><title>Node1&#45;&gt;Node17</title>
<path fill="none" stroke="midnightblue" d="M803.852,-224.324C821.172,-215.664 848.015,-202.242 868.002,-192.249"/>
<polygon fill="midnightblue" stroke="midnightblue" points="869.812,-195.257 877.191,-187.655 866.681,-188.996 869.812,-195.257"/>
</g>
<!-- Node18 -->
<g id="node18" class="node"><title>Node18</title>
<polygon fill="white" stroke="#bfbfbf" points="937,-168.5 937,-187.5 988,-187.5 988,-168.5 937,-168.5"/>
<text text-anchor="middle" x="962.5" y="-175.5" font-family="Helvetica,sans-Serif" font-size="10.00">unistd.h</text>
</g>
<!-- Node1&#45;&gt;Node18 -->
<g id="edge18" class="edge"><title>Node1&#45;&gt;Node18</title>
<path fill="none" stroke="midnightblue" d="M814.388,-224.444C844.869,-215.091 893.781,-200.084 926.984,-189.897"/>
<polygon fill="midnightblue" stroke="midnightblue" points="928.213,-193.181 936.747,-186.902 926.16,-186.489 928.213,-193.181"/>
</g>
<!-- Node19 -->
<g id="node19" class="node"><title>Node19</title>
<g id="a_node19"><a xlink:href="BandwidthValues_8h.html" target="_top" xlink:title="BandwidthValues.h">
<polygon fill="white" stroke="black" points="0,-168.5 0,-187.5 101,-187.5 101,-168.5 0,-168.5"/>
<text text-anchor="middle" x="50.5" y="-175.5" font-family="Helvetica,sans-Serif" font-size="10.00">BandwidthValues.h</text>
</a>
</g>
</g>
<!-- Node1&#45;&gt;Node19 -->
<g id="edge19" class="edge"><title>Node1&#45;&gt;Node19</title>
<path fill="none" stroke="midnightblue" d="M723.809,-230.615C605.818,-225.738 342.505,-213.006 111.257,-188.112"/>
<polygon fill="midnightblue" stroke="midnightblue" points="111.632,-184.632 101.313,-187.031 110.876,-191.591 111.632,-184.632"/>
</g>
<!-- Node20 -->
<g id="node20" class="node"><title>Node20</title>
<g id="a_node20"><a xlink:href="LoggingHandler_8h.html" target="_top" xlink:title="LoggingHandler.h">
<polygon fill="white" stroke="black" points="353.5,-168.5 353.5,-187.5 445.5,-187.5 445.5,-168.5 353.5,-168.5"/>
<text text-anchor="middle" x="399.5" y="-175.5" font-family="Helvetica,sans-Serif" font-size="10.00">LoggingHandler.h</text>
</a>
</g>
</g>
<!-- Node1&#45;&gt;Node20 -->
<g id="edge21" class="edge"><title>Node1&#45;&gt;Node20</title>
<path fill="none" stroke="midnightblue" d="M723.706,-225.011C659.043,-216.666 555.091,-202.924 455.62,-188.135"/>
<polygon fill="midnightblue" stroke="midnightblue" points="456.106,-184.669 445.699,-186.654 455.073,-191.592 456.106,-184.669"/>
</g>
<!-- Node22 -->
<g id="node22" class="node"><title>Node22</title>
<g id="a_node22"><a xlink:href="Macros_8h.html" target="_top" xlink:title="Macros.h">
<polygon fill="white" stroke="black" points="1006,-168.5 1006,-187.5 1063,-187.5 1063,-168.5 1006,-168.5"/>
<text text-anchor="middle" x="1034.5" y="-175.5" font-family="Helvetica,sans-Serif" font-size="10.00">Macros.h</text>
</a>
</g>
</g>
<!-- Node1&#45;&gt;Node22 -->
<g id="edge24" class="edge"><title>Node1&#45;&gt;Node22</title>
<path fill="none" stroke="midnightblue" d="M827.601,-224.465C867.909,-216.034 931.364,-202.6 995.932,-188.09"/>
<polygon fill="midnightblue" stroke="midnightblue" points="996.896,-191.461 1005.88,-185.848 995.357,-184.632 996.896,-191.461"/>
</g>
<!-- Node23 -->
<g id="node23" class="node"><title>Node23</title>
<g id="a_node23"><a xlink:href="ThreadHelper_8h.html" target="_top" xlink:title="ThreadHelper.h">
<polygon fill="white" stroke="black" points="119,-168.5 119,-187.5 202,-187.5 202,-168.5 119,-168.5"/>
<text text-anchor="middle" x="160.5" y="-175.5" font-family="Helvetica,sans-Serif" font-size="10.00">ThreadHelper.h</text>
</a>
</g>
</g>
<!-- Node1&#45;&gt;Node23 -->
<g id="edge25" class="edge"><title>Node1&#45;&gt;Node23</title>
<path fill="none" stroke="midnightblue" d="M723.642,-230.153C619.35,-224.977 403.815,-212.358 212.168,-188.103"/>
<polygon fill="midnightblue" stroke="midnightblue" points="212.557,-184.624 202.194,-186.827 211.669,-191.568 212.557,-184.624"/>
</g>
<!-- Node24 -->
<g id="node24" class="node"><title>Node24</title>
<g id="a_node24"><a xlink:href="gen__stats_8h.html" target="_top" xlink:title="gen_stats.h">
<polygon fill="white" stroke="black" points="1081.5,-168.5 1081.5,-187.5 1149.5,-187.5 1149.5,-168.5 1081.5,-168.5"/>
<text text-anchor="middle" x="1115.5" y="-175.5" font-family="Helvetica,sans-Serif" font-size="10.00">gen_stats.h</text>
</a>
</g>
</g>
<!-- Node1&#45;&gt;Node24 -->
<g id="edge28" class="edge"><title>Node1&#45;&gt;Node24</title>
<path fill="none" stroke="midnightblue" d="M845.581,-224.467C903.312,-215.941 993.622,-202.106 1071.5,-188 1071.6,-187.982 1071.7,-187.963 1071.8,-187.945"/>
<polygon fill="midnightblue" stroke="midnightblue" points="1072.24,-191.424 1081.42,-186.129 1070.94,-184.546 1072.24,-191.424"/>
</g>
<!-- Node26 -->
<g id="node26" class="node"><title>Node26</title>
<g id="a_node26"><a xlink:href="rtnetlink_8h.html" target="_top" xlink:title="rtnetlink.h">
<polygon fill="white" stroke="black" points="1168,-168.5 1168,-187.5 1227,-187.5 1227,-168.5 1168,-168.5"/>
<text text-anchor="middle" x="1197.5" y="-175.5" font-family="Helvetica,sans-Serif" font-size="10.00">rtnetlink.h</text>
</a>
</g>
</g>
<!-- Node1&#45;&gt;Node26 -->
<g id="edge30" class="edge"><title>Node1&#45;&gt;Node26</title>
<path fill="none" stroke="midnightblue" d="M849.328,-227.458C921.43,-220.637 1043.38,-207.693 1157.77,-187.951"/>
<polygon fill="midnightblue" stroke="midnightblue" points="1158.51,-191.376 1167.76,-186.207 1157.3,-184.48 1158.51,-191.376"/>
</g>
<!-- Node31 -->
<g id="node31" class="node"><title>Node31</title>
<g id="a_node31"><a xlink:href="libnetlink_8h.html" target="_top" xlink:title="libnetlink.h">
<polygon fill="white" stroke="black" points="1252,-168.5 1252,-187.5 1315,-187.5 1315,-168.5 1252,-168.5"/>
<text text-anchor="middle" x="1283.5" y="-175.5" font-family="Helvetica,sans-Serif" font-size="10.00">libnetlink.h</text>
</a>
</g>
</g>
<!-- Node1&#45;&gt;Node31 -->
<g id="edge36" class="edge"><title>Node1&#45;&gt;Node31</title>
<path fill="none" stroke="midnightblue" d="M849.172,-228.42C936.145,-221.676 1098.24,-207.709 1235.5,-188 1237.57,-187.703 1239.68,-187.381 1241.81,-187.04"/>
<polygon fill="midnightblue" stroke="midnightblue" points="1242.53,-190.466 1251.81,-185.339 1241.36,-183.565 1242.53,-190.466"/>
</g>
<!-- Node34 -->
<g id="node34" class="node"><title>Node34</title>
<g id="a_node34"><a xlink:href="param_8h.html" target="_top" xlink:title="param.h">
<polygon fill="white" stroke="black" points="1773.5,-168.5 1773.5,-187.5 1825.5,-187.5 1825.5,-168.5 1773.5,-168.5"/>
<text text-anchor="middle" x="1799.5" y="-175.5" font-family="Helvetica,sans-Serif" font-size="10.00">param.h</text>
</a>
</g>
</g>
<!-- Node1&#45;&gt;Node34 -->
<g id="edge43" class="edge"><title>Node1&#45;&gt;Node34</title>
<path fill="none" stroke="midnightblue" d="M849.103,-229.663C1040.35,-219.468 1613.03,-188.94 1763.15,-180.938"/>
<polygon fill="midnightblue" stroke="midnightblue" points="1763.41,-184.429 1773.21,-180.401 1763.04,-177.439 1763.41,-184.429"/>
</g>
<!-- Node3 -->
<g id="node3" class="node"><title>Node3</title>
<polygon fill="white" stroke="#bfbfbf" points="50.5,-112.5 50.5,-131.5 96.5,-131.5 96.5,-112.5 50.5,-112.5"/>
<text text-anchor="middle" x="73.5" y="-119.5" font-family="Helvetica,sans-Serif" font-size="10.00">atomic</text>
</g>
<!-- Node2&#45;&gt;Node3 -->
<g id="edge2" class="edge"><title>Node2&#45;&gt;Node3</title>
<path fill="none" stroke="midnightblue" d="M244.157,-168.469C211.435,-160.054 159.869,-146.681 106.237,-132.165"/>
<polygon fill="midnightblue" stroke="midnightblue" points="107.126,-128.78 96.5581,-129.539 105.293,-135.536 107.126,-128.78"/>
</g>
<!-- Node4 -->
<g id="node4" class="node"><title>Node4</title>
<polygon fill="white" stroke="#bfbfbf" points="115,-112.5 115,-131.5 172,-131.5 172,-112.5 115,-112.5"/>
<text text-anchor="middle" x="143.5" y="-119.5" font-family="Helvetica,sans-Serif" font-size="10.00">pthread.h</text>
</g>
<!-- Node2&#45;&gt;Node4 -->
<g id="edge3" class="edge"><title>Node2&#45;&gt;Node4</title>
<path fill="none" stroke="midnightblue" d="M256.267,-168.444C234.116,-159.517 199.181,-145.439 174.064,-135.317"/>
<polygon fill="midnightblue" stroke="midnightblue" points="175.217,-132.008 164.633,-131.516 172.6,-138.501 175.217,-132.008"/>
</g>
<!-- Node5 -->
<g id="node5" class="node"><title>Node5</title>
<polygon fill="white" stroke="#bfbfbf" points="328,-112.5 328,-131.5 377,-131.5 377,-112.5 328,-112.5"/>
<text text-anchor="middle" x="352.5" y="-119.5" font-family="Helvetica,sans-Serif" font-size="10.00">stdint.h</text>
</g>
<!-- Node2&#45;&gt;Node5 -->
<g id="edge4" class="edge"><title>Node2&#45;&gt;Node5</title>
<path fill="none" stroke="midnightblue" d="M289.55,-168.324C300.963,-160.107 318.331,-147.602 331.935,-137.807"/>
<polygon fill="midnightblue" stroke="midnightblue" points="334.16,-140.517 340.231,-131.834 330.07,-134.837 334.16,-140.517"/>
</g>
<!-- Node6 -->
<g id="node6" class="node"><title>Node6</title>
<polygon fill="white" stroke="#bfbfbf" points="395,-112.5 395,-131.5 436,-131.5 436,-112.5 395,-112.5"/>
<text text-anchor="middle" x="415.5" y="-119.5" font-family="Helvetica,sans-Serif" font-size="10.00">string</text>
</g>
<!-- Node2&#45;&gt;Node6 -->
<g id="edge5" class="edge"><title>Node2&#45;&gt;Node6</title>
<path fill="none" stroke="midnightblue" d="M299.367,-168.444C322.549,-159.372 359.329,-144.98 385.276,-134.827"/>
<polygon fill="midnightblue" stroke="midnightblue" points="386.602,-138.066 394.639,-131.163 384.051,-131.548 386.602,-138.066"/>
</g>
<!-- Node7 -->
<g id="node7" class="node"><title>Node7</title>
<g id="a_node7"><a xlink:href="SimpleRateCalculator_8h.html" target="_top" xlink:title="SimpleRateCalculator.h">
<polygon fill="white" stroke="black" points="190.5,-112.5 190.5,-131.5 310.5,-131.5 310.5,-112.5 190.5,-112.5"/>
<text text-anchor="middle" x="250.5" y="-119.5" font-family="Helvetica,sans-Serif" font-size="10.00">SimpleRateCalculator.h</text>
</a>
</g>
</g>
<!-- Node2&#45;&gt;Node7 -->
<g id="edge6" class="edge"><title>Node2&#45;&gt;Node7</title>
<path fill="none" stroke="midnightblue" d="M273.041,-168.083C269.346,-160.691 263.977,-149.953 259.406,-140.811"/>
<polygon fill="midnightblue" stroke="midnightblue" points="262.478,-139.13 254.876,-131.751 256.217,-142.261 262.478,-139.13"/>
</g>
<!-- Node8 -->
<g id="node8" class="node"><title>Node8</title>
<polygon fill="white" stroke="#bfbfbf" points="181,-56.5 181,-75.5 222,-75.5 222,-56.5 181,-56.5"/>
<text text-anchor="middle" x="201.5" y="-63.5" font-family="Helvetica,sans-Serif" font-size="10.00">ctime</text>
</g>
<!-- Node7&#45;&gt;Node8 -->
<g id="edge7" class="edge"><title>Node7&#45;&gt;Node8</title>
<path fill="none" stroke="midnightblue" d="M242.409,-112.083C235.345,-104.298 224.912,-92.8015 216.351,-83.3665"/>
<polygon fill="midnightblue" stroke="midnightblue" points="218.753,-80.8047 209.441,-75.7511 213.569,-85.5087 218.753,-80.8047"/>
</g>
<!-- Node9 -->
<g id="node9" class="node"><title>Node9</title>
<g id="a_node9"><a xlink:href="CurrentAndLastValues_8h.html" target="_top" xlink:title="CurrentAndLastValues.h">
<polygon fill="white" stroke="black" points="189,-0.5 189,-19.5 312,-19.5 312,-0.5 189,-0.5"/>
<text text-anchor="middle" x="250.5" y="-7.5" font-family="Helvetica,sans-Serif" font-size="10.00">CurrentAndLastValues.h</text>
</a>
</g>
</g>
<!-- Node7&#45;&gt;Node9 -->
<g id="edge8" class="edge"><title>Node7&#45;&gt;Node9</title>
<path fill="none" stroke="midnightblue" d="M250.5,-112.368C250.5,-94.617 250.5,-53.6664 250.5,-29.5974"/>
<polygon fill="midnightblue" stroke="midnightblue" points="254,-29.5914 250.5,-19.5914 247,-29.5915 254,-29.5914"/>
</g>
<!-- Node10 -->
<g id="node10" class="node"><title>Node10</title>
<g id="a_node10"><a xlink:href="SimpleRateCalculation_8h.html" target="_top" xlink:title="SimpleRateCalculation.h">
<polygon fill="white" stroke="black" points="279,-56.5 279,-75.5 404,-75.5 404,-56.5 279,-56.5"/>
<text text-anchor="middle" x="341.5" y="-63.5" font-family="Helvetica,sans-Serif" font-size="10.00">SimpleRateCalculation.h</text>
</a>
</g>
</g>
<!-- Node7&#45;&gt;Node10 -->
<g id="edge9" class="edge"><title>Node7&#45;&gt;Node10</title>
<path fill="none" stroke="midnightblue" d="M265.121,-112.324C279.449,-103.822 301.513,-90.7288 318.249,-80.7975"/>
<polygon fill="midnightblue" stroke="midnightblue" points="320.102,-83.7677 326.916,-75.6545 316.53,-77.7478 320.102,-83.7677"/>
</g>
<!-- Node10&#45;&gt;Node9 -->
<g id="edge10" class="edge"><title>Node10&#45;&gt;Node9</title>
<path fill="none" stroke="midnightblue" d="M326.879,-56.324C312.551,-47.8215 290.487,-34.7288 273.751,-24.7975"/>
<polygon fill="midnightblue" stroke="midnightblue" points="275.47,-21.7478 265.084,-19.6545 271.898,-27.7677 275.47,-21.7478"/>
</g>
<!-- Node11 -->
<g id="node11" class="node"><title>Node11</title>
<polygon fill="white" stroke="#bfbfbf" points="330.5,-0.5 330.5,-19.5 374.5,-19.5 374.5,-0.5 330.5,-0.5"/>
<text text-anchor="middle" x="352.5" y="-7.5" font-family="Helvetica,sans-Serif" font-size="10.00">time.h</text>
</g>
<!-- Node10&#45;&gt;Node11 -->
<g id="edge11" class="edge"><title>Node10&#45;&gt;Node11</title>
<path fill="none" stroke="midnightblue" d="M343.316,-56.083C344.774,-48.9272 346.871,-38.6353 348.693,-29.6911"/>
<polygon fill="midnightblue" stroke="midnightblue" points="352.151,-30.2485 350.717,-19.7511 345.292,-28.8512 352.151,-30.2485"/>
</g>
<!-- Node19&#45;&gt;Node3 -->
<g id="edge20" class="edge"><title>Node19&#45;&gt;Node3</title>
<path fill="none" stroke="midnightblue" d="M54.298,-168.083C57.4128,-160.77 61.9228,-150.181 65.7893,-141.103"/>
<polygon fill="midnightblue" stroke="midnightblue" points="69.0741,-142.323 69.7727,-131.751 62.6339,-139.58 69.0741,-142.323"/>
</g>
<!-- Node20&#45;&gt;Node6 -->
<g id="edge22" class="edge"><title>Node20&#45;&gt;Node6</title>
<path fill="none" stroke="midnightblue" d="M402.142,-168.083C404.286,-160.849 407.379,-150.409 410.049,-141.397"/>
<polygon fill="midnightblue" stroke="midnightblue" points="413.422,-142.333 412.907,-131.751 406.71,-140.345 413.422,-142.333"/>
</g>
<!-- Node21 -->
<g id="node21" class="node"><title>Node21</title>
<polygon fill="white" stroke="#bfbfbf" points="454.5,-112.5 454.5,-131.5 504.5,-131.5 504.5,-112.5 454.5,-112.5"/>
<text text-anchor="middle" x="479.5" y="-119.5" font-family="Helvetica,sans-Serif" font-size="10.00">fstream</text>
</g>
<!-- Node20&#45;&gt;Node21 -->
<g id="edge23" class="edge"><title>Node20&#45;&gt;Node21</title>
<path fill="none" stroke="midnightblue" d="M412.353,-168.324C424.716,-159.979 443.63,-147.212 458.237,-137.352"/>
<polygon fill="midnightblue" stroke="midnightblue" points="460.348,-140.15 466.679,-131.655 456.432,-134.348 460.348,-140.15"/>
</g>
<!-- Node23&#45;&gt;Node3 -->
<g id="edge26" class="edge"><title>Node23&#45;&gt;Node3</title>
<path fill="none" stroke="midnightblue" d="M146.522,-168.324C132.95,-159.9 112.12,-146.971 96.175,-137.074"/>
<polygon fill="midnightblue" stroke="midnightblue" points="97.7856,-133.954 87.4434,-131.655 94.094,-139.902 97.7856,-133.954"/>
</g>
<!-- Node23&#45;&gt;Node4 -->
<g id="edge27" class="edge"><title>Node23&#45;&gt;Node4</title>
<path fill="none" stroke="midnightblue" d="M157.693,-168.083C155.415,-160.849 152.129,-150.409 149.292,-141.397"/>
<polygon fill="midnightblue" stroke="midnightblue" points="152.596,-140.239 146.255,-131.751 145.919,-142.341 152.596,-140.239"/>
</g>
<!-- Node25 -->
<g id="node25" class="node"><title>Node25</title>
<polygon fill="white" stroke="#bfbfbf" points="952.5,-112.5 952.5,-131.5 1024.5,-131.5 1024.5,-112.5 952.5,-112.5"/>
<text text-anchor="middle" x="988.5" y="-119.5" font-family="Helvetica,sans-Serif" font-size="10.00">linux/types.h</text>
</g>
<!-- Node24&#45;&gt;Node25 -->
<g id="edge29" class="edge"><title>Node24&#45;&gt;Node25</title>
<path fill="none" stroke="midnightblue" d="M1095.38,-168.444C1074.48,-159.557 1041.57,-145.563 1017.78,-135.451"/>
<polygon fill="midnightblue" stroke="midnightblue" points="1019.1,-132.208 1008.53,-131.516 1016.36,-138.65 1019.1,-132.208"/>
</g>
<!-- Node26&#45;&gt;Node25 -->
<g id="edge31" class="edge"><title>Node26&#45;&gt;Node25</title>
<path fill="none" stroke="midnightblue" d="M1168,-169.378C1132.42,-160.185 1072.32,-144.658 1031.56,-134.127"/>
<polygon fill="midnightblue" stroke="midnightblue" points="1032.2,-130.677 1021.64,-131.564 1030.45,-137.454 1032.2,-130.677"/>
</g>
<!-- Node27 -->
<g id="node27" class="node"><title>Node27</title>
<polygon fill="white" stroke="#bfbfbf" points="1151,-112.5 1151,-131.5 1228,-131.5 1228,-112.5 1151,-112.5"/>
<text text-anchor="middle" x="1189.5" y="-119.5" font-family="Helvetica,sans-Serif" font-size="10.00">linux/netlink.h</text>
</g>
<!-- Node26&#45;&gt;Node27 -->
<g id="edge32" class="edge"><title>Node26&#45;&gt;Node27</title>
<path fill="none" stroke="midnightblue" d="M1196.18,-168.083C1195.12,-160.927 1193.59,-150.635 1192.27,-141.691"/>
<polygon fill="midnightblue" stroke="midnightblue" points="1195.72,-141.13 1190.8,-131.751 1188.8,-142.156 1195.72,-141.13"/>
</g>
<!-- Node28 -->
<g id="node28" class="node"><title>Node28</title>
<polygon fill="white" stroke="#bfbfbf" points="1246.5,-112.5 1246.5,-131.5 1320.5,-131.5 1320.5,-112.5 1246.5,-112.5"/>
<text text-anchor="middle" x="1283.5" y="-119.5" font-family="Helvetica,sans-Serif" font-size="10.00">linux/if_link.h</text>
</g>
<!-- Node26&#45;&gt;Node28 -->
<g id="edge33" class="edge"><title>Node26&#45;&gt;Node28</title>
<path fill="none" stroke="midnightblue" d="M1211.32,-168.324C1224.73,-159.9 1245.32,-146.971 1261.09,-137.074"/>
<polygon fill="midnightblue" stroke="midnightblue" points="1263.11,-139.936 1269.72,-131.655 1259.39,-134.008 1263.11,-139.936"/>
</g>
<!-- Node29 -->
<g id="node29" class="node"><title>Node29</title>
<polygon fill="white" stroke="#bfbfbf" points="1339,-112.5 1339,-131.5 1416,-131.5 1416,-112.5 1339,-112.5"/>
<text text-anchor="middle" x="1377.5" y="-119.5" font-family="Helvetica,sans-Serif" font-size="10.00">linux/if_addr.h</text>
</g>
<!-- Node26&#45;&gt;Node29 -->
<g id="edge34" class="edge"><title>Node26&#45;&gt;Node29</title>
<path fill="none" stroke="midnightblue" d="M1226.02,-168.444C1256.57,-159.28 1305.21,-144.688 1339.1,-134.519"/>
<polygon fill="midnightblue" stroke="midnightblue" points="1340.54,-137.742 1349.11,-131.516 1338.53,-131.038 1340.54,-137.742"/>
</g>
<!-- Node30 -->
<g id="node30" class="node"><title>Node30</title>
<polygon fill="white" stroke="#bfbfbf" points="1042.5,-112.5 1042.5,-131.5 1132.5,-131.5 1132.5,-112.5 1042.5,-112.5"/>
<text text-anchor="middle" x="1087.5" y="-119.5" font-family="Helvetica,sans-Serif" font-size="10.00">linux/neighbour.h</text>
</g>
<!-- Node26&#45;&gt;Node30 -->
<g id="edge35" class="edge"><title>Node26&#45;&gt;Node30</title>
<path fill="none" stroke="midnightblue" d="M1179.83,-168.324C1162.11,-159.625 1134.6,-146.12 1114.21,-136.113"/>
<polygon fill="midnightblue" stroke="midnightblue" points="1115.65,-132.919 1105.13,-131.655 1112.56,-139.203 1115.65,-132.919"/>
</g>
<!-- Node31&#45;&gt;Node27 -->
<g id="edge38" class="edge"><title>Node31&#45;&gt;Node27</title>
<path fill="none" stroke="midnightblue" d="M1268.4,-168.324C1253.6,-159.822 1230.81,-146.729 1213.52,-136.797"/>
<polygon fill="midnightblue" stroke="midnightblue" points="1214.98,-133.601 1204.57,-131.655 1211.49,-139.671 1214.98,-133.601"/>
</g>
<!-- Node31&#45;&gt;Node28 -->
<g id="edge40" class="edge"><title>Node31&#45;&gt;Node28</title>
<path fill="none" stroke="midnightblue" d="M1283.5,-168.083C1283.5,-161.006 1283.5,-150.861 1283.5,-141.986"/>
<polygon fill="midnightblue" stroke="midnightblue" points="1287,-141.751 1283.5,-131.751 1280,-141.751 1287,-141.751"/>
</g>
<!-- Node31&#45;&gt;Node29 -->
<g id="edge41" class="edge"><title>Node31&#45;&gt;Node29</title>
<path fill="none" stroke="midnightblue" d="M1298.6,-168.324C1313.4,-159.822 1336.19,-146.729 1353.48,-136.797"/>
<polygon fill="midnightblue" stroke="midnightblue" points="1355.51,-139.671 1362.43,-131.655 1352.02,-133.601 1355.51,-139.671"/>
</g>
<!-- Node31&#45;&gt;Node30 -->
<g id="edge42" class="edge"><title>Node31&#45;&gt;Node30</title>
<path fill="none" stroke="midnightblue" d="M1252.44,-168.444C1218.9,-159.201 1165.3,-144.436 1128.36,-134.257"/>
<polygon fill="midnightblue" stroke="midnightblue" points="1128.98,-130.798 1118.41,-131.516 1127.12,-137.547 1128.98,-130.798"/>
</g>
<!-- Node32 -->
<g id="node32" class="node"><title>Node32</title>
<polygon fill="white" stroke="#bfbfbf" points="1535,-112.5 1535,-131.5 1606,-131.5 1606,-112.5 1535,-112.5"/>
<text text-anchor="middle" x="1570.5" y="-119.5" font-family="Helvetica,sans-Serif" font-size="10.00">asm/types.h</text>
</g>
<!-- Node31&#45;&gt;Node32 -->
<g id="edge37" class="edge"><title>Node31&#45;&gt;Node32</title>
<path fill="none" stroke="midnightblue" d="M1315.24,-171.24C1359.7,-163.139 1443.32,-147.793 1524.73,-132.128"/>
<polygon fill="midnightblue" stroke="midnightblue" points="1525.49,-135.546 1534.65,-130.216 1524.17,-128.673 1525.49,-135.546"/>
</g>
<!-- Node33 -->
<g id="node33" class="node"><title>Node33</title>
<polygon fill="white" stroke="#bfbfbf" points="1434,-112.5 1434,-131.5 1517,-131.5 1517,-112.5 1434,-112.5"/>
<text text-anchor="middle" x="1475.5" y="-119.5" font-family="Helvetica,sans-Serif" font-size="10.00">linux/rtnetlink.h</text>
</g>
<!-- Node31&#45;&gt;Node33 -->
<g id="edge39" class="edge"><title>Node31&#45;&gt;Node33</title>
<path fill="none" stroke="midnightblue" d="M1313.92,-168.444C1346.78,-159.201 1399.28,-144.436 1435.47,-134.257"/>
<polygon fill="midnightblue" stroke="midnightblue" points="1436.54,-137.593 1445.22,-131.516 1434.65,-130.855 1436.54,-137.593"/>
</g>
<!-- Node35 -->
<g id="node35" class="node"><title>Node35</title>
<polygon fill="white" stroke="#bfbfbf" points="1853.5,-112.5 1853.5,-131.5 1905.5,-131.5 1905.5,-112.5 1853.5,-112.5"/>
<text text-anchor="middle" x="1879.5" y="-119.5" font-family="Helvetica,sans-Serif" font-size="10.00">stddef.h</text>
</g>
<!-- Node34&#45;&gt;Node35 -->
<g id="edge44" class="edge"><title>Node34&#45;&gt;Node35</title>
<path fill="none" stroke="midnightblue" d="M1812.35,-168.324C1824.72,-159.979 1843.63,-147.212 1858.24,-137.352"/>
<polygon fill="midnightblue" stroke="midnightblue" points="1860.35,-140.15 1866.68,-131.655 1856.43,-134.348 1860.35,-140.15"/>
</g>
<!-- Node36 -->
<g id="node36" class="node"><title>Node36</title>
<polygon fill="white" stroke="#bfbfbf" points="1923.5,-112.5 1923.5,-131.5 1991.5,-131.5 1991.5,-112.5 1923.5,-112.5"/>
<text text-anchor="middle" x="1957.5" y="-119.5" font-family="Helvetica,sans-Serif" font-size="10.00">sys/types.h</text>
</g>
<!-- Node34&#45;&gt;Node36 -->
<g id="edge45" class="edge"><title>Node34&#45;&gt;Node36</title>
<path fill="none" stroke="midnightblue" d="M1824.54,-168.444C1851.12,-159.359 1893.31,-144.939 1923.02,-134.783"/>
<polygon fill="midnightblue" stroke="midnightblue" points="1924.25,-138.062 1932.58,-131.516 1921.99,-131.439 1924.25,-138.062"/>
</g>
<!-- Node37 -->
<g id="node37" class="node"><title>Node37</title>
<polygon fill="white" stroke="#bfbfbf" points="2009.5,-112.5 2009.5,-131.5 2057.5,-131.5 2057.5,-112.5 2009.5,-112.5"/>
<text text-anchor="middle" x="2033.5" y="-119.5" font-family="Helvetica,sans-Serif" font-size="10.00">limits.h</text>
</g>
<!-- Node34&#45;&gt;Node37 -->
<g id="edge46" class="edge"><title>Node34&#45;&gt;Node37</title>
<path fill="none" stroke="midnightblue" d="M1825.61,-171.556C1862.23,-163.832 1931.17,-148.981 1999.34,-132.204"/>
<polygon fill="midnightblue" stroke="midnightblue" points="2000.52,-135.517 2009.38,-129.715 1998.83,-128.722 2000.52,-135.517"/>
</g>
<!-- Node38 -->
<g id="node38" class="node"><title>Node38</title>
<polygon fill="white" stroke="#bfbfbf" points="1624,-112.5 1624,-131.5 1677,-131.5 1677,-112.5 1624,-112.5"/>
<text text-anchor="middle" x="1650.5" y="-119.5" font-family="Helvetica,sans-Serif" font-size="10.00">endian.h</text>
</g>
<!-- Node34&#45;&gt;Node38 -->
<g id="edge47" class="edge"><title>Node34&#45;&gt;Node38</title>
<path fill="none" stroke="midnightblue" d="M1775.89,-168.444C1751.04,-159.438 1711.73,-145.189 1683.75,-135.049"/>
<polygon fill="midnightblue" stroke="midnightblue" points="1684.59,-131.633 1674,-131.516 1682.21,-138.214 1684.59,-131.633"/>
</g>
<!-- Node39 -->
<g id="node39" class="node"><title>Node39</title>
<polygon fill="white" stroke="#bfbfbf" points="1695.5,-112.5 1695.5,-131.5 1745.5,-131.5 1745.5,-112.5 1695.5,-112.5"/>
<text text-anchor="middle" x="1720.5" y="-119.5" font-family="Helvetica,sans-Serif" font-size="10.00">signal.h</text>
</g>
<!-- Node34&#45;&gt;Node39 -->
<g id="edge48" class="edge"><title>Node34&#45;&gt;Node39</title>
<path fill="none" stroke="midnightblue" d="M1786.81,-168.324C1774.6,-159.979 1755.92,-147.212 1741.5,-137.352"/>
<polygon fill="midnightblue" stroke="midnightblue" points="1743.39,-134.408 1733.16,-131.655 1739.44,-140.187 1743.39,-134.408"/>
</g>
<!-- Node40 -->
<g id="node40" class="node"><title>Node40</title>
<polygon fill="white" stroke="#bfbfbf" points="1764,-112.5 1764,-131.5 1835,-131.5 1835,-112.5 1764,-112.5"/>
<text text-anchor="middle" x="1799.5" y="-119.5" font-family="Helvetica,sans-Serif" font-size="10.00">bits/param.h</text>
</g>
<!-- Node34&#45;&gt;Node40 -->
<g id="edge49" class="edge"><title>Node34&#45;&gt;Node40</title>
<path fill="none" stroke="midnightblue" d="M1799.5,-168.083C1799.5,-161.006 1799.5,-150.861 1799.5,-141.986"/>
<polygon fill="midnightblue" stroke="midnightblue" points="1803,-141.751 1799.5,-131.751 1796,-141.751 1803,-141.751"/>
</g>
</g>
</svg>
