<?xml version="1.0" encoding="UTF-8" standalone="no"?>
<!DOCTYPE svg PUBLIC "-//W3C//DTD SVG 1.1//EN"
 "http://www.w3.org/Graphics/SVG/1.1/DTD/svg11.dtd">
<!-- Generated by graphviz version 2.38.0 (20140413.2041)
 -->
<!-- Title: BandwidthCommunicator.cpp Pages: 1 -->
<svg width="1292pt" height="252pt"
 viewBox="0.00 0.00 1291.50 252.00" xmlns="http://www.w3.org/2000/svg" xmlns:xlink="http://www.w3.org/1999/xlink">
<g id="graph0" class="graph" transform="scale(1 1) rotate(0) translate(4 248)">
<title>BandwidthCommunicator.cpp</title>
<polygon fill="white" stroke="none" points="-4,4 -4,-248 1287.5,-248 1287.5,4 -4,4"/>
<!-- Node1 -->
<g id="node1" class="node"><title>Node1</title>
<polygon fill="#bfbfbf" stroke="black" points="714,-224.5 714,-243.5 859,-243.5 859,-224.5 714,-224.5"/>
<text text-anchor="middle" x="786.5" y="-231.5" font-family="Helvetica,sans-Serif" font-size="10.00">BandwidthCommunicator.cpp</text>
</g>
<!-- Node2 -->
<g id="node2" class="node"><title>Node2</title>
<g id="a_node2"><a xlink:href="BandwidthCommunicator_8h.html" target="_top" xlink:title="BandwidthCommunicator.h">
<polygon fill="white" stroke="black" points="22.5,-168.5 22.5,-187.5 156.5,-187.5 156.5,-168.5 22.5,-168.5"/>
<text text-anchor="middle" x="89.5" y="-175.5" font-family="Helvetica,sans-Serif" font-size="10.00">BandwidthCommunicator.h</text>
</a>
</g>
</g>
<!-- Node1&#45;&gt;Node2 -->
<g id="edge1" class="edge"><title>Node1&#45;&gt;Node2</title>
<path fill="none" stroke="midnightblue" d="M713.75,-228.806C599.553,-221.983 371.013,-207.368 166.64,-188.068"/>
<polygon fill="midnightblue" stroke="midnightblue" points="166.905,-184.578 156.619,-187.116 166.243,-191.546 166.905,-184.578"/>
</g>
<!-- Node7 -->
<g id="node7" class="node"><title>Node7</title>
<polygon fill="white" stroke="#bfbfbf" points="727,-168.5 727,-187.5 774,-187.5 774,-168.5 727,-168.5"/>
<text text-anchor="middle" x="750.5" y="-175.5" font-family="Helvetica,sans-Serif" font-size="10.00">errno.h</text>
</g>
<!-- Node1&#45;&gt;Node7 -->
<g id="edge6" class="edge"><title>Node1&#45;&gt;Node7</title>
<path fill="none" stroke="midnightblue" d="M780.555,-224.083C775.523,-216.534 768.163,-205.495 761.987,-196.23"/>
<polygon fill="midnightblue" stroke="midnightblue" points="764.793,-194.13 756.334,-187.751 758.969,-198.013 764.793,-194.13"/>
</g>
<!-- Node8 -->
<g id="node8" class="node"><title>Node8</title>
<polygon fill="white" stroke="#bfbfbf" points="792.5,-168.5 792.5,-187.5 854.5,-187.5 854.5,-168.5 792.5,-168.5"/>
<text text-anchor="middle" x="823.5" y="-175.5" font-family="Helvetica,sans-Serif" font-size="10.00">linux/tcp.h</text>
</g>
<!-- Node1&#45;&gt;Node8 -->
<g id="edge7" class="edge"><title>Node1&#45;&gt;Node8</title>
<path fill="none" stroke="midnightblue" d="M792.61,-224.083C797.782,-216.534 805.346,-205.495 811.694,-196.23"/>
<polygon fill="midnightblue" stroke="midnightblue" points="814.739,-197.979 817.504,-187.751 808.964,-194.022 814.739,-197.979"/>
</g>
<!-- Node9 -->
<g id="node9" class="node"><title>Node9</title>
<polygon fill="white" stroke="#bfbfbf" points="872.5,-168.5 872.5,-187.5 924.5,-187.5 924.5,-168.5 872.5,-168.5"/>
<text text-anchor="middle" x="898.5" y="-175.5" font-family="Helvetica,sans-Serif" font-size="10.00">sstream</text>
</g>
<!-- Node1&#45;&gt;Node9 -->
<g id="edge8" class="edge"><title>Node1&#45;&gt;Node9</title>
<path fill="none" stroke="midnightblue" d="M804.495,-224.324C822.538,-215.625 850.547,-202.12 871.303,-192.113"/>
<polygon fill="midnightblue" stroke="midnightblue" points="873.062,-195.15 880.55,-187.655 870.022,-188.845 873.062,-195.15"/>
</g>
<!-- Node10 -->
<g id="node10" class="node"><title>Node10</title>
<polygon fill="white" stroke="#bfbfbf" points="943,-168.5 943,-187.5 992,-187.5 992,-168.5 943,-168.5"/>
<text text-anchor="middle" x="967.5" y="-175.5" font-family="Helvetica,sans-Serif" font-size="10.00">string.h</text>
</g>
<!-- Node1&#45;&gt;Node10 -->
<g id="edge9" class="edge"><title>Node1&#45;&gt;Node10</title>
<path fill="none" stroke="midnightblue" d="M815.18,-224.444C847.069,-214.93 898.573,-199.564 932.732,-189.373"/>
<polygon fill="midnightblue" stroke="midnightblue" points="934.153,-192.601 942.735,-186.388 932.152,-185.893 934.153,-192.601"/>
</g>
<!-- Node11 -->
<g id="node11" class="node"><title>Node11</title>
<polygon fill="white" stroke="#bfbfbf" points="1010,-168.5 1010,-187.5 1083,-187.5 1083,-168.5 1010,-168.5"/>
<text text-anchor="middle" x="1046.5" y="-175.5" font-family="Helvetica,sans-Serif" font-size="10.00">sys/socket.h</text>
</g>
<!-- Node1&#45;&gt;Node11 -->
<g id="edge10" class="edge"><title>Node1&#45;&gt;Node11</title>
<path fill="none" stroke="midnightblue" d="M827.698,-224.444C874.486,-214.726 950.672,-198.903 999.675,-188.725"/>
<polygon fill="midnightblue" stroke="midnightblue" points="1000.62,-192.104 1009.7,-186.643 999.196,-185.25 1000.62,-192.104"/>
</g>
<!-- Node12 -->
<g id="node12" class="node"><title>Node12</title>
<polygon fill="white" stroke="#bfbfbf" points="1101.5,-168.5 1101.5,-187.5 1149.5,-187.5 1149.5,-168.5 1101.5,-168.5"/>
<text text-anchor="middle" x="1125.5" y="-175.5" font-family="Helvetica,sans-Serif" font-size="10.00">stdlib.h</text>
</g>
<!-- Node1&#45;&gt;Node12 -->
<g id="edge11" class="edge"><title>Node1&#45;&gt;Node12</title>
<path fill="none" stroke="midnightblue" d="M859.271,-224.799C919.233,-217.468 1006.62,-205.472 1091.62,-187.972"/>
<polygon fill="midnightblue" stroke="midnightblue" points="1092.36,-191.393 1101.43,-185.924 1090.93,-184.54 1092.36,-191.393"/>
</g>
<!-- Node13 -->
<g id="node13" class="node"><title>Node13</title>
<polygon fill="white" stroke="#bfbfbf" points="1168,-168.5 1168,-187.5 1219,-187.5 1219,-168.5 1168,-168.5"/>
<text text-anchor="middle" x="1193.5" y="-175.5" font-family="Helvetica,sans-Serif" font-size="10.00">unistd.h</text>
</g>
<!-- Node1&#45;&gt;Node13 -->
<g id="edge12" class="edge"><title>Node1&#45;&gt;Node13</title>
<path fill="none" stroke="midnightblue" d="M859.29,-227.044C932.391,-220.416 1048.37,-208.148 1158.06,-187.838"/>
<polygon fill="midnightblue" stroke="midnightblue" points="1158.79,-191.262 1167.97,-185.977 1157.5,-184.382 1158.79,-191.262"/>
</g>
<!-- Node14 -->
<g id="node14" class="node"><title>Node14</title>
<polygon fill="white" stroke="#bfbfbf" points="1237.5,-168.5 1237.5,-187.5 1283.5,-187.5 1283.5,-168.5 1237.5,-168.5"/>
<text text-anchor="middle" x="1260.5" y="-175.5" font-family="Helvetica,sans-Serif" font-size="10.00">stdio.h</text>
</g>
<!-- Node1&#45;&gt;Node14 -->
<g id="edge13" class="edge"><title>Node1&#45;&gt;Node14</title>
<path fill="none" stroke="midnightblue" d="M859.017,-229.466C944.888,-224.42 1092.27,-213.055 1227.09,-187.967"/>
<polygon fill="midnightblue" stroke="midnightblue" points="1228.02,-191.355 1237.19,-186.058 1226.72,-184.477 1228.02,-191.355"/>
</g>
<!-- Node15 -->
<g id="node15" class="node"><title>Node15</title>
<g id="a_node15"><a xlink:href="BandwidthCalculator_8h.html" target="_top" xlink:title="BandwidthCalculator.h">
<polygon fill="white" stroke="black" points="475,-168.5 475,-187.5 590,-187.5 590,-168.5 475,-168.5"/>
<text text-anchor="middle" x="532.5" y="-175.5" font-family="Helvetica,sans-Serif" font-size="10.00">BandwidthCalculator.h</text>
</a>
</g>
</g>
<!-- Node1&#45;&gt;Node15 -->
<g id="edge14" class="edge"><title>Node1&#45;&gt;Node15</title>
<path fill="none" stroke="midnightblue" d="M746.253,-224.444C701.85,-215.004 630.347,-199.802 582.412,-189.611"/>
<polygon fill="midnightblue" stroke="midnightblue" points="583.068,-186.173 572.559,-187.516 581.612,-193.02 583.068,-186.173"/>
</g>
<!-- Node22 -->
<g id="node22" class="node"><title>Node22</title>
<g id="a_node22"><a xlink:href="BandwidthValues_8h.html" target="_top" xlink:title="BandwidthValues.h">
<polygon fill="white" stroke="black" points="608,-168.5 608,-187.5 709,-187.5 709,-168.5 608,-168.5"/>
<text text-anchor="middle" x="658.5" y="-175.5" font-family="Helvetica,sans-Serif" font-size="10.00">BandwidthValues.h</text>
</a>
</g>
</g>
<!-- Node1&#45;&gt;Node22 -->
<g id="edge24" class="edge"><title>Node1&#45;&gt;Node22</title>
<path fill="none" stroke="midnightblue" d="M766.218,-224.444C745.153,-215.557 711.983,-201.563 688.014,-191.451"/>
<polygon fill="midnightblue" stroke="midnightblue" points="689.261,-188.179 678.687,-187.516 686.54,-194.628 689.261,-188.179"/>
</g>
<!-- Node23 -->
<g id="node23" class="node"><title>Node23</title>
<g id="a_node23"><a xlink:href="LoggingHandler_8h.html" target="_top" xlink:title="LoggingHandler.h">
<polygon fill="white" stroke="black" points="276.5,-168.5 276.5,-187.5 368.5,-187.5 368.5,-168.5 276.5,-168.5"/>
<text text-anchor="middle" x="322.5" y="-175.5" font-family="Helvetica,sans-Serif" font-size="10.00">LoggingHandler.h</text>
</a>
</g>
</g>
<!-- Node1&#45;&gt;Node23 -->
<g id="edge26" class="edge"><title>Node1&#45;&gt;Node23</title>
<path fill="none" stroke="midnightblue" d="M713.955,-226.182C634.241,-218.427 502.181,-204.807 378.699,-188.103"/>
<polygon fill="midnightblue" stroke="midnightblue" points="379.068,-184.621 368.687,-186.739 378.123,-191.557 379.068,-184.621"/>
</g>
<!-- Node25 -->
<g id="node25" class="node"><title>Node25</title>
<g id="a_node25"><a xlink:href="TCControl_8h.html" target="_top" xlink:title="TCControl.h">
<polygon fill="white" stroke="black" points="386.5,-168.5 386.5,-187.5 456.5,-187.5 456.5,-168.5 386.5,-168.5"/>
<text text-anchor="middle" x="421.5" y="-175.5" font-family="Helvetica,sans-Serif" font-size="10.00">TCControl.h</text>
</a>
</g>
</g>
<!-- Node1&#45;&gt;Node25 -->
<g id="edge29" class="edge"><title>Node1&#45;&gt;Node25</title>
<path fill="none" stroke="midnightblue" d="M716.485,-224.465C653.616,-216.509 558.568,-203.761 466.57,-188.094"/>
<polygon fill="midnightblue" stroke="midnightblue" points="466.975,-184.613 456.527,-186.37 465.791,-191.512 466.975,-184.613"/>
</g>
<!-- Node26 -->
<g id="node26" class="node"><title>Node26</title>
<g id="a_node26"><a xlink:href="ThreadHelper_8h.html" target="_top" xlink:title="ThreadHelper.h">
<polygon fill="white" stroke="black" points="175,-168.5 175,-187.5 258,-187.5 258,-168.5 175,-168.5"/>
<text text-anchor="middle" x="216.5" y="-175.5" font-family="Helvetica,sans-Serif" font-size="10.00">ThreadHelper.h</text>
</a>
</g>
</g>
<!-- Node1&#45;&gt;Node26 -->
<g id="edge31" class="edge"><title>Node1&#45;&gt;Node26</title>
<path fill="none" stroke="midnightblue" d="M713.649,-228.717C615.098,-222.469 433.631,-209.367 268.549,-188.02"/>
<polygon fill="midnightblue" stroke="midnightblue" points="268.571,-184.493 258.202,-186.668 267.665,-191.434 268.571,-184.493"/>
</g>
<!-- Node3 -->
<g id="node3" class="node"><title>Node3</title>
<polygon fill="white" stroke="#bfbfbf" points="83.5,-112.5 83.5,-131.5 145.5,-131.5 145.5,-112.5 83.5,-112.5"/>
<text text-anchor="middle" x="114.5" y="-119.5" font-family="Helvetica,sans-Serif" font-size="10.00">arpa/inet.h</text>
</g>
<!-- Node2&#45;&gt;Node3 -->
<g id="edge2" class="edge"><title>Node2&#45;&gt;Node3</title>
<path fill="none" stroke="midnightblue" d="M93.6282,-168.083C97.0139,-160.77 101.916,-150.181 106.119,-141.103"/>
<polygon fill="midnightblue" stroke="midnightblue" points="109.423,-142.296 110.449,-131.751 103.071,-139.355 109.423,-142.296"/>
</g>
<!-- Node4 -->
<g id="node4" class="node"><title>Node4</title>
<polygon fill="white" stroke="#bfbfbf" points="0,-112.5 0,-131.5 65,-131.5 65,-112.5 0,-112.5"/>
<text text-anchor="middle" x="32.5" y="-119.5" font-family="Helvetica,sans-Serif" font-size="10.00">netinet/ip.h</text>
</g>
<!-- Node2&#45;&gt;Node4 -->
<g id="edge3" class="edge"><title>Node2&#45;&gt;Node4</title>
<path fill="none" stroke="midnightblue" d="M80.342,-168.324C71.9985,-160.42 59.4676,-148.548 49.3231,-138.938"/>
<polygon fill="midnightblue" stroke="midnightblue" points="51.4913,-136.171 41.8247,-131.834 46.6771,-141.252 51.4913,-136.171"/>
</g>
<!-- Node5 -->
<g id="node5" class="node"><title>Node5</title>
<polygon fill="white" stroke="#bfbfbf" points="188,-112.5 188,-131.5 245,-131.5 245,-112.5 188,-112.5"/>
<text text-anchor="middle" x="216.5" y="-119.5" font-family="Helvetica,sans-Serif" font-size="10.00">pthread.h</text>
</g>
<!-- Node2&#45;&gt;Node5 -->
<g id="edge4" class="edge"><title>Node2&#45;&gt;Node5</title>
<path fill="none" stroke="midnightblue" d="M109.624,-168.444C130.524,-159.557 163.435,-145.563 187.216,-135.451"/>
<polygon fill="midnightblue" stroke="midnightblue" points="188.638,-138.65 196.471,-131.516 185.898,-132.208 188.638,-138.65"/>
</g>
<!-- Node6 -->
<g id="node6" class="node"><title>Node6</title>
<polygon fill="white" stroke="#bfbfbf" points="384,-112.5 384,-131.5 425,-131.5 425,-112.5 384,-112.5"/>
<text text-anchor="middle" x="404.5" y="-119.5" font-family="Helvetica,sans-Serif" font-size="10.00">string</text>
</g>
<!-- Node2&#45;&gt;Node6 -->
<g id="edge5" class="edge"><title>Node2&#45;&gt;Node6</title>
<path fill="none" stroke="midnightblue" d="M141.734,-168.488C195.594,-159.642 281.989,-145.263 356.5,-132 362.134,-130.997 368.135,-129.897 373.916,-128.821"/>
<polygon fill="midnightblue" stroke="midnightblue" points="374.777,-132.221 383.96,-126.937 373.486,-125.341 374.777,-132.221"/>
</g>
<!-- Node15&#45;&gt;Node5 -->
<g id="edge15" class="edge"><title>Node15&#45;&gt;Node5</title>
<path fill="none" stroke="midnightblue" d="M482.429,-168.444C419.353,-157.665 312.319,-139.374 255.17,-129.608"/>
<polygon fill="midnightblue" stroke="midnightblue" points="255.548,-126.122 245.101,-127.888 254.369,-133.022 255.548,-126.122"/>
</g>
<!-- Node15&#45;&gt;Node6 -->
<g id="edge17" class="edge"><title>Node15&#45;&gt;Node6</title>
<path fill="none" stroke="midnightblue" d="M512.218,-168.444C491.153,-159.557 457.983,-145.563 434.014,-135.451"/>
<polygon fill="midnightblue" stroke="midnightblue" points="435.261,-132.179 424.687,-131.516 432.54,-138.628 435.261,-132.179"/>
</g>
<!-- Node16 -->
<g id="node16" class="node"><title>Node16</title>
<polygon fill="white" stroke="#bfbfbf" points="622,-112.5 622,-131.5 671,-131.5 671,-112.5 622,-112.5"/>
<text text-anchor="middle" x="646.5" y="-119.5" font-family="Helvetica,sans-Serif" font-size="10.00">stdint.h</text>
</g>
<!-- Node15&#45;&gt;Node16 -->
<g id="edge16" class="edge"><title>Node15&#45;&gt;Node16</title>
<path fill="none" stroke="midnightblue" d="M550.564,-168.444C569.075,-159.675 598.081,-145.935 619.355,-135.858"/>
<polygon fill="midnightblue" stroke="midnightblue" points="620.982,-138.96 628.521,-131.516 617.985,-132.634 620.982,-138.96"/>
</g>
<!-- Node17 -->
<g id="node17" class="node"><title>Node17</title>
<g id="a_node17"><a xlink:href="SimpleRateCalculator_8h.html" target="_top" xlink:title="SimpleRateCalculator.h">
<polygon fill="white" stroke="black" points="472.5,-112.5 472.5,-131.5 592.5,-131.5 592.5,-112.5 472.5,-112.5"/>
<text text-anchor="middle" x="532.5" y="-119.5" font-family="Helvetica,sans-Serif" font-size="10.00">SimpleRateCalculator.h</text>
</a>
</g>
</g>
<!-- Node15&#45;&gt;Node17 -->
<g id="edge18" class="edge"><title>Node15&#45;&gt;Node17</title>
<path fill="none" stroke="midnightblue" d="M532.5,-168.083C532.5,-161.006 532.5,-150.861 532.5,-141.986"/>
<polygon fill="midnightblue" stroke="midnightblue" points="536,-141.751 532.5,-131.751 529,-141.751 536,-141.751"/>
</g>
<!-- Node18 -->
<g id="node18" class="node"><title>Node18</title>
<polygon fill="white" stroke="#bfbfbf" points="463,-56.5 463,-75.5 504,-75.5 504,-56.5 463,-56.5"/>
<text text-anchor="middle" x="483.5" y="-63.5" font-family="Helvetica,sans-Serif" font-size="10.00">ctime</text>
</g>
<!-- Node17&#45;&gt;Node18 -->
<g id="edge19" class="edge"><title>Node17&#45;&gt;Node18</title>
<path fill="none" stroke="midnightblue" d="M524.409,-112.083C517.345,-104.298 506.912,-92.8015 498.351,-83.3665"/>
<polygon fill="midnightblue" stroke="midnightblue" points="500.753,-80.8047 491.441,-75.7511 495.569,-85.5087 500.753,-80.8047"/>
</g>
<!-- Node19 -->
<g id="node19" class="node"><title>Node19</title>
<g id="a_node19"><a xlink:href="CurrentAndLastValues_8h.html" target="_top" xlink:title="CurrentAndLastValues.h">
<polygon fill="white" stroke="black" points="471,-0.5 471,-19.5 594,-19.5 594,-0.5 471,-0.5"/>
<text text-anchor="middle" x="532.5" y="-7.5" font-family="Helvetica,sans-Serif" font-size="10.00">CurrentAndLastValues.h</text>
</a>
</g>
</g>
<!-- Node17&#45;&gt;Node19 -->
<g id="edge20" class="edge"><title>Node17&#45;&gt;Node19</title>
<path fill="none" stroke="midnightblue" d="M532.5,-112.368C532.5,-94.617 532.5,-53.6664 532.5,-29.5974"/>
<polygon fill="midnightblue" stroke="midnightblue" points="536,-29.5914 532.5,-19.5914 529,-29.5915 536,-29.5914"/>
</g>
<!-- Node20 -->
<g id="node20" class="node"><title>Node20</title>
<g id="a_node20"><a xlink:href="SimpleRateCalculation_8h.html" target="_top" xlink:title="SimpleRateCalculation.h">
<polygon fill="white" stroke="black" points="561,-56.5 561,-75.5 686,-75.5 686,-56.5 561,-56.5"/>
<text text-anchor="middle" x="623.5" y="-63.5" font-family="Helvetica,sans-Serif" font-size="10.00">SimpleRateCalculation.h</text>
</a>
</g>
</g>
<!-- Node17&#45;&gt;Node20 -->
<g id="edge21" class="edge"><title>Node17&#45;&gt;Node20</title>
<path fill="none" stroke="midnightblue" d="M547.121,-112.324C561.449,-103.822 583.513,-90.7288 600.249,-80.7975"/>
<polygon fill="midnightblue" stroke="midnightblue" points="602.102,-83.7677 608.916,-75.6545 598.53,-77.7478 602.102,-83.7677"/>
</g>
<!-- Node20&#45;&gt;Node19 -->
<g id="edge22" class="edge"><title>Node20&#45;&gt;Node19</title>
<path fill="none" stroke="midnightblue" d="M608.879,-56.324C594.551,-47.8215 572.487,-34.7288 555.751,-24.7975"/>
<polygon fill="midnightblue" stroke="midnightblue" points="557.47,-21.7478 547.084,-19.6545 553.898,-27.7677 557.47,-21.7478"/>
</g>
<!-- Node21 -->
<g id="node21" class="node"><title>Node21</title>
<polygon fill="white" stroke="#bfbfbf" points="612.5,-0.5 612.5,-19.5 656.5,-19.5 656.5,-0.5 612.5,-0.5"/>
<text text-anchor="middle" x="634.5" y="-7.5" font-family="Helvetica,sans-Serif" font-size="10.00">time.h</text>
</g>
<!-- Node20&#45;&gt;Node21 -->
<g id="edge23" class="edge"><title>Node20&#45;&gt;Node21</title>
<path fill="none" stroke="midnightblue" d="M625.316,-56.083C626.774,-48.9272 628.871,-38.6353 630.693,-29.6911"/>
<polygon fill="midnightblue" stroke="midnightblue" points="634.151,-30.2485 632.717,-19.7511 627.292,-28.8512 634.151,-30.2485"/>
</g>
<!-- Node22&#45;&gt;Node16 -->
<g id="edge25" class="edge"><title>Node22&#45;&gt;Node16</title>
<path fill="none" stroke="midnightblue" d="M656.518,-168.083C654.928,-160.927 652.641,-150.635 650.654,-141.691"/>
<polygon fill="midnightblue" stroke="midnightblue" points="654.031,-140.754 648.445,-131.751 647.197,-142.272 654.031,-140.754"/>
</g>
<!-- Node23&#45;&gt;Node6 -->
<g id="edge27" class="edge"><title>Node23&#45;&gt;Node6</title>
<path fill="none" stroke="midnightblue" d="M335.675,-168.324C348.347,-159.979 367.733,-147.212 382.706,-137.352"/>
<polygon fill="midnightblue" stroke="midnightblue" points="384.931,-140.078 391.358,-131.655 381.081,-134.231 384.931,-140.078"/>
</g>
<!-- Node24 -->
<g id="node24" class="node"><title>Node24</title>
<polygon fill="white" stroke="#bfbfbf" points="297.5,-112.5 297.5,-131.5 347.5,-131.5 347.5,-112.5 297.5,-112.5"/>
<text text-anchor="middle" x="322.5" y="-119.5" font-family="Helvetica,sans-Serif" font-size="10.00">fstream</text>
</g>
<!-- Node23&#45;&gt;Node24 -->
<g id="edge28" class="edge"><title>Node23&#45;&gt;Node24</title>
<path fill="none" stroke="midnightblue" d="M322.5,-168.083C322.5,-161.006 322.5,-150.861 322.5,-141.986"/>
<polygon fill="midnightblue" stroke="midnightblue" points="326,-141.751 322.5,-131.751 319,-141.751 326,-141.751"/>
</g>
<!-- Node25&#45;&gt;Node6 -->
<g id="edge30" class="edge"><title>Node25&#45;&gt;Node6</title>
<path fill="none" stroke="midnightblue" d="M418.693,-168.083C416.415,-160.849 413.129,-150.409 410.292,-141.397"/>
<polygon fill="midnightblue" stroke="midnightblue" points="413.596,-140.239 407.255,-131.751 406.919,-142.341 413.596,-140.239"/>
</g>
<!-- Node26&#45;&gt;Node5 -->
<g id="edge32" class="edge"><title>Node26&#45;&gt;Node5</title>
<path fill="none" stroke="midnightblue" d="M216.5,-168.083C216.5,-161.006 216.5,-150.861 216.5,-141.986"/>
<polygon fill="midnightblue" stroke="midnightblue" points="220,-141.751 216.5,-131.751 213,-141.751 220,-141.751"/>
</g>
</g>
</svg>
