<?xml version="1.0" encoding="UTF-8" standalone="no"?>
<!DOCTYPE svg PUBLIC "-//W3C//DTD SVG 1.1//EN"
 "http://www.w3.org/Graphics/SVG/1.1/DTD/svg11.dtd">
<!-- Generated by graphviz version 2.38.0 (20140413.2041)
 -->
<!-- Title: BandwidthCommunicator.cpp Pages: 1 -->
<svg width="1351pt" height="252pt"
 viewBox="0.00 0.00 1351.00 252.00" xmlns="http://www.w3.org/2000/svg" xmlns:xlink="http://www.w3.org/1999/xlink">
<g id="graph0" class="graph" transform="scale(1 1) rotate(0) translate(4 248)">
<title>BandwidthCommunicator.cpp</title>
<polygon fill="white" stroke="none" points="-4,4 -4,-248 1347,-248 1347,4 -4,4"/>
<!-- Node1 -->
<g id="node1" class="node"><title>Node1</title>
<polygon fill="#bfbfbf" stroke="black" points="773.5,-224.5 773.5,-243.5 918.5,-243.5 918.5,-224.5 773.5,-224.5"/>
<text text-anchor="middle" x="846" y="-231.5" font-family="Helvetica,sans-Serif" font-size="10.00">BandwidthCommunicator.cpp</text>
</g>
<!-- Node2 -->
<g id="node2" class="node"><title>Node2</title>
<g id="a_node2"><a xlink:href="BandwidthCommunicator_8h.html" target="_top" xlink:title="BandwidthCommunicator.h">
<polygon fill="white" stroke="black" points="22,-168.5 22,-187.5 156,-187.5 156,-168.5 22,-168.5"/>
<text text-anchor="middle" x="89" y="-175.5" font-family="Helvetica,sans-Serif" font-size="10.00">BandwidthCommunicator.h</text>
</a>
</g>
</g>
<!-- Node1&#45;&gt;Node2 -->
<g id="edge1" class="edge"><title>Node1&#45;&gt;Node2</title>
<path fill="none" stroke="midnightblue" d="M773.336,-229.439C650.532,-223.147 393.885,-208.822 166.249,-188.069"/>
<polygon fill="midnightblue" stroke="midnightblue" points="166.395,-184.568 156.117,-187.139 165.755,-191.539 166.395,-184.568"/>
</g>
<!-- Node7 -->
<g id="node7" class="node"><title>Node7</title>
<polygon fill="white" stroke="#bfbfbf" points="786.5,-168.5 786.5,-187.5 833.5,-187.5 833.5,-168.5 786.5,-168.5"/>
<text text-anchor="middle" x="810" y="-175.5" font-family="Helvetica,sans-Serif" font-size="10.00">errno.h</text>
</g>
<!-- Node1&#45;&gt;Node7 -->
<g id="edge6" class="edge"><title>Node1&#45;&gt;Node7</title>
<path fill="none" stroke="midnightblue" d="M840.055,-224.083C835.023,-216.534 827.663,-205.495 821.487,-196.23"/>
<polygon fill="midnightblue" stroke="midnightblue" points="824.293,-194.13 815.834,-187.751 818.469,-198.013 824.293,-194.13"/>
</g>
<!-- Node8 -->
<g id="node8" class="node"><title>Node8</title>
<polygon fill="white" stroke="#bfbfbf" points="852,-168.5 852,-187.5 914,-187.5 914,-168.5 852,-168.5"/>
<text text-anchor="middle" x="883" y="-175.5" font-family="Helvetica,sans-Serif" font-size="10.00">linux/tcp.h</text>
</g>
<!-- Node1&#45;&gt;Node8 -->
<g id="edge7" class="edge"><title>Node1&#45;&gt;Node8</title>
<path fill="none" stroke="midnightblue" d="M852.11,-224.083C857.282,-216.534 864.846,-205.495 871.194,-196.23"/>
<polygon fill="midnightblue" stroke="midnightblue" points="874.239,-197.979 877.004,-187.751 868.464,-194.022 874.239,-197.979"/>
</g>
<!-- Node9 -->
<g id="node9" class="node"><title>Node9</title>
<polygon fill="white" stroke="#bfbfbf" points="932,-168.5 932,-187.5 984,-187.5 984,-168.5 932,-168.5"/>
<text text-anchor="middle" x="958" y="-175.5" font-family="Helvetica,sans-Serif" font-size="10.00">sstream</text>
</g>
<!-- Node1&#45;&gt;Node9 -->
<g id="edge8" class="edge"><title>Node1&#45;&gt;Node9</title>
<path fill="none" stroke="midnightblue" d="M863.995,-224.324C882.038,-215.625 910.047,-202.12 930.803,-192.113"/>
<polygon fill="midnightblue" stroke="midnightblue" points="932.562,-195.15 940.05,-187.655 929.522,-188.845 932.562,-195.15"/>
</g>
<!-- Node10 -->
<g id="node10" class="node"><title>Node10</title>
<polygon fill="white" stroke="#bfbfbf" points="1002.5,-168.5 1002.5,-187.5 1051.5,-187.5 1051.5,-168.5 1002.5,-168.5"/>
<text text-anchor="middle" x="1027" y="-175.5" font-family="Helvetica,sans-Serif" font-size="10.00">string.h</text>
</g>
<!-- Node1&#45;&gt;Node10 -->
<g id="edge9" class="edge"><title>Node1&#45;&gt;Node10</title>
<path fill="none" stroke="midnightblue" d="M874.68,-224.444C906.569,-214.93 958.073,-199.564 992.232,-189.373"/>
<polygon fill="midnightblue" stroke="midnightblue" points="993.653,-192.601 1002.24,-186.388 991.652,-185.893 993.653,-192.601"/>
</g>
<!-- Node11 -->
<g id="node11" class="node"><title>Node11</title>
<polygon fill="white" stroke="#bfbfbf" points="1069.5,-168.5 1069.5,-187.5 1142.5,-187.5 1142.5,-168.5 1069.5,-168.5"/>
<text text-anchor="middle" x="1106" y="-175.5" font-family="Helvetica,sans-Serif" font-size="10.00">sys/socket.h</text>
</g>
<!-- Node1&#45;&gt;Node11 -->
<g id="edge10" class="edge"><title>Node1&#45;&gt;Node11</title>
<path fill="none" stroke="midnightblue" d="M887.198,-224.444C933.986,-214.726 1010.17,-198.903 1059.17,-188.725"/>
<polygon fill="midnightblue" stroke="midnightblue" points="1060.12,-192.104 1069.2,-186.643 1058.7,-185.25 1060.12,-192.104"/>
</g>
<!-- Node12 -->
<g id="node12" class="node"><title>Node12</title>
<polygon fill="white" stroke="#bfbfbf" points="1161,-168.5 1161,-187.5 1209,-187.5 1209,-168.5 1161,-168.5"/>
<text text-anchor="middle" x="1185" y="-175.5" font-family="Helvetica,sans-Serif" font-size="10.00">stdlib.h</text>
</g>
<!-- Node1&#45;&gt;Node12 -->
<g id="edge11" class="edge"><title>Node1&#45;&gt;Node12</title>
<path fill="none" stroke="midnightblue" d="M918.771,-224.799C978.733,-217.468 1066.12,-205.472 1151.12,-187.972"/>
<polygon fill="midnightblue" stroke="midnightblue" points="1151.86,-191.393 1160.93,-185.924 1150.43,-184.54 1151.86,-191.393"/>
</g>
<!-- Node13 -->
<g id="node13" class="node"><title>Node13</title>
<polygon fill="white" stroke="#bfbfbf" points="1227.5,-168.5 1227.5,-187.5 1278.5,-187.5 1278.5,-168.5 1227.5,-168.5"/>
<text text-anchor="middle" x="1253" y="-175.5" font-family="Helvetica,sans-Serif" font-size="10.00">unistd.h</text>
</g>
<!-- Node1&#45;&gt;Node13 -->
<g id="edge12" class="edge"><title>Node1&#45;&gt;Node13</title>
<path fill="none" stroke="midnightblue" d="M918.79,-227.044C991.891,-220.416 1107.87,-208.148 1217.56,-187.838"/>
<polygon fill="midnightblue" stroke="midnightblue" points="1218.29,-191.262 1227.47,-185.977 1217,-184.382 1218.29,-191.262"/>
</g>
<!-- Node14 -->
<g id="node14" class="node"><title>Node14</title>
<polygon fill="white" stroke="#bfbfbf" points="1297,-168.5 1297,-187.5 1343,-187.5 1343,-168.5 1297,-168.5"/>
<text text-anchor="middle" x="1320" y="-175.5" font-family="Helvetica,sans-Serif" font-size="10.00">stdio.h</text>
</g>
<!-- Node1&#45;&gt;Node14 -->
<g id="edge13" class="edge"><title>Node1&#45;&gt;Node14</title>
<path fill="none" stroke="midnightblue" d="M918.517,-229.466C1004.39,-224.42 1151.77,-213.055 1286.59,-187.967"/>
<polygon fill="midnightblue" stroke="midnightblue" points="1287.52,-191.355 1296.69,-186.058 1286.22,-184.477 1287.52,-191.355"/>
</g>
<!-- Node15 -->
<g id="node15" class="node"><title>Node15</title>
<g id="a_node15"><a xlink:href="BandwidthCalculator_8h.html" target="_top" xlink:title="BandwidthCalculator.h">
<polygon fill="white" stroke="black" points="474.5,-168.5 474.5,-187.5 589.5,-187.5 589.5,-168.5 474.5,-168.5"/>
<text text-anchor="middle" x="532" y="-175.5" font-family="Helvetica,sans-Serif" font-size="10.00">BandwidthCalculator.h</text>
</a>
</g>
</g>
<!-- Node1&#45;&gt;Node15 -->
<g id="edge14" class="edge"><title>Node1&#45;&gt;Node15</title>
<path fill="none" stroke="midnightblue" d="M796.246,-224.444C740.665,-214.885 650.736,-199.419 591.484,-189.23"/>
<polygon fill="midnightblue" stroke="midnightblue" points="591.97,-185.762 581.521,-187.516 590.784,-192.661 591.97,-185.762"/>
</g>
<!-- Node22 -->
<g id="node22" class="node"><title>Node22</title>
<g id="a_node22"><a xlink:href="LoggingHandler_8h.html" target="_top" xlink:title="LoggingHandler.h">
<polygon fill="white" stroke="black" points="276,-168.5 276,-187.5 368,-187.5 368,-168.5 276,-168.5"/>
<text text-anchor="middle" x="322" y="-175.5" font-family="Helvetica,sans-Serif" font-size="10.00">LoggingHandler.h</text>
</a>
</g>
</g>
<!-- Node1&#45;&gt;Node22 -->
<g id="edge24" class="edge"><title>Node1&#45;&gt;Node22</title>
<path fill="none" stroke="midnightblue" d="M773.12,-227.519C682.828,-220.389 524.059,-206.746 378.213,-188.08"/>
<polygon fill="midnightblue" stroke="midnightblue" points="378.546,-184.594 368.181,-186.786 377.651,-191.537 378.546,-184.594"/>
</g>
<!-- Node24 -->
<g id="node24" class="node"><title>Node24</title>
<g id="a_node24"><a xlink:href="TCControl_8h.html" target="_top" xlink:title="TCControl.h">
<polygon fill="white" stroke="black" points="386,-168.5 386,-187.5 456,-187.5 456,-168.5 386,-168.5"/>
<text text-anchor="middle" x="421" y="-175.5" font-family="Helvetica,sans-Serif" font-size="10.00">TCControl.h</text>
</a>
</g>
</g>
<!-- Node1&#45;&gt;Node24 -->
<g id="edge27" class="edge"><title>Node1&#45;&gt;Node24</title>
<path fill="none" stroke="midnightblue" d="M773.417,-226.263C698.823,-218.923 579.124,-205.993 466.219,-188.075"/>
<polygon fill="midnightblue" stroke="midnightblue" points="466.444,-184.567 456.016,-186.439 465.335,-191.478 466.444,-184.567"/>
</g>
<!-- Node25 -->
<g id="node25" class="node"><title>Node25</title>
<g id="a_node25"><a xlink:href="ThreadHelper_8h.html" target="_top" xlink:title="ThreadHelper.h">
<polygon fill="white" stroke="black" points="174.5,-168.5 174.5,-187.5 257.5,-187.5 257.5,-168.5 174.5,-168.5"/>
<text text-anchor="middle" x="216" y="-175.5" font-family="Helvetica,sans-Serif" font-size="10.00">ThreadHelper.h</text>
</a>
</g>
</g>
<!-- Node1&#45;&gt;Node25 -->
<g id="edge29" class="edge"><title>Node1&#45;&gt;Node25</title>
<path fill="none" stroke="midnightblue" d="M773.103,-229.61C665.043,-224.08 455.812,-211.441 267.771,-187.969"/>
<polygon fill="midnightblue" stroke="midnightblue" points="268.058,-184.477 257.698,-186.698 267.182,-191.422 268.058,-184.477"/>
</g>
<!-- Node26 -->
<g id="node26" class="node"><title>Node26</title>
<g id="a_node26"><a xlink:href="WorkConservationFlowHandler_8h.html" target="_top" xlink:title="WorkConservationFlowHandler.h">
<polygon fill="white" stroke="black" points="607.5,-168.5 607.5,-187.5 768.5,-187.5 768.5,-168.5 607.5,-168.5"/>
<text text-anchor="middle" x="688" y="-175.5" font-family="Helvetica,sans-Serif" font-size="10.00">WorkConservationFlowHandler.h</text>
</a>
</g>
</g>
<!-- Node1&#45;&gt;Node26 -->
<g id="edge31" class="edge"><title>Node1&#45;&gt;Node26</title>
<path fill="none" stroke="midnightblue" d="M820.964,-224.444C794.384,-215.359 752.191,-200.939 722.477,-190.783"/>
<polygon fill="midnightblue" stroke="midnightblue" points="723.513,-187.439 712.918,-187.516 721.249,-194.062 723.513,-187.439"/>
</g>
<!-- Node3 -->
<g id="node3" class="node"><title>Node3</title>
<polygon fill="white" stroke="#bfbfbf" points="0,-112.5 0,-131.5 62,-131.5 62,-112.5 0,-112.5"/>
<text text-anchor="middle" x="31" y="-119.5" font-family="Helvetica,sans-Serif" font-size="10.00">arpa/inet.h</text>
</g>
<!-- Node2&#45;&gt;Node3 -->
<g id="edge2" class="edge"><title>Node2&#45;&gt;Node3</title>
<path fill="none" stroke="midnightblue" d="M79.6813,-168.324C71.1074,-160.341 58.1878,-148.313 47.8124,-138.653"/>
<polygon fill="midnightblue" stroke="midnightblue" points="50.1922,-136.086 40.4883,-131.834 45.4223,-141.21 50.1922,-136.086"/>
</g>
<!-- Node4 -->
<g id="node4" class="node"><title>Node4</title>
<polygon fill="white" stroke="#bfbfbf" points="80.5,-112.5 80.5,-131.5 145.5,-131.5 145.5,-112.5 80.5,-112.5"/>
<text text-anchor="middle" x="113" y="-119.5" font-family="Helvetica,sans-Serif" font-size="10.00">netinet/ip.h</text>
</g>
<!-- Node2&#45;&gt;Node4 -->
<g id="edge3" class="edge"><title>Node2&#45;&gt;Node4</title>
<path fill="none" stroke="midnightblue" d="M92.9631,-168.083C96.2133,-160.77 100.919,-150.181 104.954,-141.103"/>
<polygon fill="midnightblue" stroke="midnightblue" points="108.248,-142.311 109.111,-131.751 101.851,-139.468 108.248,-142.311"/>
</g>
<!-- Node5 -->
<g id="node5" class="node"><title>Node5</title>
<polygon fill="white" stroke="#bfbfbf" points="187.5,-112.5 187.5,-131.5 244.5,-131.5 244.5,-112.5 187.5,-112.5"/>
<text text-anchor="middle" x="216" y="-119.5" font-family="Helvetica,sans-Serif" font-size="10.00">pthread.h</text>
</g>
<!-- Node2&#45;&gt;Node5 -->
<g id="edge4" class="edge"><title>Node2&#45;&gt;Node5</title>
<path fill="none" stroke="midnightblue" d="M109.124,-168.444C130.024,-159.557 162.935,-145.563 186.716,-135.451"/>
<polygon fill="midnightblue" stroke="midnightblue" points="188.138,-138.65 195.971,-131.516 185.398,-132.208 188.138,-138.65"/>
</g>
<!-- Node6 -->
<g id="node6" class="node"><title>Node6</title>
<polygon fill="white" stroke="#bfbfbf" points="400.5,-112.5 400.5,-131.5 441.5,-131.5 441.5,-112.5 400.5,-112.5"/>
<text text-anchor="middle" x="421" y="-119.5" font-family="Helvetica,sans-Serif" font-size="10.00">string</text>
</g>
<!-- Node2&#45;&gt;Node6 -->
<g id="edge5" class="edge"><title>Node2&#45;&gt;Node6</title>
<path fill="none" stroke="midnightblue" d="M141.606,-168.444C211.689,-157.045 333.424,-137.244 390.198,-128.01"/>
<polygon fill="midnightblue" stroke="midnightblue" points="391.025,-131.421 400.334,-126.361 389.902,-124.512 391.025,-131.421"/>
</g>
<!-- Node15&#45;&gt;Node5 -->
<g id="edge15" class="edge"><title>Node15&#45;&gt;Node5</title>
<path fill="none" stroke="midnightblue" d="M481.929,-168.444C418.853,-157.665 311.819,-139.374 254.67,-129.608"/>
<polygon fill="midnightblue" stroke="midnightblue" points="255.048,-126.122 244.601,-127.888 253.869,-133.022 255.048,-126.122"/>
</g>
<!-- Node15&#45;&gt;Node6 -->
<g id="edge17" class="edge"><title>Node15&#45;&gt;Node6</title>
<path fill="none" stroke="midnightblue" d="M514.166,-168.324C496.284,-159.625 468.525,-146.12 447.954,-136.113"/>
<polygon fill="midnightblue" stroke="midnightblue" points="449.313,-132.882 438.79,-131.655 446.251,-139.177 449.313,-132.882"/>
</g>
<!-- Node16 -->
<g id="node16" class="node"><title>Node16</title>
<polygon fill="white" stroke="#bfbfbf" points="603.5,-112.5 603.5,-131.5 652.5,-131.5 652.5,-112.5 603.5,-112.5"/>
<text text-anchor="middle" x="628" y="-119.5" font-family="Helvetica,sans-Serif" font-size="10.00">stdint.h</text>
</g>
<!-- Node15&#45;&gt;Node16 -->
<g id="edge16" class="edge"><title>Node15&#45;&gt;Node16</title>
<path fill="none" stroke="midnightblue" d="M547.424,-168.324C562.54,-159.822 585.815,-146.729 603.471,-136.797"/>
<polygon fill="midnightblue" stroke="midnightblue" points="605.614,-139.608 612.614,-131.655 602.183,-133.507 605.614,-139.608"/>
</g>
<!-- Node17 -->
<g id="node17" class="node"><title>Node17</title>
<g id="a_node17"><a xlink:href="SimpleRateCalculator_8h.html" target="_top" xlink:title="SimpleRateCalculator.h">
<polygon fill="white" stroke="black" points="466,-112.5 466,-131.5 586,-131.5 586,-112.5 466,-112.5"/>
<text text-anchor="middle" x="526" y="-119.5" font-family="Helvetica,sans-Serif" font-size="10.00">SimpleRateCalculator.h</text>
</a>
</g>
</g>
<!-- Node15&#45;&gt;Node17 -->
<g id="edge18" class="edge"><title>Node15&#45;&gt;Node17</title>
<path fill="none" stroke="midnightblue" d="M531.009,-168.083C530.214,-160.927 529.071,-150.635 528.077,-141.691"/>
<polygon fill="midnightblue" stroke="midnightblue" points="531.555,-141.303 526.972,-131.751 524.598,-142.076 531.555,-141.303"/>
</g>
<!-- Node18 -->
<g id="node18" class="node"><title>Node18</title>
<polygon fill="white" stroke="#bfbfbf" points="593.5,-56.5 593.5,-75.5 634.5,-75.5 634.5,-56.5 593.5,-56.5"/>
<text text-anchor="middle" x="614" y="-63.5" font-family="Helvetica,sans-Serif" font-size="10.00">ctime</text>
</g>
<!-- Node17&#45;&gt;Node18 -->
<g id="edge19" class="edge"><title>Node17&#45;&gt;Node18</title>
<path fill="none" stroke="midnightblue" d="M540.139,-112.324C553.866,-103.9 574.936,-90.9709 591.064,-81.0741"/>
<polygon fill="midnightblue" stroke="midnightblue" points="593.204,-83.8678 599.896,-75.6545 589.543,-77.9016 593.204,-83.8678"/>
</g>
<!-- Node19 -->
<g id="node19" class="node"><title>Node19</title>
<g id="a_node19"><a xlink:href="CurrentAndLastValues_8h.html" target="_top" xlink:title="CurrentAndLastValues.h">
<polygon fill="white" stroke="black" points="617.5,-0.5 617.5,-19.5 740.5,-19.5 740.5,-0.5 617.5,-0.5"/>
<text text-anchor="middle" x="679" y="-7.5" font-family="Helvetica,sans-Serif" font-size="10.00">CurrentAndLastValues.h</text>
</a>
</g>
</g>
<!-- Node17&#45;&gt;Node19 -->
<g id="edge20" class="edge"><title>Node17&#45;&gt;Node19</title>
<path fill="none" stroke="midnightblue" d="M531.895,-112.423C541.503,-98.9563 561.717,-72.6705 584,-56 602.417,-42.2216 625.725,-31.1031 644.645,-23.365"/>
<polygon fill="midnightblue" stroke="midnightblue" points="646.077,-26.5623 654.09,-19.6303 643.503,-20.0528 646.077,-26.5623"/>
</g>
<!-- Node20 -->
<g id="node20" class="node"><title>Node20</title>
<g id="a_node20"><a xlink:href="SimpleRateCalculation_8h.html" target="_top" xlink:title="SimpleRateCalculation.h">
<polygon fill="white" stroke="black" points="411.5,-56.5 411.5,-75.5 536.5,-75.5 536.5,-56.5 411.5,-56.5"/>
<text text-anchor="middle" x="474" y="-63.5" font-family="Helvetica,sans-Serif" font-size="10.00">SimpleRateCalculation.h</text>
</a>
</g>
</g>
<!-- Node17&#45;&gt;Node20 -->
<g id="edge21" class="edge"><title>Node17&#45;&gt;Node20</title>
<path fill="none" stroke="midnightblue" d="M517.413,-112.083C509.841,-104.22 498.622,-92.5688 489.486,-83.0813"/>
<polygon fill="midnightblue" stroke="midnightblue" points="491.885,-80.5266 482.427,-75.7511 486.842,-85.3821 491.885,-80.5266"/>
</g>
<!-- Node20&#45;&gt;Node19 -->
<g id="edge22" class="edge"><title>Node20&#45;&gt;Node19</title>
<path fill="none" stroke="midnightblue" d="M506.483,-56.4435C541.72,-47.1616 598.104,-32.3093 636.759,-22.127"/>
<polygon fill="midnightblue" stroke="midnightblue" points="637.891,-25.4483 646.669,-19.5164 636.107,-18.6792 637.891,-25.4483"/>
</g>
<!-- Node21 -->
<g id="node21" class="node"><title>Node21</title>
<polygon fill="white" stroke="#bfbfbf" points="521,-0.5 521,-19.5 565,-19.5 565,-0.5 521,-0.5"/>
<text text-anchor="middle" x="543" y="-7.5" font-family="Helvetica,sans-Serif" font-size="10.00">time.h</text>
</g>
<!-- Node20&#45;&gt;Node21 -->
<g id="edge23" class="edge"><title>Node20&#45;&gt;Node21</title>
<path fill="none" stroke="midnightblue" d="M485.086,-56.324C495.486,-48.1849 511.261,-35.8395 523.722,-26.0874"/>
<polygon fill="midnightblue" stroke="midnightblue" points="525.994,-28.7533 531.712,-19.8339 521.68,-23.2407 525.994,-28.7533"/>
</g>
<!-- Node22&#45;&gt;Node6 -->
<g id="edge25" class="edge"><title>Node22&#45;&gt;Node6</title>
<path fill="none" stroke="midnightblue" d="M337.906,-168.324C353.638,-159.743 377.942,-146.486 396.209,-136.522"/>
<polygon fill="midnightblue" stroke="midnightblue" points="398.03,-139.516 405.133,-131.655 394.678,-133.37 398.03,-139.516"/>
</g>
<!-- Node23 -->
<g id="node23" class="node"><title>Node23</title>
<polygon fill="white" stroke="#bfbfbf" points="297,-112.5 297,-131.5 347,-131.5 347,-112.5 297,-112.5"/>
<text text-anchor="middle" x="322" y="-119.5" font-family="Helvetica,sans-Serif" font-size="10.00">fstream</text>
</g>
<!-- Node22&#45;&gt;Node23 -->
<g id="edge26" class="edge"><title>Node22&#45;&gt;Node23</title>
<path fill="none" stroke="midnightblue" d="M322,-168.083C322,-161.006 322,-150.861 322,-141.986"/>
<polygon fill="midnightblue" stroke="midnightblue" points="325.5,-141.751 322,-131.751 318.5,-141.751 325.5,-141.751"/>
</g>
<!-- Node24&#45;&gt;Node6 -->
<g id="edge28" class="edge"><title>Node24&#45;&gt;Node6</title>
<path fill="none" stroke="midnightblue" d="M421,-168.083C421,-161.006 421,-150.861 421,-141.986"/>
<polygon fill="midnightblue" stroke="midnightblue" points="424.5,-141.751 421,-131.751 417.5,-141.751 424.5,-141.751"/>
</g>
<!-- Node25&#45;&gt;Node5 -->
<g id="edge30" class="edge"><title>Node25&#45;&gt;Node5</title>
<path fill="none" stroke="midnightblue" d="M216,-168.083C216,-161.006 216,-150.861 216,-141.986"/>
<polygon fill="midnightblue" stroke="midnightblue" points="219.5,-141.751 216,-131.751 212.5,-141.751 219.5,-141.751"/>
</g>
<!-- Node26&#45;&gt;Node6 -->
<g id="edge33" class="edge"><title>Node26&#45;&gt;Node6</title>
<path fill="none" stroke="midnightblue" d="M640.067,-168.423C593.241,-159.864 520.018,-146.005 457,-132 455.271,-131.616 453.497,-131.21 451.709,-130.792"/>
<polygon fill="midnightblue" stroke="midnightblue" points="452.059,-127.276 441.516,-128.327 450.414,-134.08 452.059,-127.276"/>
</g>
<!-- Node26&#45;&gt;Node16 -->
<g id="edge32" class="edge"><title>Node26&#45;&gt;Node16</title>
<path fill="none" stroke="midnightblue" d="M678.36,-168.324C669.49,-160.341 656.125,-148.313 645.392,-138.653"/>
<polygon fill="midnightblue" stroke="midnightblue" points="647.59,-135.922 637.815,-131.834 642.907,-141.125 647.59,-135.922"/>
</g>
<!-- Node27 -->
<g id="node27" class="node"><title>Node27</title>
<g id="a_node27"><a xlink:href="ExponentialSmoothingCalculator_8h.html" target="_top" xlink:title="ExponentialSmoothingCalculator.h">
<polygon fill="white" stroke="black" points="670.5,-112.5 670.5,-131.5 837.5,-131.5 837.5,-112.5 670.5,-112.5"/>
<text text-anchor="middle" x="754" y="-119.5" font-family="Helvetica,sans-Serif" font-size="10.00">ExponentialSmoothingCalculator.h</text>
</a>
</g>
</g>
<!-- Node26&#45;&gt;Node27 -->
<g id="edge34" class="edge"><title>Node26&#45;&gt;Node27</title>
<path fill="none" stroke="midnightblue" d="M698.604,-168.324C708.456,-160.263 723.351,-148.077 735.215,-138.369"/>
<polygon fill="midnightblue" stroke="midnightblue" points="737.68,-140.875 743.203,-131.834 733.247,-135.457 737.68,-140.875"/>
</g>
<!-- Node27&#45;&gt;Node18 -->
<g id="edge35" class="edge"><title>Node27&#45;&gt;Node18</title>
<path fill="none" stroke="midnightblue" d="M731.817,-112.444C708.161,-103.319 670.551,-88.8125 644.204,-78.6501"/>
<polygon fill="midnightblue" stroke="midnightblue" points="645.3,-75.3216 634.71,-74.9883 642.781,-81.8526 645.3,-75.3216"/>
</g>
<!-- Node27&#45;&gt;Node19 -->
<g id="edge36" class="edge"><title>Node27&#45;&gt;Node19</title>
<path fill="none" stroke="midnightblue" d="M763.618,-112.153C776.481,-99.2243 796.315,-74.6767 784,-56 773.36,-39.8645 755.605,-29.4927 737.694,-22.8346"/>
<polygon fill="midnightblue" stroke="midnightblue" points="738.365,-19.3681 727.771,-19.5047 736.138,-26.0044 738.365,-19.3681"/>
</g>
<!-- Node28 -->
<g id="node28" class="node"><title>Node28</title>
<g id="a_node28"><a xlink:href="ExponentialSmoothing_8h.html" target="_top" xlink:title="ExponentialSmoothing.h">
<polygon fill="white" stroke="black" points="653,-56.5 653,-75.5 775,-75.5 775,-56.5 653,-56.5"/>
<text text-anchor="middle" x="714" y="-63.5" font-family="Helvetica,sans-Serif" font-size="10.00">ExponentialSmoothing.h</text>
</a>
</g>
</g>
<!-- Node27&#45;&gt;Node28 -->
<g id="edge37" class="edge"><title>Node27&#45;&gt;Node28</title>
<path fill="none" stroke="midnightblue" d="M747.395,-112.083C741.745,-104.455 733.455,-93.2645 726.549,-83.9408"/>
<polygon fill="midnightblue" stroke="midnightblue" points="729.247,-81.7034 720.482,-75.7511 723.622,-85.87 729.247,-81.7034"/>
</g>
<!-- Node28&#45;&gt;Node19 -->
<g id="edge39" class="edge"><title>Node28&#45;&gt;Node19</title>
<path fill="none" stroke="midnightblue" d="M708.22,-56.083C703.328,-48.5341 696.173,-37.4948 690.167,-28.2298"/>
<polygon fill="midnightblue" stroke="midnightblue" points="693.048,-26.239 684.672,-19.7511 687.174,-30.0463 693.048,-26.239"/>
</g>
<!-- Node28&#45;&gt;Node21 -->
<g id="edge38" class="edge"><title>Node28&#45;&gt;Node21</title>
<path fill="none" stroke="midnightblue" d="M686.905,-56.4435C656.482,-46.8366 607.164,-31.2622 574.904,-21.0749"/>
<polygon fill="midnightblue" stroke="midnightblue" points="575.665,-17.6448 565.075,-17.971 573.557,-24.3199 575.665,-17.6448"/>
</g>
</g>
</svg>
