<?xml version="1.0" encoding="UTF-8" standalone="no"?>
<!DOCTYPE svg PUBLIC "-//W3C//DTD SVG 1.1//EN"
 "http://www.w3.org/Graphics/SVG/1.1/DTD/svg11.dtd">
<!-- Generated by graphviz version 2.38.0 (20140413.2041)
 -->
<!-- Title: BandwidthCommunicator.cpp Pages: 1 -->
<svg width="1270pt" height="252pt"
 viewBox="0.00 0.00 1269.50 252.00" xmlns="http://www.w3.org/2000/svg" xmlns:xlink="http://www.w3.org/1999/xlink">
<g id="graph0" class="graph" transform="scale(1 1) rotate(0) translate(4 248)">
<title>BandwidthCommunicator.cpp</title>
<polygon fill="white" stroke="none" points="-4,4 -4,-248 1265.5,-248 1265.5,4 -4,4"/>
<!-- Node1 -->
<g id="node1" class="node"><title>Node1</title>
<polygon fill="#bfbfbf" stroke="black" points="692,-224.5 692,-243.5 837,-243.5 837,-224.5 692,-224.5"/>
<text text-anchor="middle" x="764.5" y="-231.5" font-family="Helvetica,sans-Serif" font-size="10.00">BandwidthCommunicator.cpp</text>
</g>
<!-- Node2 -->
<g id="node2" class="node"><title>Node2</title>
<g id="a_node2"><a xlink:href="BandwidthCommunicator_8h.html" target="_top" xlink:title="BandwidthCommunicator.h">
<polygon fill="white" stroke="black" points="220.5,-168.5 220.5,-187.5 354.5,-187.5 354.5,-168.5 220.5,-168.5"/>
<text text-anchor="middle" x="287.5" y="-175.5" font-family="Helvetica,sans-Serif" font-size="10.00">BandwidthCommunicator.h</text>
</a>
</g>
</g>
<!-- Node1&#45;&gt;Node2 -->
<g id="edge1" class="edge"><title>Node1&#45;&gt;Node2</title>
<path fill="none" stroke="midnightblue" d="M691.678,-224.963C613.514,-216.307 485.399,-202.029 364.787,-188.143"/>
<polygon fill="midnightblue" stroke="midnightblue" points="364.969,-184.641 354.634,-186.973 364.168,-191.595 364.969,-184.641"/>
</g>
<!-- Node8 -->
<g id="node8" class="node"><title>Node8</title>
<polygon fill="white" stroke="#bfbfbf" points="705,-168.5 705,-187.5 752,-187.5 752,-168.5 705,-168.5"/>
<text text-anchor="middle" x="728.5" y="-175.5" font-family="Helvetica,sans-Serif" font-size="10.00">errno.h</text>
</g>
<!-- Node1&#45;&gt;Node8 -->
<g id="edge7" class="edge"><title>Node1&#45;&gt;Node8</title>
<path fill="none" stroke="midnightblue" d="M758.555,-224.083C753.523,-216.534 746.163,-205.495 739.987,-196.23"/>
<polygon fill="midnightblue" stroke="midnightblue" points="742.793,-194.13 734.334,-187.751 736.969,-198.013 742.793,-194.13"/>
</g>
<!-- Node9 -->
<g id="node9" class="node"><title>Node9</title>
<polygon fill="white" stroke="#bfbfbf" points="770.5,-168.5 770.5,-187.5 832.5,-187.5 832.5,-168.5 770.5,-168.5"/>
<text text-anchor="middle" x="801.5" y="-175.5" font-family="Helvetica,sans-Serif" font-size="10.00">linux/tcp.h</text>
</g>
<!-- Node1&#45;&gt;Node9 -->
<g id="edge8" class="edge"><title>Node1&#45;&gt;Node9</title>
<path fill="none" stroke="midnightblue" d="M770.61,-224.083C775.782,-216.534 783.346,-205.495 789.694,-196.23"/>
<polygon fill="midnightblue" stroke="midnightblue" points="792.739,-197.979 795.504,-187.751 786.964,-194.022 792.739,-197.979"/>
</g>
<!-- Node10 -->
<g id="node10" class="node"><title>Node10</title>
<polygon fill="white" stroke="#bfbfbf" points="850.5,-168.5 850.5,-187.5 902.5,-187.5 902.5,-168.5 850.5,-168.5"/>
<text text-anchor="middle" x="876.5" y="-175.5" font-family="Helvetica,sans-Serif" font-size="10.00">sstream</text>
</g>
<!-- Node1&#45;&gt;Node10 -->
<g id="edge9" class="edge"><title>Node1&#45;&gt;Node10</title>
<path fill="none" stroke="midnightblue" d="M782.495,-224.324C800.538,-215.625 828.547,-202.12 849.303,-192.113"/>
<polygon fill="midnightblue" stroke="midnightblue" points="851.062,-195.15 858.55,-187.655 848.022,-188.845 851.062,-195.15"/>
</g>
<!-- Node11 -->
<g id="node11" class="node"><title>Node11</title>
<polygon fill="white" stroke="#bfbfbf" points="921,-168.5 921,-187.5 970,-187.5 970,-168.5 921,-168.5"/>
<text text-anchor="middle" x="945.5" y="-175.5" font-family="Helvetica,sans-Serif" font-size="10.00">string.h</text>
</g>
<!-- Node1&#45;&gt;Node11 -->
<g id="edge10" class="edge"><title>Node1&#45;&gt;Node11</title>
<path fill="none" stroke="midnightblue" d="M793.18,-224.444C825.069,-214.93 876.573,-199.564 910.732,-189.373"/>
<polygon fill="midnightblue" stroke="midnightblue" points="912.153,-192.601 920.735,-186.388 910.152,-185.893 912.153,-192.601"/>
</g>
<!-- Node12 -->
<g id="node12" class="node"><title>Node12</title>
<polygon fill="white" stroke="#bfbfbf" points="988,-168.5 988,-187.5 1061,-187.5 1061,-168.5 988,-168.5"/>
<text text-anchor="middle" x="1024.5" y="-175.5" font-family="Helvetica,sans-Serif" font-size="10.00">sys/socket.h</text>
</g>
<!-- Node1&#45;&gt;Node12 -->
<g id="edge11" class="edge"><title>Node1&#45;&gt;Node12</title>
<path fill="none" stroke="midnightblue" d="M805.698,-224.444C852.486,-214.726 928.672,-198.903 977.675,-188.725"/>
<polygon fill="midnightblue" stroke="midnightblue" points="978.619,-192.104 987.699,-186.643 977.196,-185.25 978.619,-192.104"/>
</g>
<!-- Node13 -->
<g id="node13" class="node"><title>Node13</title>
<polygon fill="white" stroke="#bfbfbf" points="1079.5,-168.5 1079.5,-187.5 1127.5,-187.5 1127.5,-168.5 1079.5,-168.5"/>
<text text-anchor="middle" x="1103.5" y="-175.5" font-family="Helvetica,sans-Serif" font-size="10.00">stdlib.h</text>
</g>
<!-- Node1&#45;&gt;Node13 -->
<g id="edge12" class="edge"><title>Node1&#45;&gt;Node13</title>
<path fill="none" stroke="midnightblue" d="M837.271,-224.799C897.233,-217.468 984.621,-205.472 1069.62,-187.972"/>
<polygon fill="midnightblue" stroke="midnightblue" points="1070.36,-191.393 1079.43,-185.924 1068.93,-184.54 1070.36,-191.393"/>
</g>
<!-- Node14 -->
<g id="node14" class="node"><title>Node14</title>
<polygon fill="white" stroke="#bfbfbf" points="1146,-168.5 1146,-187.5 1197,-187.5 1197,-168.5 1146,-168.5"/>
<text text-anchor="middle" x="1171.5" y="-175.5" font-family="Helvetica,sans-Serif" font-size="10.00">unistd.h</text>
</g>
<!-- Node1&#45;&gt;Node14 -->
<g id="edge13" class="edge"><title>Node1&#45;&gt;Node14</title>
<path fill="none" stroke="midnightblue" d="M837.29,-227.044C910.391,-220.416 1026.37,-208.148 1136.06,-187.838"/>
<polygon fill="midnightblue" stroke="midnightblue" points="1136.79,-191.262 1145.97,-185.977 1135.5,-184.382 1136.79,-191.262"/>
</g>
<!-- Node15 -->
<g id="node15" class="node"><title>Node15</title>
<polygon fill="white" stroke="#bfbfbf" points="1215.5,-168.5 1215.5,-187.5 1261.5,-187.5 1261.5,-168.5 1215.5,-168.5"/>
<text text-anchor="middle" x="1238.5" y="-175.5" font-family="Helvetica,sans-Serif" font-size="10.00">stdio.h</text>
</g>
<!-- Node1&#45;&gt;Node15 -->
<g id="edge14" class="edge"><title>Node1&#45;&gt;Node15</title>
<path fill="none" stroke="midnightblue" d="M837.017,-229.466C922.888,-224.42 1070.27,-213.055 1205.09,-187.967"/>
<polygon fill="midnightblue" stroke="midnightblue" points="1206.02,-191.355 1215.19,-186.058 1204.72,-184.477 1206.02,-191.355"/>
</g>
<!-- Node16 -->
<g id="node16" class="node"><title>Node16</title>
<g id="a_node16"><a xlink:href="BandwidthCalculator_8h.html" target="_top" xlink:title="BandwidthCalculator.h">
<polygon fill="white" stroke="black" points="373,-168.5 373,-187.5 488,-187.5 488,-168.5 373,-168.5"/>
<text text-anchor="middle" x="430.5" y="-175.5" font-family="Helvetica,sans-Serif" font-size="10.00">BandwidthCalculator.h</text>
</a>
</g>
</g>
<!-- Node1&#45;&gt;Node16 -->
<g id="edge15" class="edge"><title>Node1&#45;&gt;Node16</title>
<path fill="none" stroke="midnightblue" d="M711.577,-224.444C652.334,-214.865 556.403,-199.356 493.383,-189.167"/>
<polygon fill="midnightblue" stroke="midnightblue" points="493.606,-185.657 483.176,-187.516 492.489,-192.568 493.606,-185.657"/>
</g>
<!-- Node23 -->
<g id="node23" class="node"><title>Node23</title>
<g id="a_node23"><a xlink:href="BandwidthValues_8h.html" target="_top" xlink:title="BandwidthValues.h">
<polygon fill="white" stroke="black" points="0,-168.5 0,-187.5 101,-187.5 101,-168.5 0,-168.5"/>
<text text-anchor="middle" x="50.5" y="-175.5" font-family="Helvetica,sans-Serif" font-size="10.00">BandwidthValues.h</text>
</a>
</g>
</g>
<!-- Node1&#45;&gt;Node23 -->
<g id="edge26" class="edge"><title>Node1&#45;&gt;Node23</title>
<path fill="none" stroke="midnightblue" d="M691.63,-229.966C572.345,-224.564 327.775,-211.669 111.276,-188.118"/>
<polygon fill="midnightblue" stroke="midnightblue" points="111.636,-184.636 101.314,-187.024 110.872,-191.595 111.636,-184.636"/>
</g>
<!-- Node24 -->
<g id="node24" class="node"><title>Node24</title>
<g id="a_node24"><a xlink:href="LoggingHandler_8h.html" target="_top" xlink:title="LoggingHandler.h">
<polygon fill="white" stroke="black" points="594.5,-168.5 594.5,-187.5 686.5,-187.5 686.5,-168.5 594.5,-168.5"/>
<text text-anchor="middle" x="640.5" y="-175.5" font-family="Helvetica,sans-Serif" font-size="10.00">LoggingHandler.h</text>
</a>
</g>
</g>
<!-- Node1&#45;&gt;Node24 -->
<g id="edge28" class="edge"><title>Node1&#45;&gt;Node24</title>
<path fill="none" stroke="midnightblue" d="M744.852,-224.444C724.535,-215.596 692.597,-201.687 669.402,-191.586"/>
<polygon fill="midnightblue" stroke="midnightblue" points="670.622,-188.3 660.056,-187.516 667.827,-194.718 670.622,-188.3"/>
</g>
<!-- Node26 -->
<g id="node26" class="node"><title>Node26</title>
<g id="a_node26"><a xlink:href="TCControl_8h.html" target="_top" xlink:title="TCControl.h">
<polygon fill="white" stroke="black" points="506.5,-168.5 506.5,-187.5 576.5,-187.5 576.5,-168.5 506.5,-168.5"/>
<text text-anchor="middle" x="541.5" y="-175.5" font-family="Helvetica,sans-Serif" font-size="10.00">TCControl.h</text>
</a>
</g>
</g>
<!-- Node1&#45;&gt;Node26 -->
<g id="edge31" class="edge"><title>Node1&#45;&gt;Node26</title>
<path fill="none" stroke="midnightblue" d="M729.165,-224.444C690.589,-215.102 628.715,-200.119 586.647,-189.933"/>
<polygon fill="midnightblue" stroke="midnightblue" points="587.213,-186.468 576.67,-187.516 585.565,-193.272 587.213,-186.468"/>
</g>
<!-- Node27 -->
<g id="node27" class="node"><title>Node27</title>
<g id="a_node27"><a xlink:href="ThreadHelper_8h.html" target="_top" xlink:title="ThreadHelper.h">
<polygon fill="white" stroke="black" points="119,-168.5 119,-187.5 202,-187.5 202,-168.5 119,-168.5"/>
<text text-anchor="middle" x="160.5" y="-175.5" font-family="Helvetica,sans-Serif" font-size="10.00">ThreadHelper.h</text>
</a>
</g>
</g>
<!-- Node1&#45;&gt;Node27 -->
<g id="edge33" class="edge"><title>Node1&#45;&gt;Node27</title>
<path fill="none" stroke="midnightblue" d="M691.809,-229.256C587.835,-223.418 390.484,-210.549 212.285,-187.977"/>
<polygon fill="midnightblue" stroke="midnightblue" points="212.563,-184.484 202.2,-186.686 211.675,-191.427 212.563,-184.484"/>
</g>
<!-- Node3 -->
<g id="node3" class="node"><title>Node3</title>
<polygon fill="white" stroke="#bfbfbf" points="139.5,-112.5 139.5,-131.5 201.5,-131.5 201.5,-112.5 139.5,-112.5"/>
<text text-anchor="middle" x="170.5" y="-119.5" font-family="Helvetica,sans-Serif" font-size="10.00">arpa/inet.h</text>
</g>
<!-- Node2&#45;&gt;Node3 -->
<g id="edge2" class="edge"><title>Node2&#45;&gt;Node3</title>
<path fill="none" stroke="midnightblue" d="M268.961,-168.444C249.877,-159.636 219.925,-145.812 198.064,-135.722"/>
<polygon fill="midnightblue" stroke="midnightblue" points="199.499,-132.529 188.952,-131.516 196.565,-138.885 199.499,-132.529"/>
</g>
<!-- Node4 -->
<g id="node4" class="node"><title>Node4</title>
<polygon fill="white" stroke="#bfbfbf" points="75.5,-112.5 75.5,-131.5 121.5,-131.5 121.5,-112.5 75.5,-112.5"/>
<text text-anchor="middle" x="98.5" y="-119.5" font-family="Helvetica,sans-Serif" font-size="10.00">atomic</text>
</g>
<!-- Node2&#45;&gt;Node4 -->
<g id="edge3" class="edge"><title>Node2&#45;&gt;Node4</title>
<path fill="none" stroke="midnightblue" d="M257.552,-168.444C223.258,-158.645 167.237,-142.639 131.653,-132.472"/>
<polygon fill="midnightblue" stroke="midnightblue" points="132.33,-129.026 121.754,-129.644 130.407,-135.756 132.33,-129.026"/>
</g>
<!-- Node5 -->
<g id="node5" class="node"><title>Node5</title>
<polygon fill="white" stroke="#bfbfbf" points="295,-112.5 295,-131.5 360,-131.5 360,-112.5 295,-112.5"/>
<text text-anchor="middle" x="327.5" y="-119.5" font-family="Helvetica,sans-Serif" font-size="10.00">netinet/ip.h</text>
</g>
<!-- Node2&#45;&gt;Node5 -->
<g id="edge4" class="edge"><title>Node2&#45;&gt;Node5</title>
<path fill="none" stroke="midnightblue" d="M294.105,-168.083C299.755,-160.455 308.045,-149.264 314.951,-139.941"/>
<polygon fill="midnightblue" stroke="midnightblue" points="317.878,-141.87 321.018,-131.751 312.253,-137.703 317.878,-141.87"/>
</g>
<!-- Node6 -->
<g id="node6" class="node"><title>Node6</title>
<polygon fill="white" stroke="#bfbfbf" points="220,-112.5 220,-131.5 277,-131.5 277,-112.5 220,-112.5"/>
<text text-anchor="middle" x="248.5" y="-119.5" font-family="Helvetica,sans-Serif" font-size="10.00">pthread.h</text>
</g>
<!-- Node2&#45;&gt;Node6 -->
<g id="edge5" class="edge"><title>Node2&#45;&gt;Node6</title>
<path fill="none" stroke="midnightblue" d="M281.06,-168.083C275.551,-160.455 267.469,-149.264 260.735,-139.941"/>
<polygon fill="midnightblue" stroke="midnightblue" points="263.513,-137.809 254.82,-131.751 257.838,-141.907 263.513,-137.809"/>
</g>
<!-- Node7 -->
<g id="node7" class="node"><title>Node7</title>
<polygon fill="white" stroke="#bfbfbf" points="583,-112.5 583,-131.5 624,-131.5 624,-112.5 583,-112.5"/>
<text text-anchor="middle" x="603.5" y="-119.5" font-family="Helvetica,sans-Serif" font-size="10.00">string</text>
</g>
<!-- Node2&#45;&gt;Node7 -->
<g id="edge6" class="edge"><title>Node2&#45;&gt;Node7</title>
<path fill="none" stroke="midnightblue" d="M354.733,-169.036C410.726,-161.807 492.667,-149.849 573.137,-131.799"/>
<polygon fill="midnightblue" stroke="midnightblue" points="573.967,-135.2 582.941,-129.567 572.413,-128.374 573.967,-135.2"/>
</g>
<!-- Node16&#45;&gt;Node4 -->
<g id="edge16" class="edge"><title>Node16&#45;&gt;Node4</title>
<path fill="none" stroke="midnightblue" d="M372.936,-169.241C303.522,-159.742 189.874,-143.698 131.974,-132.049"/>
<polygon fill="midnightblue" stroke="midnightblue" points="132.339,-128.549 121.834,-129.927 130.906,-135.401 132.339,-128.549"/>
</g>
<!-- Node16&#45;&gt;Node6 -->
<g id="edge17" class="edge"><title>Node16&#45;&gt;Node6</title>
<path fill="none" stroke="midnightblue" d="M401.662,-168.444C370.644,-159.241 321.171,-144.562 286.882,-134.388"/>
<polygon fill="midnightblue" stroke="midnightblue" points="287.786,-131.006 277.204,-131.516 285.795,-137.716 287.786,-131.006"/>
</g>
<!-- Node16&#45;&gt;Node7 -->
<g id="edge19" class="edge"><title>Node16&#45;&gt;Node7</title>
<path fill="none" stroke="midnightblue" d="M457.912,-168.444C489.292,-158.649 540.544,-142.651 573.118,-132.484"/>
<polygon fill="midnightblue" stroke="midnightblue" points="574.485,-135.723 582.988,-129.403 572.399,-129.041 574.485,-135.723"/>
</g>
<!-- Node17 -->
<g id="node17" class="node"><title>Node17</title>
<polygon fill="white" stroke="#bfbfbf" points="378,-112.5 378,-131.5 427,-131.5 427,-112.5 378,-112.5"/>
<text text-anchor="middle" x="402.5" y="-119.5" font-family="Helvetica,sans-Serif" font-size="10.00">stdint.h</text>
</g>
<!-- Node16&#45;&gt;Node17 -->
<g id="edge18" class="edge"><title>Node16&#45;&gt;Node17</title>
<path fill="none" stroke="midnightblue" d="M425.876,-168.083C422.044,-160.691 416.476,-149.953 411.735,-140.811"/>
<polygon fill="midnightblue" stroke="midnightblue" points="414.748,-139.018 407.038,-131.751 408.534,-142.24 414.748,-139.018"/>
</g>
<!-- Node18 -->
<g id="node18" class="node"><title>Node18</title>
<g id="a_node18"><a xlink:href="SimpleRateCalculator_8h.html" target="_top" xlink:title="SimpleRateCalculator.h">
<polygon fill="white" stroke="black" points="444.5,-112.5 444.5,-131.5 564.5,-131.5 564.5,-112.5 444.5,-112.5"/>
<text text-anchor="middle" x="504.5" y="-119.5" font-family="Helvetica,sans-Serif" font-size="10.00">SimpleRateCalculator.h</text>
</a>
</g>
</g>
<!-- Node16&#45;&gt;Node18 -->
<g id="edge20" class="edge"><title>Node16&#45;&gt;Node18</title>
<path fill="none" stroke="midnightblue" d="M442.389,-168.324C453.65,-160.107 470.787,-147.602 484.209,-137.807"/>
<polygon fill="midnightblue" stroke="midnightblue" points="486.38,-140.556 492.394,-131.834 482.253,-134.901 486.38,-140.556"/>
</g>
<!-- Node19 -->
<g id="node19" class="node"><title>Node19</title>
<polygon fill="white" stroke="#bfbfbf" points="435,-56.5 435,-75.5 476,-75.5 476,-56.5 435,-56.5"/>
<text text-anchor="middle" x="455.5" y="-63.5" font-family="Helvetica,sans-Serif" font-size="10.00">ctime</text>
</g>
<!-- Node18&#45;&gt;Node19 -->
<g id="edge21" class="edge"><title>Node18&#45;&gt;Node19</title>
<path fill="none" stroke="midnightblue" d="M496.409,-112.083C489.345,-104.298 478.912,-92.8015 470.351,-83.3665"/>
<polygon fill="midnightblue" stroke="midnightblue" points="472.753,-80.8047 463.441,-75.7511 467.569,-85.5087 472.753,-80.8047"/>
</g>
<!-- Node20 -->
<g id="node20" class="node"><title>Node20</title>
<g id="a_node20"><a xlink:href="CurrentAndLastValues_8h.html" target="_top" xlink:title="CurrentAndLastValues.h">
<polygon fill="white" stroke="black" points="443,-0.5 443,-19.5 566,-19.5 566,-0.5 443,-0.5"/>
<text text-anchor="middle" x="504.5" y="-7.5" font-family="Helvetica,sans-Serif" font-size="10.00">CurrentAndLastValues.h</text>
</a>
</g>
</g>
<!-- Node18&#45;&gt;Node20 -->
<g id="edge22" class="edge"><title>Node18&#45;&gt;Node20</title>
<path fill="none" stroke="midnightblue" d="M504.5,-112.368C504.5,-94.617 504.5,-53.6664 504.5,-29.5974"/>
<polygon fill="midnightblue" stroke="midnightblue" points="508,-29.5914 504.5,-19.5914 501,-29.5915 508,-29.5914"/>
</g>
<!-- Node21 -->
<g id="node21" class="node"><title>Node21</title>
<g id="a_node21"><a xlink:href="SimpleRateCalculation_8h.html" target="_top" xlink:title="SimpleRateCalculation.h">
<polygon fill="white" stroke="black" points="533,-56.5 533,-75.5 658,-75.5 658,-56.5 533,-56.5"/>
<text text-anchor="middle" x="595.5" y="-63.5" font-family="Helvetica,sans-Serif" font-size="10.00">SimpleRateCalculation.h</text>
</a>
</g>
</g>
<!-- Node18&#45;&gt;Node21 -->
<g id="edge23" class="edge"><title>Node18&#45;&gt;Node21</title>
<path fill="none" stroke="midnightblue" d="M519.121,-112.324C533.449,-103.822 555.513,-90.7288 572.249,-80.7975"/>
<polygon fill="midnightblue" stroke="midnightblue" points="574.102,-83.7677 580.916,-75.6545 570.53,-77.7478 574.102,-83.7677"/>
</g>
<!-- Node21&#45;&gt;Node20 -->
<g id="edge24" class="edge"><title>Node21&#45;&gt;Node20</title>
<path fill="none" stroke="midnightblue" d="M580.879,-56.324C566.551,-47.8215 544.487,-34.7288 527.751,-24.7975"/>
<polygon fill="midnightblue" stroke="midnightblue" points="529.47,-21.7478 519.084,-19.6545 525.898,-27.7677 529.47,-21.7478"/>
</g>
<!-- Node22 -->
<g id="node22" class="node"><title>Node22</title>
<polygon fill="white" stroke="#bfbfbf" points="584.5,-0.5 584.5,-19.5 628.5,-19.5 628.5,-0.5 584.5,-0.5"/>
<text text-anchor="middle" x="606.5" y="-7.5" font-family="Helvetica,sans-Serif" font-size="10.00">time.h</text>
</g>
<!-- Node21&#45;&gt;Node22 -->
<g id="edge25" class="edge"><title>Node21&#45;&gt;Node22</title>
<path fill="none" stroke="midnightblue" d="M597.316,-56.083C598.774,-48.9272 600.871,-38.6353 602.693,-29.6911"/>
<polygon fill="midnightblue" stroke="midnightblue" points="606.151,-30.2485 604.717,-19.7511 599.292,-28.8512 606.151,-30.2485"/>
</g>
<!-- Node23&#45;&gt;Node4 -->
<g id="edge27" class="edge"><title>Node23&#45;&gt;Node4</title>
<path fill="none" stroke="midnightblue" d="M58.4262,-168.083C65.3461,-160.298 75.5654,-148.801 83.952,-139.367"/>
<polygon fill="midnightblue" stroke="midnightblue" points="86.6935,-141.55 90.7213,-131.751 81.4617,-136.9 86.6935,-141.55"/>
</g>
<!-- Node24&#45;&gt;Node7 -->
<g id="edge29" class="edge"><title>Node24&#45;&gt;Node7</title>
<path fill="none" stroke="midnightblue" d="M634.39,-168.083C629.218,-160.534 621.654,-149.495 615.306,-140.23"/>
<polygon fill="midnightblue" stroke="midnightblue" points="618.036,-138.022 609.496,-131.751 612.261,-141.979 618.036,-138.022"/>
</g>
<!-- Node25 -->
<g id="node25" class="node"><title>Node25</title>
<polygon fill="white" stroke="#bfbfbf" points="642.5,-112.5 642.5,-131.5 692.5,-131.5 692.5,-112.5 642.5,-112.5"/>
<text text-anchor="middle" x="667.5" y="-119.5" font-family="Helvetica,sans-Serif" font-size="10.00">fstream</text>
</g>
<!-- Node24&#45;&gt;Node25 -->
<g id="edge30" class="edge"><title>Node24&#45;&gt;Node25</title>
<path fill="none" stroke="midnightblue" d="M644.959,-168.083C648.654,-160.691 654.023,-149.953 658.594,-140.811"/>
<polygon fill="midnightblue" stroke="midnightblue" points="661.783,-142.261 663.124,-131.751 655.522,-139.13 661.783,-142.261"/>
</g>
<!-- Node26&#45;&gt;Node7 -->
<g id="edge32" class="edge"><title>Node26&#45;&gt;Node7</title>
<path fill="none" stroke="midnightblue" d="M551.461,-168.324C560.627,-160.341 574.437,-148.313 585.528,-138.653"/>
<polygon fill="midnightblue" stroke="midnightblue" points="588.115,-141.041 593.357,-131.834 583.518,-135.762 588.115,-141.041"/>
</g>
<!-- Node27&#45;&gt;Node4 -->
<g id="edge34" class="edge"><title>Node27&#45;&gt;Node4</title>
<path fill="none" stroke="midnightblue" d="M150.539,-168.324C141.373,-160.341 127.563,-148.313 116.472,-138.653"/>
<polygon fill="midnightblue" stroke="midnightblue" points="118.482,-135.762 108.643,-131.834 113.885,-141.041 118.482,-135.762"/>
</g>
<!-- Node27&#45;&gt;Node6 -->
<g id="edge35" class="edge"><title>Node27&#45;&gt;Node6</title>
<path fill="none" stroke="midnightblue" d="M174.639,-168.324C188.366,-159.9 209.436,-146.971 225.564,-137.074"/>
<polygon fill="midnightblue" stroke="midnightblue" points="227.704,-139.868 234.396,-131.655 224.043,-133.902 227.704,-139.868"/>
</g>
</g>
</svg>
