<?xml version="1.0" encoding="UTF-8" standalone="no"?>
<!DOCTYPE svg PUBLIC "-//W3C//DTD SVG 1.1//EN"
 "http://www.w3.org/Graphics/SVG/1.1/DTD/svg11.dtd">
<!-- Generated by graphviz version 2.38.0 (20140413.2041)
 -->
<!-- Title: BandwidthCalculator.cpp Pages: 1 -->
<svg width="972pt" height="252pt"
 viewBox="0.00 0.00 972.00 252.00" xmlns="http://www.w3.org/2000/svg" xmlns:xlink="http://www.w3.org/1999/xlink">
<g id="graph0" class="graph" transform="scale(1 1) rotate(0) translate(4 248)">
<title>BandwidthCalculator.cpp</title>
<polygon fill="white" stroke="none" points="-4,4 -4,-248 968,-248 968,4 -4,4"/>
<!-- Node1 -->
<g id="node1" class="node"><title>Node1</title>
<polygon fill="#bfbfbf" stroke="black" points="492,-224.5 492,-243.5 617,-243.5 617,-224.5 492,-224.5"/>
<text text-anchor="middle" x="554.5" y="-231.5" font-family="Helvetica,sans-Serif" font-size="10.00">BandwidthCalculator.cpp</text>
</g>
<!-- Node2 -->
<g id="node2" class="node"><title>Node2</title>
<g id="a_node2"><a xlink:href="BandwidthCalculator_8h.html" target="_top" xlink:title="BandwidthCalculator.h">
<polygon fill="white" stroke="black" points="121,-168.5 121,-187.5 236,-187.5 236,-168.5 121,-168.5"/>
<text text-anchor="middle" x="178.5" y="-175.5" font-family="Helvetica,sans-Serif" font-size="10.00">BandwidthCalculator.h</text>
</a>
</g>
</g>
<!-- Node1&#45;&gt;Node2 -->
<g id="edge1" class="edge"><title>Node1&#45;&gt;Node2</title>
<path fill="none" stroke="midnightblue" d="M494.922,-224.444C427.323,-214.735 317.293,-198.933 246.42,-188.754"/>
<polygon fill="midnightblue" stroke="midnightblue" points="246.653,-185.252 236.257,-187.295 245.658,-192.181 246.653,-185.252"/>
</g>
<!-- Node11 -->
<g id="node11" class="node"><title>Node11</title>
<polygon fill="white" stroke="#bfbfbf" points="364.5,-168.5 364.5,-187.5 426.5,-187.5 426.5,-168.5 364.5,-168.5"/>
<text text-anchor="middle" x="395.5" y="-175.5" font-family="Helvetica,sans-Serif" font-size="10.00">arpa/inet.h</text>
</g>
<!-- Node1&#45;&gt;Node11 -->
<g id="edge11" class="edge"><title>Node1&#45;&gt;Node11</title>
<path fill="none" stroke="midnightblue" d="M529.306,-224.444C502.557,-215.359 460.097,-200.939 430.195,-190.783"/>
<polygon fill="midnightblue" stroke="midnightblue" points="431.171,-187.418 420.576,-187.516 428.919,-194.046 431.171,-187.418"/>
</g>
<!-- Node12 -->
<g id="node12" class="node"><title>Node12</title>
<polygon fill="white" stroke="#bfbfbf" points="445,-168.5 445,-187.5 492,-187.5 492,-168.5 445,-168.5"/>
<text text-anchor="middle" x="468.5" y="-175.5" font-family="Helvetica,sans-Serif" font-size="10.00">errno.h</text>
</g>
<!-- Node1&#45;&gt;Node12 -->
<g id="edge12" class="edge"><title>Node1&#45;&gt;Node12</title>
<path fill="none" stroke="midnightblue" d="M540.683,-224.324C527.267,-215.9 506.676,-202.971 490.914,-193.074"/>
<polygon fill="midnightblue" stroke="midnightblue" points="492.613,-190.008 482.283,-187.655 488.891,-195.936 492.613,-190.008"/>
</g>
<!-- Node13 -->
<g id="node13" class="node"><title>Node13</title>
<polygon fill="white" stroke="#bfbfbf" points="510,-168.5 510,-187.5 599,-187.5 599,-168.5 510,-168.5"/>
<text text-anchor="middle" x="554.5" y="-175.5" font-family="Helvetica,sans-Serif" font-size="10.00">netinet/if_ether.h</text>
</g>
<!-- Node1&#45;&gt;Node13 -->
<g id="edge13" class="edge"><title>Node1&#45;&gt;Node13</title>
<path fill="none" stroke="midnightblue" d="M554.5,-224.083C554.5,-217.006 554.5,-206.861 554.5,-197.986"/>
<polygon fill="midnightblue" stroke="midnightblue" points="558,-197.751 554.5,-187.751 551,-197.751 558,-197.751"/>
</g>
<!-- Node14 -->
<g id="node14" class="node"><title>Node14</title>
<polygon fill="white" stroke="#bfbfbf" points="617,-168.5 617,-187.5 682,-187.5 682,-168.5 617,-168.5"/>
<text text-anchor="middle" x="649.5" y="-175.5" font-family="Helvetica,sans-Serif" font-size="10.00">netinet/ip.h</text>
</g>
<!-- Node1&#45;&gt;Node14 -->
<g id="edge14" class="edge"><title>Node1&#45;&gt;Node14</title>
<path fill="none" stroke="midnightblue" d="M569.763,-224.324C584.721,-215.822 607.755,-202.729 625.227,-192.797"/>
<polygon fill="midnightblue" stroke="midnightblue" points="627.31,-195.639 634.274,-187.655 623.851,-189.553 627.31,-195.639"/>
</g>
<!-- Node15 -->
<g id="node15" class="node"><title>Node15</title>
<polygon fill="white" stroke="#bfbfbf" points="700.5,-168.5 700.5,-187.5 752.5,-187.5 752.5,-168.5 700.5,-168.5"/>
<text text-anchor="middle" x="726.5" y="-175.5" font-family="Helvetica,sans-Serif" font-size="10.00">sstream</text>
</g>
<!-- Node1&#45;&gt;Node15 -->
<g id="edge15" class="edge"><title>Node1&#45;&gt;Node15</title>
<path fill="none" stroke="midnightblue" d="M581.754,-224.444C611.285,-215.172 658.517,-200.343 690.946,-190.162"/>
<polygon fill="midnightblue" stroke="midnightblue" points="692.007,-193.498 700.5,-187.163 689.91,-186.819 692.007,-193.498"/>
</g>
<!-- Node16 -->
<g id="node16" class="node"><title>Node16</title>
<polygon fill="white" stroke="#bfbfbf" points="771,-168.5 771,-187.5 820,-187.5 820,-168.5 771,-168.5"/>
<text text-anchor="middle" x="795.5" y="-175.5" font-family="Helvetica,sans-Serif" font-size="10.00">string.h</text>
</g>
<!-- Node1&#45;&gt;Node16 -->
<g id="edge16" class="edge"><title>Node1&#45;&gt;Node16</title>
<path fill="none" stroke="midnightblue" d="M596.256,-224.495C636.024,-216.267 697.8,-203.156 760.57,-188.141"/>
<polygon fill="midnightblue" stroke="midnightblue" points="761.747,-191.458 770.65,-185.715 760.109,-184.652 761.747,-191.458"/>
</g>
<!-- Node17 -->
<g id="node17" class="node"><title>Node17</title>
<polygon fill="white" stroke="#bfbfbf" points="838,-168.5 838,-187.5 889,-187.5 889,-168.5 838,-168.5"/>
<text text-anchor="middle" x="863.5" y="-175.5" font-family="Helvetica,sans-Serif" font-size="10.00">unistd.h</text>
</g>
<!-- Node1&#45;&gt;Node17 -->
<g id="edge17" class="edge"><title>Node1&#45;&gt;Node17</title>
<path fill="none" stroke="midnightblue" d="M617.076,-224.518C670.73,-216.846 750.265,-204.527 827.984,-188.169"/>
<polygon fill="midnightblue" stroke="midnightblue" points="828.892,-191.554 837.944,-186.048 827.434,-184.708 828.892,-191.554"/>
</g>
<!-- Node18 -->
<g id="node18" class="node"><title>Node18</title>
<g id="a_node18"><a xlink:href="LoggingHandler_8h.html" target="_top" xlink:title="LoggingHandler.h">
<polygon fill="white" stroke="black" points="254.5,-168.5 254.5,-187.5 346.5,-187.5 346.5,-168.5 254.5,-168.5"/>
<text text-anchor="middle" x="300.5" y="-175.5" font-family="Helvetica,sans-Serif" font-size="10.00">LoggingHandler.h</text>
</a>
</g>
</g>
<!-- Node1&#45;&gt;Node18 -->
<g id="edge18" class="edge"><title>Node1&#45;&gt;Node18</title>
<path fill="none" stroke="midnightblue" d="M514.253,-224.444C469.85,-215.004 398.347,-199.802 350.412,-189.611"/>
<polygon fill="midnightblue" stroke="midnightblue" points="351.068,-186.173 340.559,-187.516 349.612,-193.02 351.068,-186.173"/>
</g>
<!-- Node20 -->
<g id="node20" class="node"><title>Node20</title>
<g id="a_node20"><a xlink:href="Macros_8h.html" target="_top" xlink:title="Macros.h">
<polygon fill="white" stroke="black" points="907,-168.5 907,-187.5 964,-187.5 964,-168.5 907,-168.5"/>
<text text-anchor="middle" x="935.5" y="-175.5" font-family="Helvetica,sans-Serif" font-size="10.00">Macros.h</text>
</a>
</g>
</g>
<!-- Node1&#45;&gt;Node20 -->
<g id="edge21" class="edge"><title>Node1&#45;&gt;Node20</title>
<path fill="none" stroke="midnightblue" d="M617.279,-226.857C684.323,-219.831 793.841,-207.021 896.929,-188.133"/>
<polygon fill="midnightblue" stroke="midnightblue" points="897.689,-191.551 906.883,-186.286 896.412,-184.669 897.689,-191.551"/>
</g>
<!-- Node21 -->
<g id="node21" class="node"><title>Node21</title>
<g id="a_node21"><a xlink:href="ThreadHelper_8h.html" target="_top" xlink:title="ThreadHelper.h">
<polygon fill="white" stroke="black" points="4,-168.5 4,-187.5 87,-187.5 87,-168.5 4,-168.5"/>
<text text-anchor="middle" x="45.5" y="-175.5" font-family="Helvetica,sans-Serif" font-size="10.00">ThreadHelper.h</text>
</a>
</g>
</g>
<!-- Node1&#45;&gt;Node21 -->
<g id="edge22" class="edge"><title>Node1&#45;&gt;Node21</title>
<path fill="none" stroke="midnightblue" d="M491.701,-227.305C405.779,-219.356 246.797,-204.092 111.5,-188 106.795,-187.44 101.906,-186.829 97.0121,-186.198"/>
<polygon fill="midnightblue" stroke="midnightblue" points="97.3881,-182.717 87.0168,-184.882 96.4746,-189.657 97.3881,-182.717"/>
</g>
<!-- Node3 -->
<g id="node3" class="node"><title>Node3</title>
<polygon fill="white" stroke="#bfbfbf" points="0,-112.5 0,-131.5 57,-131.5 57,-112.5 0,-112.5"/>
<text text-anchor="middle" x="28.5" y="-119.5" font-family="Helvetica,sans-Serif" font-size="10.00">pthread.h</text>
</g>
<!-- Node2&#45;&gt;Node3 -->
<g id="edge2" class="edge"><title>Node2&#45;&gt;Node3</title>
<path fill="none" stroke="midnightblue" d="M154.732,-168.444C129.607,-159.399 89.789,-145.064 61.5996,-134.916"/>
<polygon fill="midnightblue" stroke="midnightblue" points="62.7512,-131.611 52.1567,-131.516 60.3801,-138.197 62.7512,-131.611"/>
</g>
<!-- Node4 -->
<g id="node4" class="node"><title>Node4</title>
<polygon fill="white" stroke="#bfbfbf" points="75,-112.5 75,-131.5 124,-131.5 124,-112.5 75,-112.5"/>
<text text-anchor="middle" x="99.5" y="-119.5" font-family="Helvetica,sans-Serif" font-size="10.00">stdint.h</text>
</g>
<!-- Node2&#45;&gt;Node4 -->
<g id="edge3" class="edge"><title>Node2&#45;&gt;Node4</title>
<path fill="none" stroke="midnightblue" d="M165.807,-168.324C153.599,-159.979 134.922,-147.212 120.497,-137.352"/>
<polygon fill="midnightblue" stroke="midnightblue" points="122.392,-134.408 112.161,-131.655 118.442,-140.187 122.392,-134.408"/>
</g>
<!-- Node5 -->
<g id="node5" class="node"><title>Node5</title>
<polygon fill="white" stroke="#bfbfbf" points="280,-112.5 280,-131.5 321,-131.5 321,-112.5 280,-112.5"/>
<text text-anchor="middle" x="300.5" y="-119.5" font-family="Helvetica,sans-Serif" font-size="10.00">string</text>
</g>
<!-- Node2&#45;&gt;Node5 -->
<g id="edge4" class="edge"><title>Node2&#45;&gt;Node5</title>
<path fill="none" stroke="midnightblue" d="M197.831,-168.444C217.82,-159.596 249.243,-145.687 272.064,-135.586"/>
<polygon fill="midnightblue" stroke="midnightblue" points="273.532,-138.764 281.259,-131.516 270.698,-132.363 273.532,-138.764"/>
</g>
<!-- Node6 -->
<g id="node6" class="node"><title>Node6</title>
<g id="a_node6"><a xlink:href="SimpleRateCalculator_8h.html" target="_top" xlink:title="SimpleRateCalculator.h">
<polygon fill="white" stroke="black" points="141.5,-112.5 141.5,-131.5 261.5,-131.5 261.5,-112.5 141.5,-112.5"/>
<text text-anchor="middle" x="201.5" y="-119.5" font-family="Helvetica,sans-Serif" font-size="10.00">SimpleRateCalculator.h</text>
</a>
</g>
</g>
<!-- Node2&#45;&gt;Node6 -->
<g id="edge5" class="edge"><title>Node2&#45;&gt;Node6</title>
<path fill="none" stroke="midnightblue" d="M182.298,-168.083C185.413,-160.77 189.923,-150.181 193.789,-141.103"/>
<polygon fill="midnightblue" stroke="midnightblue" points="197.074,-142.323 197.773,-131.751 190.634,-139.58 197.074,-142.323"/>
</g>
<!-- Node7 -->
<g id="node7" class="node"><title>Node7</title>
<polygon fill="white" stroke="#bfbfbf" points="132,-56.5 132,-75.5 173,-75.5 173,-56.5 132,-56.5"/>
<text text-anchor="middle" x="152.5" y="-63.5" font-family="Helvetica,sans-Serif" font-size="10.00">ctime</text>
</g>
<!-- Node6&#45;&gt;Node7 -->
<g id="edge6" class="edge"><title>Node6&#45;&gt;Node7</title>
<path fill="none" stroke="midnightblue" d="M193.409,-112.083C186.345,-104.298 175.912,-92.8015 167.351,-83.3665"/>
<polygon fill="midnightblue" stroke="midnightblue" points="169.753,-80.8047 160.441,-75.7511 164.569,-85.5087 169.753,-80.8047"/>
</g>
<!-- Node8 -->
<g id="node8" class="node"><title>Node8</title>
<g id="a_node8"><a xlink:href="CurrentAndLastValues_8h.html" target="_top" xlink:title="CurrentAndLastValues.h">
<polygon fill="white" stroke="black" points="140,-0.5 140,-19.5 263,-19.5 263,-0.5 140,-0.5"/>
<text text-anchor="middle" x="201.5" y="-7.5" font-family="Helvetica,sans-Serif" font-size="10.00">CurrentAndLastValues.h</text>
</a>
</g>
</g>
<!-- Node6&#45;&gt;Node8 -->
<g id="edge7" class="edge"><title>Node6&#45;&gt;Node8</title>
<path fill="none" stroke="midnightblue" d="M201.5,-112.368C201.5,-94.617 201.5,-53.6664 201.5,-29.5974"/>
<polygon fill="midnightblue" stroke="midnightblue" points="205,-29.5914 201.5,-19.5914 198,-29.5915 205,-29.5914"/>
</g>
<!-- Node9 -->
<g id="node9" class="node"><title>Node9</title>
<g id="a_node9"><a xlink:href="SimpleRateCalculation_8h.html" target="_top" xlink:title="SimpleRateCalculation.h">
<polygon fill="white" stroke="black" points="230,-56.5 230,-75.5 355,-75.5 355,-56.5 230,-56.5"/>
<text text-anchor="middle" x="292.5" y="-63.5" font-family="Helvetica,sans-Serif" font-size="10.00">SimpleRateCalculation.h</text>
</a>
</g>
</g>
<!-- Node6&#45;&gt;Node9 -->
<g id="edge8" class="edge"><title>Node6&#45;&gt;Node9</title>
<path fill="none" stroke="midnightblue" d="M216.121,-112.324C230.449,-103.822 252.513,-90.7288 269.249,-80.7975"/>
<polygon fill="midnightblue" stroke="midnightblue" points="271.102,-83.7677 277.916,-75.6545 267.53,-77.7478 271.102,-83.7677"/>
</g>
<!-- Node9&#45;&gt;Node8 -->
<g id="edge9" class="edge"><title>Node9&#45;&gt;Node8</title>
<path fill="none" stroke="midnightblue" d="M277.879,-56.324C263.551,-47.8215 241.487,-34.7288 224.751,-24.7975"/>
<polygon fill="midnightblue" stroke="midnightblue" points="226.47,-21.7478 216.084,-19.6545 222.898,-27.7677 226.47,-21.7478"/>
</g>
<!-- Node10 -->
<g id="node10" class="node"><title>Node10</title>
<polygon fill="white" stroke="#bfbfbf" points="281.5,-0.5 281.5,-19.5 325.5,-19.5 325.5,-0.5 281.5,-0.5"/>
<text text-anchor="middle" x="303.5" y="-7.5" font-family="Helvetica,sans-Serif" font-size="10.00">time.h</text>
</g>
<!-- Node9&#45;&gt;Node10 -->
<g id="edge10" class="edge"><title>Node9&#45;&gt;Node10</title>
<path fill="none" stroke="midnightblue" d="M294.316,-56.083C295.774,-48.9272 297.871,-38.6353 299.693,-29.6911"/>
<polygon fill="midnightblue" stroke="midnightblue" points="303.151,-30.2485 301.717,-19.7511 296.292,-28.8512 303.151,-30.2485"/>
</g>
<!-- Node18&#45;&gt;Node5 -->
<g id="edge19" class="edge"><title>Node18&#45;&gt;Node5</title>
<path fill="none" stroke="midnightblue" d="M300.5,-168.083C300.5,-161.006 300.5,-150.861 300.5,-141.986"/>
<polygon fill="midnightblue" stroke="midnightblue" points="304,-141.751 300.5,-131.751 297,-141.751 304,-141.751"/>
</g>
<!-- Node19 -->
<g id="node19" class="node"><title>Node19</title>
<polygon fill="white" stroke="#bfbfbf" points="339.5,-112.5 339.5,-131.5 389.5,-131.5 389.5,-112.5 339.5,-112.5"/>
<text text-anchor="middle" x="364.5" y="-119.5" font-family="Helvetica,sans-Serif" font-size="10.00">fstream</text>
</g>
<!-- Node18&#45;&gt;Node19 -->
<g id="edge20" class="edge"><title>Node18&#45;&gt;Node19</title>
<path fill="none" stroke="midnightblue" d="M310.783,-168.324C320.336,-160.263 334.78,-148.077 346.284,-138.369"/>
<polygon fill="midnightblue" stroke="midnightblue" points="348.644,-140.958 354.03,-131.834 344.13,-135.608 348.644,-140.958"/>
</g>
<!-- Node21&#45;&gt;Node3 -->
<g id="edge23" class="edge"><title>Node21&#45;&gt;Node3</title>
<path fill="none" stroke="midnightblue" d="M42.6928,-168.083C40.4153,-160.849 37.1287,-150.409 34.2916,-141.397"/>
<polygon fill="midnightblue" stroke="midnightblue" points="37.5964,-140.239 31.255,-131.751 30.9194,-142.341 37.5964,-140.239"/>
</g>
</g>
</svg>
