<?xml version="1.0" encoding="UTF-8" standalone="no"?>
<!DOCTYPE svg PUBLIC "-//W3C//DTD SVG 1.1//EN"
 "http://www.w3.org/Graphics/SVG/1.1/DTD/svg11.dtd">
<!-- Generated by graphviz version 2.38.0 (20140413.2041)
 -->
<!-- Title: BandwidthCommunicator.cpp Pages: 1 -->
<svg width="1379pt" height="252pt"
 viewBox="0.00 0.00 1379.00 252.00" xmlns="http://www.w3.org/2000/svg" xmlns:xlink="http://www.w3.org/1999/xlink">
<g id="graph0" class="graph" transform="scale(1 1) rotate(0) translate(4 248)">
<title>BandwidthCommunicator.cpp</title>
<polygon fill="white" stroke="none" points="-4,4 -4,-248 1375,-248 1375,4 -4,4"/>
<!-- Node1 -->
<g id="node1" class="node"><title>Node1</title>
<polygon fill="#bfbfbf" stroke="black" points="730,-224.5 730,-243.5 875,-243.5 875,-224.5 730,-224.5"/>
<text text-anchor="middle" x="802.5" y="-231.5" font-family="Helvetica,sans-Serif" font-size="10.00">BandwidthCommunicator.cpp</text>
</g>
<!-- Node2 -->
<g id="node2" class="node"><title>Node2</title>
<g id="a_node2"><a xlink:href="BandwidthCommunicator_8h.html" target="_top" xlink:title="BandwidthCommunicator.h">
<polygon fill="white" stroke="black" points="220.5,-168.5 220.5,-187.5 354.5,-187.5 354.5,-168.5 220.5,-168.5"/>
<text text-anchor="middle" x="287.5" y="-175.5" font-family="Helvetica,sans-Serif" font-size="10.00">BandwidthCommunicator.h</text>
</a>
</g>
</g>
<!-- Node1&#45;&gt;Node2 -->
<g id="edge1" class="edge"><title>Node1&#45;&gt;Node2</title>
<path fill="none" stroke="midnightblue" d="M729.833,-225.904C644.863,-217.527 499.69,-202.969 364.741,-188.123"/>
<polygon fill="midnightblue" stroke="midnightblue" points="364.954,-184.625 354.63,-187.008 364.186,-191.583 364.954,-184.625"/>
</g>
<!-- Node8 -->
<g id="node8" class="node"><title>Node8</title>
<polygon fill="white" stroke="#bfbfbf" points="743,-168.5 743,-187.5 790,-187.5 790,-168.5 743,-168.5"/>
<text text-anchor="middle" x="766.5" y="-175.5" font-family="Helvetica,sans-Serif" font-size="10.00">errno.h</text>
</g>
<!-- Node1&#45;&gt;Node8 -->
<g id="edge7" class="edge"><title>Node1&#45;&gt;Node8</title>
<path fill="none" stroke="midnightblue" d="M796.555,-224.083C791.523,-216.534 784.163,-205.495 777.987,-196.23"/>
<polygon fill="midnightblue" stroke="midnightblue" points="780.793,-194.13 772.334,-187.751 774.969,-198.013 780.793,-194.13"/>
</g>
<!-- Node9 -->
<g id="node9" class="node"><title>Node9</title>
<polygon fill="white" stroke="#bfbfbf" points="808.5,-168.5 808.5,-187.5 870.5,-187.5 870.5,-168.5 808.5,-168.5"/>
<text text-anchor="middle" x="839.5" y="-175.5" font-family="Helvetica,sans-Serif" font-size="10.00">linux/tcp.h</text>
</g>
<!-- Node1&#45;&gt;Node9 -->
<g id="edge8" class="edge"><title>Node1&#45;&gt;Node9</title>
<path fill="none" stroke="midnightblue" d="M808.61,-224.083C813.782,-216.534 821.346,-205.495 827.694,-196.23"/>
<polygon fill="midnightblue" stroke="midnightblue" points="830.739,-197.979 833.504,-187.751 824.964,-194.022 830.739,-197.979"/>
</g>
<!-- Node10 -->
<g id="node10" class="node"><title>Node10</title>
<polygon fill="white" stroke="#bfbfbf" points="888.5,-168.5 888.5,-187.5 940.5,-187.5 940.5,-168.5 888.5,-168.5"/>
<text text-anchor="middle" x="914.5" y="-175.5" font-family="Helvetica,sans-Serif" font-size="10.00">sstream</text>
</g>
<!-- Node1&#45;&gt;Node10 -->
<g id="edge9" class="edge"><title>Node1&#45;&gt;Node10</title>
<path fill="none" stroke="midnightblue" d="M820.495,-224.324C838.538,-215.625 866.547,-202.12 887.303,-192.113"/>
<polygon fill="midnightblue" stroke="midnightblue" points="889.062,-195.15 896.55,-187.655 886.022,-188.845 889.062,-195.15"/>
</g>
<!-- Node11 -->
<g id="node11" class="node"><title>Node11</title>
<polygon fill="white" stroke="#bfbfbf" points="959,-168.5 959,-187.5 1008,-187.5 1008,-168.5 959,-168.5"/>
<text text-anchor="middle" x="983.5" y="-175.5" font-family="Helvetica,sans-Serif" font-size="10.00">string.h</text>
</g>
<!-- Node1&#45;&gt;Node11 -->
<g id="edge10" class="edge"><title>Node1&#45;&gt;Node11</title>
<path fill="none" stroke="midnightblue" d="M831.18,-224.444C863.069,-214.93 914.573,-199.564 948.732,-189.373"/>
<polygon fill="midnightblue" stroke="midnightblue" points="950.153,-192.601 958.735,-186.388 948.152,-185.893 950.153,-192.601"/>
</g>
<!-- Node12 -->
<g id="node12" class="node"><title>Node12</title>
<polygon fill="white" stroke="#bfbfbf" points="1026,-168.5 1026,-187.5 1099,-187.5 1099,-168.5 1026,-168.5"/>
<text text-anchor="middle" x="1062.5" y="-175.5" font-family="Helvetica,sans-Serif" font-size="10.00">sys/socket.h</text>
</g>
<!-- Node1&#45;&gt;Node12 -->
<g id="edge11" class="edge"><title>Node1&#45;&gt;Node12</title>
<path fill="none" stroke="midnightblue" d="M843.698,-224.444C890.486,-214.726 966.672,-198.903 1015.67,-188.725"/>
<polygon fill="midnightblue" stroke="midnightblue" points="1016.62,-192.104 1025.7,-186.643 1015.2,-185.25 1016.62,-192.104"/>
</g>
<!-- Node13 -->
<g id="node13" class="node"><title>Node13</title>
<polygon fill="white" stroke="#bfbfbf" points="1117.5,-168.5 1117.5,-187.5 1165.5,-187.5 1165.5,-168.5 1117.5,-168.5"/>
<text text-anchor="middle" x="1141.5" y="-175.5" font-family="Helvetica,sans-Serif" font-size="10.00">stdlib.h</text>
</g>
<!-- Node1&#45;&gt;Node13 -->
<g id="edge12" class="edge"><title>Node1&#45;&gt;Node13</title>
<path fill="none" stroke="midnightblue" d="M875.001,-224.631C937.051,-216.914 1028.59,-204.211 1107.5,-188 1107.6,-187.979 1107.7,-187.958 1107.8,-187.937"/>
<polygon fill="midnightblue" stroke="midnightblue" points="1108.47,-191.376 1117.43,-185.728 1106.9,-184.553 1108.47,-191.376"/>
</g>
<!-- Node14 -->
<g id="node14" class="node"><title>Node14</title>
<polygon fill="white" stroke="#bfbfbf" points="666.5,-0.5 666.5,-19.5 710.5,-19.5 710.5,-0.5 666.5,-0.5"/>
<text text-anchor="middle" x="688.5" y="-7.5" font-family="Helvetica,sans-Serif" font-size="10.00">time.h</text>
</g>
<!-- Node1&#45;&gt;Node14 -->
<g id="edge13" class="edge"><title>Node1&#45;&gt;Node14</title>
<path fill="none" stroke="midnightblue" d="M781.637,-224.469C766.099,-217.063 745.565,-204.866 733.5,-188 698.199,-138.65 690.529,-64.1736 688.906,-29.713"/>
<polygon fill="midnightblue" stroke="midnightblue" points="692.402,-29.5269 688.557,-19.6545 685.406,-29.7701 692.402,-29.5269"/>
</g>
<!-- Node15 -->
<g id="node15" class="node"><title>Node15</title>
<polygon fill="white" stroke="#bfbfbf" points="1184,-168.5 1184,-187.5 1235,-187.5 1235,-168.5 1184,-168.5"/>
<text text-anchor="middle" x="1209.5" y="-175.5" font-family="Helvetica,sans-Serif" font-size="10.00">unistd.h</text>
</g>
<!-- Node1&#45;&gt;Node15 -->
<g id="edge14" class="edge"><title>Node1&#45;&gt;Node15</title>
<path fill="none" stroke="midnightblue" d="M875.29,-227.044C948.391,-220.416 1064.37,-208.148 1174.06,-187.838"/>
<polygon fill="midnightblue" stroke="midnightblue" points="1174.79,-191.262 1183.97,-185.977 1173.5,-184.382 1174.79,-191.262"/>
</g>
<!-- Node16 -->
<g id="node16" class="node"><title>Node16</title>
<polygon fill="white" stroke="#bfbfbf" points="1274.5,-112.5 1274.5,-131.5 1320.5,-131.5 1320.5,-112.5 1274.5,-112.5"/>
<text text-anchor="middle" x="1297.5" y="-119.5" font-family="Helvetica,sans-Serif" font-size="10.00">stdio.h</text>
</g>
<!-- Node1&#45;&gt;Node16 -->
<g id="edge15" class="edge"><title>Node1&#45;&gt;Node16</title>
<path fill="none" stroke="midnightblue" d="M875.357,-232.169C983.791,-229.835 1181.53,-221.027 1243.5,-188 1263.47,-177.359 1278.97,-155.95 1288.15,-140.608"/>
<polygon fill="midnightblue" stroke="midnightblue" points="1291.38,-142.005 1293.25,-131.576 1285.28,-138.565 1291.38,-142.005"/>
</g>
<!-- Node17 -->
<g id="node17" class="node"><title>Node17</title>
<g id="a_node17"><a xlink:href="BandwidthCalculator_8h.html" target="_top" xlink:title="BandwidthCalculator.h">
<polygon fill="white" stroke="black" points="373,-168.5 373,-187.5 488,-187.5 488,-168.5 373,-168.5"/>
<text text-anchor="middle" x="430.5" y="-175.5" font-family="Helvetica,sans-Serif" font-size="10.00">BandwidthCalculator.h</text>
</a>
</g>
</g>
<!-- Node1&#45;&gt;Node17 -->
<g id="edge16" class="edge"><title>Node1&#45;&gt;Node17</title>
<path fill="none" stroke="midnightblue" d="M743.555,-224.444C676.872,-214.764 568.452,-199.025 498.312,-188.844"/>
<polygon fill="midnightblue" stroke="midnightblue" points="498.65,-185.356 488.251,-187.383 497.645,-192.284 498.65,-185.356"/>
</g>
<!-- Node23 -->
<g id="node23" class="node"><title>Node23</title>
<g id="a_node23"><a xlink:href="BandwidthValues_8h.html" target="_top" xlink:title="BandwidthValues.h">
<polygon fill="white" stroke="black" points="0,-168.5 0,-187.5 101,-187.5 101,-168.5 0,-168.5"/>
<text text-anchor="middle" x="50.5" y="-175.5" font-family="Helvetica,sans-Serif" font-size="10.00">BandwidthValues.h</text>
</a>
</g>
</g>
<!-- Node1&#45;&gt;Node23 -->
<g id="edge27" class="edge"><title>Node1&#45;&gt;Node23</title>
<path fill="none" stroke="midnightblue" d="M729.99,-230.359C605.454,-225.367 342.716,-212.851 111.266,-188.11"/>
<polygon fill="midnightblue" stroke="midnightblue" points="111.63,-184.629 101.312,-187.036 110.879,-191.589 111.63,-184.629"/>
</g>
<!-- Node24 -->
<g id="node24" class="node"><title>Node24</title>
<g id="a_node24"><a xlink:href="LoggingHandler_8h.html" target="_top" xlink:title="LoggingHandler.h">
<polygon fill="white" stroke="black" points="594.5,-168.5 594.5,-187.5 686.5,-187.5 686.5,-168.5 594.5,-168.5"/>
<text text-anchor="middle" x="640.5" y="-175.5" font-family="Helvetica,sans-Serif" font-size="10.00">LoggingHandler.h</text>
</a>
</g>
</g>
<!-- Node1&#45;&gt;Node24 -->
<g id="edge29" class="edge"><title>Node1&#45;&gt;Node24</title>
<path fill="none" stroke="midnightblue" d="M776.831,-224.444C749.577,-215.359 706.316,-200.939 675.849,-190.783"/>
<polygon fill="midnightblue" stroke="midnightblue" points="676.643,-187.358 666.049,-187.516 674.429,-193.999 676.643,-187.358"/>
</g>
<!-- Node26 -->
<g id="node26" class="node"><title>Node26</title>
<g id="a_node26"><a xlink:href="PrintHandler_8h.html" target="_top" xlink:title="PrintHandler.h">
<polygon fill="white" stroke="black" points="1292,-168.5 1292,-187.5 1371,-187.5 1371,-168.5 1292,-168.5"/>
<text text-anchor="middle" x="1331.5" y="-175.5" font-family="Helvetica,sans-Serif" font-size="10.00">PrintHandler.h</text>
</a>
</g>
</g>
<!-- Node1&#45;&gt;Node26 -->
<g id="edge32" class="edge"><title>Node1&#45;&gt;Node26</title>
<path fill="none" stroke="midnightblue" d="M875.105,-227.726C968.435,-220.578 1135.4,-206.549 1277.5,-188 1278.8,-187.83 1280.11,-187.653 1281.44,-187.469"/>
<polygon fill="midnightblue" stroke="midnightblue" points="1282.35,-190.873 1291.74,-185.955 1281.33,-183.948 1282.35,-190.873"/>
</g>
<!-- Node27 -->
<g id="node27" class="node"><title>Node27</title>
<g id="a_node27"><a xlink:href="TCControl_8h.html" target="_top" xlink:title="TCControl.h">
<polygon fill="white" stroke="black" points="506.5,-168.5 506.5,-187.5 576.5,-187.5 576.5,-168.5 506.5,-168.5"/>
<text text-anchor="middle" x="541.5" y="-175.5" font-family="Helvetica,sans-Serif" font-size="10.00">TCControl.h</text>
</a>
</g>
</g>
<!-- Node1&#45;&gt;Node27 -->
<g id="edge34" class="edge"><title>Node1&#45;&gt;Node27</title>
<path fill="none" stroke="midnightblue" d="M761.144,-224.444C713.639,-214.615 635.945,-198.54 586.829,-188.378"/>
<polygon fill="midnightblue" stroke="midnightblue" points="587.305,-184.903 576.804,-186.304 585.887,-191.758 587.305,-184.903"/>
</g>
<!-- Node28 -->
<g id="node28" class="node"><title>Node28</title>
<g id="a_node28"><a xlink:href="ThreadHelper_8h.html" target="_top" xlink:title="ThreadHelper.h">
<polygon fill="white" stroke="black" points="119,-168.5 119,-187.5 202,-187.5 202,-168.5 119,-168.5"/>
<text text-anchor="middle" x="160.5" y="-175.5" font-family="Helvetica,sans-Serif" font-size="10.00">ThreadHelper.h</text>
</a>
</g>
</g>
<!-- Node1&#45;&gt;Node28 -->
<g id="edge36" class="edge"><title>Node1&#45;&gt;Node28</title>
<path fill="none" stroke="midnightblue" d="M729.94,-229.785C620.147,-224.408 405.077,-211.881 212.236,-187.962"/>
<polygon fill="midnightblue" stroke="midnightblue" points="212.555,-184.475 202.198,-186.704 211.685,-191.42 212.555,-184.475"/>
</g>
<!-- Node3 -->
<g id="node3" class="node"><title>Node3</title>
<polygon fill="white" stroke="#bfbfbf" points="291.5,-112.5 291.5,-131.5 353.5,-131.5 353.5,-112.5 291.5,-112.5"/>
<text text-anchor="middle" x="322.5" y="-119.5" font-family="Helvetica,sans-Serif" font-size="10.00">arpa/inet.h</text>
</g>
<!-- Node2&#45;&gt;Node3 -->
<g id="edge2" class="edge"><title>Node2&#45;&gt;Node3</title>
<path fill="none" stroke="midnightblue" d="M293.28,-168.083C298.172,-160.534 305.327,-149.495 311.333,-140.23"/>
<polygon fill="midnightblue" stroke="midnightblue" points="314.326,-142.046 316.828,-131.751 308.452,-138.239 314.326,-142.046"/>
</g>
<!-- Node4 -->
<g id="node4" class="node"><title>Node4</title>
<polygon fill="white" stroke="#bfbfbf" points="68.5,-112.5 68.5,-131.5 114.5,-131.5 114.5,-112.5 68.5,-112.5"/>
<text text-anchor="middle" x="91.5" y="-119.5" font-family="Helvetica,sans-Serif" font-size="10.00">atomic</text>
</g>
<!-- Node2&#45;&gt;Node4 -->
<g id="edge3" class="edge"><title>Node2&#45;&gt;Node4</title>
<path fill="none" stroke="midnightblue" d="M256.044,-168.433C224.952,-159.95 175.776,-146.497 124.218,-132.187"/>
<polygon fill="midnightblue" stroke="midnightblue" points="125.139,-128.811 114.567,-129.507 123.265,-135.555 125.139,-128.811"/>
</g>
<!-- Node5 -->
<g id="node5" class="node"><title>Node5</title>
<polygon fill="white" stroke="#bfbfbf" points="133,-112.5 133,-131.5 198,-131.5 198,-112.5 133,-112.5"/>
<text text-anchor="middle" x="165.5" y="-119.5" font-family="Helvetica,sans-Serif" font-size="10.00">netinet/ip.h</text>
</g>
<!-- Node2&#45;&gt;Node5 -->
<g id="edge4" class="edge"><title>Node2&#45;&gt;Node5</title>
<path fill="none" stroke="midnightblue" d="M268.169,-168.444C248.18,-159.596 216.757,-145.687 193.936,-135.586"/>
<polygon fill="midnightblue" stroke="midnightblue" points="195.302,-132.363 184.741,-131.516 192.468,-138.764 195.302,-132.363"/>
</g>
<!-- Node6 -->
<g id="node6" class="node"><title>Node6</title>
<polygon fill="white" stroke="#bfbfbf" points="216,-112.5 216,-131.5 273,-131.5 273,-112.5 216,-112.5"/>
<text text-anchor="middle" x="244.5" y="-119.5" font-family="Helvetica,sans-Serif" font-size="10.00">pthread.h</text>
</g>
<!-- Node2&#45;&gt;Node6 -->
<g id="edge5" class="edge"><title>Node2&#45;&gt;Node6</title>
<path fill="none" stroke="midnightblue" d="M280.399,-168.083C274.263,-160.377 265.23,-149.033 257.761,-139.653"/>
<polygon fill="midnightblue" stroke="midnightblue" points="260.436,-137.394 251.468,-131.751 254.96,-141.754 260.436,-137.394"/>
</g>
<!-- Node7 -->
<g id="node7" class="node"><title>Node7</title>
<polygon fill="white" stroke="#bfbfbf" points="577,-112.5 577,-131.5 618,-131.5 618,-112.5 577,-112.5"/>
<text text-anchor="middle" x="597.5" y="-119.5" font-family="Helvetica,sans-Serif" font-size="10.00">string</text>
</g>
<!-- Node2&#45;&gt;Node7 -->
<g id="edge6" class="edge"><title>Node2&#45;&gt;Node7</title>
<path fill="none" stroke="midnightblue" d="M354.737,-168.733C409.419,-161.431 488.69,-149.532 566.91,-131.858"/>
<polygon fill="midnightblue" stroke="midnightblue" points="567.974,-135.205 576.939,-129.558 566.409,-128.382 567.974,-135.205"/>
</g>
<!-- Node17&#45;&gt;Node4 -->
<g id="edge17" class="edge"><title>Node17&#45;&gt;Node4</title>
<path fill="none" stroke="midnightblue" d="M372.688,-168.936C297.118,-158.337 169.855,-140.272 124.676,-131.893"/>
<polygon fill="midnightblue" stroke="midnightblue" points="125.323,-128.453 114.832,-129.936 123.958,-135.319 125.323,-128.453"/>
</g>
<!-- Node17&#45;&gt;Node6 -->
<g id="edge18" class="edge"><title>Node17&#45;&gt;Node6</title>
<path fill="none" stroke="midnightblue" d="M401.028,-168.444C369.142,-159.186 318.172,-144.389 283.108,-134.209"/>
<polygon fill="midnightblue" stroke="midnightblue" points="283.803,-130.766 273.223,-131.339 281.851,-137.488 283.803,-130.766"/>
</g>
<!-- Node17&#45;&gt;Node7 -->
<g id="edge20" class="edge"><title>Node17&#45;&gt;Node7</title>
<path fill="none" stroke="midnightblue" d="M456.962,-168.444C487.004,-158.729 535.916,-142.913 567.392,-132.735"/>
<polygon fill="midnightblue" stroke="midnightblue" points="568.515,-136.051 576.953,-129.644 566.361,-129.39 568.515,-136.051"/>
</g>
<!-- Node18 -->
<g id="node18" class="node"><title>Node18</title>
<polygon fill="white" stroke="#bfbfbf" points="372,-112.5 372,-131.5 421,-131.5 421,-112.5 372,-112.5"/>
<text text-anchor="middle" x="396.5" y="-119.5" font-family="Helvetica,sans-Serif" font-size="10.00">stdint.h</text>
</g>
<!-- Node17&#45;&gt;Node18 -->
<g id="edge19" class="edge"><title>Node17&#45;&gt;Node18</title>
<path fill="none" stroke="midnightblue" d="M424.886,-168.083C420.133,-160.534 413.182,-149.495 407.348,-140.23"/>
<polygon fill="midnightblue" stroke="midnightblue" points="410.3,-138.349 402.01,-131.751 404.376,-142.078 410.3,-138.349"/>
</g>
<!-- Node19 -->
<g id="node19" class="node"><title>Node19</title>
<g id="a_node19"><a xlink:href="SimpleRateCalculator_8h.html" target="_top" xlink:title="SimpleRateCalculator.h">
<polygon fill="white" stroke="black" points="438.5,-112.5 438.5,-131.5 558.5,-131.5 558.5,-112.5 438.5,-112.5"/>
<text text-anchor="middle" x="498.5" y="-119.5" font-family="Helvetica,sans-Serif" font-size="10.00">SimpleRateCalculator.h</text>
</a>
</g>
</g>
<!-- Node17&#45;&gt;Node19 -->
<g id="edge21" class="edge"><title>Node17&#45;&gt;Node19</title>
<path fill="none" stroke="midnightblue" d="M441.425,-168.324C451.675,-160.185 467.221,-147.839 479.501,-138.087"/>
<polygon fill="midnightblue" stroke="midnightblue" points="481.721,-140.794 487.376,-131.834 477.368,-135.312 481.721,-140.794"/>
</g>
<!-- Node20 -->
<g id="node20" class="node"><title>Node20</title>
<polygon fill="white" stroke="#bfbfbf" points="446,-56.5 446,-75.5 487,-75.5 487,-56.5 446,-56.5"/>
<text text-anchor="middle" x="466.5" y="-63.5" font-family="Helvetica,sans-Serif" font-size="10.00">ctime</text>
</g>
<!-- Node19&#45;&gt;Node20 -->
<g id="edge22" class="edge"><title>Node19&#45;&gt;Node20</title>
<path fill="none" stroke="midnightblue" d="M493.216,-112.083C488.789,-104.613 482.337,-93.7244 476.882,-84.5199"/>
<polygon fill="midnightblue" stroke="midnightblue" points="479.795,-82.5697 471.686,-75.7511 473.773,-86.1383 479.795,-82.5697"/>
</g>
<!-- Node21 -->
<g id="node21" class="node"><title>Node21</title>
<g id="a_node21"><a xlink:href="CurrentAndLastValues_8h.html" target="_top" xlink:title="CurrentAndLastValues.h">
<polygon fill="white" stroke="black" points="499,-0.5 499,-19.5 622,-19.5 622,-0.5 499,-0.5"/>
<text text-anchor="middle" x="560.5" y="-7.5" font-family="Helvetica,sans-Serif" font-size="10.00">CurrentAndLastValues.h</text>
</a>
</g>
</g>
<!-- Node19&#45;&gt;Node21 -->
<g id="edge23" class="edge"><title>Node19&#45;&gt;Node21</title>
<path fill="none" stroke="midnightblue" d="M503.341,-112.14C510.205,-99.6033 523.193,-75.9851 534.5,-56 539.673,-46.8561 545.519,-36.7207 550.356,-28.3875"/>
<polygon fill="midnightblue" stroke="midnightblue" points="553.465,-30.0037 555.469,-19.6002 547.415,-26.4831 553.465,-30.0037"/>
</g>
<!-- Node22 -->
<g id="node22" class="node"><title>Node22</title>
<g id="a_node22"><a xlink:href="SimpleRateCalculation_8h.html" target="_top" xlink:title="SimpleRateCalculation.h">
<polygon fill="white" stroke="black" points="544,-56.5 544,-75.5 669,-75.5 669,-56.5 544,-56.5"/>
<text text-anchor="middle" x="606.5" y="-63.5" font-family="Helvetica,sans-Serif" font-size="10.00">SimpleRateCalculation.h</text>
</a>
</g>
</g>
<!-- Node19&#45;&gt;Node22 -->
<g id="edge24" class="edge"><title>Node19&#45;&gt;Node22</title>
<path fill="none" stroke="midnightblue" d="M515.852,-112.324C533.172,-103.664 560.015,-90.2424 580.002,-80.249"/>
<polygon fill="midnightblue" stroke="midnightblue" points="581.812,-83.2572 589.191,-75.6545 578.681,-76.9962 581.812,-83.2572"/>
</g>
<!-- Node22&#45;&gt;Node14 -->
<g id="edge26" class="edge"><title>Node22&#45;&gt;Node14</title>
<path fill="none" stroke="midnightblue" d="M619.675,-56.324C632.347,-47.979 651.733,-35.2122 666.706,-25.3524"/>
<polygon fill="midnightblue" stroke="midnightblue" points="668.931,-28.0776 675.358,-19.6545 665.081,-22.2313 668.931,-28.0776"/>
</g>
<!-- Node22&#45;&gt;Node21 -->
<g id="edge25" class="edge"><title>Node22&#45;&gt;Node21</title>
<path fill="none" stroke="midnightblue" d="M598.904,-56.083C592.273,-48.2982 582.479,-36.8015 574.442,-27.3665"/>
<polygon fill="midnightblue" stroke="midnightblue" points="577.104,-25.0939 567.955,-19.7511 571.775,-29.6332 577.104,-25.0939"/>
</g>
<!-- Node23&#45;&gt;Node4 -->
<g id="edge28" class="edge"><title>Node23&#45;&gt;Node4</title>
<path fill="none" stroke="midnightblue" d="M57.2703,-168.083C63.0616,-160.455 71.5585,-149.264 78.6375,-139.941"/>
<polygon fill="midnightblue" stroke="midnightblue" points="81.5961,-141.832 84.8557,-131.751 76.021,-137.599 81.5961,-141.832"/>
</g>
<!-- Node24&#45;&gt;Node7 -->
<g id="edge30" class="edge"><title>Node24&#45;&gt;Node7</title>
<path fill="none" stroke="midnightblue" d="M633.399,-168.083C627.263,-160.377 618.23,-149.033 610.761,-139.653"/>
<polygon fill="midnightblue" stroke="midnightblue" points="613.436,-137.394 604.468,-131.751 607.96,-141.754 613.436,-137.394"/>
</g>
<!-- Node25 -->
<g id="node25" class="node"><title>Node25</title>
<polygon fill="white" stroke="#bfbfbf" points="636.5,-112.5 636.5,-131.5 686.5,-131.5 686.5,-112.5 636.5,-112.5"/>
<text text-anchor="middle" x="661.5" y="-119.5" font-family="Helvetica,sans-Serif" font-size="10.00">fstream</text>
</g>
<!-- Node24&#45;&gt;Node25 -->
<g id="edge31" class="edge"><title>Node24&#45;&gt;Node25</title>
<path fill="none" stroke="midnightblue" d="M643.968,-168.083C646.812,-160.77 650.929,-150.181 654.46,-141.103"/>
<polygon fill="midnightblue" stroke="midnightblue" points="657.734,-142.34 658.097,-131.751 651.21,-139.803 657.734,-142.34"/>
</g>
<!-- Node26&#45;&gt;Node16 -->
<g id="edge33" class="edge"><title>Node26&#45;&gt;Node16</title>
<path fill="none" stroke="midnightblue" d="M1325.89,-168.083C1321.13,-160.534 1314.18,-149.495 1308.35,-140.23"/>
<polygon fill="midnightblue" stroke="midnightblue" points="1311.3,-138.349 1303.01,-131.751 1305.38,-142.078 1311.3,-138.349"/>
</g>
<!-- Node27&#45;&gt;Node7 -->
<g id="edge35" class="edge"><title>Node27&#45;&gt;Node7</title>
<path fill="none" stroke="midnightblue" d="M550.497,-168.324C558.694,-160.42 571.006,-148.548 580.972,-138.938"/>
<polygon fill="midnightblue" stroke="midnightblue" points="583.57,-141.295 588.339,-131.834 578.711,-136.256 583.57,-141.295"/>
</g>
<!-- Node28&#45;&gt;Node4 -->
<g id="edge37" class="edge"><title>Node28&#45;&gt;Node4</title>
<path fill="none" stroke="midnightblue" d="M149.414,-168.324C139.014,-160.185 123.239,-147.839 110.778,-138.087"/>
<polygon fill="midnightblue" stroke="midnightblue" points="112.82,-135.241 102.788,-131.834 108.506,-140.753 112.82,-135.241"/>
</g>
<!-- Node28&#45;&gt;Node6 -->
<g id="edge38" class="edge"><title>Node28&#45;&gt;Node6</title>
<path fill="none" stroke="midnightblue" d="M173.996,-168.324C187.1,-159.9 207.212,-146.971 222.607,-137.074"/>
<polygon fill="midnightblue" stroke="midnightblue" points="224.518,-140.006 231.037,-131.655 220.733,-134.118 224.518,-140.006"/>
</g>
</g>
</svg>
