<?xml version="1.0" encoding="UTF-8" standalone="no"?>
<!DOCTYPE svg PUBLIC "-//W3C//DTD SVG 1.1//EN"
 "http://www.w3.org/Graphics/SVG/1.1/DTD/svg11.dtd">
<!-- Generated by graphviz version 2.38.0 (20140413.2041)
 -->
<!-- Title: BandwidthCalculator.h Pages: 1 -->
<svg width="488pt" height="196pt"
 viewBox="0.00 0.00 487.50 196.00" xmlns="http://www.w3.org/2000/svg" xmlns:xlink="http://www.w3.org/1999/xlink">
<g id="graph0" class="graph" transform="scale(1 1) rotate(0) translate(4 192)">
<title>BandwidthCalculator.h</title>
<polygon fill="white" stroke="none" points="-4,4 -4,-192 483.5,-192 483.5,4 -4,4"/>
<!-- Node1 -->
<g id="node1" class="node"><title>Node1</title>
<polygon fill="#bfbfbf" stroke="black" points="106.5,-168.5 106.5,-187.5 221.5,-187.5 221.5,-168.5 106.5,-168.5"/>
<text text-anchor="middle" x="164" y="-175.5" font-family="Helvetica,sans-Serif" font-size="10.00">BandwidthCalculator.h</text>
</g>
<!-- Node2 -->
<g id="node2" class="node"><title>Node2</title>
<polygon fill="white" stroke="#bfbfbf" points="0,-112.5 0,-131.5 46,-131.5 46,-112.5 0,-112.5"/>
<text text-anchor="middle" x="23" y="-119.5" font-family="Helvetica,sans-Serif" font-size="10.00">atomic</text>
</g>
<!-- Node1&#45;&gt;Node2 -->
<g id="edge1" class="edge"><title>Node1&#45;&gt;Node2</title>
<path fill="none" stroke="midnightblue" d="M141.658,-168.444C118.247,-159.478 81.2644,-145.314 54.8104,-135.183"/>
<polygon fill="midnightblue" stroke="midnightblue" points="55.8277,-131.824 45.2373,-131.516 53.3241,-138.361 55.8277,-131.824"/>
</g>
<!-- Node3 -->
<g id="node3" class="node"><title>Node3</title>
<polygon fill="white" stroke="#bfbfbf" points="64.5,-112.5 64.5,-131.5 121.5,-131.5 121.5,-112.5 64.5,-112.5"/>
<text text-anchor="middle" x="93" y="-119.5" font-family="Helvetica,sans-Serif" font-size="10.00">pthread.h</text>
</g>
<!-- Node1&#45;&gt;Node3 -->
<g id="edge2" class="edge"><title>Node1&#45;&gt;Node3</title>
<path fill="none" stroke="midnightblue" d="M152.593,-168.324C141.891,-160.185 125.659,-147.839 112.837,-138.087"/>
<polygon fill="midnightblue" stroke="midnightblue" points="114.693,-135.102 104.615,-131.834 110.456,-140.673 114.693,-135.102"/>
</g>
<!-- Node4 -->
<g id="node4" class="node"><title>Node4</title>
<polygon fill="white" stroke="#bfbfbf" points="139.5,-112.5 139.5,-131.5 188.5,-131.5 188.5,-112.5 139.5,-112.5"/>
<text text-anchor="middle" x="164" y="-119.5" font-family="Helvetica,sans-Serif" font-size="10.00">stdint.h</text>
</g>
<!-- Node1&#45;&gt;Node4 -->
<g id="edge3" class="edge"><title>Node1&#45;&gt;Node4</title>
<path fill="none" stroke="midnightblue" d="M164,-168.083C164,-161.006 164,-150.861 164,-141.986"/>
<polygon fill="midnightblue" stroke="midnightblue" points="167.5,-141.751 164,-131.751 160.5,-141.751 167.5,-141.751"/>
</g>
<!-- Node5 -->
<g id="node5" class="node"><title>Node5</title>
<polygon fill="white" stroke="#bfbfbf" points="206.5,-112.5 206.5,-131.5 247.5,-131.5 247.5,-112.5 206.5,-112.5"/>
<text text-anchor="middle" x="227" y="-119.5" font-family="Helvetica,sans-Serif" font-size="10.00">string</text>
</g>
<!-- Node1&#45;&gt;Node5 -->
<g id="edge4" class="edge"><title>Node1&#45;&gt;Node5</title>
<path fill="none" stroke="midnightblue" d="M174.122,-168.324C183.526,-160.263 197.744,-148.077 209.069,-138.369"/>
<polygon fill="midnightblue" stroke="midnightblue" points="211.379,-140.999 216.694,-131.834 206.823,-135.684 211.379,-140.999"/>
</g>
<!-- Node6 -->
<g id="node6" class="node"><title>Node6</title>
<g id="a_node6"><a xlink:href="SimpleRateCalculator_8h.html" target="_top" xlink:title="SimpleRateCalculator.h">
<polygon fill="white" stroke="black" points="266,-112.5 266,-131.5 386,-131.5 386,-112.5 266,-112.5"/>
<text text-anchor="middle" x="326" y="-119.5" font-family="Helvetica,sans-Serif" font-size="10.00">SimpleRateCalculator.h</text>
</a>
</g>
</g>
<!-- Node1&#45;&gt;Node6 -->
<g id="edge5" class="edge"><title>Node1&#45;&gt;Node6</title>
<path fill="none" stroke="midnightblue" d="M189.669,-168.444C216.923,-159.359 260.184,-144.939 290.651,-134.783"/>
<polygon fill="midnightblue" stroke="midnightblue" points="292.071,-137.999 300.451,-131.516 289.857,-131.358 292.071,-137.999"/>
</g>
<!-- Node7 -->
<g id="node7" class="node"><title>Node7</title>
<polygon fill="white" stroke="#bfbfbf" points="256.5,-56.5 256.5,-75.5 297.5,-75.5 297.5,-56.5 256.5,-56.5"/>
<text text-anchor="middle" x="277" y="-63.5" font-family="Helvetica,sans-Serif" font-size="10.00">ctime</text>
</g>
<!-- Node6&#45;&gt;Node7 -->
<g id="edge6" class="edge"><title>Node6&#45;&gt;Node7</title>
<path fill="none" stroke="midnightblue" d="M317.909,-112.083C310.845,-104.298 300.412,-92.8015 291.851,-83.3665"/>
<polygon fill="midnightblue" stroke="midnightblue" points="294.253,-80.8047 284.941,-75.7511 289.069,-85.5087 294.253,-80.8047"/>
</g>
<!-- Node8 -->
<g id="node8" class="node"><title>Node8</title>
<g id="a_node8"><a xlink:href="CurrentAndLastValues_8h.html" target="_top" xlink:title="CurrentAndLastValues.h">
<polygon fill="white" stroke="black" points="264.5,-0.5 264.5,-19.5 387.5,-19.5 387.5,-0.5 264.5,-0.5"/>
<text text-anchor="middle" x="326" y="-7.5" font-family="Helvetica,sans-Serif" font-size="10.00">CurrentAndLastValues.h</text>
</a>
</g>
</g>
<!-- Node6&#45;&gt;Node8 -->
<g id="edge7" class="edge"><title>Node6&#45;&gt;Node8</title>
<path fill="none" stroke="midnightblue" d="M326,-112.368C326,-94.617 326,-53.6664 326,-29.5974"/>
<polygon fill="midnightblue" stroke="midnightblue" points="329.5,-29.5914 326,-19.5914 322.5,-29.5915 329.5,-29.5914"/>
</g>
<!-- Node9 -->
<g id="node9" class="node"><title>Node9</title>
<g id="a_node9"><a xlink:href="SimpleRateCalculation_8h.html" target="_top" xlink:title="SimpleRateCalculation.h">
<polygon fill="white" stroke="black" points="354.5,-56.5 354.5,-75.5 479.5,-75.5 479.5,-56.5 354.5,-56.5"/>
<text text-anchor="middle" x="417" y="-63.5" font-family="Helvetica,sans-Serif" font-size="10.00">SimpleRateCalculation.h</text>
</a>
</g>
</g>
<!-- Node6&#45;&gt;Node9 -->
<g id="edge8" class="edge"><title>Node6&#45;&gt;Node9</title>
<path fill="none" stroke="midnightblue" d="M340.621,-112.324C354.949,-103.822 377.013,-90.7288 393.749,-80.7975"/>
<polygon fill="midnightblue" stroke="midnightblue" points="395.602,-83.7677 402.416,-75.6545 392.03,-77.7478 395.602,-83.7677"/>
</g>
<!-- Node9&#45;&gt;Node8 -->
<g id="edge9" class="edge"><title>Node9&#45;&gt;Node8</title>
<path fill="none" stroke="midnightblue" d="M402.379,-56.324C388.051,-47.8215 365.987,-34.7288 349.251,-24.7975"/>
<polygon fill="midnightblue" stroke="midnightblue" points="350.97,-21.7478 340.584,-19.6545 347.398,-27.7677 350.97,-21.7478"/>
</g>
<!-- Node10 -->
<g id="node10" class="node"><title>Node10</title>
<polygon fill="white" stroke="#bfbfbf" points="406,-0.5 406,-19.5 450,-19.5 450,-0.5 406,-0.5"/>
<text text-anchor="middle" x="428" y="-7.5" font-family="Helvetica,sans-Serif" font-size="10.00">time.h</text>
</g>
<!-- Node9&#45;&gt;Node10 -->
<g id="edge10" class="edge"><title>Node9&#45;&gt;Node10</title>
<path fill="none" stroke="midnightblue" d="M418.816,-56.083C420.274,-48.9272 422.371,-38.6353 424.193,-29.6911"/>
<polygon fill="midnightblue" stroke="midnightblue" points="427.651,-30.2485 426.217,-19.7511 420.792,-28.8512 427.651,-30.2485"/>
</g>
</g>
</svg>
