<?xml version="1.0" encoding="UTF-8" standalone="no"?>
<!DOCTYPE svg PUBLIC "-//W3C//DTD SVG 1.1//EN"
 "http://www.w3.org/Graphics/SVG/1.1/DTD/svg11.dtd">
<!-- Generated by graphviz version 2.38.0 (20140413.2041)
 -->
<!-- Title: BandwidthCommunicator.cpp Pages: 1 -->
<svg width="1320pt" height="252pt"
 viewBox="0.00 0.00 1319.50 252.00" xmlns="http://www.w3.org/2000/svg" xmlns:xlink="http://www.w3.org/1999/xlink">
<g id="graph0" class="graph" transform="scale(1 1) rotate(0) translate(4 248)">
<title>BandwidthCommunicator.cpp</title>
<polygon fill="white" stroke="none" points="-4,4 -4,-248 1315.5,-248 1315.5,4 -4,4"/>
<!-- Node1 -->
<g id="node1" class="node"><title>Node1</title>
<polygon fill="#bfbfbf" stroke="black" points="729,-224.5 729,-243.5 874,-243.5 874,-224.5 729,-224.5"/>
<text text-anchor="middle" x="801.5" y="-231.5" font-family="Helvetica,sans-Serif" font-size="10.00">BandwidthCommunicator.cpp</text>
</g>
<!-- Node2 -->
<g id="node2" class="node"><title>Node2</title>
<g id="a_node2"><a xlink:href="BandwidthCommunicator_8h.html" target="_top" xlink:title="BandwidthCommunicator.h">
<polygon fill="white" stroke="black" points="220.5,-168.5 220.5,-187.5 354.5,-187.5 354.5,-168.5 220.5,-168.5"/>
<text text-anchor="middle" x="287.5" y="-175.5" font-family="Helvetica,sans-Serif" font-size="10.00">BandwidthCommunicator.h</text>
</a>
</g>
</g>
<!-- Node1&#45;&gt;Node2 -->
<g id="edge1" class="edge"><title>Node1&#45;&gt;Node2</title>
<path fill="none" stroke="midnightblue" d="M728.999,-225.898C644.223,-217.516 499.381,-202.952 364.72,-188.121"/>
<polygon fill="midnightblue" stroke="midnightblue" points="364.954,-184.625 354.63,-187.007 364.186,-191.583 364.954,-184.625"/>
</g>
<!-- Node8 -->
<g id="node8" class="node"><title>Node8</title>
<polygon fill="white" stroke="#bfbfbf" points="705,-168.5 705,-187.5 752,-187.5 752,-168.5 705,-168.5"/>
<text text-anchor="middle" x="728.5" y="-175.5" font-family="Helvetica,sans-Serif" font-size="10.00">errno.h</text>
</g>
<!-- Node1&#45;&gt;Node8 -->
<g id="edge7" class="edge"><title>Node1&#45;&gt;Node8</title>
<path fill="none" stroke="midnightblue" d="M789.771,-224.324C778.663,-216.107 761.758,-203.602 748.517,-193.807"/>
<polygon fill="midnightblue" stroke="midnightblue" points="750.563,-190.967 740.442,-187.834 746.4,-196.595 750.563,-190.967"/>
</g>
<!-- Node9 -->
<g id="node9" class="node"><title>Node9</title>
<polygon fill="white" stroke="#bfbfbf" points="770.5,-168.5 770.5,-187.5 832.5,-187.5 832.5,-168.5 770.5,-168.5"/>
<text text-anchor="middle" x="801.5" y="-175.5" font-family="Helvetica,sans-Serif" font-size="10.00">linux/tcp.h</text>
</g>
<!-- Node1&#45;&gt;Node9 -->
<g id="edge8" class="edge"><title>Node1&#45;&gt;Node9</title>
<path fill="none" stroke="midnightblue" d="M801.5,-224.083C801.5,-217.006 801.5,-206.861 801.5,-197.986"/>
<polygon fill="midnightblue" stroke="midnightblue" points="805,-197.751 801.5,-187.751 798,-197.751 805,-197.751"/>
</g>
<!-- Node10 -->
<g id="node10" class="node"><title>Node10</title>
<polygon fill="white" stroke="#bfbfbf" points="850.5,-168.5 850.5,-187.5 902.5,-187.5 902.5,-168.5 850.5,-168.5"/>
<text text-anchor="middle" x="876.5" y="-175.5" font-family="Helvetica,sans-Serif" font-size="10.00">sstream</text>
</g>
<!-- Node1&#45;&gt;Node10 -->
<g id="edge9" class="edge"><title>Node1&#45;&gt;Node10</title>
<path fill="none" stroke="midnightblue" d="M813.55,-224.324C824.963,-216.107 842.331,-203.602 855.935,-193.807"/>
<polygon fill="midnightblue" stroke="midnightblue" points="858.16,-196.517 864.231,-187.834 854.07,-190.837 858.16,-196.517"/>
</g>
<!-- Node11 -->
<g id="node11" class="node"><title>Node11</title>
<polygon fill="white" stroke="#bfbfbf" points="921,-168.5 921,-187.5 970,-187.5 970,-168.5 921,-168.5"/>
<text text-anchor="middle" x="945.5" y="-175.5" font-family="Helvetica,sans-Serif" font-size="10.00">string.h</text>
</g>
<!-- Node1&#45;&gt;Node11 -->
<g id="edge10" class="edge"><title>Node1&#45;&gt;Node11</title>
<path fill="none" stroke="midnightblue" d="M824.317,-224.444C848.332,-215.438 886.329,-201.189 913.369,-191.049"/>
<polygon fill="midnightblue" stroke="midnightblue" points="914.655,-194.305 922.79,-187.516 912.197,-187.751 914.655,-194.305"/>
</g>
<!-- Node12 -->
<g id="node12" class="node"><title>Node12</title>
<polygon fill="white" stroke="#bfbfbf" points="988,-168.5 988,-187.5 1061,-187.5 1061,-168.5 988,-168.5"/>
<text text-anchor="middle" x="1024.5" y="-175.5" font-family="Helvetica,sans-Serif" font-size="10.00">sys/socket.h</text>
</g>
<!-- Node1&#45;&gt;Node12 -->
<g id="edge11" class="edge"><title>Node1&#45;&gt;Node12</title>
<path fill="none" stroke="midnightblue" d="M836.835,-224.444C875.411,-215.102 937.285,-200.119 979.353,-189.933"/>
<polygon fill="midnightblue" stroke="midnightblue" points="980.435,-193.272 989.33,-187.516 978.787,-186.468 980.435,-193.272"/>
</g>
<!-- Node13 -->
<g id="node13" class="node"><title>Node13</title>
<polygon fill="white" stroke="#bfbfbf" points="1079.5,-168.5 1079.5,-187.5 1127.5,-187.5 1127.5,-168.5 1079.5,-168.5"/>
<text text-anchor="middle" x="1103.5" y="-175.5" font-family="Helvetica,sans-Serif" font-size="10.00">stdlib.h</text>
</g>
<!-- Node1&#45;&gt;Node13 -->
<g id="edge12" class="edge"><title>Node1&#45;&gt;Node13</title>
<path fill="none" stroke="midnightblue" d="M861.941,-224.483C916.458,-216.413 998.71,-203.278 1069.5,-188 1069.6,-187.978 1069.7,-187.956 1069.8,-187.934"/>
<polygon fill="midnightblue" stroke="midnightblue" points="1070.49,-191.368 1079.42,-185.668 1068.88,-184.555 1070.49,-191.368"/>
</g>
<!-- Node14 -->
<g id="node14" class="node"><title>Node14</title>
<polygon fill="white" stroke="#bfbfbf" points="1146,-168.5 1146,-187.5 1197,-187.5 1197,-168.5 1146,-168.5"/>
<text text-anchor="middle" x="1171.5" y="-175.5" font-family="Helvetica,sans-Serif" font-size="10.00">unistd.h</text>
</g>
<!-- Node1&#45;&gt;Node14 -->
<g id="edge13" class="edge"><title>Node1&#45;&gt;Node14</title>
<path fill="none" stroke="midnightblue" d="M874.113,-225.751C939.979,-218.605 1039.89,-206.344 1136.07,-187.864"/>
<polygon fill="midnightblue" stroke="midnightblue" points="1136.82,-191.284 1145.97,-185.938 1135.48,-184.413 1136.82,-191.284"/>
</g>
<!-- Node15 -->
<g id="node15" class="node"><title>Node15</title>
<polygon fill="white" stroke="#bfbfbf" points="1265.5,-112.5 1265.5,-131.5 1311.5,-131.5 1311.5,-112.5 1265.5,-112.5"/>
<text text-anchor="middle" x="1288.5" y="-119.5" font-family="Helvetica,sans-Serif" font-size="10.00">stdio.h</text>
</g>
<!-- Node1&#45;&gt;Node15 -->
<g id="edge14" class="edge"><title>Node1&#45;&gt;Node15</title>
<path fill="none" stroke="midnightblue" d="M874.22,-231.775C1006.2,-228.794 1274.2,-218.958 1302.5,-188 1314.14,-175.263 1307.41,-155.235 1299.8,-140.775"/>
<polygon fill="midnightblue" stroke="midnightblue" points="1302.65,-138.707 1294.6,-131.813 1296.59,-142.219 1302.65,-138.707"/>
</g>
<!-- Node16 -->
<g id="node16" class="node"><title>Node16</title>
<g id="a_node16"><a xlink:href="BandwidthCalculator_8h.html" target="_top" xlink:title="BandwidthCalculator.h">
<polygon fill="white" stroke="black" points="373,-168.5 373,-187.5 488,-187.5 488,-168.5 373,-168.5"/>
<text text-anchor="middle" x="430.5" y="-175.5" font-family="Helvetica,sans-Serif" font-size="10.00">BandwidthCalculator.h</text>
</a>
</g>
</g>
<!-- Node1&#45;&gt;Node16 -->
<g id="edge15" class="edge"><title>Node1&#45;&gt;Node16</title>
<path fill="none" stroke="midnightblue" d="M742.714,-224.444C676.209,-214.764 568.081,-199.025 498.13,-188.844"/>
<polygon fill="midnightblue" stroke="midnightblue" points="498.496,-185.36 488.096,-187.383 497.487,-192.287 498.496,-185.36"/>
</g>
<!-- Node23 -->
<g id="node23" class="node"><title>Node23</title>
<g id="a_node23"><a xlink:href="BandwidthValues_8h.html" target="_top" xlink:title="BandwidthValues.h">
<polygon fill="white" stroke="black" points="0,-168.5 0,-187.5 101,-187.5 101,-168.5 0,-168.5"/>
<text text-anchor="middle" x="50.5" y="-175.5" font-family="Helvetica,sans-Serif" font-size="10.00">BandwidthValues.h</text>
</a>
</g>
</g>
<!-- Node1&#45;&gt;Node23 -->
<g id="edge26" class="edge"><title>Node1&#45;&gt;Node23</title>
<path fill="none" stroke="midnightblue" d="M728.844,-230.343C604.445,-225.34 342.484,-212.822 111.589,-188.145"/>
<polygon fill="midnightblue" stroke="midnightblue" points="111.63,-184.629 101.312,-187.036 110.879,-191.589 111.63,-184.629"/>
</g>
<!-- Node24 -->
<g id="node24" class="node"><title>Node24</title>
<g id="a_node24"><a xlink:href="LoggingHandler_8h.html" target="_top" xlink:title="LoggingHandler.h">
<polygon fill="white" stroke="black" points="594.5,-168.5 594.5,-187.5 686.5,-187.5 686.5,-168.5 594.5,-168.5"/>
<text text-anchor="middle" x="640.5" y="-175.5" font-family="Helvetica,sans-Serif" font-size="10.00">LoggingHandler.h</text>
</a>
</g>
</g>
<!-- Node1&#45;&gt;Node24 -->
<g id="edge28" class="edge"><title>Node1&#45;&gt;Node24</title>
<path fill="none" stroke="midnightblue" d="M775.989,-224.444C748.904,-215.359 705.91,-200.939 675.631,-190.783"/>
<polygon fill="midnightblue" stroke="midnightblue" points="676.486,-187.378 665.892,-187.516 674.26,-194.015 676.486,-187.378"/>
</g>
<!-- Node26 -->
<g id="node26" class="node"><title>Node26</title>
<g id="a_node26"><a xlink:href="PrintHandler_8h.html" target="_top" xlink:title="PrintHandler.h">
<polygon fill="white" stroke="black" points="1215,-168.5 1215,-187.5 1294,-187.5 1294,-168.5 1215,-168.5"/>
<text text-anchor="middle" x="1254.5" y="-175.5" font-family="Helvetica,sans-Serif" font-size="10.00">PrintHandler.h</text>
</a>
</g>
</g>
<!-- Node1&#45;&gt;Node26 -->
<g id="edge31" class="edge"><title>Node1&#45;&gt;Node26</title>
<path fill="none" stroke="midnightblue" d="M874.316,-226.453C953.225,-219.005 1083.06,-205.723 1205.07,-187.963"/>
<polygon fill="midnightblue" stroke="midnightblue" points="1205.57,-191.426 1214.96,-186.511 1204.56,-184.5 1205.57,-191.426"/>
</g>
<!-- Node27 -->
<g id="node27" class="node"><title>Node27</title>
<g id="a_node27"><a xlink:href="TCControl_8h.html" target="_top" xlink:title="TCControl.h">
<polygon fill="white" stroke="black" points="506.5,-168.5 506.5,-187.5 576.5,-187.5 576.5,-168.5 506.5,-168.5"/>
<text text-anchor="middle" x="541.5" y="-175.5" font-family="Helvetica,sans-Serif" font-size="10.00">TCControl.h</text>
</a>
</g>
</g>
<!-- Node1&#45;&gt;Node27 -->
<g id="edge33" class="edge"><title>Node1&#45;&gt;Node27</title>
<path fill="none" stroke="midnightblue" d="M760.302,-224.444C712.979,-214.615 635.583,-198.54 586.656,-188.378"/>
<polygon fill="midnightblue" stroke="midnightblue" points="587.171,-184.911 576.668,-186.304 585.748,-191.765 587.171,-184.911"/>
</g>
<!-- Node28 -->
<g id="node28" class="node"><title>Node28</title>
<g id="a_node28"><a xlink:href="ThreadHelper_8h.html" target="_top" xlink:title="ThreadHelper.h">
<polygon fill="white" stroke="black" points="119,-168.5 119,-187.5 202,-187.5 202,-168.5 119,-168.5"/>
<text text-anchor="middle" x="160.5" y="-175.5" font-family="Helvetica,sans-Serif" font-size="10.00">ThreadHelper.h</text>
</a>
</g>
</g>
<!-- Node1&#45;&gt;Node28 -->
<g id="edge35" class="edge"><title>Node1&#45;&gt;Node28</title>
<path fill="none" stroke="midnightblue" d="M728.603,-229.755C618.854,-224.357 404.483,-211.822 212.206,-187.958"/>
<polygon fill="midnightblue" stroke="midnightblue" points="212.556,-184.475 202.198,-186.703 211.685,-191.42 212.556,-184.475"/>
</g>
<!-- Node3 -->
<g id="node3" class="node"><title>Node3</title>
<polygon fill="white" stroke="#bfbfbf" points="121.5,-112.5 121.5,-131.5 183.5,-131.5 183.5,-112.5 121.5,-112.5"/>
<text text-anchor="middle" x="152.5" y="-119.5" font-family="Helvetica,sans-Serif" font-size="10.00">arpa/inet.h</text>
</g>
<!-- Node2&#45;&gt;Node3 -->
<g id="edge2" class="edge"><title>Node2&#45;&gt;Node3</title>
<path fill="none" stroke="midnightblue" d="M266.109,-168.444C243.793,-159.517 208.597,-145.439 183.292,-135.317"/>
<polygon fill="midnightblue" stroke="midnightblue" points="184.376,-131.981 173.791,-131.516 181.776,-138.48 184.376,-131.981"/>
</g>
<!-- Node4 -->
<g id="node4" class="node"><title>Node4</title>
<polygon fill="white" stroke="#bfbfbf" points="57.5,-112.5 57.5,-131.5 103.5,-131.5 103.5,-112.5 57.5,-112.5"/>
<text text-anchor="middle" x="80.5" y="-119.5" font-family="Helvetica,sans-Serif" font-size="10.00">atomic</text>
</g>
<!-- Node2&#45;&gt;Node4 -->
<g id="edge3" class="edge"><title>Node2&#45;&gt;Node4</title>
<path fill="none" stroke="midnightblue" d="M253.237,-168.432C219.914,-160.045 167.619,-146.742 113.348,-132.186"/>
<polygon fill="midnightblue" stroke="midnightblue" points="114.121,-128.769 103.555,-129.551 112.302,-135.529 114.121,-128.769"/>
</g>
<!-- Node5 -->
<g id="node5" class="node"><title>Node5</title>
<polygon fill="white" stroke="#bfbfbf" points="277,-112.5 277,-131.5 342,-131.5 342,-112.5 277,-112.5"/>
<text text-anchor="middle" x="309.5" y="-119.5" font-family="Helvetica,sans-Serif" font-size="10.00">netinet/ip.h</text>
</g>
<!-- Node2&#45;&gt;Node5 -->
<g id="edge4" class="edge"><title>Node2&#45;&gt;Node5</title>
<path fill="none" stroke="midnightblue" d="M291.133,-168.083C294.112,-160.77 298.426,-150.181 302.125,-141.103"/>
<polygon fill="midnightblue" stroke="midnightblue" points="305.403,-142.333 305.935,-131.751 298.92,-139.691 305.403,-142.333"/>
</g>
<!-- Node6 -->
<g id="node6" class="node"><title>Node6</title>
<polygon fill="white" stroke="#bfbfbf" points="202,-112.5 202,-131.5 259,-131.5 259,-112.5 202,-112.5"/>
<text text-anchor="middle" x="230.5" y="-119.5" font-family="Helvetica,sans-Serif" font-size="10.00">pthread.h</text>
</g>
<!-- Node2&#45;&gt;Node6 -->
<g id="edge5" class="edge"><title>Node2&#45;&gt;Node6</title>
<path fill="none" stroke="midnightblue" d="M278.342,-168.324C269.999,-160.42 257.468,-148.548 247.323,-138.938"/>
<polygon fill="midnightblue" stroke="midnightblue" points="249.491,-136.171 239.825,-131.834 244.677,-141.252 249.491,-136.171"/>
</g>
<!-- Node7 -->
<g id="node7" class="node"><title>Node7</title>
<polygon fill="white" stroke="#bfbfbf" points="565,-112.5 565,-131.5 606,-131.5 606,-112.5 565,-112.5"/>
<text text-anchor="middle" x="585.5" y="-119.5" font-family="Helvetica,sans-Serif" font-size="10.00">string</text>
</g>
<!-- Node2&#45;&gt;Node7 -->
<g id="edge6" class="edge"><title>Node2&#45;&gt;Node7</title>
<path fill="none" stroke="midnightblue" d="M352.116,-168.464C404.336,-161.039 479.863,-149.112 554.841,-131.891"/>
<polygon fill="midnightblue" stroke="midnightblue" points="555.989,-135.217 564.934,-129.539 554.401,-128.4 555.989,-135.217"/>
</g>
<!-- Node16&#45;&gt;Node4 -->
<g id="edge16" class="edge"><title>Node16&#45;&gt;Node4</title>
<path fill="none" stroke="midnightblue" d="M372.883,-169.05C293.314,-158.044 155.578,-138.889 113.82,-131.802"/>
<polygon fill="midnightblue" stroke="midnightblue" points="114.3,-128.331 103.829,-129.95 113.024,-135.214 114.3,-128.331"/>
</g>
<!-- Node16&#45;&gt;Node6 -->
<g id="edge17" class="edge"><title>Node16&#45;&gt;Node6</title>
<path fill="none" stroke="midnightblue" d="M398.809,-168.444C363.672,-158.956 306.981,-143.65 269.236,-133.459"/>
<polygon fill="midnightblue" stroke="midnightblue" points="269.693,-129.957 259.126,-130.729 267.868,-136.715 269.693,-129.957"/>
</g>
<!-- Node16&#45;&gt;Node7 -->
<g id="edge19" class="edge"><title>Node16&#45;&gt;Node7</title>
<path fill="none" stroke="midnightblue" d="M455.06,-168.444C482.092,-159.026 525.582,-143.875 554.832,-133.684"/>
<polygon fill="midnightblue" stroke="midnightblue" points="556.242,-136.899 564.534,-130.304 553.939,-130.289 556.242,-136.899"/>
</g>
<!-- Node17 -->
<g id="node17" class="node"><title>Node17</title>
<polygon fill="white" stroke="#bfbfbf" points="498,-112.5 498,-131.5 547,-131.5 547,-112.5 498,-112.5"/>
<text text-anchor="middle" x="522.5" y="-119.5" font-family="Helvetica,sans-Serif" font-size="10.00">stdint.h</text>
</g>
<!-- Node16&#45;&gt;Node17 -->
<g id="edge18" class="edge"><title>Node16&#45;&gt;Node17</title>
<path fill="none" stroke="midnightblue" d="M445.281,-168.324C459.767,-159.822 482.073,-146.729 498.993,-136.797"/>
<polygon fill="midnightblue" stroke="midnightblue" points="500.903,-139.735 507.755,-131.655 497.359,-133.698 500.903,-139.735"/>
</g>
<!-- Node18 -->
<g id="node18" class="node"><title>Node18</title>
<g id="a_node18"><a xlink:href="SimpleRateCalculator_8h.html" target="_top" xlink:title="SimpleRateCalculator.h">
<polygon fill="white" stroke="black" points="360.5,-112.5 360.5,-131.5 480.5,-131.5 480.5,-112.5 360.5,-112.5"/>
<text text-anchor="middle" x="420.5" y="-119.5" font-family="Helvetica,sans-Serif" font-size="10.00">SimpleRateCalculator.h</text>
</a>
</g>
</g>
<!-- Node16&#45;&gt;Node18 -->
<g id="edge20" class="edge"><title>Node16&#45;&gt;Node18</title>
<path fill="none" stroke="midnightblue" d="M428.849,-168.083C427.524,-160.927 425.618,-150.635 423.961,-141.691"/>
<polygon fill="midnightblue" stroke="midnightblue" points="427.383,-140.947 422.121,-131.751 420.5,-142.221 427.383,-140.947"/>
</g>
<!-- Node19 -->
<g id="node19" class="node"><title>Node19</title>
<polygon fill="white" stroke="#bfbfbf" points="351,-56.5 351,-75.5 392,-75.5 392,-56.5 351,-56.5"/>
<text text-anchor="middle" x="371.5" y="-63.5" font-family="Helvetica,sans-Serif" font-size="10.00">ctime</text>
</g>
<!-- Node18&#45;&gt;Node19 -->
<g id="edge21" class="edge"><title>Node18&#45;&gt;Node19</title>
<path fill="none" stroke="midnightblue" d="M412.409,-112.083C405.345,-104.298 394.912,-92.8015 386.351,-83.3665"/>
<polygon fill="midnightblue" stroke="midnightblue" points="388.753,-80.8047 379.441,-75.7511 383.569,-85.5087 388.753,-80.8047"/>
</g>
<!-- Node20 -->
<g id="node20" class="node"><title>Node20</title>
<g id="a_node20"><a xlink:href="CurrentAndLastValues_8h.html" target="_top" xlink:title="CurrentAndLastValues.h">
<polygon fill="white" stroke="black" points="359,-0.5 359,-19.5 482,-19.5 482,-0.5 359,-0.5"/>
<text text-anchor="middle" x="420.5" y="-7.5" font-family="Helvetica,sans-Serif" font-size="10.00">CurrentAndLastValues.h</text>
</a>
</g>
</g>
<!-- Node18&#45;&gt;Node20 -->
<g id="edge22" class="edge"><title>Node18&#45;&gt;Node20</title>
<path fill="none" stroke="midnightblue" d="M420.5,-112.368C420.5,-94.617 420.5,-53.6664 420.5,-29.5974"/>
<polygon fill="midnightblue" stroke="midnightblue" points="424,-29.5914 420.5,-19.5914 417,-29.5915 424,-29.5914"/>
</g>
<!-- Node21 -->
<g id="node21" class="node"><title>Node21</title>
<g id="a_node21"><a xlink:href="SimpleRateCalculation_8h.html" target="_top" xlink:title="SimpleRateCalculation.h">
<polygon fill="white" stroke="black" points="449,-56.5 449,-75.5 574,-75.5 574,-56.5 449,-56.5"/>
<text text-anchor="middle" x="511.5" y="-63.5" font-family="Helvetica,sans-Serif" font-size="10.00">SimpleRateCalculation.h</text>
</a>
</g>
</g>
<!-- Node18&#45;&gt;Node21 -->
<g id="edge23" class="edge"><title>Node18&#45;&gt;Node21</title>
<path fill="none" stroke="midnightblue" d="M435.121,-112.324C449.449,-103.822 471.513,-90.7288 488.249,-80.7975"/>
<polygon fill="midnightblue" stroke="midnightblue" points="490.102,-83.7677 496.916,-75.6545 486.53,-77.7478 490.102,-83.7677"/>
</g>
<!-- Node21&#45;&gt;Node20 -->
<g id="edge24" class="edge"><title>Node21&#45;&gt;Node20</title>
<path fill="none" stroke="midnightblue" d="M496.879,-56.324C482.551,-47.8215 460.487,-34.7288 443.751,-24.7975"/>
<polygon fill="midnightblue" stroke="midnightblue" points="445.47,-21.7478 435.084,-19.6545 441.898,-27.7677 445.47,-21.7478"/>
</g>
<!-- Node22 -->
<g id="node22" class="node"><title>Node22</title>
<polygon fill="white" stroke="#bfbfbf" points="500.5,-0.5 500.5,-19.5 544.5,-19.5 544.5,-0.5 500.5,-0.5"/>
<text text-anchor="middle" x="522.5" y="-7.5" font-family="Helvetica,sans-Serif" font-size="10.00">time.h</text>
</g>
<!-- Node21&#45;&gt;Node22 -->
<g id="edge25" class="edge"><title>Node21&#45;&gt;Node22</title>
<path fill="none" stroke="midnightblue" d="M513.316,-56.083C514.774,-48.9272 516.871,-38.6353 518.693,-29.6911"/>
<polygon fill="midnightblue" stroke="midnightblue" points="522.151,-30.2485 520.717,-19.7511 515.292,-28.8512 522.151,-30.2485"/>
</g>
<!-- Node23&#45;&gt;Node4 -->
<g id="edge27" class="edge"><title>Node23&#45;&gt;Node4</title>
<path fill="none" stroke="midnightblue" d="M55.4539,-168.083C59.6041,-160.613 65.6531,-149.724 70.7667,-140.52"/>
<polygon fill="midnightblue" stroke="midnightblue" points="73.8414,-142.192 75.6383,-131.751 67.7223,-138.793 73.8414,-142.192"/>
</g>
<!-- Node24&#45;&gt;Node7 -->
<g id="edge29" class="edge"><title>Node24&#45;&gt;Node7</title>
<path fill="none" stroke="midnightblue" d="M631.418,-168.083C623.329,-160.141 611.305,-148.335 601.59,-138.797"/>
<polygon fill="midnightblue" stroke="midnightblue" points="604.001,-136.26 594.413,-131.751 599.097,-141.254 604.001,-136.26"/>
</g>
<!-- Node25 -->
<g id="node25" class="node"><title>Node25</title>
<polygon fill="white" stroke="#bfbfbf" points="624.5,-112.5 624.5,-131.5 674.5,-131.5 674.5,-112.5 624.5,-112.5"/>
<text text-anchor="middle" x="649.5" y="-119.5" font-family="Helvetica,sans-Serif" font-size="10.00">fstream</text>
</g>
<!-- Node24&#45;&gt;Node25 -->
<g id="edge30" class="edge"><title>Node24&#45;&gt;Node25</title>
<path fill="none" stroke="midnightblue" d="M641.986,-168.083C643.179,-160.927 644.894,-150.635 646.385,-141.691"/>
<polygon fill="midnightblue" stroke="midnightblue" points="649.85,-142.19 648.041,-131.751 642.945,-141.04 649.85,-142.19"/>
</g>
<!-- Node26&#45;&gt;Node15 -->
<g id="edge32" class="edge"><title>Node26&#45;&gt;Node15</title>
<path fill="none" stroke="midnightblue" d="M1260.11,-168.083C1264.87,-160.534 1271.82,-149.495 1277.65,-140.23"/>
<polygon fill="midnightblue" stroke="midnightblue" points="1280.62,-142.078 1282.99,-131.751 1274.7,-138.349 1280.62,-142.078"/>
</g>
<!-- Node27&#45;&gt;Node7 -->
<g id="edge34" class="edge"><title>Node27&#45;&gt;Node7</title>
<path fill="none" stroke="midnightblue" d="M548.766,-168.083C555.045,-160.377 564.288,-149.033 571.931,-139.653"/>
<polygon fill="midnightblue" stroke="midnightblue" points="574.766,-141.714 578.369,-131.751 569.339,-137.293 574.766,-141.714"/>
</g>
<!-- Node28&#45;&gt;Node4 -->
<g id="edge36" class="edge"><title>Node28&#45;&gt;Node4</title>
<path fill="none" stroke="midnightblue" d="M147.647,-168.324C135.284,-159.979 116.37,-147.212 101.763,-137.352"/>
<polygon fill="midnightblue" stroke="midnightblue" points="103.568,-134.348 93.3215,-131.655 99.6518,-140.15 103.568,-134.348"/>
</g>
<!-- Node28&#45;&gt;Node6 -->
<g id="edge37" class="edge"><title>Node28&#45;&gt;Node6</title>
<path fill="none" stroke="midnightblue" d="M171.747,-168.324C182.297,-160.185 198.301,-147.839 210.942,-138.087"/>
<polygon fill="midnightblue" stroke="midnightblue" points="213.269,-140.713 219.049,-131.834 208.993,-135.171 213.269,-140.713"/>
</g>
</g>
</svg>
