<?xml version="1.0" encoding="UTF-8" standalone="no"?>
<!DOCTYPE svg PUBLIC "-//W3C//DTD SVG 1.1//EN"
 "http://www.w3.org/Graphics/SVG/1.1/DTD/svg11.dtd">
<!-- Generated by graphviz version 2.38.0 (20140413.2041)
 -->
<!-- Title: BandwidthCalculator.h Pages: 1 -->
<svg width="423pt" height="196pt"
 viewBox="0.00 0.00 423.00 196.00" xmlns="http://www.w3.org/2000/svg" xmlns:xlink="http://www.w3.org/1999/xlink">
<g id="graph0" class="graph" transform="scale(1 1) rotate(0) translate(4 192)">
<title>BandwidthCalculator.h</title>
<polygon fill="white" stroke="none" points="-4,4 -4,-192 419,-192 419,4 -4,4"/>
<!-- Node1 -->
<g id="node1" class="node"><title>Node1</title>
<polygon fill="#bfbfbf" stroke="black" points="73,-168.5 73,-187.5 188,-187.5 188,-168.5 73,-168.5"/>
<text text-anchor="middle" x="130.5" y="-175.5" font-family="Helvetica,sans-Serif" font-size="10.00">BandwidthCalculator.h</text>
</g>
<!-- Node2 -->
<g id="node2" class="node"><title>Node2</title>
<polygon fill="white" stroke="#bfbfbf" points="0,-112.5 0,-131.5 57,-131.5 57,-112.5 0,-112.5"/>
<text text-anchor="middle" x="28.5" y="-119.5" font-family="Helvetica,sans-Serif" font-size="10.00">pthread.h</text>
</g>
<!-- Node1&#45;&gt;Node2 -->
<g id="edge1" class="edge"><title>Node1&#45;&gt;Node2</title>
<path fill="none" stroke="midnightblue" d="M114.112,-168.324C97.8287,-159.703 72.6325,-146.364 53.7837,-136.386"/>
<polygon fill="midnightblue" stroke="midnightblue" points="55.3229,-133.24 44.8474,-131.655 52.0477,-139.427 55.3229,-133.24"/>
</g>
<!-- Node3 -->
<g id="node3" class="node"><title>Node3</title>
<polygon fill="white" stroke="#bfbfbf" points="75,-112.5 75,-131.5 124,-131.5 124,-112.5 75,-112.5"/>
<text text-anchor="middle" x="99.5" y="-119.5" font-family="Helvetica,sans-Serif" font-size="10.00">stdint.h</text>
</g>
<!-- Node1&#45;&gt;Node3 -->
<g id="edge2" class="edge"><title>Node1&#45;&gt;Node3</title>
<path fill="none" stroke="midnightblue" d="M125.381,-168.083C121.092,-160.613 114.842,-149.724 109.558,-140.52"/>
<polygon fill="midnightblue" stroke="midnightblue" points="112.538,-138.681 104.524,-131.751 106.467,-142.166 112.538,-138.681"/>
</g>
<!-- Node4 -->
<g id="node4" class="node"><title>Node4</title>
<polygon fill="white" stroke="#bfbfbf" points="142,-112.5 142,-131.5 183,-131.5 183,-112.5 142,-112.5"/>
<text text-anchor="middle" x="162.5" y="-119.5" font-family="Helvetica,sans-Serif" font-size="10.00">string</text>
</g>
<!-- Node1&#45;&gt;Node4 -->
<g id="edge3" class="edge"><title>Node1&#45;&gt;Node4</title>
<path fill="none" stroke="midnightblue" d="M135.784,-168.083C140.211,-160.613 146.663,-149.724 152.118,-140.52"/>
<polygon fill="midnightblue" stroke="midnightblue" points="155.227,-142.138 157.314,-131.751 149.205,-138.57 155.227,-142.138"/>
</g>
<!-- Node5 -->
<g id="node5" class="node"><title>Node5</title>
<g id="a_node5"><a xlink:href="SimpleRateCalculator_8h.html" target="_top" xlink:title="SimpleRateCalculator.h">
<polygon fill="white" stroke="black" points="201.5,-112.5 201.5,-131.5 321.5,-131.5 321.5,-112.5 201.5,-112.5"/>
<text text-anchor="middle" x="261.5" y="-119.5" font-family="Helvetica,sans-Serif" font-size="10.00">SimpleRateCalculator.h</text>
</a>
</g>
</g>
<!-- Node1&#45;&gt;Node5 -->
<g id="edge4" class="edge"><title>Node1&#45;&gt;Node5</title>
<path fill="none" stroke="midnightblue" d="M151.257,-168.444C172.816,-159.557 206.763,-145.563 231.294,-135.451"/>
<polygon fill="midnightblue" stroke="midnightblue" points="232.928,-138.563 240.84,-131.516 230.261,-132.092 232.928,-138.563"/>
</g>
<!-- Node6 -->
<g id="node6" class="node"><title>Node6</title>
<polygon fill="white" stroke="#bfbfbf" points="192,-56.5 192,-75.5 233,-75.5 233,-56.5 192,-56.5"/>
<text text-anchor="middle" x="212.5" y="-63.5" font-family="Helvetica,sans-Serif" font-size="10.00">ctime</text>
</g>
<!-- Node5&#45;&gt;Node6 -->
<g id="edge5" class="edge"><title>Node5&#45;&gt;Node6</title>
<path fill="none" stroke="midnightblue" d="M253.409,-112.083C246.345,-104.298 235.912,-92.8015 227.351,-83.3665"/>
<polygon fill="midnightblue" stroke="midnightblue" points="229.753,-80.8047 220.441,-75.7511 224.569,-85.5087 229.753,-80.8047"/>
</g>
<!-- Node7 -->
<g id="node7" class="node"><title>Node7</title>
<g id="a_node7"><a xlink:href="CurrentAndLastValues_8h.html" target="_top" xlink:title="CurrentAndLastValues.h">
<polygon fill="white" stroke="black" points="200,-0.5 200,-19.5 323,-19.5 323,-0.5 200,-0.5"/>
<text text-anchor="middle" x="261.5" y="-7.5" font-family="Helvetica,sans-Serif" font-size="10.00">CurrentAndLastValues.h</text>
</a>
</g>
</g>
<!-- Node5&#45;&gt;Node7 -->
<g id="edge6" class="edge"><title>Node5&#45;&gt;Node7</title>
<path fill="none" stroke="midnightblue" d="M261.5,-112.368C261.5,-94.617 261.5,-53.6664 261.5,-29.5974"/>
<polygon fill="midnightblue" stroke="midnightblue" points="265,-29.5914 261.5,-19.5914 258,-29.5915 265,-29.5914"/>
</g>
<!-- Node8 -->
<g id="node8" class="node"><title>Node8</title>
<g id="a_node8"><a xlink:href="SimpleRateCalculation_8h.html" target="_top" xlink:title="SimpleRateCalculation.h">
<polygon fill="white" stroke="black" points="290,-56.5 290,-75.5 415,-75.5 415,-56.5 290,-56.5"/>
<text text-anchor="middle" x="352.5" y="-63.5" font-family="Helvetica,sans-Serif" font-size="10.00">SimpleRateCalculation.h</text>
</a>
</g>
</g>
<!-- Node5&#45;&gt;Node8 -->
<g id="edge7" class="edge"><title>Node5&#45;&gt;Node8</title>
<path fill="none" stroke="midnightblue" d="M276.121,-112.324C290.449,-103.822 312.513,-90.7288 329.249,-80.7975"/>
<polygon fill="midnightblue" stroke="midnightblue" points="331.102,-83.7677 337.916,-75.6545 327.53,-77.7478 331.102,-83.7677"/>
</g>
<!-- Node8&#45;&gt;Node7 -->
<g id="edge8" class="edge"><title>Node8&#45;&gt;Node7</title>
<path fill="none" stroke="midnightblue" d="M337.879,-56.324C323.551,-47.8215 301.487,-34.7288 284.751,-24.7975"/>
<polygon fill="midnightblue" stroke="midnightblue" points="286.47,-21.7478 276.084,-19.6545 282.898,-27.7677 286.47,-21.7478"/>
</g>
<!-- Node9 -->
<g id="node9" class="node"><title>Node9</title>
<polygon fill="white" stroke="#bfbfbf" points="341.5,-0.5 341.5,-19.5 385.5,-19.5 385.5,-0.5 341.5,-0.5"/>
<text text-anchor="middle" x="363.5" y="-7.5" font-family="Helvetica,sans-Serif" font-size="10.00">time.h</text>
</g>
<!-- Node8&#45;&gt;Node9 -->
<g id="edge9" class="edge"><title>Node8&#45;&gt;Node9</title>
<path fill="none" stroke="midnightblue" d="M354.316,-56.083C355.774,-48.9272 357.871,-38.6353 359.693,-29.6911"/>
<polygon fill="midnightblue" stroke="midnightblue" points="363.151,-30.2485 361.717,-19.7511 356.292,-28.8512 363.151,-30.2485"/>
</g>
</g>
</svg>
