<?xml version="1.0" encoding="UTF-8" standalone="no"?>
<!DOCTYPE svg PUBLIC "-//W3C//DTD SVG 1.1//EN"
 "http://www.w3.org/Graphics/SVG/1.1/DTD/svg11.dtd">
<!-- Generated by graphviz version 2.38.0 (20140413.2041)
 -->
<!-- Title: BandwidthCalculator.cpp Pages: 1 -->
<svg width="1071pt" height="252pt"
 viewBox="0.00 0.00 1071.00 252.00" xmlns="http://www.w3.org/2000/svg" xmlns:xlink="http://www.w3.org/1999/xlink">
<g id="graph0" class="graph" transform="scale(1 1) rotate(0) translate(4 248)">
<title>BandwidthCalculator.cpp</title>
<polygon fill="white" stroke="none" points="-4,4 -4,-248 1067,-248 1067,4 -4,4"/>
<!-- Node1 -->
<g id="node1" class="node"><title>Node1</title>
<polygon fill="#bfbfbf" stroke="black" points="548,-224.5 548,-243.5 673,-243.5 673,-224.5 548,-224.5"/>
<text text-anchor="middle" x="610.5" y="-231.5" font-family="Helvetica,sans-Serif" font-size="10.00">BandwidthCalculator.cpp</text>
</g>
<!-- Node2 -->
<g id="node2" class="node"><title>Node2</title>
<g id="a_node2"><a xlink:href="BandwidthCalculator_8h.html" target="_top" xlink:title="BandwidthCalculator.h">
<polygon fill="white" stroke="black" points="220,-168.5 220,-187.5 335,-187.5 335,-168.5 220,-168.5"/>
<text text-anchor="middle" x="277.5" y="-175.5" font-family="Helvetica,sans-Serif" font-size="10.00">BandwidthCalculator.h</text>
</a>
</g>
</g>
<!-- Node1&#45;&gt;Node2 -->
<g id="edge1" class="edge"><title>Node1&#45;&gt;Node2</title>
<path fill="none" stroke="midnightblue" d="M557.735,-224.444C498.67,-214.865 403.026,-199.356 340.194,-189.167"/>
<polygon fill="midnightblue" stroke="midnightblue" points="340.449,-185.662 330.018,-187.516 339.329,-192.572 340.449,-185.662"/>
</g>
<!-- Node11 -->
<g id="node11" class="node"><title>Node11</title>
<polygon fill="white" stroke="#bfbfbf" points="463.5,-168.5 463.5,-187.5 525.5,-187.5 525.5,-168.5 463.5,-168.5"/>
<text text-anchor="middle" x="494.5" y="-175.5" font-family="Helvetica,sans-Serif" font-size="10.00">arpa/inet.h</text>
</g>
<!-- Node1&#45;&gt;Node11 -->
<g id="edge11" class="edge"><title>Node1&#45;&gt;Node11</title>
<path fill="none" stroke="midnightblue" d="M592.119,-224.444C573.284,-215.675 543.769,-201.935 522.121,-191.858"/>
<polygon fill="midnightblue" stroke="midnightblue" points="523.338,-188.564 512.795,-187.516 520.383,-194.91 523.338,-188.564"/>
</g>
<!-- Node12 -->
<g id="node12" class="node"><title>Node12</title>
<polygon fill="white" stroke="#bfbfbf" points="544,-168.5 544,-187.5 591,-187.5 591,-168.5 544,-168.5"/>
<text text-anchor="middle" x="567.5" y="-175.5" font-family="Helvetica,sans-Serif" font-size="10.00">errno.h</text>
</g>
<!-- Node1&#45;&gt;Node12 -->
<g id="edge12" class="edge"><title>Node1&#45;&gt;Node12</title>
<path fill="none" stroke="midnightblue" d="M603.399,-224.083C597.263,-216.377 588.23,-205.033 580.761,-195.653"/>
<polygon fill="midnightblue" stroke="midnightblue" points="583.436,-193.394 574.468,-187.751 577.96,-197.754 583.436,-193.394"/>
</g>
<!-- Node13 -->
<g id="node13" class="node"><title>Node13</title>
<polygon fill="white" stroke="#bfbfbf" points="609,-168.5 609,-187.5 698,-187.5 698,-168.5 609,-168.5"/>
<text text-anchor="middle" x="653.5" y="-175.5" font-family="Helvetica,sans-Serif" font-size="10.00">netinet/if_ether.h</text>
</g>
<!-- Node1&#45;&gt;Node13 -->
<g id="edge13" class="edge"><title>Node1&#45;&gt;Node13</title>
<path fill="none" stroke="midnightblue" d="M617.601,-224.083C623.737,-216.377 632.77,-205.033 640.239,-195.653"/>
<polygon fill="midnightblue" stroke="midnightblue" points="643.04,-197.754 646.532,-187.751 637.564,-193.394 643.04,-197.754"/>
</g>
<!-- Node14 -->
<g id="node14" class="node"><title>Node14</title>
<polygon fill="white" stroke="#bfbfbf" points="716,-168.5 716,-187.5 781,-187.5 781,-168.5 716,-168.5"/>
<text text-anchor="middle" x="748.5" y="-175.5" font-family="Helvetica,sans-Serif" font-size="10.00">netinet/ip.h</text>
</g>
<!-- Node1&#45;&gt;Node14 -->
<g id="edge14" class="edge"><title>Node1&#45;&gt;Node14</title>
<path fill="none" stroke="midnightblue" d="M632.367,-224.444C655.279,-215.478 691.475,-201.314 717.366,-191.183"/>
<polygon fill="midnightblue" stroke="midnightblue" points="718.699,-194.42 726.736,-187.516 716.148,-187.901 718.699,-194.42"/>
</g>
<!-- Node15 -->
<g id="node15" class="node"><title>Node15</title>
<polygon fill="white" stroke="#bfbfbf" points="799.5,-168.5 799.5,-187.5 851.5,-187.5 851.5,-168.5 799.5,-168.5"/>
<text text-anchor="middle" x="825.5" y="-175.5" font-family="Helvetica,sans-Serif" font-size="10.00">sstream</text>
</g>
<!-- Node1&#45;&gt;Node15 -->
<g id="edge15" class="edge"><title>Node1&#45;&gt;Node15</title>
<path fill="none" stroke="midnightblue" d="M645.024,-224.442C679.29,-215.932 733.57,-202.408 789.425,-188.261"/>
<polygon fill="midnightblue" stroke="midnightblue" points="790.298,-191.651 799.132,-185.801 788.578,-184.865 790.298,-191.651"/>
</g>
<!-- Node16 -->
<g id="node16" class="node"><title>Node16</title>
<polygon fill="white" stroke="#bfbfbf" points="870,-168.5 870,-187.5 919,-187.5 919,-168.5 870,-168.5"/>
<text text-anchor="middle" x="894.5" y="-175.5" font-family="Helvetica,sans-Serif" font-size="10.00">string.h</text>
</g>
<!-- Node1&#45;&gt;Node16 -->
<g id="edge16" class="edge"><title>Node1&#45;&gt;Node16</title>
<path fill="none" stroke="midnightblue" d="M665.375,-224.43C714.013,-216.539 787.152,-203.952 859.883,-187.989"/>
<polygon fill="midnightblue" stroke="midnightblue" points="860.669,-191.4 869.674,-185.819 859.154,-184.566 860.669,-191.4"/>
</g>
<!-- Node17 -->
<g id="node17" class="node"><title>Node17</title>
<polygon fill="white" stroke="#bfbfbf" points="937,-168.5 937,-187.5 988,-187.5 988,-168.5 937,-168.5"/>
<text text-anchor="middle" x="962.5" y="-175.5" font-family="Helvetica,sans-Serif" font-size="10.00">unistd.h</text>
</g>
<!-- Node1&#45;&gt;Node17 -->
<g id="edge17" class="edge"><title>Node1&#45;&gt;Node17</title>
<path fill="none" stroke="midnightblue" d="M673.024,-226.365C735.219,-219.265 833.511,-206.702 927.046,-188.105"/>
<polygon fill="midnightblue" stroke="midnightblue" points="927.845,-191.514 936.956,-186.108 926.462,-184.652 927.845,-191.514"/>
</g>
<!-- Node18 -->
<g id="node18" class="node"><title>Node18</title>
<g id="a_node18"><a xlink:href="BandwidthValues_8h.html" target="_top" xlink:title="BandwidthValues.h">
<polygon fill="white" stroke="black" points="101,-168.5 101,-187.5 202,-187.5 202,-168.5 101,-168.5"/>
<text text-anchor="middle" x="151.5" y="-175.5" font-family="Helvetica,sans-Serif" font-size="10.00">BandwidthValues.h</text>
</a>
</g>
</g>
<!-- Node1&#45;&gt;Node18 -->
<g id="edge18" class="edge"><title>Node1&#45;&gt;Node18</title>
<path fill="none" stroke="midnightblue" d="M547.707,-226.708C470.936,-218.842 336.791,-204.541 212.119,-188.173"/>
<polygon fill="midnightblue" stroke="midnightblue" points="212.384,-184.678 202.012,-186.839 211.468,-191.618 212.384,-184.678"/>
</g>
<!-- Node19 -->
<g id="node19" class="node"><title>Node19</title>
<g id="a_node19"><a xlink:href="LoggingHandler_8h.html" target="_top" xlink:title="LoggingHandler.h">
<polygon fill="white" stroke="black" points="353.5,-168.5 353.5,-187.5 445.5,-187.5 445.5,-168.5 353.5,-168.5"/>
<text text-anchor="middle" x="399.5" y="-175.5" font-family="Helvetica,sans-Serif" font-size="10.00">LoggingHandler.h</text>
</a>
</g>
</g>
<!-- Node1&#45;&gt;Node19 -->
<g id="edge20" class="edge"><title>Node1&#45;&gt;Node19</title>
<path fill="none" stroke="midnightblue" d="M577.066,-224.444C540.644,-215.122 482.27,-200.183 442.471,-189.997"/>
<polygon fill="midnightblue" stroke="midnightblue" points="443.333,-186.605 432.777,-187.516 441.597,-193.387 443.333,-186.605"/>
</g>
<!-- Node21 -->
<g id="node21" class="node"><title>Node21</title>
<g id="a_node21"><a xlink:href="Macros_8h.html" target="_top" xlink:title="Macros.h">
<polygon fill="white" stroke="black" points="1006,-168.5 1006,-187.5 1063,-187.5 1063,-168.5 1006,-168.5"/>
<text text-anchor="middle" x="1034.5" y="-175.5" font-family="Helvetica,sans-Serif" font-size="10.00">Macros.h</text>
</a>
</g>
</g>
<!-- Node1&#45;&gt;Node21 -->
<g id="edge23" class="edge"><title>Node1&#45;&gt;Node21</title>
<path fill="none" stroke="midnightblue" d="M673.181,-228.097C747.907,-221.718 876.695,-209.045 995.864,-188.112"/>
<polygon fill="midnightblue" stroke="midnightblue" points="996.659,-191.526 1005.89,-186.327 995.432,-184.634 996.659,-191.526"/>
</g>
<!-- Node22 -->
<g id="node22" class="node"><title>Node22</title>
<g id="a_node22"><a xlink:href="ThreadHelper_8h.html" target="_top" xlink:title="ThreadHelper.h">
<polygon fill="white" stroke="black" points="0,-168.5 0,-187.5 83,-187.5 83,-168.5 0,-168.5"/>
<text text-anchor="middle" x="41.5" y="-175.5" font-family="Helvetica,sans-Serif" font-size="10.00">ThreadHelper.h</text>
</a>
</g>
</g>
<!-- Node1&#45;&gt;Node22 -->
<g id="edge24" class="edge"><title>Node1&#45;&gt;Node22</title>
<path fill="none" stroke="midnightblue" d="M547.984,-229.435C452.185,-223.563 263.132,-210.36 93.3213,-188.139"/>
<polygon fill="midnightblue" stroke="midnightblue" points="93.5696,-184.641 83.197,-186.8 92.6519,-191.581 93.5696,-184.641"/>
</g>
<!-- Node3 -->
<g id="node3" class="node"><title>Node3</title>
<polygon fill="white" stroke="#bfbfbf" points="32,-112.5 32,-131.5 89,-131.5 89,-112.5 32,-112.5"/>
<text text-anchor="middle" x="60.5" y="-119.5" font-family="Helvetica,sans-Serif" font-size="10.00">pthread.h</text>
</g>
<!-- Node2&#45;&gt;Node3 -->
<g id="edge2" class="edge"><title>Node2&#45;&gt;Node3</title>
<path fill="none" stroke="midnightblue" d="M243.116,-168.444C203.895,-158.683 139.923,-142.764 99.0454,-132.592"/>
<polygon fill="midnightblue" stroke="midnightblue" points="99.7287,-129.155 89.1795,-130.137 98.0383,-135.948 99.7287,-129.155"/>
</g>
<!-- Node4 -->
<g id="node4" class="node"><title>Node4</title>
<polygon fill="white" stroke="#bfbfbf" points="133,-112.5 133,-131.5 182,-131.5 182,-112.5 133,-112.5"/>
<text text-anchor="middle" x="157.5" y="-119.5" font-family="Helvetica,sans-Serif" font-size="10.00">stdint.h</text>
</g>
<!-- Node2&#45;&gt;Node4 -->
<g id="edge3" class="edge"><title>Node2&#45;&gt;Node4</title>
<path fill="none" stroke="midnightblue" d="M258.486,-168.444C238.912,-159.636 208.192,-145.812 185.771,-135.722"/>
<polygon fill="midnightblue" stroke="midnightblue" points="186.981,-132.428 176.425,-131.516 184.108,-138.812 186.981,-132.428"/>
</g>
<!-- Node5 -->
<g id="node5" class="node"><title>Node5</title>
<polygon fill="white" stroke="#bfbfbf" points="350,-112.5 350,-131.5 391,-131.5 391,-112.5 350,-112.5"/>
<text text-anchor="middle" x="370.5" y="-119.5" font-family="Helvetica,sans-Serif" font-size="10.00">string</text>
</g>
<!-- Node2&#45;&gt;Node5 -->
<g id="edge4" class="edge"><title>Node2&#45;&gt;Node5</title>
<path fill="none" stroke="midnightblue" d="M292.442,-168.324C307.085,-159.822 329.634,-146.729 346.738,-136.797"/>
<polygon fill="midnightblue" stroke="midnightblue" points="348.705,-139.703 355.595,-131.655 345.19,-133.649 348.705,-139.703"/>
</g>
<!-- Node6 -->
<g id="node6" class="node"><title>Node6</title>
<g id="a_node6"><a xlink:href="SimpleRateCalculator_8h.html" target="_top" xlink:title="SimpleRateCalculator.h">
<polygon fill="white" stroke="black" points="211.5,-112.5 211.5,-131.5 331.5,-131.5 331.5,-112.5 211.5,-112.5"/>
<text text-anchor="middle" x="271.5" y="-119.5" font-family="Helvetica,sans-Serif" font-size="10.00">SimpleRateCalculator.h</text>
</a>
</g>
</g>
<!-- Node2&#45;&gt;Node6 -->
<g id="edge5" class="edge"><title>Node2&#45;&gt;Node6</title>
<path fill="none" stroke="midnightblue" d="M276.509,-168.083C275.714,-160.927 274.571,-150.635 273.577,-141.691"/>
<polygon fill="midnightblue" stroke="midnightblue" points="277.055,-141.303 272.472,-131.751 270.098,-142.076 277.055,-141.303"/>
</g>
<!-- Node7 -->
<g id="node7" class="node"><title>Node7</title>
<polygon fill="white" stroke="#bfbfbf" points="202,-56.5 202,-75.5 243,-75.5 243,-56.5 202,-56.5"/>
<text text-anchor="middle" x="222.5" y="-63.5" font-family="Helvetica,sans-Serif" font-size="10.00">ctime</text>
</g>
<!-- Node6&#45;&gt;Node7 -->
<g id="edge6" class="edge"><title>Node6&#45;&gt;Node7</title>
<path fill="none" stroke="midnightblue" d="M263.409,-112.083C256.345,-104.298 245.912,-92.8015 237.351,-83.3665"/>
<polygon fill="midnightblue" stroke="midnightblue" points="239.753,-80.8047 230.441,-75.7511 234.569,-85.5087 239.753,-80.8047"/>
</g>
<!-- Node8 -->
<g id="node8" class="node"><title>Node8</title>
<g id="a_node8"><a xlink:href="CurrentAndLastValues_8h.html" target="_top" xlink:title="CurrentAndLastValues.h">
<polygon fill="white" stroke="black" points="210,-0.5 210,-19.5 333,-19.5 333,-0.5 210,-0.5"/>
<text text-anchor="middle" x="271.5" y="-7.5" font-family="Helvetica,sans-Serif" font-size="10.00">CurrentAndLastValues.h</text>
</a>
</g>
</g>
<!-- Node6&#45;&gt;Node8 -->
<g id="edge7" class="edge"><title>Node6&#45;&gt;Node8</title>
<path fill="none" stroke="midnightblue" d="M271.5,-112.368C271.5,-94.617 271.5,-53.6664 271.5,-29.5974"/>
<polygon fill="midnightblue" stroke="midnightblue" points="275,-29.5914 271.5,-19.5914 268,-29.5915 275,-29.5914"/>
</g>
<!-- Node9 -->
<g id="node9" class="node"><title>Node9</title>
<g id="a_node9"><a xlink:href="SimpleRateCalculation_8h.html" target="_top" xlink:title="SimpleRateCalculation.h">
<polygon fill="white" stroke="black" points="300,-56.5 300,-75.5 425,-75.5 425,-56.5 300,-56.5"/>
<text text-anchor="middle" x="362.5" y="-63.5" font-family="Helvetica,sans-Serif" font-size="10.00">SimpleRateCalculation.h</text>
</a>
</g>
</g>
<!-- Node6&#45;&gt;Node9 -->
<g id="edge8" class="edge"><title>Node6&#45;&gt;Node9</title>
<path fill="none" stroke="midnightblue" d="M286.121,-112.324C300.449,-103.822 322.513,-90.7288 339.249,-80.7975"/>
<polygon fill="midnightblue" stroke="midnightblue" points="341.102,-83.7677 347.916,-75.6545 337.53,-77.7478 341.102,-83.7677"/>
</g>
<!-- Node9&#45;&gt;Node8 -->
<g id="edge9" class="edge"><title>Node9&#45;&gt;Node8</title>
<path fill="none" stroke="midnightblue" d="M347.879,-56.324C333.551,-47.8215 311.487,-34.7288 294.751,-24.7975"/>
<polygon fill="midnightblue" stroke="midnightblue" points="296.47,-21.7478 286.084,-19.6545 292.898,-27.7677 296.47,-21.7478"/>
</g>
<!-- Node10 -->
<g id="node10" class="node"><title>Node10</title>
<polygon fill="white" stroke="#bfbfbf" points="351.5,-0.5 351.5,-19.5 395.5,-19.5 395.5,-0.5 351.5,-0.5"/>
<text text-anchor="middle" x="373.5" y="-7.5" font-family="Helvetica,sans-Serif" font-size="10.00">time.h</text>
</g>
<!-- Node9&#45;&gt;Node10 -->
<g id="edge10" class="edge"><title>Node9&#45;&gt;Node10</title>
<path fill="none" stroke="midnightblue" d="M364.316,-56.083C365.774,-48.9272 367.871,-38.6353 369.693,-29.6911"/>
<polygon fill="midnightblue" stroke="midnightblue" points="373.151,-30.2485 371.717,-19.7511 366.292,-28.8512 373.151,-30.2485"/>
</g>
<!-- Node18&#45;&gt;Node4 -->
<g id="edge19" class="edge"><title>Node18&#45;&gt;Node4</title>
<path fill="none" stroke="midnightblue" d="M152.491,-168.083C153.286,-160.927 154.429,-150.635 155.423,-141.691"/>
<polygon fill="midnightblue" stroke="midnightblue" points="158.902,-142.076 156.528,-131.751 151.945,-141.303 158.902,-142.076"/>
</g>
<!-- Node19&#45;&gt;Node5 -->
<g id="edge21" class="edge"><title>Node19&#45;&gt;Node5</title>
<path fill="none" stroke="midnightblue" d="M394.711,-168.083C390.742,-160.691 384.975,-149.953 380.065,-140.811"/>
<polygon fill="midnightblue" stroke="midnightblue" points="383.014,-138.905 375.2,-131.751 376.847,-142.217 383.014,-138.905"/>
</g>
<!-- Node20 -->
<g id="node20" class="node"><title>Node20</title>
<polygon fill="white" stroke="#bfbfbf" points="409.5,-112.5 409.5,-131.5 459.5,-131.5 459.5,-112.5 409.5,-112.5"/>
<text text-anchor="middle" x="434.5" y="-119.5" font-family="Helvetica,sans-Serif" font-size="10.00">fstream</text>
</g>
<!-- Node19&#45;&gt;Node20 -->
<g id="edge22" class="edge"><title>Node19&#45;&gt;Node20</title>
<path fill="none" stroke="midnightblue" d="M405.28,-168.083C410.172,-160.534 417.327,-149.495 423.333,-140.23"/>
<polygon fill="midnightblue" stroke="midnightblue" points="426.326,-142.046 428.828,-131.751 420.452,-138.239 426.326,-142.046"/>
</g>
<!-- Node22&#45;&gt;Node3 -->
<g id="edge25" class="edge"><title>Node22&#45;&gt;Node3</title>
<path fill="none" stroke="midnightblue" d="M44.6375,-168.083C47.1829,-160.849 50.8562,-150.409 54.0271,-141.397"/>
<polygon fill="midnightblue" stroke="midnightblue" points="57.4034,-142.346 57.4209,-131.751 50.8002,-140.023 57.4034,-142.346"/>
</g>
</g>
</svg>
