<?xml version="1.0" encoding="UTF-8" standalone="no"?>
<!DOCTYPE svg PUBLIC "-//W3C//DTD SVG 1.1//EN"
 "http://www.w3.org/Graphics/SVG/1.1/DTD/svg11.dtd">
<!-- Generated by graphviz version 2.38.0 (20140413.2041)
 -->
<!-- Title: BandwidthCalculator.cpp Pages: 1 -->
<svg width="1133pt" height="252pt"
 viewBox="0.00 0.00 1133.00 252.00" xmlns="http://www.w3.org/2000/svg" xmlns:xlink="http://www.w3.org/1999/xlink">
<g id="graph0" class="graph" transform="scale(1 1) rotate(0) translate(4 248)">
<title>BandwidthCalculator.cpp</title>
<polygon fill="white" stroke="none" points="-4,4 -4,-248 1129,-248 1129,4 -4,4"/>
<!-- Node1 -->
<g id="node1" class="node"><title>Node1</title>
<polygon fill="#bfbfbf" stroke="black" points="569,-224.5 569,-243.5 694,-243.5 694,-224.5 569,-224.5"/>
<text text-anchor="middle" x="631.5" y="-231.5" font-family="Helvetica,sans-Serif" font-size="10.00">BandwidthCalculator.cpp</text>
</g>
<!-- Node2 -->
<g id="node2" class="node"><title>Node2</title>
<g id="a_node2"><a xlink:href="BandwidthCalculator_8h.html" target="_top" xlink:title="BandwidthCalculator.h">
<polygon fill="white" stroke="black" points="220,-168.5 220,-187.5 335,-187.5 335,-168.5 220,-168.5"/>
<text text-anchor="middle" x="277.5" y="-175.5" font-family="Helvetica,sans-Serif" font-size="10.00">BandwidthCalculator.h</text>
</a>
</g>
</g>
<!-- Node1&#45;&gt;Node2 -->
<g id="edge1" class="edge"><title>Node1&#45;&gt;Node2</title>
<path fill="none" stroke="midnightblue" d="M575.408,-224.444C512.359,-214.826 410.103,-199.228 343.324,-189.041"/>
<polygon fill="midnightblue" stroke="midnightblue" points="343.743,-185.565 333.33,-187.516 342.688,-192.484 343.743,-185.565"/>
</g>
<!-- Node12 -->
<g id="node12" class="node"><title>Node12</title>
<polygon fill="white" stroke="#bfbfbf" points="463.5,-168.5 463.5,-187.5 525.5,-187.5 525.5,-168.5 463.5,-168.5"/>
<text text-anchor="middle" x="494.5" y="-175.5" font-family="Helvetica,sans-Serif" font-size="10.00">arpa/inet.h</text>
</g>
<!-- Node1&#45;&gt;Node12 -->
<g id="edge12" class="edge"><title>Node1&#45;&gt;Node12</title>
<path fill="none" stroke="midnightblue" d="M609.792,-224.444C587.145,-215.517 551.428,-201.439 525.748,-191.317"/>
<polygon fill="midnightblue" stroke="midnightblue" points="526.693,-187.927 516.106,-187.516 524.126,-194.44 526.693,-187.927"/>
</g>
<!-- Node13 -->
<g id="node13" class="node"><title>Node13</title>
<polygon fill="white" stroke="#bfbfbf" points="544,-168.5 544,-187.5 591,-187.5 591,-168.5 544,-168.5"/>
<text text-anchor="middle" x="567.5" y="-175.5" font-family="Helvetica,sans-Serif" font-size="10.00">errno.h</text>
</g>
<!-- Node1&#45;&gt;Node13 -->
<g id="edge13" class="edge"><title>Node1&#45;&gt;Node13</title>
<path fill="none" stroke="midnightblue" d="M621.217,-224.324C611.664,-216.263 597.22,-204.077 585.716,-194.369"/>
<polygon fill="midnightblue" stroke="midnightblue" points="587.87,-191.608 577.97,-187.834 583.356,-196.958 587.87,-191.608"/>
</g>
<!-- Node14 -->
<g id="node14" class="node"><title>Node14</title>
<polygon fill="white" stroke="#bfbfbf" points="609.5,-168.5 609.5,-187.5 653.5,-187.5 653.5,-168.5 609.5,-168.5"/>
<text text-anchor="middle" x="631.5" y="-175.5" font-family="Helvetica,sans-Serif" font-size="10.00">fcntl.h</text>
</g>
<!-- Node1&#45;&gt;Node14 -->
<g id="edge14" class="edge"><title>Node1&#45;&gt;Node14</title>
<path fill="none" stroke="midnightblue" d="M631.5,-224.083C631.5,-217.006 631.5,-206.861 631.5,-197.986"/>
<polygon fill="midnightblue" stroke="midnightblue" points="635,-197.751 631.5,-187.751 628,-197.751 635,-197.751"/>
</g>
<!-- Node15 -->
<g id="node15" class="node"><title>Node15</title>
<polygon fill="white" stroke="#bfbfbf" points="671,-168.5 671,-187.5 760,-187.5 760,-168.5 671,-168.5"/>
<text text-anchor="middle" x="715.5" y="-175.5" font-family="Helvetica,sans-Serif" font-size="10.00">netinet/if_ether.h</text>
</g>
<!-- Node1&#45;&gt;Node15 -->
<g id="edge15" class="edge"><title>Node1&#45;&gt;Node15</title>
<path fill="none" stroke="midnightblue" d="M644.996,-224.324C658.1,-215.9 678.212,-202.971 693.607,-193.074"/>
<polygon fill="midnightblue" stroke="midnightblue" points="695.518,-196.006 702.037,-187.655 691.733,-190.118 695.518,-196.006"/>
</g>
<!-- Node16 -->
<g id="node16" class="node"><title>Node16</title>
<polygon fill="white" stroke="#bfbfbf" points="778,-168.5 778,-187.5 843,-187.5 843,-168.5 778,-168.5"/>
<text text-anchor="middle" x="810.5" y="-175.5" font-family="Helvetica,sans-Serif" font-size="10.00">netinet/ip.h</text>
</g>
<!-- Node1&#45;&gt;Node16 -->
<g id="edge16" class="edge"><title>Node1&#45;&gt;Node16</title>
<path fill="none" stroke="midnightblue" d="M659.863,-224.444C690.238,-215.28 738.61,-200.688 772.316,-190.519"/>
<polygon fill="midnightblue" stroke="midnightblue" points="773.707,-193.756 782.27,-187.516 771.685,-187.054 773.707,-193.756"/>
</g>
<!-- Node17 -->
<g id="node17" class="node"><title>Node17</title>
<polygon fill="white" stroke="#bfbfbf" points="861.5,-168.5 861.5,-187.5 913.5,-187.5 913.5,-168.5 861.5,-168.5"/>
<text text-anchor="middle" x="887.5" y="-175.5" font-family="Helvetica,sans-Serif" font-size="10.00">sstream</text>
</g>
<!-- Node1&#45;&gt;Node17 -->
<g id="edge17" class="edge"><title>Node1&#45;&gt;Node17</title>
<path fill="none" stroke="midnightblue" d="M676.934,-224.449C719.528,-216.276 785.216,-203.272 851.028,-188.254"/>
<polygon fill="midnightblue" stroke="midnightblue" points="852.2,-191.576 861.162,-185.926 850.632,-184.754 852.2,-191.576"/>
</g>
<!-- Node18 -->
<g id="node18" class="node"><title>Node18</title>
<polygon fill="white" stroke="#bfbfbf" points="932,-168.5 932,-187.5 981,-187.5 981,-168.5 932,-168.5"/>
<text text-anchor="middle" x="956.5" y="-175.5" font-family="Helvetica,sans-Serif" font-size="10.00">string.h</text>
</g>
<!-- Node1&#45;&gt;Node18 -->
<g id="edge18" class="edge"><title>Node1&#45;&gt;Node18</title>
<path fill="none" stroke="midnightblue" d="M694.001,-225.273C750.91,-217.798 837.417,-205.34 921.692,-187.976"/>
<polygon fill="midnightblue" stroke="midnightblue" points="922.615,-191.359 931.69,-185.89 921.186,-184.506 922.615,-191.359"/>
</g>
<!-- Node19 -->
<g id="node19" class="node"><title>Node19</title>
<polygon fill="white" stroke="#bfbfbf" points="999,-168.5 999,-187.5 1050,-187.5 1050,-168.5 999,-168.5"/>
<text text-anchor="middle" x="1024.5" y="-175.5" font-family="Helvetica,sans-Serif" font-size="10.00">unistd.h</text>
</g>
<!-- Node1&#45;&gt;Node19 -->
<g id="edge19" class="edge"><title>Node1&#45;&gt;Node19</title>
<path fill="none" stroke="midnightblue" d="M694.162,-227.713C764.017,-221.244 880.452,-208.75 989.146,-188.049"/>
<polygon fill="midnightblue" stroke="midnightblue" points="989.811,-191.485 998.965,-186.152 988.483,-184.612 989.811,-191.485"/>
</g>
<!-- Node20 -->
<g id="node20" class="node"><title>Node20</title>
<g id="a_node20"><a xlink:href="BandwidthValues_8h.html" target="_top" xlink:title="BandwidthValues.h">
<polygon fill="white" stroke="black" points="0,-168.5 0,-187.5 101,-187.5 101,-168.5 0,-168.5"/>
<text text-anchor="middle" x="50.5" y="-175.5" font-family="Helvetica,sans-Serif" font-size="10.00">BandwidthValues.h</text>
</a>
</g>
</g>
<!-- Node1&#45;&gt;Node20 -->
<g id="edge20" class="edge"><title>Node1&#45;&gt;Node20</title>
<path fill="none" stroke="midnightblue" d="M568.69,-228.918C472.378,-222.363 282.207,-208.26 110.952,-188.106"/>
<polygon fill="midnightblue" stroke="midnightblue" points="111.344,-184.628 101.001,-186.926 110.519,-191.579 111.344,-184.628"/>
</g>
<!-- Node21 -->
<g id="node21" class="node"><title>Node21</title>
<g id="a_node21"><a xlink:href="LoggingHandler_8h.html" target="_top" xlink:title="LoggingHandler.h">
<polygon fill="white" stroke="black" points="353.5,-168.5 353.5,-187.5 445.5,-187.5 445.5,-168.5 353.5,-168.5"/>
<text text-anchor="middle" x="399.5" y="-175.5" font-family="Helvetica,sans-Serif" font-size="10.00">LoggingHandler.h</text>
</a>
</g>
</g>
<!-- Node1&#45;&gt;Node21 -->
<g id="edge22" class="edge"><title>Node1&#45;&gt;Node21</title>
<path fill="none" stroke="midnightblue" d="M594.739,-224.444C554.437,-215.063 489.691,-199.993 445.915,-189.804"/>
<polygon fill="midnightblue" stroke="midnightblue" points="446.622,-186.375 436.089,-187.516 445.035,-193.192 446.622,-186.375"/>
</g>
<!-- Node23 -->
<g id="node23" class="node"><title>Node23</title>
<g id="a_node23"><a xlink:href="Macros_8h.html" target="_top" xlink:title="Macros.h">
<polygon fill="white" stroke="black" points="1068,-168.5 1068,-187.5 1125,-187.5 1125,-168.5 1068,-168.5"/>
<text text-anchor="middle" x="1096.5" y="-175.5" font-family="Helvetica,sans-Serif" font-size="10.00">Macros.h</text>
</a>
</g>
</g>
<!-- Node1&#45;&gt;Node23 -->
<g id="edge25" class="edge"><title>Node1&#45;&gt;Node23</title>
<path fill="none" stroke="midnightblue" d="M694.238,-229.044C775.926,-223.308 923.256,-210.96 1057.82,-188.095"/>
<polygon fill="midnightblue" stroke="midnightblue" points="1058.64,-191.506 1067.9,-186.358 1057.45,-184.607 1058.64,-191.506"/>
</g>
<!-- Node24 -->
<g id="node24" class="node"><title>Node24</title>
<g id="a_node24"><a xlink:href="ThreadHelper_8h.html" target="_top" xlink:title="ThreadHelper.h">
<polygon fill="white" stroke="black" points="119,-168.5 119,-187.5 202,-187.5 202,-168.5 119,-168.5"/>
<text text-anchor="middle" x="160.5" y="-175.5" font-family="Helvetica,sans-Serif" font-size="10.00">ThreadHelper.h</text>
</a>
</g>
</g>
<!-- Node1&#45;&gt;Node24 -->
<g id="edge26" class="edge"><title>Node1&#45;&gt;Node24</title>
<path fill="none" stroke="midnightblue" d="M568.913,-227.721C488.54,-220.627 344.538,-206.857 212.124,-188.151"/>
<polygon fill="midnightblue" stroke="midnightblue" points="212.6,-184.684 202.206,-186.737 211.612,-191.614 212.6,-184.684"/>
</g>
<!-- Node3 -->
<g id="node3" class="node"><title>Node3</title>
<polygon fill="white" stroke="#bfbfbf" points="50.5,-112.5 50.5,-131.5 96.5,-131.5 96.5,-112.5 50.5,-112.5"/>
<text text-anchor="middle" x="73.5" y="-119.5" font-family="Helvetica,sans-Serif" font-size="10.00">atomic</text>
</g>
<!-- Node2&#45;&gt;Node3 -->
<g id="edge2" class="edge"><title>Node2&#45;&gt;Node3</title>
<path fill="none" stroke="midnightblue" d="M244.157,-168.469C211.435,-160.054 159.869,-146.681 106.237,-132.165"/>
<polygon fill="midnightblue" stroke="midnightblue" points="107.126,-128.78 96.5581,-129.539 105.293,-135.536 107.126,-128.78"/>
</g>
<!-- Node4 -->
<g id="node4" class="node"><title>Node4</title>
<polygon fill="white" stroke="#bfbfbf" points="115,-112.5 115,-131.5 172,-131.5 172,-112.5 115,-112.5"/>
<text text-anchor="middle" x="143.5" y="-119.5" font-family="Helvetica,sans-Serif" font-size="10.00">pthread.h</text>
</g>
<!-- Node2&#45;&gt;Node4 -->
<g id="edge3" class="edge"><title>Node2&#45;&gt;Node4</title>
<path fill="none" stroke="midnightblue" d="M256.267,-168.444C234.116,-159.517 199.181,-145.439 174.064,-135.317"/>
<polygon fill="midnightblue" stroke="midnightblue" points="175.217,-132.008 164.633,-131.516 172.6,-138.501 175.217,-132.008"/>
</g>
<!-- Node5 -->
<g id="node5" class="node"><title>Node5</title>
<polygon fill="white" stroke="#bfbfbf" points="190,-112.5 190,-131.5 239,-131.5 239,-112.5 190,-112.5"/>
<text text-anchor="middle" x="214.5" y="-119.5" font-family="Helvetica,sans-Serif" font-size="10.00">stdint.h</text>
</g>
<!-- Node2&#45;&gt;Node5 -->
<g id="edge4" class="edge"><title>Node2&#45;&gt;Node5</title>
<path fill="none" stroke="midnightblue" d="M267.378,-168.324C257.974,-160.263 243.756,-148.077 232.431,-138.369"/>
<polygon fill="midnightblue" stroke="midnightblue" points="234.677,-135.684 224.806,-131.834 230.121,-140.999 234.677,-135.684"/>
</g>
<!-- Node6 -->
<g id="node6" class="node"><title>Node6</title>
<polygon fill="white" stroke="#bfbfbf" points="395,-112.5 395,-131.5 436,-131.5 436,-112.5 395,-112.5"/>
<text text-anchor="middle" x="415.5" y="-119.5" font-family="Helvetica,sans-Serif" font-size="10.00">string</text>
</g>
<!-- Node2&#45;&gt;Node6 -->
<g id="edge5" class="edge"><title>Node2&#45;&gt;Node6</title>
<path fill="none" stroke="midnightblue" d="M299.367,-168.444C322.549,-159.372 359.329,-144.98 385.276,-134.827"/>
<polygon fill="midnightblue" stroke="midnightblue" points="386.602,-138.066 394.639,-131.163 384.051,-131.548 386.602,-138.066"/>
</g>
<!-- Node7 -->
<g id="node7" class="node"><title>Node7</title>
<g id="a_node7"><a xlink:href="SimpleRateCalculator_8h.html" target="_top" xlink:title="SimpleRateCalculator.h">
<polygon fill="white" stroke="black" points="256.5,-112.5 256.5,-131.5 376.5,-131.5 376.5,-112.5 256.5,-112.5"/>
<text text-anchor="middle" x="316.5" y="-119.5" font-family="Helvetica,sans-Serif" font-size="10.00">SimpleRateCalculator.h</text>
</a>
</g>
</g>
<!-- Node2&#45;&gt;Node7 -->
<g id="edge6" class="edge"><title>Node2&#45;&gt;Node7</title>
<path fill="none" stroke="midnightblue" d="M283.94,-168.083C289.449,-160.455 297.531,-149.264 304.265,-139.941"/>
<polygon fill="midnightblue" stroke="midnightblue" points="307.162,-141.907 310.18,-131.751 301.487,-137.809 307.162,-141.907"/>
</g>
<!-- Node8 -->
<g id="node8" class="node"><title>Node8</title>
<polygon fill="white" stroke="#bfbfbf" points="247,-56.5 247,-75.5 288,-75.5 288,-56.5 247,-56.5"/>
<text text-anchor="middle" x="267.5" y="-63.5" font-family="Helvetica,sans-Serif" font-size="10.00">ctime</text>
</g>
<!-- Node7&#45;&gt;Node8 -->
<g id="edge7" class="edge"><title>Node7&#45;&gt;Node8</title>
<path fill="none" stroke="midnightblue" d="M308.409,-112.083C301.345,-104.298 290.912,-92.8015 282.351,-83.3665"/>
<polygon fill="midnightblue" stroke="midnightblue" points="284.753,-80.8047 275.441,-75.7511 279.569,-85.5087 284.753,-80.8047"/>
</g>
<!-- Node9 -->
<g id="node9" class="node"><title>Node9</title>
<g id="a_node9"><a xlink:href="CurrentAndLastValues_8h.html" target="_top" xlink:title="CurrentAndLastValues.h">
<polygon fill="white" stroke="black" points="255,-0.5 255,-19.5 378,-19.5 378,-0.5 255,-0.5"/>
<text text-anchor="middle" x="316.5" y="-7.5" font-family="Helvetica,sans-Serif" font-size="10.00">CurrentAndLastValues.h</text>
</a>
</g>
</g>
<!-- Node7&#45;&gt;Node9 -->
<g id="edge8" class="edge"><title>Node7&#45;&gt;Node9</title>
<path fill="none" stroke="midnightblue" d="M316.5,-112.368C316.5,-94.617 316.5,-53.6664 316.5,-29.5974"/>
<polygon fill="midnightblue" stroke="midnightblue" points="320,-29.5914 316.5,-19.5914 313,-29.5915 320,-29.5914"/>
</g>
<!-- Node10 -->
<g id="node10" class="node"><title>Node10</title>
<g id="a_node10"><a xlink:href="SimpleRateCalculation_8h.html" target="_top" xlink:title="SimpleRateCalculation.h">
<polygon fill="white" stroke="black" points="345,-56.5 345,-75.5 470,-75.5 470,-56.5 345,-56.5"/>
<text text-anchor="middle" x="407.5" y="-63.5" font-family="Helvetica,sans-Serif" font-size="10.00">SimpleRateCalculation.h</text>
</a>
</g>
</g>
<!-- Node7&#45;&gt;Node10 -->
<g id="edge9" class="edge"><title>Node7&#45;&gt;Node10</title>
<path fill="none" stroke="midnightblue" d="M331.121,-112.324C345.449,-103.822 367.513,-90.7288 384.249,-80.7975"/>
<polygon fill="midnightblue" stroke="midnightblue" points="386.102,-83.7677 392.916,-75.6545 382.53,-77.7478 386.102,-83.7677"/>
</g>
<!-- Node10&#45;&gt;Node9 -->
<g id="edge10" class="edge"><title>Node10&#45;&gt;Node9</title>
<path fill="none" stroke="midnightblue" d="M392.879,-56.324C378.551,-47.8215 356.487,-34.7288 339.751,-24.7975"/>
<polygon fill="midnightblue" stroke="midnightblue" points="341.47,-21.7478 331.084,-19.6545 337.898,-27.7677 341.47,-21.7478"/>
</g>
<!-- Node11 -->
<g id="node11" class="node"><title>Node11</title>
<polygon fill="white" stroke="#bfbfbf" points="396.5,-0.5 396.5,-19.5 440.5,-19.5 440.5,-0.5 396.5,-0.5"/>
<text text-anchor="middle" x="418.5" y="-7.5" font-family="Helvetica,sans-Serif" font-size="10.00">time.h</text>
</g>
<!-- Node10&#45;&gt;Node11 -->
<g id="edge11" class="edge"><title>Node10&#45;&gt;Node11</title>
<path fill="none" stroke="midnightblue" d="M409.316,-56.083C410.774,-48.9272 412.871,-38.6353 414.693,-29.6911"/>
<polygon fill="midnightblue" stroke="midnightblue" points="418.151,-30.2485 416.717,-19.7511 411.292,-28.8512 418.151,-30.2485"/>
</g>
<!-- Node20&#45;&gt;Node3 -->
<g id="edge21" class="edge"><title>Node20&#45;&gt;Node3</title>
<path fill="none" stroke="midnightblue" d="M54.298,-168.083C57.4128,-160.77 61.9228,-150.181 65.7893,-141.103"/>
<polygon fill="midnightblue" stroke="midnightblue" points="69.0741,-142.323 69.7727,-131.751 62.6339,-139.58 69.0741,-142.323"/>
</g>
<!-- Node21&#45;&gt;Node6 -->
<g id="edge23" class="edge"><title>Node21&#45;&gt;Node6</title>
<path fill="none" stroke="midnightblue" d="M402.142,-168.083C404.286,-160.849 407.379,-150.409 410.049,-141.397"/>
<polygon fill="midnightblue" stroke="midnightblue" points="413.422,-142.333 412.907,-131.751 406.71,-140.345 413.422,-142.333"/>
</g>
<!-- Node22 -->
<g id="node22" class="node"><title>Node22</title>
<polygon fill="white" stroke="#bfbfbf" points="454.5,-112.5 454.5,-131.5 504.5,-131.5 504.5,-112.5 454.5,-112.5"/>
<text text-anchor="middle" x="479.5" y="-119.5" font-family="Helvetica,sans-Serif" font-size="10.00">fstream</text>
</g>
<!-- Node21&#45;&gt;Node22 -->
<g id="edge24" class="edge"><title>Node21&#45;&gt;Node22</title>
<path fill="none" stroke="midnightblue" d="M412.353,-168.324C424.716,-159.979 443.63,-147.212 458.237,-137.352"/>
<polygon fill="midnightblue" stroke="midnightblue" points="460.348,-140.15 466.679,-131.655 456.432,-134.348 460.348,-140.15"/>
</g>
<!-- Node24&#45;&gt;Node3 -->
<g id="edge27" class="edge"><title>Node24&#45;&gt;Node3</title>
<path fill="none" stroke="midnightblue" d="M146.522,-168.324C132.95,-159.9 112.12,-146.971 96.175,-137.074"/>
<polygon fill="midnightblue" stroke="midnightblue" points="97.7856,-133.954 87.4434,-131.655 94.094,-139.902 97.7856,-133.954"/>
</g>
<!-- Node24&#45;&gt;Node4 -->
<g id="edge28" class="edge"><title>Node24&#45;&gt;Node4</title>
<path fill="none" stroke="midnightblue" d="M157.693,-168.083C155.415,-160.849 152.129,-150.409 149.292,-141.397"/>
<polygon fill="midnightblue" stroke="midnightblue" points="152.596,-140.239 146.255,-131.751 145.919,-142.341 152.596,-140.239"/>
</g>
</g>
</svg>
