<?xml version="1.0" encoding="UTF-8" standalone="no"?>
<!DOCTYPE svg PUBLIC "-//W3C//DTD SVG 1.1//EN"
 "http://www.w3.org/Graphics/SVG/1.1/DTD/svg11.dtd">
<!-- Generated by graphviz version 2.38.0 (20140413.2041)
 -->
<!-- Title: BandwidthCalculator.cpp Pages: 1 -->
<svg width="2128pt" height="252pt"
 viewBox="0.00 0.00 2127.50 252.00" xmlns="http://www.w3.org/2000/svg" xmlns:xlink="http://www.w3.org/1999/xlink">
<g id="graph0" class="graph" transform="scale(1 1) rotate(0) translate(4 248)">
<title>BandwidthCalculator.cpp</title>
<polygon fill="white" stroke="none" points="-4,4 -4,-248 2123.5,-248 2123.5,4 -4,4"/>
<!-- Node1 -->
<g id="node1" class="node"><title>Node1</title>
<polygon fill="#bfbfbf" stroke="black" points="748,-224.5 748,-243.5 873,-243.5 873,-224.5 748,-224.5"/>
<text text-anchor="middle" x="810.5" y="-231.5" font-family="Helvetica,sans-Serif" font-size="10.00">BandwidthCalculator.cpp</text>
</g>
<!-- Node2 -->
<g id="node2" class="node"><title>Node2</title>
<g id="a_node2"><a xlink:href="BandwidthCalculator_8h.html" target="_top" xlink:title="BandwidthCalculator.h">
<polygon fill="white" stroke="black" points="220,-168.5 220,-187.5 335,-187.5 335,-168.5 220,-168.5"/>
<text text-anchor="middle" x="277.5" y="-175.5" font-family="Helvetica,sans-Serif" font-size="10.00">BandwidthCalculator.h</text>
</a>
</g>
</g>
<!-- Node1&#45;&gt;Node2 -->
<g id="edge1" class="edge"><title>Node1&#45;&gt;Node2</title>
<path fill="none" stroke="midnightblue" d="M747.861,-227.698C660.335,-220.123 496.209,-205.317 345.587,-188.085"/>
<polygon fill="midnightblue" stroke="midnightblue" points="345.561,-184.559 335.226,-186.893 344.761,-191.513 345.561,-184.559"/>
</g>
<!-- Node12 -->
<g id="node12" class="node"><title>Node12</title>
<polygon fill="white" stroke="#bfbfbf" points="463.5,-168.5 463.5,-187.5 525.5,-187.5 525.5,-168.5 463.5,-168.5"/>
<text text-anchor="middle" x="494.5" y="-175.5" font-family="Helvetica,sans-Serif" font-size="10.00">arpa/inet.h</text>
</g>
<!-- Node1&#45;&gt;Node12 -->
<g id="edge12" class="edge"><title>Node1&#45;&gt;Node12</title>
<path fill="none" stroke="midnightblue" d="M751.901,-224.483C698.204,-216.444 616.271,-203.59 536.171,-188.236"/>
<polygon fill="midnightblue" stroke="midnightblue" points="536.388,-184.713 525.906,-186.252 535.06,-191.586 536.388,-184.713"/>
</g>
<!-- Node13 -->
<g id="node13" class="node"><title>Node13</title>
<polygon fill="white" stroke="#bfbfbf" points="544,-168.5 544,-187.5 591,-187.5 591,-168.5 544,-168.5"/>
<text text-anchor="middle" x="567.5" y="-175.5" font-family="Helvetica,sans-Serif" font-size="10.00">errno.h</text>
</g>
<!-- Node1&#45;&gt;Node13 -->
<g id="edge13" class="edge"><title>Node1&#45;&gt;Node13</title>
<path fill="none" stroke="midnightblue" d="M767.307,-224.47C726.819,-216.311 664.39,-203.318 601.017,-188.02"/>
<polygon fill="midnightblue" stroke="midnightblue" points="601.796,-184.608 591.252,-185.646 600.143,-191.409 601.796,-184.608"/>
</g>
<!-- Node14 -->
<g id="node14" class="node"><title>Node14</title>
<polygon fill="white" stroke="#bfbfbf" points="609.5,-168.5 609.5,-187.5 653.5,-187.5 653.5,-168.5 609.5,-168.5"/>
<text text-anchor="middle" x="631.5" y="-175.5" font-family="Helvetica,sans-Serif" font-size="10.00">fcntl.h</text>
</g>
<!-- Node1&#45;&gt;Node14 -->
<g id="edge14" class="edge"><title>Node1&#45;&gt;Node14</title>
<path fill="none" stroke="midnightblue" d="M782.137,-224.444C749.796,-214.687 697.055,-198.776 663.334,-188.604"/>
<polygon fill="midnightblue" stroke="midnightblue" points="664.108,-185.181 653.523,-185.644 662.086,-191.883 664.108,-185.181"/>
</g>
<!-- Node15 -->
<g id="node15" class="node"><title>Node15</title>
<polygon fill="white" stroke="#bfbfbf" points="671,-168.5 671,-187.5 760,-187.5 760,-168.5 671,-168.5"/>
<text text-anchor="middle" x="715.5" y="-175.5" font-family="Helvetica,sans-Serif" font-size="10.00">netinet/if_ether.h</text>
</g>
<!-- Node1&#45;&gt;Node15 -->
<g id="edge15" class="edge"><title>Node1&#45;&gt;Node15</title>
<path fill="none" stroke="midnightblue" d="M795.237,-224.324C780.279,-215.822 757.245,-202.729 739.773,-192.797"/>
<polygon fill="midnightblue" stroke="midnightblue" points="741.149,-189.553 730.726,-187.655 737.69,-195.639 741.149,-189.553"/>
</g>
<!-- Node16 -->
<g id="node16" class="node"><title>Node16</title>
<polygon fill="white" stroke="#bfbfbf" points="778,-168.5 778,-187.5 843,-187.5 843,-168.5 778,-168.5"/>
<text text-anchor="middle" x="810.5" y="-175.5" font-family="Helvetica,sans-Serif" font-size="10.00">netinet/ip.h</text>
</g>
<!-- Node1&#45;&gt;Node16 -->
<g id="edge16" class="edge"><title>Node1&#45;&gt;Node16</title>
<path fill="none" stroke="midnightblue" d="M810.5,-224.083C810.5,-217.006 810.5,-206.861 810.5,-197.986"/>
<polygon fill="midnightblue" stroke="midnightblue" points="814,-197.751 810.5,-187.751 807,-197.751 814,-197.751"/>
</g>
<!-- Node17 -->
<g id="node17" class="node"><title>Node17</title>
<polygon fill="white" stroke="#bfbfbf" points="861.5,-168.5 861.5,-187.5 913.5,-187.5 913.5,-168.5 861.5,-168.5"/>
<text text-anchor="middle" x="887.5" y="-175.5" font-family="Helvetica,sans-Serif" font-size="10.00">sstream</text>
</g>
<!-- Node1&#45;&gt;Node17 -->
<g id="edge17" class="edge"><title>Node1&#45;&gt;Node17</title>
<path fill="none" stroke="midnightblue" d="M822.871,-224.324C834.658,-216.058 852.632,-203.453 866.636,-193.632"/>
<polygon fill="midnightblue" stroke="midnightblue" points="868.982,-196.262 875.159,-187.655 864.962,-190.531 868.982,-196.262"/>
</g>
<!-- Node18 -->
<g id="node18" class="node"><title>Node18</title>
<polygon fill="white" stroke="#bfbfbf" points="932,-168.5 932,-187.5 981,-187.5 981,-168.5 932,-168.5"/>
<text text-anchor="middle" x="956.5" y="-175.5" font-family="Helvetica,sans-Serif" font-size="10.00">string.h</text>
</g>
<!-- Node1&#45;&gt;Node18 -->
<g id="edge18" class="edge"><title>Node1&#45;&gt;Node18</title>
<path fill="none" stroke="midnightblue" d="M833.634,-224.444C857.982,-215.438 896.507,-201.189 923.923,-191.049"/>
<polygon fill="midnightblue" stroke="midnightblue" points="925.309,-194.268 933.474,-187.516 922.881,-187.703 925.309,-194.268"/>
</g>
<!-- Node19 -->
<g id="node19" class="node"><title>Node19</title>
<polygon fill="white" stroke="#bfbfbf" points="999,-168.5 999,-187.5 1050,-187.5 1050,-168.5 999,-168.5"/>
<text text-anchor="middle" x="1024.5" y="-175.5" font-family="Helvetica,sans-Serif" font-size="10.00">unistd.h</text>
</g>
<!-- Node1&#45;&gt;Node19 -->
<g id="edge19" class="edge"><title>Node1&#45;&gt;Node19</title>
<path fill="none" stroke="midnightblue" d="M844.829,-224.428C878.902,-215.907 932.879,-202.375 989.111,-188.089"/>
<polygon fill="midnightblue" stroke="midnightblue" points="990.061,-191.459 998.89,-185.602 988.336,-184.674 990.061,-191.459"/>
</g>
<!-- Node20 -->
<g id="node20" class="node"><title>Node20</title>
<g id="a_node20"><a xlink:href="BandwidthValues_8h.html" target="_top" xlink:title="BandwidthValues.h">
<polygon fill="white" stroke="black" points="0,-168.5 0,-187.5 101,-187.5 101,-168.5 0,-168.5"/>
<text text-anchor="middle" x="50.5" y="-175.5" font-family="Helvetica,sans-Serif" font-size="10.00">BandwidthValues.h</text>
</a>
</g>
</g>
<!-- Node1&#45;&gt;Node20 -->
<g id="edge20" class="edge"><title>Node1&#45;&gt;Node20</title>
<path fill="none" stroke="midnightblue" d="M747.98,-230.819C626.955,-226.197 352.062,-213.754 111.304,-188.113"/>
<polygon fill="midnightblue" stroke="midnightblue" points="111.629,-184.628 101.312,-187.039 110.881,-191.588 111.629,-184.628"/>
</g>
<!-- Node21 -->
<g id="node21" class="node"><title>Node21</title>
<g id="a_node21"><a xlink:href="LoggingHandler_8h.html" target="_top" xlink:title="LoggingHandler.h">
<polygon fill="white" stroke="black" points="353.5,-168.5 353.5,-187.5 445.5,-187.5 445.5,-168.5 353.5,-168.5"/>
<text text-anchor="middle" x="399.5" y="-175.5" font-family="Helvetica,sans-Serif" font-size="10.00">LoggingHandler.h</text>
</a>
</g>
</g>
<!-- Node1&#45;&gt;Node21 -->
<g id="edge22" class="edge"><title>Node1&#45;&gt;Node21</title>
<path fill="none" stroke="midnightblue" d="M747.706,-225.764C678.663,-217.65 564.19,-203.734 455.824,-188.149"/>
<polygon fill="midnightblue" stroke="midnightblue" points="456.093,-184.651 445.695,-186.684 455.091,-191.579 456.093,-184.651"/>
</g>
<!-- Node23 -->
<g id="node23" class="node"><title>Node23</title>
<g id="a_node23"><a xlink:href="Macros_8h.html" target="_top" xlink:title="Macros.h">
<polygon fill="white" stroke="black" points="1068,-168.5 1068,-187.5 1125,-187.5 1125,-168.5 1068,-168.5"/>
<text text-anchor="middle" x="1096.5" y="-175.5" font-family="Helvetica,sans-Serif" font-size="10.00">Macros.h</text>
</a>
</g>
</g>
<!-- Node1&#45;&gt;Node23 -->
<g id="edge25" class="edge"><title>Node1&#45;&gt;Node23</title>
<path fill="none" stroke="midnightblue" d="M861.951,-224.483C910.057,-216.336 984.121,-203.322 1057.96,-188.02"/>
<polygon fill="midnightblue" stroke="midnightblue" points="1058.83,-191.414 1067.9,-185.945 1057.4,-184.561 1058.83,-191.414"/>
</g>
<!-- Node24 -->
<g id="node24" class="node"><title>Node24</title>
<g id="a_node24"><a xlink:href="ThreadHelper_8h.html" target="_top" xlink:title="ThreadHelper.h">
<polygon fill="white" stroke="black" points="119,-168.5 119,-187.5 202,-187.5 202,-168.5 119,-168.5"/>
<text text-anchor="middle" x="160.5" y="-175.5" font-family="Helvetica,sans-Serif" font-size="10.00">ThreadHelper.h</text>
</a>
</g>
</g>
<!-- Node1&#45;&gt;Node24 -->
<g id="edge26" class="edge"><title>Node1&#45;&gt;Node24</title>
<path fill="none" stroke="midnightblue" d="M747.661,-230.425C640.014,-225.545 413.264,-213.223 212.345,-188.119"/>
<polygon fill="midnightblue" stroke="midnightblue" points="212.552,-184.618 202.192,-186.837 211.675,-191.562 212.552,-184.618"/>
</g>
<!-- Node25 -->
<g id="node25" class="node"><title>Node25</title>
<g id="a_node25"><a xlink:href="gen__stats_8h.html" target="_top" xlink:title="gen_stats.h">
<polygon fill="white" stroke="black" points="1143.5,-168.5 1143.5,-187.5 1211.5,-187.5 1211.5,-168.5 1143.5,-168.5"/>
<text text-anchor="middle" x="1177.5" y="-175.5" font-family="Helvetica,sans-Serif" font-size="10.00">gen_stats.h</text>
</a>
</g>
</g>
<!-- Node1&#45;&gt;Node25 -->
<g id="edge29" class="edge"><title>Node1&#45;&gt;Node25</title>
<path fill="none" stroke="midnightblue" d="M873.206,-225.459C938.419,-217.337 1043.38,-203.478 1133.5,-188 1133.6,-187.983 1133.7,-187.965 1133.8,-187.948"/>
<polygon fill="midnightblue" stroke="midnightblue" points="1134.22,-191.429 1143.43,-186.191 1132.96,-184.543 1134.22,-191.429"/>
</g>
<!-- Node27 -->
<g id="node27" class="node"><title>Node27</title>
<g id="a_node27"><a xlink:href="rtnetlink_8h.html" target="_top" xlink:title="rtnetlink.h">
<polygon fill="white" stroke="black" points="1230,-168.5 1230,-187.5 1289,-187.5 1289,-168.5 1230,-168.5"/>
<text text-anchor="middle" x="1259.5" y="-175.5" font-family="Helvetica,sans-Serif" font-size="10.00">rtnetlink.h</text>
</a>
</g>
</g>
<!-- Node1&#45;&gt;Node27 -->
<g id="edge31" class="edge"><title>Node1&#45;&gt;Node27</title>
<path fill="none" stroke="midnightblue" d="M873.332,-228.411C952.013,-222.15 1091.08,-209.391 1219.73,-187.936"/>
<polygon fill="midnightblue" stroke="midnightblue" points="1220.48,-191.358 1229.76,-186.242 1219.32,-184.456 1220.48,-191.358"/>
</g>
<!-- Node32 -->
<g id="node32" class="node"><title>Node32</title>
<g id="a_node32"><a xlink:href="libnetlink_8h.html" target="_top" xlink:title="libnetlink.h">
<polygon fill="white" stroke="black" points="1314,-168.5 1314,-187.5 1377,-187.5 1377,-168.5 1314,-168.5"/>
<text text-anchor="middle" x="1345.5" y="-175.5" font-family="Helvetica,sans-Serif" font-size="10.00">libnetlink.h</text>
</a>
</g>
</g>
<!-- Node1&#45;&gt;Node32 -->
<g id="edge37" class="edge"><title>Node1&#45;&gt;Node32</title>
<path fill="none" stroke="midnightblue" d="M873.371,-229.071C966.362,-222.835 1145.92,-209.167 1297.5,-188 1299.57,-187.711 1301.68,-187.395 1303.81,-187.059"/>
<polygon fill="midnightblue" stroke="midnightblue" points="1304.53,-190.487 1313.81,-185.373 1303.37,-183.584 1304.53,-190.487"/>
</g>
<!-- Node35 -->
<g id="node35" class="node"><title>Node35</title>
<g id="a_node35"><a xlink:href="param_8h.html" target="_top" xlink:title="param.h">
<polygon fill="white" stroke="black" points="1835.5,-168.5 1835.5,-187.5 1887.5,-187.5 1887.5,-168.5 1835.5,-168.5"/>
<text text-anchor="middle" x="1861.5" y="-175.5" font-family="Helvetica,sans-Serif" font-size="10.00">param.h</text>
</a>
</g>
</g>
<!-- Node1&#45;&gt;Node35 -->
<g id="edge44" class="edge"><title>Node1&#45;&gt;Node35</title>
<path fill="none" stroke="midnightblue" d="M873.097,-229.784C1069.67,-219.684 1670.73,-188.801 1825.07,-180.872"/>
<polygon fill="midnightblue" stroke="midnightblue" points="1825.59,-184.35 1835.4,-180.341 1825.23,-177.359 1825.59,-184.35"/>
</g>
<!-- Node3 -->
<g id="node3" class="node"><title>Node3</title>
<polygon fill="white" stroke="#bfbfbf" points="50.5,-112.5 50.5,-131.5 96.5,-131.5 96.5,-112.5 50.5,-112.5"/>
<text text-anchor="middle" x="73.5" y="-119.5" font-family="Helvetica,sans-Serif" font-size="10.00">atomic</text>
</g>
<!-- Node2&#45;&gt;Node3 -->
<g id="edge2" class="edge"><title>Node2&#45;&gt;Node3</title>
<path fill="none" stroke="midnightblue" d="M244.157,-168.469C211.435,-160.054 159.869,-146.681 106.237,-132.165"/>
<polygon fill="midnightblue" stroke="midnightblue" points="107.126,-128.78 96.5581,-129.539 105.293,-135.536 107.126,-128.78"/>
</g>
<!-- Node4 -->
<g id="node4" class="node"><title>Node4</title>
<polygon fill="white" stroke="#bfbfbf" points="115,-112.5 115,-131.5 172,-131.5 172,-112.5 115,-112.5"/>
<text text-anchor="middle" x="143.5" y="-119.5" font-family="Helvetica,sans-Serif" font-size="10.00">pthread.h</text>
</g>
<!-- Node2&#45;&gt;Node4 -->
<g id="edge3" class="edge"><title>Node2&#45;&gt;Node4</title>
<path fill="none" stroke="midnightblue" d="M256.267,-168.444C234.116,-159.517 199.181,-145.439 174.064,-135.317"/>
<polygon fill="midnightblue" stroke="midnightblue" points="175.217,-132.008 164.633,-131.516 172.6,-138.501 175.217,-132.008"/>
</g>
<!-- Node5 -->
<g id="node5" class="node"><title>Node5</title>
<polygon fill="white" stroke="#bfbfbf" points="328,-112.5 328,-131.5 377,-131.5 377,-112.5 328,-112.5"/>
<text text-anchor="middle" x="352.5" y="-119.5" font-family="Helvetica,sans-Serif" font-size="10.00">stdint.h</text>
</g>
<!-- Node2&#45;&gt;Node5 -->
<g id="edge4" class="edge"><title>Node2&#45;&gt;Node5</title>
<path fill="none" stroke="midnightblue" d="M289.55,-168.324C300.963,-160.107 318.331,-147.602 331.935,-137.807"/>
<polygon fill="midnightblue" stroke="midnightblue" points="334.16,-140.517 340.231,-131.834 330.07,-134.837 334.16,-140.517"/>
</g>
<!-- Node6 -->
<g id="node6" class="node"><title>Node6</title>
<polygon fill="white" stroke="#bfbfbf" points="395,-112.5 395,-131.5 436,-131.5 436,-112.5 395,-112.5"/>
<text text-anchor="middle" x="415.5" y="-119.5" font-family="Helvetica,sans-Serif" font-size="10.00">string</text>
</g>
<!-- Node2&#45;&gt;Node6 -->
<g id="edge5" class="edge"><title>Node2&#45;&gt;Node6</title>
<path fill="none" stroke="midnightblue" d="M299.367,-168.444C322.549,-159.372 359.329,-144.98 385.276,-134.827"/>
<polygon fill="midnightblue" stroke="midnightblue" points="386.602,-138.066 394.639,-131.163 384.051,-131.548 386.602,-138.066"/>
</g>
<!-- Node7 -->
<g id="node7" class="node"><title>Node7</title>
<g id="a_node7"><a xlink:href="SimpleRateCalculator_8h.html" target="_top" xlink:title="SimpleRateCalculator.h">
<polygon fill="white" stroke="black" points="190.5,-112.5 190.5,-131.5 310.5,-131.5 310.5,-112.5 190.5,-112.5"/>
<text text-anchor="middle" x="250.5" y="-119.5" font-family="Helvetica,sans-Serif" font-size="10.00">SimpleRateCalculator.h</text>
</a>
</g>
</g>
<!-- Node2&#45;&gt;Node7 -->
<g id="edge6" class="edge"><title>Node2&#45;&gt;Node7</title>
<path fill="none" stroke="midnightblue" d="M273.041,-168.083C269.346,-160.691 263.977,-149.953 259.406,-140.811"/>
<polygon fill="midnightblue" stroke="midnightblue" points="262.478,-139.13 254.876,-131.751 256.217,-142.261 262.478,-139.13"/>
</g>
<!-- Node8 -->
<g id="node8" class="node"><title>Node8</title>
<polygon fill="white" stroke="#bfbfbf" points="181,-56.5 181,-75.5 222,-75.5 222,-56.5 181,-56.5"/>
<text text-anchor="middle" x="201.5" y="-63.5" font-family="Helvetica,sans-Serif" font-size="10.00">ctime</text>
</g>
<!-- Node7&#45;&gt;Node8 -->
<g id="edge7" class="edge"><title>Node7&#45;&gt;Node8</title>
<path fill="none" stroke="midnightblue" d="M242.409,-112.083C235.345,-104.298 224.912,-92.8015 216.351,-83.3665"/>
<polygon fill="midnightblue" stroke="midnightblue" points="218.753,-80.8047 209.441,-75.7511 213.569,-85.5087 218.753,-80.8047"/>
</g>
<!-- Node9 -->
<g id="node9" class="node"><title>Node9</title>
<g id="a_node9"><a xlink:href="CurrentAndLastValues_8h.html" target="_top" xlink:title="CurrentAndLastValues.h">
<polygon fill="white" stroke="black" points="189,-0.5 189,-19.5 312,-19.5 312,-0.5 189,-0.5"/>
<text text-anchor="middle" x="250.5" y="-7.5" font-family="Helvetica,sans-Serif" font-size="10.00">CurrentAndLastValues.h</text>
</a>
</g>
</g>
<!-- Node7&#45;&gt;Node9 -->
<g id="edge8" class="edge"><title>Node7&#45;&gt;Node9</title>
<path fill="none" stroke="midnightblue" d="M250.5,-112.368C250.5,-94.617 250.5,-53.6664 250.5,-29.5974"/>
<polygon fill="midnightblue" stroke="midnightblue" points="254,-29.5914 250.5,-19.5914 247,-29.5915 254,-29.5914"/>
</g>
<!-- Node10 -->
<g id="node10" class="node"><title>Node10</title>
<g id="a_node10"><a xlink:href="SimpleRateCalculation_8h.html" target="_top" xlink:title="SimpleRateCalculation.h">
<polygon fill="white" stroke="black" points="279,-56.5 279,-75.5 404,-75.5 404,-56.5 279,-56.5"/>
<text text-anchor="middle" x="341.5" y="-63.5" font-family="Helvetica,sans-Serif" font-size="10.00">SimpleRateCalculation.h</text>
</a>
</g>
</g>
<!-- Node7&#45;&gt;Node10 -->
<g id="edge9" class="edge"><title>Node7&#45;&gt;Node10</title>
<path fill="none" stroke="midnightblue" d="M265.121,-112.324C279.449,-103.822 301.513,-90.7288 318.249,-80.7975"/>
<polygon fill="midnightblue" stroke="midnightblue" points="320.102,-83.7677 326.916,-75.6545 316.53,-77.7478 320.102,-83.7677"/>
</g>
<!-- Node10&#45;&gt;Node9 -->
<g id="edge10" class="edge"><title>Node10&#45;&gt;Node9</title>
<path fill="none" stroke="midnightblue" d="M326.879,-56.324C312.551,-47.8215 290.487,-34.7288 273.751,-24.7975"/>
<polygon fill="midnightblue" stroke="midnightblue" points="275.47,-21.7478 265.084,-19.6545 271.898,-27.7677 275.47,-21.7478"/>
</g>
<!-- Node11 -->
<g id="node11" class="node"><title>Node11</title>
<polygon fill="white" stroke="#bfbfbf" points="330.5,-0.5 330.5,-19.5 374.5,-19.5 374.5,-0.5 330.5,-0.5"/>
<text text-anchor="middle" x="352.5" y="-7.5" font-family="Helvetica,sans-Serif" font-size="10.00">time.h</text>
</g>
<!-- Node10&#45;&gt;Node11 -->
<g id="edge11" class="edge"><title>Node10&#45;&gt;Node11</title>
<path fill="none" stroke="midnightblue" d="M343.316,-56.083C344.774,-48.9272 346.871,-38.6353 348.693,-29.6911"/>
<polygon fill="midnightblue" stroke="midnightblue" points="352.151,-30.2485 350.717,-19.7511 345.292,-28.8512 352.151,-30.2485"/>
</g>
<!-- Node20&#45;&gt;Node3 -->
<g id="edge21" class="edge"><title>Node20&#45;&gt;Node3</title>
<path fill="none" stroke="midnightblue" d="M54.298,-168.083C57.4128,-160.77 61.9228,-150.181 65.7893,-141.103"/>
<polygon fill="midnightblue" stroke="midnightblue" points="69.0741,-142.323 69.7727,-131.751 62.6339,-139.58 69.0741,-142.323"/>
</g>
<!-- Node21&#45;&gt;Node6 -->
<g id="edge23" class="edge"><title>Node21&#45;&gt;Node6</title>
<path fill="none" stroke="midnightblue" d="M402.142,-168.083C404.286,-160.849 407.379,-150.409 410.049,-141.397"/>
<polygon fill="midnightblue" stroke="midnightblue" points="413.422,-142.333 412.907,-131.751 406.71,-140.345 413.422,-142.333"/>
</g>
<!-- Node22 -->
<g id="node22" class="node"><title>Node22</title>
<polygon fill="white" stroke="#bfbfbf" points="454.5,-112.5 454.5,-131.5 504.5,-131.5 504.5,-112.5 454.5,-112.5"/>
<text text-anchor="middle" x="479.5" y="-119.5" font-family="Helvetica,sans-Serif" font-size="10.00">fstream</text>
</g>
<!-- Node21&#45;&gt;Node22 -->
<g id="edge24" class="edge"><title>Node21&#45;&gt;Node22</title>
<path fill="none" stroke="midnightblue" d="M412.353,-168.324C424.716,-159.979 443.63,-147.212 458.237,-137.352"/>
<polygon fill="midnightblue" stroke="midnightblue" points="460.348,-140.15 466.679,-131.655 456.432,-134.348 460.348,-140.15"/>
</g>
<!-- Node24&#45;&gt;Node3 -->
<g id="edge27" class="edge"><title>Node24&#45;&gt;Node3</title>
<path fill="none" stroke="midnightblue" d="M146.522,-168.324C132.95,-159.9 112.12,-146.971 96.175,-137.074"/>
<polygon fill="midnightblue" stroke="midnightblue" points="97.7856,-133.954 87.4434,-131.655 94.094,-139.902 97.7856,-133.954"/>
</g>
<!-- Node24&#45;&gt;Node4 -->
<g id="edge28" class="edge"><title>Node24&#45;&gt;Node4</title>
<path fill="none" stroke="midnightblue" d="M157.693,-168.083C155.415,-160.849 152.129,-150.409 149.292,-141.397"/>
<polygon fill="midnightblue" stroke="midnightblue" points="152.596,-140.239 146.255,-131.751 145.919,-142.341 152.596,-140.239"/>
</g>
<!-- Node26 -->
<g id="node26" class="node"><title>Node26</title>
<polygon fill="white" stroke="#bfbfbf" points="1014.5,-112.5 1014.5,-131.5 1086.5,-131.5 1086.5,-112.5 1014.5,-112.5"/>
<text text-anchor="middle" x="1050.5" y="-119.5" font-family="Helvetica,sans-Serif" font-size="10.00">linux/types.h</text>
</g>
<!-- Node25&#45;&gt;Node26 -->
<g id="edge30" class="edge"><title>Node25&#45;&gt;Node26</title>
<path fill="none" stroke="midnightblue" d="M1157.38,-168.444C1136.48,-159.557 1103.57,-145.563 1079.78,-135.451"/>
<polygon fill="midnightblue" stroke="midnightblue" points="1081.1,-132.208 1070.53,-131.516 1078.36,-138.65 1081.1,-132.208"/>
</g>
<!-- Node27&#45;&gt;Node26 -->
<g id="edge32" class="edge"><title>Node27&#45;&gt;Node26</title>
<path fill="none" stroke="midnightblue" d="M1230,-169.378C1194.42,-160.185 1134.32,-144.658 1093.56,-134.127"/>
<polygon fill="midnightblue" stroke="midnightblue" points="1094.2,-130.677 1083.64,-131.564 1092.45,-137.454 1094.2,-130.677"/>
</g>
<!-- Node28 -->
<g id="node28" class="node"><title>Node28</title>
<polygon fill="white" stroke="#bfbfbf" points="1213,-112.5 1213,-131.5 1290,-131.5 1290,-112.5 1213,-112.5"/>
<text text-anchor="middle" x="1251.5" y="-119.5" font-family="Helvetica,sans-Serif" font-size="10.00">linux/netlink.h</text>
</g>
<!-- Node27&#45;&gt;Node28 -->
<g id="edge33" class="edge"><title>Node27&#45;&gt;Node28</title>
<path fill="none" stroke="midnightblue" d="M1258.18,-168.083C1257.12,-160.927 1255.59,-150.635 1254.27,-141.691"/>
<polygon fill="midnightblue" stroke="midnightblue" points="1257.72,-141.13 1252.8,-131.751 1250.8,-142.156 1257.72,-141.13"/>
</g>
<!-- Node29 -->
<g id="node29" class="node"><title>Node29</title>
<polygon fill="white" stroke="#bfbfbf" points="1308.5,-112.5 1308.5,-131.5 1382.5,-131.5 1382.5,-112.5 1308.5,-112.5"/>
<text text-anchor="middle" x="1345.5" y="-119.5" font-family="Helvetica,sans-Serif" font-size="10.00">linux/if_link.h</text>
</g>
<!-- Node27&#45;&gt;Node29 -->
<g id="edge34" class="edge"><title>Node27&#45;&gt;Node29</title>
<path fill="none" stroke="midnightblue" d="M1273.32,-168.324C1286.73,-159.9 1307.32,-146.971 1323.09,-137.074"/>
<polygon fill="midnightblue" stroke="midnightblue" points="1325.11,-139.936 1331.72,-131.655 1321.39,-134.008 1325.11,-139.936"/>
</g>
<!-- Node30 -->
<g id="node30" class="node"><title>Node30</title>
<polygon fill="white" stroke="#bfbfbf" points="1401,-112.5 1401,-131.5 1478,-131.5 1478,-112.5 1401,-112.5"/>
<text text-anchor="middle" x="1439.5" y="-119.5" font-family="Helvetica,sans-Serif" font-size="10.00">linux/if_addr.h</text>
</g>
<!-- Node27&#45;&gt;Node30 -->
<g id="edge35" class="edge"><title>Node27&#45;&gt;Node30</title>
<path fill="none" stroke="midnightblue" d="M1288.02,-168.444C1318.57,-159.28 1367.21,-144.688 1401.1,-134.519"/>
<polygon fill="midnightblue" stroke="midnightblue" points="1402.54,-137.742 1411.11,-131.516 1400.53,-131.038 1402.54,-137.742"/>
</g>
<!-- Node31 -->
<g id="node31" class="node"><title>Node31</title>
<polygon fill="white" stroke="#bfbfbf" points="1104.5,-112.5 1104.5,-131.5 1194.5,-131.5 1194.5,-112.5 1104.5,-112.5"/>
<text text-anchor="middle" x="1149.5" y="-119.5" font-family="Helvetica,sans-Serif" font-size="10.00">linux/neighbour.h</text>
</g>
<!-- Node27&#45;&gt;Node31 -->
<g id="edge36" class="edge"><title>Node27&#45;&gt;Node31</title>
<path fill="none" stroke="midnightblue" d="M1241.83,-168.324C1224.11,-159.625 1196.6,-146.12 1176.21,-136.113"/>
<polygon fill="midnightblue" stroke="midnightblue" points="1177.65,-132.919 1167.13,-131.655 1174.56,-139.203 1177.65,-132.919"/>
</g>
<!-- Node32&#45;&gt;Node28 -->
<g id="edge39" class="edge"><title>Node32&#45;&gt;Node28</title>
<path fill="none" stroke="midnightblue" d="M1330.4,-168.324C1315.6,-159.822 1292.81,-146.729 1275.52,-136.797"/>
<polygon fill="midnightblue" stroke="midnightblue" points="1276.98,-133.601 1266.57,-131.655 1273.49,-139.671 1276.98,-133.601"/>
</g>
<!-- Node32&#45;&gt;Node29 -->
<g id="edge41" class="edge"><title>Node32&#45;&gt;Node29</title>
<path fill="none" stroke="midnightblue" d="M1345.5,-168.083C1345.5,-161.006 1345.5,-150.861 1345.5,-141.986"/>
<polygon fill="midnightblue" stroke="midnightblue" points="1349,-141.751 1345.5,-131.751 1342,-141.751 1349,-141.751"/>
</g>
<!-- Node32&#45;&gt;Node30 -->
<g id="edge42" class="edge"><title>Node32&#45;&gt;Node30</title>
<path fill="none" stroke="midnightblue" d="M1360.6,-168.324C1375.4,-159.822 1398.19,-146.729 1415.48,-136.797"/>
<polygon fill="midnightblue" stroke="midnightblue" points="1417.51,-139.671 1424.43,-131.655 1414.02,-133.601 1417.51,-139.671"/>
</g>
<!-- Node32&#45;&gt;Node31 -->
<g id="edge43" class="edge"><title>Node32&#45;&gt;Node31</title>
<path fill="none" stroke="midnightblue" d="M1314.44,-168.444C1280.9,-159.201 1227.3,-144.436 1190.36,-134.257"/>
<polygon fill="midnightblue" stroke="midnightblue" points="1190.98,-130.798 1180.41,-131.516 1189.12,-137.547 1190.98,-130.798"/>
</g>
<!-- Node33 -->
<g id="node33" class="node"><title>Node33</title>
<polygon fill="white" stroke="#bfbfbf" points="1597,-112.5 1597,-131.5 1668,-131.5 1668,-112.5 1597,-112.5"/>
<text text-anchor="middle" x="1632.5" y="-119.5" font-family="Helvetica,sans-Serif" font-size="10.00">asm/types.h</text>
</g>
<!-- Node32&#45;&gt;Node33 -->
<g id="edge38" class="edge"><title>Node32&#45;&gt;Node33</title>
<path fill="none" stroke="midnightblue" d="M1377.24,-171.24C1421.7,-163.139 1505.32,-147.793 1586.73,-132.128"/>
<polygon fill="midnightblue" stroke="midnightblue" points="1587.49,-135.546 1596.65,-130.216 1586.17,-128.673 1587.49,-135.546"/>
</g>
<!-- Node34 -->
<g id="node34" class="node"><title>Node34</title>
<polygon fill="white" stroke="#bfbfbf" points="1496,-112.5 1496,-131.5 1579,-131.5 1579,-112.5 1496,-112.5"/>
<text text-anchor="middle" x="1537.5" y="-119.5" font-family="Helvetica,sans-Serif" font-size="10.00">linux/rtnetlink.h</text>
</g>
<!-- Node32&#45;&gt;Node34 -->
<g id="edge40" class="edge"><title>Node32&#45;&gt;Node34</title>
<path fill="none" stroke="midnightblue" d="M1375.92,-168.444C1408.78,-159.201 1461.28,-144.436 1497.47,-134.257"/>
<polygon fill="midnightblue" stroke="midnightblue" points="1498.54,-137.593 1507.22,-131.516 1496.65,-130.855 1498.54,-137.593"/>
</g>
<!-- Node36 -->
<g id="node36" class="node"><title>Node36</title>
<polygon fill="white" stroke="#bfbfbf" points="1915.5,-112.5 1915.5,-131.5 1967.5,-131.5 1967.5,-112.5 1915.5,-112.5"/>
<text text-anchor="middle" x="1941.5" y="-119.5" font-family="Helvetica,sans-Serif" font-size="10.00">stddef.h</text>
</g>
<!-- Node35&#45;&gt;Node36 -->
<g id="edge45" class="edge"><title>Node35&#45;&gt;Node36</title>
<path fill="none" stroke="midnightblue" d="M1874.35,-168.324C1886.72,-159.979 1905.63,-147.212 1920.24,-137.352"/>
<polygon fill="midnightblue" stroke="midnightblue" points="1922.35,-140.15 1928.68,-131.655 1918.43,-134.348 1922.35,-140.15"/>
</g>
<!-- Node37 -->
<g id="node37" class="node"><title>Node37</title>
<polygon fill="white" stroke="#bfbfbf" points="1985.5,-112.5 1985.5,-131.5 2053.5,-131.5 2053.5,-112.5 1985.5,-112.5"/>
<text text-anchor="middle" x="2019.5" y="-119.5" font-family="Helvetica,sans-Serif" font-size="10.00">sys/types.h</text>
</g>
<!-- Node35&#45;&gt;Node37 -->
<g id="edge46" class="edge"><title>Node35&#45;&gt;Node37</title>
<path fill="none" stroke="midnightblue" d="M1886.54,-168.444C1913.12,-159.359 1955.31,-144.939 1985.02,-134.783"/>
<polygon fill="midnightblue" stroke="midnightblue" points="1986.25,-138.062 1994.58,-131.516 1983.99,-131.439 1986.25,-138.062"/>
</g>
<!-- Node38 -->
<g id="node38" class="node"><title>Node38</title>
<polygon fill="white" stroke="#bfbfbf" points="2071.5,-112.5 2071.5,-131.5 2119.5,-131.5 2119.5,-112.5 2071.5,-112.5"/>
<text text-anchor="middle" x="2095.5" y="-119.5" font-family="Helvetica,sans-Serif" font-size="10.00">limits.h</text>
</g>
<!-- Node35&#45;&gt;Node38 -->
<g id="edge47" class="edge"><title>Node35&#45;&gt;Node38</title>
<path fill="none" stroke="midnightblue" d="M1887.61,-171.556C1924.23,-163.832 1993.17,-148.981 2061.34,-132.204"/>
<polygon fill="midnightblue" stroke="midnightblue" points="2062.52,-135.517 2071.38,-129.715 2060.83,-128.722 2062.52,-135.517"/>
</g>
<!-- Node39 -->
<g id="node39" class="node"><title>Node39</title>
<polygon fill="white" stroke="#bfbfbf" points="1686,-112.5 1686,-131.5 1739,-131.5 1739,-112.5 1686,-112.5"/>
<text text-anchor="middle" x="1712.5" y="-119.5" font-family="Helvetica,sans-Serif" font-size="10.00">endian.h</text>
</g>
<!-- Node35&#45;&gt;Node39 -->
<g id="edge48" class="edge"><title>Node35&#45;&gt;Node39</title>
<path fill="none" stroke="midnightblue" d="M1837.89,-168.444C1813.04,-159.438 1773.73,-145.189 1745.75,-135.049"/>
<polygon fill="midnightblue" stroke="midnightblue" points="1746.59,-131.633 1736,-131.516 1744.21,-138.214 1746.59,-131.633"/>
</g>
<!-- Node40 -->
<g id="node40" class="node"><title>Node40</title>
<polygon fill="white" stroke="#bfbfbf" points="1757.5,-112.5 1757.5,-131.5 1807.5,-131.5 1807.5,-112.5 1757.5,-112.5"/>
<text text-anchor="middle" x="1782.5" y="-119.5" font-family="Helvetica,sans-Serif" font-size="10.00">signal.h</text>
</g>
<!-- Node35&#45;&gt;Node40 -->
<g id="edge49" class="edge"><title>Node35&#45;&gt;Node40</title>
<path fill="none" stroke="midnightblue" d="M1848.81,-168.324C1836.6,-159.979 1817.92,-147.212 1803.5,-137.352"/>
<polygon fill="midnightblue" stroke="midnightblue" points="1805.39,-134.408 1795.16,-131.655 1801.44,-140.187 1805.39,-134.408"/>
</g>
<!-- Node41 -->
<g id="node41" class="node"><title>Node41</title>
<polygon fill="white" stroke="#bfbfbf" points="1826,-112.5 1826,-131.5 1897,-131.5 1897,-112.5 1826,-112.5"/>
<text text-anchor="middle" x="1861.5" y="-119.5" font-family="Helvetica,sans-Serif" font-size="10.00">bits/param.h</text>
</g>
<!-- Node35&#45;&gt;Node41 -->
<g id="edge50" class="edge"><title>Node35&#45;&gt;Node41</title>
<path fill="none" stroke="midnightblue" d="M1861.5,-168.083C1861.5,-161.006 1861.5,-150.861 1861.5,-141.986"/>
<polygon fill="midnightblue" stroke="midnightblue" points="1865,-141.751 1861.5,-131.751 1858,-141.751 1865,-141.751"/>
</g>
</g>
</svg>
