<?xml version="1.0" encoding="UTF-8" standalone="no"?>
<!DOCTYPE svg PUBLIC "-//W3C//DTD SVG 1.1//EN"
 "http://www.w3.org/Graphics/SVG/1.1/DTD/svg11.dtd">
<!-- Generated by graphviz version 2.38.0 (20140413.2041)
 -->
<!-- Title: BandwidthCalculator.cpp Pages: 1 -->
<svg width="1230pt" height="252pt"
 viewBox="0.00 0.00 1230.00 252.00" xmlns="http://www.w3.org/2000/svg" xmlns:xlink="http://www.w3.org/1999/xlink">
<g id="graph0" class="graph" transform="scale(1 1) rotate(0) translate(4 248)">
<title>BandwidthCalculator.cpp</title>
<polygon fill="white" stroke="none" points="-4,4 -4,-248 1226,-248 1226,4 -4,4"/>
<!-- Node1 -->
<g id="node1" class="node"><title>Node1</title>
<polygon fill="#bfbfbf" stroke="black" points="611,-224.5 611,-243.5 736,-243.5 736,-224.5 611,-224.5"/>
<text text-anchor="middle" x="673.5" y="-231.5" font-family="Helvetica,sans-Serif" font-size="10.00">BandwidthCalculator.cpp</text>
</g>
<!-- Node2 -->
<g id="node2" class="node"><title>Node2</title>
<g id="a_node2"><a xlink:href="BandwidthCalculator_8h.html" target="_top" xlink:title="BandwidthCalculator.h">
<polygon fill="white" stroke="black" points="220,-168.5 220,-187.5 335,-187.5 335,-168.5 220,-168.5"/>
<text text-anchor="middle" x="277.5" y="-175.5" font-family="Helvetica,sans-Serif" font-size="10.00">BandwidthCalculator.h</text>
</a>
</g>
</g>
<!-- Node1&#45;&gt;Node2 -->
<g id="edge1" class="edge"><title>Node1&#45;&gt;Node2</title>
<path fill="none" stroke="midnightblue" d="M610.753,-224.444C538.371,-214.573 419.798,-198.404 345.333,-188.25"/>
<polygon fill="midnightblue" stroke="midnightblue" points="345.509,-184.742 335.127,-186.858 344.563,-191.677 345.509,-184.742"/>
</g>
<!-- Node12 -->
<g id="node12" class="node"><title>Node12</title>
<polygon fill="white" stroke="#bfbfbf" points="463.5,-168.5 463.5,-187.5 525.5,-187.5 525.5,-168.5 463.5,-168.5"/>
<text text-anchor="middle" x="494.5" y="-175.5" font-family="Helvetica,sans-Serif" font-size="10.00">arpa/inet.h</text>
</g>
<!-- Node1&#45;&gt;Node12 -->
<g id="edge12" class="edge"><title>Node1&#45;&gt;Node12</title>
<path fill="none" stroke="midnightblue" d="M645.137,-224.444C614.762,-215.28 566.39,-200.688 532.684,-190.519"/>
<polygon fill="midnightblue" stroke="midnightblue" points="533.315,-187.054 522.73,-187.516 531.293,-193.756 533.315,-187.054"/>
</g>
<!-- Node13 -->
<g id="node13" class="node"><title>Node13</title>
<polygon fill="white" stroke="#bfbfbf" points="544,-168.5 544,-187.5 591,-187.5 591,-168.5 544,-168.5"/>
<text text-anchor="middle" x="567.5" y="-175.5" font-family="Helvetica,sans-Serif" font-size="10.00">errno.h</text>
</g>
<!-- Node1&#45;&gt;Node13 -->
<g id="edge13" class="edge"><title>Node1&#45;&gt;Node13</title>
<path fill="none" stroke="midnightblue" d="M656.469,-224.324C639.47,-215.664 613.124,-202.242 593.507,-192.249"/>
<polygon fill="midnightblue" stroke="midnightblue" points="594.988,-189.075 584.488,-187.655 591.81,-195.312 594.988,-189.075"/>
</g>
<!-- Node14 -->
<g id="node14" class="node"><title>Node14</title>
<polygon fill="white" stroke="#bfbfbf" points="609.5,-168.5 609.5,-187.5 653.5,-187.5 653.5,-168.5 609.5,-168.5"/>
<text text-anchor="middle" x="631.5" y="-175.5" font-family="Helvetica,sans-Serif" font-size="10.00">fcntl.h</text>
</g>
<!-- Node1&#45;&gt;Node14 -->
<g id="edge14" class="edge"><title>Node1&#45;&gt;Node14</title>
<path fill="none" stroke="midnightblue" d="M666.565,-224.083C660.571,-216.377 651.748,-205.033 644.452,-195.653"/>
<polygon fill="midnightblue" stroke="midnightblue" points="647.209,-193.496 638.306,-187.751 641.683,-197.793 647.209,-193.496"/>
</g>
<!-- Node15 -->
<g id="node15" class="node"><title>Node15</title>
<polygon fill="white" stroke="#bfbfbf" points="671,-168.5 671,-187.5 760,-187.5 760,-168.5 671,-168.5"/>
<text text-anchor="middle" x="715.5" y="-175.5" font-family="Helvetica,sans-Serif" font-size="10.00">netinet/if_ether.h</text>
</g>
<!-- Node1&#45;&gt;Node15 -->
<g id="edge15" class="edge"><title>Node1&#45;&gt;Node15</title>
<path fill="none" stroke="midnightblue" d="M680.435,-224.083C686.429,-216.377 695.252,-205.033 702.548,-195.653"/>
<polygon fill="midnightblue" stroke="midnightblue" points="705.317,-197.793 708.694,-187.751 699.791,-193.496 705.317,-197.793"/>
</g>
<!-- Node16 -->
<g id="node16" class="node"><title>Node16</title>
<polygon fill="white" stroke="#bfbfbf" points="778,-168.5 778,-187.5 843,-187.5 843,-168.5 778,-168.5"/>
<text text-anchor="middle" x="810.5" y="-175.5" font-family="Helvetica,sans-Serif" font-size="10.00">netinet/ip.h</text>
</g>
<!-- Node1&#45;&gt;Node16 -->
<g id="edge16" class="edge"><title>Node1&#45;&gt;Node16</title>
<path fill="none" stroke="midnightblue" d="M695.208,-224.444C717.855,-215.517 753.572,-201.439 779.252,-191.317"/>
<polygon fill="midnightblue" stroke="midnightblue" points="780.874,-194.44 788.894,-187.516 778.307,-187.927 780.874,-194.44"/>
</g>
<!-- Node17 -->
<g id="node17" class="node"><title>Node17</title>
<polygon fill="white" stroke="#bfbfbf" points="861.5,-168.5 861.5,-187.5 913.5,-187.5 913.5,-168.5 861.5,-168.5"/>
<text text-anchor="middle" x="887.5" y="-175.5" font-family="Helvetica,sans-Serif" font-size="10.00">sstream</text>
</g>
<!-- Node1&#45;&gt;Node17 -->
<g id="edge17" class="edge"><title>Node1&#45;&gt;Node17</title>
<path fill="none" stroke="midnightblue" d="M707.409,-224.444C746.765,-214.513 811.391,-198.205 851.583,-188.063"/>
<polygon fill="midnightblue" stroke="midnightblue" points="852.651,-191.403 861.491,-185.563 850.938,-184.616 852.651,-191.403"/>
</g>
<!-- Node18 -->
<g id="node18" class="node"><title>Node18</title>
<polygon fill="white" stroke="#bfbfbf" points="932,-168.5 932,-187.5 981,-187.5 981,-168.5 932,-168.5"/>
<text text-anchor="middle" x="956.5" y="-175.5" font-family="Helvetica,sans-Serif" font-size="10.00">string.h</text>
</g>
<!-- Node1&#45;&gt;Node18 -->
<g id="edge18" class="edge"><title>Node1&#45;&gt;Node18</title>
<path fill="none" stroke="midnightblue" d="M727.665,-224.494C776.098,-216.599 849.204,-203.97 921.888,-187.99"/>
<polygon fill="midnightblue" stroke="midnightblue" points="922.67,-191.401 931.674,-185.817 921.153,-184.568 922.67,-191.401"/>
</g>
<!-- Node19 -->
<g id="node19" class="node"><title>Node19</title>
<polygon fill="white" stroke="#bfbfbf" points="999,-168.5 999,-187.5 1050,-187.5 1050,-168.5 999,-168.5"/>
<text text-anchor="middle" x="1024.5" y="-175.5" font-family="Helvetica,sans-Serif" font-size="10.00">unistd.h</text>
</g>
<!-- Node1&#45;&gt;Node19 -->
<g id="edge19" class="edge"><title>Node1&#45;&gt;Node19</title>
<path fill="none" stroke="midnightblue" d="M736.201,-226.137C798.022,-218.904 895.34,-206.272 989.029,-187.887"/>
<polygon fill="midnightblue" stroke="midnightblue" points="989.834,-191.296 998.96,-185.914 988.47,-184.43 989.834,-191.296"/>
</g>
<!-- Node20 -->
<g id="node20" class="node"><title>Node20</title>
<g id="a_node20"><a xlink:href="BandwidthValues_8h.html" target="_top" xlink:title="BandwidthValues.h">
<polygon fill="white" stroke="black" points="0,-168.5 0,-187.5 101,-187.5 101,-168.5 0,-168.5"/>
<text text-anchor="middle" x="50.5" y="-175.5" font-family="Helvetica,sans-Serif" font-size="10.00">BandwidthValues.h</text>
</a>
</g>
</g>
<!-- Node1&#45;&gt;Node20 -->
<g id="edge20" class="edge"><title>Node1&#45;&gt;Node20</title>
<path fill="none" stroke="midnightblue" d="M610.762,-229.469C508.315,-223.379 298.528,-209.552 111.343,-188.145"/>
<polygon fill="midnightblue" stroke="midnightblue" points="111.653,-184.658 101.318,-186.989 110.851,-191.611 111.653,-184.658"/>
</g>
<!-- Node21 -->
<g id="node21" class="node"><title>Node21</title>
<g id="a_node21"><a xlink:href="PrintHandler_8h.html" target="_top" xlink:title="PrintHandler.h">
<polygon fill="white" stroke="black" points="1068,-168.5 1068,-187.5 1147,-187.5 1147,-168.5 1068,-168.5"/>
<text text-anchor="middle" x="1107.5" y="-175.5" font-family="Helvetica,sans-Serif" font-size="10.00">PrintHandler.h</text>
</a>
</g>
</g>
<!-- Node1&#45;&gt;Node21 -->
<g id="edge22" class="edge"><title>Node1&#45;&gt;Node21</title>
<path fill="none" stroke="midnightblue" d="M736.015,-226.96C810.234,-219.506 937.975,-205.785 1057.87,-188.001"/>
<polygon fill="midnightblue" stroke="midnightblue" points="1058.58,-191.433 1067.96,-186.492 1057.55,-184.51 1058.58,-191.433"/>
</g>
<!-- Node23 -->
<g id="node23" class="node"><title>Node23</title>
<g id="a_node23"><a xlink:href="LoggingHandler_8h.html" target="_top" xlink:title="LoggingHandler.h">
<polygon fill="white" stroke="black" points="353.5,-168.5 353.5,-187.5 445.5,-187.5 445.5,-168.5 353.5,-168.5"/>
<text text-anchor="middle" x="399.5" y="-175.5" font-family="Helvetica,sans-Serif" font-size="10.00">LoggingHandler.h</text>
</a>
</g>
</g>
<!-- Node1&#45;&gt;Node23 -->
<g id="edge24" class="edge"><title>Node1&#45;&gt;Node23</title>
<path fill="none" stroke="midnightblue" d="M630.084,-224.444C581.985,-214.964 504.405,-199.675 452.694,-189.483"/>
<polygon fill="midnightblue" stroke="midnightblue" points="453.201,-186.016 442.713,-187.516 451.847,-192.884 453.201,-186.016"/>
</g>
<!-- Node25 -->
<g id="node25" class="node"><title>Node25</title>
<g id="a_node25"><a xlink:href="Macros_8h.html" target="_top" xlink:title="Macros.h">
<polygon fill="white" stroke="black" points="1165,-168.5 1165,-187.5 1222,-187.5 1222,-168.5 1165,-168.5"/>
<text text-anchor="middle" x="1193.5" y="-175.5" font-family="Helvetica,sans-Serif" font-size="10.00">Macros.h</text>
</a>
</g>
</g>
<!-- Node1&#45;&gt;Node25 -->
<g id="edge27" class="edge"><title>Node1&#45;&gt;Node25</title>
<path fill="none" stroke="midnightblue" d="M736.25,-229.941C826.589,-224.918 998.627,-213.048 1154.7,-187.889"/>
<polygon fill="midnightblue" stroke="midnightblue" points="1155.65,-191.28 1164.95,-186.212 1154.52,-184.371 1155.65,-191.28"/>
</g>
<!-- Node26 -->
<g id="node26" class="node"><title>Node26</title>
<g id="a_node26"><a xlink:href="ThreadHelper_8h.html" target="_top" xlink:title="ThreadHelper.h">
<polygon fill="white" stroke="black" points="119,-168.5 119,-187.5 202,-187.5 202,-168.5 119,-168.5"/>
<text text-anchor="middle" x="160.5" y="-175.5" font-family="Helvetica,sans-Serif" font-size="10.00">ThreadHelper.h</text>
</a>
</g>
</g>
<!-- Node1&#45;&gt;Node26 -->
<g id="edge28" class="edge"><title>Node1&#45;&gt;Node26</title>
<path fill="none" stroke="midnightblue" d="M610.779,-228.529C523.591,-221.953 360.626,-208.359 212.395,-188.17"/>
<polygon fill="midnightblue" stroke="midnightblue" points="212.585,-184.663 202.201,-186.768 211.631,-191.598 212.585,-184.663"/>
</g>
<!-- Node3 -->
<g id="node3" class="node"><title>Node3</title>
<polygon fill="white" stroke="#bfbfbf" points="50.5,-112.5 50.5,-131.5 96.5,-131.5 96.5,-112.5 50.5,-112.5"/>
<text text-anchor="middle" x="73.5" y="-119.5" font-family="Helvetica,sans-Serif" font-size="10.00">atomic</text>
</g>
<!-- Node2&#45;&gt;Node3 -->
<g id="edge2" class="edge"><title>Node2&#45;&gt;Node3</title>
<path fill="none" stroke="midnightblue" d="M244.157,-168.469C211.435,-160.054 159.869,-146.681 106.237,-132.165"/>
<polygon fill="midnightblue" stroke="midnightblue" points="107.126,-128.78 96.5581,-129.539 105.293,-135.536 107.126,-128.78"/>
</g>
<!-- Node4 -->
<g id="node4" class="node"><title>Node4</title>
<polygon fill="white" stroke="#bfbfbf" points="115,-112.5 115,-131.5 172,-131.5 172,-112.5 115,-112.5"/>
<text text-anchor="middle" x="143.5" y="-119.5" font-family="Helvetica,sans-Serif" font-size="10.00">pthread.h</text>
</g>
<!-- Node2&#45;&gt;Node4 -->
<g id="edge3" class="edge"><title>Node2&#45;&gt;Node4</title>
<path fill="none" stroke="midnightblue" d="M256.267,-168.444C234.116,-159.517 199.181,-145.439 174.064,-135.317"/>
<polygon fill="midnightblue" stroke="midnightblue" points="175.217,-132.008 164.633,-131.516 172.6,-138.501 175.217,-132.008"/>
</g>
<!-- Node5 -->
<g id="node5" class="node"><title>Node5</title>
<polygon fill="white" stroke="#bfbfbf" points="328,-112.5 328,-131.5 377,-131.5 377,-112.5 328,-112.5"/>
<text text-anchor="middle" x="352.5" y="-119.5" font-family="Helvetica,sans-Serif" font-size="10.00">stdint.h</text>
</g>
<!-- Node2&#45;&gt;Node5 -->
<g id="edge4" class="edge"><title>Node2&#45;&gt;Node5</title>
<path fill="none" stroke="midnightblue" d="M289.55,-168.324C300.963,-160.107 318.331,-147.602 331.935,-137.807"/>
<polygon fill="midnightblue" stroke="midnightblue" points="334.16,-140.517 340.231,-131.834 330.07,-134.837 334.16,-140.517"/>
</g>
<!-- Node6 -->
<g id="node6" class="node"><title>Node6</title>
<polygon fill="white" stroke="#bfbfbf" points="395,-112.5 395,-131.5 436,-131.5 436,-112.5 395,-112.5"/>
<text text-anchor="middle" x="415.5" y="-119.5" font-family="Helvetica,sans-Serif" font-size="10.00">string</text>
</g>
<!-- Node2&#45;&gt;Node6 -->
<g id="edge5" class="edge"><title>Node2&#45;&gt;Node6</title>
<path fill="none" stroke="midnightblue" d="M299.367,-168.444C322.549,-159.372 359.329,-144.98 385.276,-134.827"/>
<polygon fill="midnightblue" stroke="midnightblue" points="386.602,-138.066 394.639,-131.163 384.051,-131.548 386.602,-138.066"/>
</g>
<!-- Node7 -->
<g id="node7" class="node"><title>Node7</title>
<g id="a_node7"><a xlink:href="SimpleRateCalculator_8h.html" target="_top" xlink:title="SimpleRateCalculator.h">
<polygon fill="white" stroke="black" points="190.5,-112.5 190.5,-131.5 310.5,-131.5 310.5,-112.5 190.5,-112.5"/>
<text text-anchor="middle" x="250.5" y="-119.5" font-family="Helvetica,sans-Serif" font-size="10.00">SimpleRateCalculator.h</text>
</a>
</g>
</g>
<!-- Node2&#45;&gt;Node7 -->
<g id="edge6" class="edge"><title>Node2&#45;&gt;Node7</title>
<path fill="none" stroke="midnightblue" d="M273.041,-168.083C269.346,-160.691 263.977,-149.953 259.406,-140.811"/>
<polygon fill="midnightblue" stroke="midnightblue" points="262.478,-139.13 254.876,-131.751 256.217,-142.261 262.478,-139.13"/>
</g>
<!-- Node8 -->
<g id="node8" class="node"><title>Node8</title>
<polygon fill="white" stroke="#bfbfbf" points="181,-56.5 181,-75.5 222,-75.5 222,-56.5 181,-56.5"/>
<text text-anchor="middle" x="201.5" y="-63.5" font-family="Helvetica,sans-Serif" font-size="10.00">ctime</text>
</g>
<!-- Node7&#45;&gt;Node8 -->
<g id="edge7" class="edge"><title>Node7&#45;&gt;Node8</title>
<path fill="none" stroke="midnightblue" d="M242.409,-112.083C235.345,-104.298 224.912,-92.8015 216.351,-83.3665"/>
<polygon fill="midnightblue" stroke="midnightblue" points="218.753,-80.8047 209.441,-75.7511 213.569,-85.5087 218.753,-80.8047"/>
</g>
<!-- Node9 -->
<g id="node9" class="node"><title>Node9</title>
<g id="a_node9"><a xlink:href="CurrentAndLastValues_8h.html" target="_top" xlink:title="CurrentAndLastValues.h">
<polygon fill="white" stroke="black" points="189,-0.5 189,-19.5 312,-19.5 312,-0.5 189,-0.5"/>
<text text-anchor="middle" x="250.5" y="-7.5" font-family="Helvetica,sans-Serif" font-size="10.00">CurrentAndLastValues.h</text>
</a>
</g>
</g>
<!-- Node7&#45;&gt;Node9 -->
<g id="edge8" class="edge"><title>Node7&#45;&gt;Node9</title>
<path fill="none" stroke="midnightblue" d="M250.5,-112.368C250.5,-94.617 250.5,-53.6664 250.5,-29.5974"/>
<polygon fill="midnightblue" stroke="midnightblue" points="254,-29.5914 250.5,-19.5914 247,-29.5915 254,-29.5914"/>
</g>
<!-- Node10 -->
<g id="node10" class="node"><title>Node10</title>
<g id="a_node10"><a xlink:href="SimpleRateCalculation_8h.html" target="_top" xlink:title="SimpleRateCalculation.h">
<polygon fill="white" stroke="black" points="279,-56.5 279,-75.5 404,-75.5 404,-56.5 279,-56.5"/>
<text text-anchor="middle" x="341.5" y="-63.5" font-family="Helvetica,sans-Serif" font-size="10.00">SimpleRateCalculation.h</text>
</a>
</g>
</g>
<!-- Node7&#45;&gt;Node10 -->
<g id="edge9" class="edge"><title>Node7&#45;&gt;Node10</title>
<path fill="none" stroke="midnightblue" d="M265.121,-112.324C279.449,-103.822 301.513,-90.7288 318.249,-80.7975"/>
<polygon fill="midnightblue" stroke="midnightblue" points="320.102,-83.7677 326.916,-75.6545 316.53,-77.7478 320.102,-83.7677"/>
</g>
<!-- Node10&#45;&gt;Node9 -->
<g id="edge10" class="edge"><title>Node10&#45;&gt;Node9</title>
<path fill="none" stroke="midnightblue" d="M326.879,-56.324C312.551,-47.8215 290.487,-34.7288 273.751,-24.7975"/>
<polygon fill="midnightblue" stroke="midnightblue" points="275.47,-21.7478 265.084,-19.6545 271.898,-27.7677 275.47,-21.7478"/>
</g>
<!-- Node11 -->
<g id="node11" class="node"><title>Node11</title>
<polygon fill="white" stroke="#bfbfbf" points="330.5,-0.5 330.5,-19.5 374.5,-19.5 374.5,-0.5 330.5,-0.5"/>
<text text-anchor="middle" x="352.5" y="-7.5" font-family="Helvetica,sans-Serif" font-size="10.00">time.h</text>
</g>
<!-- Node10&#45;&gt;Node11 -->
<g id="edge11" class="edge"><title>Node10&#45;&gt;Node11</title>
<path fill="none" stroke="midnightblue" d="M343.316,-56.083C344.774,-48.9272 346.871,-38.6353 348.693,-29.6911"/>
<polygon fill="midnightblue" stroke="midnightblue" points="352.151,-30.2485 350.717,-19.7511 345.292,-28.8512 352.151,-30.2485"/>
</g>
<!-- Node20&#45;&gt;Node3 -->
<g id="edge21" class="edge"><title>Node20&#45;&gt;Node3</title>
<path fill="none" stroke="midnightblue" d="M54.298,-168.083C57.4128,-160.77 61.9228,-150.181 65.7893,-141.103"/>
<polygon fill="midnightblue" stroke="midnightblue" points="69.0741,-142.323 69.7727,-131.751 62.6339,-139.58 69.0741,-142.323"/>
</g>
<!-- Node22 -->
<g id="node22" class="node"><title>Node22</title>
<polygon fill="white" stroke="#bfbfbf" points="1084.5,-112.5 1084.5,-131.5 1130.5,-131.5 1130.5,-112.5 1084.5,-112.5"/>
<text text-anchor="middle" x="1107.5" y="-119.5" font-family="Helvetica,sans-Serif" font-size="10.00">stdio.h</text>
</g>
<!-- Node21&#45;&gt;Node22 -->
<g id="edge23" class="edge"><title>Node21&#45;&gt;Node22</title>
<path fill="none" stroke="midnightblue" d="M1107.5,-168.083C1107.5,-161.006 1107.5,-150.861 1107.5,-141.986"/>
<polygon fill="midnightblue" stroke="midnightblue" points="1111,-141.751 1107.5,-131.751 1104,-141.751 1111,-141.751"/>
</g>
<!-- Node23&#45;&gt;Node6 -->
<g id="edge25" class="edge"><title>Node23&#45;&gt;Node6</title>
<path fill="none" stroke="midnightblue" d="M402.142,-168.083C404.286,-160.849 407.379,-150.409 410.049,-141.397"/>
<polygon fill="midnightblue" stroke="midnightblue" points="413.422,-142.333 412.907,-131.751 406.71,-140.345 413.422,-142.333"/>
</g>
<!-- Node24 -->
<g id="node24" class="node"><title>Node24</title>
<polygon fill="white" stroke="#bfbfbf" points="454.5,-112.5 454.5,-131.5 504.5,-131.5 504.5,-112.5 454.5,-112.5"/>
<text text-anchor="middle" x="479.5" y="-119.5" font-family="Helvetica,sans-Serif" font-size="10.00">fstream</text>
</g>
<!-- Node23&#45;&gt;Node24 -->
<g id="edge26" class="edge"><title>Node23&#45;&gt;Node24</title>
<path fill="none" stroke="midnightblue" d="M412.353,-168.324C424.716,-159.979 443.63,-147.212 458.237,-137.352"/>
<polygon fill="midnightblue" stroke="midnightblue" points="460.348,-140.15 466.679,-131.655 456.432,-134.348 460.348,-140.15"/>
</g>
<!-- Node26&#45;&gt;Node3 -->
<g id="edge29" class="edge"><title>Node26&#45;&gt;Node3</title>
<path fill="none" stroke="midnightblue" d="M146.522,-168.324C132.95,-159.9 112.12,-146.971 96.175,-137.074"/>
<polygon fill="midnightblue" stroke="midnightblue" points="97.7856,-133.954 87.4434,-131.655 94.094,-139.902 97.7856,-133.954"/>
</g>
<!-- Node26&#45;&gt;Node4 -->
<g id="edge30" class="edge"><title>Node26&#45;&gt;Node4</title>
<path fill="none" stroke="midnightblue" d="M157.693,-168.083C155.415,-160.849 152.129,-150.409 149.292,-141.397"/>
<polygon fill="midnightblue" stroke="midnightblue" points="152.596,-140.239 146.255,-131.751 145.919,-142.341 152.596,-140.239"/>
</g>
</g>
</svg>
