<?xml version="1.0" encoding="UTF-8" standalone="no"?>
<!DOCTYPE svg PUBLIC "-//W3C//DTD SVG 1.1//EN"
 "http://www.w3.org/Graphics/SVG/1.1/DTD/svg11.dtd">
<!-- Generated by graphviz version 2.38.0 (20140413.2041)
 -->
<!-- Title: main Pages: 1 -->
<svg width="435pt" height="137pt"
 viewBox="0.00 0.00 435.00 137.00" xmlns="http://www.w3.org/2000/svg" xmlns:xlink="http://www.w3.org/1999/xlink">
<g id="graph0" class="graph" transform="scale(1 1) rotate(0) translate(4 133)">
<title>main</title>
<polygon fill="white" stroke="none" points="-4,4 -4,-133 431,-133 431,4 -4,4"/>
<!-- Node1 -->
<g id="node1" class="node"><title>Node1</title>
<polygon fill="#bfbfbf" stroke="black" points="0,-55 0,-74 38,-74 38,-55 0,-55"/>
<text text-anchor="middle" x="19" y="-62" font-family="Helvetica,sans-Serif" font-size="10.00">main</text>
</g>
<!-- Node2 -->
<g id="node2" class="node"><title>Node2</title>
<g id="a_node2"><a xlink:href="classBGAdaptor_1_1HandleHostBandwidth.html#af412af774ed022f289976b3746b02878" target="_top" xlink:title="sendBandwidthRates sends all of the VMs bandwidth ">
<polygon fill="white" stroke="black" points="74,-98.5 74,-128.5 242,-128.5 242,-98.5 74,-98.5"/>
<text text-anchor="start" x="82" y="-116.5" font-family="Helvetica,sans-Serif" font-size="10.00">BGAdaptor::HandleHostBandwidth</text>
<text text-anchor="middle" x="158" y="-105.5" font-family="Helvetica,sans-Serif" font-size="10.00">::sendBandwidthRates</text>
</a>
</g>
</g>
<!-- Node1&#45;&gt;Node2 -->
<g id="edge1" class="edge"><title>Node1&#45;&gt;Node2</title>
<path fill="none" stroke="midnightblue" d="M38.1993,-73.7688C48.5342,-78.8172 61.8061,-84.9445 74,-89.5 79.401,-91.5178 85.0513,-93.4706 90.7543,-95.3327"/>
<polygon fill="midnightblue" stroke="midnightblue" points="89.7769,-98.6944 100.367,-98.3759 91.8897,-92.0208 89.7769,-98.6944"/>
</g>
<!-- Node3 -->
<g id="node3" class="node"><title>Node3</title>
<g id="a_node3"><a xlink:href="classBGAdaptor_1_1HandleHostBandwidth.html#a0bd91d291729abdb12ac258eb00eb8d3" target="_top" xlink:title="printBandwidths prints VM&#39;s bandwidth to the terminal ">
<polygon fill="white" stroke="black" points="74,-49.5 74,-79.5 242,-79.5 242,-49.5 74,-49.5"/>
<text text-anchor="start" x="82" y="-67.5" font-family="Helvetica,sans-Serif" font-size="10.00">BGAdaptor::HandleHostBandwidth</text>
<text text-anchor="middle" x="158" y="-56.5" font-family="Helvetica,sans-Serif" font-size="10.00">::logBandwidths</text>
</a>
</g>
</g>
<!-- Node1&#45;&gt;Node3 -->
<g id="edge2" class="edge"><title>Node1&#45;&gt;Node3</title>
<path fill="none" stroke="midnightblue" d="M38.1925,-64.5C45.3774,-64.5 54.2078,-64.5 63.7824,-64.5"/>
<polygon fill="midnightblue" stroke="midnightblue" points="63.9916,-68.0001 73.9916,-64.5 63.9916,-61.0001 63.9916,-68.0001"/>
</g>
<!-- Node5 -->
<g id="node5" class="node"><title>Node5</title>
<g id="a_node5"><a xlink:href="classBGAdaptor_1_1HandleHostBandwidth.html#a97e21ed6ef251eb62bd0550d8a8c7921" target="_top" xlink:title="setRunning turn on the thread that receives the VMs bandwidth ">
<polygon fill="white" stroke="black" points="74,-0.5 74,-30.5 242,-30.5 242,-0.5 74,-0.5"/>
<text text-anchor="start" x="82" y="-18.5" font-family="Helvetica,sans-Serif" font-size="10.00">BGAdaptor::HandleHostBandwidth</text>
<text text-anchor="middle" x="158" y="-7.5" font-family="Helvetica,sans-Serif" font-size="10.00">::setRunning</text>
</a>
</g>
</g>
<!-- Node1&#45;&gt;Node5 -->
<g id="edge4" class="edge"><title>Node1&#45;&gt;Node5</title>
<path fill="none" stroke="midnightblue" d="M38.1993,-55.2312C48.5342,-50.1828 61.8061,-44.0555 74,-39.5 79.401,-37.4822 85.0513,-35.5294 90.7543,-33.6673"/>
<polygon fill="midnightblue" stroke="midnightblue" points="91.8897,-36.9792 100.367,-30.6241 89.7769,-30.3056 91.8897,-36.9792"/>
</g>
<!-- Node4 -->
<g id="node4" class="node"><title>Node4</title>
<g id="a_node4"><a xlink:href="classCommon_1_1LoggingHandler.html#a5c72b411fc450b086dcd31246e66bab0" target="_top" xlink:title="log method to log the given string ">
<polygon fill="white" stroke="black" points="278,-55 278,-74 427,-74 427,-55 278,-55"/>
<text text-anchor="middle" x="352.5" y="-62" font-family="Helvetica,sans-Serif" font-size="10.00">Common::LoggingHandler::log</text>
</a>
</g>
</g>
<!-- Node3&#45;&gt;Node4 -->
<g id="edge3" class="edge"><title>Node3&#45;&gt;Node4</title>
<path fill="none" stroke="midnightblue" d="M242.034,-64.5C250.498,-64.5 259.101,-64.5 267.575,-64.5"/>
<polygon fill="midnightblue" stroke="midnightblue" points="267.829,-68.0001 277.829,-64.5 267.829,-61.0001 267.829,-68.0001"/>
</g>
<!-- Node6 -->
<g id="node6" class="node"><title>Node6</title>
<g id="a_node6"><a xlink:href="classCommon_1_1ThreadHelper.html#ac08e2d5dcb09787954f11fd70cb2c919" target="_top" xlink:title="startDetachedThread ">
<polygon fill="white" stroke="black" points="292,-0.5 292,-30.5 413,-30.5 413,-0.5 292,-0.5"/>
<text text-anchor="start" x="300" y="-18.5" font-family="Helvetica,sans-Serif" font-size="10.00">Common::ThreadHelper</text>
<text text-anchor="middle" x="352.5" y="-7.5" font-family="Helvetica,sans-Serif" font-size="10.00">::startDetachedThread</text>
</a>
</g>
</g>
<!-- Node5&#45;&gt;Node6 -->
<g id="edge5" class="edge"><title>Node5&#45;&gt;Node6</title>
<path fill="none" stroke="midnightblue" d="M242.034,-15.5C255.282,-15.5 268.871,-15.5 281.771,-15.5"/>
<polygon fill="midnightblue" stroke="midnightblue" points="281.949,-19.0001 291.949,-15.5 281.949,-12.0001 281.949,-19.0001"/>
</g>
</g>
</svg>
