<?xml version="1.0" encoding="UTF-8" standalone="no"?>
<!DOCTYPE svg PUBLIC "-//W3C//DTD SVG 1.1//EN"
 "http://www.w3.org/Graphics/SVG/1.1/DTD/svg11.dtd">
<!-- Generated by graphviz version 2.38.0 (20140413.2041)
 -->
<!-- Title: main.cpp Pages: 1 -->
<svg width="529pt" height="140pt"
 viewBox="0.00 0.00 528.50 140.00" xmlns="http://www.w3.org/2000/svg" xmlns:xlink="http://www.w3.org/1999/xlink">
<g id="graph0" class="graph" transform="scale(1 1) rotate(0) translate(4 136)">
<title>main.cpp</title>
<polygon fill="white" stroke="none" points="-4,4 -4,-136 524.5,-136 524.5,4 -4,4"/>
<!-- Node1 -->
<g id="node1" class="node"><title>Node1</title>
<polygon fill="#bfbfbf" stroke="black" points="168,-112.5 168,-131.5 224,-131.5 224,-112.5 168,-112.5"/>
<text text-anchor="middle" x="196" y="-119.5" font-family="Helvetica,sans-Serif" font-size="10.00">main.cpp</text>
</g>
<!-- Node2 -->
<g id="node2" class="node"><title>Node2</title>
<polygon fill="white" stroke="#bfbfbf" points="0,-56.5 0,-75.5 50,-75.5 50,-56.5 0,-56.5"/>
<text text-anchor="middle" x="25" y="-63.5" font-family="Helvetica,sans-Serif" font-size="10.00">signal.h</text>
</g>
<!-- Node1&#45;&gt;Node2 -->
<g id="edge1" class="edge"><title>Node1&#45;&gt;Node2</title>
<path fill="none" stroke="midnightblue" d="M168.905,-112.444C139.417,-103.132 92.1766,-88.2137 59.9247,-78.0289"/>
<polygon fill="midnightblue" stroke="midnightblue" points="60.6113,-74.5754 50.0215,-74.9015 58.5033,-81.2504 60.6113,-74.5754"/>
</g>
<!-- Node3 -->
<g id="node3" class="node"><title>Node3</title>
<polygon fill="white" stroke="#bfbfbf" points="68,-56.5 68,-75.5 120,-75.5 120,-56.5 68,-56.5"/>
<text text-anchor="middle" x="94" y="-63.5" font-family="Helvetica,sans-Serif" font-size="10.00">sstream</text>
</g>
<!-- Node1&#45;&gt;Node3 -->
<g id="edge2" class="edge"><title>Node1&#45;&gt;Node3</title>
<path fill="none" stroke="midnightblue" d="M179.612,-112.324C163.329,-103.703 138.133,-90.3643 119.284,-80.3855"/>
<polygon fill="midnightblue" stroke="midnightblue" points="120.823,-77.2402 110.347,-75.6545 117.548,-83.4267 120.823,-77.2402"/>
</g>
<!-- Node4 -->
<g id="node4" class="node"><title>Node4</title>
<polygon fill="white" stroke="#bfbfbf" points="138,-56.5 138,-75.5 186,-75.5 186,-56.5 138,-56.5"/>
<text text-anchor="middle" x="162" y="-63.5" font-family="Helvetica,sans-Serif" font-size="10.00">stdlib.h</text>
</g>
<!-- Node1&#45;&gt;Node4 -->
<g id="edge3" class="edge"><title>Node1&#45;&gt;Node4</title>
<path fill="none" stroke="midnightblue" d="M190.386,-112.083C185.633,-104.534 178.682,-93.4948 172.848,-84.2298"/>
<polygon fill="midnightblue" stroke="midnightblue" points="175.8,-82.3486 167.51,-75.7511 169.876,-86.0783 175.8,-82.3486"/>
</g>
<!-- Node5 -->
<g id="node5" class="node"><title>Node5</title>
<polygon fill="white" stroke="#bfbfbf" points="204.5,-56.5 204.5,-75.5 255.5,-75.5 255.5,-56.5 204.5,-56.5"/>
<text text-anchor="middle" x="230" y="-63.5" font-family="Helvetica,sans-Serif" font-size="10.00">unistd.h</text>
</g>
<!-- Node1&#45;&gt;Node5 -->
<g id="edge4" class="edge"><title>Node1&#45;&gt;Node5</title>
<path fill="none" stroke="midnightblue" d="M201.614,-112.083C206.367,-104.534 213.318,-93.4948 219.152,-84.2298"/>
<polygon fill="midnightblue" stroke="midnightblue" points="222.124,-86.0783 224.49,-75.7511 216.2,-82.3486 222.124,-86.0783"/>
</g>
<!-- Node6 -->
<g id="node6" class="node"><title>Node6</title>
<polygon fill="white" stroke="#bfbfbf" points="274,-56.5 274,-75.5 320,-75.5 320,-56.5 274,-56.5"/>
<text text-anchor="middle" x="297" y="-63.5" font-family="Helvetica,sans-Serif" font-size="10.00">stdio.h</text>
</g>
<!-- Node1&#45;&gt;Node6 -->
<g id="edge5" class="edge"><title>Node1&#45;&gt;Node6</title>
<path fill="none" stroke="midnightblue" d="M212.227,-112.324C228.351,-103.703 253.3,-90.3643 271.964,-80.3855"/>
<polygon fill="midnightblue" stroke="midnightblue" points="273.644,-83.456 280.813,-75.6545 270.344,-77.283 273.644,-83.456"/>
</g>
<!-- Node7 -->
<g id="node7" class="node"><title>Node7</title>
<g id="a_node7"><a xlink:href="HandleHostBandwidth_8h.html" target="_top" xlink:title="HandleHostBandwidth.h">
<polygon fill="white" stroke="black" points="338,-56.5 338,-75.5 460,-75.5 460,-56.5 338,-56.5"/>
<text text-anchor="middle" x="399" y="-63.5" font-family="Helvetica,sans-Serif" font-size="10.00">HandleHostBandwidth.h</text>
</a>
</g>
</g>
<!-- Node1&#45;&gt;Node7 -->
<g id="edge6" class="edge"><title>Node1&#45;&gt;Node7</title>
<path fill="none" stroke="midnightblue" d="M224.226,-113.492C258.775,-104.301 317.575,-88.6597 357.331,-78.0843"/>
<polygon fill="midnightblue" stroke="midnightblue" points="358.238,-81.4649 367.002,-75.5118 356.438,-74.7002 358.238,-81.4649"/>
</g>
<!-- Node8 -->
<g id="node8" class="node"><title>Node8</title>
<polygon fill="white" stroke="#bfbfbf" points="266,-0.5 266,-19.5 328,-19.5 328,-0.5 266,-0.5"/>
<text text-anchor="middle" x="297" y="-7.5" font-family="Helvetica,sans-Serif" font-size="10.00">arpa/inet.h</text>
</g>
<!-- Node7&#45;&gt;Node8 -->
<g id="edge7" class="edge"><title>Node7&#45;&gt;Node8</title>
<path fill="none" stroke="midnightblue" d="M382.612,-56.324C366.329,-47.7034 341.133,-34.3643 322.284,-24.3855"/>
<polygon fill="midnightblue" stroke="midnightblue" points="323.823,-21.2402 313.347,-19.6545 320.548,-27.4267 323.823,-21.2402"/>
</g>
<!-- Node9 -->
<g id="node9" class="node"><title>Node9</title>
<polygon fill="white" stroke="#bfbfbf" points="346,-0.5 346,-19.5 392,-19.5 392,-0.5 346,-0.5"/>
<text text-anchor="middle" x="369" y="-7.5" font-family="Helvetica,sans-Serif" font-size="10.00">atomic</text>
</g>
<!-- Node7&#45;&gt;Node9 -->
<g id="edge8" class="edge"><title>Node7&#45;&gt;Node9</title>
<path fill="none" stroke="midnightblue" d="M394.046,-56.083C389.896,-48.6127 383.847,-37.7244 378.733,-28.5199"/>
<polygon fill="midnightblue" stroke="midnightblue" points="381.778,-26.7929 373.862,-19.7511 375.659,-30.1924 381.778,-26.7929"/>
</g>
<!-- Node10 -->
<g id="node10" class="node"><title>Node10</title>
<polygon fill="white" stroke="#bfbfbf" points="410.5,-0.5 410.5,-19.5 445.5,-19.5 445.5,-0.5 410.5,-0.5"/>
<text text-anchor="middle" x="428" y="-7.5" font-family="Helvetica,sans-Serif" font-size="10.00">map</text>
</g>
<!-- Node7&#45;&gt;Node10 -->
<g id="edge9" class="edge"><title>Node7&#45;&gt;Node10</title>
<path fill="none" stroke="midnightblue" d="M403.789,-56.083C407.758,-48.6913 413.525,-37.9533 418.435,-28.8111"/>
<polygon fill="midnightblue" stroke="midnightblue" points="421.653,-30.217 423.3,-19.7511 415.486,-26.9051 421.653,-30.217"/>
</g>
<!-- Node11 -->
<g id="node11" class="node"><title>Node11</title>
<polygon fill="white" stroke="#bfbfbf" points="463.5,-0.5 463.5,-19.5 520.5,-19.5 520.5,-0.5 463.5,-0.5"/>
<text text-anchor="middle" x="492" y="-7.5" font-family="Helvetica,sans-Serif" font-size="10.00">pthread.h</text>
</g>
<!-- Node7&#45;&gt;Node11 -->
<g id="edge10" class="edge"><title>Node7&#45;&gt;Node11</title>
<path fill="none" stroke="midnightblue" d="M413.942,-56.324C428.585,-47.8215 451.134,-34.7288 468.238,-24.7975"/>
<polygon fill="midnightblue" stroke="midnightblue" points="470.205,-27.7027 477.095,-19.6545 466.69,-21.6491 470.205,-27.7027"/>
</g>
</g>
</svg>
