<?xml version="1.0" encoding="UTF-8" standalone="no"?>
<!DOCTYPE svg PUBLIC "-//W3C//DTD SVG 1.1//EN"
 "http://www.w3.org/Graphics/SVG/1.1/DTD/svg11.dtd">
<!-- Generated by graphviz version 2.38.0 (20140413.2041)
 -->
<!-- Title: main Pages: 1 -->
<svg width="383pt" height="137pt"
 viewBox="0.00 0.00 383.00 137.00" xmlns="http://www.w3.org/2000/svg" xmlns:xlink="http://www.w3.org/1999/xlink">
<g id="graph0" class="graph" transform="scale(1 1) rotate(0) translate(4 133)">
<title>main</title>
<polygon fill="white" stroke="none" points="-4,4 -4,-133 379,-133 379,4 -4,4"/>
<!-- Node1 -->
<g id="node1" class="node"><title>Node1</title>
<polygon fill="#bfbfbf" stroke="black" points="0,-55 0,-74 38,-74 38,-55 0,-55"/>
<text text-anchor="middle" x="19" y="-62" font-family="Helvetica,sans-Serif" font-size="10.00">main</text>
</g>
<!-- Node2 -->
<g id="node2" class="node"><title>Node2</title>
<g id="a_node2"><a xlink:href="classHandleHostBandwidth.html#a3ac97e6b91d5b74225dfb4b12a2c90a6" target="_top" xlink:title="sendBandwidthRates sends all of the VMs bandwidth ">
<polygon fill="white" stroke="black" points="74,-98.5 74,-128.5 190,-128.5 190,-98.5 74,-98.5"/>
<text text-anchor="start" x="82" y="-116.5" font-family="Helvetica,sans-Serif" font-size="10.00">HandleHostBandwidth</text>
<text text-anchor="middle" x="132" y="-105.5" font-family="Helvetica,sans-Serif" font-size="10.00">::sendBandwidthRates</text>
</a>
</g>
</g>
<!-- Node1&#45;&gt;Node2 -->
<g id="edge1" class="edge"><title>Node1&#45;&gt;Node2</title>
<path fill="none" stroke="midnightblue" d="M38.4216,-73.223C48.826,-78.1007 62.0935,-84.2391 74,-89.5 77.6523,-91.1137 81.4463,-92.7651 85.2637,-94.4091"/>
<polygon fill="midnightblue" stroke="midnightblue" points="84.1628,-97.7447 94.7339,-98.4547 86.9129,-91.3075 84.1628,-97.7447"/>
</g>
<!-- Node3 -->
<g id="node3" class="node"><title>Node3</title>
<g id="a_node3"><a xlink:href="classHandleHostBandwidth.html#a9c046a8b63e42ab6aece3e798bc497ad" target="_top" xlink:title="printBandwidths prints VM&#39;s bandwidth to the terminal ">
<polygon fill="white" stroke="black" points="75,-49.5 75,-79.5 189,-79.5 189,-49.5 75,-49.5"/>
<text text-anchor="start" x="83" y="-67.5" font-family="Helvetica,sans-Serif" font-size="10.00">HandleHostBandwidth</text>
<text text-anchor="middle" x="132" y="-56.5" font-family="Helvetica,sans-Serif" font-size="10.00">::logBandwidths</text>
</a>
</g>
</g>
<!-- Node1&#45;&gt;Node3 -->
<g id="edge2" class="edge"><title>Node1&#45;&gt;Node3</title>
<path fill="none" stroke="midnightblue" d="M38.3294,-64.5C45.8244,-64.5 54.9932,-64.5 64.6164,-64.5"/>
<polygon fill="midnightblue" stroke="midnightblue" points="64.7582,-68.0001 74.7582,-64.5 64.7581,-61.0001 64.7582,-68.0001"/>
</g>
<!-- Node5 -->
<g id="node5" class="node"><title>Node5</title>
<g id="a_node5"><a xlink:href="classHandleHostBandwidth.html#ac47bbf835631d45e09bf50b03dbbf696" target="_top" xlink:title="setRunning turn on the thread that receives the VMs bandwidth ">
<polygon fill="white" stroke="black" points="75,-0.5 75,-30.5 189,-30.5 189,-0.5 75,-0.5"/>
<text text-anchor="start" x="83" y="-18.5" font-family="Helvetica,sans-Serif" font-size="10.00">HandleHostBandwidth</text>
<text text-anchor="middle" x="132" y="-7.5" font-family="Helvetica,sans-Serif" font-size="10.00">::setRunning</text>
</a>
</g>
</g>
<!-- Node1&#45;&gt;Node5 -->
<g id="edge4" class="edge"><title>Node1&#45;&gt;Node5</title>
<path fill="none" stroke="midnightblue" d="M38.4216,-55.777C48.826,-50.8993 62.0935,-44.7609 74,-39.5 77.6523,-37.8863 81.4463,-36.2349 85.2637,-34.5909"/>
<polygon fill="midnightblue" stroke="midnightblue" points="86.9129,-37.6925 94.7339,-30.5453 84.1628,-31.2553 86.9129,-37.6925"/>
</g>
<!-- Node4 -->
<g id="node4" class="node"><title>Node4</title>
<g id="a_node4"><a xlink:href="classCommon_1_1LoggingHandler.html#a5c72b411fc450b086dcd31246e66bab0" target="_top" xlink:title="log method to log the given string ">
<polygon fill="white" stroke="black" points="226,-55 226,-74 375,-74 375,-55 226,-55"/>
<text text-anchor="middle" x="300.5" y="-62" font-family="Helvetica,sans-Serif" font-size="10.00">Common::LoggingHandler::log</text>
</a>
</g>
</g>
<!-- Node3&#45;&gt;Node4 -->
<g id="edge3" class="edge"><title>Node3&#45;&gt;Node4</title>
<path fill="none" stroke="midnightblue" d="M189.369,-64.5C197.869,-64.5 206.787,-64.5 215.714,-64.5"/>
<polygon fill="midnightblue" stroke="midnightblue" points="215.774,-68.0001 225.774,-64.5 215.774,-61.0001 215.774,-68.0001"/>
</g>
<!-- Node6 -->
<g id="node6" class="node"><title>Node6</title>
<g id="a_node6"><a xlink:href="classCommon_1_1ThreadHelper.html#ac08e2d5dcb09787954f11fd70cb2c919" target="_top" xlink:title="startDetachedThread ">
<polygon fill="white" stroke="black" points="240,-0.5 240,-30.5 361,-30.5 361,-0.5 240,-0.5"/>
<text text-anchor="start" x="248" y="-18.5" font-family="Helvetica,sans-Serif" font-size="10.00">Common::ThreadHelper</text>
<text text-anchor="middle" x="300.5" y="-7.5" font-family="Helvetica,sans-Serif" font-size="10.00">::startDetachedThread</text>
</a>
</g>
</g>
<!-- Node5&#45;&gt;Node6 -->
<g id="edge5" class="edge"><title>Node5&#45;&gt;Node6</title>
<path fill="none" stroke="midnightblue" d="M189.369,-15.5C202.3,-15.5 216.2,-15.5 229.624,-15.5"/>
<polygon fill="midnightblue" stroke="midnightblue" points="229.772,-19.0001 239.772,-15.5 229.772,-12.0001 229.772,-19.0001"/>
</g>
</g>
</svg>
