<?xml version="1.0" encoding="UTF-8" standalone="no"?>
<!DOCTYPE svg PUBLIC "-//W3C//DTD SVG 1.1//EN"
 "http://www.w3.org/Graphics/SVG/1.1/DTD/svg11.dtd">
<!-- Generated by graphviz version 2.38.0 (20140413.2041)
 -->
<!-- Title: main.cpp Pages: 1 -->
<svg width="621pt" height="196pt"
 viewBox="0.00 0.00 621.00 196.00" xmlns="http://www.w3.org/2000/svg" xmlns:xlink="http://www.w3.org/1999/xlink">
<g id="graph0" class="graph" transform="scale(1 1) rotate(0) translate(4 192)">
<title>main.cpp</title>
<polygon fill="white" stroke="none" points="-4,4 -4,-192 617,-192 617,4 -4,4"/>
<!-- Node1 -->
<g id="node1" class="node"><title>Node1</title>
<polygon fill="#bfbfbf" stroke="black" points="168,-168.5 168,-187.5 224,-187.5 224,-168.5 168,-168.5"/>
<text text-anchor="middle" x="196" y="-175.5" font-family="Helvetica,sans-Serif" font-size="10.00">main.cpp</text>
</g>
<!-- Node2 -->
<g id="node2" class="node"><title>Node2</title>
<polygon fill="white" stroke="#bfbfbf" points="0,-112.5 0,-131.5 50,-131.5 50,-112.5 0,-112.5"/>
<text text-anchor="middle" x="25" y="-119.5" font-family="Helvetica,sans-Serif" font-size="10.00">signal.h</text>
</g>
<!-- Node1&#45;&gt;Node2 -->
<g id="edge1" class="edge"><title>Node1&#45;&gt;Node2</title>
<path fill="none" stroke="midnightblue" d="M168.905,-168.444C139.417,-159.132 92.1766,-144.214 59.9247,-134.029"/>
<polygon fill="midnightblue" stroke="midnightblue" points="60.6113,-130.575 50.0215,-130.902 58.5033,-137.25 60.6113,-130.575"/>
</g>
<!-- Node3 -->
<g id="node3" class="node"><title>Node3</title>
<polygon fill="white" stroke="#bfbfbf" points="68,-112.5 68,-131.5 120,-131.5 120,-112.5 68,-112.5"/>
<text text-anchor="middle" x="94" y="-119.5" font-family="Helvetica,sans-Serif" font-size="10.00">sstream</text>
</g>
<!-- Node1&#45;&gt;Node3 -->
<g id="edge2" class="edge"><title>Node1&#45;&gt;Node3</title>
<path fill="none" stroke="midnightblue" d="M179.612,-168.324C163.329,-159.703 138.133,-146.364 119.284,-136.386"/>
<polygon fill="midnightblue" stroke="midnightblue" points="120.823,-133.24 110.347,-131.655 117.548,-139.427 120.823,-133.24"/>
</g>
<!-- Node4 -->
<g id="node4" class="node"><title>Node4</title>
<polygon fill="white" stroke="#bfbfbf" points="138,-112.5 138,-131.5 186,-131.5 186,-112.5 138,-112.5"/>
<text text-anchor="middle" x="162" y="-119.5" font-family="Helvetica,sans-Serif" font-size="10.00">stdlib.h</text>
</g>
<!-- Node1&#45;&gt;Node4 -->
<g id="edge3" class="edge"><title>Node1&#45;&gt;Node4</title>
<path fill="none" stroke="midnightblue" d="M190.386,-168.083C185.633,-160.534 178.682,-149.495 172.848,-140.23"/>
<polygon fill="midnightblue" stroke="midnightblue" points="175.8,-138.349 167.51,-131.751 169.876,-142.078 175.8,-138.349"/>
</g>
<!-- Node5 -->
<g id="node5" class="node"><title>Node5</title>
<polygon fill="white" stroke="#bfbfbf" points="204.5,-112.5 204.5,-131.5 255.5,-131.5 255.5,-112.5 204.5,-112.5"/>
<text text-anchor="middle" x="230" y="-119.5" font-family="Helvetica,sans-Serif" font-size="10.00">unistd.h</text>
</g>
<!-- Node1&#45;&gt;Node5 -->
<g id="edge4" class="edge"><title>Node1&#45;&gt;Node5</title>
<path fill="none" stroke="midnightblue" d="M201.614,-168.083C206.367,-160.534 213.318,-149.495 219.152,-140.23"/>
<polygon fill="midnightblue" stroke="midnightblue" points="222.124,-142.078 224.49,-131.751 216.2,-138.349 222.124,-142.078"/>
</g>
<!-- Node6 -->
<g id="node6" class="node"><title>Node6</title>
<polygon fill="white" stroke="#bfbfbf" points="274,-112.5 274,-131.5 320,-131.5 320,-112.5 274,-112.5"/>
<text text-anchor="middle" x="297" y="-119.5" font-family="Helvetica,sans-Serif" font-size="10.00">stdio.h</text>
</g>
<!-- Node1&#45;&gt;Node6 -->
<g id="edge5" class="edge"><title>Node1&#45;&gt;Node6</title>
<path fill="none" stroke="midnightblue" d="M212.227,-168.324C228.351,-159.703 253.3,-146.364 271.964,-136.386"/>
<polygon fill="midnightblue" stroke="midnightblue" points="273.644,-139.456 280.813,-131.655 270.344,-133.283 273.644,-139.456"/>
</g>
<!-- Node7 -->
<g id="node7" class="node"><title>Node7</title>
<g id="a_node7"><a xlink:href="HandleHostBandwidth_8h.html" target="_top" xlink:title="HandleHostBandwidth.h">
<polygon fill="white" stroke="black" points="338,-112.5 338,-131.5 460,-131.5 460,-112.5 338,-112.5"/>
<text text-anchor="middle" x="399" y="-119.5" font-family="Helvetica,sans-Serif" font-size="10.00">HandleHostBandwidth.h</text>
</a>
</g>
</g>
<!-- Node1&#45;&gt;Node7 -->
<g id="edge6" class="edge"><title>Node1&#45;&gt;Node7</title>
<path fill="none" stroke="midnightblue" d="M224.226,-169.492C258.775,-160.301 317.575,-144.66 357.331,-134.084"/>
<polygon fill="midnightblue" stroke="midnightblue" points="358.238,-137.465 367.002,-131.512 356.438,-130.7 358.238,-137.465"/>
</g>
<!-- Node8 -->
<g id="node8" class="node"><title>Node8</title>
<polygon fill="white" stroke="#bfbfbf" points="237,-56.5 237,-75.5 299,-75.5 299,-56.5 237,-56.5"/>
<text text-anchor="middle" x="268" y="-63.5" font-family="Helvetica,sans-Serif" font-size="10.00">arpa/inet.h</text>
</g>
<!-- Node7&#45;&gt;Node8 -->
<g id="edge7" class="edge"><title>Node7&#45;&gt;Node8</title>
<path fill="none" stroke="midnightblue" d="M378.243,-112.444C356.684,-103.557 322.737,-89.5632 298.206,-79.4514"/>
<polygon fill="midnightblue" stroke="midnightblue" points="299.239,-76.0917 288.66,-75.5164 296.572,-82.5634 299.239,-76.0917"/>
</g>
<!-- Node9 -->
<g id="node9" class="node"><title>Node9</title>
<polygon fill="white" stroke="#bfbfbf" points="317,-56.5 317,-75.5 363,-75.5 363,-56.5 317,-56.5"/>
<text text-anchor="middle" x="340" y="-63.5" font-family="Helvetica,sans-Serif" font-size="10.00">atomic</text>
</g>
<!-- Node7&#45;&gt;Node9 -->
<g id="edge8" class="edge"><title>Node7&#45;&gt;Node9</title>
<path fill="none" stroke="midnightblue" d="M389.521,-112.324C380.799,-104.341 367.657,-92.3128 357.102,-82.6529"/>
<polygon fill="midnightblue" stroke="midnightblue" points="359.392,-80.0036 349.652,-75.8339 354.666,-85.1674 359.392,-80.0036"/>
</g>
<!-- Node10 -->
<g id="node10" class="node"><title>Node10</title>
<polygon fill="white" stroke="#bfbfbf" points="381.5,-56.5 381.5,-75.5 416.5,-75.5 416.5,-56.5 381.5,-56.5"/>
<text text-anchor="middle" x="399" y="-63.5" font-family="Helvetica,sans-Serif" font-size="10.00">map</text>
</g>
<!-- Node7&#45;&gt;Node10 -->
<g id="edge9" class="edge"><title>Node7&#45;&gt;Node10</title>
<path fill="none" stroke="midnightblue" d="M399,-112.083C399,-105.006 399,-94.8611 399,-85.9865"/>
<polygon fill="midnightblue" stroke="midnightblue" points="402.5,-85.751 399,-75.7511 395.5,-85.7511 402.5,-85.751"/>
</g>
<!-- Node11 -->
<g id="node11" class="node"><title>Node11</title>
<polygon fill="white" stroke="#bfbfbf" points="434.5,-56.5 434.5,-75.5 491.5,-75.5 491.5,-56.5 434.5,-56.5"/>
<text text-anchor="middle" x="463" y="-63.5" font-family="Helvetica,sans-Serif" font-size="10.00">pthread.h</text>
</g>
<!-- Node7&#45;&gt;Node11 -->
<g id="edge10" class="edge"><title>Node7&#45;&gt;Node11</title>
<path fill="none" stroke="midnightblue" d="M409.283,-112.324C418.836,-104.263 433.28,-92.0765 444.784,-82.3695"/>
<polygon fill="midnightblue" stroke="midnightblue" points="447.144,-84.9577 452.53,-75.8339 442.63,-79.6076 447.144,-84.9577"/>
</g>
<!-- Node12 -->
<g id="node12" class="node"><title>Node12</title>
<g id="a_node12"><a xlink:href="LoggingHandler_8h.html" target="_top" xlink:title="LoggingHandler.h">
<polygon fill="white" stroke="black" points="510,-56.5 510,-75.5 602,-75.5 602,-56.5 510,-56.5"/>
<text text-anchor="middle" x="556" y="-63.5" font-family="Helvetica,sans-Serif" font-size="10.00">LoggingHandler.h</text>
</a>
</g>
</g>
<!-- Node7&#45;&gt;Node12 -->
<g id="edge11" class="edge"><title>Node7&#45;&gt;Node12</title>
<path fill="none" stroke="midnightblue" d="M423.877,-112.444C450.289,-103.359 492.215,-88.9388 521.742,-78.7831"/>
<polygon fill="midnightblue" stroke="midnightblue" points="522.921,-82.0787 531.239,-75.5164 520.645,-75.4593 522.921,-82.0787"/>
</g>
<!-- Node13 -->
<g id="node13" class="node"><title>Node13</title>
<polygon fill="white" stroke="#bfbfbf" points="503.5,-0.5 503.5,-19.5 544.5,-19.5 544.5,-0.5 503.5,-0.5"/>
<text text-anchor="middle" x="524" y="-7.5" font-family="Helvetica,sans-Serif" font-size="10.00">string</text>
</g>
<!-- Node12&#45;&gt;Node13 -->
<g id="edge12" class="edge"><title>Node12&#45;&gt;Node13</title>
<path fill="none" stroke="midnightblue" d="M550.716,-56.083C546.289,-48.6127 539.837,-37.7244 534.382,-28.5199"/>
<polygon fill="midnightblue" stroke="midnightblue" points="537.295,-26.5697 529.186,-19.7511 531.273,-30.1383 537.295,-26.5697"/>
</g>
<!-- Node14 -->
<g id="node14" class="node"><title>Node14</title>
<polygon fill="white" stroke="#bfbfbf" points="563,-0.5 563,-19.5 613,-19.5 613,-0.5 563,-0.5"/>
<text text-anchor="middle" x="588" y="-7.5" font-family="Helvetica,sans-Serif" font-size="10.00">fstream</text>
</g>
<!-- Node12&#45;&gt;Node14 -->
<g id="edge13" class="edge"><title>Node12&#45;&gt;Node14</title>
<path fill="none" stroke="midnightblue" d="M561.284,-56.083C565.711,-48.6127 572.163,-37.7244 577.618,-28.5199"/>
<polygon fill="midnightblue" stroke="midnightblue" points="580.727,-30.1383 582.814,-19.7511 574.705,-26.5697 580.727,-30.1383"/>
</g>
</g>
</svg>
