<?xml version="1.0" encoding="UTF-8" standalone="no"?>
<!DOCTYPE svg PUBLIC "-//W3C//DTD SVG 1.1//EN"
 "http://www.w3.org/Graphics/SVG/1.1/DTD/svg11.dtd">
<!-- Generated by graphviz version 2.38.0 (20140413.2041)
 -->
<!-- Title: TestHandler::CommandLineArgumentParser::parseCommandLineArguments Pages: 1 -->
<svg width="329pt" height="66pt"
 viewBox="0.00 0.00 329.00 66.00" xmlns="http://www.w3.org/2000/svg" xmlns:xlink="http://www.w3.org/1999/xlink">
<g id="graph0" class="graph" transform="scale(1 1) rotate(0) translate(4 62)">
<title>TestHandler::CommandLineArgumentParser::parseCommandLineArguments</title>
<polygon fill="white" stroke="none" points="-4,4 -4,-62 325,-62 325,4 -4,4"/>
<!-- Node1 -->
<g id="node1" class="node"><title>Node1</title>
<polygon fill="#bfbfbf" stroke="black" points="0,-8.5 0,-49.5 162,-49.5 162,-8.5 0,-8.5"/>
<text text-anchor="start" x="8" y="-37.5" font-family="Helvetica,sans-Serif" font-size="10.00">TestHandler::CommandLine</text>
<text text-anchor="start" x="8" y="-26.5" font-family="Helvetica,sans-Serif" font-size="10.00">ArgumentParser::parseCommand</text>
<text text-anchor="middle" x="81" y="-15.5" font-family="Helvetica,sans-Serif" font-size="10.00">LineArguments</text>
</g>
<!-- Node2 -->
<g id="node2" class="node"><title>Node2</title>
<g id="a_node2"><a xlink:href="namespaceTestHandler.html#a3344b72fe3d4a362f5ba33215107b87a" target="_top" xlink:title="TestHandler::printUsage">
<polygon fill="white" stroke="black" points="198,-38.5 198,-57.5 321,-57.5 321,-38.5 198,-38.5"/>
<text text-anchor="middle" x="259.5" y="-45.5" font-family="Helvetica,sans-Serif" font-size="10.00">TestHandler::printUsage</text>
</a>
</g>
</g>
<!-- Node1&#45;&gt;Node2 -->
<g id="edge1" class="edge"><title>Node1&#45;&gt;Node2</title>
<path fill="none" stroke="midnightblue" d="M162.245,-37.6383C170.726,-38.5512 179.307,-39.4749 187.67,-40.3752"/>
<polygon fill="midnightblue" stroke="midnightblue" points="187.425,-43.869 197.742,-41.4595 188.174,-36.9092 187.425,-43.869"/>
</g>
<!-- Node3 -->
<g id="node3" class="node"><title>Node3</title>
<g id="a_node3"><a xlink:href="namespaceTestHandler.html#a27971716e8add2012dbc8cd35916a387" target="_top" xlink:title="TestHandler::printVector">
<polygon fill="white" stroke="black" points="198,-0.5 198,-19.5 321,-19.5 321,-0.5 198,-0.5"/>
<text text-anchor="middle" x="259.5" y="-7.5" font-family="Helvetica,sans-Serif" font-size="10.00">TestHandler::printVector</text>
</a>
</g>
</g>
<!-- Node1&#45;&gt;Node3 -->
<g id="edge2" class="edge"><title>Node1&#45;&gt;Node3</title>
<path fill="none" stroke="midnightblue" d="M162.245,-20.3617C170.726,-19.4488 179.307,-18.5251 187.67,-17.6248"/>
<polygon fill="midnightblue" stroke="midnightblue" points="188.174,-21.0908 197.742,-16.5405 187.425,-14.131 188.174,-21.0908"/>
</g>
</g>
</svg>
