<?xml version="1.0" encoding="UTF-8" standalone="no"?>
<!DOCTYPE svg PUBLIC "-//W3C//DTD SVG 1.1//EN"
 "http://www.w3.org/Graphics/SVG/1.1/DTD/svg11.dtd">
<!-- Generated by graphviz version 2.38.0 (20140413.2041)
 -->
<!-- Title: riplpox.riplpox.Switch.install_multiple Pages: 1 -->
<svg width="490pt" height="39pt"
 viewBox="0.00 0.00 490.00 39.00" xmlns="http://www.w3.org/2000/svg" xmlns:xlink="http://www.w3.org/1999/xlink">
<g id="graph0" class="graph" transform="scale(1 1) rotate(0) translate(4 35)">
<title>riplpox.riplpox.Switch.install_multiple</title>
<polygon fill="white" stroke="none" points="-4,4 -4,-35 486,-35 486,4 -4,4"/>
<!-- Node1 -->
<g id="node1" class="node"><title>Node1</title>
<polygon fill="#bfbfbf" stroke="black" points="0,-0.5 0,-30.5 138,-30.5 138,-0.5 0,-0.5"/>
<text text-anchor="start" x="8" y="-18.5" font-family="Helvetica,sans-Serif" font-size="10.00">riplpox.riplpox.Switch.install</text>
<text text-anchor="middle" x="69" y="-7.5" font-family="Helvetica,sans-Serif" font-size="10.00">_multiple</text>
</g>
<!-- Node2 -->
<g id="node2" class="node"><title>Node2</title>
<g id="a_node2"><a xlink:href="classriplpox_1_1riplpox_1_1Switch.html#a6aa06e7adf5bd71cfe1440f6b62449e2" target="_top" xlink:title="riplpox.riplpox.Switch.install">
<polygon fill="white" stroke="black" points="174,-6 174,-25 312,-25 312,-6 174,-6"/>
<text text-anchor="middle" x="243" y="-13" font-family="Helvetica,sans-Serif" font-size="10.00">riplpox.riplpox.Switch.install</text>
</a>
</g>
</g>
<!-- Node1&#45;&gt;Node2 -->
<g id="edge1" class="edge"><title>Node1&#45;&gt;Node2</title>
<path fill="none" stroke="midnightblue" d="M148.637,-15.5C157.025,-15.5 165.508,-15.5 173.762,-15.5"/>
<polygon fill="midnightblue" stroke="midnightblue" points="148.473,-12.0001 138.473,-15.5 148.473,-19.0001 148.473,-12.0001"/>
</g>
<!-- Node3 -->
<g id="node3" class="node"><title>Node3</title>
<g id="a_node3"><a xlink:href="classriplpox_1_1riplpox_1_1Switch.html#af3ab7eefe219f18d91dba6595b2d2f1c" target="_top" xlink:title="riplpox.riplpox.Switch.send\l_packet_bufid">
<polygon fill="white" stroke="black" points="348,-0.5 348,-30.5 482,-30.5 482,-0.5 348,-0.5"/>
<text text-anchor="start" x="356" y="-18.5" font-family="Helvetica,sans-Serif" font-size="10.00">riplpox.riplpox.Switch.send</text>
<text text-anchor="middle" x="415" y="-7.5" font-family="Helvetica,sans-Serif" font-size="10.00">_packet_bufid</text>
</a>
</g>
</g>
<!-- Node2&#45;&gt;Node3 -->
<g id="edge2" class="edge"><title>Node2&#45;&gt;Node3</title>
<path fill="none" stroke="midnightblue" d="M322.428,-15.5C330.896,-15.5 339.451,-15.5 347.754,-15.5"/>
<polygon fill="midnightblue" stroke="midnightblue" points="322.166,-12.0001 312.166,-15.5 322.166,-19.0001 322.166,-12.0001"/>
</g>
</g>
</svg>
