<?xml version="1.0" encoding="UTF-8" standalone="no"?>
<!DOCTYPE svg PUBLIC "-//W3C//DTD SVG 1.1//EN"
 "http://www.w3.org/Graphics/SVG/1.1/DTD/svg11.dtd">
<!-- Generated by graphviz version 2.38.0 (20140413.2041)
 -->
<!-- Title: BandwidthCalculator::ecn Pages: 1 -->
<svg width="321pt" height="78pt"
 viewBox="0.00 0.00 321.00 77.50" xmlns="http://www.w3.org/2000/svg" xmlns:xlink="http://www.w3.org/1999/xlink">
<g id="graph0" class="graph" transform="scale(1 1) rotate(0) translate(4 73.5)">
<title>BandwidthCalculator::ecn</title>
<polygon fill="white" stroke="none" points="-4,4 -4,-73.5 317,-73.5 317,4 -4,4"/>
<!-- Node1 -->
<g id="node1" class="node"><title>Node1</title>
<polygon fill="#bfbfbf" stroke="black" points="0,-22.5 0,-41.5 128,-41.5 128,-22.5 0,-22.5"/>
<text text-anchor="middle" x="64" y="-29.5" font-family="Helvetica,sans-Serif" font-size="10.00">BandwidthCalculator::ecn</text>
</g>
<!-- Node2 -->
<g id="node2" class="node"><title>Node2</title>
<g id="a_node2"><a xlink:href="classCommon_1_1Math_1_1SimpleRateCalculator.html#a45f717e9f919cbc3110685841c3a7baf" target="_top" xlink:title="calculateRate calculates the rate and returns it ">
<polygon fill="white" stroke="black" points="168,-39 168,-69 309,-69 309,-39 168,-39"/>
<text text-anchor="start" x="176" y="-57" font-family="Helvetica,sans-Serif" font-size="10.00">Common::Math::SimpleRate</text>
<text text-anchor="middle" x="238.5" y="-46" font-family="Helvetica,sans-Serif" font-size="10.00">Calculator::calculateRate</text>
</a>
</g>
</g>
<!-- Node1&#45;&gt;Node2 -->
<g id="edge1" class="edge"><title>Node1&#45;&gt;Node2</title>
<path fill="none" stroke="midnightblue" d="M128.253,-40.0671C137.816,-41.2867 147.786,-42.5582 157.644,-43.8154"/>
<polygon fill="midnightblue" stroke="midnightblue" points="157.492,-47.3243 167.854,-45.1176 158.377,-40.3806 157.492,-47.3243"/>
</g>
<!-- Node3 -->
<g id="node3" class="node"><title>Node3</title>
<g id="a_node3"><a xlink:href="classCommon_1_1LoggingHandler.html#a5c72b411fc450b086dcd31246e66bab0" target="_top" xlink:title="log method to log the given string ">
<polygon fill="white" stroke="black" points="164,-0.5 164,-19.5 313,-19.5 313,-0.5 164,-0.5"/>
<text text-anchor="middle" x="238.5" y="-7.5" font-family="Helvetica,sans-Serif" font-size="10.00">Common::LoggingHandler::log</text>
</a>
</g>
</g>
<!-- Node1&#45;&gt;Node3 -->
<g id="edge2" class="edge"><title>Node1&#45;&gt;Node3</title>
<path fill="none" stroke="midnightblue" d="M128.253,-23.9329C136.547,-22.8752 145.146,-21.7785 153.713,-20.6859"/>
<polygon fill="midnightblue" stroke="midnightblue" points="154.258,-24.1448 163.735,-19.4078 153.372,-17.2011 154.258,-24.1448"/>
</g>
</g>
</svg>
