<?xml version="1.0" encoding="UTF-8" standalone="no"?>
<!DOCTYPE svg PUBLIC "-//W3C//DTD SVG 1.1//EN"
 "http://www.w3.org/Graphics/SVG/1.1/DTD/svg11.dtd">
<!-- Generated by graphviz version 2.38.0 (20140413.2041)
 -->
<!-- Title: TestHandler::TestBaseClass::impl_runTest Pages: 1 -->
<svg width="509pt" height="61pt"
 viewBox="0.00 0.00 509.00 61.00" xmlns="http://www.w3.org/2000/svg" xmlns:xlink="http://www.w3.org/1999/xlink">
<g id="graph0" class="graph" transform="scale(1 1) rotate(0) translate(4 57)">
<title>TestHandler::TestBaseClass::impl_runTest</title>
<polygon fill="white" stroke="none" points="-4,4 -4,-57 505,-57 505,4 -4,4"/>
<!-- Node1 -->
<g id="node1" class="node"><title>Node1</title>
<polygon fill="#bfbfbf" stroke="black" points="0,-0.5 0,-30.5 143,-30.5 143,-0.5 0,-0.5"/>
<text text-anchor="start" x="8" y="-18.5" font-family="Helvetica,sans-Serif" font-size="10.00">TestHandler::TestBaseClass</text>
<text text-anchor="middle" x="71.5" y="-7.5" font-family="Helvetica,sans-Serif" font-size="10.00">::impl_runTest</text>
</g>
<!-- Node2 -->
<g id="node2" class="node"><title>Node2</title>
<g id="a_node2"><a xlink:href="classTestHandler_1_1TestBaseClass.html#aec41f0f6fb28166c4e39455d6c7ba2e6" target="_top" xlink:title="TestHandler::TestBaseClass\l::runTest">
<polygon fill="white" stroke="black" points="179,-22.5 179,-52.5 322,-52.5 322,-22.5 179,-22.5"/>
<text text-anchor="start" x="187" y="-40.5" font-family="Helvetica,sans-Serif" font-size="10.00">TestHandler::TestBaseClass</text>
<text text-anchor="middle" x="250.5" y="-29.5" font-family="Helvetica,sans-Serif" font-size="10.00">::runTest</text>
</a>
</g>
</g>
<!-- Node1&#45;&gt;Node2 -->
<g id="edge1" class="edge"><title>Node1&#45;&gt;Node2</title>
<path fill="none" stroke="midnightblue" d="M153.214,-25.5323C161.784,-26.5975 170.453,-27.6749 178.894,-28.7241"/>
<polygon fill="midnightblue" stroke="midnightblue" points="153.574,-22.0501 143.218,-24.2898 152.71,-28.9966 153.574,-22.0501"/>
</g>
<!-- Node3 -->
<g id="node3" class="node"><title>Node3</title>
<g id="a_node3"><a xlink:href="classTestHandler_1_1TestBaseClass.html#a9271d8e640bf545f54f998156dcd90b0" target="_top" xlink:title="TestHandler::TestBaseClass\l::~TestBaseClass">
<polygon fill="white" stroke="black" points="358,-0.5 358,-30.5 501,-30.5 501,-0.5 358,-0.5"/>
<text text-anchor="start" x="366" y="-18.5" font-family="Helvetica,sans-Serif" font-size="10.00">TestHandler::TestBaseClass</text>
<text text-anchor="middle" x="429.5" y="-7.5" font-family="Helvetica,sans-Serif" font-size="10.00">::~TestBaseClass</text>
</a>
</g>
</g>
<!-- Node1&#45;&gt;Node3 -->
<g id="edge3" class="edge"><title>Node1&#45;&gt;Node3</title>
<path fill="none" stroke="midnightblue" d="M153.371,-13.8222C162.022,-13.6902 170.693,-13.578 179,-13.5 242.553,-12.9033 258.447,-12.9033 322,-13.5 333.558,-13.6085 345.82,-13.7832 357.753,-13.9854"/>
<polygon fill="midnightblue" stroke="midnightblue" points="153.189,-10.3246 143.247,-13.9854 153.302,-17.3237 153.189,-10.3246"/>
</g>
<!-- Node2&#45;&gt;Node3 -->
<g id="edge2" class="edge"><title>Node2&#45;&gt;Node3</title>
<path fill="none" stroke="midnightblue" d="M332.214,-27.4677C340.784,-26.4025 349.453,-25.3251 357.894,-24.2759"/>
<polygon fill="midnightblue" stroke="midnightblue" points="331.71,-24.0034 322.218,-28.7102 332.574,-30.9499 331.71,-24.0034"/>
</g>
</g>
</svg>
