<?xml version="1.0" encoding="UTF-8" standalone="no"?>
<!DOCTYPE svg PUBLIC "-//W3C//DTD SVG 1.1//EN"
 "http://www.w3.org/Graphics/SVG/1.1/DTD/svg11.dtd">
<!-- Generated by graphviz version 2.38.0 (20140413.2041)
 -->
<!-- Title: WCEnabler::BandwidthCalculator::ecn Pages: 1 -->
<svg width="378pt" height="78pt"
 viewBox="0.00 0.00 378.00 77.50" xmlns="http://www.w3.org/2000/svg" xmlns:xlink="http://www.w3.org/1999/xlink">
<g id="graph0" class="graph" transform="scale(1 1) rotate(0) translate(4 73.5)">
<title>WCEnabler::BandwidthCalculator::ecn</title>
<polygon fill="white" stroke="none" points="-4,4 -4,-73.5 374,-73.5 374,4 -4,4"/>
<!-- Node1 -->
<g id="node1" class="node"><title>Node1</title>
<polygon fill="#bfbfbf" stroke="black" points="0,-22.5 0,-41.5 185,-41.5 185,-22.5 0,-22.5"/>
<text text-anchor="middle" x="92.5" y="-29.5" font-family="Helvetica,sans-Serif" font-size="10.00">WCEnabler::BandwidthCalculator::ecn</text>
</g>
<!-- Node2 -->
<g id="node2" class="node"><title>Node2</title>
<g id="a_node2"><a xlink:href="classCommon_1_1Math_1_1SimpleRateCalculator.html#a45f717e9f919cbc3110685841c3a7baf" target="_top" xlink:title="calculateRate calculates the rate and returns it ">
<polygon fill="white" stroke="black" points="225,-39 225,-69 366,-69 366,-39 225,-39"/>
<text text-anchor="start" x="233" y="-57" font-family="Helvetica,sans-Serif" font-size="10.00">Common::Math::SimpleRate</text>
<text text-anchor="middle" x="295.5" y="-46" font-family="Helvetica,sans-Serif" font-size="10.00">Calculator::calculateRate</text>
</a>
</g>
</g>
<!-- Node1&#45;&gt;Node2 -->
<g id="edge1" class="edge"><title>Node1&#45;&gt;Node2</title>
<path fill="none" stroke="midnightblue" d="M180.492,-41.5216C191.865,-42.7663 203.472,-44.0368 214.718,-45.2677"/>
<polygon fill="midnightblue" stroke="midnightblue" points="214.605,-48.7761 224.927,-46.385 215.367,-41.8177 214.605,-48.7761"/>
</g>
<!-- Node3 -->
<g id="node3" class="node"><title>Node3</title>
<g id="a_node3"><a xlink:href="classCommon_1_1LoggingHandler.html#a5c72b411fc450b086dcd31246e66bab0" target="_top" xlink:title="log method to log the given string ">
<polygon fill="white" stroke="black" points="221,-0.5 221,-19.5 370,-19.5 370,-0.5 221,-0.5"/>
<text text-anchor="middle" x="295.5" y="-7.5" font-family="Helvetica,sans-Serif" font-size="10.00">Common::LoggingHandler::log</text>
</a>
</g>
</g>
<!-- Node1&#45;&gt;Node3 -->
<g id="edge2" class="edge"><title>Node1&#45;&gt;Node3</title>
<path fill="none" stroke="midnightblue" d="M180.492,-22.4784C190.598,-21.3723 200.89,-20.2459 210.948,-19.145"/>
<polygon fill="midnightblue" stroke="midnightblue" points="211.353,-22.6216 220.913,-18.0543 210.592,-15.6632 211.353,-22.6216"/>
</g>
</g>
</svg>
