<?xml version="1.0" encoding="UTF-8" standalone="no"?>
<!DOCTYPE svg PUBLIC "-//W3C//DTD SVG 1.1//EN"
 "http://www.w3.org/Graphics/SVG/1.1/DTD/svg11.dtd">
<!-- Generated by graphviz version 2.38.0 (20140413.2041)
 -->
<!-- Title: FatTreeTopology.StructuredTopo.down_edges Pages: 1 -->
<svg width="494pt" height="88pt"
 viewBox="0.00 0.00 494.00 88.00" xmlns="http://www.w3.org/2000/svg" xmlns:xlink="http://www.w3.org/1999/xlink">
<g id="graph0" class="graph" transform="scale(1 1) rotate(0) translate(4 84)">
<title>FatTreeTopology.StructuredTopo.down_edges</title>
<polygon fill="white" stroke="none" points="-4,4 -4,-84 490,-84 490,4 -4,4"/>
<!-- Node1 -->
<g id="node1" class="node"><title>Node1</title>
<polygon fill="#bfbfbf" stroke="black" points="0,-24.5 0,-54.5 138,-54.5 138,-24.5 0,-24.5"/>
<text text-anchor="start" x="8" y="-42.5" font-family="Helvetica,sans-Serif" font-size="10.00">FatTreeTopology.Structured</text>
<text text-anchor="middle" x="69" y="-31.5" font-family="Helvetica,sans-Serif" font-size="10.00">Topo.down_edges</text>
</g>
<!-- Node2 -->
<g id="node2" class="node"><title>Node2</title>
<g id="a_node2"><a xlink:href="classFatTreeTopology_1_1StructuredTopo.html#a4fe1b0847cab28d8d03139acb660d916" target="_top" xlink:title="FatTreeTopology.Structured\lTopo.down_nodes">
<polygon fill="white" stroke="black" points="174,-49.5 174,-79.5 312,-79.5 312,-49.5 174,-49.5"/>
<text text-anchor="start" x="182" y="-67.5" font-family="Helvetica,sans-Serif" font-size="10.00">FatTreeTopology.Structured</text>
<text text-anchor="middle" x="243" y="-56.5" font-family="Helvetica,sans-Serif" font-size="10.00">Topo.down_nodes</text>
</a>
</g>
</g>
<!-- Node1&#45;&gt;Node2 -->
<g id="edge1" class="edge"><title>Node1&#45;&gt;Node2</title>
<path fill="none" stroke="midnightblue" d="M138.473,-49.4525C146.732,-50.6529 155.216,-51.886 163.602,-53.105"/>
<polygon fill="midnightblue" stroke="midnightblue" points="163.363,-56.6069 173.762,-54.5817 164.37,-49.6797 163.363,-56.6069"/>
</g>
<!-- Node4 -->
<g id="node4" class="node"><title>Node4</title>
<g id="a_node4"><a xlink:href="classFatTreeTopology_1_1StructuredTopo.html#a56ee1b765bef5b11ffe40608e901b8ee" target="_top" xlink:title="FatTreeTopology.Structured\lTopo.draw">
<polygon fill="white" stroke="black" points="174,-0.5 174,-30.5 312,-30.5 312,-0.5 174,-0.5"/>
<text text-anchor="start" x="182" y="-18.5" font-family="Helvetica,sans-Serif" font-size="10.00">FatTreeTopology.Structured</text>
<text text-anchor="middle" x="243" y="-7.5" font-family="Helvetica,sans-Serif" font-size="10.00">Topo.draw</text>
</a>
</g>
</g>
<!-- Node1&#45;&gt;Node4 -->
<g id="edge3" class="edge"><title>Node1&#45;&gt;Node4</title>
<path fill="none" stroke="midnightblue" d="M138.473,-29.9456C146.732,-28.7932 155.216,-27.6094 163.602,-26.4392"/>
<polygon fill="midnightblue" stroke="midnightblue" points="164.342,-29.87 173.762,-25.0215 163.375,-22.9371 164.342,-29.87"/>
</g>
<!-- Node3 -->
<g id="node3" class="node"><title>Node3</title>
<g id="a_node3"><a xlink:href="classFatTreeTopology_1_1StructuredTopo.html#a4a0ec7d9ee5f97de58d7da96fd2e7211" target="_top" xlink:title="FatTreeTopology.Structured\lTopo.layer">
<polygon fill="white" stroke="black" points="348,-49.5 348,-79.5 486,-79.5 486,-49.5 348,-49.5"/>
<text text-anchor="start" x="356" y="-67.5" font-family="Helvetica,sans-Serif" font-size="10.00">FatTreeTopology.Structured</text>
<text text-anchor="middle" x="417" y="-56.5" font-family="Helvetica,sans-Serif" font-size="10.00">Topo.layer</text>
</a>
</g>
</g>
<!-- Node2&#45;&gt;Node3 -->
<g id="edge2" class="edge"><title>Node2&#45;&gt;Node3</title>
<path fill="none" stroke="midnightblue" d="M312.473,-64.5C320.732,-64.5 329.216,-64.5 337.602,-64.5"/>
<polygon fill="midnightblue" stroke="midnightblue" points="337.762,-68.0001 347.762,-64.5 337.762,-61.0001 337.762,-68.0001"/>
</g>
</g>
</svg>
