<?xml version="1.0" encoding="UTF-8" standalone="no"?>
<!DOCTYPE svg PUBLIC "-//W3C//DTD SVG 1.1//EN"
 "http://www.w3.org/Graphics/SVG/1.1/DTD/svg11.dtd">
<!-- Generated by graphviz version 2.38.0 (20140413.2041)
 -->
<!-- Title: Common::LoggingHandler::log Pages: 1 -->
<svg width="495pt" height="165pt"
 viewBox="0.00 0.00 495.00 165.00" xmlns="http://www.w3.org/2000/svg" xmlns:xlink="http://www.w3.org/1999/xlink">
<g id="graph0" class="graph" transform="scale(1 1) rotate(0) translate(4 161)">
<title>Common::LoggingHandler::log</title>
<polygon fill="white" stroke="none" points="-4,4 -4,-161 491,-161 491,4 -4,4"/>
<!-- Node1 -->
<g id="node1" class="node"><title>Node1</title>
<polygon fill="#bfbfbf" stroke="black" points="0,-69 0,-88 149,-88 149,-69 0,-69"/>
<text text-anchor="middle" x="74.5" y="-76" font-family="Helvetica,sans-Serif" font-size="10.00">Common::LoggingHandler::log</text>
</g>
<!-- Node2 -->
<g id="node2" class="node"><title>Node2</title>
<g id="a_node2"><a xlink:href="classBandwidthCalculator.html#a0b0d37a844a376651a1cee8f0b506d04" target="_top" xlink:title="BandwidthCalculator constructor. ">
<polygon fill="white" stroke="black" points="192.5,-126.5 192.5,-156.5 305.5,-156.5 305.5,-126.5 192.5,-126.5"/>
<text text-anchor="start" x="200.5" y="-144.5" font-family="Helvetica,sans-Serif" font-size="10.00">BandwidthCalculator</text>
<text text-anchor="middle" x="249" y="-133.5" font-family="Helvetica,sans-Serif" font-size="10.00">::BandwidthCalculator</text>
</a>
</g>
</g>
<!-- Node1&#45;&gt;Node2 -->
<g id="edge1" class="edge"><title>Node1&#45;&gt;Node2</title>
<path fill="none" stroke="midnightblue" d="M111.413,-91.616C139.197,-101.763 177.703,-115.826 206.75,-126.435"/>
<polygon fill="midnightblue" stroke="midnightblue" points="112.293,-88.2113 101.699,-88.0683 109.891,-94.7866 112.293,-88.2113"/>
</g>
<!-- Node3 -->
<g id="node3" class="node"><title>Node3</title>
<g id="a_node3"><a xlink:href="classBandwidthCalculator.html#a49e5a450975798a5659804c6f893e835" target="_top" xlink:title="ecn getter ">
<polygon fill="white" stroke="black" points="185,-88 185,-107 313,-107 313,-88 185,-88"/>
<text text-anchor="middle" x="249" y="-95" font-family="Helvetica,sans-Serif" font-size="10.00">BandwidthCalculator::ecn</text>
</a>
</g>
</g>
<!-- Node1&#45;&gt;Node3 -->
<g id="edge2" class="edge"><title>Node1&#45;&gt;Node3</title>
<path fill="none" stroke="midnightblue" d="M159.257,-87.7254C167.893,-88.6766 176.561,-89.6314 184.917,-90.5517"/>
<polygon fill="midnightblue" stroke="midnightblue" points="159.479,-84.2288 149.156,-86.6128 158.713,-91.1867 159.479,-84.2288"/>
</g>
<!-- Node4 -->
<g id="node4" class="node"><title>Node4</title>
<g id="a_node4"><a xlink:href="classBandwidthCommunicator.html#a29f5f37991ce052d9504fe26d350aed4" target="_top" xlink:title="BandwidthCommunicator\l::~BandwidthCommunicator">
<polygon fill="white" stroke="black" points="349,-63.5 349,-93.5 487,-93.5 487,-63.5 349,-63.5"/>
<text text-anchor="start" x="357" y="-81.5" font-family="Helvetica,sans-Serif" font-size="10.00">BandwidthCommunicator</text>
<text text-anchor="middle" x="418" y="-70.5" font-family="Helvetica,sans-Serif" font-size="10.00">::~BandwidthCommunicator</text>
</a>
</g>
</g>
<!-- Node1&#45;&gt;Node4 -->
<g id="edge4" class="edge"><title>Node1&#45;&gt;Node4</title>
<path fill="none" stroke="midnightblue" d="M159.475,-78.5C217.783,-78.5 294.479,-78.5 348.966,-78.5"/>
<polygon fill="midnightblue" stroke="midnightblue" points="159.18,-75.0001 149.18,-78.5 159.18,-82.0001 159.18,-75.0001"/>
</g>
<!-- Node5 -->
<g id="node5" class="node"><title>Node5</title>
<g id="a_node5"><a xlink:href="classHandleHostBandwidth.html#a9c046a8b63e42ab6aece3e798bc497ad" target="_top" xlink:title="printBandwidths prints VM&#39;s bandwidth to the terminal ">
<polygon fill="white" stroke="black" points="192,-0.5 192,-30.5 306,-30.5 306,-0.5 192,-0.5"/>
<text text-anchor="start" x="200" y="-18.5" font-family="Helvetica,sans-Serif" font-size="10.00">HandleHostBandwidth</text>
<text text-anchor="middle" x="249" y="-7.5" font-family="Helvetica,sans-Serif" font-size="10.00">::logBandwidths</text>
</a>
</g>
</g>
<!-- Node1&#45;&gt;Node5 -->
<g id="edge5" class="edge"><title>Node1&#45;&gt;Node5</title>
<path fill="none" stroke="midnightblue" d="M111.413,-65.384C139.197,-55.2366 177.703,-41.1736 206.75,-30.565"/>
<polygon fill="midnightblue" stroke="midnightblue" points="109.891,-62.2134 101.699,-68.9317 112.293,-68.7887 109.891,-62.2134"/>
</g>
<!-- Node3&#45;&gt;Node4 -->
<g id="edge3" class="edge"><title>Node3&#45;&gt;Node4</title>
<path fill="none" stroke="midnightblue" d="M323.345,-89.1553C331.792,-88.1943 340.379,-87.2173 348.755,-86.2644"/>
<polygon fill="midnightblue" stroke="midnightblue" points="322.676,-85.7088 313.136,-90.3169 323.467,-92.664 322.676,-85.7088"/>
</g>
<!-- Node6 -->
<g id="node6" class="node"><title>Node6</title>
<g id="a_node6"><a xlink:href="BGAdaptor_2main_8cpp.html#a0ddf1224851353fc92bfbff6f499fa97" target="_top" xlink:title="main">
<polygon fill="white" stroke="black" points="399,-6 399,-25 437,-25 437,-6 399,-6"/>
<text text-anchor="middle" x="418" y="-13" font-family="Helvetica,sans-Serif" font-size="10.00">main</text>
</a>
</g>
</g>
<!-- Node5&#45;&gt;Node6 -->
<g id="edge6" class="edge"><title>Node5&#45;&gt;Node6</title>
<path fill="none" stroke="midnightblue" d="M316.445,-15.5C346.198,-15.5 378.969,-15.5 398.763,-15.5"/>
<polygon fill="midnightblue" stroke="midnightblue" points="316.073,-12.0001 306.073,-15.5 316.073,-19.0001 316.073,-12.0001"/>
</g>
</g>
</svg>
