<?xml version="1.0" encoding="UTF-8" standalone="no"?>
<!DOCTYPE svg PUBLIC "-//W3C//DTD SVG 1.1//EN"
 "http://www.w3.org/Graphics/SVG/1.1/DTD/svg11.dtd">
<!-- Generated by graphviz version 2.38.0 (20140413.2041)
 -->
<!-- Title: Common::LoggingHandler::log Pages: 1 -->
<svg width="375pt" height="235pt"
 viewBox="0.00 0.00 375.00 235.00" xmlns="http://www.w3.org/2000/svg" xmlns:xlink="http://www.w3.org/1999/xlink">
<g id="graph0" class="graph" transform="scale(1 1) rotate(0) translate(4 231)">
<title>Common::LoggingHandler::log</title>
<polygon fill="white" stroke="none" points="-4,4 -4,-231 371,-231 371,4 -4,4"/>
<!-- Node1 -->
<g id="node1" class="node"><title>Node1</title>
<polygon fill="#bfbfbf" stroke="black" points="0,-104 0,-123 149,-123 149,-104 0,-104"/>
<text text-anchor="middle" x="74.5" y="-111" font-family="Helvetica,sans-Serif" font-size="10.00">Common::LoggingHandler::log</text>
</g>
<!-- Node2 -->
<g id="node2" class="node"><title>Node2</title>
<g id="a_node2"><a xlink:href="classWCEnabler_1_1BandwidthCalculator.html#a1cc0aea727b0b795ece19fa18bb71c67" target="_top" xlink:title="BandwidthCalculator constructor. ">
<polygon fill="white" stroke="black" points="194.5,-196.5 194.5,-226.5 357.5,-226.5 357.5,-196.5 194.5,-196.5"/>
<text text-anchor="start" x="202.5" y="-214.5" font-family="Helvetica,sans-Serif" font-size="10.00">WCEnabler::BandwidthCalculator</text>
<text text-anchor="middle" x="276" y="-203.5" font-family="Helvetica,sans-Serif" font-size="10.00">::BandwidthCalculator</text>
</a>
</g>
</g>
<!-- Node1&#45;&gt;Node2 -->
<g id="edge1" class="edge"><title>Node1&#45;&gt;Node2</title>
<path fill="none" stroke="midnightblue" d="M94.6949,-129.418C115.674,-146.084 150.866,-171.951 185,-187.5 192.358,-190.852 200.275,-193.81 208.252,-196.4"/>
<polygon fill="midnightblue" stroke="midnightblue" points="96.8525,-126.662 86.8727,-123.104 92.4559,-132.109 96.8525,-126.662"/>
</g>
<!-- Node3 -->
<g id="node3" class="node"><title>Node3</title>
<g id="a_node3"><a xlink:href="classWCEnabler_1_1BandwidthCalculator.html#a4e8c950180195dbae46ef4c76b94c078" target="_top" xlink:title="WCEnabler::BandwidthCalculator\l::~BandwidthCalculator">
<polygon fill="white" stroke="black" points="194.5,-147.5 194.5,-177.5 357.5,-177.5 357.5,-147.5 194.5,-147.5"/>
<text text-anchor="start" x="202.5" y="-165.5" font-family="Helvetica,sans-Serif" font-size="10.00">WCEnabler::BandwidthCalculator</text>
<text text-anchor="middle" x="276" y="-154.5" font-family="Helvetica,sans-Serif" font-size="10.00">::~BandwidthCalculator</text>
</a>
</g>
</g>
<!-- Node1&#45;&gt;Node3 -->
<g id="edge2" class="edge"><title>Node1&#45;&gt;Node3</title>
<path fill="none" stroke="midnightblue" d="M124.415,-125.514C151.371,-132.135 185.087,-140.416 213.778,-147.463"/>
<polygon fill="midnightblue" stroke="midnightblue" points="124.985,-122.05 114.439,-123.064 123.316,-128.848 124.985,-122.05"/>
</g>
<!-- Node4 -->
<g id="node4" class="node"><title>Node4</title>
<g id="a_node4"><a xlink:href="classWCEnabler_1_1BandwidthCommunicator.html#a8f28fae785efe83e3b3661b6655b4154" target="_top" xlink:title="WCEnabler::BandwidthCommunicator\l::~BandwidthCommunicator">
<polygon fill="white" stroke="black" points="185,-98.5 185,-128.5 367,-128.5 367,-98.5 185,-98.5"/>
<text text-anchor="start" x="193" y="-116.5" font-family="Helvetica,sans-Serif" font-size="10.00">WCEnabler::BandwidthCommunicator</text>
<text text-anchor="middle" x="276" y="-105.5" font-family="Helvetica,sans-Serif" font-size="10.00">::~BandwidthCommunicator</text>
</a>
</g>
</g>
<!-- Node1&#45;&gt;Node4 -->
<g id="edge3" class="edge"><title>Node1&#45;&gt;Node4</title>
<path fill="none" stroke="midnightblue" d="M159.339,-113.5C167.711,-113.5 176.236,-113.5 184.671,-113.5"/>
<polygon fill="midnightblue" stroke="midnightblue" points="159.22,-110 149.22,-113.5 159.22,-117 159.22,-110"/>
</g>
<!-- Node5 -->
<g id="node5" class="node"><title>Node5</title>
<g id="a_node5"><a xlink:href="classBGAdaptor_1_1HandleHostBandwidth.html#a1f2b47a42081363590a68d77ffb6b087" target="_top" xlink:title="BGAdaptor::HandleHostBandwidth\l::~HandleHostBandwidth">
<polygon fill="white" stroke="black" points="192,-49.5 192,-79.5 360,-79.5 360,-49.5 192,-49.5"/>
<text text-anchor="start" x="200" y="-67.5" font-family="Helvetica,sans-Serif" font-size="10.00">BGAdaptor::HandleHostBandwidth</text>
<text text-anchor="middle" x="276" y="-56.5" font-family="Helvetica,sans-Serif" font-size="10.00">::~HandleHostBandwidth</text>
</a>
</g>
</g>
<!-- Node1&#45;&gt;Node5 -->
<g id="edge4" class="edge"><title>Node1&#45;&gt;Node5</title>
<path fill="none" stroke="midnightblue" d="M124.415,-101.486C151.371,-94.865 185.087,-86.5839 213.778,-79.537"/>
<polygon fill="midnightblue" stroke="midnightblue" points="123.316,-98.1517 114.439,-103.936 124.985,-104.95 123.316,-98.1517"/>
</g>
<!-- Node6 -->
<g id="node6" class="node"><title>Node6</title>
<g id="a_node6"><a xlink:href="classWCEnabler_1_1WorkConservationFlowHandler.html#ac4306f1d18ca0f29d9f35e49451d886a" target="_top" xlink:title="stateToString method converts the state enum to a string ">
<polygon fill="white" stroke="black" points="199,-0.5 199,-30.5 353,-30.5 353,-0.5 199,-0.5"/>
<text text-anchor="start" x="207" y="-18.5" font-family="Helvetica,sans-Serif" font-size="10.00">WCEnabler::WorkConservation</text>
<text text-anchor="middle" x="276" y="-7.5" font-family="Helvetica,sans-Serif" font-size="10.00">FlowHandler::stateToString</text>
</a>
</g>
</g>
<!-- Node1&#45;&gt;Node6 -->
<g id="edge5" class="edge"><title>Node1&#45;&gt;Node6</title>
<path fill="none" stroke="midnightblue" d="M95.1041,-97.6158C116.18,-81.2368 151.224,-55.9689 185,-40.5 193.257,-36.7186 202.208,-33.3953 211.154,-30.5106"/>
<polygon fill="midnightblue" stroke="midnightblue" points="92.9103,-94.8884 87.2281,-103.831 97.2466,-100.384 92.9103,-94.8884"/>
</g>
</g>
</svg>
