<?xml version="1.0" encoding="UTF-8" standalone="no"?>
<!DOCTYPE svg PUBLIC "-//W3C//DTD SVG 1.1//EN"
 "http://www.w3.org/Graphics/SVG/1.1/DTD/svg11.dtd">
<!-- Generated by graphviz version 2.38.0 (20140413.2041)
 -->
<!-- Title: Common::Math::SimpleRateCalculation::calculate Pages: 1 -->
<svg width="332pt" height="50pt"
 viewBox="0.00 0.00 332.00 50.00" xmlns="http://www.w3.org/2000/svg" xmlns:xlink="http://www.w3.org/1999/xlink">
<g id="graph0" class="graph" transform="scale(1 1) rotate(0) translate(4 46)">
<title>Common::Math::SimpleRateCalculation::calculate</title>
<polygon fill="white" stroke="none" points="-4,4 -4,-46 328,-46 328,4 -4,4"/>
<!-- Node1 -->
<g id="node1" class="node"><title>Node1</title>
<polygon fill="#bfbfbf" stroke="black" points="0,-6 0,-36 141,-36 141,-6 0,-6"/>
<text text-anchor="start" x="8" y="-24" font-family="Helvetica,sans-Serif" font-size="10.00">Common::Math::SimpleRate</text>
<text text-anchor="middle" x="70.5" y="-13" font-family="Helvetica,sans-Serif" font-size="10.00">Calculation::calculate</text>
</g>
<!-- Node2 -->
<g id="node2" class="node"><title>Node2</title>
<g id="a_node2"><a xlink:href="classCommon_1_1Math_1_1SimpleRateCalculator.html#a45f717e9f919cbc3110685841c3a7baf" target="_top" xlink:title="calculateRate calculates the rate and returns it ">
<polygon fill="white" stroke="black" points="177,-0.5 177,-41.5 324,-41.5 324,-0.5 177,-0.5"/>
<text text-anchor="start" x="185" y="-29.5" font-family="Helvetica,sans-Serif" font-size="10.00">Common::Math::SimpleRate</text>
<text text-anchor="start" x="185" y="-18.5" font-family="Helvetica,sans-Serif" font-size="10.00">Calculator&lt; unsigned int,</text>
<text text-anchor="middle" x="250.5" y="-7.5" font-family="Helvetica,sans-Serif" font-size="10.00"> unsigned int &gt;::calculateRate</text>
</a>
</g>
</g>
<!-- Node1&#45;&gt;Node2 -->
<g id="edge1" class="edge"><title>Node1&#45;&gt;Node2</title>
<path fill="none" stroke="midnightblue" d="M151.328,-21C159.789,-21 168.361,-21 176.736,-21"/>
<polygon fill="midnightblue" stroke="midnightblue" points="151.084,-17.5001 141.084,-21 151.084,-24.5001 151.084,-17.5001"/>
</g>
</g>
</svg>
