<?xml version="1.0" encoding="UTF-8" standalone="no"?>
<!DOCTYPE svg PUBLIC "-//W3C//DTD SVG 1.1//EN"
 "http://www.w3.org/Graphics/SVG/1.1/DTD/svg11.dtd">
<!-- Generated by graphviz version 2.38.0 (20140413.2041)
 -->
<!-- Title: riplpox.riplpox.Switch.disconnect Pages: 1 -->
<svg width="695pt" height="78pt"
 viewBox="0.00 0.00 695.00 77.50" xmlns="http://www.w3.org/2000/svg" xmlns:xlink="http://www.w3.org/1999/xlink">
<g id="graph0" class="graph" transform="scale(1 1) rotate(0) translate(4 73.5)">
<title>riplpox.riplpox.Switch.disconnect</title>
<polygon fill="white" stroke="none" points="-4,4 -4,-73.5 691,-73.5 691,4 -4,4"/>
<!-- Node1 -->
<g id="node1" class="node"><title>Node1</title>
<polygon fill="#bfbfbf" stroke="black" points="0,-28 0,-47 160,-47 160,-28 0,-28"/>
<text text-anchor="middle" x="80" y="-35" font-family="Helvetica,sans-Serif" font-size="10.00">riplpox.riplpox.Switch.disconnect</text>
</g>
<!-- Node2 -->
<g id="node2" class="node"><title>Node2</title>
<g id="a_node2"><a xlink:href="classriplpox_1_1riplpox_1_1Switch.html#a502a57d43ff2ed107cccb0bce9113ca7" target="_top" xlink:title="riplpox.riplpox.Switch.connect">
<polygon fill="white" stroke="black" points="196,-50 196,-69 343,-69 343,-50 196,-50"/>
<text text-anchor="middle" x="269.5" y="-57" font-family="Helvetica,sans-Serif" font-size="10.00">riplpox.riplpox.Switch.connect</text>
</a>
</g>
</g>
<!-- Node1&#45;&gt;Node2 -->
<g id="edge1" class="edge"><title>Node1&#45;&gt;Node2</title>
<path fill="none" stroke="midnightblue" d="M170.253,-47.9724C178.813,-48.9768 187.423,-49.987 195.797,-50.9695"/>
<polygon fill="midnightblue" stroke="midnightblue" points="170.585,-44.4874 160.245,-46.7981 169.769,-51.4397 170.585,-44.4874"/>
</g>
<!-- Node3 -->
<g id="node3" class="node"><title>Node3</title>
<g id="a_node3"><a xlink:href="classriplpox_1_1riplpox_1_1Switch.html#a939c1650c1daca409b44a8ee7db499f4" target="_top" xlink:title="riplpox.riplpox.Switch.install\l_multiple">
<polygon fill="white" stroke="black" points="200.5,-0.5 200.5,-30.5 338.5,-30.5 338.5,-0.5 200.5,-0.5"/>
<text text-anchor="start" x="208.5" y="-18.5" font-family="Helvetica,sans-Serif" font-size="10.00">riplpox.riplpox.Switch.install</text>
<text text-anchor="middle" x="269.5" y="-7.5" font-family="Helvetica,sans-Serif" font-size="10.00">_multiple</text>
</a>
</g>
</g>
<!-- Node1&#45;&gt;Node3 -->
<g id="edge2" class="edge"><title>Node1&#45;&gt;Node3</title>
<path fill="none" stroke="midnightblue" d="M170.272,-27.0254C180.34,-25.8441 190.476,-24.6548 200.216,-23.512"/>
<polygon fill="midnightblue" stroke="midnightblue" points="169.769,-23.5603 160.245,-28.2019 170.585,-30.5126 169.769,-23.5603"/>
</g>
<!-- Node4 -->
<g id="node4" class="node"><title>Node4</title>
<g id="a_node4"><a xlink:href="classriplpox_1_1riplpox_1_1Switch.html#a6aa06e7adf5bd71cfe1440f6b62449e2" target="_top" xlink:title="riplpox.riplpox.Switch.install">
<polygon fill="white" stroke="black" points="379,-6 379,-25 517,-25 517,-6 379,-6"/>
<text text-anchor="middle" x="448" y="-13" font-family="Helvetica,sans-Serif" font-size="10.00">riplpox.riplpox.Switch.install</text>
</a>
</g>
</g>
<!-- Node3&#45;&gt;Node4 -->
<g id="edge3" class="edge"><title>Node3&#45;&gt;Node4</title>
<path fill="none" stroke="midnightblue" d="M349.047,-15.5C359.017,-15.5 369.155,-15.5 378.942,-15.5"/>
<polygon fill="midnightblue" stroke="midnightblue" points="348.74,-12.0001 338.74,-15.5 348.739,-19.0001 348.74,-12.0001"/>
</g>
<!-- Node5 -->
<g id="node5" class="node"><title>Node5</title>
<g id="a_node5"><a xlink:href="classriplpox_1_1riplpox_1_1Switch.html#af3ab7eefe219f18d91dba6595b2d2f1c" target="_top" xlink:title="riplpox.riplpox.Switch.send\l_packet_bufid">
<polygon fill="white" stroke="black" points="553,-0.5 553,-30.5 687,-30.5 687,-0.5 553,-0.5"/>
<text text-anchor="start" x="561" y="-18.5" font-family="Helvetica,sans-Serif" font-size="10.00">riplpox.riplpox.Switch.send</text>
<text text-anchor="middle" x="620" y="-7.5" font-family="Helvetica,sans-Serif" font-size="10.00">_packet_bufid</text>
</a>
</g>
</g>
<!-- Node4&#45;&gt;Node5 -->
<g id="edge4" class="edge"><title>Node4&#45;&gt;Node5</title>
<path fill="none" stroke="midnightblue" d="M527.428,-15.5C535.896,-15.5 544.451,-15.5 552.754,-15.5"/>
<polygon fill="midnightblue" stroke="midnightblue" points="527.166,-12.0001 517.166,-15.5 527.166,-19.0001 527.166,-12.0001"/>
</g>
</g>
</svg>
