<?xml version="1.0" encoding="UTF-8" standalone="no"?>
<!DOCTYPE svg PUBLIC "-//W3C//DTD SVG 1.1//EN"
 "http://www.w3.org/Graphics/SVG/1.1/DTD/svg11.dtd">
<!-- Generated by graphviz version 2.38.0 (20140413.2041)
 -->
<!-- Title: AnotherFatTreeTopology.FatTree.makeMAC Pages: 1 -->
<svg width="503pt" height="61pt"
 viewBox="0.00 0.00 503.00 61.00" xmlns="http://www.w3.org/2000/svg" xmlns:xlink="http://www.w3.org/1999/xlink">
<g id="graph0" class="graph" transform="scale(1 1) rotate(0) translate(4 57)">
<title>AnotherFatTreeTopology.FatTree.makeMAC</title>
<polygon fill="white" stroke="none" points="-4,4 -4,-57 499,-57 499,4 -4,4"/>
<!-- Node1 -->
<g id="node1" class="node"><title>Node1</title>
<polygon fill="#bfbfbf" stroke="black" points="0,-0.5 0,-30.5 141,-30.5 141,-0.5 0,-0.5"/>
<text text-anchor="start" x="8" y="-18.5" font-family="Helvetica,sans-Serif" font-size="10.00">AnotherFatTreeTopology.Fat</text>
<text text-anchor="middle" x="70.5" y="-7.5" font-family="Helvetica,sans-Serif" font-size="10.00">Tree.makeMAC</text>
</g>
<!-- Node2 -->
<g id="node2" class="node"><title>Node2</title>
<g id="a_node2"><a xlink:href="classAnotherFatTreeTopology_1_1FatTree.html#a294f8d9592d4ca84ca001d60484ea804" target="_top" xlink:title="AnotherFatTreeTopology.Fat\lTree.makeDPID">
<polygon fill="white" stroke="black" points="177,-22.5 177,-52.5 318,-52.5 318,-22.5 177,-22.5"/>
<text text-anchor="start" x="185" y="-40.5" font-family="Helvetica,sans-Serif" font-size="10.00">AnotherFatTreeTopology.Fat</text>
<text text-anchor="middle" x="247.5" y="-29.5" font-family="Helvetica,sans-Serif" font-size="10.00">Tree.makeDPID</text>
</a>
</g>
</g>
<!-- Node1&#45;&gt;Node2 -->
<g id="edge1" class="edge"><title>Node1&#45;&gt;Node2</title>
<path fill="none" stroke="midnightblue" d="M151.146,-25.5126C159.702,-26.5882 168.359,-27.6766 176.786,-28.736"/>
<polygon fill="midnightblue" stroke="midnightblue" points="151.526,-22.0329 141.167,-24.2582 150.653,-28.9783 151.526,-22.0329"/>
</g>
<!-- Node3 -->
<g id="node3" class="node"><title>Node3</title>
<g id="a_node3"><a xlink:href="classAnotherFatTreeTopology_1_1FatTree.html#a8e1a6b5d87e3b1fd2a11337c14cf612a" target="_top" xlink:title="AnotherFatTreeTopology.Fat\lTree.__init__">
<polygon fill="white" stroke="black" points="354,-0.5 354,-30.5 495,-30.5 495,-0.5 354,-0.5"/>
<text text-anchor="start" x="362" y="-18.5" font-family="Helvetica,sans-Serif" font-size="10.00">AnotherFatTreeTopology.Fat</text>
<text text-anchor="middle" x="424.5" y="-7.5" font-family="Helvetica,sans-Serif" font-size="10.00">Tree.__init__</text>
</a>
</g>
</g>
<!-- Node1&#45;&gt;Node3 -->
<g id="edge3" class="edge"><title>Node1&#45;&gt;Node3</title>
<path fill="none" stroke="midnightblue" d="M151.2,-13.8286C159.907,-13.6938 168.639,-13.5792 177,-13.5 239.664,-12.9061 255.336,-12.9061 318,-13.5 329.632,-13.6102 341.985,-13.7889 353.985,-13.9951"/>
<polygon fill="midnightblue" stroke="midnightblue" points="150.957,-10.332 141.015,-13.9951 151.071,-17.331 150.957,-10.332"/>
</g>
<!-- Node2&#45;&gt;Node3 -->
<g id="edge2" class="edge"><title>Node2&#45;&gt;Node3</title>
<path fill="none" stroke="midnightblue" d="M328.146,-27.4874C336.702,-26.4118 345.359,-25.3234 353.786,-24.264"/>
<polygon fill="midnightblue" stroke="midnightblue" points="327.653,-24.0217 318.167,-28.7418 328.526,-30.9671 327.653,-24.0217"/>
</g>
</g>
</svg>
