<?xml version="1.0" encoding="UTF-8" standalone="no"?>
<!DOCTYPE svg PUBLIC "-//W3C//DTD SVG 1.1//EN"
 "http://www.w3.org/Graphics/SVG/1.1/DTD/svg11.dtd">
<!-- Generated by graphviz version 2.38.0 (20140413.2041)
 -->
<!-- Title: Common::HelperMethods::getInterfaceName Pages: 1 -->
<svg width="340pt" height="88pt"
 viewBox="0.00 0.00 340.00 88.00" xmlns="http://www.w3.org/2000/svg" xmlns:xlink="http://www.w3.org/1999/xlink">
<g id="graph0" class="graph" transform="scale(1 1) rotate(0) translate(4 84)">
<title>Common::HelperMethods::getInterfaceName</title>
<polygon fill="white" stroke="none" points="-4,4 -4,-84 336,-84 336,4 -4,4"/>
<!-- Node1 -->
<g id="node1" class="node"><title>Node1</title>
<polygon fill="#bfbfbf" stroke="black" points="0,-24.5 0,-54.5 128,-54.5 128,-24.5 0,-24.5"/>
<text text-anchor="start" x="8" y="-42.5" font-family="Helvetica,sans-Serif" font-size="10.00">Common::HelperMethods</text>
<text text-anchor="middle" x="64" y="-31.5" font-family="Helvetica,sans-Serif" font-size="10.00">::getInterfaceName</text>
</g>
<!-- Node2 -->
<g id="node2" class="node"><title>Node2</title>
<g id="a_node2"><a xlink:href="classBGAdaptor_1_1HandleHostBandwidth.html#af8e6a5d03b90da9fa56b15f5ef60aead" target="_top" xlink:title="HandleHostBandwidth constructor. ">
<polygon fill="white" stroke="black" points="164,-49.5 164,-79.5 332,-79.5 332,-49.5 164,-49.5"/>
<text text-anchor="start" x="172" y="-67.5" font-family="Helvetica,sans-Serif" font-size="10.00">BGAdaptor::HandleHostBandwidth</text>
<text text-anchor="middle" x="248" y="-56.5" font-family="Helvetica,sans-Serif" font-size="10.00">::HandleHostBandwidth</text>
</a>
</g>
</g>
<!-- Node1&#45;&gt;Node2 -->
<g id="edge1" class="edge"><title>Node1&#45;&gt;Node2</title>
<path fill="none" stroke="midnightblue" d="M138.26,-49.5632C146.655,-50.7164 155.26,-51.8983 163.773,-53.0677"/>
<polygon fill="midnightblue" stroke="midnightblue" points="138.527,-46.0671 128.144,-48.1736 137.575,-53.002 138.527,-46.0671"/>
</g>
<!-- Node3 -->
<g id="node3" class="node"><title>Node3</title>
<g id="a_node3"><a xlink:href="structCommon_1_1HelperMethods_1_1InterfaceInfo.html#a8c5c5047166942a2738869d416921d38" target="_top" xlink:title="Common::HelperMethods\l::InterfaceInfo::InterfaceInfo">
<polygon fill="white" stroke="black" points="179,-0.5 179,-30.5 317,-30.5 317,-0.5 179,-0.5"/>
<text text-anchor="start" x="187" y="-18.5" font-family="Helvetica,sans-Serif" font-size="10.00">Common::HelperMethods</text>
<text text-anchor="middle" x="248" y="-7.5" font-family="Helvetica,sans-Serif" font-size="10.00">::InterfaceInfo::InterfaceInfo</text>
</a>
</g>
</g>
<!-- Node1&#45;&gt;Node3 -->
<g id="edge2" class="edge"><title>Node1&#45;&gt;Node3</title>
<path fill="none" stroke="midnightblue" d="M138.235,-29.8426C151.593,-28.0811 165.483,-26.2495 178.691,-24.5078"/>
<polygon fill="midnightblue" stroke="midnightblue" points="137.601,-26.3959 128.144,-31.1733 138.516,-33.3358 137.601,-26.3959"/>
</g>
</g>
</svg>
