<?xml version="1.0" encoding="UTF-8" standalone="no"?>
<!DOCTYPE svg PUBLIC "-//W3C//DTD SVG 1.1//EN"
 "http://www.w3.org/Graphics/SVG/1.1/DTD/svg11.dtd">
<!-- Generated by graphviz version 2.38.0 (20140413.2041)
 -->
<!-- Title: WCEnabler::BandwidthCalculator::bandwidthGuaranteeRate Pages: 1 -->
<svg width="389pt" height="39pt"
 viewBox="0.00 0.00 389.00 39.00" xmlns="http://www.w3.org/2000/svg" xmlns:xlink="http://www.w3.org/1999/xlink">
<g id="graph0" class="graph" transform="scale(1 1) rotate(0) translate(4 35)">
<title>WCEnabler::BandwidthCalculator::bandwidthGuaranteeRate</title>
<polygon fill="white" stroke="none" points="-4,4 -4,-35 385,-35 385,4 -4,4"/>
<!-- Node1 -->
<g id="node1" class="node"><title>Node1</title>
<polygon fill="#bfbfbf" stroke="black" points="0,-0.5 0,-30.5 163,-30.5 163,-0.5 0,-0.5"/>
<text text-anchor="start" x="8" y="-18.5" font-family="Helvetica,sans-Serif" font-size="10.00">WCEnabler::BandwidthCalculator</text>
<text text-anchor="middle" x="81.5" y="-7.5" font-family="Helvetica,sans-Serif" font-size="10.00">::bandwidthGuaranteeRate</text>
</g>
<!-- Node2 -->
<g id="node2" class="node"><title>Node2</title>
<g id="a_node2"><a xlink:href="classWCEnabler_1_1BandwidthCommunicator.html#a8f28fae785efe83e3b3661b6655b4154" target="_top" xlink:title="WCEnabler::BandwidthCommunicator\l::~BandwidthCommunicator">
<polygon fill="white" stroke="black" points="199,-0.5 199,-30.5 381,-30.5 381,-0.5 199,-0.5"/>
<text text-anchor="start" x="207" y="-18.5" font-family="Helvetica,sans-Serif" font-size="10.00">WCEnabler::BandwidthCommunicator</text>
<text text-anchor="middle" x="290" y="-7.5" font-family="Helvetica,sans-Serif" font-size="10.00">::~BandwidthCommunicator</text>
</a>
</g>
</g>
<!-- Node1&#45;&gt;Node2 -->
<g id="edge1" class="edge"><title>Node1&#45;&gt;Node2</title>
<path fill="none" stroke="midnightblue" d="M173.415,-15.5C181.826,-15.5 190.348,-15.5 198.753,-15.5"/>
<polygon fill="midnightblue" stroke="midnightblue" points="173.226,-12.0001 163.226,-15.5 173.225,-19.0001 173.226,-12.0001"/>
</g>
</g>
</svg>
