<?xml version="1.0" encoding="UTF-8" standalone="no"?>
<!DOCTYPE svg PUBLIC "-//W3C//DTD SVG 1.1//EN"
 "http://www.w3.org/Graphics/SVG/1.1/DTD/svg11.dtd">
<!-- Generated by graphviz version 2.38.0 (20140413.2041)
 -->
<!-- Title: AnotherFatTreeTopology.FatTree.randByte Pages: 1 -->
<svg width="680pt" height="61pt"
 viewBox="0.00 0.00 680.00 61.00" xmlns="http://www.w3.org/2000/svg" xmlns:xlink="http://www.w3.org/1999/xlink">
<g id="graph0" class="graph" transform="scale(1 1) rotate(0) translate(4 57)">
<title>AnotherFatTreeTopology.FatTree.randByte</title>
<polygon fill="white" stroke="none" points="-4,4 -4,-57 676,-57 676,4 -4,4"/>
<!-- Node1 -->
<g id="node1" class="node"><title>Node1</title>
<polygon fill="#bfbfbf" stroke="black" points="0,-0.5 0,-30.5 141,-30.5 141,-0.5 0,-0.5"/>
<text text-anchor="start" x="8" y="-18.5" font-family="Helvetica,sans-Serif" font-size="10.00">AnotherFatTreeTopology.Fat</text>
<text text-anchor="middle" x="70.5" y="-7.5" font-family="Helvetica,sans-Serif" font-size="10.00">Tree.randByte</text>
</g>
<!-- Node2 -->
<g id="node2" class="node"><title>Node2</title>
<g id="a_node2"><a xlink:href="classAnotherFatTreeTopology_1_1FatTree.html#a7180b42cfee01001b3e61034aad9c263" target="_top" xlink:title="AnotherFatTreeTopology.Fat\lTree.makeMAC">
<polygon fill="white" stroke="black" points="177,-0.5 177,-30.5 318,-30.5 318,-0.5 177,-0.5"/>
<text text-anchor="start" x="185" y="-18.5" font-family="Helvetica,sans-Serif" font-size="10.00">AnotherFatTreeTopology.Fat</text>
<text text-anchor="middle" x="247.5" y="-7.5" font-family="Helvetica,sans-Serif" font-size="10.00">Tree.makeMAC</text>
</a>
</g>
</g>
<!-- Node1&#45;&gt;Node2 -->
<g id="edge1" class="edge"><title>Node1&#45;&gt;Node2</title>
<path fill="none" stroke="midnightblue" d="M151.425,-15.5C159.89,-15.5 168.451,-15.5 176.786,-15.5"/>
<polygon fill="midnightblue" stroke="midnightblue" points="151.168,-12.0001 141.167,-15.5 151.167,-19.0001 151.168,-12.0001"/>
</g>
<!-- Node3 -->
<g id="node3" class="node"><title>Node3</title>
<g id="a_node3"><a xlink:href="classAnotherFatTreeTopology_1_1FatTree.html#a294f8d9592d4ca84ca001d60484ea804" target="_top" xlink:title="AnotherFatTreeTopology.Fat\lTree.makeDPID">
<polygon fill="white" stroke="black" points="354,-22.5 354,-52.5 495,-52.5 495,-22.5 354,-22.5"/>
<text text-anchor="start" x="362" y="-40.5" font-family="Helvetica,sans-Serif" font-size="10.00">AnotherFatTreeTopology.Fat</text>
<text text-anchor="middle" x="424.5" y="-29.5" font-family="Helvetica,sans-Serif" font-size="10.00">Tree.makeDPID</text>
</a>
</g>
</g>
<!-- Node2&#45;&gt;Node3 -->
<g id="edge2" class="edge"><title>Node2&#45;&gt;Node3</title>
<path fill="none" stroke="midnightblue" d="M328.146,-25.5126C336.702,-26.5882 345.359,-27.6766 353.786,-28.736"/>
<polygon fill="midnightblue" stroke="midnightblue" points="328.526,-22.0329 318.167,-24.2582 327.653,-28.9783 328.526,-22.0329"/>
</g>
<!-- Node4 -->
<g id="node4" class="node"><title>Node4</title>
<g id="a_node4"><a xlink:href="classAnotherFatTreeTopology_1_1FatTree.html#a8e1a6b5d87e3b1fd2a11337c14cf612a" target="_top" xlink:title="AnotherFatTreeTopology.Fat\lTree.__init__">
<polygon fill="white" stroke="black" points="531,-0.5 531,-30.5 672,-30.5 672,-0.5 531,-0.5"/>
<text text-anchor="start" x="539" y="-18.5" font-family="Helvetica,sans-Serif" font-size="10.00">AnotherFatTreeTopology.Fat</text>
<text text-anchor="middle" x="601.5" y="-7.5" font-family="Helvetica,sans-Serif" font-size="10.00">Tree.__init__</text>
</a>
</g>
</g>
<!-- Node2&#45;&gt;Node4 -->
<g id="edge4" class="edge"><title>Node2&#45;&gt;Node4</title>
<path fill="none" stroke="midnightblue" d="M328.2,-13.8286C336.907,-13.6938 345.639,-13.5792 354,-13.5 416.664,-12.9061 432.336,-12.9061 495,-13.5 506.632,-13.6102 518.985,-13.7889 530.985,-13.9951"/>
<polygon fill="midnightblue" stroke="midnightblue" points="327.957,-10.332 318.015,-13.9951 328.071,-17.331 327.957,-10.332"/>
</g>
<!-- Node3&#45;&gt;Node4 -->
<g id="edge3" class="edge"><title>Node3&#45;&gt;Node4</title>
<path fill="none" stroke="midnightblue" d="M505.146,-27.4874C513.702,-26.4118 522.359,-25.3234 530.786,-24.264"/>
<polygon fill="midnightblue" stroke="midnightblue" points="504.653,-24.0217 495.167,-28.7418 505.526,-30.9671 504.653,-24.0217"/>
</g>
</g>
</svg>
