<?xml version="1.0" encoding="UTF-8" standalone="no"?>
<!DOCTYPE svg PUBLIC "-//W3C//DTD SVG 1.1//EN"
 "http://www.w3.org/Graphics/SVG/1.1/DTD/svg11.dtd">
<!-- Generated by graphviz version 2.38.0 (20140413.2041)
 -->
<!-- Title: Common::ThreadHelper::startDetachedThread Pages: 1 -->
<svg width="371pt" height="186pt"
 viewBox="0.00 0.00 371.00 186.00" xmlns="http://www.w3.org/2000/svg" xmlns:xlink="http://www.w3.org/1999/xlink">
<g id="graph0" class="graph" transform="scale(1 1) rotate(0) translate(4 182)">
<title>Common::ThreadHelper::startDetachedThread</title>
<polygon fill="white" stroke="none" points="-4,4 -4,-182 367,-182 367,4 -4,4"/>
<!-- Node1 -->
<g id="node1" class="node"><title>Node1</title>
<polygon fill="#bfbfbf" stroke="black" points="0,-73.5 0,-103.5 121,-103.5 121,-73.5 0,-73.5"/>
<text text-anchor="start" x="8" y="-91.5" font-family="Helvetica,sans-Serif" font-size="10.00">Common::ThreadHelper</text>
<text text-anchor="middle" x="60.5" y="-80.5" font-family="Helvetica,sans-Serif" font-size="10.00">::startDetachedThread</text>
</g>
<!-- Node2 -->
<g id="node2" class="node"><title>Node2</title>
<g id="a_node2"><a xlink:href="classBandwidthCalculator.html#a0b0d37a844a376651a1cee8f0b506d04" target="_top" xlink:title="BandwidthCalculator constructor. ">
<polygon fill="white" stroke="black" points="166.5,-147.5 166.5,-177.5 279.5,-177.5 279.5,-147.5 166.5,-147.5"/>
<text text-anchor="start" x="174.5" y="-165.5" font-family="Helvetica,sans-Serif" font-size="10.00">BandwidthCalculator</text>
<text text-anchor="middle" x="223" y="-154.5" font-family="Helvetica,sans-Serif" font-size="10.00">::BandwidthCalculator</text>
</a>
</g>
</g>
<!-- Node1&#45;&gt;Node2 -->
<g id="edge1" class="edge"><title>Node1&#45;&gt;Node2</title>
<path fill="none" stroke="midnightblue" d="M97.0751,-108.519C114.815,-118.141 136.755,-129.507 157,-138.5 163.926,-141.576 171.38,-144.592 178.682,-147.391"/>
<polygon fill="midnightblue" stroke="midnightblue" points="98.6649,-105.399 88.2125,-103.668 95.3039,-111.54 98.6649,-105.399"/>
</g>
<!-- Node3 -->
<g id="node3" class="node"><title>Node3</title>
<g id="a_node3"><a xlink:href="classBandwidthCommunicator.html#a1f6644f51d8ffdf0473dcb99e2725350" target="_top" xlink:title="BandwidthCommunicator constructor. ">
<polygon fill="white" stroke="black" points="157,-98.5 157,-128.5 289,-128.5 289,-98.5 157,-98.5"/>
<text text-anchor="start" x="165" y="-116.5" font-family="Helvetica,sans-Serif" font-size="10.00">BandwidthCommunicator</text>
<text text-anchor="middle" x="223" y="-105.5" font-family="Helvetica,sans-Serif" font-size="10.00">::BandwidthCommunicator</text>
</a>
</g>
</g>
<!-- Node1&#45;&gt;Node3 -->
<g id="edge2" class="edge"><title>Node1&#45;&gt;Node3</title>
<path fill="none" stroke="midnightblue" d="M131.162,-99.3507C139.676,-100.677 148.352,-102.028 156.798,-103.344"/>
<polygon fill="midnightblue" stroke="midnightblue" points="131.684,-95.8899 121.264,-97.8091 130.606,-102.807 131.684,-95.8899"/>
</g>
<!-- Node4 -->
<g id="node4" class="node"><title>Node4</title>
<g id="a_node4"><a xlink:href="classHandleHostBandwidth.html#acb2ff000ee7b1d0885631b28f351b3ec" target="_top" xlink:title="HandleHostBandwidth constructor. ">
<polygon fill="white" stroke="black" points="163,-49.5 163,-79.5 283,-79.5 283,-49.5 163,-49.5"/>
<text text-anchor="start" x="171" y="-67.5" font-family="Helvetica,sans-Serif" font-size="10.00">HandleHostBandwidth</text>
<text text-anchor="middle" x="223" y="-56.5" font-family="Helvetica,sans-Serif" font-size="10.00">::HandleHostBandwidth</text>
</a>
</g>
</g>
<!-- Node1&#45;&gt;Node4 -->
<g id="edge3" class="edge"><title>Node1&#45;&gt;Node4</title>
<path fill="none" stroke="midnightblue" d="M131.296,-78.0632C141.864,-76.483 152.677,-74.866 162.987,-73.3244"/>
<polygon fill="midnightblue" stroke="midnightblue" points="130.637,-74.6228 121.264,-79.5633 131.672,-81.5458 130.637,-74.6228"/>
</g>
<!-- Node5 -->
<g id="node5" class="node"><title>Node5</title>
<g id="a_node5"><a xlink:href="classHandleHostBandwidth.html#ac47bbf835631d45e09bf50b03dbbf696" target="_top" xlink:title="setRunning turn on the thread that receives the VMs bandwidth ">
<polygon fill="white" stroke="black" points="166,-0.5 166,-30.5 280,-30.5 280,-0.5 166,-0.5"/>
<text text-anchor="start" x="174" y="-18.5" font-family="Helvetica,sans-Serif" font-size="10.00">HandleHostBandwidth</text>
<text text-anchor="middle" x="223" y="-7.5" font-family="Helvetica,sans-Serif" font-size="10.00">::setRunning</text>
</a>
</g>
</g>
<!-- Node1&#45;&gt;Node5 -->
<g id="edge4" class="edge"><title>Node1&#45;&gt;Node5</title>
<path fill="none" stroke="midnightblue" d="M98.8526,-68.6537C116.323,-59.6495 137.527,-49.1136 157,-40.5 164.629,-37.1253 172.868,-33.7535 180.834,-30.6284"/>
<polygon fill="midnightblue" stroke="midnightblue" points="96.8273,-65.7616 89.5657,-73.4765 100.053,-71.9738 96.8273,-65.7616"/>
</g>
<!-- Node6 -->
<g id="node6" class="node"><title>Node6</title>
<g id="a_node6"><a xlink:href="BGAdaptor_2main_8cpp.html#a0ddf1224851353fc92bfbff6f499fa97" target="_top" xlink:title="main">
<polygon fill="white" stroke="black" points="325,-6 325,-25 363,-25 363,-6 325,-6"/>
<text text-anchor="middle" x="344" y="-13" font-family="Helvetica,sans-Serif" font-size="10.00">main</text>
</a>
</g>
</g>
<!-- Node5&#45;&gt;Node6 -->
<g id="edge5" class="edge"><title>Node5&#45;&gt;Node6</title>
<path fill="none" stroke="midnightblue" d="M290.316,-15.5C303.103,-15.5 315.465,-15.5 324.997,-15.5"/>
<polygon fill="midnightblue" stroke="midnightblue" points="290.015,-12.0001 280.015,-15.5 290.015,-19.0001 290.015,-12.0001"/>
</g>
</g>
</svg>
