<?xml version="1.0" encoding="UTF-8" standalone="no"?>
<!DOCTYPE svg PUBLIC "-//W3C//DTD SVG 1.1//EN"
 "http://www.w3.org/Graphics/SVG/1.1/DTD/svg11.dtd">
<!-- Generated by graphviz version 2.38.0 (20140413.2041)
 -->
<!-- Title: Tests.iperfTester.iperfPair Pages: 1 -->
<svg width="302pt" height="66pt"
 viewBox="0.00 0.00 302.00 66.00" xmlns="http://www.w3.org/2000/svg" xmlns:xlink="http://www.w3.org/1999/xlink">
<g id="graph0" class="graph" transform="scale(1 1) rotate(0) translate(4 62)">
<title>Tests.iperfTester.iperfPair</title>
<polygon fill="white" stroke="none" points="-4,4 -4,-62 298,-62 298,4 -4,4"/>
<!-- Node1 -->
<g id="node1" class="node"><title>Node1</title>
<polygon fill="#bfbfbf" stroke="black" points="0,-19.5 0,-38.5 130,-38.5 130,-19.5 0,-19.5"/>
<text text-anchor="middle" x="65" y="-26.5" font-family="Helvetica,sans-Serif" font-size="10.00">Tests.iperfTester.iperfPair</text>
</g>
<!-- Node2 -->
<g id="node2" class="node"><title>Node2</title>
<g id="a_node2"><a xlink:href="namespaceTests.html#a4f59196b9a1935e23077947c5c337b70" target="_top" xlink:title="Tests.iperfServerWrapper">
<polygon fill="white" stroke="black" points="166,-38.5 166,-57.5 294,-57.5 294,-38.5 166,-38.5"/>
<text text-anchor="middle" x="230" y="-45.5" font-family="Helvetica,sans-Serif" font-size="10.00">Tests.iperfServerWrapper</text>
</a>
</g>
</g>
<!-- Node1&#45;&gt;Node2 -->
<g id="edge1" class="edge"><title>Node1&#45;&gt;Node2</title>
<path fill="none" stroke="midnightblue" d="M130.422,-36.5093C138.71,-37.4753 147.244,-38.4701 155.661,-39.4513"/>
<polygon fill="midnightblue" stroke="midnightblue" points="155.507,-42.957 165.845,-40.6384 156.318,-36.004 155.507,-42.957"/>
</g>
<!-- Node3 -->
<g id="node3" class="node"><title>Node3</title>
<g id="a_node3"><a xlink:href="namespaceTests.html#a5f503e31479375a2870ca28ef4ae51a3" target="_top" xlink:title="Tests.iperfClientWrapper">
<polygon fill="white" stroke="black" points="167.5,-0.5 167.5,-19.5 292.5,-19.5 292.5,-0.5 167.5,-0.5"/>
<text text-anchor="middle" x="230" y="-7.5" font-family="Helvetica,sans-Serif" font-size="10.00">Tests.iperfClientWrapper</text>
</a>
</g>
</g>
<!-- Node1&#45;&gt;Node3 -->
<g id="edge2" class="edge"><title>Node1&#45;&gt;Node3</title>
<path fill="none" stroke="midnightblue" d="M130.422,-21.4907C139.28,-20.4582 148.419,-19.3929 157.396,-18.3465"/>
<polygon fill="midnightblue" stroke="midnightblue" points="157.911,-21.8102 167.438,-17.1759 157.1,-14.8573 157.911,-21.8102"/>
</g>
</g>
</svg>
