<?xml version="1.0" encoding="UTF-8" standalone="no"?>
<!DOCTYPE svg PUBLIC "-//W3C//DTD SVG 1.1//EN"
 "http://www.w3.org/Graphics/SVG/1.1/DTD/svg11.dtd">
<!-- Generated by graphviz version 2.38.0 (20140413.2041)
 -->
<!-- Title: MapReduceJob.MapReduceJob.run Pages: 1 -->
<svg width="411pt" height="78pt"
 viewBox="0.00 0.00 411.00 77.50" xmlns="http://www.w3.org/2000/svg" xmlns:xlink="http://www.w3.org/1999/xlink">
<g id="graph0" class="graph" transform="scale(1 1) rotate(0) translate(4 73.5)">
<title>MapReduceJob.MapReduceJob.run</title>
<polygon fill="white" stroke="none" points="-4,4 -4,-73.5 407,-73.5 407,4 -4,4"/>
<!-- Node1 -->
<g id="node1" class="node"><title>Node1</title>
<polygon fill="#bfbfbf" stroke="black" points="0,-28 0,-47 173,-47 173,-28 0,-28"/>
<text text-anchor="middle" x="86.5" y="-35" font-family="Helvetica,sans-Serif" font-size="10.00">MapReduceJob.MapReduceJob.run</text>
</g>
<!-- Node2 -->
<g id="node2" class="node"><title>Node2</title>
<g id="a_node2"><a xlink:href="classMapReduceJob_1_1MapReduceJob.html#a3c48711661a4d2410c4d5bc54e273983" target="_top" xlink:title="MapReduceJob.MapReduceJob.getTime">
<polygon fill="white" stroke="black" points="209,-50 209,-69 403,-69 403,-50 209,-50"/>
<text text-anchor="middle" x="306" y="-57" font-family="Helvetica,sans-Serif" font-size="10.00">MapReduceJob.MapReduceJob.getTime</text>
</a>
</g>
</g>
<!-- Node1&#45;&gt;Node2 -->
<g id="edge1" class="edge"><title>Node1&#45;&gt;Node2</title>
<path fill="none" stroke="midnightblue" d="M173.15,-46.1634C182.229,-47.0818 191.533,-48.0229 200.794,-48.9596"/>
<polygon fill="midnightblue" stroke="midnightblue" points="200.511,-52.4487 210.812,-49.9729 201.215,-45.4843 200.511,-52.4487"/>
</g>
<!-- Node3 -->
<g id="node3" class="node"><title>Node3</title>
<g id="a_node3"><a xlink:href="classMapReduceJob_1_1MapReduceJob.html#aa0c77de18213d8ebb4069050f6ffef4e" target="_top" xlink:title="MapReduceJob.MapReduceJob.set\lIperfPair">
<polygon fill="white" stroke="black" points="219.5,-0.5 219.5,-30.5 392.5,-30.5 392.5,-0.5 219.5,-0.5"/>
<text text-anchor="start" x="227.5" y="-18.5" font-family="Helvetica,sans-Serif" font-size="10.00">MapReduceJob.MapReduceJob.set</text>
<text text-anchor="middle" x="306" y="-7.5" font-family="Helvetica,sans-Serif" font-size="10.00">IperfPair</text>
</a>
</g>
</g>
<!-- Node1&#45;&gt;Node3 -->
<g id="edge2" class="edge"><title>Node1&#45;&gt;Node3</title>
<path fill="none" stroke="midnightblue" d="M173.15,-28.8366C185.037,-27.6342 197.311,-26.3927 209.366,-25.1733"/>
<polygon fill="midnightblue" stroke="midnightblue" points="209.832,-28.6442 219.428,-24.1555 209.127,-21.6797 209.832,-28.6442"/>
</g>
</g>
</svg>
