<?xml version="1.0" encoding="UTF-8" standalone="no"?>
<!DOCTYPE svg PUBLIC "-//W3C//DTD SVG 1.1//EN"
 "http://www.w3.org/Graphics/SVG/1.1/DTD/svg11.dtd">
<!-- Generated by graphviz version 2.38.0 (20140413.2041)
 -->
<!-- Title: WCEnabler::WorkConservationFlowHandler::stateToString Pages: 1 -->
<svg width="371pt" height="176pt"
 viewBox="0.00 0.00 371.00 175.50" xmlns="http://www.w3.org/2000/svg" xmlns:xlink="http://www.w3.org/1999/xlink">
<g id="graph0" class="graph" transform="scale(1 1) rotate(0) translate(4 171.5)">
<title>WCEnabler::WorkConservationFlowHandler::stateToString</title>
<polygon fill="white" stroke="none" points="-4,4 -4,-171.5 367,-171.5 367,4 -4,4"/>
<!-- Node1 -->
<g id="node1" class="node"><title>Node1</title>
<polygon fill="#bfbfbf" stroke="black" points="0,-73.5 0,-103.5 154,-103.5 154,-73.5 0,-73.5"/>
<text text-anchor="start" x="8" y="-91.5" font-family="Helvetica,sans-Serif" font-size="10.00">WCEnabler::WorkConservation</text>
<text text-anchor="middle" x="77" y="-80.5" font-family="Helvetica,sans-Serif" font-size="10.00">FlowHandler::stateToString</text>
</g>
<!-- Node2 -->
<g id="node2" class="node"><title>Node2</title>
<g id="a_node2"><a xlink:href="classCommon_1_1LoggingHandler.html#a5c72b411fc450b086dcd31246e66bab0" target="_top" xlink:title="log method to log the given string ">
<polygon fill="white" stroke="black" points="202,-148 202,-167 351,-167 351,-148 202,-148"/>
<text text-anchor="middle" x="276.5" y="-155" font-family="Helvetica,sans-Serif" font-size="10.00">Common::LoggingHandler::log</text>
</a>
</g>
</g>
<!-- Node1&#45;&gt;Node2 -->
<g id="edge1" class="edge"><title>Node1&#45;&gt;Node2</title>
<path fill="none" stroke="midnightblue" d="M107.302,-103.539C129.529,-114.461 161.088,-128.942 190,-138.5 197.886,-141.107 206.3,-143.467 214.657,-145.566"/>
<polygon fill="midnightblue" stroke="midnightblue" points="213.865,-148.975 224.406,-147.909 215.501,-142.169 213.865,-148.975"/>
</g>
<!-- Node3 -->
<g id="node3" class="node"><title>Node3</title>
<g id="a_node3"><a xlink:href="classCommon_1_1Math_1_1ExponentialSmoothingCalculator.html#a6cac576f776741fe1a3121b3c56ff273" target="_top" xlink:title="rate getter ">
<polygon fill="white" stroke="black" points="206,-98.5 206,-128.5 347,-128.5 347,-98.5 206,-98.5"/>
<text text-anchor="start" x="214" y="-116.5" font-family="Helvetica,sans-Serif" font-size="10.00">Common::Math::Exponential</text>
<text text-anchor="middle" x="276.5" y="-105.5" font-family="Helvetica,sans-Serif" font-size="10.00">SmoothingCalculator::rate</text>
</a>
</g>
</g>
<!-- Node1&#45;&gt;Node3 -->
<g id="edge2" class="edge"><title>Node1&#45;&gt;Node3</title>
<path fill="none" stroke="midnightblue" d="M154.076,-98.1299C167.804,-99.8677 182.151,-101.684 195.974,-103.433"/>
<polygon fill="midnightblue" stroke="midnightblue" points="195.571,-106.91 205.931,-104.694 196.45,-99.9657 195.571,-106.91"/>
</g>
<!-- Node4 -->
<g id="node4" class="node"><title>Node4</title>
<g id="a_node4"><a xlink:href="classWCEnabler_1_1WorkConservationFlowHandler.html#a61d235135353ecb317ca03b2e646f248" target="_top" xlink:title="currentState getter ">
<polygon fill="white" stroke="black" points="199.5,-49.5 199.5,-79.5 353.5,-79.5 353.5,-49.5 199.5,-49.5"/>
<text text-anchor="start" x="207.5" y="-67.5" font-family="Helvetica,sans-Serif" font-size="10.00">WCEnabler::WorkConservation</text>
<text text-anchor="middle" x="276.5" y="-56.5" font-family="Helvetica,sans-Serif" font-size="10.00">FlowHandler::currentState</text>
</a>
</g>
</g>
<!-- Node1&#45;&gt;Node4 -->
<g id="edge3" class="edge"><title>Node1&#45;&gt;Node4</title>
<path fill="none" stroke="midnightblue" d="M154.076,-79.2553C165.59,-77.8561 177.539,-76.4041 189.25,-74.981"/>
<polygon fill="midnightblue" stroke="midnightblue" points="189.958,-78.4208 199.463,-73.7399 189.114,-71.4719 189.958,-78.4208"/>
</g>
<!-- Node5 -->
<g id="node5" class="node"><title>Node5</title>
<g id="a_node5"><a xlink:href="classCommon_1_1Math_1_1ExponentialSmoothingCalculator.html#a32a58acc5284f9957ac36a6086a9bb02" target="_top" xlink:title="calculateRate calculates the rate and returns it ">
<polygon fill="white" stroke="black" points="190,-0.5 190,-30.5 363,-30.5 363,-0.5 190,-0.5"/>
<text text-anchor="start" x="198" y="-18.5" font-family="Helvetica,sans-Serif" font-size="10.00">Common::Math::Exponential</text>
<text text-anchor="middle" x="276.5" y="-7.5" font-family="Helvetica,sans-Serif" font-size="10.00">SmoothingCalculator::calculateRate</text>
</a>
</g>
</g>
<!-- Node1&#45;&gt;Node5 -->
<g id="edge4" class="edge"><title>Node1&#45;&gt;Node5</title>
<path fill="none" stroke="midnightblue" d="M110.421,-73.3753C132.564,-63.3512 162.722,-50.293 190,-40.5 196.705,-38.0929 203.765,-35.7427 210.835,-33.5068"/>
<polygon fill="midnightblue" stroke="midnightblue" points="211.931,-36.8316 220.451,-30.534 209.863,-30.1439 211.931,-36.8316"/>
</g>
</g>
</svg>
