<?xml version="1.0" encoding="UTF-8" standalone="no"?>
<!DOCTYPE svg PUBLIC "-//W3C//DTD SVG 1.1//EN"
 "http://www.w3.org/Graphics/SVG/1.1/DTD/svg11.dtd">
<!-- Generated by graphviz version 2.38.0 (20140413.2041)
 -->
<!-- Title: riplpox.riplpox.RipLController.dpid_port_to_host_index Pages: 1 -->
<svg width="356pt" height="519pt"
 viewBox="0.00 0.00 356.00 519.00" xmlns="http://www.w3.org/2000/svg" xmlns:xlink="http://www.w3.org/1999/xlink">
<g id="graph0" class="graph" transform="scale(1 1) rotate(0) translate(4 515)">
<title>riplpox.riplpox.RipLController.dpid_port_to_host_index</title>
<polygon fill="white" stroke="none" points="-4,4 -4,-515 352,-515 352,4 -4,4"/>
<!-- Node1 -->
<g id="node1" class="node"><title>Node1</title>
<polygon fill="#bfbfbf" stroke="black" points="0,-235.5 0,-265.5 163,-265.5 163,-235.5 0,-235.5"/>
<text text-anchor="start" x="8" y="-253.5" font-family="Helvetica,sans-Serif" font-size="10.00">riplpox.riplpox.RipLController.dpid</text>
<text text-anchor="middle" x="81.5" y="-242.5" font-family="Helvetica,sans-Serif" font-size="10.00">_port_to_host_index</text>
</g>
<!-- Node1&#45;&gt;Node1 -->
<g id="edge3" class="edge"><title>Node1&#45;&gt;Node1</title>
<path fill="none" stroke="midnightblue" d="M48.04,-265.659C39.9717,-275.057 51.125,-284 81.5,-284 100.01,-284 111.382,-280.679 115.616,-275.958"/>
<polygon fill="midnightblue" stroke="midnightblue" points="119.089,-275.416 114.96,-265.659 112.103,-275.861 119.089,-275.416"/>
</g>
<!-- Node2 -->
<g id="node2" class="node"><title>Node2</title>
<g id="a_node2"><a xlink:href="classriplpox_1_1riplpox_1_1RipLController.html#a969b7f7a28e4905dc079bd8c8630e541" target="_top" xlink:title="riplpox.riplpox.RipLController.\l_ecmp_hash">
<polygon fill="white" stroke="black" points="201,-480.5 201,-510.5 346,-510.5 346,-480.5 201,-480.5"/>
<text text-anchor="start" x="209" y="-498.5" font-family="Helvetica,sans-Serif" font-size="10.00">riplpox.riplpox.RipLController.</text>
<text text-anchor="middle" x="273.5" y="-487.5" font-family="Helvetica,sans-Serif" font-size="10.00">_ecmp_hash</text>
</a>
</g>
</g>
<!-- Node1&#45;&gt;Node2 -->
<g id="edge1" class="edge"><title>Node1&#45;&gt;Node2</title>
<path fill="none" stroke="midnightblue" d="M86.2033,-265.616C96.7201,-305.372 130.534,-413.757 199,-471.5 200.539,-472.798 202.15,-474.027 203.82,-475.189"/>
<polygon fill="midnightblue" stroke="midnightblue" points="202.216,-478.309 212.589,-480.468 205.827,-472.312 202.216,-478.309"/>
</g>
<!-- Node3 -->
<g id="node3" class="node"><title>Node3</title>
<g id="a_node3"><a xlink:href="classriplpox_1_1riplpox_1_1RipLController.html#acf9d69779c299b27ef01725be9b7f7a2" target="_top" xlink:title="riplpox.riplpox.RipLController.\l_raw_dpids">
<polygon fill="white" stroke="black" points="201,-431.5 201,-461.5 346,-461.5 346,-431.5 201,-431.5"/>
<text text-anchor="start" x="209" y="-449.5" font-family="Helvetica,sans-Serif" font-size="10.00">riplpox.riplpox.RipLController.</text>
<text text-anchor="middle" x="273.5" y="-438.5" font-family="Helvetica,sans-Serif" font-size="10.00">_raw_dpids</text>
</a>
</g>
</g>
<!-- Node1&#45;&gt;Node3 -->
<g id="edge2" class="edge"><title>Node1&#45;&gt;Node3</title>
<path fill="none" stroke="midnightblue" d="M88.6206,-265.61C102.88,-298.936 141.526,-379.212 199,-422.5 200.83,-423.878 202.742,-425.179 204.717,-426.407"/>
<polygon fill="midnightblue" stroke="midnightblue" points="203.274,-429.607 213.727,-431.337 206.634,-423.466 203.274,-429.607"/>
</g>
<!-- Node4 -->
<g id="node4" class="node"><title>Node4</title>
<g id="a_node4"><a xlink:href="classriplpox_1_1riplpox_1_1RipLController.html#ad22fe2d7d00b634b4b9951a4e3631067" target="_top" xlink:title="riplpox.riplpox.RipLController.\l_install_hybrid_dynamic_flows">
<polygon fill="white" stroke="black" points="199,-382.5 199,-412.5 348,-412.5 348,-382.5 199,-382.5"/>
<text text-anchor="start" x="207" y="-400.5" font-family="Helvetica,sans-Serif" font-size="10.00">riplpox.riplpox.RipLController.</text>
<text text-anchor="middle" x="273.5" y="-389.5" font-family="Helvetica,sans-Serif" font-size="10.00">_install_hybrid_dynamic_flows</text>
</a>
</g>
</g>
<!-- Node1&#45;&gt;Node4 -->
<g id="edge4" class="edge"><title>Node1&#45;&gt;Node4</title>
<path fill="none" stroke="midnightblue" d="M92.9016,-265.667C111.346,-291.46 152.271,-343.937 199,-373.5 201.583,-375.134 204.287,-376.667 207.071,-378.104"/>
<polygon fill="midnightblue" stroke="midnightblue" points="205.643,-381.3 216.184,-382.374 208.614,-374.962 205.643,-381.3"/>
</g>
<!-- Node5 -->
<g id="node5" class="node"><title>Node5</title>
<g id="a_node5"><a xlink:href="classriplpox_1_1riplpox_1_1RipLController.html#ab2a477c736c5479f835f7fd63b37cd94" target="_top" xlink:title="riplpox.riplpox.RipLController.\l_flood">
<polygon fill="white" stroke="black" points="201,-333.5 201,-363.5 346,-363.5 346,-333.5 201,-333.5"/>
<text text-anchor="start" x="209" y="-351.5" font-family="Helvetica,sans-Serif" font-size="10.00">riplpox.riplpox.RipLController.</text>
<text text-anchor="middle" x="273.5" y="-340.5" font-family="Helvetica,sans-Serif" font-size="10.00">_flood</text>
</a>
</g>
</g>
<!-- Node1&#45;&gt;Node5 -->
<g id="edge5" class="edge"><title>Node1&#45;&gt;Node5</title>
<path fill="none" stroke="midnightblue" d="M102.642,-265.51C125.182,-281.768 163.243,-307.633 199,-324.5 203.001,-326.387 207.189,-328.186 211.451,-329.888"/>
<polygon fill="midnightblue" stroke="midnightblue" points="210.262,-333.181 220.854,-333.457 212.746,-326.636 210.262,-333.181"/>
</g>
<!-- Node6 -->
<g id="node6" class="node"><title>Node6</title>
<g id="a_node6"><a xlink:href="classriplpox_1_1riplpox_1_1RipLController.html#a45417832d4e63de0d99a0ea2a4e69b7e" target="_top" xlink:title="riplpox.riplpox.RipLController.\l_handle_packet_reactive">
<polygon fill="white" stroke="black" points="201,-284.5 201,-314.5 346,-314.5 346,-284.5 201,-284.5"/>
<text text-anchor="start" x="209" y="-302.5" font-family="Helvetica,sans-Serif" font-size="10.00">riplpox.riplpox.RipLController.</text>
<text text-anchor="middle" x="273.5" y="-291.5" font-family="Helvetica,sans-Serif" font-size="10.00">_handle_packet_reactive</text>
</a>
</g>
</g>
<!-- Node1&#45;&gt;Node6 -->
<g id="edge6" class="edge"><title>Node1&#45;&gt;Node6</title>
<path fill="none" stroke="midnightblue" d="M140.797,-265.535C160.95,-270.732 183.706,-276.601 204.564,-281.98"/>
<polygon fill="midnightblue" stroke="midnightblue" points="203.756,-285.386 214.313,-284.494 205.504,-278.607 203.756,-285.386"/>
</g>
<!-- Node7 -->
<g id="node7" class="node"><title>Node7</title>
<g id="a_node7"><a xlink:href="classriplpox_1_1riplpox_1_1RipLController.html#a07889ed03bdf9f58654d08821eba731e" target="_top" xlink:title="riplpox.riplpox.RipLController.\l_handle_packet_proactive">
<polygon fill="white" stroke="black" points="201,-235.5 201,-265.5 346,-265.5 346,-235.5 201,-235.5"/>
<text text-anchor="start" x="209" y="-253.5" font-family="Helvetica,sans-Serif" font-size="10.00">riplpox.riplpox.RipLController.</text>
<text text-anchor="middle" x="273.5" y="-242.5" font-family="Helvetica,sans-Serif" font-size="10.00">_handle_packet_proactive</text>
</a>
</g>
</g>
<!-- Node1&#45;&gt;Node7 -->
<g id="edge7" class="edge"><title>Node1&#45;&gt;Node7</title>
<path fill="none" stroke="midnightblue" d="M163.077,-250.5C172.189,-250.5 181.483,-250.5 190.612,-250.5"/>
<polygon fill="midnightblue" stroke="midnightblue" points="190.83,-254 200.83,-250.5 190.83,-247 190.83,-254"/>
</g>
<!-- Node8 -->
<g id="node8" class="node"><title>Node8</title>
<g id="a_node8"><a xlink:href="classriplpox_1_1riplpox_1_1RipLController.html#ace45096b68854b160860e8c6a3f1ab7a" target="_top" xlink:title="riplpox.riplpox.RipLController.\l_handle_packet_hybrid">
<polygon fill="white" stroke="black" points="201,-186.5 201,-216.5 346,-216.5 346,-186.5 201,-186.5"/>
<text text-anchor="start" x="209" y="-204.5" font-family="Helvetica,sans-Serif" font-size="10.00">riplpox.riplpox.RipLController.</text>
<text text-anchor="middle" x="273.5" y="-193.5" font-family="Helvetica,sans-Serif" font-size="10.00">_handle_packet_hybrid</text>
</a>
</g>
</g>
<!-- Node1&#45;&gt;Node8 -->
<g id="edge8" class="edge"><title>Node1&#45;&gt;Node8</title>
<path fill="none" stroke="midnightblue" d="M140.797,-235.465C160.95,-230.268 183.706,-224.399 204.564,-219.02"/>
<polygon fill="midnightblue" stroke="midnightblue" points="205.504,-222.393 214.313,-216.506 203.756,-215.614 205.504,-222.393"/>
</g>
<!-- Node9 -->
<g id="node9" class="node"><title>Node9</title>
<g id="a_node9"><a xlink:href="classriplpox_1_1riplpox_1_1RipLController.html#a2e2454a67fe06586e9f92f6e39abfe6c" target="_top" xlink:title="riplpox.riplpox.RipLController.\l_install_proactive_path">
<polygon fill="white" stroke="black" points="201,-137.5 201,-167.5 346,-167.5 346,-137.5 201,-137.5"/>
<text text-anchor="start" x="209" y="-155.5" font-family="Helvetica,sans-Serif" font-size="10.00">riplpox.riplpox.RipLController.</text>
<text text-anchor="middle" x="273.5" y="-144.5" font-family="Helvetica,sans-Serif" font-size="10.00">_install_proactive_path</text>
</a>
</g>
</g>
<!-- Node1&#45;&gt;Node9 -->
<g id="edge9" class="edge"><title>Node1&#45;&gt;Node9</title>
<path fill="none" stroke="midnightblue" d="M103.543,-235.212C126.241,-219.232 163.864,-194.205 199,-177.5 203.599,-175.313 208.441,-173.228 213.355,-171.261"/>
<polygon fill="midnightblue" stroke="midnightblue" points="214.758,-174.472 222.847,-167.629 212.257,-167.934 214.758,-174.472"/>
</g>
<!-- Node10 -->
<g id="node10" class="node"><title>Node10</title>
<g id="a_node10"><a xlink:href="namespaceriplpox_1_1riplpox.html#a4f9e521d369e44ba66d7be5775992079" target="_top" xlink:title="riplpox.riplpox.sep">
<polygon fill="white" stroke="black" points="226,-99 226,-118 321,-118 321,-99 226,-99"/>
<text text-anchor="middle" x="273.5" y="-106" font-family="Helvetica,sans-Serif" font-size="10.00">riplpox.riplpox.sep</text>
</a>
</g>
</g>
<!-- Node1&#45;&gt;Node10 -->
<g id="edge10" class="edge"><title>Node1&#45;&gt;Node10</title>
<path fill="none" stroke="midnightblue" d="M92.7793,-235.212C111.039,-209.26 151.693,-156.669 199,-128.5 204.369,-125.303 210.26,-122.605 216.297,-120.331"/>
<polygon fill="midnightblue" stroke="midnightblue" points="217.502,-123.618 225.851,-117.094 215.256,-116.988 217.502,-123.618"/>
</g>
<!-- Node11 -->
<g id="node11" class="node"><title>Node11</title>
<g id="a_node11"><a xlink:href="classriplpox_1_1riplpox_1_1RipLController.html#a3619da25293caaf47b4bc99f93bfe907" target="_top" xlink:title="riplpox.riplpox.RipLController.\l_install_proactive_flows">
<polygon fill="white" stroke="black" points="201,-49.5 201,-79.5 346,-79.5 346,-49.5 201,-49.5"/>
<text text-anchor="start" x="209" y="-67.5" font-family="Helvetica,sans-Serif" font-size="10.00">riplpox.riplpox.RipLController.</text>
<text text-anchor="middle" x="273.5" y="-56.5" font-family="Helvetica,sans-Serif" font-size="10.00">_install_proactive_flows</text>
</a>
</g>
</g>
<!-- Node1&#45;&gt;Node11 -->
<g id="edge11" class="edge"><title>Node1&#45;&gt;Node11</title>
<path fill="none" stroke="midnightblue" d="M89.4996,-235.221C104.81,-203.453 144.326,-129.879 199,-89.5 201.521,-87.6383 204.19,-85.9085 206.96,-84.3021"/>
<polygon fill="midnightblue" stroke="midnightblue" points="208.815,-87.2832 216.09,-79.5809 205.599,-81.0654 208.815,-87.2832"/>
</g>
<!-- Node12 -->
<g id="node12" class="node"><title>Node12</title>
<g id="a_node12"><a xlink:href="classriplpox_1_1riplpox_1_1RipLController.html#acb12f80b693083c5ab73cc84d55e3f4a" target="_top" xlink:title="riplpox.riplpox.RipLController.\l_install_hybrid_static_flows">
<polygon fill="white" stroke="black" points="201,-0.5 201,-30.5 346,-30.5 346,-0.5 201,-0.5"/>
<text text-anchor="start" x="209" y="-18.5" font-family="Helvetica,sans-Serif" font-size="10.00">riplpox.riplpox.RipLController.</text>
<text text-anchor="middle" x="273.5" y="-7.5" font-family="Helvetica,sans-Serif" font-size="10.00">_install_hybrid_static_flows</text>
</a>
</g>
</g>
<!-- Node1&#45;&gt;Node12 -->
<g id="edge12" class="edge"><title>Node1&#45;&gt;Node12</title>
<path fill="none" stroke="midnightblue" d="M86.7197,-235.343C98.1622,-196.999 133.414,-95.3049 199,-40.5 201.036,-38.7985 203.194,-37.2108 205.442,-35.7296"/>
<polygon fill="midnightblue" stroke="midnightblue" points="207.571,-38.5432 214.5,-30.528 204.085,-32.4729 207.571,-38.5432"/>
</g>
</g>
</svg>
