<?xml version="1.0" encoding="UTF-8" standalone="no"?>
<!DOCTYPE svg PUBLIC "-//W3C//DTD SVG 1.1//EN"
 "http://www.w3.org/Graphics/SVG/1.1/DTD/svg11.dtd">
<!-- Generated by graphviz version 2.38.0 (20140413.2041)
 -->
<!-- Title: Common::Math::SimpleRateCalculator::calculateRate Pages: 1 -->
<svg width="487pt" height="39pt"
 viewBox="0.00 0.00 487.00 39.00" xmlns="http://www.w3.org/2000/svg" xmlns:xlink="http://www.w3.org/1999/xlink">
<g id="graph0" class="graph" transform="scale(1 1) rotate(0) translate(4 35)">
<title>Common::Math::SimpleRateCalculator::calculateRate</title>
<polygon fill="white" stroke="none" points="-4,4 -4,-35 483,-35 483,4 -4,4"/>
<!-- Node1 -->
<g id="node1" class="node"><title>Node1</title>
<polygon fill="#bfbfbf" stroke="black" points="0,-0.5 0,-30.5 141,-30.5 141,-0.5 0,-0.5"/>
<text text-anchor="start" x="8" y="-18.5" font-family="Helvetica,sans-Serif" font-size="10.00">Common::Math::SimpleRate</text>
<text text-anchor="middle" x="70.5" y="-7.5" font-family="Helvetica,sans-Serif" font-size="10.00">Calculator::calculateRate</text>
</g>
<!-- Node2 -->
<g id="node2" class="node"><title>Node2</title>
<g id="a_node2"><a xlink:href="classBandwidthCalculator.html#a49e5a450975798a5659804c6f893e835" target="_top" xlink:title="ecn getter ">
<polygon fill="white" stroke="black" points="177,-6 177,-25 305,-25 305,-6 177,-6"/>
<text text-anchor="middle" x="241" y="-13" font-family="Helvetica,sans-Serif" font-size="10.00">BandwidthCalculator::ecn</text>
</a>
</g>
</g>
<!-- Node1&#45;&gt;Node2 -->
<g id="edge1" class="edge"><title>Node1&#45;&gt;Node2</title>
<path fill="none" stroke="midnightblue" d="M151.102,-15.5C159.745,-15.5 168.453,-15.5 176.862,-15.5"/>
<polygon fill="midnightblue" stroke="midnightblue" points="151.008,-12.0001 141.008,-15.5 151.008,-19.0001 151.008,-12.0001"/>
</g>
<!-- Node3 -->
<g id="node3" class="node"><title>Node3</title>
<g id="a_node3"><a xlink:href="classBandwidthCommunicator.html#a29f5f37991ce052d9504fe26d350aed4" target="_top" xlink:title="BandwidthCommunicator\l::~BandwidthCommunicator">
<polygon fill="white" stroke="black" points="341,-0.5 341,-30.5 479,-30.5 479,-0.5 341,-0.5"/>
<text text-anchor="start" x="349" y="-18.5" font-family="Helvetica,sans-Serif" font-size="10.00">BandwidthCommunicator</text>
<text text-anchor="middle" x="410" y="-7.5" font-family="Helvetica,sans-Serif" font-size="10.00">::~BandwidthCommunicator</text>
</a>
</g>
</g>
<!-- Node2&#45;&gt;Node3 -->
<g id="edge2" class="edge"><title>Node2&#45;&gt;Node3</title>
<path fill="none" stroke="midnightblue" d="M315.345,-15.5C323.792,-15.5 332.379,-15.5 340.755,-15.5"/>
<polygon fill="midnightblue" stroke="midnightblue" points="315.136,-12.0001 305.136,-15.5 315.136,-19.0001 315.136,-12.0001"/>
</g>
</g>
</svg>
