<?xml version="1.0" encoding="UTF-8" standalone="no"?>
<!DOCTYPE svg PUBLIC "-//W3C//DTD SVG 1.1//EN"
 "http://www.w3.org/Graphics/SVG/1.1/DTD/svg11.dtd">
<!-- Generated by graphviz version 2.38.0 (20140413.2041)
 -->
<!-- Title: TestHandler::ClientServerTest Pages: 1 -->
<svg width="157pt" height="152pt"
 viewBox="0.00 0.00 157.00 152.00" xmlns="http://www.w3.org/2000/svg" xmlns:xlink="http://www.w3.org/1999/xlink">
<g id="graph0" class="graph" transform="scale(1 1) rotate(0) translate(4 148)">
<title>TestHandler::ClientServerTest</title>
<polygon fill="white" stroke="none" points="-4,4 -4,-148 153,-148 153,4 -4,4"/>
<!-- Node1 -->
<g id="node1" class="node"><title>Node1</title>
<polygon fill="#bfbfbf" stroke="black" points="-1.42109e-14,-0.5 -1.42109e-14,-19.5 149,-19.5 149,-0.5 -1.42109e-14,-0.5"/>
<text text-anchor="middle" x="74.5" y="-7.5" font-family="Helvetica,sans-Serif" font-size="10.00">TestHandler::ClientServerTest</text>
</g>
<!-- Node2 -->
<g id="node2" class="node"><title>Node2</title>
<g id="a_node2"><a xlink:href="classTestHandler_1_1TestBaseClass.html" target="_top" xlink:title="TestHandler::TestBaseClass">
<polygon fill="white" stroke="black" points="3,-57.5 3,-76.5 146,-76.5 146,-57.5 3,-57.5"/>
<text text-anchor="middle" x="74.5" y="-64.5" font-family="Helvetica,sans-Serif" font-size="10.00">TestHandler::TestBaseClass</text>
</a>
</g>
</g>
<!-- Node2&#45;&gt;Node1 -->
<g id="edge1" class="edge"><title>Node2&#45;&gt;Node1</title>
<path fill="none" stroke="midnightblue" d="M74.5,-47.1166C74.5,-37.8173 74.5,-27.0557 74.5,-19.7149"/>
<polygon fill="midnightblue" stroke="midnightblue" points="71.0001,-47.4062 74.5,-57.4062 78.0001,-47.4063 71.0001,-47.4062"/>
</g>
<!-- Node3 -->
<g id="node3" class="node"><title>Node3</title>
<g id="a_node3"><a xlink:href="structTestHandler_1_1TestData.html" target="_top" xlink:title="TestHandler::TestData">
<polygon fill="white" stroke="black" points="16.5,-124.5 16.5,-143.5 132.5,-143.5 132.5,-124.5 16.5,-124.5"/>
<text text-anchor="middle" x="74.5" y="-131.5" font-family="Helvetica,sans-Serif" font-size="10.00">TestHandler::TestData</text>
</a>
</g>
</g>
<!-- Node3&#45;&gt;Node2 -->
<g id="edge2" class="edge"><title>Node3&#45;&gt;Node2</title>
<path fill="none" stroke="#9a32cd" stroke-dasharray="5,2" d="M74.5,-114.037C74.5,-101.67 74.5,-86.1198 74.5,-76.6273"/>
<polygon fill="#9a32cd" stroke="#9a32cd" points="71.0001,-114.234 74.5,-124.234 78.0001,-114.234 71.0001,-114.234"/>
<text text-anchor="middle" x="97.5" y="-98" font-family="Helvetica,sans-Serif" font-size="10.00"> _testData</text>
</g>
</g>
</svg>
