<?xml version="1.0" encoding="UTF-8" standalone="no"?>
<!DOCTYPE svg PUBLIC "-//W3C//DTD SVG 1.1//EN"
 "http://www.w3.org/Graphics/SVG/1.1/DTD/svg11.dtd">
<!-- Generated by graphviz version 2.38.0 (20140413.2041)
 -->
<!-- Title: WCEnabler::BandwidthCommunicator::~BandwidthCommunicator Pages: 1 -->
<svg width="599pt" height="361pt"
 viewBox="0.00 0.00 599.00 361.00" xmlns="http://www.w3.org/2000/svg" xmlns:xlink="http://www.w3.org/1999/xlink">
<g id="graph0" class="graph" transform="scale(1 1) rotate(0) translate(4 357)">
<title>WCEnabler::BandwidthCommunicator::~BandwidthCommunicator</title>
<polygon fill="white" stroke="none" points="-4,4 -4,-357 595,-357 595,4 -4,4"/>
<!-- Node1 -->
<g id="node1" class="node"><title>Node1</title>
<polygon fill="#bfbfbf" stroke="black" points="0,-150.5 0,-180.5 182,-180.5 182,-150.5 0,-150.5"/>
<text text-anchor="start" x="8" y="-168.5" font-family="Helvetica,sans-Serif" font-size="10.00">WCEnabler::BandwidthCommunicator</text>
<text text-anchor="middle" x="91" y="-157.5" font-family="Helvetica,sans-Serif" font-size="10.00">::~BandwidthCommunicator</text>
</g>
<!-- Node2 -->
<g id="node2" class="node"><title>Node2</title>
<g id="a_node2"><a xlink:href="classCommon_1_1TCControl.html#a8ade51df8d9c334b570f023e3fafa7bc" target="_top" xlink:title="clearTCCommands clears the current tc settings ">
<polygon fill="white" stroke="black" points="255.5,-322.5 255.5,-352.5 368.5,-352.5 368.5,-322.5 255.5,-322.5"/>
<text text-anchor="start" x="263.5" y="-340.5" font-family="Helvetica,sans-Serif" font-size="10.00">Common::TCControl::</text>
<text text-anchor="middle" x="312" y="-329.5" font-family="Helvetica,sans-Serif" font-size="10.00">clearTCCommands</text>
</a>
</g>
</g>
<!-- Node1&#45;&gt;Node2 -->
<g id="edge1" class="edge"><title>Node1&#45;&gt;Node2</title>
<path fill="none" stroke="midnightblue" d="M100.551,-180.76C118.308,-210.996 162.215,-278.6 218,-313.5 226.376,-318.74 235.856,-322.84 245.481,-326.047"/>
<polygon fill="midnightblue" stroke="midnightblue" points="244.534,-329.417 255.119,-328.966 246.563,-322.718 244.534,-329.417"/>
</g>
<!-- Node3 -->
<g id="node3" class="node"><title>Node3</title>
<g id="a_node3"><a xlink:href="classCommon_1_1TCControl.html#a1b50fa70591a78c957a35bd67a459ce1" target="_top" xlink:title="setEgressBandwidth set the outgoing bandwidth rate on an interface ">
<polygon fill="white" stroke="black" points="255.5,-273.5 255.5,-303.5 368.5,-303.5 368.5,-273.5 255.5,-273.5"/>
<text text-anchor="start" x="263.5" y="-291.5" font-family="Helvetica,sans-Serif" font-size="10.00">Common::TCControl::</text>
<text text-anchor="middle" x="312" y="-280.5" font-family="Helvetica,sans-Serif" font-size="10.00">setEgressBandwidth</text>
</a>
</g>
</g>
<!-- Node1&#45;&gt;Node3 -->
<g id="edge2" class="edge"><title>Node1&#45;&gt;Node3</title>
<path fill="none" stroke="midnightblue" d="M106.853,-180.626C129.056,-202.376 173.114,-242.302 218,-264.5 226.542,-268.724 235.905,-272.259 245.296,-275.2"/>
<polygon fill="midnightblue" stroke="midnightblue" points="244.48,-278.608 255.06,-278.056 246.445,-271.89 244.48,-278.608"/>
</g>
<!-- Node4 -->
<g id="node4" class="node"><title>Node4</title>
<g id="a_node4"><a xlink:href="classWCEnabler_1_1WorkConservationFlowHandler.html#ac885e2a7596f6be373024de1a98c7480" target="_top" xlink:title="updateWorkConservation method updates the work conservation flow ">
<polygon fill="white" stroke="black" points="218,-224.5 218,-254.5 406,-254.5 406,-224.5 218,-224.5"/>
<text text-anchor="start" x="226" y="-242.5" font-family="Helvetica,sans-Serif" font-size="10.00">WCEnabler::WorkConservation</text>
<text text-anchor="middle" x="312" y="-231.5" font-family="Helvetica,sans-Serif" font-size="10.00">FlowHandler::updateWorkConservation</text>
</a>
</g>
</g>
<!-- Node1&#45;&gt;Node4 -->
<g id="edge3" class="edge"><title>Node1&#45;&gt;Node4</title>
<path fill="none" stroke="midnightblue" d="M126.603,-180.591C151.68,-191.191 186.563,-205.251 218,-215.5 224.497,-217.618 231.298,-219.674 238.138,-221.632"/>
<polygon fill="midnightblue" stroke="midnightblue" points="237.585,-225.111 248.158,-224.427 239.466,-218.368 237.585,-225.111"/>
</g>
<!-- Node5 -->
<g id="node5" class="node"><title>Node5</title>
<g id="a_node5"><a xlink:href="classWCEnabler_1_1BandwidthCalculator.html#aa0619897c4b0911466067845b9c4bfd5" target="_top" xlink:title="bandwidthGuaranteeRate getter ">
<polygon fill="white" stroke="black" points="230.5,-175.5 230.5,-205.5 393.5,-205.5 393.5,-175.5 230.5,-175.5"/>
<text text-anchor="start" x="238.5" y="-193.5" font-family="Helvetica,sans-Serif" font-size="10.00">WCEnabler::BandwidthCalculator</text>
<text text-anchor="middle" x="312" y="-182.5" font-family="Helvetica,sans-Serif" font-size="10.00">::bandwidthGuaranteeRate</text>
</a>
</g>
</g>
<!-- Node1&#45;&gt;Node5 -->
<g id="edge4" class="edge"><title>Node1&#45;&gt;Node5</title>
<path fill="none" stroke="midnightblue" d="M182.024,-175.777C194.684,-177.222 207.703,-178.708 220.374,-180.155"/>
<polygon fill="midnightblue" stroke="midnightblue" points="220.116,-183.648 230.449,-181.305 220.91,-176.693 220.116,-183.648"/>
</g>
<!-- Node6 -->
<g id="node6" class="node"><title>Node6</title>
<g id="a_node6"><a xlink:href="classWCEnabler_1_1BandwidthCalculator.html#ab0c0a49b26ee11af3836d2cf54fecd48" target="_top" xlink:title="workConservingRate getter ">
<polygon fill="white" stroke="black" points="230.5,-126.5 230.5,-156.5 393.5,-156.5 393.5,-126.5 230.5,-126.5"/>
<text text-anchor="start" x="238.5" y="-144.5" font-family="Helvetica,sans-Serif" font-size="10.00">WCEnabler::BandwidthCalculator</text>
<text text-anchor="middle" x="312" y="-133.5" font-family="Helvetica,sans-Serif" font-size="10.00">::workConservingRate</text>
</a>
</g>
</g>
<!-- Node1&#45;&gt;Node6 -->
<g id="edge5" class="edge"><title>Node1&#45;&gt;Node6</title>
<path fill="none" stroke="midnightblue" d="M182.024,-155.634C194.684,-154.247 207.703,-152.82 220.374,-151.432"/>
<polygon fill="midnightblue" stroke="midnightblue" points="220.889,-154.896 230.449,-150.328 220.127,-147.938 220.889,-154.896"/>
</g>
<!-- Node7 -->
<g id="node7" class="node"><title>Node7</title>
<g id="a_node7"><a xlink:href="classWCEnabler_1_1BandwidthCalculator.html#ab9a961a6fe8e0d9b92163f37f5e64cd2" target="_top" xlink:title="ecn getter ">
<polygon fill="white" stroke="black" points="219.5,-88 219.5,-107 404.5,-107 404.5,-88 219.5,-88"/>
<text text-anchor="middle" x="312" y="-95" font-family="Helvetica,sans-Serif" font-size="10.00">WCEnabler::BandwidthCalculator::ecn</text>
</a>
</g>
</g>
<!-- Node1&#45;&gt;Node7 -->
<g id="edge6" class="edge"><title>Node1&#45;&gt;Node7</title>
<path fill="none" stroke="midnightblue" d="M127.08,-150.486C152.088,-140.192 186.689,-126.772 218,-117.5 228.305,-114.448 239.381,-111.656 250.17,-109.188"/>
<polygon fill="midnightblue" stroke="midnightblue" points="250.962,-112.597 259.967,-107.014 249.446,-105.763 250.962,-112.597"/>
</g>
<!-- Node9 -->
<g id="node9" class="node"><title>Node9</title>
<g id="a_node9"><a xlink:href="classCommon_1_1LoggingHandler.html#a5c72b411fc450b086dcd31246e66bab0" target="_top" xlink:title="log method to log the given string ">
<polygon fill="white" stroke="black" points="442,-50 442,-69 591,-69 591,-50 442,-50"/>
<text text-anchor="middle" x="516.5" y="-57" font-family="Helvetica,sans-Serif" font-size="10.00">Common::LoggingHandler::log</text>
</a>
</g>
</g>
<!-- Node1&#45;&gt;Node9 -->
<g id="edge9" class="edge"><title>Node1&#45;&gt;Node9</title>
<path fill="none" stroke="midnightblue" d="M107.892,-150.166C130.332,-129.611 173.549,-93.9266 218,-78.5 287.099,-54.5194 370.571,-51.2253 431.489,-53.0861"/>
<polygon fill="midnightblue" stroke="midnightblue" points="431.708,-56.5962 441.828,-53.4578 431.96,-49.6007 431.708,-56.5962"/>
</g>
<!-- Node10 -->
<g id="node10" class="node"><title>Node10</title>
<g id="a_node10"><a xlink:href="classWCEnabler_1_1BandwidthCalculator.html#a56f0b87ca9b6950ad2b4de38c72d6bcb" target="_top" xlink:title="totalRate getter ">
<polygon fill="white" stroke="black" points="230.5,-0.5 230.5,-30.5 393.5,-30.5 393.5,-0.5 230.5,-0.5"/>
<text text-anchor="start" x="238.5" y="-18.5" font-family="Helvetica,sans-Serif" font-size="10.00">WCEnabler::BandwidthCalculator</text>
<text text-anchor="middle" x="312" y="-7.5" font-family="Helvetica,sans-Serif" font-size="10.00">::totalRate</text>
</a>
</g>
</g>
<!-- Node1&#45;&gt;Node10 -->
<g id="edge10" class="edge"><title>Node1&#45;&gt;Node10</title>
<path fill="none" stroke="midnightblue" d="M103.945,-150.339C124.596,-125.096 169.448,-74.3749 218,-45.5 225.231,-41.1993 233.151,-37.4391 241.221,-34.1713"/>
<polygon fill="midnightblue" stroke="midnightblue" points="242.627,-37.3816 250.732,-30.5584 240.141,-30.8378 242.627,-37.3816"/>
</g>
<!-- Node8 -->
<g id="node8" class="node"><title>Node8</title>
<g id="a_node8"><a xlink:href="classCommon_1_1Math_1_1SimpleRateCalculator.html#a45f717e9f919cbc3110685841c3a7baf" target="_top" xlink:title="calculateRate calculates the rate and returns it ">
<polygon fill="white" stroke="black" points="446,-88.5 446,-118.5 587,-118.5 587,-88.5 446,-88.5"/>
<text text-anchor="start" x="454" y="-106.5" font-family="Helvetica,sans-Serif" font-size="10.00">Common::Math::SimpleRate</text>
<text text-anchor="middle" x="516.5" y="-95.5" font-family="Helvetica,sans-Serif" font-size="10.00">Calculator::calculateRate</text>
</a>
</g>
</g>
<!-- Node7&#45;&gt;Node8 -->
<g id="edge7" class="edge"><title>Node7&#45;&gt;Node8</title>
<path fill="none" stroke="midnightblue" d="M404.77,-100.219C415.13,-100.526 425.624,-100.837 435.812,-101.139"/>
<polygon fill="midnightblue" stroke="midnightblue" points="435.783,-104.639 445.882,-101.437 435.99,-97.6425 435.783,-104.639"/>
</g>
<!-- Node7&#45;&gt;Node9 -->
<g id="edge8" class="edge"><title>Node7&#45;&gt;Node9</title>
<path fill="none" stroke="midnightblue" d="M363.838,-87.96C391.4,-82.7878 425.655,-76.3599 454.631,-70.9222"/>
<polygon fill="midnightblue" stroke="midnightblue" points="455.458,-74.3283 464.641,-69.0439 454.167,-67.4484 455.458,-74.3283"/>
</g>
</g>
</svg>
