<?xml version="1.0" encoding="UTF-8" standalone="no"?>
<!DOCTYPE svg PUBLIC "-//W3C//DTD SVG 1.1//EN"
 "http://www.w3.org/Graphics/SVG/1.1/DTD/svg11.dtd">
<!-- Generated by graphviz version 2.38.0 (20140413.2041)
 -->
<!-- Title: TestHandler::TestBaseClass Pages: 1 -->
<svg width="338pt" height="104pt"
 viewBox="0.00 0.00 338.00 104.00" xmlns="http://www.w3.org/2000/svg" xmlns:xlink="http://www.w3.org/1999/xlink">
<g id="graph0" class="graph" transform="scale(1 1) rotate(0) translate(4 100)">
<title>TestHandler::TestBaseClass</title>
<polygon fill="white" stroke="none" points="-4,4 -4,-100 334,-100 334,4 -4,4"/>
<!-- Node1 -->
<g id="node1" class="node"><title>Node1</title>
<polygon fill="#bfbfbf" stroke="black" points="0,-38.5 0,-57.5 143,-57.5 143,-38.5 0,-38.5"/>
<text text-anchor="middle" x="71.5" y="-45.5" font-family="Helvetica,sans-Serif" font-size="10.00">TestHandler::TestBaseClass</text>
</g>
<!-- Node2 -->
<g id="node2" class="node"><title>Node2</title>
<g id="a_node2"><a xlink:href="classTestHandler_1_1ClientServerTest.html" target="_top" xlink:title="TestHandler::ClientServerTest">
<polygon fill="white" stroke="black" points="180,-76.5 180,-95.5 329,-95.5 329,-76.5 180,-76.5"/>
<text text-anchor="middle" x="254.5" y="-83.5" font-family="Helvetica,sans-Serif" font-size="10.00">TestHandler::ClientServerTest</text>
</a>
</g>
</g>
<!-- Node1&#45;&gt;Node2 -->
<g id="edge1" class="edge"><title>Node1&#45;&gt;Node2</title>
<path fill="none" stroke="midnightblue" d="M128.138,-59.681C153.807,-65.0699 183.891,-71.3861 208.154,-76.4799"/>
<polygon fill="midnightblue" stroke="midnightblue" points="128.68,-56.2184 118.174,-57.589 127.241,-63.0691 128.68,-56.2184"/>
</g>
<!-- Node3 -->
<g id="node3" class="node"><title>Node3</title>
<g id="a_node3"><a xlink:href="classTestHandler_1_1SingleClientTest.html" target="_top" xlink:title="TestHandler::SingleClientTest">
<polygon fill="white" stroke="black" points="180.5,-38.5 180.5,-57.5 328.5,-57.5 328.5,-38.5 180.5,-38.5"/>
<text text-anchor="middle" x="254.5" y="-45.5" font-family="Helvetica,sans-Serif" font-size="10.00">TestHandler::SingleClientTest</text>
</a>
</g>
</g>
<!-- Node1&#45;&gt;Node3 -->
<g id="edge2" class="edge"><title>Node1&#45;&gt;Node3</title>
<path fill="none" stroke="midnightblue" d="M153.355,-48C162.364,-48 171.502,-48 180.407,-48"/>
<polygon fill="midnightblue" stroke="midnightblue" points="153.257,-44.5001 143.257,-48 153.257,-51.5001 153.257,-44.5001"/>
</g>
<!-- Node4 -->
<g id="node4" class="node"><title>Node4</title>
<g id="a_node4"><a xlink:href="classTestHandler_1_1SingleServerTest.html" target="_top" xlink:title="TestHandler::SingleServerTest">
<polygon fill="white" stroke="black" points="179,-0.5 179,-19.5 330,-19.5 330,-0.5 179,-0.5"/>
<text text-anchor="middle" x="254.5" y="-7.5" font-family="Helvetica,sans-Serif" font-size="10.00">TestHandler::SingleServerTest</text>
</a>
</g>
</g>
<!-- Node1&#45;&gt;Node4 -->
<g id="edge3" class="edge"><title>Node1&#45;&gt;Node4</title>
<path fill="none" stroke="midnightblue" d="M128.138,-36.319C153.807,-30.9301 183.891,-24.6139 208.154,-19.5201"/>
<polygon fill="midnightblue" stroke="midnightblue" points="127.241,-32.9309 118.174,-38.411 128.68,-39.7816 127.241,-32.9309"/>
</g>
</g>
</svg>
