<?xml version="1.0" encoding="UTF-8" standalone="no"?>
<!DOCTYPE svg PUBLIC "-//W3C//DTD SVG 1.1//EN"
 "http://www.w3.org/Graphics/SVG/1.1/DTD/svg11.dtd">
<!-- Generated by graphviz version 2.38.0 (20140413.2041)
 -->
<!-- Title: Common::LoggingHandler::log Pages: 1 -->
<svg width="596pt" height="165pt"
 viewBox="0.00 0.00 596.00 165.00" xmlns="http://www.w3.org/2000/svg" xmlns:xlink="http://www.w3.org/1999/xlink">
<g id="graph0" class="graph" transform="scale(1 1) rotate(0) translate(4 161)">
<title>Common::LoggingHandler::log</title>
<polygon fill="white" stroke="none" points="-4,4 -4,-161 592,-161 592,4 -4,4"/>
<!-- Node1 -->
<g id="node1" class="node"><title>Node1</title>
<polygon fill="#bfbfbf" stroke="black" points="0,-69 0,-88 149,-88 149,-69 0,-69"/>
<text text-anchor="middle" x="74.5" y="-76" font-family="Helvetica,sans-Serif" font-size="10.00">Common::LoggingHandler::log</text>
</g>
<!-- Node2 -->
<g id="node2" class="node"><title>Node2</title>
<g id="a_node2"><a xlink:href="classWCEnabler_1_1BandwidthCalculator.html#aefd2e67bbde48ae518a57c6e5f7c3399" target="_top" xlink:title="BandwidthCalculator constructor. ">
<polygon fill="white" stroke="black" points="196,-126.5 196,-156.5 359,-156.5 359,-126.5 196,-126.5"/>
<text text-anchor="start" x="204" y="-144.5" font-family="Helvetica,sans-Serif" font-size="10.00">WCEnabler::BandwidthCalculator</text>
<text text-anchor="middle" x="277.5" y="-133.5" font-family="Helvetica,sans-Serif" font-size="10.00">::BandwidthCalculator</text>
</a>
</g>
</g>
<!-- Node1&#45;&gt;Node2 -->
<g id="edge1" class="edge"><title>Node1&#45;&gt;Node2</title>
<path fill="none" stroke="midnightblue" d="M111.057,-91.5195C132.383,-99.1574 160.109,-108.79 185,-116.5 196.011,-119.911 207.842,-123.325 219.221,-126.487"/>
<polygon fill="midnightblue" stroke="midnightblue" points="112.038,-88.1528 101.444,-88.0564 109.666,-94.7385 112.038,-88.1528"/>
</g>
<!-- Node3 -->
<g id="node3" class="node"><title>Node3</title>
<g id="a_node3"><a xlink:href="classWCEnabler_1_1BandwidthCalculator.html#ab9a961a6fe8e0d9b92163f37f5e64cd2" target="_top" xlink:title="ecn getter ">
<polygon fill="white" stroke="black" points="185,-88 185,-107 370,-107 370,-88 185,-88"/>
<text text-anchor="middle" x="277.5" y="-95" font-family="Helvetica,sans-Serif" font-size="10.00">WCEnabler::BandwidthCalculator::ecn</text>
</a>
</g>
</g>
<!-- Node1&#45;&gt;Node3 -->
<g id="edge2" class="edge"><title>Node1&#45;&gt;Node3</title>
<path fill="none" stroke="midnightblue" d="M159.322,-86.4235C167.696,-87.215 176.228,-88.0216 184.678,-88.8204"/>
<polygon fill="midnightblue" stroke="midnightblue" points="159.489,-82.9237 149.204,-85.467 158.83,-89.8926 159.489,-82.9237"/>
</g>
<!-- Node4 -->
<g id="node4" class="node"><title>Node4</title>
<g id="a_node4"><a xlink:href="classWCEnabler_1_1BandwidthCommunicator.html#a8f28fae785efe83e3b3661b6655b4154" target="_top" xlink:title="WCEnabler::BandwidthCommunicator\l::~BandwidthCommunicator">
<polygon fill="white" stroke="black" points="406,-63.5 406,-93.5 588,-93.5 588,-63.5 406,-63.5"/>
<text text-anchor="start" x="414" y="-81.5" font-family="Helvetica,sans-Serif" font-size="10.00">WCEnabler::BandwidthCommunicator</text>
<text text-anchor="middle" x="497" y="-70.5" font-family="Helvetica,sans-Serif" font-size="10.00">::~BandwidthCommunicator</text>
</a>
</g>
</g>
<!-- Node1&#45;&gt;Node4 -->
<g id="edge4" class="edge"><title>Node1&#45;&gt;Node4</title>
<path fill="none" stroke="midnightblue" d="M159.517,-78.5C230.823,-78.5 332.889,-78.5 405.881,-78.5"/>
<polygon fill="midnightblue" stroke="midnightblue" points="159.227,-75.0001 149.227,-78.5 159.227,-82.0001 159.227,-75.0001"/>
</g>
<!-- Node5 -->
<g id="node5" class="node"><title>Node5</title>
<g id="a_node5"><a xlink:href="classHandleHostBandwidth.html#a9c046a8b63e42ab6aece3e798bc497ad" target="_top" xlink:title="printBandwidths prints VM&#39;s bandwidth to the terminal ">
<polygon fill="white" stroke="black" points="220.5,-0.5 220.5,-30.5 334.5,-30.5 334.5,-0.5 220.5,-0.5"/>
<text text-anchor="start" x="228.5" y="-18.5" font-family="Helvetica,sans-Serif" font-size="10.00">HandleHostBandwidth</text>
<text text-anchor="middle" x="277.5" y="-7.5" font-family="Helvetica,sans-Serif" font-size="10.00">::logBandwidths</text>
</a>
</g>
</g>
<!-- Node1&#45;&gt;Node5 -->
<g id="edge5" class="edge"><title>Node1&#45;&gt;Node5</title>
<path fill="none" stroke="midnightblue" d="M115.654,-65.9144C148.144,-55.7311 193.995,-41.3597 228.435,-30.565"/>
<polygon fill="midnightblue" stroke="midnightblue" points="114.523,-62.6009 106.028,-68.9317 116.617,-69.2805 114.523,-62.6009"/>
</g>
<!-- Node3&#45;&gt;Node4 -->
<g id="edge3" class="edge"><title>Node3&#45;&gt;Node4</title>
<path fill="none" stroke="midnightblue" d="M380.154,-88.6199C388.745,-87.8694 397.395,-87.1138 405.888,-86.3718"/>
<polygon fill="midnightblue" stroke="midnightblue" points="379.767,-85.1403 370.109,-89.4974 380.376,-92.1137 379.767,-85.1403"/>
</g>
<!-- Node6 -->
<g id="node6" class="node"><title>Node6</title>
<g id="a_node6"><a xlink:href="BGAdaptor_2main_8cpp.html#a0ddf1224851353fc92bfbff6f499fa97" target="_top" xlink:title="main">
<polygon fill="white" stroke="black" points="478,-6 478,-25 516,-25 516,-6 478,-6"/>
<text text-anchor="middle" x="497" y="-13" font-family="Helvetica,sans-Serif" font-size="10.00">main</text>
</a>
</g>
</g>
<!-- Node5&#45;&gt;Node6 -->
<g id="edge6" class="edge"><title>Node5&#45;&gt;Node6</title>
<path fill="none" stroke="midnightblue" d="M344.737,-15.5C390.798,-15.5 448.935,-15.5 477.888,-15.5"/>
<polygon fill="midnightblue" stroke="midnightblue" points="344.512,-12.0001 334.512,-15.5 344.512,-19.0001 344.512,-12.0001"/>
</g>
</g>
</svg>
