<?xml version="1.0" encoding="UTF-8" standalone="no"?>
<!DOCTYPE svg PUBLIC "-//W3C//DTD SVG 1.1//EN"
 "http://www.w3.org/Graphics/SVG/1.1/DTD/svg11.dtd">
<!-- Generated by graphviz version 2.38.0 (20140413.2041)
 -->
<!-- Title: riplpox.riplpox.Switch.install Pages: 1 -->
<svg width="516pt" height="39pt"
 viewBox="0.00 0.00 516.00 39.00" xmlns="http://www.w3.org/2000/svg" xmlns:xlink="http://www.w3.org/1999/xlink">
<g id="graph0" class="graph" transform="scale(1 1) rotate(0) translate(4 35)">
<title>riplpox.riplpox.Switch.install</title>
<polygon fill="white" stroke="none" points="-4,4 -4,-35 512,-35 512,4 -4,4"/>
<!-- Node1 -->
<g id="node1" class="node"><title>Node1</title>
<polygon fill="#bfbfbf" stroke="black" points="0,-6 0,-25 138,-25 138,-6 0,-6"/>
<text text-anchor="middle" x="69" y="-13" font-family="Helvetica,sans-Serif" font-size="10.00">riplpox.riplpox.Switch.install</text>
</g>
<!-- Node2 -->
<g id="node2" class="node"><title>Node2</title>
<g id="a_node2"><a xlink:href="classriplpox_1_1riplpox_1_1Switch.html#a939c1650c1daca409b44a8ee7db499f4" target="_top" xlink:title="riplpox.riplpox.Switch.install\l_multiple">
<polygon fill="white" stroke="black" points="174,-0.5 174,-30.5 312,-30.5 312,-0.5 174,-0.5"/>
<text text-anchor="start" x="182" y="-18.5" font-family="Helvetica,sans-Serif" font-size="10.00">riplpox.riplpox.Switch.install</text>
<text text-anchor="middle" x="243" y="-7.5" font-family="Helvetica,sans-Serif" font-size="10.00">_multiple</text>
</a>
</g>
</g>
<!-- Node1&#45;&gt;Node2 -->
<g id="edge1" class="edge"><title>Node1&#45;&gt;Node2</title>
<path fill="none" stroke="midnightblue" d="M138.473,-15.5C146.732,-15.5 155.216,-15.5 163.602,-15.5"/>
<polygon fill="midnightblue" stroke="midnightblue" points="163.762,-19.0001 173.762,-15.5 163.762,-12.0001 163.762,-19.0001"/>
</g>
<!-- Node3 -->
<g id="node3" class="node"><title>Node3</title>
<g id="a_node3"><a xlink:href="classriplpox_1_1riplpox_1_1Switch.html#a8e5777ffd17c14a886dd5fa174decb1e" target="_top" xlink:title="riplpox.riplpox.Switch.disconnect">
<polygon fill="white" stroke="black" points="348,-6 348,-25 508,-25 508,-6 348,-6"/>
<text text-anchor="middle" x="428" y="-13" font-family="Helvetica,sans-Serif" font-size="10.00">riplpox.riplpox.Switch.disconnect</text>
</a>
</g>
</g>
<!-- Node2&#45;&gt;Node3 -->
<g id="edge2" class="edge"><title>Node2&#45;&gt;Node3</title>
<path fill="none" stroke="midnightblue" d="M312.142,-15.5C320.469,-15.5 329.072,-15.5 337.65,-15.5"/>
<polygon fill="midnightblue" stroke="midnightblue" points="337.69,-19.0001 347.69,-15.5 337.69,-12.0001 337.69,-19.0001"/>
</g>
</g>
</svg>
