<?xml version="1.0" encoding="UTF-8" standalone="no"?>
<!DOCTYPE svg PUBLIC "-//W3C//DTD SVG 1.1//EN"
 "http://www.w3.org/Graphics/SVG/1.1/DTD/svg11.dtd">
<!-- Generated by graphviz version 2.38.0 (20140413.2041)
 -->
<!-- Title: BandwidthShare.Fattree.createTopo Pages: 1 -->
<svg width="551pt" height="176pt"
 viewBox="0.00 0.00 551.00 175.50" xmlns="http://www.w3.org/2000/svg" xmlns:xlink="http://www.w3.org/1999/xlink">
<g id="graph0" class="graph" transform="scale(1 1) rotate(0) translate(4 171.5)">
<title>BandwidthShare.Fattree.createTopo</title>
<polygon fill="white" stroke="none" points="-4,4 -4,-171.5 547,-171.5 547,4 -4,4"/>
<!-- Node1 -->
<g id="node1" class="node"><title>Node1</title>
<polygon fill="#bfbfbf" stroke="black" points="0,-68.5 0,-87.5 173,-87.5 173,-68.5 0,-68.5"/>
<text text-anchor="middle" x="86.5" y="-75.5" font-family="Helvetica,sans-Serif" font-size="10.00">BandwidthShare.Fattree.createTopo</text>
</g>
<!-- Node2 -->
<g id="node2" class="node"><title>Node2</title>
<g id="a_node2"><a xlink:href="classBandwidthShare_1_1Fattree.html#aa02c6310162c71a6f29123f9597171f3" target="_top" xlink:title="BandwidthShare.Fattree.create\lCoreLayerSwitch">
<polygon fill="white" stroke="black" points="219.5,-137 219.5,-167 371.5,-167 371.5,-137 219.5,-137"/>
<text text-anchor="start" x="227.5" y="-155" font-family="Helvetica,sans-Serif" font-size="10.00">BandwidthShare.Fattree.create</text>
<text text-anchor="middle" x="295.5" y="-144" font-family="Helvetica,sans-Serif" font-size="10.00">CoreLayerSwitch</text>
</a>
</g>
</g>
<!-- Node1&#45;&gt;Node2 -->
<g id="edge1" class="edge"><title>Node1&#45;&gt;Node2</title>
<path fill="none" stroke="midnightblue" d="M108.719,-87.6178C132.743,-98.2981 173.203,-115.658 209,-128 214.93,-130.045 221.135,-132.046 227.378,-133.965"/>
<polygon fill="midnightblue" stroke="midnightblue" points="226.601,-137.386 237.185,-136.909 228.613,-130.682 226.601,-137.386"/>
</g>
<!-- Node4 -->
<g id="node4" class="node"><title>Node4</title>
<g id="a_node4"><a xlink:href="classBandwidthShare_1_1Fattree.html#a1abaed1053e6afbcb5a9fdf0ffba163a" target="_top" xlink:title="BandwidthShare.Fattree.create\lAggLayerSwitch">
<polygon fill="white" stroke="black" points="219.5,-88 219.5,-118 371.5,-118 371.5,-88 219.5,-88"/>
<text text-anchor="start" x="227.5" y="-106" font-family="Helvetica,sans-Serif" font-size="10.00">BandwidthShare.Fattree.create</text>
<text text-anchor="middle" x="295.5" y="-95" font-family="Helvetica,sans-Serif" font-size="10.00">AggLayerSwitch</text>
</a>
</g>
</g>
<!-- Node1&#45;&gt;Node4 -->
<g id="edge3" class="edge"><title>Node1&#45;&gt;Node4</title>
<path fill="none" stroke="midnightblue" d="M166.348,-87.5227C180.323,-89.2105 194.934,-90.9752 209.081,-92.6837"/>
<polygon fill="midnightblue" stroke="midnightblue" points="208.936,-96.1915 219.283,-93.9159 209.775,-89.242 208.936,-96.1915"/>
</g>
<!-- Node5 -->
<g id="node5" class="node"><title>Node5</title>
<g id="a_node5"><a xlink:href="classBandwidthShare_1_1Fattree.html#ac6445d63a286e5d9e28a638cffd2e00d" target="_top" xlink:title="BandwidthShare.Fattree.create\lEdgeLayerSwitch">
<polygon fill="white" stroke="black" points="219.5,-39 219.5,-69 371.5,-69 371.5,-39 219.5,-39"/>
<text text-anchor="start" x="227.5" y="-57" font-family="Helvetica,sans-Serif" font-size="10.00">BandwidthShare.Fattree.create</text>
<text text-anchor="middle" x="295.5" y="-46" font-family="Helvetica,sans-Serif" font-size="10.00">EdgeLayerSwitch</text>
</a>
</g>
</g>
<!-- Node1&#45;&gt;Node5 -->
<g id="edge5" class="edge"><title>Node1&#45;&gt;Node5</title>
<path fill="none" stroke="midnightblue" d="M169.609,-68.4801C182.652,-66.9679 196.168,-65.4008 209.281,-63.8805"/>
<polygon fill="midnightblue" stroke="midnightblue" points="209.684,-67.3573 219.214,-62.7288 208.878,-60.4039 209.684,-67.3573"/>
</g>
<!-- Node6 -->
<g id="node6" class="node"><title>Node6</title>
<g id="a_node6"><a xlink:href="classBandwidthShare_1_1Fattree.html#af33106042d4ca0f8145a727f62672e87" target="_top" xlink:title="BandwidthShare.Fattree.createHost">
<polygon fill="white" stroke="black" points="209,-0.5 209,-19.5 382,-19.5 382,-0.5 209,-0.5"/>
<text text-anchor="middle" x="295.5" y="-7.5" font-family="Helvetica,sans-Serif" font-size="10.00">BandwidthShare.Fattree.createHost</text>
</a>
</g>
</g>
<!-- Node1&#45;&gt;Node6 -->
<g id="edge7" class="edge"><title>Node1&#45;&gt;Node6</title>
<path fill="none" stroke="midnightblue" d="M109.103,-68.3494C133.134,-57.8791 173.283,-41.1668 209,-30 218.287,-27.0965 228.258,-24.3976 237.995,-21.9817"/>
<polygon fill="midnightblue" stroke="midnightblue" points="239.114,-25.3122 248.018,-19.5698 237.477,-18.5065 239.114,-25.3122"/>
</g>
<!-- Node3 -->
<g id="node3" class="node"><title>Node3</title>
<g id="a_node3"><a xlink:href="classBandwidthShare_1_1Fattree.html#a90c3d8221a028f26d5f99d5294b559fb" target="_top" xlink:title="BandwidthShare.Fattree.\l_addSwitch">
<polygon fill="white" stroke="black" points="418,-88 418,-118 543,-118 543,-88 418,-88"/>
<text text-anchor="start" x="426" y="-106" font-family="Helvetica,sans-Serif" font-size="10.00">BandwidthShare.Fattree.</text>
<text text-anchor="middle" x="480.5" y="-95" font-family="Helvetica,sans-Serif" font-size="10.00">_addSwitch</text>
</a>
</g>
</g>
<!-- Node2&#45;&gt;Node3 -->
<g id="edge2" class="edge"><title>Node2&#45;&gt;Node3</title>
<path fill="none" stroke="midnightblue" d="M352.899,-136.899C372.035,-131.775 393.586,-126.004 413.408,-120.697"/>
<polygon fill="midnightblue" stroke="midnightblue" points="414.533,-124.019 423.287,-118.052 412.722,-117.257 414.533,-124.019"/>
</g>
<!-- Node4&#45;&gt;Node3 -->
<g id="edge4" class="edge"><title>Node4&#45;&gt;Node3</title>
<path fill="none" stroke="midnightblue" d="M371.725,-103C383.62,-103 395.893,-103 407.707,-103"/>
<polygon fill="midnightblue" stroke="midnightblue" points="407.949,-106.5 417.949,-103 407.949,-99.5001 407.949,-106.5"/>
</g>
<!-- Node5&#45;&gt;Node3 -->
<g id="edge6" class="edge"><title>Node5&#45;&gt;Node3</title>
<path fill="none" stroke="midnightblue" d="M352.899,-69.1014C372.035,-74.2253 393.586,-79.9956 413.408,-85.3032"/>
<polygon fill="midnightblue" stroke="midnightblue" points="412.722,-88.7428 423.287,-87.9484 414.533,-81.981 412.722,-88.7428"/>
</g>
</g>
</svg>
