<?xml version="1.0" encoding="UTF-8" standalone="no"?>
<!DOCTYPE svg PUBLIC "-//W3C//DTD SVG 1.1//EN"
 "http://www.w3.org/Graphics/SVG/1.1/DTD/svg11.dtd">
<!-- Generated by graphviz version 2.38.0 (20140413.2041)
 -->
<!-- Title: riplpox.riplpox.Switch.send_packet_bufid Pages: 1 -->
<svg width="686pt" height="39pt"
 viewBox="0.00 0.00 686.00 39.00" xmlns="http://www.w3.org/2000/svg" xmlns:xlink="http://www.w3.org/1999/xlink">
<g id="graph0" class="graph" transform="scale(1 1) rotate(0) translate(4 35)">
<title>riplpox.riplpox.Switch.send_packet_bufid</title>
<polygon fill="white" stroke="none" points="-4,4 -4,-35 682,-35 682,4 -4,4"/>
<!-- Node1 -->
<g id="node1" class="node"><title>Node1</title>
<polygon fill="#bfbfbf" stroke="black" points="0,-0.5 0,-30.5 134,-30.5 134,-0.5 0,-0.5"/>
<text text-anchor="start" x="8" y="-18.5" font-family="Helvetica,sans-Serif" font-size="10.00">riplpox.riplpox.Switch.send</text>
<text text-anchor="middle" x="67" y="-7.5" font-family="Helvetica,sans-Serif" font-size="10.00">_packet_bufid</text>
</g>
<!-- Node2 -->
<g id="node2" class="node"><title>Node2</title>
<g id="a_node2"><a xlink:href="classriplpox_1_1riplpox_1_1Switch.html#a6aa06e7adf5bd71cfe1440f6b62449e2" target="_top" xlink:title="riplpox.riplpox.Switch.install">
<polygon fill="white" stroke="black" points="170,-6 170,-25 308,-25 308,-6 170,-6"/>
<text text-anchor="middle" x="239" y="-13" font-family="Helvetica,sans-Serif" font-size="10.00">riplpox.riplpox.Switch.install</text>
</a>
</g>
</g>
<!-- Node1&#45;&gt;Node2 -->
<g id="edge1" class="edge"><title>Node1&#45;&gt;Node2</title>
<path fill="none" stroke="midnightblue" d="M134.213,-15.5C142.498,-15.5 151.034,-15.5 159.484,-15.5"/>
<polygon fill="midnightblue" stroke="midnightblue" points="159.725,-19.0001 169.725,-15.5 159.725,-12.0001 159.725,-19.0001"/>
</g>
<!-- Node3 -->
<g id="node3" class="node"><title>Node3</title>
<g id="a_node3"><a xlink:href="classriplpox_1_1riplpox_1_1Switch.html#a939c1650c1daca409b44a8ee7db499f4" target="_top" xlink:title="riplpox.riplpox.Switch.install\l_multiple">
<polygon fill="white" stroke="black" points="344,-0.5 344,-30.5 482,-30.5 482,-0.5 344,-0.5"/>
<text text-anchor="start" x="352" y="-18.5" font-family="Helvetica,sans-Serif" font-size="10.00">riplpox.riplpox.Switch.install</text>
<text text-anchor="middle" x="413" y="-7.5" font-family="Helvetica,sans-Serif" font-size="10.00">_multiple</text>
</a>
</g>
</g>
<!-- Node2&#45;&gt;Node3 -->
<g id="edge2" class="edge"><title>Node2&#45;&gt;Node3</title>
<path fill="none" stroke="midnightblue" d="M308.473,-15.5C316.732,-15.5 325.216,-15.5 333.602,-15.5"/>
<polygon fill="midnightblue" stroke="midnightblue" points="333.762,-19.0001 343.762,-15.5 333.762,-12.0001 333.762,-19.0001"/>
</g>
<!-- Node4 -->
<g id="node4" class="node"><title>Node4</title>
<g id="a_node4"><a xlink:href="classriplpox_1_1riplpox_1_1Switch.html#a8e5777ffd17c14a886dd5fa174decb1e" target="_top" xlink:title="riplpox.riplpox.Switch.disconnect">
<polygon fill="white" stroke="black" points="518,-6 518,-25 678,-25 678,-6 518,-6"/>
<text text-anchor="middle" x="598" y="-13" font-family="Helvetica,sans-Serif" font-size="10.00">riplpox.riplpox.Switch.disconnect</text>
</a>
</g>
</g>
<!-- Node3&#45;&gt;Node4 -->
<g id="edge3" class="edge"><title>Node3&#45;&gt;Node4</title>
<path fill="none" stroke="midnightblue" d="M482.142,-15.5C490.469,-15.5 499.072,-15.5 507.65,-15.5"/>
<polygon fill="midnightblue" stroke="midnightblue" points="507.69,-19.0001 517.69,-15.5 507.69,-12.0001 507.69,-19.0001"/>
</g>
</g>
</svg>
