<?xml version="1.0" encoding="UTF-8" standalone="no"?>
<!DOCTYPE svg PUBLIC "-//W3C//DTD SVG 1.1//EN"
 "http://www.w3.org/Graphics/SVG/1.1/DTD/svg11.dtd">
<!-- Generated by graphviz version 2.38.0 (20140413.2041)
 -->
<!-- Title: Common::Math::ExponentialSmoothingCalculator::rate Pages: 1 -->
<svg width="339pt" height="39pt"
 viewBox="0.00 0.00 339.00 39.00" xmlns="http://www.w3.org/2000/svg" xmlns:xlink="http://www.w3.org/1999/xlink">
<g id="graph0" class="graph" transform="scale(1 1) rotate(0) translate(4 35)">
<title>Common::Math::ExponentialSmoothingCalculator::rate</title>
<polygon fill="white" stroke="none" points="-4,4 -4,-35 335,-35 335,4 -4,4"/>
<!-- Node1 -->
<g id="node1" class="node"><title>Node1</title>
<polygon fill="#bfbfbf" stroke="black" points="0,-0.5 0,-30.5 141,-30.5 141,-0.5 0,-0.5"/>
<text text-anchor="start" x="8" y="-18.5" font-family="Helvetica,sans-Serif" font-size="10.00">Common::Math::Exponential</text>
<text text-anchor="middle" x="70.5" y="-7.5" font-family="Helvetica,sans-Serif" font-size="10.00">SmoothingCalculator::rate</text>
</g>
<!-- Node2 -->
<g id="node2" class="node"><title>Node2</title>
<g id="a_node2"><a xlink:href="classWCEnabler_1_1WorkConservationFlowHandler.html#ac4306f1d18ca0f29d9f35e49451d886a" target="_top" xlink:title="stateToString method converts the state enum to a string ">
<polygon fill="white" stroke="black" points="177,-0.5 177,-30.5 331,-30.5 331,-0.5 177,-0.5"/>
<text text-anchor="start" x="185" y="-18.5" font-family="Helvetica,sans-Serif" font-size="10.00">WCEnabler::WorkConservation</text>
<text text-anchor="middle" x="254" y="-7.5" font-family="Helvetica,sans-Serif" font-size="10.00">FlowHandler::stateToString</text>
</a>
</g>
</g>
<!-- Node1&#45;&gt;Node2 -->
<g id="edge1" class="edge"><title>Node1&#45;&gt;Node2</title>
<path fill="none" stroke="midnightblue" d="M151.4,-15.5C159.869,-15.5 168.466,-15.5 176.89,-15.5"/>
<polygon fill="midnightblue" stroke="midnightblue" points="151.154,-12.0001 141.154,-15.5 151.154,-19.0001 151.154,-12.0001"/>
</g>
</g>
</svg>
