<?xml version="1.0" encoding="UTF-8" standalone="no"?>
<!DOCTYPE svg PUBLIC "-//W3C//DTD SVG 1.1//EN"
 "http://www.w3.org/Graphics/SVG/1.1/DTD/svg11.dtd">
<!-- Generated by graphviz version 2.38.0 (20140413.2041)
 -->
<!-- Title: WCEnabler::BandwidthCalculator::~BandwidthCalculator Pages: 1 -->
<svg width="356pt" height="127pt"
 viewBox="0.00 0.00 356.00 126.50" xmlns="http://www.w3.org/2000/svg" xmlns:xlink="http://www.w3.org/1999/xlink">
<g id="graph0" class="graph" transform="scale(1 1) rotate(0) translate(4 122.5)">
<title>WCEnabler::BandwidthCalculator::~BandwidthCalculator</title>
<polygon fill="white" stroke="none" points="-4,4 -4,-122.5 352,-122.5 352,4 -4,4"/>
<!-- Node1 -->
<g id="node1" class="node"><title>Node1</title>
<polygon fill="#bfbfbf" stroke="black" points="0,-49.5 0,-79.5 163,-79.5 163,-49.5 0,-49.5"/>
<text text-anchor="start" x="8" y="-67.5" font-family="Helvetica,sans-Serif" font-size="10.00">WCEnabler::BandwidthCalculator</text>
<text text-anchor="middle" x="81.5" y="-56.5" font-family="Helvetica,sans-Serif" font-size="10.00">::~BandwidthCalculator</text>
</g>
<!-- Node2 -->
<g id="node2" class="node"><title>Node2</title>
<g id="a_node2"><a xlink:href="classCommon_1_1LoggingHandler.html#a5c72b411fc450b086dcd31246e66bab0" target="_top" xlink:title="log method to log the given string ">
<polygon fill="white" stroke="black" points="199,-99 199,-118 348,-118 348,-99 199,-99"/>
<text text-anchor="middle" x="273.5" y="-106" font-family="Helvetica,sans-Serif" font-size="10.00">Common::LoggingHandler::log</text>
</a>
</g>
</g>
<!-- Node1&#45;&gt;Node2 -->
<g id="edge1" class="edge"><title>Node1&#45;&gt;Node2</title>
<path fill="none" stroke="midnightblue" d="M147.356,-79.5192C171.61,-85.136 198.788,-91.43 221.605,-96.7137"/>
<polygon fill="midnightblue" stroke="midnightblue" points="220.892,-100.141 231.424,-98.9876 222.471,-93.3217 220.892,-100.141"/>
</g>
<!-- Node3 -->
<g id="node3" class="node"><title>Node3</title>
<g id="a_node3"><a xlink:href="classCommon_1_1LoggingHandler.html#a72561fe6985c6070d7a50e6774e4f8ff" target="_top" xlink:title="loggingPath getter ">
<polygon fill="white" stroke="black" points="208.5,-49.5 208.5,-79.5 338.5,-79.5 338.5,-49.5 208.5,-49.5"/>
<text text-anchor="start" x="216.5" y="-67.5" font-family="Helvetica,sans-Serif" font-size="10.00">Common::LoggingHandler</text>
<text text-anchor="middle" x="273.5" y="-56.5" font-family="Helvetica,sans-Serif" font-size="10.00">::loggingPath</text>
</a>
</g>
</g>
<!-- Node1&#45;&gt;Node3 -->
<g id="edge2" class="edge"><title>Node1&#45;&gt;Node3</title>
<path fill="none" stroke="midnightblue" d="M163.077,-64.5C174.615,-64.5 186.444,-64.5 197.861,-64.5"/>
<polygon fill="midnightblue" stroke="midnightblue" points="198.21,-68.0001 208.21,-64.5 198.21,-61.0001 198.21,-68.0001"/>
</g>
<!-- Node4 -->
<g id="node4" class="node"><title>Node4</title>
<g id="a_node4"><a xlink:href="classCommon_1_1Math_1_1SimpleRateCalculator.html#a45f717e9f919cbc3110685841c3a7baf" target="_top" xlink:title="calculateRate calculates the rate and returns it ">
<polygon fill="white" stroke="black" points="203,-0.5 203,-30.5 344,-30.5 344,-0.5 203,-0.5"/>
<text text-anchor="start" x="211" y="-18.5" font-family="Helvetica,sans-Serif" font-size="10.00">Common::Math::SimpleRate</text>
<text text-anchor="middle" x="273.5" y="-7.5" font-family="Helvetica,sans-Serif" font-size="10.00">Calculator::calculateRate</text>
</a>
</g>
</g>
<!-- Node1&#45;&gt;Node4 -->
<g id="edge3" class="edge"><title>Node1&#45;&gt;Node4</title>
<path fill="none" stroke="midnightblue" d="M140.797,-49.4654C160.95,-44.2682 183.706,-38.3994 204.564,-33.0204"/>
<polygon fill="midnightblue" stroke="midnightblue" points="205.504,-36.3926 214.313,-30.5062 203.756,-29.6144 205.504,-36.3926"/>
</g>
</g>
</svg>
