<?xml version="1.0" encoding="UTF-8" standalone="no"?>
<!DOCTYPE svg PUBLIC "-//W3C//DTD SVG 1.1//EN"
 "http://www.w3.org/Graphics/SVG/1.1/DTD/svg11.dtd">
<!-- Generated by graphviz version 2.38.0 (20140413.2041)
 -->
<!-- Title: TestHandler::MainObject::MainObject Pages: 1 -->
<svg width="461pt" height="39pt"
 viewBox="0.00 0.00 461.00 39.00" xmlns="http://www.w3.org/2000/svg" xmlns:xlink="http://www.w3.org/1999/xlink">
<g id="graph0" class="graph" transform="scale(1 1) rotate(0) translate(4 35)">
<title>TestHandler::MainObject::MainObject</title>
<polygon fill="white" stroke="none" points="-4,4 -4,-35 457,-35 457,4 -4,4"/>
<!-- Node1 -->
<g id="node1" class="node"><title>Node1</title>
<polygon fill="#bfbfbf" stroke="black" points="0,-0.5 0,-30.5 125,-30.5 125,-0.5 0,-0.5"/>
<text text-anchor="start" x="8" y="-18.5" font-family="Helvetica,sans-Serif" font-size="10.00">TestHandler::MainObject</text>
<text text-anchor="middle" x="62.5" y="-7.5" font-family="Helvetica,sans-Serif" font-size="10.00">::MainObject</text>
</g>
<!-- Node2 -->
<g id="node2" class="node"><title>Node2</title>
<g id="a_node2"><a xlink:href="classCommon_1_1HelperMethods.html#a37ffcf3eafeb2f4dd5eb6a7b336632c8" target="_top" xlink:title="getHostName getter ">
<polygon fill="white" stroke="black" points="161,-0.5 161,-30.5 289,-30.5 289,-0.5 161,-0.5"/>
<text text-anchor="start" x="169" y="-18.5" font-family="Helvetica,sans-Serif" font-size="10.00">Common::HelperMethods</text>
<text text-anchor="middle" x="225" y="-7.5" font-family="Helvetica,sans-Serif" font-size="10.00">::getHostName</text>
</a>
</g>
</g>
<!-- Node1&#45;&gt;Node2 -->
<g id="edge1" class="edge"><title>Node1&#45;&gt;Node2</title>
<path fill="none" stroke="midnightblue" d="M125.094,-15.5C133.545,-15.5 142.288,-15.5 150.919,-15.5"/>
<polygon fill="midnightblue" stroke="midnightblue" points="150.976,-19.0001 160.976,-15.5 150.976,-12.0001 150.976,-19.0001"/>
</g>
<!-- Node3 -->
<g id="node3" class="node"><title>Node3</title>
<g id="a_node3"><a xlink:href="classCommon_1_1HelperMethods.html#ac25baf3735415338e1f57cbfdc0890cb" target="_top" xlink:title="getInterfaceName getter ">
<polygon fill="white" stroke="black" points="325,-0.5 325,-30.5 453,-30.5 453,-0.5 325,-0.5"/>
<text text-anchor="start" x="333" y="-18.5" font-family="Helvetica,sans-Serif" font-size="10.00">Common::HelperMethods</text>
<text text-anchor="middle" x="389" y="-7.5" font-family="Helvetica,sans-Serif" font-size="10.00">::getInterfaceName</text>
</a>
</g>
</g>
<!-- Node2&#45;&gt;Node3 -->
<g id="edge2" class="edge"><title>Node2&#45;&gt;Node3</title>
<path fill="none" stroke="midnightblue" d="M289.097,-15.5C297.435,-15.5 306.038,-15.5 314.53,-15.5"/>
<polygon fill="midnightblue" stroke="midnightblue" points="314.808,-19.0001 324.808,-15.5 314.808,-12.0001 314.808,-19.0001"/>
</g>
</g>
</svg>
