<?xml version="1.0" encoding="UTF-8" standalone="no"?>
<!DOCTYPE svg PUBLIC "-//W3C//DTD SVG 1.1//EN"
 "http://www.w3.org/Graphics/SVG/1.1/DTD/svg11.dtd">
<!-- Generated by graphviz version 2.38.0 (20140413.2041)
 -->
<!-- Title: FatTreeTopology.StructuredTopo.up_edges Pages: 1 -->
<svg width="494pt" height="39pt"
 viewBox="0.00 0.00 494.00 39.00" xmlns="http://www.w3.org/2000/svg" xmlns:xlink="http://www.w3.org/1999/xlink">
<g id="graph0" class="graph" transform="scale(1 1) rotate(0) translate(4 35)">
<title>FatTreeTopology.StructuredTopo.up_edges</title>
<polygon fill="white" stroke="none" points="-4,4 -4,-35 490,-35 490,4 -4,4"/>
<!-- Node1 -->
<g id="node1" class="node"><title>Node1</title>
<polygon fill="#bfbfbf" stroke="black" points="0,-0.5 0,-30.5 138,-30.5 138,-0.5 0,-0.5"/>
<text text-anchor="start" x="8" y="-18.5" font-family="Helvetica,sans-Serif" font-size="10.00">FatTreeTopology.Structured</text>
<text text-anchor="middle" x="69" y="-7.5" font-family="Helvetica,sans-Serif" font-size="10.00">Topo.up_edges</text>
</g>
<!-- Node2 -->
<g id="node2" class="node"><title>Node2</title>
<g id="a_node2"><a xlink:href="classFatTreeTopology_1_1StructuredTopo.html#aaeb3fa2bd1b0cad7a4e0cea59ddb59df" target="_top" xlink:title="FatTreeTopology.Structured\lTopo.up_nodes">
<polygon fill="white" stroke="black" points="174,-0.5 174,-30.5 312,-30.5 312,-0.5 174,-0.5"/>
<text text-anchor="start" x="182" y="-18.5" font-family="Helvetica,sans-Serif" font-size="10.00">FatTreeTopology.Structured</text>
<text text-anchor="middle" x="243" y="-7.5" font-family="Helvetica,sans-Serif" font-size="10.00">Topo.up_nodes</text>
</a>
</g>
</g>
<!-- Node1&#45;&gt;Node2 -->
<g id="edge1" class="edge"><title>Node1&#45;&gt;Node2</title>
<path fill="none" stroke="midnightblue" d="M138.473,-15.5C146.732,-15.5 155.216,-15.5 163.602,-15.5"/>
<polygon fill="midnightblue" stroke="midnightblue" points="163.762,-19.0001 173.762,-15.5 163.762,-12.0001 163.762,-19.0001"/>
</g>
<!-- Node3 -->
<g id="node3" class="node"><title>Node3</title>
<g id="a_node3"><a xlink:href="classFatTreeTopology_1_1StructuredTopo.html#a4a0ec7d9ee5f97de58d7da96fd2e7211" target="_top" xlink:title="FatTreeTopology.Structured\lTopo.layer">
<polygon fill="white" stroke="black" points="348,-0.5 348,-30.5 486,-30.5 486,-0.5 348,-0.5"/>
<text text-anchor="start" x="356" y="-18.5" font-family="Helvetica,sans-Serif" font-size="10.00">FatTreeTopology.Structured</text>
<text text-anchor="middle" x="417" y="-7.5" font-family="Helvetica,sans-Serif" font-size="10.00">Topo.layer</text>
</a>
</g>
</g>
<!-- Node2&#45;&gt;Node3 -->
<g id="edge2" class="edge"><title>Node2&#45;&gt;Node3</title>
<path fill="none" stroke="midnightblue" d="M312.473,-15.5C320.732,-15.5 329.216,-15.5 337.602,-15.5"/>
<polygon fill="midnightblue" stroke="midnightblue" points="337.762,-19.0001 347.762,-15.5 337.762,-12.0001 337.762,-19.0001"/>
</g>
</g>
</svg>
