<?xml version="1.0" encoding="UTF-8" standalone="no"?>
<!DOCTYPE svg PUBLIC "-//W3C//DTD SVG 1.1//EN"
 "http://www.w3.org/Graphics/SVG/1.1/DTD/svg11.dtd">
<!-- Generated by graphviz version 2.38.0 (20140413.2041)
 -->
<!-- Title: TestHandler::SingleClientTest Pages: 1 -->
<svg width="156pt" height="152pt"
 viewBox="0.00 0.00 156.00 152.00" xmlns="http://www.w3.org/2000/svg" xmlns:xlink="http://www.w3.org/1999/xlink">
<g id="graph0" class="graph" transform="scale(1 1) rotate(0) translate(4 148)">
<title>TestHandler::SingleClientTest</title>
<polygon fill="white" stroke="none" points="-4,4 -4,-148 152,-148 152,4 -4,4"/>
<!-- Node1 -->
<g id="node1" class="node"><title>Node1</title>
<polygon fill="#bfbfbf" stroke="black" points="0,-0.5 0,-19.5 148,-19.5 148,-0.5 0,-0.5"/>
<text text-anchor="middle" x="74" y="-7.5" font-family="Helvetica,sans-Serif" font-size="10.00">TestHandler::SingleClientTest</text>
</g>
<!-- Node2 -->
<g id="node2" class="node"><title>Node2</title>
<g id="a_node2"><a xlink:href="classTestHandler_1_1TestBaseClass.html" target="_top" xlink:title="TestHandler::TestBaseClass">
<polygon fill="white" stroke="black" points="2.5,-57.5 2.5,-76.5 145.5,-76.5 145.5,-57.5 2.5,-57.5"/>
<text text-anchor="middle" x="74" y="-64.5" font-family="Helvetica,sans-Serif" font-size="10.00">TestHandler::TestBaseClass</text>
</a>
</g>
</g>
<!-- Node2&#45;&gt;Node1 -->
<g id="edge1" class="edge"><title>Node2&#45;&gt;Node1</title>
<path fill="none" stroke="midnightblue" d="M74,-47.1166C74,-37.8173 74,-27.0557 74,-19.7149"/>
<polygon fill="midnightblue" stroke="midnightblue" points="70.5001,-47.4062 74,-57.4062 77.5001,-47.4063 70.5001,-47.4062"/>
</g>
<!-- Node3 -->
<g id="node3" class="node"><title>Node3</title>
<g id="a_node3"><a xlink:href="structTestHandler_1_1TestData.html" target="_top" xlink:title="TestHandler::TestData">
<polygon fill="white" stroke="black" points="16,-124.5 16,-143.5 132,-143.5 132,-124.5 16,-124.5"/>
<text text-anchor="middle" x="74" y="-131.5" font-family="Helvetica,sans-Serif" font-size="10.00">TestHandler::TestData</text>
</a>
</g>
</g>
<!-- Node3&#45;&gt;Node2 -->
<g id="edge2" class="edge"><title>Node3&#45;&gt;Node2</title>
<path fill="none" stroke="#9a32cd" stroke-dasharray="5,2" d="M74,-114.037C74,-101.67 74,-86.1198 74,-76.6273"/>
<polygon fill="#9a32cd" stroke="#9a32cd" points="70.5001,-114.234 74,-124.234 77.5001,-114.234 70.5001,-114.234"/>
<text text-anchor="middle" x="97" y="-98" font-family="Helvetica,sans-Serif" font-size="10.00"> _testData</text>
</g>
</g>
</svg>
