<?xml version="1.0" encoding="UTF-8" standalone="no"?>
<!DOCTYPE svg PUBLIC "-//W3C//DTD SVG 1.1//EN"
 "http://www.w3.org/Graphics/SVG/1.1/DTD/svg11.dtd">
<!-- Generated by graphviz version 2.38.0 (20140413.2041)
 -->
<!-- Title: TestHandler::MainObject::parseCommandLineArguments Pages: 1 -->
<svg width="522pt" height="82pt"
 viewBox="0.00 0.00 522.00 82.00" xmlns="http://www.w3.org/2000/svg" xmlns:xlink="http://www.w3.org/1999/xlink">
<g id="graph0" class="graph" transform="scale(1 1) rotate(0) translate(4 78)">
<title>TestHandler::MainObject::parseCommandLineArguments</title>
<polygon fill="white" stroke="none" points="-4,4 -4,-78 518,-78 518,4 -4,4"/>
<!-- Node1 -->
<g id="node1" class="node"><title>Node1</title>
<polygon fill="#bfbfbf" stroke="black" points="0,-30 0,-60 157,-60 157,-30 0,-30"/>
<text text-anchor="start" x="8" y="-48" font-family="Helvetica,sans-Serif" font-size="10.00">TestHandler::MainObject</text>
<text text-anchor="middle" x="78.5" y="-37" font-family="Helvetica,sans-Serif" font-size="10.00">::parseCommandLineArguments</text>
</g>
<!-- Node2 -->
<g id="node2" class="node"><title>Node2</title>
<g id="a_node2"><a xlink:href="classTestHandler_1_1CommandLineArgumentParser.html#af9e3ca8df421fb38db39b3ca98869dc3" target="_top" xlink:title="TestHandler::CommandLine\lArgumentParser::parseCommand\lLineArguments">
<polygon fill="white" stroke="black" points="193,-0.5 193,-41.5 355,-41.5 355,-0.5 193,-0.5"/>
<text text-anchor="start" x="201" y="-29.5" font-family="Helvetica,sans-Serif" font-size="10.00">TestHandler::CommandLine</text>
<text text-anchor="start" x="201" y="-18.5" font-family="Helvetica,sans-Serif" font-size="10.00">ArgumentParser::parseCommand</text>
<text text-anchor="middle" x="274" y="-7.5" font-family="Helvetica,sans-Serif" font-size="10.00">LineArguments</text>
</a>
</g>
</g>
<!-- Node1&#45;&gt;Node2 -->
<g id="edge1" class="edge"><title>Node1&#45;&gt;Node2</title>
<path fill="none" stroke="midnightblue" d="M157.089,-35.3766C165.553,-34.3268 174.221,-33.2517 182.819,-32.1852"/>
<polygon fill="midnightblue" stroke="midnightblue" points="183.371,-35.6436 192.864,-30.9393 182.51,-28.6969 183.371,-35.6436"/>
</g>
<!-- Node3 -->
<g id="node3" class="node"><title>Node3</title>
<g id="a_node3"><a xlink:href="namespaceTestHandler.html#a3344b72fe3d4a362f5ba33215107b87a" target="_top" xlink:title="TestHandler::printUsage">
<polygon fill="white" stroke="black" points="391,-54.5 391,-73.5 514,-73.5 514,-54.5 391,-54.5"/>
<text text-anchor="middle" x="452.5" y="-61.5" font-family="Helvetica,sans-Serif" font-size="10.00">TestHandler::printUsage</text>
</a>
</g>
</g>
<!-- Node1&#45;&gt;Node3 -->
<g id="edge4" class="edge"><title>Node1&#45;&gt;Node3</title>
<path fill="none" stroke="midnightblue" d="M157.038,-49.1255C169.077,-49.7584 181.373,-50.4003 193,-51 256.527,-54.2765 328.841,-57.9045 380.799,-60.4934"/>
<polygon fill="midnightblue" stroke="midnightblue" points="380.749,-63.9952 390.91,-60.9969 381.097,-57.0038 380.749,-63.9952"/>
</g>
<!-- Node2&#45;&gt;Node3 -->
<g id="edge2" class="edge"><title>Node2&#45;&gt;Node3</title>
<path fill="none" stroke="midnightblue" d="M355.245,-40.5497C371.375,-44.4794 387.864,-48.4967 402.534,-52.0706"/>
<polygon fill="midnightblue" stroke="midnightblue" points="401.828,-55.501 412.373,-54.4675 403.485,-48.6999 401.828,-55.501"/>
</g>
<!-- Node4 -->
<g id="node4" class="node"><title>Node4</title>
<g id="a_node4"><a xlink:href="namespaceTestHandler.html#a27971716e8add2012dbc8cd35916a387" target="_top" xlink:title="TestHandler::printVector">
<polygon fill="white" stroke="black" points="391,-11.5 391,-30.5 514,-30.5 514,-11.5 391,-11.5"/>
<text text-anchor="middle" x="452.5" y="-18.5" font-family="Helvetica,sans-Serif" font-size="10.00">TestHandler::printVector</text>
</a>
</g>
</g>
<!-- Node2&#45;&gt;Node4 -->
<g id="edge3" class="edge"><title>Node2&#45;&gt;Node4</title>
<path fill="none" stroke="midnightblue" d="M355.245,-21C363.726,-21 372.307,-21 380.67,-21"/>
<polygon fill="midnightblue" stroke="midnightblue" points="380.742,-24.5001 390.742,-21 380.742,-17.5001 380.742,-24.5001"/>
</g>
</g>
</svg>
