<?xml version="1.0" encoding="UTF-8" standalone="no"?>
<!DOCTYPE svg PUBLIC "-//W3C//DTD SVG 1.1//EN"
 "http://www.w3.org/Graphics/SVG/1.1/DTD/svg11.dtd">
<!-- Generated by graphviz version 2.38.0 (20140413.2041)
 -->
<!-- Title: FatTreeTopology.FatTree.createTopo Pages: 1 -->
<svg width="567pt" height="176pt"
 viewBox="0.00 0.00 567.00 175.50" xmlns="http://www.w3.org/2000/svg" xmlns:xlink="http://www.w3.org/1999/xlink">
<g id="graph0" class="graph" transform="scale(1 1) rotate(0) translate(4 171.5)">
<title>FatTreeTopology.FatTree.createTopo</title>
<polygon fill="white" stroke="none" points="-4,4 -4,-171.5 563,-171.5 563,4 -4,4"/>
<!-- Node1 -->
<g id="node1" class="node"><title>Node1</title>
<polygon fill="#bfbfbf" stroke="black" points="0,-68.5 0,-87.5 179,-87.5 179,-68.5 0,-68.5"/>
<text text-anchor="middle" x="89.5" y="-75.5" font-family="Helvetica,sans-Serif" font-size="10.00">FatTreeTopology.FatTree.createTopo</text>
</g>
<!-- Node2 -->
<g id="node2" class="node"><title>Node2</title>
<g id="a_node2"><a xlink:href="classFatTreeTopology_1_1FatTree.html#a3a4f6ba31a0158fb47f66502e1c1f1a9" target="_top" xlink:title="FatTreeTopology.FatTree.create\lCoreLayerSwitch">
<polygon fill="white" stroke="black" points="225.5,-137 225.5,-167 382.5,-167 382.5,-137 225.5,-137"/>
<text text-anchor="start" x="233.5" y="-155" font-family="Helvetica,sans-Serif" font-size="10.00">FatTreeTopology.FatTree.create</text>
<text text-anchor="middle" x="304" y="-144" font-family="Helvetica,sans-Serif" font-size="10.00">CoreLayerSwitch</text>
</a>
</g>
</g>
<!-- Node1&#45;&gt;Node2 -->
<g id="edge1" class="edge"><title>Node1&#45;&gt;Node2</title>
<path fill="none" stroke="midnightblue" d="M112.253,-87.629C136.88,-98.3194 178.347,-115.688 215,-128 221.253,-130.101 227.801,-132.153 234.383,-134.117"/>
<polygon fill="midnightblue" stroke="midnightblue" points="233.439,-137.488 244.019,-136.928 235.399,-130.768 233.439,-137.488"/>
</g>
<!-- Node4 -->
<g id="node4" class="node"><title>Node4</title>
<g id="a_node4"><a xlink:href="classFatTreeTopology_1_1FatTree.html#a2d14a3a5200ae668f2fb2a6ec9a854a9" target="_top" xlink:title="FatTreeTopology.FatTree.create\lAggLayerSwitch">
<polygon fill="white" stroke="black" points="225.5,-88 225.5,-118 382.5,-118 382.5,-88 225.5,-88"/>
<text text-anchor="start" x="233.5" y="-106" font-family="Helvetica,sans-Serif" font-size="10.00">FatTreeTopology.FatTree.create</text>
<text text-anchor="middle" x="304" y="-95" font-family="Helvetica,sans-Serif" font-size="10.00">AggLayerSwitch</text>
</a>
</g>
</g>
<!-- Node1&#45;&gt;Node4 -->
<g id="edge3" class="edge"><title>Node1&#45;&gt;Node4</title>
<path fill="none" stroke="midnightblue" d="M171.443,-87.5227C185.833,-89.2157 200.881,-90.986 215.445,-92.6994"/>
<polygon fill="midnightblue" stroke="midnightblue" points="215.095,-96.1823 225.436,-93.8748 215.913,-89.2303 215.095,-96.1823"/>
</g>
<!-- Node5 -->
<g id="node5" class="node"><title>Node5</title>
<g id="a_node5"><a xlink:href="classFatTreeTopology_1_1FatTree.html#afbc1716ab9d400c84dc4116cdd5a3752" target="_top" xlink:title="FatTreeTopology.FatTree.create\lEdgeLayerSwitch">
<polygon fill="white" stroke="black" points="225.5,-39 225.5,-69 382.5,-69 382.5,-39 225.5,-39"/>
<text text-anchor="start" x="233.5" y="-57" font-family="Helvetica,sans-Serif" font-size="10.00">FatTreeTopology.FatTree.create</text>
<text text-anchor="middle" x="304" y="-46" font-family="Helvetica,sans-Serif" font-size="10.00">EdgeLayerSwitch</text>
</a>
</g>
</g>
<!-- Node1&#45;&gt;Node5 -->
<g id="edge5" class="edge"><title>Node1&#45;&gt;Node5</title>
<path fill="none" stroke="midnightblue" d="M174.791,-68.4801C188.088,-66.9783 201.864,-65.4224 215.238,-63.912"/>
<polygon fill="midnightblue" stroke="midnightblue" points="215.827,-67.3677 225.371,-62.7675 215.042,-60.412 215.827,-67.3677"/>
</g>
<!-- Node6 -->
<g id="node6" class="node"><title>Node6</title>
<g id="a_node6"><a xlink:href="classFatTreeTopology_1_1FatTree.html#a89cc2d5a70b13aa88b514bda267e37c4" target="_top" xlink:title="FatTreeTopology.FatTree.createHost">
<polygon fill="white" stroke="black" points="215,-0.5 215,-19.5 393,-19.5 393,-0.5 215,-0.5"/>
<text text-anchor="middle" x="304" y="-7.5" font-family="Helvetica,sans-Serif" font-size="10.00">FatTreeTopology.FatTree.createHost</text>
</a>
</g>
</g>
<!-- Node1&#45;&gt;Node6 -->
<g id="edge7" class="edge"><title>Node1&#45;&gt;Node6</title>
<path fill="none" stroke="midnightblue" d="M112.65,-68.3391C137.286,-57.8597 178.436,-41.1396 215,-30 224.667,-27.0549 235.049,-24.3242 245.172,-21.8869"/>
<polygon fill="midnightblue" stroke="midnightblue" points="246.231,-25.2338 255.172,-19.5503 244.638,-18.4174 246.231,-25.2338"/>
</g>
<!-- Node3 -->
<g id="node3" class="node"><title>Node3</title>
<g id="a_node3"><a xlink:href="classFatTreeTopology_1_1FatTree.html#a7fef1563a1ddc265daf6f51cc00b5d08" target="_top" xlink:title="FatTreeTopology.FatTree.\l_addSwitch">
<polygon fill="white" stroke="black" points="429,-88 429,-118 559,-118 559,-88 429,-88"/>
<text text-anchor="start" x="437" y="-106" font-family="Helvetica,sans-Serif" font-size="10.00">FatTreeTopology.FatTree.</text>
<text text-anchor="middle" x="494" y="-95" font-family="Helvetica,sans-Serif" font-size="10.00">_addSwitch</text>
</a>
</g>
</g>
<!-- Node2&#45;&gt;Node3 -->
<g id="edge2" class="edge"><title>Node2&#45;&gt;Node3</title>
<path fill="none" stroke="midnightblue" d="M362.684,-136.965C382.534,-131.792 404.937,-125.952 425.499,-120.593"/>
<polygon fill="midnightblue" stroke="midnightblue" points="426.631,-123.915 435.425,-118.006 424.866,-117.142 426.631,-123.915"/>
</g>
<!-- Node4&#45;&gt;Node3 -->
<g id="edge4" class="edge"><title>Node4&#45;&gt;Node3</title>
<path fill="none" stroke="midnightblue" d="M382.552,-103C394.443,-103 406.697,-103 418.519,-103"/>
<polygon fill="midnightblue" stroke="midnightblue" points="418.778,-106.5 428.778,-103 418.778,-99.5001 418.778,-106.5"/>
</g>
<!-- Node5&#45;&gt;Node3 -->
<g id="edge6" class="edge"><title>Node5&#45;&gt;Node3</title>
<path fill="none" stroke="midnightblue" d="M362.684,-69.0346C382.534,-74.2083 404.937,-80.0475 425.499,-85.4066"/>
<polygon fill="midnightblue" stroke="midnightblue" points="424.866,-88.8585 435.425,-87.9938 426.631,-82.0848 424.866,-88.8585"/>
</g>
</g>
</svg>
