<?xml version="1.0" encoding="UTF-8" standalone="no"?>
<!DOCTYPE svg PUBLIC "-//W3C//DTD SVG 1.1//EN"
 "http://www.w3.org/Graphics/SVG/1.1/DTD/svg11.dtd">
<!-- Generated by graphviz version 2.38.0 (20140413.2041)
 -->
<!-- Title: TestHandler::TestBaseClass::handleTerminatedSubprocess Pages: 1 -->
<svg width="327pt" height="88pt"
 viewBox="0.00 0.00 327.00 88.00" xmlns="http://www.w3.org/2000/svg" xmlns:xlink="http://www.w3.org/1999/xlink">
<g id="graph0" class="graph" transform="scale(1 1) rotate(0) translate(4 84)">
<title>TestHandler::TestBaseClass::handleTerminatedSubprocess</title>
<polygon fill="white" stroke="none" points="-4,4 -4,-84 323,-84 323,4 -4,4"/>
<!-- Node1 -->
<g id="node1" class="node"><title>Node1</title>
<polygon fill="#bfbfbf" stroke="black" points="0,-24.5 0,-54.5 152,-54.5 152,-24.5 0,-24.5"/>
<text text-anchor="start" x="8" y="-42.5" font-family="Helvetica,sans-Serif" font-size="10.00">TestHandler::TestBaseClass</text>
<text text-anchor="middle" x="76" y="-31.5" font-family="Helvetica,sans-Serif" font-size="10.00">::handleTerminatedSubprocess</text>
</g>
<!-- Node2 -->
<g id="node2" class="node"><title>Node2</title>
<g id="a_node2"><a xlink:href="classTestHandler_1_1SingleClientTest.html#a3ed5bee792b822c7326ff527a292519f" target="_top" xlink:title="TestHandler::SingleClient\lTest::~SingleClientTest">
<polygon fill="white" stroke="black" points="189.5,-49.5 189.5,-79.5 317.5,-79.5 317.5,-49.5 189.5,-49.5"/>
<text text-anchor="start" x="197.5" y="-67.5" font-family="Helvetica,sans-Serif" font-size="10.00">TestHandler::SingleClient</text>
<text text-anchor="middle" x="253.5" y="-56.5" font-family="Helvetica,sans-Serif" font-size="10.00">Test::~SingleClientTest</text>
</a>
</g>
</g>
<!-- Node1&#45;&gt;Node2 -->
<g id="edge1" class="edge"><title>Node1&#45;&gt;Node2</title>
<path fill="none" stroke="midnightblue" d="M162.105,-51.6232C171.272,-52.929 180.478,-54.2404 189.321,-55.5002"/>
<polygon fill="midnightblue" stroke="midnightblue" points="162.585,-48.1564 152.192,-50.211 161.598,-55.0864 162.585,-48.1564"/>
</g>
<!-- Node3 -->
<g id="node3" class="node"><title>Node3</title>
<g id="a_node3"><a xlink:href="classTestHandler_1_1SingleServerTest.html#a4d79d93563d77c5bd59f9069ea50daae" target="_top" xlink:title="TestHandler::SingleServer\lTest::~SingleServerTest">
<polygon fill="white" stroke="black" points="188,-0.5 188,-30.5 319,-30.5 319,-0.5 188,-0.5"/>
<text text-anchor="start" x="196" y="-18.5" font-family="Helvetica,sans-Serif" font-size="10.00">TestHandler::SingleServer</text>
<text text-anchor="middle" x="253.5" y="-7.5" font-family="Helvetica,sans-Serif" font-size="10.00">Test::~SingleServerTest</text>
</a>
</g>
</g>
<!-- Node1&#45;&gt;Node3 -->
<g id="edge2" class="edge"><title>Node1&#45;&gt;Node3</title>
<path fill="none" stroke="midnightblue" d="M162.294,-27.8359C170.929,-26.655 179.596,-25.4697 187.96,-24.326"/>
<polygon fill="midnightblue" stroke="midnightblue" points="161.625,-24.3947 152.192,-29.2174 162.574,-31.3301 161.625,-24.3947"/>
</g>
</g>
</svg>
