<?xml version="1.0" encoding="UTF-8" standalone="no"?>
<!DOCTYPE svg PUBLIC "-//W3C//DTD SVG 1.1//EN"
 "http://www.w3.org/Graphics/SVG/1.1/DTD/svg11.dtd">
<!-- Generated by graphviz version 2.38.0 (20140413.2041)
 -->
<!-- Title: AnotherFatTreeTopology.FatTree.__init__ Pages: 1 -->
<svg width="680pt" height="61pt"
 viewBox="0.00 0.00 680.00 61.00" xmlns="http://www.w3.org/2000/svg" xmlns:xlink="http://www.w3.org/1999/xlink">
<g id="graph0" class="graph" transform="scale(1 1) rotate(0) translate(4 57)">
<title>AnotherFatTreeTopology.FatTree.__init__</title>
<polygon fill="white" stroke="none" points="-4,4 -4,-57 676,-57 676,4 -4,4"/>
<!-- Node1 -->
<g id="node1" class="node"><title>Node1</title>
<polygon fill="#bfbfbf" stroke="black" points="0,-0.5 0,-30.5 141,-30.5 141,-0.5 0,-0.5"/>
<text text-anchor="start" x="8" y="-18.5" font-family="Helvetica,sans-Serif" font-size="10.00">AnotherFatTreeTopology.Fat</text>
<text text-anchor="middle" x="70.5" y="-7.5" font-family="Helvetica,sans-Serif" font-size="10.00">Tree.__init__</text>
</g>
<!-- Node2 -->
<g id="node2" class="node"><title>Node2</title>
<g id="a_node2"><a xlink:href="classAnotherFatTreeTopology_1_1FatTree.html#a294f8d9592d4ca84ca001d60484ea804" target="_top" xlink:title="AnotherFatTreeTopology.Fat\lTree.makeDPID">
<polygon fill="white" stroke="black" points="177,-22.5 177,-52.5 318,-52.5 318,-22.5 177,-22.5"/>
<text text-anchor="start" x="185" y="-40.5" font-family="Helvetica,sans-Serif" font-size="10.00">AnotherFatTreeTopology.Fat</text>
<text text-anchor="middle" x="247.5" y="-29.5" font-family="Helvetica,sans-Serif" font-size="10.00">Tree.makeDPID</text>
</a>
</g>
</g>
<!-- Node1&#45;&gt;Node2 -->
<g id="edge1" class="edge"><title>Node1&#45;&gt;Node2</title>
<path fill="none" stroke="midnightblue" d="M141.167,-24.2582C149.594,-25.3175 158.251,-26.4058 166.808,-27.4815"/>
<polygon fill="midnightblue" stroke="midnightblue" points="166.428,-30.9613 176.786,-28.736 167.301,-24.0159 166.428,-30.9613"/>
</g>
<!-- Node3 -->
<g id="node3" class="node"><title>Node3</title>
<g id="a_node3"><a xlink:href="classAnotherFatTreeTopology_1_1FatTree.html#a7180b42cfee01001b3e61034aad9c263" target="_top" xlink:title="AnotherFatTreeTopology.Fat\lTree.makeMAC">
<polygon fill="white" stroke="black" points="354,-0.5 354,-30.5 495,-30.5 495,-0.5 354,-0.5"/>
<text text-anchor="start" x="362" y="-18.5" font-family="Helvetica,sans-Serif" font-size="10.00">AnotherFatTreeTopology.Fat</text>
<text text-anchor="middle" x="424.5" y="-7.5" font-family="Helvetica,sans-Serif" font-size="10.00">Tree.makeMAC</text>
</a>
</g>
</g>
<!-- Node1&#45;&gt;Node3 -->
<g id="edge4" class="edge"><title>Node1&#45;&gt;Node3</title>
<path fill="none" stroke="midnightblue" d="M141.015,-13.9951C153.015,-13.7889 165.368,-13.6102 177,-13.5 239.664,-12.9061 255.336,-12.9061 318,-13.5 326.361,-13.5792 335.093,-13.6938 343.8,-13.8286"/>
<polygon fill="midnightblue" stroke="midnightblue" points="343.929,-17.331 353.985,-13.9951 344.043,-10.332 343.929,-17.331"/>
</g>
<!-- Node2&#45;&gt;Node3 -->
<g id="edge2" class="edge"><title>Node2&#45;&gt;Node3</title>
<path fill="none" stroke="midnightblue" d="M318.167,-28.7418C326.594,-27.6825 335.251,-26.5942 343.808,-25.5185"/>
<polygon fill="midnightblue" stroke="midnightblue" points="344.301,-28.9841 353.786,-24.264 343.428,-22.0387 344.301,-28.9841"/>
</g>
<!-- Node4 -->
<g id="node4" class="node"><title>Node4</title>
<g id="a_node4"><a xlink:href="classAnotherFatTreeTopology_1_1FatTree.html#afa76458fecf46fbc0f8663d90f251af8" target="_top" xlink:title="AnotherFatTreeTopology.Fat\lTree.randByte">
<polygon fill="white" stroke="black" points="531,-0.5 531,-30.5 672,-30.5 672,-0.5 531,-0.5"/>
<text text-anchor="start" x="539" y="-18.5" font-family="Helvetica,sans-Serif" font-size="10.00">AnotherFatTreeTopology.Fat</text>
<text text-anchor="middle" x="601.5" y="-7.5" font-family="Helvetica,sans-Serif" font-size="10.00">Tree.randByte</text>
</a>
</g>
</g>
<!-- Node3&#45;&gt;Node4 -->
<g id="edge3" class="edge"><title>Node3&#45;&gt;Node4</title>
<path fill="none" stroke="midnightblue" d="M495.167,-15.5C503.502,-15.5 512.063,-15.5 520.529,-15.5"/>
<polygon fill="midnightblue" stroke="midnightblue" points="520.786,-19.0001 530.786,-15.5 520.786,-12.0001 520.786,-19.0001"/>
</g>
</g>
</svg>
