<?xml version="1.0" encoding="UTF-8" standalone="no"?>
<!DOCTYPE svg PUBLIC "-//W3C//DTD SVG 1.1//EN"
 "http://www.w3.org/Graphics/SVG/1.1/DTD/svg11.dtd">
<!-- Generated by graphviz version 2.38.0 (20140413.2041)
 -->
<!-- Title: BGAdaptor::HandleHostBandwidth::HandleHostBandwidth Pages: 1 -->
<svg width="340pt" height="137pt"
 viewBox="0.00 0.00 340.00 137.00" xmlns="http://www.w3.org/2000/svg" xmlns:xlink="http://www.w3.org/1999/xlink">
<g id="graph0" class="graph" transform="scale(1 1) rotate(0) translate(4 133)">
<title>BGAdaptor::HandleHostBandwidth::HandleHostBandwidth</title>
<polygon fill="white" stroke="none" points="-4,4 -4,-133 336,-133 336,4 -4,4"/>
<!-- Node1 -->
<g id="node1" class="node"><title>Node1</title>
<polygon fill="#bfbfbf" stroke="black" points="0,-49.5 0,-79.5 168,-79.5 168,-49.5 0,-49.5"/>
<text text-anchor="start" x="8" y="-67.5" font-family="Helvetica,sans-Serif" font-size="10.00">BGAdaptor::HandleHostBandwidth</text>
<text text-anchor="middle" x="84" y="-56.5" font-family="Helvetica,sans-Serif" font-size="10.00">::HandleHostBandwidth</text>
</g>
<!-- Node2 -->
<g id="node2" class="node"><title>Node2</title>
<g id="a_node2"><a xlink:href="classCommon_1_1HelperMethods.html#ac25baf3735415338e1f57cbfdc0890cb" target="_top" xlink:title="getInterfaceName getter ">
<polygon fill="white" stroke="black" points="204,-98.5 204,-128.5 332,-128.5 332,-98.5 204,-98.5"/>
<text text-anchor="start" x="212" y="-116.5" font-family="Helvetica,sans-Serif" font-size="10.00">Common::HelperMethods</text>
<text text-anchor="middle" x="268" y="-105.5" font-family="Helvetica,sans-Serif" font-size="10.00">::getInterfaceName</text>
</a>
</g>
</g>
<!-- Node1&#45;&gt;Node2 -->
<g id="edge1" class="edge"><title>Node1&#45;&gt;Node2</title>
<path fill="none" stroke="midnightblue" d="M141.091,-79.6014C160.123,-84.7253 181.555,-90.4956 201.269,-95.8032"/>
<polygon fill="midnightblue" stroke="midnightblue" points="200.528,-99.2283 211.094,-98.4484 202.348,-92.469 200.528,-99.2283"/>
</g>
<!-- Node3 -->
<g id="node3" class="node"><title>Node3</title>
<g id="a_node3"><a xlink:href="classCommon_1_1LoggerFactory.html#a8edcb8fd5fabe1e88bf1c15b868e5bdd" target="_top" xlink:title="buildLogger method creates the appropriate logging handler and returns a pointer to it...">
<polygon fill="white" stroke="black" points="205.5,-49.5 205.5,-79.5 330.5,-79.5 330.5,-49.5 205.5,-49.5"/>
<text text-anchor="start" x="213.5" y="-67.5" font-family="Helvetica,sans-Serif" font-size="10.00">Common::LoggerFactory</text>
<text text-anchor="middle" x="268" y="-56.5" font-family="Helvetica,sans-Serif" font-size="10.00">::buildLogger</text>
</a>
</g>
</g>
<!-- Node1&#45;&gt;Node3 -->
<g id="edge2" class="edge"><title>Node1&#45;&gt;Node3</title>
<path fill="none" stroke="midnightblue" d="M168.011,-64.5C177.041,-64.5 186.176,-64.5 195.057,-64.5"/>
<polygon fill="midnightblue" stroke="midnightblue" points="195.345,-68.0001 205.345,-64.5 195.345,-61.0001 195.345,-68.0001"/>
</g>
<!-- Node4 -->
<g id="node4" class="node"><title>Node4</title>
<g id="a_node4"><a xlink:href="classCommon_1_1ThreadHelper.html#ac08e2d5dcb09787954f11fd70cb2c919" target="_top" xlink:title="startDetachedThread ">
<polygon fill="white" stroke="black" points="207.5,-0.5 207.5,-30.5 328.5,-30.5 328.5,-0.5 207.5,-0.5"/>
<text text-anchor="start" x="215.5" y="-18.5" font-family="Helvetica,sans-Serif" font-size="10.00">Common::ThreadHelper</text>
<text text-anchor="middle" x="268" y="-7.5" font-family="Helvetica,sans-Serif" font-size="10.00">::startDetachedThread</text>
</a>
</g>
</g>
<!-- Node1&#45;&gt;Node4 -->
<g id="edge3" class="edge"><title>Node1&#45;&gt;Node4</title>
<path fill="none" stroke="midnightblue" d="M141.091,-49.3986C160.123,-44.2747 181.555,-38.5044 201.269,-33.1968"/>
<polygon fill="midnightblue" stroke="midnightblue" points="202.348,-36.531 211.094,-30.5516 200.528,-29.7717 202.348,-36.531"/>
</g>
</g>
</svg>
