<?xml version="1.0" encoding="UTF-8" standalone="no"?>
<!DOCTYPE svg PUBLIC "-//W3C//DTD SVG 1.1//EN"
 "http://www.w3.org/Graphics/SVG/1.1/DTD/svg11.dtd">
<!-- Generated by graphviz version 2.38.0 (20140413.2041)
 -->
<!-- Title: WCEnabler::BandwidthCommunicator::~BandwidthCommunicator Pages: 1 -->
<svg width="375pt" height="127pt"
 viewBox="0.00 0.00 375.00 126.50" xmlns="http://www.w3.org/2000/svg" xmlns:xlink="http://www.w3.org/1999/xlink">
<g id="graph0" class="graph" transform="scale(1 1) rotate(0) translate(4 122.5)">
<title>WCEnabler::BandwidthCommunicator::~BandwidthCommunicator</title>
<polygon fill="white" stroke="none" points="-4,4 -4,-122.5 371,-122.5 371,4 -4,4"/>
<!-- Node1 -->
<g id="node1" class="node"><title>Node1</title>
<polygon fill="#bfbfbf" stroke="black" points="0,-39 0,-69 182,-69 182,-39 0,-39"/>
<text text-anchor="start" x="8" y="-57" font-family="Helvetica,sans-Serif" font-size="10.00">WCEnabler::BandwidthCommunicator</text>
<text text-anchor="middle" x="91" y="-46" font-family="Helvetica,sans-Serif" font-size="10.00">::~BandwidthCommunicator</text>
</g>
<!-- Node2 -->
<g id="node2" class="node"><title>Node2</title>
<g id="a_node2"><a xlink:href="classCommon_1_1TCControl.html#a8ade51df8d9c334b570f023e3fafa7bc" target="_top" xlink:title="clearTCCommands clears the current tc settings ">
<polygon fill="white" stroke="black" points="236,-88 236,-118 349,-118 349,-88 236,-88"/>
<text text-anchor="start" x="244" y="-106" font-family="Helvetica,sans-Serif" font-size="10.00">Common::TCControl::</text>
<text text-anchor="middle" x="292.5" y="-95" font-family="Helvetica,sans-Serif" font-size="10.00">clearTCCommands</text>
</a>
</g>
</g>
<!-- Node1&#45;&gt;Node2 -->
<g id="edge1" class="edge"><title>Node1&#45;&gt;Node2</title>
<path fill="none" stroke="midnightblue" d="M153.212,-69.0346C176.263,-74.6963 202.559,-81.1548 225.987,-86.909"/>
<polygon fill="midnightblue" stroke="midnightblue" points="225.288,-90.3413 235.834,-89.3276 226.957,-83.5433 225.288,-90.3413"/>
</g>
<!-- Node3 -->
<g id="node3" class="node"><title>Node3</title>
<g id="a_node3"><a xlink:href="classCommon_1_1TCControl.html#a1b50fa70591a78c957a35bd67a459ce1" target="_top" xlink:title="setEgressBandwidth set the outgoing bandwidth rate on an interface ">
<polygon fill="white" stroke="black" points="236,-39 236,-69 349,-69 349,-39 236,-39"/>
<text text-anchor="start" x="244" y="-57" font-family="Helvetica,sans-Serif" font-size="10.00">Common::TCControl::</text>
<text text-anchor="middle" x="292.5" y="-46" font-family="Helvetica,sans-Serif" font-size="10.00">setEgressBandwidth</text>
</a>
</g>
</g>
<!-- Node1&#45;&gt;Node3 -->
<g id="edge2" class="edge"><title>Node1&#45;&gt;Node3</title>
<path fill="none" stroke="midnightblue" d="M182.12,-54C196.684,-54 211.525,-54 225.385,-54"/>
<polygon fill="midnightblue" stroke="midnightblue" points="225.771,-57.5001 235.771,-54 225.771,-50.5001 225.771,-57.5001"/>
</g>
<!-- Node4 -->
<g id="node4" class="node"><title>Node4</title>
<g id="a_node4"><a xlink:href="classCommon_1_1LoggingHandler.html#a5c72b411fc450b086dcd31246e66bab0" target="_top" xlink:title="log method to log the given string ">
<polygon fill="white" stroke="black" points="218,-0.5 218,-19.5 367,-19.5 367,-0.5 218,-0.5"/>
<text text-anchor="middle" x="292.5" y="-7.5" font-family="Helvetica,sans-Serif" font-size="10.00">Common::LoggingHandler::log</text>
</a>
</g>
</g>
<!-- Node1&#45;&gt;Node4 -->
<g id="edge3" class="edge"><title>Node1&#45;&gt;Node4</title>
<path fill="none" stroke="midnightblue" d="M160.099,-38.9808C185.68,-33.3388 214.359,-27.0136 238.382,-21.7153"/>
<polygon fill="midnightblue" stroke="midnightblue" points="239.358,-25.0841 248.37,-19.5124 237.851,-18.2484 239.358,-25.0841"/>
</g>
</g>
</svg>
