<?xml version="1.0" encoding="UTF-8" standalone="no"?>
<!DOCTYPE svg PUBLIC "-//W3C//DTD SVG 1.1//EN"
 "http://www.w3.org/Graphics/SVG/1.1/DTD/svg11.dtd">
<!-- Generated by graphviz version 2.38.0 (20140413.2041)
 -->
<!-- Title: MapReduceJob.MapReduceJob.getTime Pages: 1 -->
<svg width="411pt" height="78pt"
 viewBox="0.00 0.00 411.00 77.50" xmlns="http://www.w3.org/2000/svg" xmlns:xlink="http://www.w3.org/1999/xlink">
<g id="graph0" class="graph" transform="scale(1 1) rotate(0) translate(4 73.5)">
<title>MapReduceJob.MapReduceJob.getTime</title>
<polygon fill="white" stroke="none" points="-4,4 -4,-73.5 407,-73.5 407,4 -4,4"/>
<!-- Node1 -->
<g id="node1" class="node"><title>Node1</title>
<polygon fill="#bfbfbf" stroke="black" points="0,-28 0,-47 194,-47 194,-28 0,-28"/>
<text text-anchor="middle" x="97" y="-35" font-family="Helvetica,sans-Serif" font-size="10.00">MapReduceJob.MapReduceJob.getTime</text>
</g>
<!-- Node2 -->
<g id="node2" class="node"><title>Node2</title>
<g id="a_node2"><a xlink:href="classMapReduceJob_1_1MapReduceJob.html#a19a658e4cc8b86026622ba04466e9686" target="_top" xlink:title="MapReduceJob.MapReduceJob.run">
<polygon fill="white" stroke="black" points="230,-50 230,-69 403,-69 403,-50 230,-50"/>
<text text-anchor="middle" x="316.5" y="-57" font-family="Helvetica,sans-Serif" font-size="10.00">MapReduceJob.MapReduceJob.run</text>
</a>
</g>
</g>
<!-- Node1&#45;&gt;Node2 -->
<g id="edge1" class="edge"><title>Node1&#45;&gt;Node2</title>
<path fill="none" stroke="midnightblue" d="M202.149,-48.0346C211.406,-48.971 220.708,-49.9119 229.786,-50.8301"/>
<polygon fill="midnightblue" stroke="midnightblue" points="202.435,-44.5458 192.134,-47.0216 201.731,-51.5102 202.435,-44.5458"/>
</g>
<!-- Node3 -->
<g id="node3" class="node"><title>Node3</title>
<g id="a_node3"><a xlink:href="classMapReduceScheduler_1_1MapReduceScheduler.html#a7fca30931e6e371c27563d8c0e62b7da" target="_top" xlink:title="MapReduceScheduler.MapReduce\lScheduler.runTest">
<polygon fill="white" stroke="black" points="232.5,-0.5 232.5,-30.5 400.5,-30.5 400.5,-0.5 232.5,-0.5"/>
<text text-anchor="start" x="240.5" y="-18.5" font-family="Helvetica,sans-Serif" font-size="10.00">MapReduceScheduler.MapReduce</text>
<text text-anchor="middle" x="316.5" y="-7.5" font-family="Helvetica,sans-Serif" font-size="10.00">Scheduler.runTest</text>
</a>
</g>
</g>
<!-- Node1&#45;&gt;Node3 -->
<g id="edge2" class="edge"><title>Node1&#45;&gt;Node3</title>
<path fill="none" stroke="midnightblue" d="M202.165,-26.9638C212.227,-25.946 222.341,-24.923 232.162,-23.9296"/>
<polygon fill="midnightblue" stroke="midnightblue" points="201.731,-23.4898 192.134,-27.9784 202.435,-30.4542 201.731,-23.4898"/>
</g>
</g>
</svg>
