<?xml version="1.0" encoding="UTF-8" standalone="no"?>
<!DOCTYPE svg PUBLIC "-//W3C//DTD SVG 1.1//EN"
 "http://www.w3.org/Graphics/SVG/1.1/DTD/svg11.dtd">
<!-- Generated by graphviz version 2.38.0 (20140413.2041)
 -->
<!-- Title: FatTreeTopology.FatTree.createAggLayerSwitch Pages: 1 -->
<svg width="331pt" height="39pt"
 viewBox="0.00 0.00 331.00 39.00" xmlns="http://www.w3.org/2000/svg" xmlns:xlink="http://www.w3.org/1999/xlink">
<g id="graph0" class="graph" transform="scale(1 1) rotate(0) translate(4 35)">
<title>FatTreeTopology.FatTree.createAggLayerSwitch</title>
<polygon fill="white" stroke="none" points="-4,4 -4,-35 327,-35 327,4 -4,4"/>
<!-- Node1 -->
<g id="node1" class="node"><title>Node1</title>
<polygon fill="#bfbfbf" stroke="black" points="0,-0.5 0,-30.5 157,-30.5 157,-0.5 0,-0.5"/>
<text text-anchor="start" x="8" y="-18.5" font-family="Helvetica,sans-Serif" font-size="10.00">FatTreeTopology.FatTree.create</text>
<text text-anchor="middle" x="78.5" y="-7.5" font-family="Helvetica,sans-Serif" font-size="10.00">AggLayerSwitch</text>
</g>
<!-- Node2 -->
<g id="node2" class="node"><title>Node2</title>
<g id="a_node2"><a xlink:href="classFatTreeTopology_1_1FatTree.html#a7fef1563a1ddc265daf6f51cc00b5d08" target="_top" xlink:title="FatTreeTopology.FatTree.\l_addSwitch">
<polygon fill="white" stroke="black" points="193,-0.5 193,-30.5 323,-30.5 323,-0.5 193,-0.5"/>
<text text-anchor="start" x="201" y="-18.5" font-family="Helvetica,sans-Serif" font-size="10.00">FatTreeTopology.FatTree.</text>
<text text-anchor="middle" x="258" y="-7.5" font-family="Helvetica,sans-Serif" font-size="10.00">_addSwitch</text>
</a>
</g>
</g>
<!-- Node1&#45;&gt;Node2 -->
<g id="edge1" class="edge"><title>Node1&#45;&gt;Node2</title>
<path fill="none" stroke="midnightblue" d="M157.096,-15.5C165.585,-15.5 174.212,-15.5 182.661,-15.5"/>
<polygon fill="midnightblue" stroke="midnightblue" points="182.856,-19.0001 192.856,-15.5 182.856,-12.0001 182.856,-19.0001"/>
</g>
</g>
</svg>
