<?xml version="1.0" encoding="UTF-8" standalone="no"?>
<!DOCTYPE svg PUBLIC "-//W3C//DTD SVG 1.1//EN"
 "http://www.w3.org/Graphics/SVG/1.1/DTD/svg11.dtd">
<!-- Generated by graphviz version 2.38.0 (20140413.2041)
 -->
<!-- Title: Common::ThreadHelper::startDetachedThread Pages: 1 -->
<svg width="347pt" height="137pt"
 viewBox="0.00 0.00 347.00 137.00" xmlns="http://www.w3.org/2000/svg" xmlns:xlink="http://www.w3.org/1999/xlink">
<g id="graph0" class="graph" transform="scale(1 1) rotate(0) translate(4 133)">
<title>Common::ThreadHelper::startDetachedThread</title>
<polygon fill="white" stroke="none" points="-4,4 -4,-133 343,-133 343,4 -4,4"/>
<!-- Node1 -->
<g id="node1" class="node"><title>Node1</title>
<polygon fill="#bfbfbf" stroke="black" points="0,-49.5 0,-79.5 121,-79.5 121,-49.5 0,-49.5"/>
<text text-anchor="start" x="8" y="-67.5" font-family="Helvetica,sans-Serif" font-size="10.00">Common::ThreadHelper</text>
<text text-anchor="middle" x="60.5" y="-56.5" font-family="Helvetica,sans-Serif" font-size="10.00">::startDetachedThread</text>
</g>
<!-- Node2 -->
<g id="node2" class="node"><title>Node2</title>
<g id="a_node2"><a xlink:href="classWCEnabler_1_1BandwidthCalculator.html#a7e3d2e7e3c43eb3499f70fe73005e361" target="_top" xlink:title="BandwidthCalculator constructor. ">
<polygon fill="white" stroke="black" points="166.5,-98.5 166.5,-128.5 329.5,-128.5 329.5,-98.5 166.5,-98.5"/>
<text text-anchor="start" x="174.5" y="-116.5" font-family="Helvetica,sans-Serif" font-size="10.00">WCEnabler::BandwidthCalculator</text>
<text text-anchor="middle" x="248" y="-105.5" font-family="Helvetica,sans-Serif" font-size="10.00">::BandwidthCalculator</text>
</a>
</g>
</g>
<!-- Node1&#45;&gt;Node2 -->
<g id="edge1" class="edge"><title>Node1&#45;&gt;Node2</title>
<path fill="none" stroke="midnightblue" d="M128.215,-82.1229C148.51,-87.4837 170.614,-93.3225 190.191,-98.4938"/>
<polygon fill="midnightblue" stroke="midnightblue" points="128.979,-78.7047 118.417,-79.5346 127.191,-85.4725 128.979,-78.7047"/>
</g>
<!-- Node3 -->
<g id="node3" class="node"><title>Node3</title>
<g id="a_node3"><a xlink:href="classWCEnabler_1_1BandwidthCommunicator.html#af59bc6cc36ff118c6a6b20a2390c7f39" target="_top" xlink:title="BandwidthCommunicator constructor. ">
<polygon fill="white" stroke="black" points="157,-49.5 157,-79.5 339,-79.5 339,-49.5 157,-49.5"/>
<text text-anchor="start" x="165" y="-67.5" font-family="Helvetica,sans-Serif" font-size="10.00">WCEnabler::BandwidthCommunicator</text>
<text text-anchor="middle" x="248" y="-56.5" font-family="Helvetica,sans-Serif" font-size="10.00">::BandwidthCommunicator</text>
</a>
</g>
</g>
<!-- Node1&#45;&gt;Node3 -->
<g id="edge2" class="edge"><title>Node1&#45;&gt;Node3</title>
<path fill="none" stroke="midnightblue" d="M131.487,-64.5C139.721,-64.5 148.21,-64.5 156.672,-64.5"/>
<polygon fill="midnightblue" stroke="midnightblue" points="131.214,-61.0001 121.214,-64.5 131.214,-68.0001 131.214,-61.0001"/>
</g>
<!-- Node4 -->
<g id="node4" class="node"><title>Node4</title>
<g id="a_node4"><a xlink:href="classBGAdaptor_1_1HandleHostBandwidth.html#af8e6a5d03b90da9fa56b15f5ef60aead" target="_top" xlink:title="HandleHostBandwidth constructor. ">
<polygon fill="white" stroke="black" points="164,-0.5 164,-30.5 332,-30.5 332,-0.5 164,-0.5"/>
<text text-anchor="start" x="172" y="-18.5" font-family="Helvetica,sans-Serif" font-size="10.00">BGAdaptor::HandleHostBandwidth</text>
<text text-anchor="middle" x="248" y="-7.5" font-family="Helvetica,sans-Serif" font-size="10.00">::HandleHostBandwidth</text>
</a>
</g>
</g>
<!-- Node1&#45;&gt;Node4 -->
<g id="edge3" class="edge"><title>Node1&#45;&gt;Node4</title>
<path fill="none" stroke="midnightblue" d="M128.215,-46.8771C148.51,-41.5163 170.614,-35.6775 190.191,-30.5062"/>
<polygon fill="midnightblue" stroke="midnightblue" points="127.191,-43.5275 118.417,-49.4654 128.979,-50.2953 127.191,-43.5275"/>
</g>
</g>
</svg>
