<?xml version="1.0" encoding="UTF-8" standalone="no"?>
<!DOCTYPE svg PUBLIC "-//W3C//DTD SVG 1.1//EN"
 "http://www.w3.org/Graphics/SVG/1.1/DTD/svg11.dtd">
<!-- Generated by graphviz version 2.38.0 (20140413.2041)
 -->
<!-- Title: WCEnabler::WorkConservationFlowHandler::WorkConservationFlowHandler Pages: 1 -->
<svg width="344pt" height="50pt"
 viewBox="0.00 0.00 344.00 50.00" xmlns="http://www.w3.org/2000/svg" xmlns:xlink="http://www.w3.org/1999/xlink">
<g id="graph0" class="graph" transform="scale(1 1) rotate(0) translate(4 46)">
<title>WCEnabler::WorkConservationFlowHandler::WorkConservationFlowHandler</title>
<polygon fill="white" stroke="none" points="-4,4 -4,-46 340,-46 340,4 -4,4"/>
<!-- Node1 -->
<g id="node1" class="node"><title>Node1</title>
<polygon fill="#bfbfbf" stroke="black" points="0,-0.5 0,-41.5 179,-41.5 179,-0.5 0,-0.5"/>
<text text-anchor="start" x="8" y="-29.5" font-family="Helvetica,sans-Serif" font-size="10.00">WCEnabler::WorkConservation</text>
<text text-anchor="start" x="8" y="-18.5" font-family="Helvetica,sans-Serif" font-size="10.00">FlowHandler::WorkConservationFlow</text>
<text text-anchor="middle" x="89.5" y="-7.5" font-family="Helvetica,sans-Serif" font-size="10.00">Handler</text>
</g>
<!-- Node2 -->
<g id="node2" class="node"><title>Node2</title>
<g id="a_node2"><a xlink:href="classCommon_1_1ThreadHelper.html#ac08e2d5dcb09787954f11fd70cb2c919" target="_top" xlink:title="startDetachedThread ">
<polygon fill="white" stroke="black" points="215,-6 215,-36 336,-36 336,-6 215,-6"/>
<text text-anchor="start" x="223" y="-24" font-family="Helvetica,sans-Serif" font-size="10.00">Common::ThreadHelper</text>
<text text-anchor="middle" x="275.5" y="-13" font-family="Helvetica,sans-Serif" font-size="10.00">::startDetachedThread</text>
</a>
</g>
</g>
<!-- Node1&#45;&gt;Node2 -->
<g id="edge1" class="edge"><title>Node1&#45;&gt;Node2</title>
<path fill="none" stroke="midnightblue" d="M179.266,-21C187.825,-21 196.421,-21 204.758,-21"/>
<polygon fill="midnightblue" stroke="midnightblue" points="204.778,-24.5001 214.778,-21 204.778,-17.5001 204.778,-24.5001"/>
</g>
</g>
</svg>
