<?xml version="1.0" encoding="UTF-8" standalone="no"?>
<!DOCTYPE svg PUBLIC "-//W3C//DTD SVG 1.1//EN"
 "http://www.w3.org/Graphics/SVG/1.1/DTD/svg11.dtd">
<!-- Generated by graphviz version 2.38.0 (20140413.2041)
 -->
<!-- Title: Common::ThreadHelper::startDetachedThread Pages: 1 -->
<svg width="421pt" height="186pt"
 viewBox="0.00 0.00 421.00 186.00" xmlns="http://www.w3.org/2000/svg" xmlns:xlink="http://www.w3.org/1999/xlink">
<g id="graph0" class="graph" transform="scale(1 1) rotate(0) translate(4 182)">
<title>Common::ThreadHelper::startDetachedThread</title>
<polygon fill="white" stroke="none" points="-4,4 -4,-182 417,-182 417,4 -4,4"/>
<!-- Node1 -->
<g id="node1" class="node"><title>Node1</title>
<polygon fill="#bfbfbf" stroke="black" points="0,-73.5 0,-103.5 121,-103.5 121,-73.5 0,-73.5"/>
<text text-anchor="start" x="8" y="-91.5" font-family="Helvetica,sans-Serif" font-size="10.00">Common::ThreadHelper</text>
<text text-anchor="middle" x="60.5" y="-80.5" font-family="Helvetica,sans-Serif" font-size="10.00">::startDetachedThread</text>
</g>
<!-- Node2 -->
<g id="node2" class="node"><title>Node2</title>
<g id="a_node2"><a xlink:href="classWCEnabler_1_1BandwidthCalculator.html#aeaa4b20de56f972916e664b842dc35df" target="_top" xlink:title="BandwidthCalculator constructor. ">
<polygon fill="white" stroke="black" points="166.5,-147.5 166.5,-177.5 329.5,-177.5 329.5,-147.5 166.5,-147.5"/>
<text text-anchor="start" x="174.5" y="-165.5" font-family="Helvetica,sans-Serif" font-size="10.00">WCEnabler::BandwidthCalculator</text>
<text text-anchor="middle" x="248" y="-154.5" font-family="Helvetica,sans-Serif" font-size="10.00">::BandwidthCalculator</text>
</a>
</g>
</g>
<!-- Node1&#45;&gt;Node2 -->
<g id="edge1" class="edge"><title>Node1&#45;&gt;Node2</title>
<path fill="none" stroke="midnightblue" d="M95.5941,-108.711C113.44,-118.676 135.913,-130.286 157,-138.5 165.438,-141.787 174.491,-144.784 183.486,-147.462"/>
<polygon fill="midnightblue" stroke="midnightblue" points="97.141,-105.564 86.7158,-103.676 93.6881,-111.654 97.141,-105.564"/>
</g>
<!-- Node3 -->
<g id="node3" class="node"><title>Node3</title>
<g id="a_node3"><a xlink:href="classWCEnabler_1_1BandwidthCommunicator.html#a7c40fa4715b3d0386e5536abd4602018" target="_top" xlink:title="BandwidthCommunicator constructor. ">
<polygon fill="white" stroke="black" points="157,-98.5 157,-128.5 339,-128.5 339,-98.5 157,-98.5"/>
<text text-anchor="start" x="165" y="-116.5" font-family="Helvetica,sans-Serif" font-size="10.00">WCEnabler::BandwidthCommunicator</text>
<text text-anchor="middle" x="248" y="-105.5" font-family="Helvetica,sans-Serif" font-size="10.00">::BandwidthCommunicator</text>
</a>
</g>
</g>
<!-- Node1&#45;&gt;Node3 -->
<g id="edge2" class="edge"><title>Node1&#45;&gt;Node3</title>
<path fill="none" stroke="midnightblue" d="M131.212,-97.8952C139.532,-99.0164 148.116,-100.173 156.672,-101.326"/>
<polygon fill="midnightblue" stroke="midnightblue" points="131.592,-94.4148 121.214,-96.5478 130.657,-101.352 131.592,-94.4148"/>
</g>
<!-- Node4 -->
<g id="node4" class="node"><title>Node4</title>
<g id="a_node4"><a xlink:href="classHandleHostBandwidth.html#acb2ff000ee7b1d0885631b28f351b3ec" target="_top" xlink:title="HandleHostBandwidth constructor. ">
<polygon fill="white" stroke="black" points="188,-49.5 188,-79.5 308,-79.5 308,-49.5 188,-49.5"/>
<text text-anchor="start" x="196" y="-67.5" font-family="Helvetica,sans-Serif" font-size="10.00">HandleHostBandwidth</text>
<text text-anchor="middle" x="248" y="-56.5" font-family="Helvetica,sans-Serif" font-size="10.00">::HandleHostBandwidth</text>
</a>
</g>
</g>
<!-- Node1&#45;&gt;Node4 -->
<g id="edge3" class="edge"><title>Node1&#45;&gt;Node4</title>
<path fill="none" stroke="midnightblue" d="M131.369,-79.4604C149.924,-77.0597 169.783,-74.4903 187.715,-72.1703"/>
<polygon fill="midnightblue" stroke="midnightblue" points="130.683,-76.0199 121.214,-80.7741 131.581,-82.962 130.683,-76.0199"/>
</g>
<!-- Node5 -->
<g id="node5" class="node"><title>Node5</title>
<g id="a_node5"><a xlink:href="classHandleHostBandwidth.html#ac47bbf835631d45e09bf50b03dbbf696" target="_top" xlink:title="setRunning turn on the thread that receives the VMs bandwidth ">
<polygon fill="white" stroke="black" points="191,-0.5 191,-30.5 305,-30.5 305,-0.5 191,-0.5"/>
<text text-anchor="start" x="199" y="-18.5" font-family="Helvetica,sans-Serif" font-size="10.00">HandleHostBandwidth</text>
<text text-anchor="middle" x="248" y="-7.5" font-family="Helvetica,sans-Serif" font-size="10.00">::setRunning</text>
</a>
</g>
</g>
<!-- Node1&#45;&gt;Node5 -->
<g id="edge4" class="edge"><title>Node1&#45;&gt;Node5</title>
<path fill="none" stroke="midnightblue" d="M96.8614,-68.6539C114.55,-59.2658 136.509,-48.4088 157,-40.5 167.742,-36.3542 179.448,-32.5851 190.757,-29.3025"/>
<polygon fill="midnightblue" stroke="midnightblue" points="95.1783,-65.5849 88.0311,-73.4059 98.4956,-71.749 95.1783,-65.5849"/>
</g>
<!-- Node6 -->
<g id="node6" class="node"><title>Node6</title>
<g id="a_node6"><a xlink:href="BGAdaptor_2main_8cpp.html#a0ddf1224851353fc92bfbff6f499fa97" target="_top" xlink:title="main">
<polygon fill="white" stroke="black" points="375,-6 375,-25 413,-25 413,-6 375,-6"/>
<text text-anchor="middle" x="394" y="-13" font-family="Helvetica,sans-Serif" font-size="10.00">main</text>
</a>
</g>
</g>
<!-- Node5&#45;&gt;Node6 -->
<g id="edge5" class="edge"><title>Node5&#45;&gt;Node6</title>
<path fill="none" stroke="midnightblue" d="M315.374,-15.5C337.203,-15.5 359.726,-15.5 374.851,-15.5"/>
<polygon fill="midnightblue" stroke="midnightblue" points="315.087,-12.0001 305.086,-15.5 315.086,-19.0001 315.087,-12.0001"/>
</g>
</g>
</svg>
