<?xml version="1.0" encoding="UTF-8" standalone="no"?>
<!DOCTYPE svg PUBLIC "-//W3C//DTD SVG 1.1//EN"
 "http://www.w3.org/Graphics/SVG/1.1/DTD/svg11.dtd">
<!-- Generated by graphviz version 2.38.0 (20140413.2041)
 -->
<!-- Title: BandwidthCommunicator::~BandwidthCommunicator Pages: 1 -->
<svg width="519pt" height="361pt"
 viewBox="0.00 0.00 519.00 361.00" xmlns="http://www.w3.org/2000/svg" xmlns:xlink="http://www.w3.org/1999/xlink">
<g id="graph0" class="graph" transform="scale(1 1) rotate(0) translate(4 357)">
<title>BandwidthCommunicator::~BandwidthCommunicator</title>
<polygon fill="white" stroke="none" points="-4,4 -4,-357 515,-357 515,4 -4,4"/>
<!-- Node1 -->
<g id="node1" class="node"><title>Node1</title>
<polygon fill="#bfbfbf" stroke="black" points="0,-150.5 0,-180.5 138,-180.5 138,-150.5 0,-150.5"/>
<text text-anchor="start" x="8" y="-168.5" font-family="Helvetica,sans-Serif" font-size="10.00">BandwidthCommunicator</text>
<text text-anchor="middle" x="69" y="-157.5" font-family="Helvetica,sans-Serif" font-size="10.00">::~BandwidthCommunicator</text>
</g>
<!-- Node2 -->
<g id="node2" class="node"><title>Node2</title>
<g id="a_node2"><a xlink:href="classCommon_1_1TCControl.html#a8ade51df8d9c334b570f023e3fafa7bc" target="_top" xlink:title="clearTCCommands clears the current tc settings ">
<polygon fill="white" stroke="black" points="193.5,-322.5 193.5,-352.5 306.5,-352.5 306.5,-322.5 193.5,-322.5"/>
<text text-anchor="start" x="201.5" y="-340.5" font-family="Helvetica,sans-Serif" font-size="10.00">Common::TCControl::</text>
<text text-anchor="middle" x="250" y="-329.5" font-family="Helvetica,sans-Serif" font-size="10.00">clearTCCommands</text>
</a>
</g>
</g>
<!-- Node1&#45;&gt;Node2 -->
<g id="edge1" class="edge"><title>Node1&#45;&gt;Node2</title>
<path fill="none" stroke="midnightblue" d="M76.4968,-180.526C90.1451,-210.341 124.662,-277.225 174,-313.5 177.193,-315.847 180.624,-317.971 184.198,-319.891"/>
<polygon fill="midnightblue" stroke="midnightblue" points="182.794,-323.099 193.325,-324.257 185.814,-316.784 182.794,-323.099"/>
</g>
<!-- Node3 -->
<g id="node3" class="node"><title>Node3</title>
<g id="a_node3"><a xlink:href="classCommon_1_1TCControl.html#a1b50fa70591a78c957a35bd67a459ce1" target="_top" xlink:title="setEgressBandwidth set the outgoing bandwidth rate on an interface ">
<polygon fill="white" stroke="black" points="193.5,-273.5 193.5,-303.5 306.5,-303.5 306.5,-273.5 193.5,-273.5"/>
<text text-anchor="start" x="201.5" y="-291.5" font-family="Helvetica,sans-Serif" font-size="10.00">Common::TCControl::</text>
<text text-anchor="middle" x="250" y="-280.5" font-family="Helvetica,sans-Serif" font-size="10.00">setEgressBandwidth</text>
</a>
</g>
</g>
<!-- Node1&#45;&gt;Node3 -->
<g id="edge2" class="edge"><title>Node1&#45;&gt;Node3</title>
<path fill="none" stroke="midnightblue" d="M82.1495,-180.805C100.065,-202.407 135.619,-241.741 174,-264.5 177.186,-266.389 180.538,-268.147 183.984,-269.781"/>
<polygon fill="midnightblue" stroke="midnightblue" points="182.714,-273.045 193.281,-273.819 185.503,-266.625 182.714,-273.045"/>
</g>
<!-- Node4 -->
<g id="node4" class="node"><title>Node4</title>
<g id="a_node4"><a xlink:href="classWorkConservationFlowHandler.html#a700e5f82fe481b2a13481e9ce809e0b6" target="_top" xlink:title="updateWorkConservation method updates the work conservation flow ">
<polygon fill="white" stroke="black" points="174,-224.5 174,-254.5 326,-254.5 326,-224.5 174,-224.5"/>
<text text-anchor="start" x="182" y="-242.5" font-family="Helvetica,sans-Serif" font-size="10.00">WorkConservationFlowHandler</text>
<text text-anchor="middle" x="250" y="-231.5" font-family="Helvetica,sans-Serif" font-size="10.00">::updateWorkConservation</text>
</a>
</g>
</g>
<!-- Node1&#45;&gt;Node4 -->
<g id="edge3" class="edge"><title>Node1&#45;&gt;Node4</title>
<path fill="none" stroke="midnightblue" d="M98.6582,-180.604C119.282,-191.144 147.942,-205.125 174,-215.5 178.799,-217.411 183.815,-219.28 188.879,-221.079"/>
<polygon fill="midnightblue" stroke="midnightblue" points="188.039,-224.491 198.634,-224.443 190.321,-217.874 188.039,-224.491"/>
</g>
<!-- Node5 -->
<g id="node5" class="node"><title>Node5</title>
<g id="a_node5"><a xlink:href="classBandwidthCalculator.html#a54ae4861e782aecae570c2120321114d" target="_top" xlink:title="bandwidthGuaranteeRate getter ">
<polygon fill="white" stroke="black" points="183.5,-175.5 183.5,-205.5 316.5,-205.5 316.5,-175.5 183.5,-175.5"/>
<text text-anchor="start" x="191.5" y="-193.5" font-family="Helvetica,sans-Serif" font-size="10.00">BandwidthCalculator</text>
<text text-anchor="middle" x="250" y="-182.5" font-family="Helvetica,sans-Serif" font-size="10.00">::bandwidthGuaranteeRate</text>
</a>
</g>
</g>
<!-- Node1&#45;&gt;Node5 -->
<g id="edge4" class="edge"><title>Node1&#45;&gt;Node5</title>
<path fill="none" stroke="midnightblue" d="M138.183,-175.023C149.645,-176.624 161.603,-178.294 173.243,-179.919"/>
<polygon fill="midnightblue" stroke="midnightblue" points="172.981,-183.417 183.369,-181.334 173.95,-176.484 172.981,-183.417"/>
</g>
<!-- Node6 -->
<g id="node6" class="node"><title>Node6</title>
<g id="a_node6"><a xlink:href="classBandwidthCalculator.html#a87d97137e1b985f77a3315d78de84d24" target="_top" xlink:title="workConservingRate getter ">
<polygon fill="white" stroke="black" points="193,-126.5 193,-156.5 307,-156.5 307,-126.5 193,-126.5"/>
<text text-anchor="start" x="201" y="-144.5" font-family="Helvetica,sans-Serif" font-size="10.00">BandwidthCalculator</text>
<text text-anchor="middle" x="250" y="-133.5" font-family="Helvetica,sans-Serif" font-size="10.00">::workConservingRate</text>
</a>
</g>
</g>
<!-- Node1&#45;&gt;Node6 -->
<g id="edge5" class="edge"><title>Node1&#45;&gt;Node6</title>
<path fill="none" stroke="midnightblue" d="M138.183,-156.358C152.873,-154.389 168.377,-152.31 182.983,-150.351"/>
<polygon fill="midnightblue" stroke="midnightblue" points="183.484,-153.816 192.93,-149.018 182.554,-146.878 183.484,-153.816"/>
</g>
<!-- Node7 -->
<g id="node7" class="node"><title>Node7</title>
<g id="a_node7"><a xlink:href="classBandwidthCalculator.html#a49e5a450975798a5659804c6f893e835" target="_top" xlink:title="ecn getter ">
<polygon fill="white" stroke="black" points="186,-88 186,-107 314,-107 314,-88 186,-88"/>
<text text-anchor="middle" x="250" y="-95" font-family="Helvetica,sans-Serif" font-size="10.00">BandwidthCalculator::ecn</text>
</a>
</g>
</g>
<!-- Node1&#45;&gt;Node7 -->
<g id="edge6" class="edge"><title>Node1&#45;&gt;Node7</title>
<path fill="none" stroke="midnightblue" d="M99.0219,-150.469C119.575,-140.232 148.002,-126.887 174,-117.5 181.75,-114.702 190.075,-112.099 198.26,-109.759"/>
<polygon fill="midnightblue" stroke="midnightblue" points="199.416,-113.071 208.126,-107.038 197.555,-106.323 199.416,-113.071"/>
</g>
<!-- Node9 -->
<g id="node9" class="node"><title>Node9</title>
<g id="a_node9"><a xlink:href="classCommon_1_1LoggingHandler.html#a5c72b411fc450b086dcd31246e66bab0" target="_top" xlink:title="log method to log the given string ">
<polygon fill="white" stroke="black" points="362,-50 362,-69 511,-69 511,-50 362,-50"/>
<text text-anchor="middle" x="436.5" y="-57" font-family="Helvetica,sans-Serif" font-size="10.00">Common::LoggingHandler::log</text>
</a>
</g>
</g>
<!-- Node1&#45;&gt;Node9 -->
<g id="edge9" class="edge"><title>Node1&#45;&gt;Node9</title>
<path fill="none" stroke="midnightblue" d="M82.5651,-150.224C100.446,-129.737 135.377,-94.1318 174,-78.5 230.288,-55.7185 298.922,-51.5206 351.75,-52.7246"/>
<polygon fill="midnightblue" stroke="midnightblue" points="351.661,-56.2234 361.76,-53.0212 351.868,-49.2265 351.661,-56.2234"/>
</g>
<!-- Node10 -->
<g id="node10" class="node"><title>Node10</title>
<g id="a_node10"><a xlink:href="classBandwidthCalculator.html#af402b66c692f112085f5ffd4a16003af" target="_top" xlink:title="totalRate getter ">
<polygon fill="white" stroke="black" points="196.5,-0.5 196.5,-30.5 303.5,-30.5 303.5,-0.5 196.5,-0.5"/>
<text text-anchor="start" x="204.5" y="-18.5" font-family="Helvetica,sans-Serif" font-size="10.00">BandwidthCalculator</text>
<text text-anchor="middle" x="250" y="-7.5" font-family="Helvetica,sans-Serif" font-size="10.00">::totalRate</text>
</a>
</g>
</g>
<!-- Node1&#45;&gt;Node10 -->
<g id="edge10" class="edge"><title>Node1&#45;&gt;Node10</title>
<path fill="none" stroke="midnightblue" d="M79.7048,-150.16C96.2532,-125.109 132.225,-75.2359 174,-45.5 179.527,-41.5659 185.643,-38.0474 191.928,-34.9279"/>
<polygon fill="midnightblue" stroke="midnightblue" points="193.599,-38.0118 201.21,-30.641 190.664,-31.6569 193.599,-38.0118"/>
</g>
<!-- Node8 -->
<g id="node8" class="node"><title>Node8</title>
<g id="a_node8"><a xlink:href="classCommon_1_1Math_1_1SimpleRateCalculator.html#a45f717e9f919cbc3110685841c3a7baf" target="_top" xlink:title="calculateRate calculates the rate and returns it ">
<polygon fill="white" stroke="black" points="366,-88.5 366,-118.5 507,-118.5 507,-88.5 366,-88.5"/>
<text text-anchor="start" x="374" y="-106.5" font-family="Helvetica,sans-Serif" font-size="10.00">Common::Math::SimpleRate</text>
<text text-anchor="middle" x="436.5" y="-95.5" font-family="Helvetica,sans-Serif" font-size="10.00">Calculator::calculateRate</text>
</a>
</g>
</g>
<!-- Node7&#45;&gt;Node8 -->
<g id="edge7" class="edge"><title>Node7&#45;&gt;Node8</title>
<path fill="none" stroke="midnightblue" d="M314.236,-99.5565C327.583,-99.9905 341.831,-100.454 355.698,-100.905"/>
<polygon fill="midnightblue" stroke="midnightblue" points="355.6,-104.403 365.709,-101.23 355.828,-97.4071 355.6,-104.403"/>
</g>
<!-- Node7&#45;&gt;Node9 -->
<g id="edge8" class="edge"><title>Node7&#45;&gt;Node9</title>
<path fill="none" stroke="midnightblue" d="M297.557,-87.911C322.343,-82.8061 353.015,-76.4887 379.139,-71.1082"/>
<polygon fill="midnightblue" stroke="midnightblue" points="380.189,-74.4655 389.278,-69.0201 378.777,-67.6094 380.189,-74.4655"/>
</g>
</g>
</svg>
