<?xml version="1.0" encoding="UTF-8" standalone="no"?>
<!DOCTYPE svg PUBLIC "-//W3C//DTD SVG 1.1//EN"
 "http://www.w3.org/Graphics/SVG/1.1/DTD/svg11.dtd">
<!-- Generated by graphviz version 2.38.0 (20140413.2041)
 -->
<!-- Title: Common::ThreadHelper::startDetachedThread Pages: 1 -->
<svg width="421pt" height="246pt"
 viewBox="0.00 0.00 421.00 245.50" xmlns="http://www.w3.org/2000/svg" xmlns:xlink="http://www.w3.org/1999/xlink">
<g id="graph0" class="graph" transform="scale(1 1) rotate(0) translate(4 241.5)">
<title>Common::ThreadHelper::startDetachedThread</title>
<polygon fill="white" stroke="none" points="-4,4 -4,-241.5 417,-241.5 417,4 -4,4"/>
<!-- Node1 -->
<g id="node1" class="node"><title>Node1</title>
<polygon fill="#bfbfbf" stroke="black" points="0,-109 0,-139 121,-139 121,-109 0,-109"/>
<text text-anchor="start" x="8" y="-127" font-family="Helvetica,sans-Serif" font-size="10.00">Common::ThreadHelper</text>
<text text-anchor="middle" x="60.5" y="-116" font-family="Helvetica,sans-Serif" font-size="10.00">::startDetachedThread</text>
</g>
<!-- Node2 -->
<g id="node2" class="node"><title>Node2</title>
<g id="a_node2"><a xlink:href="classWCEnabler_1_1BandwidthCalculator.html#a1cc0aea727b0b795ece19fa18bb71c67" target="_top" xlink:title="BandwidthCalculator constructor. ">
<polygon fill="white" stroke="black" points="166.5,-207 166.5,-237 329.5,-237 329.5,-207 166.5,-207"/>
<text text-anchor="start" x="174.5" y="-225" font-family="Helvetica,sans-Serif" font-size="10.00">WCEnabler::BandwidthCalculator</text>
<text text-anchor="middle" x="248" y="-214" font-family="Helvetica,sans-Serif" font-size="10.00">::BandwidthCalculator</text>
</a>
</g>
</g>
<!-- Node1&#45;&gt;Node2 -->
<g id="edge1" class="edge"><title>Node1&#45;&gt;Node2</title>
<path fill="none" stroke="midnightblue" d="M84.82,-146.416C103.119,-162.869 129.944,-184.598 157,-198 163.811,-201.374 171.154,-204.317 178.605,-206.876"/>
<polygon fill="midnightblue" stroke="midnightblue" points="86.7761,-143.461 77.0423,-139.277 82.0424,-148.618 86.7761,-143.461"/>
</g>
<!-- Node3 -->
<g id="node3" class="node"><title>Node3</title>
<g id="a_node3"><a xlink:href="classWCEnabler_1_1BandwidthCommunicator.html#af59bc6cc36ff118c6a6b20a2390c7f39" target="_top" xlink:title="BandwidthCommunicator constructor. ">
<polygon fill="white" stroke="black" points="157,-158 157,-188 339,-188 339,-158 157,-158"/>
<text text-anchor="start" x="165" y="-176" font-family="Helvetica,sans-Serif" font-size="10.00">WCEnabler::BandwidthCommunicator</text>
<text text-anchor="middle" x="248" y="-165" font-family="Helvetica,sans-Serif" font-size="10.00">::BandwidthCommunicator</text>
</a>
</g>
</g>
<!-- Node1&#45;&gt;Node3 -->
<g id="edge2" class="edge"><title>Node1&#45;&gt;Node3</title>
<path fill="none" stroke="midnightblue" d="M128.215,-141.623C148.51,-146.984 170.614,-152.823 190.191,-157.994"/>
<polygon fill="midnightblue" stroke="midnightblue" points="128.979,-138.205 118.417,-139.035 127.191,-144.973 128.979,-138.205"/>
</g>
<!-- Node4 -->
<g id="node4" class="node"><title>Node4</title>
<g id="a_node4"><a xlink:href="classHandleHostBandwidth.html#acb2ff000ee7b1d0885631b28f351b3ec" target="_top" xlink:title="HandleHostBandwidth constructor. ">
<polygon fill="white" stroke="black" points="188,-109 188,-139 308,-139 308,-109 188,-109"/>
<text text-anchor="start" x="196" y="-127" font-family="Helvetica,sans-Serif" font-size="10.00">HandleHostBandwidth</text>
<text text-anchor="middle" x="248" y="-116" font-family="Helvetica,sans-Serif" font-size="10.00">::HandleHostBandwidth</text>
</a>
</g>
</g>
<!-- Node1&#45;&gt;Node4 -->
<g id="edge3" class="edge"><title>Node1&#45;&gt;Node4</title>
<path fill="none" stroke="midnightblue" d="M131.369,-124C149.924,-124 169.783,-124 187.715,-124"/>
<polygon fill="midnightblue" stroke="midnightblue" points="131.214,-120.5 121.214,-124 131.214,-127.5 131.214,-120.5"/>
</g>
<!-- Node5 -->
<g id="node5" class="node"><title>Node5</title>
<g id="a_node5"><a xlink:href="classHandleHostBandwidth.html#ac47bbf835631d45e09bf50b03dbbf696" target="_top" xlink:title="setRunning turn on the thread that receives the VMs bandwidth ">
<polygon fill="white" stroke="black" points="191,-60 191,-90 305,-90 305,-60 191,-60"/>
<text text-anchor="start" x="199" y="-78" font-family="Helvetica,sans-Serif" font-size="10.00">HandleHostBandwidth</text>
<text text-anchor="middle" x="248" y="-67" font-family="Helvetica,sans-Serif" font-size="10.00">::setRunning</text>
</a>
</g>
</g>
<!-- Node1&#45;&gt;Node5 -->
<g id="edge4" class="edge"><title>Node1&#45;&gt;Node5</title>
<path fill="none" stroke="midnightblue" d="M128.308,-106.353C148.798,-100.94 171.125,-95.0425 190.829,-89.8377"/>
<polygon fill="midnightblue" stroke="midnightblue" points="127.191,-103.027 118.417,-108.965 128.979,-109.795 127.191,-103.027"/>
</g>
<!-- Node7 -->
<g id="node7" class="node"><title>Node7</title>
<g id="a_node7"><a xlink:href="classWCEnabler_1_1WorkConservationFlowHandler.html#ac9f2189aa1a759feb7fc1aa01255d2f9" target="_top" xlink:title="WorkConservationFlowHandler constructor. ">
<polygon fill="white" stroke="black" points="158.5,-0.5 158.5,-41.5 337.5,-41.5 337.5,-0.5 158.5,-0.5"/>
<text text-anchor="start" x="166.5" y="-29.5" font-family="Helvetica,sans-Serif" font-size="10.00">WCEnabler::WorkConservation</text>
<text text-anchor="start" x="166.5" y="-18.5" font-family="Helvetica,sans-Serif" font-size="10.00">FlowHandler::WorkConservationFlow</text>
<text text-anchor="middle" x="248" y="-7.5" font-family="Helvetica,sans-Serif" font-size="10.00">Handler</text>
</a>
</g>
</g>
<!-- Node1&#45;&gt;Node7 -->
<g id="edge6" class="edge"><title>Node1&#45;&gt;Node7</title>
<path fill="none" stroke="midnightblue" d="M85.199,-102.297C103.649,-86.3279 130.495,-65.0423 157,-51 163.404,-47.6073 170.265,-44.4947 177.237,-41.666"/>
<polygon fill="midnightblue" stroke="midnightblue" points="82.782,-99.7616 77.5884,-108.996 87.4072,-105.016 82.782,-99.7616"/>
</g>
<!-- Node6 -->
<g id="node6" class="node"><title>Node6</title>
<g id="a_node6"><a xlink:href="BGAdaptor_2main_8cpp.html#a0ddf1224851353fc92bfbff6f499fa97" target="_top" xlink:title="main">
<polygon fill="white" stroke="black" points="375,-65.5 375,-84.5 413,-84.5 413,-65.5 375,-65.5"/>
<text text-anchor="middle" x="394" y="-72.5" font-family="Helvetica,sans-Serif" font-size="10.00">main</text>
</a>
</g>
</g>
<!-- Node5&#45;&gt;Node6 -->
<g id="edge5" class="edge"><title>Node5&#45;&gt;Node6</title>
<path fill="none" stroke="midnightblue" d="M315.374,-75C337.203,-75 359.726,-75 374.851,-75"/>
<polygon fill="midnightblue" stroke="midnightblue" points="315.087,-71.5001 305.086,-75 315.086,-78.5001 315.087,-71.5001"/>
</g>
</g>
</svg>
