<?xml version="1.0" encoding="UTF-8" standalone="no"?>
<!DOCTYPE svg PUBLIC "-//W3C//DTD SVG 1.1//EN"
 "http://www.w3.org/Graphics/SVG/1.1/DTD/svg11.dtd">
<!-- Generated by graphviz version 2.38.0 (20140413.2041)
 -->
<!-- Title: Common::HelperMethods::getInterfaceName Pages: 1 -->
<svg width="514pt" height="132pt"
 viewBox="0.00 0.00 514.00 132.00" xmlns="http://www.w3.org/2000/svg" xmlns:xlink="http://www.w3.org/1999/xlink">
<g id="graph0" class="graph" transform="scale(1 1) rotate(0) translate(4 128)">
<title>Common::HelperMethods::getInterfaceName</title>
<polygon fill="white" stroke="none" points="-4,4 -4,-128 510,-128 510,4 -4,4"/>
<!-- Node1 -->
<g id="node1" class="node"><title>Node1</title>
<polygon fill="#bfbfbf" stroke="black" points="0,-49.5 0,-79.5 128,-79.5 128,-49.5 0,-49.5"/>
<text text-anchor="start" x="8" y="-67.5" font-family="Helvetica,sans-Serif" font-size="10.00">Common::HelperMethods</text>
<text text-anchor="middle" x="64" y="-56.5" font-family="Helvetica,sans-Serif" font-size="10.00">::getInterfaceName</text>
</g>
<!-- Node2 -->
<g id="node2" class="node"><title>Node2</title>
<g id="a_node2"><a xlink:href="classBGAdaptor_1_1HandleHostBandwidth.html#af8e6a5d03b90da9fa56b15f5ef60aead" target="_top" xlink:title="HandleHostBandwidth constructor. ">
<polygon fill="white" stroke="black" points="164,-93.5 164,-123.5 332,-123.5 332,-93.5 164,-93.5"/>
<text text-anchor="start" x="172" y="-111.5" font-family="Helvetica,sans-Serif" font-size="10.00">BGAdaptor::HandleHostBandwidth</text>
<text text-anchor="middle" x="248" y="-100.5" font-family="Helvetica,sans-Serif" font-size="10.00">::HandleHostBandwidth</text>
</a>
</g>
</g>
<!-- Node1&#45;&gt;Node2 -->
<g id="edge1" class="edge"><title>Node1&#45;&gt;Node2</title>
<path fill="none" stroke="midnightblue" d="M136.877,-81.8769C152.737,-85.7112 169.409,-89.7418 184.846,-93.4738"/>
<polygon fill="midnightblue" stroke="midnightblue" points="137.668,-78.4672 127.125,-79.5192 136.023,-85.2712 137.668,-78.4672"/>
</g>
<!-- Node3 -->
<g id="node3" class="node"><title>Node3</title>
<g id="a_node3"><a xlink:href="classCommon_1_1HelperMethods.html#a37ffcf3eafeb2f4dd5eb6a7b336632c8" target="_top" xlink:title="getHostName getter ">
<polygon fill="white" stroke="black" points="184,-5.5 184,-35.5 312,-35.5 312,-5.5 184,-5.5"/>
<text text-anchor="start" x="192" y="-23.5" font-family="Helvetica,sans-Serif" font-size="10.00">Common::HelperMethods</text>
<text text-anchor="middle" x="248" y="-12.5" font-family="Helvetica,sans-Serif" font-size="10.00">::getHostName</text>
</a>
</g>
</g>
<!-- Node1&#45;&gt;Node3 -->
<g id="edge2" class="edge"><title>Node1&#45;&gt;Node3</title>
<path fill="none" stroke="midnightblue" d="M136.877,-47.1231C152.737,-43.2888 169.409,-39.2582 184.846,-35.5262"/>
<polygon fill="midnightblue" stroke="midnightblue" points="136.023,-43.7288 127.125,-49.4808 137.668,-50.5328 136.023,-43.7288"/>
</g>
<!-- Node4 -->
<g id="node4" class="node"><title>Node4</title>
<g id="a_node4"><a xlink:href="structCommon_1_1HelperMethods_1_1InterfaceInfo.html#a8c5c5047166942a2738869d416921d38" target="_top" xlink:title="Common::HelperMethods\l::InterfaceInfo::InterfaceInfo">
<polygon fill="white" stroke="black" points="368,-49.5 368,-79.5 506,-79.5 506,-49.5 368,-49.5"/>
<text text-anchor="start" x="376" y="-67.5" font-family="Helvetica,sans-Serif" font-size="10.00">Common::HelperMethods</text>
<text text-anchor="middle" x="437" y="-56.5" font-family="Helvetica,sans-Serif" font-size="10.00">::InterfaceInfo::InterfaceInfo</text>
</a>
</g>
</g>
<!-- Node1&#45;&gt;Node4 -->
<g id="edge5" class="edge"><title>Node1&#45;&gt;Node4</title>
<path fill="none" stroke="midnightblue" d="M138.38,-64.5C205.115,-64.5 302.835,-64.5 367.877,-64.5"/>
<polygon fill="midnightblue" stroke="midnightblue" points="138.356,-61.0001 128.356,-64.5 138.356,-68.0001 138.356,-61.0001"/>
</g>
<!-- Node3&#45;&gt;Node4 -->
<g id="edge3" class="edge"><title>Node3&#45;&gt;Node4</title>
<path fill="none" stroke="midnightblue" d="M322.152,-37.7123C338.593,-41.5806 355.915,-45.6565 371.951,-49.4296"/>
<polygon fill="midnightblue" stroke="midnightblue" points="322.585,-34.2186 312.049,-35.3351 320.981,-41.0325 322.585,-34.2186"/>
</g>
<!-- Node5 -->
<g id="node5" class="node"><title>Node5</title>
<g id="a_node5"><a xlink:href="classTestHandler_1_1MainObject.html#a1b2a3535f89c9101a7815629cefd6ffb" target="_top" xlink:title="TestHandler::MainObject\l::MainObject">
<polygon fill="white" stroke="black" points="374.5,-0.5 374.5,-30.5 499.5,-30.5 499.5,-0.5 374.5,-0.5"/>
<text text-anchor="start" x="382.5" y="-18.5" font-family="Helvetica,sans-Serif" font-size="10.00">TestHandler::MainObject</text>
<text text-anchor="middle" x="437" y="-7.5" font-family="Helvetica,sans-Serif" font-size="10.00">::MainObject</text>
</a>
</g>
</g>
<!-- Node3&#45;&gt;Node5 -->
<g id="edge4" class="edge"><title>Node3&#45;&gt;Node5</title>
<path fill="none" stroke="midnightblue" d="M322.116,-18.545C339.44,-18.0818 357.745,-17.5924 374.493,-17.1446"/>
<polygon fill="midnightblue" stroke="midnightblue" points="321.952,-15.0481 312.049,-18.8142 322.139,-22.0456 321.952,-15.0481"/>
</g>
</g>
</svg>
