<?xml version="1.0" encoding="UTF-8" standalone="no"?>
<!DOCTYPE svg PUBLIC "-//W3C//DTD SVG 1.1//EN"
 "http://www.w3.org/Graphics/SVG/1.1/DTD/svg11.dtd">
<!-- Generated by graphviz version 2.38.0 (20140413.2041)
 -->
<!-- Title: FatTreeTopology.StructuredTopo.layer Pages: 1 -->
<svg width="524pt" height="176pt"
 viewBox="0.00 0.00 524.00 175.50" xmlns="http://www.w3.org/2000/svg" xmlns:xlink="http://www.w3.org/1999/xlink">
<g id="graph0" class="graph" transform="scale(1 1) rotate(0) translate(4 171.5)">
<title>FatTreeTopology.StructuredTopo.layer</title>
<polygon fill="white" stroke="none" points="-4,4 -4,-171.5 520,-171.5 520,4 -4,4"/>
<!-- Node1 -->
<g id="node1" class="node"><title>Node1</title>
<polygon fill="#bfbfbf" stroke="black" points="0,-63 0,-93 138,-93 138,-63 0,-63"/>
<text text-anchor="start" x="8" y="-81" font-family="Helvetica,sans-Serif" font-size="10.00">FatTreeTopology.Structured</text>
<text text-anchor="middle" x="69" y="-70" font-family="Helvetica,sans-Serif" font-size="10.00">Topo.layer</text>
</g>
<!-- Node2 -->
<g id="node2" class="node"><title>Node2</title>
<g id="a_node2"><a xlink:href="classFatTreeTopology_1_1StructuredTopo.html#a7bb3436ba233d8b6643cb5b9a98babbf" target="_top" xlink:title="FatTreeTopology.Structured\lTopo.layer_nodes">
<polygon fill="white" stroke="black" points="189,-137 189,-167 327,-167 327,-137 189,-137"/>
<text text-anchor="start" x="197" y="-155" font-family="Helvetica,sans-Serif" font-size="10.00">FatTreeTopology.Structured</text>
<text text-anchor="middle" x="258" y="-144" font-family="Helvetica,sans-Serif" font-size="10.00">Topo.layer_nodes</text>
</a>
</g>
</g>
<!-- Node1&#45;&gt;Node2 -->
<g id="edge1" class="edge"><title>Node1&#45;&gt;Node2</title>
<path fill="none" stroke="midnightblue" d="M107.286,-97.7914C126.812,-107.675 151.322,-119.339 174,-128 182.408,-131.211 191.434,-134.235 200.326,-136.984"/>
<polygon fill="midnightblue" stroke="midnightblue" points="108.626,-94.5457 98.1298,-93.1033 105.436,-100.776 108.626,-94.5457"/>
</g>
<!-- Node3 -->
<g id="node3" class="node"><title>Node3</title>
<g id="a_node3"><a xlink:href="classFatTreeTopology_1_1StructuredTopo.html#aaeb3fa2bd1b0cad7a4e0cea59ddb59df" target="_top" xlink:title="FatTreeTopology.Structured\lTopo.up_nodes">
<polygon fill="white" stroke="black" points="189,-88 189,-118 327,-118 327,-88 189,-88"/>
<text text-anchor="start" x="197" y="-106" font-family="Helvetica,sans-Serif" font-size="10.00">FatTreeTopology.Structured</text>
<text text-anchor="middle" x="258" y="-95" font-family="Helvetica,sans-Serif" font-size="10.00">Topo.up_nodes</text>
</a>
</g>
</g>
<!-- Node1&#45;&gt;Node3 -->
<g id="edge2" class="edge"><title>Node1&#45;&gt;Node3</title>
<path fill="none" stroke="midnightblue" d="M148.218,-88.4569C161.662,-90.2542 175.539,-92.1095 188.697,-93.8686"/>
<polygon fill="midnightblue" stroke="midnightblue" points="148.416,-84.9524 138.04,-87.0963 147.488,-91.8906 148.416,-84.9524"/>
</g>
<!-- Node5 -->
<g id="node5" class="node"><title>Node5</title>
<g id="a_node5"><a xlink:href="classFatTreeTopology_1_1StructuredTopo.html#a4fe1b0847cab28d8d03139acb660d916" target="_top" xlink:title="FatTreeTopology.Structured\lTopo.down_nodes">
<polygon fill="white" stroke="black" points="189,-39 189,-69 327,-69 327,-39 189,-39"/>
<text text-anchor="start" x="197" y="-57" font-family="Helvetica,sans-Serif" font-size="10.00">FatTreeTopology.Structured</text>
<text text-anchor="middle" x="258" y="-46" font-family="Helvetica,sans-Serif" font-size="10.00">Topo.down_nodes</text>
</a>
</g>
</g>
<!-- Node1&#45;&gt;Node5 -->
<g id="edge4" class="edge"><title>Node1&#45;&gt;Node5</title>
<path fill="none" stroke="midnightblue" d="M148.218,-67.9614C161.662,-66.2359 175.539,-64.4549 188.697,-62.7662"/>
<polygon fill="midnightblue" stroke="midnightblue" points="147.513,-64.523 138.04,-69.2676 148.405,-71.466 147.513,-64.523"/>
</g>
<!-- Node7 -->
<g id="node7" class="node"><title>Node7</title>
<g id="a_node7"><a xlink:href="classFatTreeTopology_1_1FatTreeTopo.html#a0a5c0c31daf36e5f46e8f1b4c9355575" target="_top" xlink:title="FatTreeTopology.FatTreeTopo.port">
<polygon fill="white" stroke="black" points="174,-0.5 174,-19.5 342,-19.5 342,-0.5 174,-0.5"/>
<text text-anchor="middle" x="258" y="-7.5" font-family="Helvetica,sans-Serif" font-size="10.00">FatTreeTopology.FatTreeTopo.port</text>
</a>
</g>
</g>
<!-- Node1&#45;&gt;Node7 -->
<g id="edge6" class="edge"><title>Node1&#45;&gt;Node7</title>
<path fill="none" stroke="midnightblue" d="M107.135,-58.1138C126.622,-48.2973 151.141,-36.8981 174,-29 184.619,-25.3311 196.248,-22.166 207.351,-19.529"/>
<polygon fill="midnightblue" stroke="midnightblue" points="105.312,-55.1146 98.0022,-62.7834 108.499,-61.3471 105.312,-55.1146"/>
</g>
<!-- Node4 -->
<g id="node4" class="node"><title>Node4</title>
<g id="a_node4"><a xlink:href="classFatTreeTopology_1_1StructuredTopo.html#add2d75ee8fd4849941e309c2dbbaba99" target="_top" xlink:title="FatTreeTopology.Structured\lTopo.up_edges">
<polygon fill="white" stroke="black" points="378,-88 378,-118 516,-118 516,-88 378,-88"/>
<text text-anchor="start" x="386" y="-106" font-family="Helvetica,sans-Serif" font-size="10.00">FatTreeTopology.Structured</text>
<text text-anchor="middle" x="447" y="-95" font-family="Helvetica,sans-Serif" font-size="10.00">Topo.up_edges</text>
</a>
</g>
</g>
<!-- Node3&#45;&gt;Node4 -->
<g id="edge3" class="edge"><title>Node3&#45;&gt;Node4</title>
<path fill="none" stroke="midnightblue" d="M337.218,-103C350.662,-103 364.539,-103 377.697,-103"/>
<polygon fill="midnightblue" stroke="midnightblue" points="337.04,-99.5001 327.04,-103 337.04,-106.5 337.04,-99.5001"/>
</g>
<!-- Node6 -->
<g id="node6" class="node"><title>Node6</title>
<g id="a_node6"><a xlink:href="classFatTreeTopology_1_1StructuredTopo.html#ac3fee59b052a39485fd161ccc6761654" target="_top" xlink:title="FatTreeTopology.Structured\lTopo.down_edges">
<polygon fill="white" stroke="black" points="378,-39 378,-69 516,-69 516,-39 378,-39"/>
<text text-anchor="start" x="386" y="-57" font-family="Helvetica,sans-Serif" font-size="10.00">FatTreeTopology.Structured</text>
<text text-anchor="middle" x="447" y="-46" font-family="Helvetica,sans-Serif" font-size="10.00">Topo.down_edges</text>
</a>
</g>
</g>
<!-- Node5&#45;&gt;Node6 -->
<g id="edge5" class="edge"><title>Node5&#45;&gt;Node6</title>
<path fill="none" stroke="midnightblue" d="M337.218,-54C350.662,-54 364.539,-54 377.697,-54"/>
<polygon fill="midnightblue" stroke="midnightblue" points="337.04,-50.5001 327.04,-54 337.04,-57.5001 337.04,-50.5001"/>
</g>
</g>
</svg>
