<?xml version="1.0" encoding="UTF-8" standalone="no"?>
<!DOCTYPE svg PUBLIC "-//W3C//DTD SVG 1.1//EN"
 "http://www.w3.org/Graphics/SVG/1.1/DTD/svg11.dtd">
<!-- Generated by graphviz version 2.38.0 (20140413.2041)
 -->
<!-- Title: Common::LoggerFactory::buildLogger Pages: 1 -->
<svg width="337pt" height="39pt"
 viewBox="0.00 0.00 337.00 39.00" xmlns="http://www.w3.org/2000/svg" xmlns:xlink="http://www.w3.org/1999/xlink">
<g id="graph0" class="graph" transform="scale(1 1) rotate(0) translate(4 35)">
<title>Common::LoggerFactory::buildLogger</title>
<polygon fill="white" stroke="none" points="-4,4 -4,-35 333,-35 333,4 -4,4"/>
<!-- Node1 -->
<g id="node1" class="node"><title>Node1</title>
<polygon fill="#bfbfbf" stroke="black" points="0,-0.5 0,-30.5 125,-30.5 125,-0.5 0,-0.5"/>
<text text-anchor="start" x="8" y="-18.5" font-family="Helvetica,sans-Serif" font-size="10.00">Common::LoggerFactory</text>
<text text-anchor="middle" x="62.5" y="-7.5" font-family="Helvetica,sans-Serif" font-size="10.00">::buildLogger</text>
</g>
<!-- Node2 -->
<g id="node2" class="node"><title>Node2</title>
<g id="a_node2"><a xlink:href="classBGAdaptor_1_1HandleHostBandwidth.html#af8e6a5d03b90da9fa56b15f5ef60aead" target="_top" xlink:title="HandleHostBandwidth constructor. ">
<polygon fill="white" stroke="black" points="161,-0.5 161,-30.5 329,-30.5 329,-0.5 161,-0.5"/>
<text text-anchor="start" x="169" y="-18.5" font-family="Helvetica,sans-Serif" font-size="10.00">BGAdaptor::HandleHostBandwidth</text>
<text text-anchor="middle" x="245" y="-7.5" font-family="Helvetica,sans-Serif" font-size="10.00">::HandleHostBandwidth</text>
</a>
</g>
</g>
<!-- Node1&#45;&gt;Node2 -->
<g id="edge1" class="edge"><title>Node1&#45;&gt;Node2</title>
<path fill="none" stroke="midnightblue" d="M135.274,-15.5C143.714,-15.5 152.378,-15.5 160.955,-15.5"/>
<polygon fill="midnightblue" stroke="midnightblue" points="135.113,-12.0001 125.113,-15.5 135.113,-19.0001 135.113,-12.0001"/>
</g>
</g>
</svg>
