<?xml version="1.0" encoding="UTF-8" standalone="no"?>
<!DOCTYPE svg PUBLIC "-//W3C//DTD SVG 1.1//EN"
 "http://www.w3.org/Graphics/SVG/1.1/DTD/svg11.dtd">
<!-- Generated by graphviz version 2.38.0 (20140413.2041)
 -->
<!-- Title: Common::ThreadHelper::startDetachedThread Pages: 1 -->
<svg width="347pt" height="197pt"
 viewBox="0.00 0.00 347.00 196.50" xmlns="http://www.w3.org/2000/svg" xmlns:xlink="http://www.w3.org/1999/xlink">
<g id="graph0" class="graph" transform="scale(1 1) rotate(0) translate(4 192.5)">
<title>Common::ThreadHelper::startDetachedThread</title>
<polygon fill="white" stroke="none" points="-4,4 -4,-192.5 343,-192.5 343,4 -4,4"/>
<!-- Node1 -->
<g id="node1" class="node"><title>Node1</title>
<polygon fill="#bfbfbf" stroke="black" points="0,-84 0,-114 121,-114 121,-84 0,-84"/>
<text text-anchor="start" x="8" y="-102" font-family="Helvetica,sans-Serif" font-size="10.00">Common::ThreadHelper</text>
<text text-anchor="middle" x="60.5" y="-91" font-family="Helvetica,sans-Serif" font-size="10.00">::startDetachedThread</text>
</g>
<!-- Node2 -->
<g id="node2" class="node"><title>Node2</title>
<g id="a_node2"><a xlink:href="classWCEnabler_1_1BandwidthCalculator.html#a7e3d2e7e3c43eb3499f70fe73005e361" target="_top" xlink:title="BandwidthCalculator constructor. ">
<polygon fill="white" stroke="black" points="166.5,-158 166.5,-188 329.5,-188 329.5,-158 166.5,-158"/>
<text text-anchor="start" x="174.5" y="-176" font-family="Helvetica,sans-Serif" font-size="10.00">WCEnabler::BandwidthCalculator</text>
<text text-anchor="middle" x="248" y="-165" font-family="Helvetica,sans-Serif" font-size="10.00">::BandwidthCalculator</text>
</a>
</g>
</g>
<!-- Node1&#45;&gt;Node2 -->
<g id="edge1" class="edge"><title>Node1&#45;&gt;Node2</title>
<path fill="none" stroke="midnightblue" d="M95.5941,-119.211C113.44,-129.176 135.913,-140.786 157,-149 165.438,-152.287 174.491,-155.284 183.486,-157.962"/>
<polygon fill="midnightblue" stroke="midnightblue" points="97.141,-116.064 86.7158,-114.176 93.6881,-122.154 97.141,-116.064"/>
</g>
<!-- Node3 -->
<g id="node3" class="node"><title>Node3</title>
<g id="a_node3"><a xlink:href="classWCEnabler_1_1BandwidthCommunicator.html#af59bc6cc36ff118c6a6b20a2390c7f39" target="_top" xlink:title="BandwidthCommunicator constructor. ">
<polygon fill="white" stroke="black" points="157,-109 157,-139 339,-139 339,-109 157,-109"/>
<text text-anchor="start" x="165" y="-127" font-family="Helvetica,sans-Serif" font-size="10.00">WCEnabler::BandwidthCommunicator</text>
<text text-anchor="middle" x="248" y="-116" font-family="Helvetica,sans-Serif" font-size="10.00">::BandwidthCommunicator</text>
</a>
</g>
</g>
<!-- Node1&#45;&gt;Node3 -->
<g id="edge2" class="edge"><title>Node1&#45;&gt;Node3</title>
<path fill="none" stroke="midnightblue" d="M131.212,-108.395C139.532,-109.516 148.116,-110.673 156.672,-111.826"/>
<polygon fill="midnightblue" stroke="midnightblue" points="131.592,-104.915 121.214,-107.048 130.657,-111.852 131.592,-104.915"/>
</g>
<!-- Node4 -->
<g id="node4" class="node"><title>Node4</title>
<g id="a_node4"><a xlink:href="classBGAdaptor_1_1HandleHostBandwidth.html#af8e6a5d03b90da9fa56b15f5ef60aead" target="_top" xlink:title="HandleHostBandwidth constructor. ">
<polygon fill="white" stroke="black" points="164,-60 164,-90 332,-90 332,-60 164,-60"/>
<text text-anchor="start" x="172" y="-78" font-family="Helvetica,sans-Serif" font-size="10.00">BGAdaptor::HandleHostBandwidth</text>
<text text-anchor="middle" x="248" y="-67" font-family="Helvetica,sans-Serif" font-size="10.00">::HandleHostBandwidth</text>
</a>
</g>
</g>
<!-- Node1&#45;&gt;Node4 -->
<g id="edge3" class="edge"><title>Node1&#45;&gt;Node4</title>
<path fill="none" stroke="midnightblue" d="M131.235,-89.9777C141.845,-88.605 152.883,-87.1769 163.746,-85.7714"/>
<polygon fill="midnightblue" stroke="midnightblue" points="130.683,-86.5199 121.214,-91.2741 131.581,-93.462 130.683,-86.5199"/>
</g>
<!-- Node5 -->
<g id="node5" class="node"><title>Node5</title>
<g id="a_node5"><a xlink:href="classWCEnabler_1_1WorkConservationFlowHandler.html#a369588e62336a7aba3c59dbbfb9d1182" target="_top" xlink:title="WorkConservationFlowHandler constructor. ">
<polygon fill="white" stroke="black" points="158.5,-0.5 158.5,-41.5 337.5,-41.5 337.5,-0.5 158.5,-0.5"/>
<text text-anchor="start" x="166.5" y="-29.5" font-family="Helvetica,sans-Serif" font-size="10.00">WCEnabler::WorkConservation</text>
<text text-anchor="start" x="166.5" y="-18.5" font-family="Helvetica,sans-Serif" font-size="10.00">FlowHandler::WorkConservationFlow</text>
<text text-anchor="middle" x="248" y="-7.5" font-family="Helvetica,sans-Serif" font-size="10.00">Handler</text>
</a>
</g>
</g>
<!-- Node1&#45;&gt;Node5 -->
<g id="edge4" class="edge"><title>Node1&#45;&gt;Node5</title>
<path fill="none" stroke="midnightblue" d="M98.2946,-78.948C115.8,-69.8134 137.191,-59.2293 157,-51 164.909,-47.7142 173.319,-44.5255 181.699,-41.53"/>
<polygon fill="midnightblue" stroke="midnightblue" points="96.2151,-76.0878 89.0036,-83.8495 99.4814,-82.279 96.2151,-76.0878"/>
</g>
</g>
</svg>
