<?xml version="1.0" encoding="UTF-8" standalone="no"?>
<!DOCTYPE svg PUBLIC "-//W3C//DTD SVG 1.1//EN"
 "http://www.w3.org/Graphics/SVG/1.1/DTD/svg11.dtd">
<!-- Generated by graphviz version 2.38.0 (20140413.2041)
 -->
<!-- Title: Common::Math::ExponentialSmoothingCalculator::calculateRate Pages: 1 -->
<svg width="371pt" height="39pt"
 viewBox="0.00 0.00 371.00 39.00" xmlns="http://www.w3.org/2000/svg" xmlns:xlink="http://www.w3.org/1999/xlink">
<g id="graph0" class="graph" transform="scale(1 1) rotate(0) translate(4 35)">
<title>Common::Math::ExponentialSmoothingCalculator::calculateRate</title>
<polygon fill="white" stroke="none" points="-4,4 -4,-35 367,-35 367,4 -4,4"/>
<!-- Node1 -->
<g id="node1" class="node"><title>Node1</title>
<polygon fill="#bfbfbf" stroke="black" points="0,-0.5 0,-30.5 173,-30.5 173,-0.5 0,-0.5"/>
<text text-anchor="start" x="8" y="-18.5" font-family="Helvetica,sans-Serif" font-size="10.00">Common::Math::Exponential</text>
<text text-anchor="middle" x="86.5" y="-7.5" font-family="Helvetica,sans-Serif" font-size="10.00">SmoothingCalculator::calculateRate</text>
</g>
<!-- Node2 -->
<g id="node2" class="node"><title>Node2</title>
<g id="a_node2"><a xlink:href="classWCEnabler_1_1WorkConservationFlowHandler.html#ac4306f1d18ca0f29d9f35e49451d886a" target="_top" xlink:title="stateToString method converts the state enum to a string ">
<polygon fill="white" stroke="black" points="209,-0.5 209,-30.5 363,-30.5 363,-0.5 209,-0.5"/>
<text text-anchor="start" x="217" y="-18.5" font-family="Helvetica,sans-Serif" font-size="10.00">WCEnabler::WorkConservation</text>
<text text-anchor="middle" x="286" y="-7.5" font-family="Helvetica,sans-Serif" font-size="10.00">FlowHandler::stateToString</text>
</a>
</g>
</g>
<!-- Node1&#45;&gt;Node2 -->
<g id="edge1" class="edge"><title>Node1&#45;&gt;Node2</title>
<path fill="none" stroke="midnightblue" d="M183.323,-15.5C191.916,-15.5 200.538,-15.5 208.929,-15.5"/>
<polygon fill="midnightblue" stroke="midnightblue" points="183.265,-12.0001 173.265,-15.5 183.265,-19.0001 183.265,-12.0001"/>
</g>
</g>
</svg>
