<?xml version="1.0" encoding="UTF-8" standalone="no"?>
<!DOCTYPE svg PUBLIC "-//W3C//DTD SVG 1.1//EN"
 "http://www.w3.org/Graphics/SVG/1.1/DTD/svg11.dtd">
<!-- Generated by graphviz version 2.38.0 (20140413.2041)
 -->
<!-- Title: MapReduceScheduler.MapReduceScheduler.runTest Pages: 1 -->
<svg width="406pt" height="127pt"
 viewBox="0.00 0.00 406.00 127.00" xmlns="http://www.w3.org/2000/svg" xmlns:xlink="http://www.w3.org/1999/xlink">
<g id="graph0" class="graph" transform="scale(1 1) rotate(0) translate(4 123)">
<title>MapReduceScheduler.MapReduceScheduler.runTest</title>
<polygon fill="white" stroke="none" points="-4,4 -4,-123 402,-123 402,4 -4,4"/>
<!-- Node1 -->
<g id="node1" class="node"><title>Node1</title>
<polygon fill="#bfbfbf" stroke="black" points="0,-44.5 0,-74.5 168,-74.5 168,-44.5 0,-44.5"/>
<text text-anchor="start" x="8" y="-62.5" font-family="Helvetica,sans-Serif" font-size="10.00">MapReduceScheduler.MapReduce</text>
<text text-anchor="middle" x="84" y="-51.5" font-family="Helvetica,sans-Serif" font-size="10.00">Scheduler.runTest</text>
</g>
<!-- Node2 -->
<g id="node2" class="node"><title>Node2</title>
<g id="a_node2"><a xlink:href="classMapReduceScheduler_1_1MapReduceScheduler.html#a36a93a0ed50caac92769dd80aa0d8e45" target="_top" xlink:title="MapReduceScheduler.MapReduce\lScheduler.findHosts">
<polygon fill="white" stroke="black" points="217,-88.5 217,-118.5 385,-118.5 385,-88.5 217,-88.5"/>
<text text-anchor="start" x="225" y="-106.5" font-family="Helvetica,sans-Serif" font-size="10.00">MapReduceScheduler.MapReduce</text>
<text text-anchor="middle" x="301" y="-95.5" font-family="Helvetica,sans-Serif" font-size="10.00">Scheduler.findHosts</text>
</a>
</g>
</g>
<!-- Node1&#45;&gt;Node2 -->
<g id="edge1" class="edge"><title>Node1&#45;&gt;Node2</title>
<path fill="none" stroke="midnightblue" d="M158.389,-74.5192C177.139,-78.3564 197.434,-82.5097 216.644,-86.4411"/>
<polygon fill="midnightblue" stroke="midnightblue" points="216.078,-89.8977 226.576,-88.4738 217.481,-83.0398 216.078,-89.8977"/>
</g>
<!-- Node3 -->
<g id="node3" class="node"><title>Node3</title>
<g id="a_node3"><a xlink:href="classMapReduceJob_1_1MapReduceJob.html#a3c48711661a4d2410c4d5bc54e273983" target="_top" xlink:title="MapReduceJob.MapReduceJob.getTime">
<polygon fill="white" stroke="black" points="204,-50 204,-69 398,-69 398,-50 204,-50"/>
<text text-anchor="middle" x="301" y="-57" font-family="Helvetica,sans-Serif" font-size="10.00">MapReduceJob.MapReduceJob.getTime</text>
</a>
</g>
</g>
<!-- Node1&#45;&gt;Node3 -->
<g id="edge2" class="edge"><title>Node1&#45;&gt;Node3</title>
<path fill="none" stroke="midnightblue" d="M168.125,-59.5C176.533,-59.5 185.151,-59.5 193.759,-59.5"/>
<polygon fill="midnightblue" stroke="midnightblue" points="193.845,-63.0001 203.845,-59.5 193.845,-56.0001 193.845,-63.0001"/>
</g>
<!-- Node4 -->
<g id="node4" class="node"><title>Node4</title>
<g id="a_node4"><a xlink:href="classMapReduceScheduler_1_1MapReduceScheduler.html#ae11dcc707e73e7545675b6c38c041132" target="_top" xlink:title="MapReduceScheduler.MapReduce\lScheduler.getTime">
<polygon fill="white" stroke="black" points="217,-0.5 217,-30.5 385,-30.5 385,-0.5 217,-0.5"/>
<text text-anchor="start" x="225" y="-18.5" font-family="Helvetica,sans-Serif" font-size="10.00">MapReduceScheduler.MapReduce</text>
<text text-anchor="middle" x="301" y="-7.5" font-family="Helvetica,sans-Serif" font-size="10.00">Scheduler.getTime</text>
</a>
</g>
</g>
<!-- Node1&#45;&gt;Node4 -->
<g id="edge3" class="edge"><title>Node1&#45;&gt;Node4</title>
<path fill="none" stroke="midnightblue" d="M158.389,-44.4808C177.139,-40.6436 197.434,-36.4903 216.644,-32.5589"/>
<polygon fill="midnightblue" stroke="midnightblue" points="217.481,-35.9602 226.576,-30.5262 216.078,-29.1023 217.481,-35.9602"/>
</g>
</g>
</svg>
