<?xml version="1.0" encoding="UTF-8" standalone="no"?>
<!DOCTYPE svg PUBLIC "-//W3C//DTD SVG 1.1//EN"
 "http://www.w3.org/Graphics/SVG/1.1/DTD/svg11.dtd">
<!-- Generated by graphviz version 2.38.0 (20140413.2041)
 -->
<!-- Title: AnotherFatTreeTopology.FatTree.makeDPID Pages: 1 -->
<svg width="503pt" height="39pt"
 viewBox="0.00 0.00 503.00 39.00" xmlns="http://www.w3.org/2000/svg" xmlns:xlink="http://www.w3.org/1999/xlink">
<g id="graph0" class="graph" transform="scale(1 1) rotate(0) translate(4 35)">
<title>AnotherFatTreeTopology.FatTree.makeDPID</title>
<polygon fill="white" stroke="none" points="-4,4 -4,-35 499,-35 499,4 -4,4"/>
<!-- Node1 -->
<g id="node1" class="node"><title>Node1</title>
<polygon fill="#bfbfbf" stroke="black" points="0,-0.5 0,-30.5 141,-30.5 141,-0.5 0,-0.5"/>
<text text-anchor="start" x="8" y="-18.5" font-family="Helvetica,sans-Serif" font-size="10.00">AnotherFatTreeTopology.Fat</text>
<text text-anchor="middle" x="70.5" y="-7.5" font-family="Helvetica,sans-Serif" font-size="10.00">Tree.makeDPID</text>
</g>
<!-- Node2 -->
<g id="node2" class="node"><title>Node2</title>
<g id="a_node2"><a xlink:href="classAnotherFatTreeTopology_1_1FatTree.html#a7180b42cfee01001b3e61034aad9c263" target="_top" xlink:title="AnotherFatTreeTopology.Fat\lTree.makeMAC">
<polygon fill="white" stroke="black" points="177,-0.5 177,-30.5 318,-30.5 318,-0.5 177,-0.5"/>
<text text-anchor="start" x="185" y="-18.5" font-family="Helvetica,sans-Serif" font-size="10.00">AnotherFatTreeTopology.Fat</text>
<text text-anchor="middle" x="247.5" y="-7.5" font-family="Helvetica,sans-Serif" font-size="10.00">Tree.makeMAC</text>
</a>
</g>
</g>
<!-- Node1&#45;&gt;Node2 -->
<g id="edge1" class="edge"><title>Node1&#45;&gt;Node2</title>
<path fill="none" stroke="midnightblue" d="M141.167,-15.5C149.502,-15.5 158.063,-15.5 166.529,-15.5"/>
<polygon fill="midnightblue" stroke="midnightblue" points="166.786,-19.0001 176.786,-15.5 166.786,-12.0001 166.786,-19.0001"/>
</g>
<!-- Node3 -->
<g id="node3" class="node"><title>Node3</title>
<g id="a_node3"><a xlink:href="classAnotherFatTreeTopology_1_1FatTree.html#afa76458fecf46fbc0f8663d90f251af8" target="_top" xlink:title="AnotherFatTreeTopology.Fat\lTree.randByte">
<polygon fill="white" stroke="black" points="354,-0.5 354,-30.5 495,-30.5 495,-0.5 354,-0.5"/>
<text text-anchor="start" x="362" y="-18.5" font-family="Helvetica,sans-Serif" font-size="10.00">AnotherFatTreeTopology.Fat</text>
<text text-anchor="middle" x="424.5" y="-7.5" font-family="Helvetica,sans-Serif" font-size="10.00">Tree.randByte</text>
</a>
</g>
</g>
<!-- Node2&#45;&gt;Node3 -->
<g id="edge2" class="edge"><title>Node2&#45;&gt;Node3</title>
<path fill="none" stroke="midnightblue" d="M318.167,-15.5C326.502,-15.5 335.063,-15.5 343.529,-15.5"/>
<polygon fill="midnightblue" stroke="midnightblue" points="343.786,-19.0001 353.786,-15.5 343.786,-12.0001 343.786,-19.0001"/>
</g>
</g>
</svg>
