<?xml version="1.0" encoding="UTF-8" standalone="no"?>
<!DOCTYPE svg PUBLIC "-//W3C//DTD SVG 1.1//EN"
 "http://www.w3.org/Graphics/SVG/1.1/DTD/svg11.dtd">
<!-- Generated by graphviz version 2.38.0 (20140413.2041)
 -->
<!-- Title: Common::HelperMethods::getHostName Pages: 1 -->
<svg width="310pt" height="88pt"
 viewBox="0.00 0.00 310.00 88.00" xmlns="http://www.w3.org/2000/svg" xmlns:xlink="http://www.w3.org/1999/xlink">
<g id="graph0" class="graph" transform="scale(1 1) rotate(0) translate(4 84)">
<title>Common::HelperMethods::getHostName</title>
<polygon fill="white" stroke="none" points="-4,4 -4,-84 306,-84 306,4 -4,4"/>
<!-- Node1 -->
<g id="node1" class="node"><title>Node1</title>
<polygon fill="#bfbfbf" stroke="black" points="0,-24.5 0,-54.5 128,-54.5 128,-24.5 0,-24.5"/>
<text text-anchor="start" x="8" y="-42.5" font-family="Helvetica,sans-Serif" font-size="10.00">Common::HelperMethods</text>
<text text-anchor="middle" x="64" y="-31.5" font-family="Helvetica,sans-Serif" font-size="10.00">::getHostName</text>
</g>
<!-- Node2 -->
<g id="node2" class="node"><title>Node2</title>
<g id="a_node2"><a xlink:href="structCommon_1_1HelperMethods_1_1InterfaceInfo.html#a8c5c5047166942a2738869d416921d38" target="_top" xlink:title="Common::HelperMethods\l::InterfaceInfo::InterfaceInfo">
<polygon fill="white" stroke="black" points="164,-49.5 164,-79.5 302,-79.5 302,-49.5 164,-49.5"/>
<text text-anchor="start" x="172" y="-67.5" font-family="Helvetica,sans-Serif" font-size="10.00">Common::HelperMethods</text>
<text text-anchor="middle" x="233" y="-56.5" font-family="Helvetica,sans-Serif" font-size="10.00">::InterfaceInfo::InterfaceInfo</text>
</a>
</g>
</g>
<!-- Node1&#45;&gt;Node2 -->
<g id="edge1" class="edge"><title>Node1&#45;&gt;Node2</title>
<path fill="none" stroke="midnightblue" d="M138.067,-50.4381C146.603,-51.716 155.287,-53.0161 163.755,-54.2836"/>
<polygon fill="midnightblue" stroke="midnightblue" points="138.544,-46.9706 128.136,-48.9514 137.507,-53.8935 138.544,-46.9706"/>
</g>
<!-- Node3 -->
<g id="node3" class="node"><title>Node3</title>
<g id="a_node3"><a xlink:href="classTestHandler_1_1MainObject.html#a1b2a3535f89c9101a7815629cefd6ffb" target="_top" xlink:title="TestHandler::MainObject\l::MainObject">
<polygon fill="white" stroke="black" points="170.5,-0.5 170.5,-30.5 295.5,-30.5 295.5,-0.5 170.5,-0.5"/>
<text text-anchor="start" x="178.5" y="-18.5" font-family="Helvetica,sans-Serif" font-size="10.00">TestHandler::MainObject</text>
<text text-anchor="middle" x="233" y="-7.5" font-family="Helvetica,sans-Serif" font-size="10.00">::MainObject</text>
</a>
</g>
</g>
<!-- Node1&#45;&gt;Node3 -->
<g id="edge2" class="edge"><title>Node1&#45;&gt;Node3</title>
<path fill="none" stroke="midnightblue" d="M138.319,-28.9632C149.037,-27.4228 159.982,-25.8498 170.434,-24.3478"/>
<polygon fill="midnightblue" stroke="midnightblue" points="137.536,-25.5396 128.136,-30.4266 138.532,-32.4684 137.536,-25.5396"/>
</g>
</g>
</svg>
