<?xml version="1.0" encoding="UTF-8" standalone="no"?>
<!DOCTYPE svg PUBLIC "-//W3C//DTD SVG 1.1//EN"
 "http://www.w3.org/Graphics/SVG/1.1/DTD/svg11.dtd">
<!-- Generated by graphviz version 2.38.0 (20140413.2041)
 -->
<!-- Title: Common::LoggingHandler::log Pages: 1 -->
<svg width="449pt" height="186pt"
 viewBox="0.00 0.00 449.00 186.00" xmlns="http://www.w3.org/2000/svg" xmlns:xlink="http://www.w3.org/1999/xlink">
<g id="graph0" class="graph" transform="scale(1 1) rotate(0) translate(4 182)">
<title>Common::LoggingHandler::log</title>
<polygon fill="white" stroke="none" points="-4,4 -4,-182 445,-182 445,4 -4,4"/>
<!-- Node1 -->
<g id="node1" class="node"><title>Node1</title>
<polygon fill="#bfbfbf" stroke="black" points="0,-79 0,-98 149,-98 149,-79 0,-79"/>
<text text-anchor="middle" x="74.5" y="-86" font-family="Helvetica,sans-Serif" font-size="10.00">Common::LoggingHandler::log</text>
</g>
<!-- Node2 -->
<g id="node2" class="node"><title>Node2</title>
<g id="a_node2"><a xlink:href="classWCEnabler_1_1BandwidthCalculator.html#a1cc0aea727b0b795ece19fa18bb71c67" target="_top" xlink:title="BandwidthCalculator constructor. ">
<polygon fill="white" stroke="black" points="194.5,-147.5 194.5,-177.5 357.5,-177.5 357.5,-147.5 194.5,-147.5"/>
<text text-anchor="start" x="202.5" y="-165.5" font-family="Helvetica,sans-Serif" font-size="10.00">WCEnabler::BandwidthCalculator</text>
<text text-anchor="middle" x="276" y="-154.5" font-family="Helvetica,sans-Serif" font-size="10.00">::BandwidthCalculator</text>
</a>
</g>
</g>
<!-- Node1&#45;&gt;Node2 -->
<g id="edge1" class="edge"><title>Node1&#45;&gt;Node2</title>
<path fill="none" stroke="midnightblue" d="M103.107,-102.672C124.932,-113.489 156.384,-128.233 185,-138.5 193.98,-141.722 203.602,-144.734 213.092,-147.461"/>
<polygon fill="midnightblue" stroke="midnightblue" points="104.599,-99.5045 94.0905,-98.1543 101.463,-105.763 104.599,-99.5045"/>
</g>
<!-- Node3 -->
<g id="node3" class="node"><title>Node3</title>
<g id="a_node3"><a xlink:href="classWCEnabler_1_1BandwidthCalculator.html#a4e8c950180195dbae46ef4c76b94c078" target="_top" xlink:title="WCEnabler::BandwidthCalculator\l::~BandwidthCalculator">
<polygon fill="white" stroke="black" points="194.5,-98.5 194.5,-128.5 357.5,-128.5 357.5,-98.5 194.5,-98.5"/>
<text text-anchor="start" x="202.5" y="-116.5" font-family="Helvetica,sans-Serif" font-size="10.00">WCEnabler::BandwidthCalculator</text>
<text text-anchor="middle" x="276" y="-105.5" font-family="Helvetica,sans-Serif" font-size="10.00">::~BandwidthCalculator</text>
</a>
</g>
</g>
<!-- Node1&#45;&gt;Node3 -->
<g id="edge2" class="edge"><title>Node1&#45;&gt;Node3</title>
<path fill="none" stroke="midnightblue" d="M159.286,-98.9995C170.845,-100.448 182.698,-101.933 194.202,-103.375"/>
<polygon fill="midnightblue" stroke="midnightblue" points="159.577,-95.5087 149.22,-97.738 158.707,-102.454 159.577,-95.5087"/>
</g>
<!-- Node4 -->
<g id="node4" class="node"><title>Node4</title>
<g id="a_node4"><a xlink:href="classWCEnabler_1_1BandwidthCommunicator.html#a8f28fae785efe83e3b3661b6655b4154" target="_top" xlink:title="WCEnabler::BandwidthCommunicator\l::~BandwidthCommunicator">
<polygon fill="white" stroke="black" points="185,-49.5 185,-79.5 367,-79.5 367,-49.5 185,-49.5"/>
<text text-anchor="start" x="193" y="-67.5" font-family="Helvetica,sans-Serif" font-size="10.00">WCEnabler::BandwidthCommunicator</text>
<text text-anchor="middle" x="276" y="-56.5" font-family="Helvetica,sans-Serif" font-size="10.00">::~BandwidthCommunicator</text>
</a>
</g>
</g>
<!-- Node1&#45;&gt;Node4 -->
<g id="edge3" class="edge"><title>Node1&#45;&gt;Node4</title>
<path fill="none" stroke="midnightblue" d="M159.339,-78.4141C167.711,-77.4069 176.236,-76.3813 184.671,-75.3666"/>
<polygon fill="midnightblue" stroke="midnightblue" points="158.73,-74.962 149.22,-79.6315 159.566,-81.9119 158.73,-74.962"/>
</g>
<!-- Node5 -->
<g id="node5" class="node"><title>Node5</title>
<g id="a_node5"><a xlink:href="classHandleHostBandwidth.html#a9c046a8b63e42ab6aece3e798bc497ad" target="_top" xlink:title="printBandwidths prints VM&#39;s bandwidth to the terminal ">
<polygon fill="white" stroke="black" points="219,-0.5 219,-30.5 333,-30.5 333,-0.5 219,-0.5"/>
<text text-anchor="start" x="227" y="-18.5" font-family="Helvetica,sans-Serif" font-size="10.00">HandleHostBandwidth</text>
<text text-anchor="middle" x="276" y="-7.5" font-family="Helvetica,sans-Serif" font-size="10.00">::logBandwidths</text>
</a>
</g>
</g>
<!-- Node1&#45;&gt;Node5 -->
<g id="edge4" class="edge"><title>Node1&#45;&gt;Node5</title>
<path fill="none" stroke="midnightblue" d="M103.992,-74.6755C125.832,-64.4074 156.894,-50.5064 185,-40.5 195.847,-36.6382 207.6,-32.9955 218.922,-29.7474"/>
<polygon fill="midnightblue" stroke="midnightblue" points="102.475,-71.5212 94.9412,-78.9709 105.476,-77.8451 102.475,-71.5212"/>
</g>
<!-- Node6 -->
<g id="node6" class="node"><title>Node6</title>
<g id="a_node6"><a xlink:href="BGAdaptor_2main_8cpp.html#a0ddf1224851353fc92bfbff6f499fa97" target="_top" xlink:title="main">
<polygon fill="white" stroke="black" points="403,-6 403,-25 441,-25 441,-6 403,-6"/>
<text text-anchor="middle" x="422" y="-13" font-family="Helvetica,sans-Serif" font-size="10.00">main</text>
</a>
</g>
</g>
<!-- Node5&#45;&gt;Node6 -->
<g id="edge5" class="edge"><title>Node5&#45;&gt;Node6</title>
<path fill="none" stroke="midnightblue" d="M343.374,-15.5C365.203,-15.5 387.726,-15.5 402.851,-15.5"/>
<polygon fill="midnightblue" stroke="midnightblue" points="343.087,-12.0001 333.086,-15.5 343.086,-19.0001 343.087,-12.0001"/>
</g>
</g>
</svg>
