<?xml version="1.0" encoding="UTF-8" standalone="no"?>
<!DOCTYPE svg PUBLIC "-//W3C//DTD SVG 1.1//EN"
 "http://www.w3.org/Graphics/SVG/1.1/DTD/svg11.dtd">
<!-- Generated by graphviz version 2.38.0 (20140413.2041)
 -->
<!-- Title: WCEnabler::WorkConservationFlowHandler::stateToString Pages: 1 -->
<svg width="371pt" height="137pt"
 viewBox="0.00 0.00 371.00 137.00" xmlns="http://www.w3.org/2000/svg" xmlns:xlink="http://www.w3.org/1999/xlink">
<g id="graph0" class="graph" transform="scale(1 1) rotate(0) translate(4 133)">
<title>WCEnabler::WorkConservationFlowHandler::stateToString</title>
<polygon fill="white" stroke="none" points="-4,4 -4,-133 367,-133 367,4 -4,4"/>
<!-- Node1 -->
<g id="node1" class="node"><title>Node1</title>
<polygon fill="#bfbfbf" stroke="black" points="0,-49.5 0,-79.5 154,-79.5 154,-49.5 0,-49.5"/>
<text text-anchor="start" x="8" y="-67.5" font-family="Helvetica,sans-Serif" font-size="10.00">WCEnabler::WorkConservation</text>
<text text-anchor="middle" x="77" y="-56.5" font-family="Helvetica,sans-Serif" font-size="10.00">FlowHandler::stateToString</text>
</g>
<!-- Node2 -->
<g id="node2" class="node"><title>Node2</title>
<g id="a_node2"><a xlink:href="classCommon_1_1Math_1_1ExponentialSmoothingCalculator.html#a6cac576f776741fe1a3121b3c56ff273" target="_top" xlink:title="rate getter ">
<polygon fill="white" stroke="black" points="206,-98.5 206,-128.5 347,-128.5 347,-98.5 206,-98.5"/>
<text text-anchor="start" x="214" y="-116.5" font-family="Helvetica,sans-Serif" font-size="10.00">Common::Math::Exponential</text>
<text text-anchor="middle" x="276.5" y="-105.5" font-family="Helvetica,sans-Serif" font-size="10.00">SmoothingCalculator::rate</text>
</a>
</g>
</g>
<!-- Node1&#45;&gt;Node2 -->
<g id="edge1" class="edge"><title>Node1&#45;&gt;Node2</title>
<path fill="none" stroke="midnightblue" d="M138.599,-79.5346C159.642,-84.7554 183.416,-90.6537 205.176,-96.0526"/>
<polygon fill="midnightblue" stroke="midnightblue" points="204.467,-99.4827 215.016,-98.4938 206.153,-92.6887 204.467,-99.4827"/>
</g>
<!-- Node3 -->
<g id="node3" class="node"><title>Node3</title>
<g id="a_node3"><a xlink:href="classWCEnabler_1_1WorkConservationFlowHandler.html#a61d235135353ecb317ca03b2e646f248" target="_top" xlink:title="currentState getter ">
<polygon fill="white" stroke="black" points="199.5,-49.5 199.5,-79.5 353.5,-79.5 353.5,-49.5 199.5,-49.5"/>
<text text-anchor="start" x="207.5" y="-67.5" font-family="Helvetica,sans-Serif" font-size="10.00">WCEnabler::WorkConservation</text>
<text text-anchor="middle" x="276.5" y="-56.5" font-family="Helvetica,sans-Serif" font-size="10.00">FlowHandler::currentState</text>
</a>
</g>
</g>
<!-- Node1&#45;&gt;Node3 -->
<g id="edge2" class="edge"><title>Node1&#45;&gt;Node3</title>
<path fill="none" stroke="midnightblue" d="M154.076,-64.5C165.59,-64.5 177.539,-64.5 189.25,-64.5"/>
<polygon fill="midnightblue" stroke="midnightblue" points="189.463,-68.0001 199.463,-64.5 189.463,-61.0001 189.463,-68.0001"/>
</g>
<!-- Node4 -->
<g id="node4" class="node"><title>Node4</title>
<g id="a_node4"><a xlink:href="classCommon_1_1Math_1_1ExponentialSmoothingCalculator.html#a32a58acc5284f9957ac36a6086a9bb02" target="_top" xlink:title="calculateRate calculates the rate and returns it ">
<polygon fill="white" stroke="black" points="190,-0.5 190,-30.5 363,-30.5 363,-0.5 190,-0.5"/>
<text text-anchor="start" x="198" y="-18.5" font-family="Helvetica,sans-Serif" font-size="10.00">Common::Math::Exponential</text>
<text text-anchor="middle" x="276.5" y="-7.5" font-family="Helvetica,sans-Serif" font-size="10.00">SmoothingCalculator::calculateRate</text>
</a>
</g>
</g>
<!-- Node1&#45;&gt;Node4 -->
<g id="edge3" class="edge"><title>Node1&#45;&gt;Node4</title>
<path fill="none" stroke="midnightblue" d="M138.599,-49.4654C159.642,-44.2446 183.416,-38.3463 205.176,-32.9474"/>
<polygon fill="midnightblue" stroke="midnightblue" points="206.153,-36.3113 215.016,-30.5062 204.467,-29.5173 206.153,-36.3113"/>
</g>
</g>
</svg>
