<?xml version="1.0" encoding="UTF-8" standalone="no"?>
<!DOCTYPE svg PUBLIC "-//W3C//DTD SVG 1.1//EN"
 "http://www.w3.org/Graphics/SVG/1.1/DTD/svg11.dtd">
<!-- Generated by graphviz version 2.38.0 (20140413.2041)
 -->
<!-- Title: ClientServerTest.cpp Pages: 1 -->
<svg width="466pt" height="252pt"
 viewBox="0.00 0.00 465.50 252.00" xmlns="http://www.w3.org/2000/svg" xmlns:xlink="http://www.w3.org/1999/xlink">
<g id="graph0" class="graph" transform="scale(1 1) rotate(0) translate(4 248)">
<title>ClientServerTest.cpp</title>
<polygon fill="white" stroke="none" points="-4,4 -4,-248 461.5,-248 461.5,4 -4,4"/>
<!-- Node1 -->
<g id="node1" class="node"><title>Node1</title>
<polygon fill="#bfbfbf" stroke="black" points="181.5,-224.5 181.5,-243.5 290.5,-243.5 290.5,-224.5 181.5,-224.5"/>
<text text-anchor="middle" x="236" y="-231.5" font-family="Helvetica,sans-Serif" font-size="10.00">ClientServerTest.cpp</text>
</g>
<!-- Node2 -->
<g id="node2" class="node"><title>Node2</title>
<g id="a_node2"><a xlink:href="ClientServerTest_8h.html" target="_top" xlink:title="ClientServerTest.h">
<polygon fill="white" stroke="black" points="54,-168.5 54,-187.5 152,-187.5 152,-168.5 54,-168.5"/>
<text text-anchor="middle" x="103" y="-175.5" font-family="Helvetica,sans-Serif" font-size="10.00">ClientServerTest.h</text>
</a>
</g>
</g>
<!-- Node1&#45;&gt;Node2 -->
<g id="edge1" class="edge"><title>Node1&#45;&gt;Node2</title>
<path fill="none" stroke="midnightblue" d="M214.926,-224.444C192.94,-215.517 158.266,-201.439 133.336,-191.317"/>
<polygon fill="midnightblue" stroke="midnightblue" points="134.558,-188.035 123.976,-187.516 131.924,-194.521 134.558,-188.035"/>
</g>
<!-- Node9 -->
<g id="node9" class="node"><title>Node9</title>
<polygon fill="white" stroke="#bfbfbf" points="169.5,-168.5 169.5,-187.5 220.5,-187.5 220.5,-168.5 169.5,-168.5"/>
<text text-anchor="middle" x="195" y="-175.5" font-family="Helvetica,sans-Serif" font-size="10.00">unistd.h</text>
</g>
<!-- Node1&#45;&gt;Node9 -->
<g id="edge8" class="edge"><title>Node1&#45;&gt;Node9</title>
<path fill="none" stroke="midnightblue" d="M229.23,-224.083C223.438,-216.455 214.942,-205.264 207.862,-195.941"/>
<polygon fill="midnightblue" stroke="midnightblue" points="210.479,-193.599 201.644,-187.751 204.904,-197.832 210.479,-193.599"/>
</g>
<!-- Node10 -->
<g id="node10" class="node"><title>Node10</title>
<g id="a_node10"><a xlink:href="PrintHandler_8h.html" target="_top" xlink:title="PrintHandler.h">
<polygon fill="white" stroke="black" points="238.5,-168.5 238.5,-187.5 317.5,-187.5 317.5,-168.5 238.5,-168.5"/>
<text text-anchor="middle" x="278" y="-175.5" font-family="Helvetica,sans-Serif" font-size="10.00">PrintHandler.h</text>
</a>
</g>
</g>
<!-- Node1&#45;&gt;Node10 -->
<g id="edge9" class="edge"><title>Node1&#45;&gt;Node10</title>
<path fill="none" stroke="midnightblue" d="M242.935,-224.083C248.929,-216.377 257.752,-205.033 265.048,-195.653"/>
<polygon fill="midnightblue" stroke="midnightblue" points="267.817,-197.793 271.194,-187.751 262.291,-193.496 267.817,-197.793"/>
</g>
<!-- Node12 -->
<g id="node12" class="node"><title>Node12</title>
<g id="a_node12"><a xlink:href="ThreadHelper_8h.html" target="_top" xlink:title="ThreadHelper.h">
<polygon fill="white" stroke="black" points="335.5,-168.5 335.5,-187.5 418.5,-187.5 418.5,-168.5 335.5,-168.5"/>
<text text-anchor="middle" x="377" y="-175.5" font-family="Helvetica,sans-Serif" font-size="10.00">ThreadHelper.h</text>
</a>
</g>
</g>
<!-- Node1&#45;&gt;Node12 -->
<g id="edge11" class="edge"><title>Node1&#45;&gt;Node12</title>
<path fill="none" stroke="midnightblue" d="M258.342,-224.444C281.753,-215.478 318.736,-201.314 345.19,-191.183"/>
<polygon fill="midnightblue" stroke="midnightblue" points="346.676,-194.361 354.763,-187.516 344.172,-187.824 346.676,-194.361"/>
</g>
<!-- Node3 -->
<g id="node3" class="node"><title>Node3</title>
<g id="a_node3"><a xlink:href="TestBaseClass_8h.html" target="_top" xlink:title="TestBaseClass.h">
<polygon fill="white" stroke="black" points="12,-112.5 12,-131.5 104,-131.5 104,-112.5 12,-112.5"/>
<text text-anchor="middle" x="58" y="-119.5" font-family="Helvetica,sans-Serif" font-size="10.00">TestBaseClass.h</text>
</a>
</g>
</g>
<!-- Node2&#45;&gt;Node3 -->
<g id="edge2" class="edge"><title>Node2&#45;&gt;Node3</title>
<path fill="none" stroke="midnightblue" d="M95.5692,-168.083C89.1473,-160.377 79.6944,-149.033 71.8775,-139.653"/>
<polygon fill="midnightblue" stroke="midnightblue" points="74.3832,-137.193 65.2926,-131.751 69.0057,-141.674 74.3832,-137.193"/>
</g>
<!-- Node8 -->
<g id="node8" class="node"><title>Node8</title>
<polygon fill="white" stroke="#bfbfbf" points="122,-112.5 122,-131.5 176,-131.5 176,-112.5 122,-112.5"/>
<text text-anchor="middle" x="149" y="-119.5" font-family="Helvetica,sans-Serif" font-size="10.00">iostream</text>
</g>
<!-- Node2&#45;&gt;Node8 -->
<g id="edge7" class="edge"><title>Node2&#45;&gt;Node8</title>
<path fill="none" stroke="midnightblue" d="M110.596,-168.083C117.227,-160.298 127.021,-148.801 135.058,-139.367"/>
<polygon fill="midnightblue" stroke="midnightblue" points="137.725,-141.633 141.545,-131.751 132.396,-137.094 137.725,-141.633"/>
</g>
<!-- Node4 -->
<g id="node4" class="node"><title>Node4</title>
<polygon fill="white" stroke="#bfbfbf" points="0,-56.5 0,-75.5 44,-75.5 44,-56.5 0,-56.5"/>
<text text-anchor="middle" x="22" y="-63.5" font-family="Helvetica,sans-Serif" font-size="10.00">vector</text>
</g>
<!-- Node3&#45;&gt;Node4 -->
<g id="edge3" class="edge"><title>Node3&#45;&gt;Node4</title>
<path fill="none" stroke="midnightblue" d="M52.0553,-112.083C47.0227,-104.534 39.6632,-93.4948 33.4865,-84.2298"/>
<polygon fill="midnightblue" stroke="midnightblue" points="36.2933,-82.1301 27.8341,-75.7511 30.4689,-86.0131 36.2933,-82.1301"/>
</g>
<!-- Node5 -->
<g id="node5" class="node"><title>Node5</title>
<g id="a_node5"><a xlink:href="TestData_8h.html" target="_top" xlink:title="TestData.h">
<polygon fill="white" stroke="black" points="62.5,-56.5 62.5,-75.5 127.5,-75.5 127.5,-56.5 62.5,-56.5"/>
<text text-anchor="middle" x="95" y="-63.5" font-family="Helvetica,sans-Serif" font-size="10.00">TestData.h</text>
</a>
</g>
</g>
<!-- Node3&#45;&gt;Node5 -->
<g id="edge4" class="edge"><title>Node3&#45;&gt;Node5</title>
<path fill="none" stroke="midnightblue" d="M64.1098,-112.083C69.2822,-104.534 76.8461,-93.4948 83.1944,-84.2298"/>
<polygon fill="midnightblue" stroke="midnightblue" points="86.2388,-85.9787 89.0039,-75.7511 80.4643,-82.0221 86.2388,-85.9787"/>
</g>
<!-- Node6 -->
<g id="node6" class="node"><title>Node6</title>
<polygon fill="white" stroke="#bfbfbf" points="42.5,-0.5 42.5,-19.5 83.5,-19.5 83.5,-0.5 42.5,-0.5"/>
<text text-anchor="middle" x="63" y="-7.5" font-family="Helvetica,sans-Serif" font-size="10.00">string</text>
</g>
<!-- Node5&#45;&gt;Node6 -->
<g id="edge5" class="edge"><title>Node5&#45;&gt;Node6</title>
<path fill="none" stroke="midnightblue" d="M89.7159,-56.083C85.289,-48.6127 78.8367,-37.7244 73.3821,-28.5199"/>
<polygon fill="midnightblue" stroke="midnightblue" points="76.2949,-26.5697 68.1858,-19.7511 70.2729,-30.1383 76.2949,-26.5697"/>
</g>
<!-- Node7 -->
<g id="node7" class="node"><title>Node7</title>
<polygon fill="white" stroke="#bfbfbf" points="101.5,-0.5 101.5,-19.5 150.5,-19.5 150.5,-0.5 101.5,-0.5"/>
<text text-anchor="middle" x="126" y="-7.5" font-family="Helvetica,sans-Serif" font-size="10.00">string.h</text>
</g>
<!-- Node5&#45;&gt;Node7 -->
<g id="edge6" class="edge"><title>Node5&#45;&gt;Node7</title>
<path fill="none" stroke="midnightblue" d="M100.119,-56.083C104.408,-48.6127 110.658,-37.7244 115.942,-28.5199"/>
<polygon fill="midnightblue" stroke="midnightblue" points="119.033,-30.1662 120.976,-19.7511 112.962,-26.6811 119.033,-30.1662"/>
</g>
<!-- Node11 -->
<g id="node11" class="node"><title>Node11</title>
<polygon fill="white" stroke="#bfbfbf" points="255,-112.5 255,-131.5 301,-131.5 301,-112.5 255,-112.5"/>
<text text-anchor="middle" x="278" y="-119.5" font-family="Helvetica,sans-Serif" font-size="10.00">stdio.h</text>
</g>
<!-- Node10&#45;&gt;Node11 -->
<g id="edge10" class="edge"><title>Node10&#45;&gt;Node11</title>
<path fill="none" stroke="midnightblue" d="M278,-168.083C278,-161.006 278,-150.861 278,-141.986"/>
<polygon fill="midnightblue" stroke="midnightblue" points="281.5,-141.751 278,-131.751 274.5,-141.751 281.5,-141.751"/>
</g>
<!-- Node13 -->
<g id="node13" class="node"><title>Node13</title>
<polygon fill="white" stroke="#bfbfbf" points="336,-112.5 336,-131.5 382,-131.5 382,-112.5 336,-112.5"/>
<text text-anchor="middle" x="359" y="-119.5" font-family="Helvetica,sans-Serif" font-size="10.00">atomic</text>
</g>
<!-- Node12&#45;&gt;Node13 -->
<g id="edge12" class="edge"><title>Node12&#45;&gt;Node13</title>
<path fill="none" stroke="midnightblue" d="M374.028,-168.083C371.616,-160.849 368.136,-150.409 365.132,-141.397"/>
<polygon fill="midnightblue" stroke="midnightblue" points="368.4,-140.131 361.917,-131.751 361.759,-142.345 368.4,-140.131"/>
</g>
<!-- Node14 -->
<g id="node14" class="node"><title>Node14</title>
<polygon fill="white" stroke="#bfbfbf" points="400.5,-112.5 400.5,-131.5 457.5,-131.5 457.5,-112.5 400.5,-112.5"/>
<text text-anchor="middle" x="429" y="-119.5" font-family="Helvetica,sans-Serif" font-size="10.00">pthread.h</text>
</g>
<!-- Node12&#45;&gt;Node14 -->
<g id="edge13" class="edge"><title>Node12&#45;&gt;Node14</title>
<path fill="none" stroke="midnightblue" d="M385.587,-168.083C393.159,-160.22 404.378,-148.569 413.514,-139.081"/>
<polygon fill="midnightblue" stroke="midnightblue" points="416.158,-141.382 420.573,-131.751 411.115,-136.527 416.158,-141.382"/>
</g>
</g>
</svg>
