<?xml version="1.0" encoding="UTF-8" standalone="no"?>
<!DOCTYPE svg PUBLIC "-//W3C//DTD SVG 1.1//EN"
 "http://www.w3.org/Graphics/SVG/1.1/DTD/svg11.dtd">
<!-- Generated by graphviz version 2.38.0 (20140413.2041)
 -->
<!-- Title: CommandLineArgumentParser.cpp Pages: 1 -->
<svg width="683pt" height="252pt"
 viewBox="0.00 0.00 682.66 252.00" xmlns="http://www.w3.org/2000/svg" xmlns:xlink="http://www.w3.org/1999/xlink">
<g id="graph0" class="graph" transform="scale(1 1) rotate(0) translate(4 248)">
<title>CommandLineArgumentParser.cpp</title>
<polygon fill="white" stroke="none" points="-4,4 -4,-248 678.658,-248 678.658,4 -4,4"/>
<!-- Node1 -->
<g id="node1" class="node"><title>Node1</title>
<polygon fill="#bfbfbf" stroke="black" points="328.658,-224.5 328.658,-243.5 497.658,-243.5 497.658,-224.5 328.658,-224.5"/>
<text text-anchor="middle" x="413.158" y="-231.5" font-family="Helvetica,sans-Serif" font-size="10.00">CommandLineArgumentParser.cpp</text>
</g>
<!-- Node2 -->
<g id="node2" class="node"><title>Node2</title>
<g id="a_node2"><a xlink:href="CommandLineArgumentParser_8h.html" target="_top" xlink:title="CommandLineArgumentParser.h">
<polygon fill="white" stroke="black" points="29.1583,-112.5 29.1583,-131.5 187.158,-131.5 187.158,-112.5 29.1583,-112.5"/>
<text text-anchor="middle" x="108.158" y="-119.5" font-family="Helvetica,sans-Serif" font-size="10.00">CommandLineArgumentParser.h</text>
</a>
</g>
</g>
<!-- Node1&#45;&gt;Node2 -->
<g id="edge1" class="edge"><title>Node1&#45;&gt;Node2</title>
<path fill="none" stroke="midnightblue" d="M328.233,-229.553C215.258,-224.081 27.2332,-211.533 6.15827,-188 -15.2894,-164.05 25.4012,-145.498 61.5757,-134.454"/>
<polygon fill="midnightblue" stroke="midnightblue" points="62.9777,-137.691 71.6037,-131.54 61.0242,-130.969 62.9777,-137.691"/>
</g>
<!-- Node5 -->
<g id="node5" class="node"><title>Node5</title>
<polygon fill="white" stroke="#bfbfbf" points="525.158,-168.5 525.158,-187.5 577.158,-187.5 577.158,-168.5 525.158,-168.5"/>
<text text-anchor="middle" x="551.158" y="-175.5" font-family="Helvetica,sans-Serif" font-size="10.00">getopt.h</text>
</g>
<!-- Node1&#45;&gt;Node5 -->
<g id="edge4" class="edge"><title>Node1&#45;&gt;Node5</title>
<path fill="none" stroke="midnightblue" d="M435.025,-224.444C457.938,-215.478 494.134,-201.314 520.025,-191.183"/>
<polygon fill="midnightblue" stroke="midnightblue" points="521.357,-194.42 529.394,-187.516 518.806,-187.901 521.357,-194.42"/>
</g>
<!-- Node6 -->
<g id="node6" class="node"><title>Node6</title>
<polygon fill="white" stroke="#bfbfbf" points="315.658,-0.5 315.658,-19.5 364.658,-19.5 364.658,-0.5 315.658,-0.5"/>
<text text-anchor="middle" x="340.158" y="-7.5" font-family="Helvetica,sans-Serif" font-size="10.00">string.h</text>
</g>
<!-- Node1&#45;&gt;Node6 -->
<g id="edge5" class="edge"><title>Node1&#45;&gt;Node6</title>
<path fill="none" stroke="midnightblue" d="M425.656,-224.302C436.033,-216.251 450.046,-203.245 456.158,-188 459.466,-179.75 458.138,-176.666 456.158,-168 442.211,-106.958 387.973,-52.2477 358.867,-26.5257"/>
<polygon fill="midnightblue" stroke="midnightblue" points="360.903,-23.6598 351.045,-19.7776 356.33,-28.96 360.903,-23.6598"/>
</g>
<!-- Node7 -->
<g id="node7" class="node"><title>Node7</title>
<g id="a_node7"><a xlink:href="PrintHandler_8h.html" target="_top" xlink:title="PrintHandler.h">
<polygon fill="white" stroke="black" points="595.658,-168.5 595.658,-187.5 674.658,-187.5 674.658,-168.5 595.658,-168.5"/>
<text text-anchor="middle" x="635.158" y="-175.5" font-family="Helvetica,sans-Serif" font-size="10.00">PrintHandler.h</text>
</a>
</g>
</g>
<!-- Node1&#45;&gt;Node7 -->
<g id="edge6" class="edge"><title>Node1&#45;&gt;Node7</title>
<path fill="none" stroke="midnightblue" d="M448.335,-224.444C486.737,-215.102 548.334,-200.119 590.213,-189.933"/>
<polygon fill="midnightblue" stroke="midnightblue" points="591.257,-193.281 600.146,-187.516 589.602,-186.479 591.257,-193.281"/>
</g>
<!-- Node9 -->
<g id="node9" class="node"><title>Node9</title>
<g id="a_node9"><a xlink:href="TestData_8h.html" target="_top" xlink:title="TestData.h">
<polygon fill="white" stroke="black" points="257.658,-56.5 257.658,-75.5 322.658,-75.5 322.658,-56.5 257.658,-56.5"/>
<text text-anchor="middle" x="290.158" y="-63.5" font-family="Helvetica,sans-Serif" font-size="10.00">TestData.h</text>
</a>
</g>
</g>
<!-- Node1&#45;&gt;Node9 -->
<g id="edge8" class="edge"><title>Node1&#45;&gt;Node9</title>
<path fill="none" stroke="midnightblue" d="M420.31,-224.364C426.931,-215.763 436.316,-201.873 440.158,-188 450.135,-151.981 433.038,-135.725 404.158,-112 383.463,-94.999 355.558,-83.8372 332.537,-76.8827"/>
<polygon fill="midnightblue" stroke="midnightblue" points="333.254,-73.4475 322.677,-74.0664 331.331,-80.1783 333.254,-73.4475"/>
</g>
<!-- Node10 -->
<g id="node10" class="node"><title>Node10</title>
<g id="a_node10"><a xlink:href="ClientServerTest_8h.html" target="_top" xlink:title="Tests/ClientServerTest.h">
<polygon fill="white" stroke="black" points="305.158,-168.5 305.158,-187.5 431.158,-187.5 431.158,-168.5 305.158,-168.5"/>
<text text-anchor="middle" x="368.158" y="-175.5" font-family="Helvetica,sans-Serif" font-size="10.00">Tests/ClientServerTest.h</text>
</a>
</g>
</g>
<!-- Node1&#45;&gt;Node10 -->
<g id="edge11" class="edge"><title>Node1&#45;&gt;Node10</title>
<path fill="none" stroke="midnightblue" d="M405.727,-224.083C399.306,-216.377 389.853,-205.033 382.036,-195.653"/>
<polygon fill="midnightblue" stroke="midnightblue" points="384.541,-193.193 375.451,-187.751 379.164,-197.674 384.541,-193.193"/>
</g>
<!-- Node13 -->
<g id="node13" class="node"><title>Node13</title>
<g id="a_node13"><a xlink:href="SingleClientTest_8h.html" target="_top" xlink:title="Tests/SingleClientTest.h">
<polygon fill="white" stroke="black" points="161.658,-168.5 161.658,-187.5 286.658,-187.5 286.658,-168.5 161.658,-168.5"/>
<text text-anchor="middle" x="224.158" y="-175.5" font-family="Helvetica,sans-Serif" font-size="10.00">Tests/SingleClientTest.h</text>
</a>
</g>
</g>
<!-- Node1&#45;&gt;Node13 -->
<g id="edge16" class="edge"><title>Node1&#45;&gt;Node13</title>
<path fill="none" stroke="midnightblue" d="M383.211,-224.444C351,-215.241 299.624,-200.562 264.016,-190.388"/>
<polygon fill="midnightblue" stroke="midnightblue" points="264.543,-186.898 253.966,-187.516 262.619,-193.629 264.543,-186.898"/>
</g>
<!-- Node14 -->
<g id="node14" class="node"><title>Node14</title>
<g id="a_node14"><a xlink:href="SingleServerTest_8h.html" target="_top" xlink:title="Tests/SingleServerTest.h">
<polygon fill="white" stroke="black" points="15.1583,-168.5 15.1583,-187.5 143.158,-187.5 143.158,-168.5 15.1583,-168.5"/>
<text text-anchor="middle" x="79.1583" y="-175.5" font-family="Helvetica,sans-Serif" font-size="10.00">Tests/SingleServerTest.h</text>
</a>
</g>
</g>
<!-- Node1&#45;&gt;Node14 -->
<g id="edge18" class="edge"><title>Node1&#45;&gt;Node14</title>
<path fill="none" stroke="midnightblue" d="M360.235,-224.444C300.992,-214.865 205.061,-199.356 142.041,-189.167"/>
<polygon fill="midnightblue" stroke="midnightblue" points="142.264,-185.657 131.834,-187.516 141.147,-192.568 142.264,-185.657"/>
</g>
<!-- Node3 -->
<g id="node3" class="node"><title>Node3</title>
<polygon fill="white" stroke="#bfbfbf" points="219.658,-0.5 219.658,-19.5 260.658,-19.5 260.658,-0.5 219.658,-0.5"/>
<text text-anchor="middle" x="240.158" y="-7.5" font-family="Helvetica,sans-Serif" font-size="10.00">string</text>
</g>
<!-- Node2&#45;&gt;Node3 -->
<g id="edge2" class="edge"><title>Node2&#45;&gt;Node3</title>
<path fill="none" stroke="midnightblue" d="M117.409,-112.353C131.075,-99.6729 157.591,-75.4323 181.158,-56 193.831,-45.5507 208.515,-34.3476 220.064,-25.7335"/>
<polygon fill="midnightblue" stroke="midnightblue" points="222.248,-28.4717 228.199,-19.7063 218.081,-22.8472 222.248,-28.4717"/>
</g>
<!-- Node4 -->
<g id="node4" class="node"><title>Node4</title>
<polygon fill="white" stroke="#bfbfbf" points="190.158,-56.5 190.158,-75.5 234.158,-75.5 234.158,-56.5 190.158,-56.5"/>
<text text-anchor="middle" x="212.158" y="-63.5" font-family="Helvetica,sans-Serif" font-size="10.00">vector</text>
</g>
<!-- Node2&#45;&gt;Node4 -->
<g id="edge3" class="edge"><title>Node2&#45;&gt;Node4</title>
<path fill="none" stroke="midnightblue" d="M124.868,-112.324C141.47,-103.703 167.16,-90.3643 186.379,-80.3855"/>
<polygon fill="midnightblue" stroke="midnightblue" points="188.228,-83.3689 195.49,-75.6545 185.002,-77.1565 188.228,-83.3689"/>
</g>
<!-- Node8 -->
<g id="node8" class="node"><title>Node8</title>
<polygon fill="white" stroke="#bfbfbf" points="612.158,-112.5 612.158,-131.5 658.158,-131.5 658.158,-112.5 612.158,-112.5"/>
<text text-anchor="middle" x="635.158" y="-119.5" font-family="Helvetica,sans-Serif" font-size="10.00">stdio.h</text>
</g>
<!-- Node7&#45;&gt;Node8 -->
<g id="edge7" class="edge"><title>Node7&#45;&gt;Node8</title>
<path fill="none" stroke="midnightblue" d="M635.158,-168.083C635.158,-161.006 635.158,-150.861 635.158,-141.986"/>
<polygon fill="midnightblue" stroke="midnightblue" points="638.658,-141.751 635.158,-131.751 631.658,-141.751 638.658,-141.751"/>
</g>
<!-- Node9&#45;&gt;Node3 -->
<g id="edge9" class="edge"><title>Node9&#45;&gt;Node3</title>
<path fill="none" stroke="midnightblue" d="M281.902,-56.083C274.694,-48.2982 264.049,-36.8015 255.312,-27.3665"/>
<polygon fill="midnightblue" stroke="midnightblue" points="257.623,-24.7108 248.261,-19.7511 252.487,-29.4666 257.623,-24.7108"/>
</g>
<!-- Node9&#45;&gt;Node6 -->
<g id="edge10" class="edge"><title>Node9&#45;&gt;Node6</title>
<path fill="none" stroke="midnightblue" d="M298.415,-56.083C305.623,-48.2982 316.268,-36.8015 325.004,-27.3665"/>
<polygon fill="midnightblue" stroke="midnightblue" points="327.829,-29.4666 332.055,-19.7511 322.693,-24.7108 327.829,-29.4666"/>
</g>
<!-- Node11 -->
<g id="node11" class="node"><title>Node11</title>
<g id="a_node11"><a xlink:href="TestBaseClass_8h.html" target="_top" xlink:title="TestBaseClass.h">
<polygon fill="white" stroke="black" points="205.158,-112.5 205.158,-131.5 297.158,-131.5 297.158,-112.5 205.158,-112.5"/>
<text text-anchor="middle" x="251.158" y="-119.5" font-family="Helvetica,sans-Serif" font-size="10.00">TestBaseClass.h</text>
</a>
</g>
</g>
<!-- Node10&#45;&gt;Node11 -->
<g id="edge12" class="edge"><title>Node10&#45;&gt;Node11</title>
<path fill="none" stroke="midnightblue" d="M349.619,-168.444C330.535,-159.636 300.583,-145.812 278.723,-135.722"/>
<polygon fill="midnightblue" stroke="midnightblue" points="280.157,-132.529 269.611,-131.516 277.223,-138.885 280.157,-132.529"/>
</g>
<!-- Node12 -->
<g id="node12" class="node"><title>Node12</title>
<polygon fill="white" stroke="#bfbfbf" points="341.158,-112.5 341.158,-131.5 395.158,-131.5 395.158,-112.5 341.158,-112.5"/>
<text text-anchor="middle" x="368.158" y="-119.5" font-family="Helvetica,sans-Serif" font-size="10.00">iostream</text>
</g>
<!-- Node10&#45;&gt;Node12 -->
<g id="edge15" class="edge"><title>Node10&#45;&gt;Node12</title>
<path fill="none" stroke="midnightblue" d="M368.158,-168.083C368.158,-161.006 368.158,-150.861 368.158,-141.986"/>
<polygon fill="midnightblue" stroke="midnightblue" points="371.658,-141.751 368.158,-131.751 364.658,-141.751 371.658,-141.751"/>
</g>
<!-- Node11&#45;&gt;Node4 -->
<g id="edge13" class="edge"><title>Node11&#45;&gt;Node4</title>
<path fill="none" stroke="midnightblue" d="M244.718,-112.083C239.209,-104.455 231.127,-93.2645 224.393,-83.9408"/>
<polygon fill="midnightblue" stroke="midnightblue" points="227.171,-81.8087 218.478,-75.7511 221.496,-85.9071 227.171,-81.8087"/>
</g>
<!-- Node11&#45;&gt;Node9 -->
<g id="edge14" class="edge"><title>Node11&#45;&gt;Node9</title>
<path fill="none" stroke="midnightblue" d="M257.598,-112.083C263.107,-104.455 271.189,-93.2645 277.923,-83.9408"/>
<polygon fill="midnightblue" stroke="midnightblue" points="280.82,-85.9071 283.838,-75.7511 275.146,-81.8087 280.82,-85.9071"/>
</g>
<!-- Node13&#45;&gt;Node11 -->
<g id="edge17" class="edge"><title>Node13&#45;&gt;Node11</title>
<path fill="none" stroke="midnightblue" d="M228.617,-168.083C232.313,-160.691 237.682,-149.953 242.253,-140.811"/>
<polygon fill="midnightblue" stroke="midnightblue" points="245.441,-142.261 246.783,-131.751 239.18,-139.13 245.441,-142.261"/>
</g>
<!-- Node14&#45;&gt;Node11 -->
<g id="edge19" class="edge"><title>Node14&#45;&gt;Node11</title>
<path fill="none" stroke="midnightblue" d="M106.412,-168.444C135.599,-159.28 182.079,-144.688 214.468,-134.519"/>
<polygon fill="midnightblue" stroke="midnightblue" points="215.539,-137.851 224.032,-131.516 213.443,-131.173 215.539,-137.851"/>
</g>
</g>
</svg>
