<?xml version="1.0" encoding="UTF-8" standalone="no"?>
<!DOCTYPE svg PUBLIC "-//W3C//DTD SVG 1.1//EN"
 "http://www.w3.org/Graphics/SVG/1.1/DTD/svg11.dtd">
<!-- Generated by graphviz version 2.38.0 (20140413.2041)
 -->
<!-- Title: CommandLineArgumentParser.h Pages: 1 -->
<svg width="166pt" height="84pt"
 viewBox="0.00 0.00 166.00 84.00" xmlns="http://www.w3.org/2000/svg" xmlns:xlink="http://www.w3.org/1999/xlink">
<g id="graph0" class="graph" transform="scale(1 1) rotate(0) translate(4 80)">
<title>CommandLineArgumentParser.h</title>
<polygon fill="white" stroke="none" points="-4,4 -4,-80 162,-80 162,4 -4,4"/>
<!-- Node1 -->
<g id="node1" class="node"><title>Node1</title>
<polygon fill="#bfbfbf" stroke="black" points="-1.42109e-14,-56.5 -1.42109e-14,-75.5 158,-75.5 158,-56.5 -1.42109e-14,-56.5"/>
<text text-anchor="middle" x="79" y="-63.5" font-family="Helvetica,sans-Serif" font-size="10.00">CommandLineArgumentParser.h</text>
</g>
<!-- Node2 -->
<g id="node2" class="node"><title>Node2</title>
<polygon fill="white" stroke="#bfbfbf" points="28.5,-0.5 28.5,-19.5 69.5,-19.5 69.5,-0.5 28.5,-0.5"/>
<text text-anchor="middle" x="49" y="-7.5" font-family="Helvetica,sans-Serif" font-size="10.00">string</text>
</g>
<!-- Node1&#45;&gt;Node2 -->
<g id="edge1" class="edge"><title>Node1&#45;&gt;Node2</title>
<path fill="none" stroke="midnightblue" d="M74.0461,-56.083C69.8959,-48.6127 63.8469,-37.7244 58.7333,-28.5199"/>
<polygon fill="midnightblue" stroke="midnightblue" points="61.7777,-26.7929 53.8617,-19.7511 55.6586,-30.1924 61.7777,-26.7929"/>
</g>
<!-- Node3 -->
<g id="node3" class="node"><title>Node3</title>
<polygon fill="white" stroke="#bfbfbf" points="88,-0.5 88,-19.5 132,-19.5 132,-0.5 88,-0.5"/>
<text text-anchor="middle" x="110" y="-7.5" font-family="Helvetica,sans-Serif" font-size="10.00">vector</text>
</g>
<!-- Node1&#45;&gt;Node3 -->
<g id="edge2" class="edge"><title>Node1&#45;&gt;Node3</title>
<path fill="none" stroke="midnightblue" d="M84.119,-56.083C88.4075,-48.6127 94.6582,-37.7244 99.9423,-28.5199"/>
<polygon fill="midnightblue" stroke="midnightblue" points="103.033,-30.1662 104.976,-19.7511 96.9621,-26.6811 103.033,-30.1662"/>
</g>
</g>
</svg>
