<?xml version="1.0" encoding="UTF-8" standalone="no"?>
<!DOCTYPE svg PUBLIC "-//W3C//DTD SVG 1.1//EN"
 "http://www.w3.org/Graphics/SVG/1.1/DTD/svg11.dtd">
<!-- Generated by graphviz version 2.38.0 (20140413.2041)
 -->
<!-- Title: CommandLineArgumentParser.h Pages: 1 -->
<svg width="280pt" height="84pt"
 viewBox="0.00 0.00 280.00 84.00" xmlns="http://www.w3.org/2000/svg" xmlns:xlink="http://www.w3.org/1999/xlink">
<g id="graph0" class="graph" transform="scale(1 1) rotate(0) translate(4 80)">
<title>CommandLineArgumentParser.h</title>
<polygon fill="white" stroke="none" points="-4,4 -4,-80 276,-80 276,4 -4,4"/>
<!-- Node1 -->
<g id="node1" class="node"><title>Node1</title>
<polygon fill="#bfbfbf" stroke="black" points="77.5,-56.5 77.5,-75.5 235.5,-75.5 235.5,-56.5 77.5,-56.5"/>
<text text-anchor="middle" x="156.5" y="-63.5" font-family="Helvetica,sans-Serif" font-size="10.00">CommandLineArgumentParser.h</text>
</g>
<!-- Node2 -->
<g id="node2" class="node"><title>Node2</title>
<g id="a_node2"><a xlink:href="CommandLineArgumentParser_8cpp.html" target="_top" xlink:title="CommandLineArgumentParser.cpp">
<polygon fill="white" stroke="black" points="0,-0.5 0,-19.5 169,-19.5 169,-0.5 0,-0.5"/>
<text text-anchor="middle" x="84.5" y="-7.5" font-family="Helvetica,sans-Serif" font-size="10.00">CommandLineArgumentParser.cpp</text>
</a>
</g>
</g>
<!-- Node1&#45;&gt;Node2 -->
<g id="edge1" class="edge"><title>Node1&#45;&gt;Node2</title>
<path fill="none" stroke="midnightblue" d="M136.634,-50.1008C123.677,-40.3824 107.203,-28.0269 96.2785,-19.8339"/>
<polygon fill="midnightblue" stroke="midnightblue" points="134.832,-53.1239 144.932,-56.324 139.032,-47.5239 134.832,-53.1239"/>
</g>
<!-- Node3 -->
<g id="node3" class="node"><title>Node3</title>
<g id="a_node3"><a xlink:href="TestHandler_2MainObject_8cpp.html" target="_top" xlink:title="MainObject.cpp">
<polygon fill="white" stroke="black" points="187,-0.5 187,-19.5 272,-19.5 272,-0.5 187,-0.5"/>
<text text-anchor="middle" x="229.5" y="-7.5" font-family="Helvetica,sans-Serif" font-size="10.00">MainObject.cpp</text>
</a>
</g>
</g>
<!-- Node1&#45;&gt;Node3 -->
<g id="edge2" class="edge"><title>Node1&#45;&gt;Node3</title>
<path fill="none" stroke="midnightblue" d="M176.642,-50.1008C189.779,-40.3824 206.482,-28.0269 217.558,-19.8339"/>
<polygon fill="midnightblue" stroke="midnightblue" points="174.187,-47.5631 168.229,-56.324 178.35,-53.1907 174.187,-47.5631"/>
</g>
</g>
</svg>
