<?xml version="1.0" encoding="UTF-8" standalone="no"?>
<!DOCTYPE svg PUBLIC "-//W3C//DTD SVG 1.1//EN"
 "http://www.w3.org/Graphics/SVG/1.1/DTD/svg11.dtd">
<!-- Generated by graphviz version 2.38.0 (20140413.2041)
 -->
<!-- Title: CommandLineArgumentParser.cpp Pages: 1 -->
<svg width="671pt" height="196pt"
 viewBox="0.00 0.00 670.50 196.00" xmlns="http://www.w3.org/2000/svg" xmlns:xlink="http://www.w3.org/1999/xlink">
<g id="graph0" class="graph" transform="scale(1 1) rotate(0) translate(4 192)">
<title>CommandLineArgumentParser.cpp</title>
<polygon fill="white" stroke="none" points="-4,4 -4,-192 666.5,-192 666.5,4 -4,4"/>
<!-- Node1 -->
<g id="node1" class="node"><title>Node1</title>
<polygon fill="#bfbfbf" stroke="black" points="227.5,-168.5 227.5,-187.5 396.5,-187.5 396.5,-168.5 227.5,-168.5"/>
<text text-anchor="middle" x="312" y="-175.5" font-family="Helvetica,sans-Serif" font-size="10.00">CommandLineArgumentParser.cpp</text>
</g>
<!-- Node2 -->
<g id="node2" class="node"><title>Node2</title>
<g id="a_node2"><a xlink:href="CommandLineArgumentParser_8h.html" target="_top" xlink:title="CommandLineArgumentParser.h">
<polygon fill="white" stroke="black" points="0,-112.5 0,-131.5 158,-131.5 158,-112.5 0,-112.5"/>
<text text-anchor="middle" x="79" y="-119.5" font-family="Helvetica,sans-Serif" font-size="10.00">CommandLineArgumentParser.h</text>
</a>
</g>
</g>
<!-- Node1&#45;&gt;Node2 -->
<g id="edge1" class="edge"><title>Node1&#45;&gt;Node2</title>
<path fill="none" stroke="midnightblue" d="M275.08,-168.444C234.605,-159.063 169.579,-143.993 125.616,-133.804"/>
<polygon fill="midnightblue" stroke="midnightblue" points="126.279,-130.365 115.747,-131.516 124.698,-137.184 126.279,-130.365"/>
</g>
<!-- Node5 -->
<g id="node5" class="node"><title>Node5</title>
<polygon fill="white" stroke="#bfbfbf" points="176,-112.5 176,-131.5 228,-131.5 228,-112.5 176,-112.5"/>
<text text-anchor="middle" x="202" y="-119.5" font-family="Helvetica,sans-Serif" font-size="10.00">getopt.h</text>
</g>
<!-- Node1&#45;&gt;Node5 -->
<g id="edge4" class="edge"><title>Node1&#45;&gt;Node5</title>
<path fill="none" stroke="midnightblue" d="M294.327,-168.324C276.606,-159.625 249.097,-146.12 228.712,-136.113"/>
<polygon fill="midnightblue" stroke="midnightblue" points="230.149,-132.919 219.63,-131.655 227.064,-139.203 230.149,-132.919"/>
</g>
<!-- Node6 -->
<g id="node6" class="node"><title>Node6</title>
<polygon fill="white" stroke="#bfbfbf" points="246.5,-112.5 246.5,-131.5 295.5,-131.5 295.5,-112.5 246.5,-112.5"/>
<text text-anchor="middle" x="271" y="-119.5" font-family="Helvetica,sans-Serif" font-size="10.00">string.h</text>
</g>
<!-- Node1&#45;&gt;Node6 -->
<g id="edge5" class="edge"><title>Node1&#45;&gt;Node6</title>
<path fill="none" stroke="midnightblue" d="M305.23,-168.083C299.438,-160.455 290.942,-149.264 283.862,-139.941"/>
<polygon fill="midnightblue" stroke="midnightblue" points="286.479,-137.599 277.644,-131.751 280.904,-141.832 286.479,-137.599"/>
</g>
<!-- Node7 -->
<g id="node7" class="node"><title>Node7</title>
<g id="a_node7"><a xlink:href="PrintHandler_8h.html" target="_top" xlink:title="PrintHandler.h">
<polygon fill="white" stroke="black" points="313.5,-112.5 313.5,-131.5 392.5,-131.5 392.5,-112.5 313.5,-112.5"/>
<text text-anchor="middle" x="353" y="-119.5" font-family="Helvetica,sans-Serif" font-size="10.00">PrintHandler.h</text>
</a>
</g>
</g>
<!-- Node1&#45;&gt;Node7 -->
<g id="edge6" class="edge"><title>Node1&#45;&gt;Node7</title>
<path fill="none" stroke="midnightblue" d="M318.77,-168.083C324.562,-160.455 333.058,-149.264 340.138,-139.941"/>
<polygon fill="midnightblue" stroke="midnightblue" points="343.096,-141.832 346.356,-131.751 337.521,-137.599 343.096,-141.832"/>
</g>
<!-- Node9 -->
<g id="node9" class="node"><title>Node9</title>
<g id="a_node9"><a xlink:href="PrintUsage_8h.html" target="_top" xlink:title="PrintUsage.h">
<polygon fill="white" stroke="black" points="411,-112.5 411,-131.5 485,-131.5 485,-112.5 411,-112.5"/>
<text text-anchor="middle" x="448" y="-119.5" font-family="Helvetica,sans-Serif" font-size="10.00">PrintUsage.h</text>
</a>
</g>
</g>
<!-- Node1&#45;&gt;Node9 -->
<g id="edge8" class="edge"><title>Node1&#45;&gt;Node9</title>
<path fill="none" stroke="midnightblue" d="M333.55,-168.444C356.031,-159.517 391.488,-145.439 416.98,-135.317"/>
<polygon fill="midnightblue" stroke="midnightblue" points="418.549,-138.46 426.551,-131.516 415.965,-131.954 418.549,-138.46"/>
</g>
<!-- Node10 -->
<g id="node10" class="node"><title>Node10</title>
<g id="a_node10"><a xlink:href="WCBandwidthUtilization_8h.html" target="_top" xlink:title="Tests/WCBandwidthUtilization.h">
<polygon fill="white" stroke="black" points="503.5,-112.5 503.5,-131.5 662.5,-131.5 662.5,-112.5 503.5,-112.5"/>
<text text-anchor="middle" x="583" y="-119.5" font-family="Helvetica,sans-Serif" font-size="10.00">Tests/WCBandwidthUtilization.h</text>
</a>
</g>
</g>
<!-- Node1&#45;&gt;Node10 -->
<g id="edge9" class="edge"><title>Node1&#45;&gt;Node10</title>
<path fill="none" stroke="midnightblue" d="M354.941,-168.444C402.513,-158.964 479.244,-143.675 530.389,-133.483"/>
<polygon fill="midnightblue" stroke="midnightblue" points="531.137,-136.903 540.26,-131.516 529.769,-130.038 531.137,-136.903"/>
</g>
<!-- Node3 -->
<g id="node3" class="node"><title>Node3</title>
<polygon fill="white" stroke="#bfbfbf" points="274.5,-0.5 274.5,-19.5 315.5,-19.5 315.5,-0.5 274.5,-0.5"/>
<text text-anchor="middle" x="295" y="-7.5" font-family="Helvetica,sans-Serif" font-size="10.00">string</text>
</g>
<!-- Node2&#45;&gt;Node3 -->
<g id="edge2" class="edge"><title>Node2&#45;&gt;Node3</title>
<path fill="none" stroke="midnightblue" d="M78.9143,-112.441C79.2647,-98.5127 82.0816,-70.9937 98,-56 121.732,-33.6462 214.845,-20.0312 264.085,-14.2488"/>
<polygon fill="midnightblue" stroke="midnightblue" points="264.63,-17.7094 274.171,-13.1021 263.839,-10.7543 264.63,-17.7094"/>
</g>
<!-- Node4 -->
<g id="node4" class="node"><title>Node4</title>
<polygon fill="white" stroke="#bfbfbf" points="107,-56.5 107,-75.5 151,-75.5 151,-56.5 107,-56.5"/>
<text text-anchor="middle" x="129" y="-63.5" font-family="Helvetica,sans-Serif" font-size="10.00">vector</text>
</g>
<!-- Node2&#45;&gt;Node4 -->
<g id="edge3" class="edge"><title>Node2&#45;&gt;Node4</title>
<path fill="none" stroke="midnightblue" d="M87.2565,-112.083C94.4647,-104.298 105.11,-92.8015 113.846,-83.3665"/>
<polygon fill="midnightblue" stroke="midnightblue" points="116.671,-85.4666 120.897,-75.7511 111.535,-80.7108 116.671,-85.4666"/>
</g>
<!-- Node8 -->
<g id="node8" class="node"><title>Node8</title>
<polygon fill="white" stroke="#bfbfbf" points="330,-56.5 330,-75.5 376,-75.5 376,-56.5 330,-56.5"/>
<text text-anchor="middle" x="353" y="-63.5" font-family="Helvetica,sans-Serif" font-size="10.00">stdio.h</text>
</g>
<!-- Node7&#45;&gt;Node8 -->
<g id="edge7" class="edge"><title>Node7&#45;&gt;Node8</title>
<path fill="none" stroke="midnightblue" d="M353,-112.083C353,-105.006 353,-94.8611 353,-85.9865"/>
<polygon fill="midnightblue" stroke="midnightblue" points="356.5,-85.751 353,-75.7511 349.5,-85.7511 356.5,-85.751"/>
</g>
<!-- Node11 -->
<g id="node11" class="node"><title>Node11</title>
<g id="a_node11"><a xlink:href="TestBaseClass_8h.html" target="_top" xlink:title="TestBaseClass.h">
<polygon fill="white" stroke="black" points="465,-56.5 465,-75.5 557,-75.5 557,-56.5 465,-56.5"/>
<text text-anchor="middle" x="511" y="-63.5" font-family="Helvetica,sans-Serif" font-size="10.00">TestBaseClass.h</text>
</a>
</g>
</g>
<!-- Node10&#45;&gt;Node11 -->
<g id="edge10" class="edge"><title>Node10&#45;&gt;Node11</title>
<path fill="none" stroke="midnightblue" d="M571.432,-112.324C560.58,-104.185 544.119,-91.8395 531.117,-82.0874"/>
<polygon fill="midnightblue" stroke="midnightblue" points="532.879,-79.0339 522.779,-75.8339 528.679,-84.6339 532.879,-79.0339"/>
</g>
<!-- Node11&#45;&gt;Node3 -->
<g id="edge11" class="edge"><title>Node11&#45;&gt;Node3</title>
<path fill="none" stroke="midnightblue" d="M476.774,-56.4435C435.169,-46.0423 365.585,-28.6462 325.66,-18.6651"/>
<polygon fill="midnightblue" stroke="midnightblue" points="326.259,-15.2071 315.709,-16.1772 324.561,-21.9981 326.259,-15.2071"/>
</g>
</g>
</svg>
