<?xml version="1.0" encoding="UTF-8" standalone="no"?>
<!DOCTYPE svg PUBLIC "-//W3C//DTD SVG 1.1//EN"
 "http://www.w3.org/Graphics/SVG/1.1/DTD/svg11.dtd">
<!-- Generated by graphviz version 2.38.0 (20140413.2041)
 -->
<!-- Title: CurrentAndLastValues.h Pages: 1 -->
<svg width="769pt" height="252pt"
 viewBox="0.00 0.00 769.00 252.00" xmlns="http://www.w3.org/2000/svg" xmlns:xlink="http://www.w3.org/1999/xlink">
<g id="graph0" class="graph" transform="scale(1 1) rotate(0) translate(4 248)">
<title>CurrentAndLastValues.h</title>
<polygon fill="white" stroke="none" points="-4,4 -4,-248 765,-248 765,4 -4,4"/>
<!-- Node1 -->
<g id="node1" class="node"><title>Node1</title>
<polygon fill="#bfbfbf" stroke="black" points="256,-224.5 256,-243.5 379,-243.5 379,-224.5 256,-224.5"/>
<text text-anchor="middle" x="317.5" y="-231.5" font-family="Helvetica,sans-Serif" font-size="10.00">CurrentAndLastValues.h</text>
</g>
<!-- Node2 -->
<g id="node2" class="node"><title>Node2</title>
<g id="a_node2"><a xlink:href="DataRateCalculator_8h.html" target="_top" xlink:title="DataRateCalculator.h">
<polygon fill="white" stroke="black" points="38,-168.5 38,-187.5 149,-187.5 149,-168.5 38,-168.5"/>
<text text-anchor="middle" x="93.5" y="-175.5" font-family="Helvetica,sans-Serif" font-size="10.00">DataRateCalculator.h</text>
</a>
</g>
</g>
<!-- Node1&#45;&gt;Node2 -->
<g id="edge1" class="edge"><title>Node1&#45;&gt;Node2</title>
<path fill="none" stroke="midnightblue" d="M272.237,-222.088C229.918,-211.887 167.591,-196.861 128.827,-187.516"/>
<polygon fill="midnightblue" stroke="midnightblue" points="271.465,-225.502 282.007,-224.444 273.105,-218.697 271.465,-225.502"/>
</g>
<!-- Node3 -->
<g id="node3" class="node"><title>Node3</title>
<g id="a_node3"><a xlink:href="ExponentialSmoothing_8h.html" target="_top" xlink:title="ExponentialSmoothing.h">
<polygon fill="white" stroke="black" points="167.5,-168.5 167.5,-187.5 289.5,-187.5 289.5,-168.5 167.5,-168.5"/>
<text text-anchor="middle" x="228.5" y="-175.5" font-family="Helvetica,sans-Serif" font-size="10.00">ExponentialSmoothing.h</text>
</a>
</g>
</g>
<!-- Node1&#45;&gt;Node3 -->
<g id="edge2" class="edge"><title>Node1&#45;&gt;Node3</title>
<path fill="none" stroke="midnightblue" d="M294.262,-218.901C277.942,-208.999 256.635,-196.071 242.764,-187.655"/>
<polygon fill="midnightblue" stroke="midnightblue" points="292.836,-222.129 303.201,-224.324 296.467,-216.144 292.836,-222.129"/>
</g>
<!-- Node5 -->
<g id="node5" class="node"><title>Node5</title>
<g id="a_node5"><a xlink:href="ExponentialSmoothingCalculator_8h.html" target="_top" xlink:title="ExponentialSmoothingCalculator.h">
<polygon fill="white" stroke="black" points="151,-112.5 151,-131.5 318,-131.5 318,-112.5 151,-112.5"/>
<text text-anchor="middle" x="234.5" y="-119.5" font-family="Helvetica,sans-Serif" font-size="10.00">ExponentialSmoothingCalculator.h</text>
</a>
</g>
</g>
<!-- Node1&#45;&gt;Node5 -->
<g id="edge8" class="edge"><title>Node1&#45;&gt;Node5</title>
<path fill="none" stroke="midnightblue" d="M315.342,-213.942C313.012,-200.139 308.229,-181.594 298.5,-168 286.8,-151.653 267.238,-139.167 252.814,-131.541"/>
<polygon fill="midnightblue" stroke="midnightblue" points="311.926,-214.789 316.777,-224.208 318.859,-213.82 311.926,-214.789"/>
</g>
<!-- Node9 -->
<g id="node9" class="node"><title>Node9</title>
<g id="a_node9"><a xlink:href="SimpleRateCalculation_8h.html" target="_top" xlink:title="SimpleRateCalculation.h">
<polygon fill="white" stroke="black" points="346,-168.5 346,-187.5 471,-187.5 471,-168.5 346,-168.5"/>
<text text-anchor="middle" x="408.5" y="-175.5" font-family="Helvetica,sans-Serif" font-size="10.00">SimpleRateCalculation.h</text>
</a>
</g>
</g>
<!-- Node1&#45;&gt;Node9 -->
<g id="edge9" class="edge"><title>Node1&#45;&gt;Node9</title>
<path fill="none" stroke="midnightblue" d="M340.794,-219.177C357.539,-209.241 379.6,-196.149 393.916,-187.655"/>
<polygon fill="midnightblue" stroke="midnightblue" points="338.934,-216.211 332.121,-224.324 342.507,-222.231 338.934,-216.211"/>
</g>
<!-- Node11 -->
<g id="node11" class="node"><title>Node11</title>
<g id="a_node11"><a xlink:href="SimpleRateCalculator_8h.html" target="_top" xlink:title="SimpleRateCalculator.h">
<polygon fill="white" stroke="black" points="489.5,-112.5 489.5,-131.5 609.5,-131.5 609.5,-112.5 489.5,-112.5"/>
<text text-anchor="middle" x="549.5" y="-119.5" font-family="Helvetica,sans-Serif" font-size="10.00">SimpleRateCalculator.h</text>
</a>
</g>
</g>
<!-- Node1&#45;&gt;Node11 -->
<g id="edge16" class="edge"><title>Node1&#45;&gt;Node11</title>
<path fill="none" stroke="midnightblue" d="M383.478,-222.397C414.319,-215.577 450.717,-204.756 480.5,-188 507.179,-172.991 531.514,-145.479 542.828,-131.555"/>
<polygon fill="midnightblue" stroke="midnightblue" points="382.733,-218.977 373.676,-224.474 384.184,-225.826 382.733,-218.977"/>
</g>
<!-- Node4 -->
<g id="node4" class="node"><title>Node4</title>
<g id="a_node4"><a xlink:href="ExponentialSmoothing_8cpp.html" target="_top" xlink:title="ExponentialSmoothing.cpp">
<polygon fill="white" stroke="black" points="0,-112.5 0,-131.5 133,-131.5 133,-112.5 0,-112.5"/>
<text text-anchor="middle" x="66.5" y="-119.5" font-family="Helvetica,sans-Serif" font-size="10.00">ExponentialSmoothing.cpp</text>
</a>
</g>
</g>
<!-- Node3&#45;&gt;Node4 -->
<g id="edge3" class="edge"><title>Node3&#45;&gt;Node4</title>
<path fill="none" stroke="midnightblue" d="M193.016,-165.172C162.512,-155.004 119.255,-140.585 92.0493,-131.516"/>
<polygon fill="midnightblue" stroke="midnightblue" points="192.237,-168.602 202.831,-168.444 194.451,-161.961 192.237,-168.602"/>
</g>
<!-- Node3&#45;&gt;Node5 -->
<g id="edge4" class="edge"><title>Node3&#45;&gt;Node5</title>
<path fill="none" stroke="midnightblue" d="M230.6,-158.101C231.596,-149.136 232.738,-138.858 233.528,-131.751"/>
<polygon fill="midnightblue" stroke="midnightblue" points="227.117,-157.758 229.491,-168.083 234.074,-158.531 227.117,-157.758"/>
</g>
<!-- Node6 -->
<g id="node6" class="node"><title>Node6</title>
<g id="a_node6"><a xlink:href="WorkConservationFlowHandler_8h.html" target="_top" xlink:title="WorkConservationFlowHandler.h">
<polygon fill="white" stroke="black" points="177,-56.5 177,-75.5 338,-75.5 338,-56.5 177,-56.5"/>
<text text-anchor="middle" x="257.5" y="-63.5" font-family="Helvetica,sans-Serif" font-size="10.00">WorkConservationFlowHandler.h</text>
</a>
</g>
</g>
<!-- Node5&#45;&gt;Node6 -->
<g id="edge5" class="edge"><title>Node5&#45;&gt;Node6</title>
<path fill="none" stroke="midnightblue" d="M242.299,-102.69C246.175,-93.589 250.679,-83.0141 253.773,-75.7511"/>
<polygon fill="midnightblue" stroke="midnightblue" points="238.997,-101.511 238.298,-112.083 245.437,-104.254 238.997,-101.511"/>
</g>
<!-- Node7 -->
<g id="node7" class="node"><title>Node7</title>
<g id="a_node7"><a xlink:href="MainObject_8cpp.html" target="_top" xlink:title="MainObject.cpp">
<polygon fill="white" stroke="black" points="367,-0.5 367,-19.5 452,-19.5 452,-0.5 367,-0.5"/>
<text text-anchor="middle" x="409.5" y="-7.5" font-family="Helvetica,sans-Serif" font-size="10.00">MainObject.cpp</text>
</a>
</g>
</g>
<!-- Node6&#45;&gt;Node7 -->
<g id="edge6" class="edge"><title>Node6&#45;&gt;Node7</title>
<path fill="none" stroke="midnightblue" d="M291.168,-53.0392C319.768,-42.8786 360.112,-28.5457 385.528,-19.5164"/>
<polygon fill="midnightblue" stroke="midnightblue" points="289.836,-49.7978 281.585,-56.4435 292.18,-56.3939 289.836,-49.7978"/>
</g>
<!-- Node8 -->
<g id="node8" class="node"><title>Node8</title>
<g id="a_node8"><a xlink:href="WorkConservationFlowHandler_8cpp.html" target="_top" xlink:title="WorkConservationFlowHandler.cpp">
<polygon fill="white" stroke="black" points="172,-0.5 172,-19.5 343,-19.5 343,-0.5 172,-0.5"/>
<text text-anchor="middle" x="257.5" y="-7.5" font-family="Helvetica,sans-Serif" font-size="10.00">WorkConservationFlowHandler.cpp</text>
</a>
</g>
</g>
<!-- Node6&#45;&gt;Node8 -->
<g id="edge7" class="edge"><title>Node6&#45;&gt;Node8</title>
<path fill="none" stroke="midnightblue" d="M257.5,-45.8045C257.5,-36.9102 257.5,-26.7798 257.5,-19.7511"/>
<polygon fill="midnightblue" stroke="midnightblue" points="254,-46.083 257.5,-56.083 261,-46.083 254,-46.083"/>
</g>
<!-- Node10 -->
<g id="node10" class="node"><title>Node10</title>
<g id="a_node10"><a xlink:href="SimpleRateCalculation_8cpp.html" target="_top" xlink:title="SimpleRateCalculation.cpp">
<polygon fill="white" stroke="black" points="336,-112.5 336,-131.5 471,-131.5 471,-112.5 336,-112.5"/>
<text text-anchor="middle" x="403.5" y="-119.5" font-family="Helvetica,sans-Serif" font-size="10.00">SimpleRateCalculation.cpp</text>
</a>
</g>
</g>
<!-- Node9&#45;&gt;Node10 -->
<g id="edge10" class="edge"><title>Node9&#45;&gt;Node10</title>
<path fill="none" stroke="midnightblue" d="M406.75,-158.101C405.92,-149.136 404.968,-138.858 404.31,-131.751"/>
<polygon fill="midnightblue" stroke="midnightblue" points="403.267,-158.448 407.674,-168.083 410.237,-157.803 403.267,-158.448"/>
</g>
<!-- Node9&#45;&gt;Node11 -->
<g id="edge11" class="edge"><title>Node9&#45;&gt;Node11</title>
<path fill="none" stroke="midnightblue" d="M440.429,-164.772C466.914,-154.629 503.892,-140.467 527.263,-131.516"/>
<polygon fill="midnightblue" stroke="midnightblue" points="438.929,-161.599 430.842,-168.444 441.432,-168.136 438.929,-161.599"/>
</g>
<!-- Node12 -->
<g id="node12" class="node"><title>Node12</title>
<g id="a_node12"><a xlink:href="BandwidthCalculator_8h.html" target="_top" xlink:title="BandwidthCalculator.h">
<polygon fill="white" stroke="black" points="489,-56.5 489,-75.5 604,-75.5 604,-56.5 489,-56.5"/>
<text text-anchor="middle" x="546.5" y="-63.5" font-family="Helvetica,sans-Serif" font-size="10.00">BandwidthCalculator.h</text>
</a>
</g>
</g>
<!-- Node11&#45;&gt;Node12 -->
<g id="edge12" class="edge"><title>Node11&#45;&gt;Node12</title>
<path fill="none" stroke="midnightblue" d="M548.434,-101.805C547.939,-92.9102 547.377,-82.7798 546.986,-75.7511"/>
<polygon fill="midnightblue" stroke="midnightblue" points="544.955,-102.293 549.005,-112.083 551.944,-101.904 544.955,-102.293"/>
</g>
<!-- Node12&#45;&gt;Node7 -->
<g id="edge15" class="edge"><title>Node12&#45;&gt;Node7</title>
<path fill="none" stroke="midnightblue" d="M515.477,-52.772C489.743,-42.6287 453.814,-28.4669 431.106,-19.5164"/>
<polygon fill="midnightblue" stroke="midnightblue" points="514.205,-56.0326 524.792,-56.4435 516.772,-49.5203 514.205,-56.0326"/>
</g>
<!-- Node13 -->
<g id="node13" class="node"><title>Node13</title>
<g id="a_node13"><a xlink:href="BandwidthCalculator_8cpp.html" target="_top" xlink:title="BandwidthCalculator.cpp">
<polygon fill="white" stroke="black" points="473,-0.5 473,-19.5 598,-19.5 598,-0.5 473,-0.5"/>
<text text-anchor="middle" x="535.5" y="-7.5" font-family="Helvetica,sans-Serif" font-size="10.00">BandwidthCalculator.cpp</text>
</a>
</g>
</g>
<!-- Node12&#45;&gt;Node13 -->
<g id="edge13" class="edge"><title>Node12&#45;&gt;Node13</title>
<path fill="none" stroke="midnightblue" d="M542.65,-46.1005C540.824,-37.1357 538.73,-26.8579 537.283,-19.7511"/>
<polygon fill="midnightblue" stroke="midnightblue" points="539.258,-46.9829 544.684,-56.083 546.117,-45.5856 539.258,-46.9829"/>
</g>
<!-- Node14 -->
<g id="node14" class="node"><title>Node14</title>
<g id="a_node14"><a xlink:href="BandwidthCommunicator_8cpp.html" target="_top" xlink:title="BandwidthCommunicator.cpp">
<polygon fill="white" stroke="black" points="616,-0.5 616,-19.5 761,-19.5 761,-0.5 616,-0.5"/>
<text text-anchor="middle" x="688.5" y="-7.5" font-family="Helvetica,sans-Serif" font-size="10.00">BandwidthCommunicator.cpp</text>
</a>
</g>
</g>
<!-- Node12&#45;&gt;Node14 -->
<g id="edge14" class="edge"><title>Node12&#45;&gt;Node14</title>
<path fill="none" stroke="midnightblue" d="M578.655,-52.772C605.328,-42.6287 642.569,-28.4669 666.105,-19.5164"/>
<polygon fill="midnightblue" stroke="midnightblue" points="577.103,-49.6176 569,-56.4435 579.591,-56.1604 577.103,-49.6176"/>
</g>
</g>
</svg>
