<?xml version="1.0" encoding="UTF-8" standalone="no"?>
<!DOCTYPE svg PUBLIC "-//W3C//DTD SVG 1.1//EN"
 "http://www.w3.org/Graphics/SVG/1.1/DTD/svg11.dtd">
<!-- Generated by graphviz version 2.40.1 (20161225.0304)
 -->
<!-- Title: CurrentAndLastValues.h Pages: 1 -->
<svg width="267pt" height="143pt"
 viewBox="0.00 0.00 267.25 143.00" xmlns="http://www.w3.org/2000/svg" xmlns:xlink="http://www.w3.org/1999/xlink">
<g id="graph0" class="graph" transform="scale(1 1) rotate(0) translate(4 139)">
<title>CurrentAndLastValues.h</title>
<polygon fill="#ffffff" stroke="transparent" points="-4,4 -4,-139 263.2495,-139 263.2495,4 -4,4"/>
<!-- Node1 -->
<g id="node1" class="node">
<title>Node1</title>
<polygon fill="#bfbfbf" stroke="#000000" points="61.3255,-114.5 61.3255,-134.5 186.2455,-134.5 186.2455,-114.5 61.3255,-114.5"/>
<text text-anchor="middle" x="123.7855" y="-121.5" font-family="Helvetica,sans-Serif" font-size="10.00" fill="#000000">CurrentAndLastValues.h</text>
</g>
<!-- Node2 -->
<g id="node2" class="node">
<title>Node2</title>
<g id="a_node2"><a xlink:href="DataRateCalculator_8h.html" target="_top" xlink:title="DataRateCalculator.h">
<polygon fill="#ffffff" stroke="#000000" points="0,-57.5 0,-77.5 111.571,-77.5 111.571,-57.5 0,-57.5"/>
<text text-anchor="middle" x="55.7855" y="-64.5" font-family="Helvetica,sans-Serif" font-size="10.00" fill="#000000">DataRateCalculator.h</text>
</a>
</g>
</g>
<!-- Node1&#45;&gt;Node2 -->
<g id="edge1" class="edge">
<title>Node1&#45;&gt;Node2</title>
<path fill="none" stroke="#191970" d="M103.7098,-107.6718C92.057,-97.9041 77.7665,-85.9252 67.8373,-77.6022"/>
<polygon fill="#191970" stroke="#191970" points="101.7163,-110.5678 111.6285,-114.3095 106.2131,-105.2032 101.7163,-110.5678"/>
</g>
<!-- Node4 -->
<g id="node4" class="node">
<title>Node4</title>
<g id="a_node4"><a xlink:href="ExponentialSmoothing_8h.html" target="_top" xlink:title="ExponentialSmoothing.h">
<polygon fill="#ffffff" stroke="#000000" points="129.601,-57.5 129.601,-77.5 253.97,-77.5 253.97,-57.5 129.601,-57.5"/>
<text text-anchor="middle" x="191.7855" y="-64.5" font-family="Helvetica,sans-Serif" font-size="10.00" fill="#000000">ExponentialSmoothing.h</text>
</a>
</g>
</g>
<!-- Node1&#45;&gt;Node4 -->
<g id="edge3" class="edge">
<title>Node1&#45;&gt;Node4</title>
<path fill="none" stroke="#191970" d="M143.8612,-107.6718C155.514,-97.9041 169.8045,-85.9252 179.7337,-77.6022"/>
<polygon fill="#191970" stroke="#191970" points="141.3579,-105.2032 135.9425,-114.3095 145.8547,-110.5678 141.3579,-105.2032"/>
</g>
<!-- Node3 -->
<g id="node3" class="node">
<title>Node3</title>
<g id="a_node3"><a xlink:href="main_8cpp.html" target="_top" xlink:title="main.cpp">
<polygon fill="#ffffff" stroke="#000000" points="38.504,-.5 38.504,-20.5 95.067,-20.5 95.067,-.5 38.504,-.5"/>
<text text-anchor="middle" x="66.7855" y="-7.5" font-family="Helvetica,sans-Serif" font-size="10.00" fill="#000000">main.cpp</text>
</a>
</g>
</g>
<!-- Node2&#45;&gt;Node3 -->
<g id="edge2" class="edge">
<title>Node2&#45;&gt;Node3</title>
<path fill="none" stroke="#191970" d="M59.6502,-47.4738C61.4038,-38.3872 63.4013,-28.0364 64.8359,-20.6022"/>
<polygon fill="#191970" stroke="#191970" points="56.2104,-46.8275 57.7521,-57.3095 63.0836,-48.1539 56.2104,-46.8275"/>
</g>
<!-- Node4&#45;&gt;Node3 -->
<g id="edge5" class="edge">
<title>Node4&#45;&gt;Node3</title>
<path fill="none" stroke="#191970" d="M160.375,-53.1768C138.1509,-43.0426 108.8899,-29.6996 89.0452,-20.6504"/>
<polygon fill="#191970" stroke="#191970" points="159.1749,-56.4762 169.7257,-57.4408 162.0792,-50.1072 159.1749,-56.4762"/>
</g>
<!-- Node5 -->
<g id="node5" class="node">
<title>Node5</title>
<g id="a_node5"><a xlink:href="ExponentialSmoothing_8cpp.html" target="_top" xlink:title="ExponentialSmoothing.cpp">
<polygon fill="#ffffff" stroke="#000000" points="124.3215,-.5 124.3215,-20.5 259.2495,-20.5 259.2495,-.5 124.3215,-.5"/>
<text text-anchor="middle" x="191.7855" y="-7.5" font-family="Helvetica,sans-Serif" font-size="10.00" fill="#000000">ExponentialSmoothing.cpp</text>
</a>
</g>
</g>
<!-- Node4&#45;&gt;Node5 -->
<g id="edge4" class="edge">
<title>Node4&#45;&gt;Node5</title>
<path fill="none" stroke="#191970" d="M191.7855,-47.1771C191.7855,-38.1625 191.7855,-27.9556 191.7855,-20.6022"/>
<polygon fill="#191970" stroke="#191970" points="188.2856,-47.3095 191.7855,-57.3095 195.2856,-47.3096 188.2856,-47.3095"/>
</g>
</g>
</svg>
