<?xml version="1.0" encoding="UTF-8" standalone="no"?>
<!DOCTYPE svg PUBLIC "-//W3C//DTD SVG 1.1//EN"
 "http://www.w3.org/Graphics/SVG/1.1/DTD/svg11.dtd">
<!-- Generated by graphviz version 2.38.0 (20140413.2041)
 -->
<!-- Title: CurrentAndLastValues.h Pages: 1 -->
<svg width="637pt" height="252pt"
 viewBox="0.00 0.00 637.00 252.00" xmlns="http://www.w3.org/2000/svg" xmlns:xlink="http://www.w3.org/1999/xlink">
<g id="graph0" class="graph" transform="scale(1 1) rotate(0) translate(4 248)">
<title>CurrentAndLastValues.h</title>
<polygon fill="white" stroke="none" points="-4,4 -4,-248 633,-248 633,4 -4,4"/>
<!-- Node1 -->
<g id="node1" class="node"><title>Node1</title>
<polygon fill="#bfbfbf" stroke="black" points="253,-224.5 253,-243.5 376,-243.5 376,-224.5 253,-224.5"/>
<text text-anchor="middle" x="314.5" y="-231.5" font-family="Helvetica,sans-Serif" font-size="10.00">CurrentAndLastValues.h</text>
</g>
<!-- Node2 -->
<g id="node2" class="node"><title>Node2</title>
<g id="a_node2"><a xlink:href="DataRateCalculator_8h.html" target="_top" xlink:title="DataRateCalculator.h">
<polygon fill="white" stroke="black" points="35,-168.5 35,-187.5 146,-187.5 146,-168.5 35,-168.5"/>
<text text-anchor="middle" x="90.5" y="-175.5" font-family="Helvetica,sans-Serif" font-size="10.00">DataRateCalculator.h</text>
</a>
</g>
</g>
<!-- Node1&#45;&gt;Node2 -->
<g id="edge1" class="edge"><title>Node1&#45;&gt;Node2</title>
<path fill="none" stroke="midnightblue" d="M269.237,-222.088C226.918,-211.887 164.591,-196.861 125.827,-187.516"/>
<polygon fill="midnightblue" stroke="midnightblue" points="268.465,-225.502 279.007,-224.444 270.105,-218.697 268.465,-225.502"/>
</g>
<!-- Node3 -->
<g id="node3" class="node"><title>Node3</title>
<g id="a_node3"><a xlink:href="ExponentialSmoothing_8h.html" target="_top" xlink:title="ExponentialSmoothing.h">
<polygon fill="white" stroke="black" points="164.5,-168.5 164.5,-187.5 286.5,-187.5 286.5,-168.5 164.5,-168.5"/>
<text text-anchor="middle" x="225.5" y="-175.5" font-family="Helvetica,sans-Serif" font-size="10.00">ExponentialSmoothing.h</text>
</a>
</g>
</g>
<!-- Node1&#45;&gt;Node3 -->
<g id="edge2" class="edge"><title>Node1&#45;&gt;Node3</title>
<path fill="none" stroke="midnightblue" d="M291.262,-218.901C274.942,-208.999 253.635,-196.071 239.764,-187.655"/>
<polygon fill="midnightblue" stroke="midnightblue" points="289.836,-222.129 300.201,-224.324 293.467,-216.144 289.836,-222.129"/>
</g>
<!-- Node5 -->
<g id="node5" class="node"><title>Node5</title>
<g id="a_node5"><a xlink:href="ExponentialSmoothingCalculator_8h.html" target="_top" xlink:title="ExponentialSmoothingCalculator.h">
<polygon fill="white" stroke="black" points="171,-112.5 171,-131.5 338,-131.5 338,-112.5 171,-112.5"/>
<text text-anchor="middle" x="254.5" y="-119.5" font-family="Helvetica,sans-Serif" font-size="10.00">ExponentialSmoothingCalculator.h</text>
</a>
</g>
</g>
<!-- Node1&#45;&gt;Node5 -->
<g id="edge9" class="edge"><title>Node1&#45;&gt;Node5</title>
<path fill="none" stroke="midnightblue" d="M311.334,-214.077C308.53,-200.608 303.595,-182.416 295.5,-168 287.427,-153.624 273.968,-140.059 264.685,-131.654"/>
<polygon fill="midnightblue" stroke="midnightblue" points="307.929,-214.91 313.21,-224.094 314.809,-213.621 307.929,-214.91"/>
</g>
<!-- Node10 -->
<g id="node10" class="node"><title>Node10</title>
<g id="a_node10"><a xlink:href="SimpleRateCalculation_8h.html" target="_top" xlink:title="SimpleRateCalculation.h">
<polygon fill="white" stroke="black" points="381,-168.5 381,-187.5 506,-187.5 506,-168.5 381,-168.5"/>
<text text-anchor="middle" x="443.5" y="-175.5" font-family="Helvetica,sans-Serif" font-size="10.00">SimpleRateCalculation.h</text>
</a>
</g>
</g>
<!-- Node1&#45;&gt;Node10 -->
<g id="edge10" class="edge"><title>Node1&#45;&gt;Node10</title>
<path fill="none" stroke="midnightblue" d="M344.354,-220.503C368.538,-210.38 401.962,-196.388 423.155,-187.516"/>
<polygon fill="midnightblue" stroke="midnightblue" points="342.813,-217.354 334.94,-224.444 345.516,-223.811 342.813,-217.354"/>
</g>
<!-- Node12 -->
<g id="node12" class="node"><title>Node12</title>
<g id="a_node12"><a xlink:href="SimpleRateCalculator_8h.html" target="_top" xlink:title="SimpleRateCalculator.h">
<polygon fill="white" stroke="black" points="355.5,-112.5 355.5,-131.5 475.5,-131.5 475.5,-112.5 355.5,-112.5"/>
<text text-anchor="middle" x="415.5" y="-119.5" font-family="Helvetica,sans-Serif" font-size="10.00">SimpleRateCalculator.h</text>
</a>
</g>
</g>
<!-- Node1&#45;&gt;Node12 -->
<g id="edge17" class="edge"><title>Node1&#45;&gt;Node12</title>
<path fill="none" stroke="midnightblue" d="M329.122,-216.3C340.758,-203.087 357.518,-184.224 372.5,-168 384.376,-155.139 398.441,-140.535 407.169,-131.544"/>
<polygon fill="midnightblue" stroke="midnightblue" points="326.256,-214.26 322.286,-224.083 331.515,-218.879 326.256,-214.26"/>
</g>
<!-- Node4 -->
<g id="node4" class="node"><title>Node4</title>
<g id="a_node4"><a xlink:href="ExponentialSmoothing_8cpp.html" target="_top" xlink:title="ExponentialSmoothing.cpp">
<polygon fill="white" stroke="black" points="20,-112.5 20,-131.5 153,-131.5 153,-112.5 20,-112.5"/>
<text text-anchor="middle" x="86.5" y="-119.5" font-family="Helvetica,sans-Serif" font-size="10.00">ExponentialSmoothing.cpp</text>
</a>
</g>
</g>
<!-- Node3&#45;&gt;Node4 -->
<g id="edge3" class="edge"><title>Node3&#45;&gt;Node4</title>
<path fill="none" stroke="midnightblue" d="M194.024,-164.772C167.915,-154.629 131.461,-140.467 108.422,-131.516"/>
<polygon fill="midnightblue" stroke="midnightblue" points="192.886,-168.085 203.475,-168.444 195.421,-161.56 192.886,-168.085"/>
</g>
<!-- Node3&#45;&gt;Node5 -->
<g id="edge4" class="edge"><title>Node3&#45;&gt;Node5</title>
<path fill="none" stroke="midnightblue" d="M235.176,-158.983C240.098,-149.817 245.858,-139.092 249.8,-131.751"/>
<polygon fill="midnightblue" stroke="midnightblue" points="231.937,-157.617 230.289,-168.083 238.104,-160.929 231.937,-157.617"/>
</g>
<!-- Node6 -->
<g id="node6" class="node"><title>Node6</title>
<g id="a_node6"><a xlink:href="WorkConservationFlowHandler_8h.html" target="_top" xlink:title="WorkConservationFlowHandler.h">
<polygon fill="white" stroke="black" points="176,-56.5 176,-75.5 337,-75.5 337,-56.5 176,-56.5"/>
<text text-anchor="middle" x="256.5" y="-63.5" font-family="Helvetica,sans-Serif" font-size="10.00">WorkConservationFlowHandler.h</text>
</a>
</g>
</g>
<!-- Node5&#45;&gt;Node6 -->
<g id="edge5" class="edge"><title>Node5&#45;&gt;Node6</title>
<path fill="none" stroke="midnightblue" d="M255.211,-101.805C255.54,-92.9102 255.916,-82.7798 256.176,-75.7511"/>
<polygon fill="midnightblue" stroke="midnightblue" points="251.703,-101.96 254.83,-112.083 258.698,-102.219 251.703,-101.96"/>
</g>
<!-- Node7 -->
<g id="node7" class="node"><title>Node7</title>
<g id="a_node7"><a xlink:href="BandwidthCommunicator_8cpp.html" target="_top" xlink:title="BandwidthCommunicator.cpp">
<polygon fill="white" stroke="black" points="189,-0.5 189,-19.5 334,-19.5 334,-0.5 189,-0.5"/>
<text text-anchor="middle" x="261.5" y="-7.5" font-family="Helvetica,sans-Serif" font-size="10.00">BandwidthCommunicator.cpp</text>
</a>
</g>
</g>
<!-- Node6&#45;&gt;Node7 -->
<g id="edge6" class="edge"><title>Node6&#45;&gt;Node7</title>
<path fill="none" stroke="midnightblue" d="M258.25,-46.1005C259.08,-37.1357 260.032,-26.8579 260.69,-19.7511"/>
<polygon fill="midnightblue" stroke="midnightblue" points="254.763,-45.8029 257.326,-56.083 261.733,-46.4483 254.763,-45.8029"/>
</g>
<!-- Node8 -->
<g id="node8" class="node"><title>Node8</title>
<g id="a_node8"><a xlink:href="WCEnablerObject_8cpp.html" target="_top" xlink:title="WCEnablerObject.cpp">
<polygon fill="white" stroke="black" points="352.5,-0.5 352.5,-19.5 466.5,-19.5 466.5,-0.5 352.5,-0.5"/>
<text text-anchor="middle" x="409.5" y="-7.5" font-family="Helvetica,sans-Serif" font-size="10.00">WCEnablerObject.cpp</text>
</a>
</g>
</g>
<!-- Node6&#45;&gt;Node8 -->
<g id="edge7" class="edge"><title>Node6&#45;&gt;Node8</title>
<path fill="none" stroke="midnightblue" d="M290.389,-53.0392C319.177,-42.8786 359.787,-28.5457 385.37,-19.5164"/>
<polygon fill="midnightblue" stroke="midnightblue" points="289.008,-49.8148 280.743,-56.4435 291.338,-56.4157 289.008,-49.8148"/>
</g>
<!-- Node9 -->
<g id="node9" class="node"><title>Node9</title>
<g id="a_node9"><a xlink:href="WorkConservationFlowHandler_8cpp.html" target="_top" xlink:title="WorkConservationFlowHandler.cpp">
<polygon fill="white" stroke="black" points="0,-0.5 0,-19.5 171,-19.5 171,-0.5 0,-0.5"/>
<text text-anchor="middle" x="85.5" y="-7.5" font-family="Helvetica,sans-Serif" font-size="10.00">WorkConservationFlowHandler.cpp</text>
</a>
</g>
</g>
<!-- Node6&#45;&gt;Node9 -->
<g id="edge8" class="edge"><title>Node6&#45;&gt;Node9</title>
<path fill="none" stroke="midnightblue" d="M219.464,-53.3044C187.243,-43.1294 141.311,-28.6246 112.469,-19.5164"/>
<polygon fill="midnightblue" stroke="midnightblue" points="218.815,-56.7697 229.405,-56.4435 220.923,-50.0946 218.815,-56.7697"/>
</g>
<!-- Node11 -->
<g id="node11" class="node"><title>Node11</title>
<g id="a_node11"><a xlink:href="SimpleRateCalculation_8cpp.html" target="_top" xlink:title="SimpleRateCalculation.cpp">
<polygon fill="white" stroke="black" points="494,-112.5 494,-131.5 629,-131.5 629,-112.5 494,-112.5"/>
<text text-anchor="middle" x="561.5" y="-119.5" font-family="Helvetica,sans-Serif" font-size="10.00">SimpleRateCalculation.cpp</text>
</a>
</g>
</g>
<!-- Node10&#45;&gt;Node11 -->
<g id="edge11" class="edge"><title>Node10&#45;&gt;Node11</title>
<path fill="none" stroke="midnightblue" d="M471.4,-164.232C493.473,-154.131 523.676,-140.309 542.89,-131.516"/>
<polygon fill="midnightblue" stroke="midnightblue" points="469.834,-161.1 462.197,-168.444 472.747,-167.465 469.834,-161.1"/>
</g>
<!-- Node10&#45;&gt;Node12 -->
<g id="edge12" class="edge"><title>Node10&#45;&gt;Node12</title>
<path fill="none" stroke="midnightblue" d="M434.158,-158.983C429.405,-149.817 423.844,-139.092 420.038,-131.751"/>
<polygon fill="midnightblue" stroke="midnightblue" points="431.166,-160.817 438.876,-168.083 437.38,-157.594 431.166,-160.817"/>
</g>
<!-- Node13 -->
<g id="node13" class="node"><title>Node13</title>
<g id="a_node13"><a xlink:href="BandwidthCalculator_8h.html" target="_top" xlink:title="BandwidthCalculator.h">
<polygon fill="white" stroke="black" points="357,-56.5 357,-75.5 472,-75.5 472,-56.5 357,-56.5"/>
<text text-anchor="middle" x="414.5" y="-63.5" font-family="Helvetica,sans-Serif" font-size="10.00">BandwidthCalculator.h</text>
</a>
</g>
</g>
<!-- Node12&#45;&gt;Node13 -->
<g id="edge13" class="edge"><title>Node12&#45;&gt;Node13</title>
<path fill="none" stroke="midnightblue" d="M415.145,-101.805C414.98,-92.9102 414.792,-82.7798 414.662,-75.7511"/>
<polygon fill="midnightblue" stroke="midnightblue" points="411.65,-102.15 415.335,-112.083 418.649,-102.02 411.65,-102.15"/>
</g>
<!-- Node13&#45;&gt;Node7 -->
<g id="edge15" class="edge"><title>Node13&#45;&gt;Node7</title>
<path fill="none" stroke="midnightblue" d="M380.611,-53.0392C351.823,-42.8786 311.213,-28.5457 285.63,-19.5164"/>
<polygon fill="midnightblue" stroke="midnightblue" points="379.662,-56.4157 390.257,-56.4435 381.992,-49.8148 379.662,-56.4157"/>
</g>
<!-- Node13&#45;&gt;Node8 -->
<g id="edge16" class="edge"><title>Node13&#45;&gt;Node8</title>
<path fill="none" stroke="midnightblue" d="M412.75,-46.1005C411.92,-37.1357 410.968,-26.8579 410.31,-19.7511"/>
<polygon fill="midnightblue" stroke="midnightblue" points="409.267,-46.4483 413.674,-56.083 416.237,-45.8029 409.267,-46.4483"/>
</g>
<!-- Node14 -->
<g id="node14" class="node"><title>Node14</title>
<g id="a_node14"><a xlink:href="BandwidthCalculator_8cpp.html" target="_top" xlink:title="BandwidthCalculator.cpp">
<polygon fill="white" stroke="black" points="485,-0.5 485,-19.5 610,-19.5 610,-0.5 485,-0.5"/>
<text text-anchor="middle" x="547.5" y="-7.5" font-family="Helvetica,sans-Serif" font-size="10.00">BandwidthCalculator.cpp</text>
</a>
</g>
</g>
<!-- Node13&#45;&gt;Node14 -->
<g id="edge14" class="edge"><title>Node13&#45;&gt;Node14</title>
<path fill="none" stroke="midnightblue" d="M444.948,-52.6377C469.907,-42.504 504.577,-28.4274 526.524,-19.5164"/>
<polygon fill="midnightblue" stroke="midnightblue" points="443.523,-49.4387 435.574,-56.4435 446.156,-55.9245 443.523,-49.4387"/>
</g>
</g>
</svg>
