<?xml version="1.0" encoding="UTF-8" standalone="no"?>
<!DOCTYPE svg PUBLIC "-//W3C//DTD SVG 1.1//EN"
 "http://www.w3.org/Graphics/SVG/1.1/DTD/svg11.dtd">
<!-- Generated by graphviz version 2.38.0 (20140413.2041)
 -->
<!-- Title: CurrentAndLastValues.h Pages: 1 -->
<svg width="629pt" height="252pt"
 viewBox="0.00 0.00 629.00 252.00" xmlns="http://www.w3.org/2000/svg" xmlns:xlink="http://www.w3.org/1999/xlink">
<g id="graph0" class="graph" transform="scale(1 1) rotate(0) translate(4 248)">
<title>CurrentAndLastValues.h</title>
<polygon fill="white" stroke="none" points="-4,4 -4,-248 625,-248 625,4 -4,4"/>
<!-- Node1 -->
<g id="node1" class="node"><title>Node1</title>
<polygon fill="#bfbfbf" stroke="black" points="245,-224.5 245,-243.5 368,-243.5 368,-224.5 245,-224.5"/>
<text text-anchor="middle" x="306.5" y="-231.5" font-family="Helvetica,sans-Serif" font-size="10.00">CurrentAndLastValues.h</text>
</g>
<!-- Node2 -->
<g id="node2" class="node"><title>Node2</title>
<g id="a_node2"><a xlink:href="DataRateCalculator_8h.html" target="_top" xlink:title="DataRateCalculator.h">
<polygon fill="white" stroke="black" points="27,-168.5 27,-187.5 138,-187.5 138,-168.5 27,-168.5"/>
<text text-anchor="middle" x="82.5" y="-175.5" font-family="Helvetica,sans-Serif" font-size="10.00">DataRateCalculator.h</text>
</a>
</g>
</g>
<!-- Node1&#45;&gt;Node2 -->
<g id="edge1" class="edge"><title>Node1&#45;&gt;Node2</title>
<path fill="none" stroke="midnightblue" d="M261.237,-222.088C218.918,-211.887 156.591,-196.861 117.827,-187.516"/>
<polygon fill="midnightblue" stroke="midnightblue" points="260.465,-225.502 271.007,-224.444 262.105,-218.697 260.465,-225.502"/>
</g>
<!-- Node3 -->
<g id="node3" class="node"><title>Node3</title>
<g id="a_node3"><a xlink:href="ExponentialSmoothing_8h.html" target="_top" xlink:title="ExponentialSmoothing.h">
<polygon fill="white" stroke="black" points="156.5,-168.5 156.5,-187.5 278.5,-187.5 278.5,-168.5 156.5,-168.5"/>
<text text-anchor="middle" x="217.5" y="-175.5" font-family="Helvetica,sans-Serif" font-size="10.00">ExponentialSmoothing.h</text>
</a>
</g>
</g>
<!-- Node1&#45;&gt;Node3 -->
<g id="edge2" class="edge"><title>Node1&#45;&gt;Node3</title>
<path fill="none" stroke="midnightblue" d="M283.262,-218.901C266.942,-208.999 245.635,-196.071 231.764,-187.655"/>
<polygon fill="midnightblue" stroke="midnightblue" points="281.836,-222.129 292.201,-224.324 285.467,-216.144 281.836,-222.129"/>
</g>
<!-- Node5 -->
<g id="node5" class="node"><title>Node5</title>
<g id="a_node5"><a xlink:href="ExponentialSmoothingCalculator_8h.html" target="_top" xlink:title="ExponentialSmoothingCalculator.h">
<polygon fill="white" stroke="black" points="163,-112.5 163,-131.5 330,-131.5 330,-112.5 163,-112.5"/>
<text text-anchor="middle" x="246.5" y="-119.5" font-family="Helvetica,sans-Serif" font-size="10.00">ExponentialSmoothingCalculator.h</text>
</a>
</g>
</g>
<!-- Node1&#45;&gt;Node5 -->
<g id="edge9" class="edge"><title>Node1&#45;&gt;Node5</title>
<path fill="none" stroke="midnightblue" d="M303.334,-214.077C300.53,-200.608 295.595,-182.416 287.5,-168 279.427,-153.624 265.968,-140.059 256.685,-131.654"/>
<polygon fill="midnightblue" stroke="midnightblue" points="299.929,-214.91 305.21,-224.094 306.809,-213.621 299.929,-214.91"/>
</g>
<!-- Node10 -->
<g id="node10" class="node"><title>Node10</title>
<g id="a_node10"><a xlink:href="SimpleRateCalculation_8h.html" target="_top" xlink:title="SimpleRateCalculation.h">
<polygon fill="white" stroke="black" points="373,-168.5 373,-187.5 498,-187.5 498,-168.5 373,-168.5"/>
<text text-anchor="middle" x="435.5" y="-175.5" font-family="Helvetica,sans-Serif" font-size="10.00">SimpleRateCalculation.h</text>
</a>
</g>
</g>
<!-- Node1&#45;&gt;Node10 -->
<g id="edge10" class="edge"><title>Node1&#45;&gt;Node10</title>
<path fill="none" stroke="midnightblue" d="M336.354,-220.503C360.538,-210.38 393.962,-196.388 415.155,-187.516"/>
<polygon fill="midnightblue" stroke="midnightblue" points="334.813,-217.354 326.94,-224.444 337.516,-223.811 334.813,-217.354"/>
</g>
<!-- Node12 -->
<g id="node12" class="node"><title>Node12</title>
<g id="a_node12"><a xlink:href="SimpleRateCalculator_8h.html" target="_top" xlink:title="SimpleRateCalculator.h">
<polygon fill="white" stroke="black" points="347.5,-112.5 347.5,-131.5 467.5,-131.5 467.5,-112.5 347.5,-112.5"/>
<text text-anchor="middle" x="407.5" y="-119.5" font-family="Helvetica,sans-Serif" font-size="10.00">SimpleRateCalculator.h</text>
</a>
</g>
</g>
<!-- Node1&#45;&gt;Node12 -->
<g id="edge17" class="edge"><title>Node1&#45;&gt;Node12</title>
<path fill="none" stroke="midnightblue" d="M321.122,-216.3C332.758,-203.087 349.518,-184.224 364.5,-168 376.376,-155.139 390.441,-140.535 399.169,-131.544"/>
<polygon fill="midnightblue" stroke="midnightblue" points="318.256,-214.26 314.286,-224.083 323.515,-218.879 318.256,-214.26"/>
</g>
<!-- Node4 -->
<g id="node4" class="node"><title>Node4</title>
<g id="a_node4"><a xlink:href="ExponentialSmoothing_8cpp.html" target="_top" xlink:title="ExponentialSmoothing.cpp">
<polygon fill="white" stroke="black" points="12,-112.5 12,-131.5 145,-131.5 145,-112.5 12,-112.5"/>
<text text-anchor="middle" x="78.5" y="-119.5" font-family="Helvetica,sans-Serif" font-size="10.00">ExponentialSmoothing.cpp</text>
</a>
</g>
</g>
<!-- Node3&#45;&gt;Node4 -->
<g id="edge3" class="edge"><title>Node3&#45;&gt;Node4</title>
<path fill="none" stroke="midnightblue" d="M186.024,-164.772C159.915,-154.629 123.461,-140.467 100.422,-131.516"/>
<polygon fill="midnightblue" stroke="midnightblue" points="184.886,-168.085 195.475,-168.444 187.421,-161.56 184.886,-168.085"/>
</g>
<!-- Node3&#45;&gt;Node5 -->
<g id="edge4" class="edge"><title>Node3&#45;&gt;Node5</title>
<path fill="none" stroke="midnightblue" d="M227.176,-158.983C232.098,-149.817 237.858,-139.092 241.8,-131.751"/>
<polygon fill="midnightblue" stroke="midnightblue" points="223.937,-157.617 222.289,-168.083 230.104,-160.929 223.937,-157.617"/>
</g>
<!-- Node6 -->
<g id="node6" class="node"><title>Node6</title>
<g id="a_node6"><a xlink:href="WorkConservationFlowHandler_8h.html" target="_top" xlink:title="WorkConservationFlowHandler.h">
<polygon fill="white" stroke="black" points="168,-56.5 168,-75.5 329,-75.5 329,-56.5 168,-56.5"/>
<text text-anchor="middle" x="248.5" y="-63.5" font-family="Helvetica,sans-Serif" font-size="10.00">WorkConservationFlowHandler.h</text>
</a>
</g>
</g>
<!-- Node5&#45;&gt;Node6 -->
<g id="edge5" class="edge"><title>Node5&#45;&gt;Node6</title>
<path fill="none" stroke="midnightblue" d="M247.211,-101.805C247.54,-92.9102 247.916,-82.7798 248.176,-75.7511"/>
<polygon fill="midnightblue" stroke="midnightblue" points="243.703,-101.96 246.83,-112.083 250.698,-102.219 243.703,-101.96"/>
</g>
<!-- Node7 -->
<g id="node7" class="node"><title>Node7</title>
<g id="a_node7"><a xlink:href="BandwidthCommunicator_8cpp.html" target="_top" xlink:title="BandwidthCommunicator.cpp">
<polygon fill="white" stroke="black" points="189,-0.5 189,-19.5 334,-19.5 334,-0.5 189,-0.5"/>
<text text-anchor="middle" x="261.5" y="-7.5" font-family="Helvetica,sans-Serif" font-size="10.00">BandwidthCommunicator.cpp</text>
</a>
</g>
</g>
<!-- Node6&#45;&gt;Node7 -->
<g id="edge6" class="edge"><title>Node6&#45;&gt;Node7</title>
<path fill="none" stroke="midnightblue" d="M253.05,-46.1005C255.208,-37.1357 257.682,-26.8579 259.393,-19.7511"/>
<polygon fill="midnightblue" stroke="midnightblue" points="249.585,-45.5415 250.647,-56.083 256.39,-47.18 249.585,-45.5415"/>
</g>
<!-- Node8 -->
<g id="node8" class="node"><title>Node8</title>
<g id="a_node8"><a xlink:href="MainObject_8cpp.html" target="_top" xlink:title="MainObject.cpp">
<polygon fill="white" stroke="black" points="352,-0.5 352,-19.5 437,-19.5 437,-0.5 352,-0.5"/>
<text text-anchor="middle" x="394.5" y="-7.5" font-family="Helvetica,sans-Serif" font-size="10.00">MainObject.cpp</text>
</a>
</g>
</g>
<!-- Node6&#45;&gt;Node8 -->
<g id="edge7" class="edge"><title>Node6&#45;&gt;Node8</title>
<path fill="none" stroke="midnightblue" d="M281.199,-52.9058C308.648,-42.7536 347.168,-28.5063 371.474,-19.5164"/>
<polygon fill="midnightblue" stroke="midnightblue" points="279.799,-49.6919 271.634,-56.4435 282.227,-56.2572 279.799,-49.6919"/>
</g>
<!-- Node9 -->
<g id="node9" class="node"><title>Node9</title>
<g id="a_node9"><a xlink:href="WorkConservationFlowHandler_8cpp.html" target="_top" xlink:title="WorkConservationFlowHandler.cpp">
<polygon fill="white" stroke="black" points="0,-0.5 0,-19.5 171,-19.5 171,-0.5 0,-0.5"/>
<text text-anchor="middle" x="85.5" y="-7.5" font-family="Helvetica,sans-Serif" font-size="10.00">WorkConservationFlowHandler.cpp</text>
</a>
</g>
</g>
<!-- Node6&#45;&gt;Node9 -->
<g id="edge8" class="edge"><title>Node6&#45;&gt;Node9</title>
<path fill="none" stroke="midnightblue" d="M212.797,-53.172C182.104,-43.0039 138.581,-28.5852 111.207,-19.5164"/>
<polygon fill="midnightblue" stroke="midnightblue" points="212.079,-56.6211 222.672,-56.4435 214.28,-49.9762 212.079,-56.6211"/>
</g>
<!-- Node11 -->
<g id="node11" class="node"><title>Node11</title>
<g id="a_node11"><a xlink:href="SimpleRateCalculation_8cpp.html" target="_top" xlink:title="SimpleRateCalculation.cpp">
<polygon fill="white" stroke="black" points="486,-112.5 486,-131.5 621,-131.5 621,-112.5 486,-112.5"/>
<text text-anchor="middle" x="553.5" y="-119.5" font-family="Helvetica,sans-Serif" font-size="10.00">SimpleRateCalculation.cpp</text>
</a>
</g>
</g>
<!-- Node10&#45;&gt;Node11 -->
<g id="edge11" class="edge"><title>Node10&#45;&gt;Node11</title>
<path fill="none" stroke="midnightblue" d="M463.4,-164.232C485.473,-154.131 515.676,-140.309 534.89,-131.516"/>
<polygon fill="midnightblue" stroke="midnightblue" points="461.834,-161.1 454.197,-168.444 464.747,-167.465 461.834,-161.1"/>
</g>
<!-- Node10&#45;&gt;Node12 -->
<g id="edge12" class="edge"><title>Node10&#45;&gt;Node12</title>
<path fill="none" stroke="midnightblue" d="M426.158,-158.983C421.405,-149.817 415.844,-139.092 412.038,-131.751"/>
<polygon fill="midnightblue" stroke="midnightblue" points="423.166,-160.817 430.876,-168.083 429.38,-157.594 423.166,-160.817"/>
</g>
<!-- Node13 -->
<g id="node13" class="node"><title>Node13</title>
<g id="a_node13"><a xlink:href="BandwidthCalculator_8h.html" target="_top" xlink:title="BandwidthCalculator.h">
<polygon fill="white" stroke="black" points="349,-56.5 349,-75.5 464,-75.5 464,-56.5 349,-56.5"/>
<text text-anchor="middle" x="406.5" y="-63.5" font-family="Helvetica,sans-Serif" font-size="10.00">BandwidthCalculator.h</text>
</a>
</g>
</g>
<!-- Node12&#45;&gt;Node13 -->
<g id="edge13" class="edge"><title>Node12&#45;&gt;Node13</title>
<path fill="none" stroke="midnightblue" d="M407.145,-101.805C406.98,-92.9102 406.792,-82.7798 406.662,-75.7511"/>
<polygon fill="midnightblue" stroke="midnightblue" points="403.65,-102.15 407.335,-112.083 410.649,-102.02 403.65,-102.15"/>
</g>
<!-- Node13&#45;&gt;Node7 -->
<g id="edge15" class="edge"><title>Node13&#45;&gt;Node7</title>
<path fill="none" stroke="midnightblue" d="M374.025,-52.9058C346.764,-42.7536 308.508,-28.5063 284.368,-19.5164"/>
<polygon fill="midnightblue" stroke="midnightblue" points="372.932,-56.2334 383.524,-56.4435 375.375,-49.6736 372.932,-56.2334"/>
</g>
<!-- Node13&#45;&gt;Node8 -->
<g id="edge16" class="edge"><title>Node13&#45;&gt;Node8</title>
<path fill="none" stroke="midnightblue" d="M402.3,-46.1005C400.308,-37.1357 398.024,-26.8579 396.445,-19.7511"/>
<polygon fill="midnightblue" stroke="midnightblue" points="398.932,-47.0804 404.518,-56.083 405.766,-45.5618 398.932,-47.0804"/>
</g>
<!-- Node14 -->
<g id="node14" class="node"><title>Node14</title>
<g id="a_node14"><a xlink:href="BandwidthCalculator_8cpp.html" target="_top" xlink:title="BandwidthCalculator.cpp">
<polygon fill="white" stroke="black" points="455,-0.5 455,-19.5 580,-19.5 580,-0.5 455,-0.5"/>
<text text-anchor="middle" x="517.5" y="-7.5" font-family="Helvetica,sans-Serif" font-size="10.00">BandwidthCalculator.cpp</text>
</a>
</g>
</g>
<!-- Node13&#45;&gt;Node14 -->
<g id="edge14" class="edge"><title>Node13&#45;&gt;Node14</title>
<path fill="none" stroke="midnightblue" d="M433.505,-51.8622C454.088,-41.8492 481.845,-28.3458 499.71,-19.6545"/>
<polygon fill="midnightblue" stroke="midnightblue" points="431.795,-48.8019 424.334,-56.324 434.858,-55.0966 431.795,-48.8019"/>
</g>
</g>
</svg>
