<?xml version="1.0" encoding="UTF-8" standalone="no"?>
<!DOCTYPE svg PUBLIC "-//W3C//DTD SVG 1.1//EN"
 "http://www.w3.org/Graphics/SVG/1.1/DTD/svg11.dtd">
<!-- Generated by graphviz version 2.40.1 (20161225.0304)
 -->
<!-- Title: DataRateCalculator.h Pages: 1 -->
<svg width="317pt" height="86pt"
 viewBox="0.00 0.00 316.68 86.00" xmlns="http://www.w3.org/2000/svg" xmlns:xlink="http://www.w3.org/1999/xlink">
<g id="graph0" class="graph" transform="scale(1 1) rotate(0) translate(4 82)">
<title>DataRateCalculator.h</title>
<polygon fill="#ffffff" stroke="transparent" points="-4,4 -4,-82 312.6825,-82 312.6825,4 -4,4"/>
<!-- Node0 -->
<g id="node1" class="node">
<title>Node0</title>
<polygon fill="#bfbfbf" stroke="#000000" points="58.437,-57.5 58.437,-77.5 170.008,-77.5 170.008,-57.5 58.437,-57.5"/>
<text text-anchor="middle" x="114.2225" y="-64.5" font-family="Helvetica,sans-Serif" font-size="10.00" fill="#000000">DataRateCalculator.h</text>
</g>
<!-- Node1 -->
<g id="node2" class="node">
<title>Node1</title>
<polygon fill="#ffffff" stroke="#bfbfbf" points="0,-.5 0,-20.5 40.445,-20.5 40.445,-.5 0,-.5"/>
<text text-anchor="middle" x="20.2225" y="-7.5" font-family="Helvetica,sans-Serif" font-size="10.00" fill="#000000">string</text>
</g>
<!-- Node0&#45;&gt;Node1 -->
<g id="edge1" class="edge">
<title>Node0&#45;&gt;Node1</title>
<path fill="none" stroke="#191970" d="M97.4172,-57.3095C82.9808,-48.5556 61.9534,-35.8049 45.489,-25.8211"/>
<polygon fill="#191970" stroke="#191970" points="47.2479,-22.7945 36.8823,-20.6022 43.6183,-28.7801 47.2479,-22.7945"/>
</g>
<!-- Node2 -->
<g id="node3" class="node">
<title>Node2</title>
<polygon fill="#ffffff" stroke="#bfbfbf" points="58.5555,-.5 58.5555,-20.5 107.8895,-20.5 107.8895,-.5 58.5555,-.5"/>
<text text-anchor="middle" x="83.2225" y="-7.5" font-family="Helvetica,sans-Serif" font-size="10.00" fill="#000000">fstream</text>
</g>
<!-- Node0&#45;&gt;Node2 -->
<g id="edge2" class="edge">
<title>Node0&#45;&gt;Node2</title>
<path fill="none" stroke="#191970" d="M108.6803,-57.3095C104.4925,-49.6093 98.6228,-38.8166 93.5748,-29.5349"/>
<polygon fill="#191970" stroke="#191970" points="96.5692,-27.7149 88.7167,-20.6022 90.4198,-31.0593 96.5692,-27.7149"/>
</g>
<!-- Node3 -->
<g id="node4" class="node">
<title>Node3</title>
<polygon fill="#ffffff" stroke="#bfbfbf" points="126.2795,-.5 126.2795,-20.5 166.1655,-20.5 166.1655,-.5 126.2795,-.5"/>
<text text-anchor="middle" x="146.2225" y="-7.5" font-family="Helvetica,sans-Serif" font-size="10.00" fill="#000000">ctime</text>
</g>
<!-- Node0&#45;&gt;Node3 -->
<g id="edge3" class="edge">
<title>Node0&#45;&gt;Node3</title>
<path fill="none" stroke="#191970" d="M119.9435,-57.3095C124.2664,-49.6093 130.3255,-38.8166 135.5363,-29.5349"/>
<polygon fill="#191970" stroke="#191970" points="138.7076,-31.0355 140.5511,-20.6022 132.6037,-27.6087 138.7076,-31.0355"/>
</g>
<!-- Node4 -->
<g id="node5" class="node">
<title>Node4</title>
<g id="a_node5"><a xlink:href="CurrentAndLastValues_8h.html" target="_top" xlink:title="CurrentAndLastValues.h">
<polygon fill="#ffffff" stroke="#000000" points="183.7625,-.5 183.7625,-20.5 308.6825,-20.5 308.6825,-.5 183.7625,-.5"/>
<text text-anchor="middle" x="246.2225" y="-7.5" font-family="Helvetica,sans-Serif" font-size="10.00" fill="#000000">CurrentAndLastValues.h</text>
</a>
</g>
</g>
<!-- Node0&#45;&gt;Node4 -->
<g id="edge4" class="edge">
<title>Node0&#45;&gt;Node4</title>
<path fill="none" stroke="#191970" d="M137.5176,-57.4408C158.5939,-48.3396 189.8524,-34.8416 213.447,-24.6531"/>
<polygon fill="#191970" stroke="#191970" points="214.9232,-27.8281 222.7163,-20.6504 212.1481,-21.4016 214.9232,-27.8281"/>
</g>
</g>
</svg>
