<?xml version="1.0" encoding="UTF-8" standalone="no"?>
<!DOCTYPE svg PUBLIC "-//W3C//DTD SVG 1.1//EN"
 "http://www.w3.org/Graphics/SVG/1.1/DTD/svg11.dtd">
<!-- Generated by graphviz version 2.38.0 (20140413.2041)
 -->
<!-- Title: TestHandler Pages: 1 -->
<svg width="110pt" height="204pt"
 viewBox="0.00 0.00 110.00 204.00" xmlns="http://www.w3.org/2000/svg" xmlns:xlink="http://www.w3.org/1999/xlink">
<g id="graph0" class="graph" transform="scale(1 1) rotate(0) translate(4 200)">
<title>TestHandler</title>
<polygon fill="white" stroke="none" points="-4,4 -4,-200 106,-200 106,4 -4,4"/>
<g id="clust1" class="cluster"><title>clusterdir_adb943377f6246f8b5e4ab6e098f2181</title>
<g id="a_clust1"><a xlink:href="dir_adb943377f6246f8b5e4ab6e098f2181.html" target="_top">
<polygon fill="#eeeeff" stroke="black" points="8,-64 8,-188 94,-188 94,-64 8,-64"/>
</a>
</g>
</g>
<!-- dir_adb943377f6246f8b5e4ab6e098f2181 -->
<g id="node1" class="node"><title>dir_adb943377f6246f8b5e4ab6e098f2181</title>
<text text-anchor="middle" x="51" y="-159.5" font-family="Helvetica,sans-Serif" font-size="10.00">TestHandler</text>
</g>
<!-- dir_62cf4afefef4ba88b9e9b3379e801f04 -->
<g id="node2" class="node"><title>dir_62cf4afefef4ba88b9e9b3379e801f04</title>
<g id="a_node2"><a xlink:href="dir_62cf4afefef4ba88b9e9b3379e801f04.html" target="_top" xlink:title="Tests">
<polygon fill="white" stroke="black" points="74,-108 20,-108 20,-72 74,-72 74,-108"/>
<text text-anchor="middle" x="47" y="-87.5" font-family="Helvetica,sans-Serif" font-size="10.00">Tests</text>
</a>
</g>
</g>
<!-- dir_adb943377f6246f8b5e4ab6e098f2181&#45;&gt;dir_62cf4afefef4ba88b9e9b3379e801f04 -->
<g id="edge3" class="edge"><title>dir_adb943377f6246f8b5e4ab6e098f2181&#45;&gt;dir_62cf4afefef4ba88b9e9b3379e801f04</title>
<path fill="none" stroke="black" d="M50.0112,-143.697C49.5704,-135.983 49.0407,-126.712 48.5493,-118.112"/>
<polygon fill="black" stroke="black" points="52.0423,-117.888 47.9774,-108.104 45.0537,-118.288 52.0423,-117.888"/>
<g id="a_edge3&#45;headlabel"><a xlink:href="dir_000002_000003.html" target="_top" xlink:title="4">
<text text-anchor="middle" x="55.0819" y="-118.815" font-family="Helvetica,sans-Serif" font-size="10.00">4</text>
</a>
</g>
</g>
<!-- dir_4ab6b4cc6a7edbff49100e9123df213f -->
<g id="node3" class="node"><title>dir_4ab6b4cc6a7edbff49100e9123df213f</title>
<g id="a_node3"><a xlink:href="dir_4ab6b4cc6a7edbff49100e9123df213f.html" target="_top" xlink:title="Common">
<polygon fill="none" stroke="black" points="102,-36 46,-36 46,-0 102,-0 102,-36"/>
<text text-anchor="middle" x="74" y="-15.5" font-family="Helvetica,sans-Serif" font-size="10.00">Common</text>
</a>
</g>
</g>
<!-- dir_adb943377f6246f8b5e4ab6e098f2181&#45;&gt;dir_4ab6b4cc6a7edbff49100e9123df213f -->
<g id="edge2" class="edge"><title>dir_adb943377f6246f8b5e4ab6e098f2181&#45;&gt;dir_4ab6b4cc6a7edbff49100e9123df213f</title>
<path fill="none" stroke="black" d="M64.5643,-143.972C71.5581,-134.09 79.3668,-121.047 83,-108 88.6768,-87.6146 85.7609,-63.7162 81.7911,-45.8197"/>
<polygon fill="black" stroke="black" points="85.1751,-44.9233 79.389,-36.0479 78.3774,-46.5943 85.1751,-44.9233"/>
<g id="a_edge2&#45;headlabel"><a xlink:href="dir_000002_000004.html" target="_top" xlink:title="8">
<text text-anchor="middle" x="88.7903" y="-45.2362" font-family="Helvetica,sans-Serif" font-size="10.00">8</text>
</a>
</g>
</g>
<!-- dir_62cf4afefef4ba88b9e9b3379e801f04&#45;&gt;dir_4ab6b4cc6a7edbff49100e9123df213f -->
<g id="edge1" class="edge"><title>dir_62cf4afefef4ba88b9e9b3379e801f04&#45;&gt;dir_4ab6b4cc6a7edbff49100e9123df213f</title>
<path fill="none" stroke="black" d="M53.6742,-71.6966C56.7149,-63.8132 60.3827,-54.3042 63.7607,-45.5464"/>
<polygon fill="black" stroke="black" points="67.0693,-46.6939 67.4026,-36.1043 60.5383,-44.1748 67.0693,-46.6939"/>
<g id="a_edge1&#45;headlabel"><a xlink:href="dir_000003_000004.html" target="_top" xlink:title="5">
<text text-anchor="middle" x="68.4248" y="-48.5695" font-family="Helvetica,sans-Serif" font-size="10.00">5</text>
</a>
</g>
</g>
</g>
</svg>
