<?xml version="1.0" encoding="UTF-8" standalone="no"?>
<!DOCTYPE svg PUBLIC "-//W3C//DTD SVG 1.1//EN"
 "http://www.w3.org/Graphics/SVG/1.1/DTD/svg11.dtd">
<!-- Generated by graphviz version 2.38.0 (20140413.2041)
 -->
<!-- Title: TestHandler Pages: 1 -->
<svg width="166pt" height="148pt"
 viewBox="0.00 0.00 166.00 148.00" xmlns="http://www.w3.org/2000/svg" xmlns:xlink="http://www.w3.org/1999/xlink">
<g id="graph0" class="graph" transform="scale(1 1) rotate(0) translate(4 144)">
<title>TestHandler</title>
<polygon fill="white" stroke="none" points="-4,4 -4,-144 162,-144 162,4 -4,4"/>
<g id="clust1" class="cluster"><title>clusterdir_adb943377f6246f8b5e4ab6e098f2181</title>
<g id="a_clust1"><a xlink:href="dir_adb943377f6246f8b5e4ab6e098f2181.html" target="_top">
<polygon fill="#eeeeff" stroke="black" points="8,-8 8,-132 94,-132 94,-8 8,-8"/>
</a>
</g>
</g>
<!-- dir_adb943377f6246f8b5e4ab6e098f2181 -->
<g id="node1" class="node"><title>dir_adb943377f6246f8b5e4ab6e098f2181</title>
<text text-anchor="middle" x="51" y="-103.5" font-family="Helvetica,sans-Serif" font-size="10.00">TestHandler</text>
</g>
<!-- dir_62cf4afefef4ba88b9e9b3379e801f04 -->
<g id="node2" class="node"><title>dir_62cf4afefef4ba88b9e9b3379e801f04</title>
<g id="a_node2"><a xlink:href="dir_62cf4afefef4ba88b9e9b3379e801f04.html" target="_top" xlink:title="Tests">
<polygon fill="white" stroke="black" points="78,-52 24,-52 24,-16 78,-16 78,-52"/>
<text text-anchor="middle" x="51" y="-31.5" font-family="Helvetica,sans-Serif" font-size="10.00">Tests</text>
</a>
</g>
</g>
<!-- dir_adb943377f6246f8b5e4ab6e098f2181&#45;&gt;dir_62cf4afefef4ba88b9e9b3379e801f04 -->
<g id="edge2" class="edge"><title>dir_adb943377f6246f8b5e4ab6e098f2181&#45;&gt;dir_62cf4afefef4ba88b9e9b3379e801f04</title>
<path fill="none" stroke="black" d="M51,-87.6966C51,-79.9827 51,-70.7125 51,-62.1124"/>
<polygon fill="black" stroke="black" points="54.5001,-62.1043 51,-52.1043 47.5001,-62.1044 54.5001,-62.1043"/>
<g id="a_edge2&#45;headlabel"><a xlink:href="dir_000002_000005.html" target="_top" xlink:title="2">
<text text-anchor="middle" x="57.3393" y="-63.199" font-family="Helvetica,sans-Serif" font-size="10.00">2</text>
</a>
</g>
</g>
<!-- dir_4ab6b4cc6a7edbff49100e9123df213f -->
<g id="node3" class="node"><title>dir_4ab6b4cc6a7edbff49100e9123df213f</title>
<g id="a_node3"><a xlink:href="dir_4ab6b4cc6a7edbff49100e9123df213f.html" target="_top" xlink:title="Common">
<polygon fill="none" stroke="black" points="158,-52 102,-52 102,-16 158,-16 158,-52"/>
<text text-anchor="middle" x="130" y="-31.5" font-family="Helvetica,sans-Serif" font-size="10.00">Common</text>
</a>
</g>
</g>
<!-- dir_adb943377f6246f8b5e4ab6e098f2181&#45;&gt;dir_4ab6b4cc6a7edbff49100e9123df213f -->
<g id="edge1" class="edge"><title>dir_adb943377f6246f8b5e4ab6e098f2181&#45;&gt;dir_4ab6b4cc6a7edbff49100e9123df213f</title>
<path fill="none" stroke="black" d="M70.5281,-87.6966C80.3818,-78.9655 92.4857,-68.2405 103.196,-58.7503"/>
<polygon fill="black" stroke="black" points="105.533,-61.3558 110.697,-52.1043 100.891,-56.1166 105.533,-61.3558"/>
<g id="a_edge1&#45;headlabel"><a xlink:href="dir_000002_000003.html" target="_top" xlink:title="2">
<text text-anchor="middle" x="104.726" y="-63.3648" font-family="Helvetica,sans-Serif" font-size="10.00">2</text>
</a>
</g>
</g>
</g>
</svg>
