<?xml version="1.0" encoding="UTF-8" standalone="no"?>
<!DOCTYPE svg PUBLIC "-//W3C//DTD SVG 1.1//EN"
 "http://www.w3.org/Graphics/SVG/1.1/DTD/svg11.dtd">
<!-- Generated by graphviz version 2.38.0 (20140413.2041)
 -->
<!-- Title: ExponentialSmoothingCalculator.h Pages: 1 -->
<svg width="242pt" height="140pt"
 viewBox="0.00 0.00 241.50 140.00" xmlns="http://www.w3.org/2000/svg" xmlns:xlink="http://www.w3.org/1999/xlink">
<g id="graph0" class="graph" transform="scale(1 1) rotate(0) translate(4 136)">
<title>ExponentialSmoothingCalculator.h</title>
<polygon fill="white" stroke="none" points="-4,4 -4,-136 237.5,-136 237.5,4 -4,4"/>
<!-- Node1 -->
<g id="node1" class="node"><title>Node1</title>
<polygon fill="#bfbfbf" stroke="black" points="0,-112.5 0,-131.5 167,-131.5 167,-112.5 0,-112.5"/>
<text text-anchor="middle" x="83.5" y="-119.5" font-family="Helvetica,sans-Serif" font-size="10.00">ExponentialSmoothingCalculator.h</text>
</g>
<!-- Node2 -->
<g id="node2" class="node"><title>Node2</title>
<polygon fill="white" stroke="#bfbfbf" points="14,-56.5 14,-75.5 55,-75.5 55,-56.5 14,-56.5"/>
<text text-anchor="middle" x="34.5" y="-63.5" font-family="Helvetica,sans-Serif" font-size="10.00">ctime</text>
</g>
<!-- Node1&#45;&gt;Node2 -->
<g id="edge1" class="edge"><title>Node1&#45;&gt;Node2</title>
<path fill="none" stroke="midnightblue" d="M75.4086,-112.083C68.3446,-104.298 57.9124,-92.8015 49.3511,-83.3665"/>
<polygon fill="midnightblue" stroke="midnightblue" points="51.7527,-80.8047 42.4408,-75.7511 46.5688,-85.5087 51.7527,-80.8047"/>
</g>
<!-- Node3 -->
<g id="node3" class="node"><title>Node3</title>
<g id="a_node3"><a xlink:href="CurrentAndLastValues_8h.html" target="_top" xlink:title="CurrentAndLastValues.h">
<polygon fill="white" stroke="black" points="22,-0.5 22,-19.5 145,-19.5 145,-0.5 22,-0.5"/>
<text text-anchor="middle" x="83.5" y="-7.5" font-family="Helvetica,sans-Serif" font-size="10.00">CurrentAndLastValues.h</text>
</a>
</g>
</g>
<!-- Node1&#45;&gt;Node3 -->
<g id="edge2" class="edge"><title>Node1&#45;&gt;Node3</title>
<path fill="none" stroke="midnightblue" d="M83.5,-112.368C83.5,-94.617 83.5,-53.6664 83.5,-29.5974"/>
<polygon fill="midnightblue" stroke="midnightblue" points="87.0001,-29.5914 83.5,-19.5914 80.0001,-29.5915 87.0001,-29.5914"/>
</g>
<!-- Node4 -->
<g id="node4" class="node"><title>Node4</title>
<g id="a_node4"><a xlink:href="ExponentialSmoothing_8h.html" target="_top" xlink:title="ExponentialSmoothing.h">
<polygon fill="white" stroke="black" points="111.5,-56.5 111.5,-75.5 233.5,-75.5 233.5,-56.5 111.5,-56.5"/>
<text text-anchor="middle" x="172.5" y="-63.5" font-family="Helvetica,sans-Serif" font-size="10.00">ExponentialSmoothing.h</text>
</a>
</g>
</g>
<!-- Node1&#45;&gt;Node4 -->
<g id="edge3" class="edge"><title>Node1&#45;&gt;Node4</title>
<path fill="none" stroke="midnightblue" d="M97.7994,-112.324C111.683,-103.9 132.992,-90.9709 149.304,-81.0741"/>
<polygon fill="midnightblue" stroke="midnightblue" points="151.502,-83.8341 158.236,-75.6545 147.871,-77.8495 151.502,-83.8341"/>
</g>
<!-- Node4&#45;&gt;Node3 -->
<g id="edge5" class="edge"><title>Node4&#45;&gt;Node3</title>
<path fill="none" stroke="midnightblue" d="M158.201,-56.324C144.317,-47.9002 123.008,-34.9709 106.696,-25.0741"/>
<polygon fill="midnightblue" stroke="midnightblue" points="108.129,-21.8495 97.7639,-19.6545 104.498,-27.8341 108.129,-21.8495"/>
</g>
<!-- Node5 -->
<g id="node5" class="node"><title>Node5</title>
<polygon fill="white" stroke="#bfbfbf" points="163.5,-0.5 163.5,-19.5 207.5,-19.5 207.5,-0.5 163.5,-0.5"/>
<text text-anchor="middle" x="185.5" y="-7.5" font-family="Helvetica,sans-Serif" font-size="10.00">time.h</text>
</g>
<!-- Node4&#45;&gt;Node5 -->
<g id="edge4" class="edge"><title>Node4&#45;&gt;Node5</title>
<path fill="none" stroke="midnightblue" d="M174.647,-56.083C176.369,-48.9272 178.847,-38.6353 181,-29.6911"/>
<polygon fill="midnightblue" stroke="midnightblue" points="184.455,-30.2925 183.393,-19.7511 177.65,-28.6541 184.455,-30.2925"/>
</g>
</g>
</svg>
