<?xml version="1.0" encoding="UTF-8" standalone="no"?>
<!DOCTYPE svg PUBLIC "-//W3C//DTD SVG 1.1//EN"
 "http://www.w3.org/Graphics/SVG/1.1/DTD/svg11.dtd">
<!-- Generated by graphviz version 2.40.1 (20161225.0304)
 -->
<!-- Title: ExponentialSmoothing.h Pages: 1 -->
<svg width="218pt" height="86pt"
 viewBox="0.00 0.00 217.75 86.00" xmlns="http://www.w3.org/2000/svg" xmlns:xlink="http://www.w3.org/1999/xlink">
<g id="graph0" class="graph" transform="scale(1 1) rotate(0) translate(4 82)">
<title>ExponentialSmoothing.h</title>
<polygon fill="#ffffff" stroke="transparent" points="-4,4 -4,-82 213.7455,-82 213.7455,4 -4,4"/>
<!-- Node3 -->
<g id="node1" class="node">
<title>Node3</title>
<polygon fill="#bfbfbf" stroke="#000000" points="62.2795,-57.5 62.2795,-77.5 186.6485,-77.5 186.6485,-57.5 62.2795,-57.5"/>
<text text-anchor="middle" x="124.464" y="-64.5" font-family="Helvetica,sans-Serif" font-size="10.00" fill="#000000">ExponentialSmoothing.h</text>
</g>
<!-- Node4 -->
<g id="node2" class="node">
<title>Node4</title>
<g id="a_node2"><a xlink:href="ExponentialSmoothing_8cpp.html" target="_top" xlink:title="ExponentialSmoothing.cpp">
<polygon fill="#ffffff" stroke="#000000" points="0,-.5 0,-20.5 134.928,-20.5 134.928,-.5 0,-.5"/>
<text text-anchor="middle" x="67.464" y="-7.5" font-family="Helvetica,sans-Serif" font-size="10.00" fill="#000000">ExponentialSmoothing.cpp</text>
</a>
</g>
</g>
<!-- Node3&#45;&gt;Node4 -->
<g id="edge1" class="edge">
<title>Node3&#45;&gt;Node4</title>
<path fill="none" stroke="#191970" d="M107.0644,-50.1004C97.4043,-40.4403 85.7276,-28.7636 77.5662,-20.6022"/>
<polygon fill="#191970" stroke="#191970" points="104.7276,-52.7133 114.2735,-57.3095 109.6773,-47.7636 104.7276,-52.7133"/>
</g>
<!-- Node5 -->
<g id="node3" class="node">
<title>Node5</title>
<g id="a_node3"><a xlink:href="main_8cpp.html" target="_top" xlink:title="main.cpp">
<polygon fill="#ffffff" stroke="#000000" points="153.1825,-.5 153.1825,-20.5 209.7455,-20.5 209.7455,-.5 153.1825,-.5"/>
<text text-anchor="middle" x="181.464" y="-7.5" font-family="Helvetica,sans-Serif" font-size="10.00" fill="#000000">main.cpp</text>
</a>
</g>
</g>
<!-- Node3&#45;&gt;Node5 -->
<g id="edge2" class="edge">
<title>Node3&#45;&gt;Node5</title>
<path fill="none" stroke="#191970" d="M141.8636,-50.1004C151.5237,-40.4403 163.2004,-28.7636 171.3618,-20.6022"/>
<polygon fill="#191970" stroke="#191970" points="139.2507,-47.7636 134.6545,-57.3095 144.2004,-52.7133 139.2507,-47.7636"/>
</g>
</g>
</svg>
