<?xml version="1.0" encoding="UTF-8" standalone="no"?>
<!DOCTYPE svg PUBLIC "-//W3C//DTD SVG 1.1//EN"
 "http://www.w3.org/Graphics/SVG/1.1/DTD/svg11.dtd">
<!-- Generated by graphviz version 2.38.0 (20140413.2041)
 -->
<!-- Title: ExponentialSmoothing.h Pages: 1 -->
<svg width="401pt" height="196pt"
 viewBox="0.00 0.00 401.00 196.00" xmlns="http://www.w3.org/2000/svg" xmlns:xlink="http://www.w3.org/1999/xlink">
<g id="graph0" class="graph" transform="scale(1 1) rotate(0) translate(4 192)">
<title>ExponentialSmoothing.h</title>
<polygon fill="white" stroke="none" points="-4,4 -4,-192 397,-192 397,4 -4,4"/>
<!-- Node1 -->
<g id="node1" class="node"><title>Node1</title>
<polygon fill="#bfbfbf" stroke="black" points="89.5,-168.5 89.5,-187.5 211.5,-187.5 211.5,-168.5 89.5,-168.5"/>
<text text-anchor="middle" x="150.5" y="-175.5" font-family="Helvetica,sans-Serif" font-size="10.00">ExponentialSmoothing.h</text>
</g>
<!-- Node2 -->
<g id="node2" class="node"><title>Node2</title>
<g id="a_node2"><a xlink:href="ExponentialSmoothing_8cpp.html" target="_top" xlink:title="ExponentialSmoothing.cpp">
<polygon fill="white" stroke="black" points="0,-112.5 0,-131.5 133,-131.5 133,-112.5 0,-112.5"/>
<text text-anchor="middle" x="66.5" y="-119.5" font-family="Helvetica,sans-Serif" font-size="10.00">ExponentialSmoothing.cpp</text>
</a>
</g>
</g>
<!-- Node1&#45;&gt;Node2 -->
<g id="edge1" class="edge"><title>Node1&#45;&gt;Node2</title>
<path fill="none" stroke="midnightblue" d="M128.568,-162.901C113.165,-152.999 93.0542,-140.071 79.9626,-131.655"/>
<polygon fill="midnightblue" stroke="midnightblue" points="126.699,-165.86 137.004,-168.324 130.485,-159.972 126.699,-165.86"/>
</g>
<!-- Node3 -->
<g id="node3" class="node"><title>Node3</title>
<g id="a_node3"><a xlink:href="ExponentialSmoothingCalculator_8h.html" target="_top" xlink:title="ExponentialSmoothingCalculator.h">
<polygon fill="white" stroke="black" points="151,-112.5 151,-131.5 318,-131.5 318,-112.5 151,-112.5"/>
<text text-anchor="middle" x="234.5" y="-119.5" font-family="Helvetica,sans-Serif" font-size="10.00">ExponentialSmoothingCalculator.h</text>
</a>
</g>
</g>
<!-- Node1&#45;&gt;Node3 -->
<g id="edge2" class="edge"><title>Node1&#45;&gt;Node3</title>
<path fill="none" stroke="midnightblue" d="M172.432,-162.901C187.835,-152.999 207.946,-140.071 221.037,-131.655"/>
<polygon fill="midnightblue" stroke="midnightblue" points="170.515,-159.972 163.996,-168.324 174.301,-165.86 170.515,-159.972"/>
</g>
<!-- Node4 -->
<g id="node4" class="node"><title>Node4</title>
<g id="a_node4"><a xlink:href="WorkConservationFlowHandler_8h.html" target="_top" xlink:title="WorkConservationFlowHandler.h">
<polygon fill="white" stroke="black" points="154,-56.5 154,-75.5 315,-75.5 315,-56.5 154,-56.5"/>
<text text-anchor="middle" x="234.5" y="-63.5" font-family="Helvetica,sans-Serif" font-size="10.00">WorkConservationFlowHandler.h</text>
</a>
</g>
</g>
<!-- Node3&#45;&gt;Node4 -->
<g id="edge3" class="edge"><title>Node3&#45;&gt;Node4</title>
<path fill="none" stroke="midnightblue" d="M234.5,-101.805C234.5,-92.9102 234.5,-82.7798 234.5,-75.7511"/>
<polygon fill="midnightblue" stroke="midnightblue" points="231,-102.083 234.5,-112.083 238,-102.083 231,-102.083"/>
</g>
<!-- Node5 -->
<g id="node5" class="node"><title>Node5</title>
<g id="a_node5"><a xlink:href="WCEnabler_2MainObject_8cpp.html" target="_top" xlink:title="MainObject.cpp">
<polygon fill="white" stroke="black" points="119,-0.5 119,-19.5 204,-19.5 204,-0.5 119,-0.5"/>
<text text-anchor="middle" x="161.5" y="-7.5" font-family="Helvetica,sans-Serif" font-size="10.00">MainObject.cpp</text>
</a>
</g>
</g>
<!-- Node4&#45;&gt;Node5 -->
<g id="edge4" class="edge"><title>Node4&#45;&gt;Node5</title>
<path fill="none" stroke="midnightblue" d="M214.358,-50.1008C201.221,-40.3824 184.518,-28.0269 173.442,-19.8339"/>
<polygon fill="midnightblue" stroke="midnightblue" points="212.65,-53.1907 222.771,-56.324 216.813,-47.5631 212.65,-53.1907"/>
</g>
<!-- Node6 -->
<g id="node6" class="node"><title>Node6</title>
<g id="a_node6"><a xlink:href="WorkConservationFlowHandler_8cpp.html" target="_top" xlink:title="WorkConservationFlowHandler.cpp">
<polygon fill="white" stroke="black" points="222,-0.5 222,-19.5 393,-19.5 393,-0.5 222,-0.5"/>
<text text-anchor="middle" x="307.5" y="-7.5" font-family="Helvetica,sans-Serif" font-size="10.00">WorkConservationFlowHandler.cpp</text>
</a>
</g>
</g>
<!-- Node4&#45;&gt;Node6 -->
<g id="edge5" class="edge"><title>Node4&#45;&gt;Node6</title>
<path fill="none" stroke="midnightblue" d="M254.642,-50.1008C267.779,-40.3824 284.482,-28.0269 295.558,-19.8339"/>
<polygon fill="midnightblue" stroke="midnightblue" points="252.187,-47.5631 246.229,-56.324 256.35,-53.1907 252.187,-47.5631"/>
</g>
</g>
</svg>
