<?xml version="1.0" encoding="UTF-8" standalone="no"?>
<!DOCTYPE svg PUBLIC "-//W3C//DTD SVG 1.1//EN"
 "http://www.w3.org/Graphics/SVG/1.1/DTD/svg11.dtd">
<!-- Generated by graphviz version 2.38.0 (20140413.2041)
 -->
<!-- Title: ExponentialSmoothing.h Pages: 1 -->
<svg width="194pt" height="84pt"
 viewBox="0.00 0.00 193.50 84.00" xmlns="http://www.w3.org/2000/svg" xmlns:xlink="http://www.w3.org/1999/xlink">
<g id="graph0" class="graph" transform="scale(1 1) rotate(0) translate(4 80)">
<title>ExponentialSmoothing.h</title>
<polygon fill="white" stroke="none" points="-4,4 -4,-80 189.5,-80 189.5,4 -4,4"/>
<!-- Node1 -->
<g id="node1" class="node"><title>Node1</title>
<polygon fill="#bfbfbf" stroke="black" points="12,-56.5 12,-75.5 134,-75.5 134,-56.5 12,-56.5"/>
<text text-anchor="middle" x="73" y="-63.5" font-family="Helvetica,sans-Serif" font-size="10.00">ExponentialSmoothing.h</text>
</g>
<!-- Node2 -->
<g id="node2" class="node"><title>Node2</title>
<polygon fill="white" stroke="#bfbfbf" points="0,-0.5 0,-19.5 44,-19.5 44,-0.5 0,-0.5"/>
<text text-anchor="middle" x="22" y="-7.5" font-family="Helvetica,sans-Serif" font-size="10.00">time.h</text>
</g>
<!-- Node1&#45;&gt;Node2 -->
<g id="edge1" class="edge"><title>Node1&#45;&gt;Node2</title>
<path fill="none" stroke="midnightblue" d="M64.5784,-56.083C57.1518,-48.2195 46.1483,-36.5688 37.1878,-27.0813"/>
<polygon fill="midnightblue" stroke="midnightblue" points="39.6757,-24.618 30.2649,-19.7511 34.5866,-29.4244 39.6757,-24.618"/>
</g>
<!-- Node3 -->
<g id="node3" class="node"><title>Node3</title>
<g id="a_node3"><a xlink:href="CurrentAndLastValues_8h.html" target="_top" xlink:title="CurrentAndLastValues.h">
<polygon fill="white" stroke="black" points="62.5,-0.5 62.5,-19.5 185.5,-19.5 185.5,-0.5 62.5,-0.5"/>
<text text-anchor="middle" x="124" y="-7.5" font-family="Helvetica,sans-Serif" font-size="10.00">CurrentAndLastValues.h</text>
</a>
</g>
</g>
<!-- Node1&#45;&gt;Node3 -->
<g id="edge2" class="edge"><title>Node1&#45;&gt;Node3</title>
<path fill="none" stroke="midnightblue" d="M81.4216,-56.083C88.8482,-48.2195 99.8517,-36.5688 108.812,-27.0813"/>
<polygon fill="midnightblue" stroke="midnightblue" points="111.413,-29.4244 115.735,-19.7511 106.324,-24.618 111.413,-29.4244"/>
</g>
</g>
</svg>
