<?xml version="1.0" encoding="UTF-8" standalone="no"?>
<!DOCTYPE svg PUBLIC "-//W3C//DTD SVG 1.1//EN"
 "http://www.w3.org/Graphics/SVG/1.1/DTD/svg11.dtd">
<!-- Generated by graphviz version 2.40.1 (20161225.0304)
 -->
<!-- Title: ExponentialSmoothing.h Pages: 1 -->
<svg width="194pt" height="86pt"
 viewBox="0.00 0.00 194.07 86.00" xmlns="http://www.w3.org/2000/svg" xmlns:xlink="http://www.w3.org/1999/xlink">
<g id="graph0" class="graph" transform="scale(1 1) rotate(0) translate(4 82)">
<title>ExponentialSmoothing.h</title>
<polygon fill="#ffffff" stroke="transparent" points="-4,4 -4,-82 190.072,-82 190.072,4 -4,4"/>
<!-- Node0 -->
<g id="node1" class="node">
<title>Node0</title>
<polygon fill="#bfbfbf" stroke="#000000" points="51.2755,-57.5 51.2755,-77.5 175.6445,-77.5 175.6445,-57.5 51.2755,-57.5"/>
<text text-anchor="middle" x="113.46" y="-64.5" font-family="Helvetica,sans-Serif" font-size="10.00" fill="#000000">ExponentialSmoothing.h</text>
</g>
<!-- Node1 -->
<g id="node2" class="node">
<title>Node1</title>
<g id="a_node2"><a xlink:href="CurrentAndLastValues_8h.html" target="_top" xlink:title="CurrentAndLastValues.h">
<polygon fill="#ffffff" stroke="#000000" points="0,-.5 0,-20.5 124.92,-20.5 124.92,-.5 0,-.5"/>
<text text-anchor="middle" x="62.46" y="-7.5" font-family="Helvetica,sans-Serif" font-size="10.00" fill="#000000">CurrentAndLastValues.h</text>
</a>
</g>
</g>
<!-- Node0&#45;&gt;Node1 -->
<g id="edge1" class="edge">
<title>Node0&#45;&gt;Node1</title>
<path fill="none" stroke="#191970" d="M104.3422,-57.3095C97.0899,-49.204 86.7717,-37.672 78.1918,-28.0826"/>
<polygon fill="#191970" stroke="#191970" points="80.7752,-25.7209 71.4988,-20.6022 75.5585,-30.3885 80.7752,-25.7209"/>
</g>
<!-- Node2 -->
<g id="node3" class="node">
<title>Node2</title>
<polygon fill="#ffffff" stroke="#bfbfbf" points="142.848,-.5 142.848,-20.5 186.072,-20.5 186.072,-.5 142.848,-.5"/>
<text text-anchor="middle" x="164.46" y="-7.5" font-family="Helvetica,sans-Serif" font-size="10.00" fill="#000000">time.h</text>
</g>
<!-- Node0&#45;&gt;Node2 -->
<g id="edge2" class="edge">
<title>Node0&#45;&gt;Node2</title>
<path fill="none" stroke="#191970" d="M122.5778,-57.3095C129.8301,-49.204 140.1483,-37.672 148.7282,-28.0826"/>
<polygon fill="#191970" stroke="#191970" points="151.3615,-30.3885 155.4212,-20.6022 146.1448,-25.7209 151.3615,-30.3885"/>
</g>
</g>
</svg>
