<?xml version="1.0" encoding="UTF-8" standalone="no"?>
<!DOCTYPE svg PUBLIC "-//W3C//DTD SVG 1.1//EN"
 "http://www.w3.org/Graphics/SVG/1.1/DTD/svg11.dtd">
<!-- Generated by graphviz version 2.38.0 (20140413.2041)
 -->
<!-- Title: HandleHostBandwidth.cpp Pages: 1 -->
<svg width="815pt" height="196pt"
 viewBox="0.00 0.00 815.00 196.00" xmlns="http://www.w3.org/2000/svg" xmlns:xlink="http://www.w3.org/1999/xlink">
<g id="graph0" class="graph" transform="scale(1 1) rotate(0) translate(4 192)">
<title>HandleHostBandwidth.cpp</title>
<polygon fill="white" stroke="none" points="-4,4 -4,-192 811,-192 811,4 -4,4"/>
<!-- Node1 -->
<g id="node1" class="node"><title>Node1</title>
<polygon fill="#bfbfbf" stroke="black" points="448.5,-168.5 448.5,-187.5 581.5,-187.5 581.5,-168.5 448.5,-168.5"/>
<text text-anchor="middle" x="515" y="-175.5" font-family="Helvetica,sans-Serif" font-size="10.00">HandleHostBandwidth.cpp</text>
</g>
<!-- Node2 -->
<g id="node2" class="node"><title>Node2</title>
<g id="a_node2"><a xlink:href="HandleHostBandwidth_8h.html" target="_top" xlink:title="HandleHostBandwidth.h">
<polygon fill="white" stroke="black" points="180,-112.5 180,-131.5 302,-131.5 302,-112.5 180,-112.5"/>
<text text-anchor="middle" x="241" y="-119.5" font-family="Helvetica,sans-Serif" font-size="10.00">HandleHostBandwidth.h</text>
</a>
</g>
</g>
<!-- Node1&#45;&gt;Node2 -->
<g id="edge1" class="edge"><title>Node1&#45;&gt;Node2</title>
<path fill="none" stroke="midnightblue" d="M471.584,-168.444C423.485,-158.964 345.905,-143.675 294.194,-133.483"/>
<polygon fill="midnightblue" stroke="midnightblue" points="294.701,-130.016 284.213,-131.516 293.347,-136.884 294.701,-130.016"/>
</g>
<!-- Node8 -->
<g id="node8" class="node"><title>Node8</title>
<polygon fill="white" stroke="#bfbfbf" points="301.5,-0.5 301.5,-19.5 342.5,-19.5 342.5,-0.5 301.5,-0.5"/>
<text text-anchor="middle" x="322" y="-7.5" font-family="Helvetica,sans-Serif" font-size="10.00">string</text>
</g>
<!-- Node1&#45;&gt;Node8 -->
<g id="edge12" class="edge"><title>Node1&#45;&gt;Node8</title>
<path fill="none" stroke="midnightblue" d="M481.727,-168.436C460.281,-161.525 432.961,-149.946 414,-132 386.427,-105.902 398.59,-85.7468 375,-56 365.976,-44.6213 353.728,-33.9987 343.279,-25.9347"/>
<polygon fill="midnightblue" stroke="midnightblue" points="345.148,-22.9628 335.036,-19.8023 340.97,-28.5792 345.148,-22.9628"/>
</g>
<!-- Node10 -->
<g id="node10" class="node"><title>Node10</title>
<polygon fill="white" stroke="#bfbfbf" points="422.5,-112.5 422.5,-131.5 473.5,-131.5 473.5,-112.5 422.5,-112.5"/>
<text text-anchor="middle" x="448" y="-119.5" font-family="Helvetica,sans-Serif" font-size="10.00">unistd.h</text>
</g>
<!-- Node1&#45;&gt;Node10 -->
<g id="edge9" class="edge"><title>Node1&#45;&gt;Node10</title>
<path fill="none" stroke="midnightblue" d="M504.235,-168.324C494.234,-160.263 479.113,-148.077 467.07,-138.369"/>
<polygon fill="midnightblue" stroke="midnightblue" points="468.943,-135.384 458.961,-131.834 464.55,-140.834 468.943,-135.384"/>
</g>
<!-- Node11 -->
<g id="node11" class="node"><title>Node11</title>
<polygon fill="white" stroke="#bfbfbf" points="492,-112.5 492,-131.5 538,-131.5 538,-112.5 492,-112.5"/>
<text text-anchor="middle" x="515" y="-119.5" font-family="Helvetica,sans-Serif" font-size="10.00">stdio.h</text>
</g>
<!-- Node1&#45;&gt;Node11 -->
<g id="edge10" class="edge"><title>Node1&#45;&gt;Node11</title>
<path fill="none" stroke="midnightblue" d="M515,-168.083C515,-161.006 515,-150.861 515,-141.986"/>
<polygon fill="midnightblue" stroke="midnightblue" points="518.5,-141.751 515,-131.751 511.5,-141.751 518.5,-141.751"/>
</g>
<!-- Node12 -->
<g id="node12" class="node"><title>Node12</title>
<polygon fill="white" stroke="#bfbfbf" points="556,-112.5 556,-131.5 604,-131.5 604,-112.5 556,-112.5"/>
<text text-anchor="middle" x="580" y="-119.5" font-family="Helvetica,sans-Serif" font-size="10.00">stdlib.h</text>
</g>
<!-- Node1&#45;&gt;Node12 -->
<g id="edge11" class="edge"><title>Node1&#45;&gt;Node12</title>
<path fill="none" stroke="midnightblue" d="M525.443,-168.324C535.146,-160.263 549.815,-148.077 561.5,-138.369"/>
<polygon fill="midnightblue" stroke="midnightblue" points="563.911,-140.916 569.367,-131.834 559.438,-135.532 563.911,-140.916"/>
</g>
<!-- Node13 -->
<g id="node13" class="node"><title>Node13</title>
<polygon fill="white" stroke="#bfbfbf" points="622.5,-112.5 622.5,-131.5 671.5,-131.5 671.5,-112.5 622.5,-112.5"/>
<text text-anchor="middle" x="647" y="-119.5" font-family="Helvetica,sans-Serif" font-size="10.00">string.h</text>
</g>
<!-- Node1&#45;&gt;Node13 -->
<g id="edge13" class="edge"><title>Node1&#45;&gt;Node13</title>
<path fill="none" stroke="midnightblue" d="M535.916,-168.444C557.736,-159.517 592.15,-145.439 616.892,-135.317"/>
<polygon fill="midnightblue" stroke="midnightblue" points="618.252,-138.542 626.182,-131.516 615.601,-132.063 618.252,-138.542"/>
</g>
<!-- Node14 -->
<g id="node14" class="node"><title>Node14</title>
<polygon fill="white" stroke="#bfbfbf" points="689.5,-112.5 689.5,-131.5 736.5,-131.5 736.5,-112.5 689.5,-112.5"/>
<text text-anchor="middle" x="713" y="-119.5" font-family="Helvetica,sans-Serif" font-size="10.00">errno.h</text>
</g>
<!-- Node1&#45;&gt;Node14 -->
<g id="edge14" class="edge"><title>Node1&#45;&gt;Node14</title>
<path fill="none" stroke="midnightblue" d="M546.848,-168.462C578.259,-160.021 627.899,-146.624 679.288,-132.457"/>
<polygon fill="midnightblue" stroke="midnightblue" points="680.533,-135.744 689.241,-129.709 678.67,-128.996 680.533,-135.744"/>
</g>
<!-- Node15 -->
<g id="node15" class="node"><title>Node15</title>
<polygon fill="white" stroke="#bfbfbf" points="755,-112.5 755,-131.5 807,-131.5 807,-112.5 755,-112.5"/>
<text text-anchor="middle" x="781" y="-119.5" font-family="Helvetica,sans-Serif" font-size="10.00">sstream</text>
</g>
<!-- Node1&#45;&gt;Node15 -->
<g id="edge15" class="edge"><title>Node1&#45;&gt;Node15</title>
<path fill="none" stroke="midnightblue" d="M563.399,-168.435C608.062,-160.337 676.445,-147.451 744.614,-132.214"/>
<polygon fill="midnightblue" stroke="midnightblue" points="745.681,-135.562 754.667,-129.95 744.143,-128.733 745.681,-135.562"/>
</g>
<!-- Node16 -->
<g id="node16" class="node"><title>Node16</title>
<g id="a_node16"><a xlink:href="ThreadHelper_8h.html" target="_top" xlink:title="ThreadHelper.h">
<polygon fill="white" stroke="black" points="51.5,-112.5 51.5,-131.5 134.5,-131.5 134.5,-112.5 51.5,-112.5"/>
<text text-anchor="middle" x="93" y="-119.5" font-family="Helvetica,sans-Serif" font-size="10.00">ThreadHelper.h</text>
</a>
</g>
</g>
<!-- Node1&#45;&gt;Node16 -->
<g id="edge16" class="edge"><title>Node1&#45;&gt;Node16</title>
<path fill="none" stroke="midnightblue" d="M448.133,-168.444C364.007,-157.679 221.329,-139.421 144.937,-129.646"/>
<polygon fill="midnightblue" stroke="midnightblue" points="144.974,-126.122 134.61,-128.325 144.085,-133.066 144.974,-126.122"/>
</g>
<!-- Node3 -->
<g id="node3" class="node"><title>Node3</title>
<polygon fill="white" stroke="#bfbfbf" points="304,-56.5 304,-75.5 366,-75.5 366,-56.5 304,-56.5"/>
<text text-anchor="middle" x="335" y="-63.5" font-family="Helvetica,sans-Serif" font-size="10.00">arpa/inet.h</text>
</g>
<!-- Node2&#45;&gt;Node3 -->
<g id="edge2" class="edge"><title>Node2&#45;&gt;Node3</title>
<path fill="none" stroke="midnightblue" d="M256.103,-112.324C270.903,-103.822 293.694,-90.7288 310.982,-80.7975"/>
<polygon fill="midnightblue" stroke="midnightblue" points="313.007,-83.6707 319.935,-75.6545 309.52,-77.6009 313.007,-83.6707"/>
</g>
<!-- Node4 -->
<g id="node4" class="node"><title>Node4</title>
<polygon fill="white" stroke="#bfbfbf" points="0,-56.5 0,-75.5 46,-75.5 46,-56.5 0,-56.5"/>
<text text-anchor="middle" x="23" y="-63.5" font-family="Helvetica,sans-Serif" font-size="10.00">atomic</text>
</g>
<!-- Node2&#45;&gt;Node4 -->
<g id="edge3" class="edge"><title>Node2&#45;&gt;Node4</title>
<path fill="none" stroke="midnightblue" d="M203.845,-112.435C168.284,-104.144 112.902,-90.9869 55.9424,-76.1768"/>
<polygon fill="midnightblue" stroke="midnightblue" points="56.6045,-72.7324 46.0445,-73.5905 54.8348,-79.505 56.6045,-72.7324"/>
</g>
<!-- Node5 -->
<g id="node5" class="node"><title>Node5</title>
<polygon fill="white" stroke="#bfbfbf" points="250.5,-56.5 250.5,-75.5 285.5,-75.5 285.5,-56.5 250.5,-56.5"/>
<text text-anchor="middle" x="268" y="-63.5" font-family="Helvetica,sans-Serif" font-size="10.00">map</text>
</g>
<!-- Node2&#45;&gt;Node5 -->
<g id="edge4" class="edge"><title>Node2&#45;&gt;Node5</title>
<path fill="none" stroke="midnightblue" d="M245.459,-112.083C249.154,-104.691 254.523,-93.9533 259.094,-84.8111"/>
<polygon fill="midnightblue" stroke="midnightblue" points="262.283,-86.2606 263.624,-75.7511 256.022,-83.1301 262.283,-86.2606"/>
</g>
<!-- Node6 -->
<g id="node6" class="node"><title>Node6</title>
<polygon fill="white" stroke="#bfbfbf" points="64.5,-56.5 64.5,-75.5 121.5,-75.5 121.5,-56.5 64.5,-56.5"/>
<text text-anchor="middle" x="93" y="-63.5" font-family="Helvetica,sans-Serif" font-size="10.00">pthread.h</text>
</g>
<!-- Node2&#45;&gt;Node6 -->
<g id="edge5" class="edge"><title>Node2&#45;&gt;Node6</title>
<path fill="none" stroke="midnightblue" d="M217.549,-112.444C192.867,-103.438 153.815,-89.1891 126.023,-79.049"/>
<polygon fill="midnightblue" stroke="midnightblue" points="126.935,-75.6561 116.341,-75.5164 124.536,-82.2321 126.935,-75.6561"/>
</g>
<!-- Node7 -->
<g id="node7" class="node"><title>Node7</title>
<g id="a_node7"><a xlink:href="LoggingHandler_8h.html" target="_top" xlink:title="LoggingHandler.h">
<polygon fill="white" stroke="black" points="140,-56.5 140,-75.5 232,-75.5 232,-56.5 140,-56.5"/>
<text text-anchor="middle" x="186" y="-63.5" font-family="Helvetica,sans-Serif" font-size="10.00">LoggingHandler.h</text>
</a>
</g>
</g>
<!-- Node2&#45;&gt;Node7 -->
<g id="edge6" class="edge"><title>Node2&#45;&gt;Node7</title>
<path fill="none" stroke="midnightblue" d="M231.918,-112.083C223.829,-104.141 211.805,-92.3354 202.09,-82.7973"/>
<polygon fill="midnightblue" stroke="midnightblue" points="204.501,-80.2595 194.913,-75.7511 199.597,-85.2545 204.501,-80.2595"/>
</g>
<!-- Node7&#45;&gt;Node8 -->
<g id="edge7" class="edge"><title>Node7&#45;&gt;Node8</title>
<path fill="none" stroke="midnightblue" d="M207.55,-56.4435C230.296,-47.4121 266.324,-33.1067 291.875,-22.9612"/>
<polygon fill="midnightblue" stroke="midnightblue" points="293.439,-26.1063 301.441,-19.1629 290.856,-19.6004 293.439,-26.1063"/>
</g>
<!-- Node9 -->
<g id="node9" class="node"><title>Node9</title>
<polygon fill="white" stroke="#bfbfbf" points="161,-0.5 161,-19.5 211,-19.5 211,-0.5 161,-0.5"/>
<text text-anchor="middle" x="186" y="-7.5" font-family="Helvetica,sans-Serif" font-size="10.00">fstream</text>
</g>
<!-- Node7&#45;&gt;Node9 -->
<g id="edge8" class="edge"><title>Node7&#45;&gt;Node9</title>
<path fill="none" stroke="midnightblue" d="M186,-56.083C186,-49.0059 186,-38.8611 186,-29.9865"/>
<polygon fill="midnightblue" stroke="midnightblue" points="189.5,-29.751 186,-19.7511 182.5,-29.7511 189.5,-29.751"/>
</g>
<!-- Node16&#45;&gt;Node4 -->
<g id="edge17" class="edge"><title>Node16&#45;&gt;Node4</title>
<path fill="none" stroke="midnightblue" d="M81.7533,-112.324C71.2026,-104.185 55.1993,-91.8395 42.5578,-82.0874"/>
<polygon fill="midnightblue" stroke="midnightblue" points="44.507,-79.1707 34.4513,-75.8339 40.2314,-84.7132 44.507,-79.1707"/>
</g>
<!-- Node16&#45;&gt;Node6 -->
<g id="edge18" class="edge"><title>Node16&#45;&gt;Node6</title>
<path fill="none" stroke="midnightblue" d="M93,-112.083C93,-105.006 93,-94.8611 93,-85.9865"/>
<polygon fill="midnightblue" stroke="midnightblue" points="96.5001,-85.751 93,-75.7511 89.5001,-85.7511 96.5001,-85.751"/>
</g>
</g>
</svg>
