<?xml version="1.0" encoding="UTF-8" standalone="no"?>
<!DOCTYPE svg PUBLIC "-//W3C//DTD SVG 1.1//EN"
 "http://www.w3.org/Graphics/SVG/1.1/DTD/svg11.dtd">
<!-- Generated by graphviz version 2.38.0 (20140413.2041)
 -->
<!-- Title: HandleHostBandwidth.cpp Pages: 1 -->
<svg width="804pt" height="140pt"
 viewBox="0.00 0.00 804.00 140.00" xmlns="http://www.w3.org/2000/svg" xmlns:xlink="http://www.w3.org/1999/xlink">
<g id="graph0" class="graph" transform="scale(1 1) rotate(0) translate(4 136)">
<title>HandleHostBandwidth.cpp</title>
<polygon fill="white" stroke="none" points="-4,4 -4,-136 800,-136 800,4 -4,4"/>
<!-- Node1 -->
<g id="node1" class="node"><title>Node1</title>
<polygon fill="#bfbfbf" stroke="black" points="345.5,-112.5 345.5,-131.5 478.5,-131.5 478.5,-112.5 345.5,-112.5"/>
<text text-anchor="middle" x="412" y="-119.5" font-family="Helvetica,sans-Serif" font-size="10.00">HandleHostBandwidth.cpp</text>
</g>
<!-- Node2 -->
<g id="node2" class="node"><title>Node2</title>
<g id="a_node2"><a xlink:href="HandleHostBandwidth_8h.html" target="_top" xlink:title="HandleHostBandwidth.h">
<polygon fill="white" stroke="black" points="41,-56.5 41,-75.5 163,-75.5 163,-56.5 41,-56.5"/>
<text text-anchor="middle" x="102" y="-63.5" font-family="Helvetica,sans-Serif" font-size="10.00">HandleHostBandwidth.h</text>
</a>
</g>
</g>
<!-- Node1&#45;&gt;Node2 -->
<g id="edge1" class="edge"><title>Node1&#45;&gt;Node2</title>
<path fill="none" stroke="midnightblue" d="M362.88,-112.444C308.121,-102.905 219.59,-87.4834 161.089,-77.293"/>
<polygon fill="midnightblue" stroke="midnightblue" points="161.343,-73.7845 150.891,-75.5164 160.142,-80.6807 161.343,-73.7845"/>
</g>
<!-- Node7 -->
<g id="node7" class="node"><title>Node7</title>
<polygon fill="white" stroke="#bfbfbf" points="283,-56.5 283,-75.5 335,-75.5 335,-56.5 283,-56.5"/>
<text text-anchor="middle" x="309" y="-63.5" font-family="Helvetica,sans-Serif" font-size="10.00">sstream</text>
</g>
<!-- Node1&#45;&gt;Node7 -->
<g id="edge6" class="edge"><title>Node1&#45;&gt;Node7</title>
<path fill="none" stroke="midnightblue" d="M395.451,-112.324C379.008,-103.703 353.565,-90.3643 334.532,-80.3855"/>
<polygon fill="midnightblue" stroke="midnightblue" points="335.989,-77.198 325.508,-75.6545 332.739,-83.3977 335.989,-77.198"/>
</g>
<!-- Node8 -->
<g id="node8" class="node"><title>Node8</title>
<polygon fill="white" stroke="#bfbfbf" points="353.5,-56.5 353.5,-75.5 402.5,-75.5 402.5,-56.5 353.5,-56.5"/>
<text text-anchor="middle" x="378" y="-63.5" font-family="Helvetica,sans-Serif" font-size="10.00">string.h</text>
</g>
<!-- Node1&#45;&gt;Node8 -->
<g id="edge7" class="edge"><title>Node1&#45;&gt;Node8</title>
<path fill="none" stroke="midnightblue" d="M406.386,-112.083C401.633,-104.534 394.682,-93.4948 388.848,-84.2298"/>
<polygon fill="midnightblue" stroke="midnightblue" points="391.8,-82.3486 383.51,-75.7511 385.876,-86.0783 391.8,-82.3486"/>
</g>
<!-- Node9 -->
<g id="node9" class="node"><title>Node9</title>
<polygon fill="white" stroke="#bfbfbf" points="420.5,-56.5 420.5,-75.5 471.5,-75.5 471.5,-56.5 420.5,-56.5"/>
<text text-anchor="middle" x="446" y="-63.5" font-family="Helvetica,sans-Serif" font-size="10.00">unistd.h</text>
</g>
<!-- Node1&#45;&gt;Node9 -->
<g id="edge8" class="edge"><title>Node1&#45;&gt;Node9</title>
<path fill="none" stroke="midnightblue" d="M417.614,-112.083C422.367,-104.534 429.318,-93.4948 435.152,-84.2298"/>
<polygon fill="midnightblue" stroke="midnightblue" points="438.124,-86.0783 440.49,-75.7511 432.2,-82.3486 438.124,-86.0783"/>
</g>
<!-- Node10 -->
<g id="node10" class="node"><title>Node10</title>
<g id="a_node10"><a xlink:href="HelperMethods_8h.html" target="_top" xlink:title="HelperMethods.h">
<polygon fill="white" stroke="black" points="489.5,-56.5 489.5,-75.5 580.5,-75.5 580.5,-56.5 489.5,-56.5"/>
<text text-anchor="middle" x="535" y="-63.5" font-family="Helvetica,sans-Serif" font-size="10.00">HelperMethods.h</text>
</a>
</g>
</g>
<!-- Node1&#45;&gt;Node10 -->
<g id="edge9" class="edge"><title>Node1&#45;&gt;Node10</title>
<path fill="none" stroke="midnightblue" d="M431.49,-112.444C451.642,-103.596 483.323,-89.6875 506.331,-79.5865"/>
<polygon fill="midnightblue" stroke="midnightblue" points="507.852,-82.7411 515.601,-75.5164 505.038,-76.3316 507.852,-82.7411"/>
</g>
<!-- Node12 -->
<g id="node12" class="node"><title>Node12</title>
<g id="a_node12"><a xlink:href="LoggingHandler_8h.html" target="_top" xlink:title="LoggingHandler.h">
<polygon fill="white" stroke="black" points="704,-56.5 704,-75.5 796,-75.5 796,-56.5 704,-56.5"/>
<text text-anchor="middle" x="750" y="-63.5" font-family="Helvetica,sans-Serif" font-size="10.00">LoggingHandler.h</text>
</a>
</g>
</g>
<!-- Node1&#45;&gt;Node12 -->
<g id="edge11" class="edge"><title>Node1&#45;&gt;Node12</title>
<path fill="none" stroke="midnightblue" d="M465.539,-112.475C520.16,-103.773 607.657,-89.8226 693.893,-76.0156"/>
<polygon fill="midnightblue" stroke="midnightblue" points="694.535,-79.4574 703.856,-74.4202 693.428,-72.5455 694.535,-79.4574"/>
</g>
<!-- Node14 -->
<g id="node14" class="node"><title>Node14</title>
<g id="a_node14"><a xlink:href="LoggerFactory_8h.html" target="_top" xlink:title="LoggerFactory.h">
<polygon fill="white" stroke="black" points="598.5,-56.5 598.5,-75.5 685.5,-75.5 685.5,-56.5 598.5,-56.5"/>
<text text-anchor="middle" x="642" y="-63.5" font-family="Helvetica,sans-Serif" font-size="10.00">LoggerFactory.h</text>
</a>
</g>
</g>
<!-- Node1&#45;&gt;Node14 -->
<g id="edge14" class="edge"><title>Node1&#45;&gt;Node14</title>
<path fill="none" stroke="midnightblue" d="M448.444,-112.444C488.399,-103.063 552.587,-87.9926 595.985,-77.8036"/>
<polygon fill="midnightblue" stroke="midnightblue" points="596.791,-81.2095 605.726,-75.5164 595.191,-74.3948 596.791,-81.2095"/>
</g>
<!-- Node15 -->
<g id="node15" class="node"><title>Node15</title>
<g id="a_node15"><a xlink:href="ThreadHelper_8h.html" target="_top" xlink:title="ThreadHelper.h">
<polygon fill="white" stroke="black" points="181.5,-56.5 181.5,-75.5 264.5,-75.5 264.5,-56.5 181.5,-56.5"/>
<text text-anchor="middle" x="223" y="-63.5" font-family="Helvetica,sans-Serif" font-size="10.00">ThreadHelper.h</text>
</a>
</g>
</g>
<!-- Node1&#45;&gt;Node15 -->
<g id="edge16" class="edge"><title>Node1&#45;&gt;Node15</title>
<path fill="none" stroke="midnightblue" d="M382.052,-112.444C349.842,-103.241 298.466,-88.5617 262.858,-78.3879"/>
<polygon fill="midnightblue" stroke="midnightblue" points="263.384,-74.8984 252.808,-75.5164 261.461,-81.629 263.384,-74.8984"/>
</g>
<!-- Node3 -->
<g id="node3" class="node"><title>Node3</title>
<polygon fill="white" stroke="#bfbfbf" points="0,-0.5 0,-19.5 62,-19.5 62,-0.5 0,-0.5"/>
<text text-anchor="middle" x="31" y="-7.5" font-family="Helvetica,sans-Serif" font-size="10.00">arpa/inet.h</text>
</g>
<!-- Node2&#45;&gt;Node3 -->
<g id="edge2" class="edge"><title>Node2&#45;&gt;Node3</title>
<path fill="none" stroke="midnightblue" d="M90.5926,-56.324C79.8912,-48.1849 63.6593,-35.8395 50.8372,-26.0874"/>
<polygon fill="midnightblue" stroke="midnightblue" points="52.6932,-23.1018 42.6149,-19.8339 48.4556,-28.6734 52.6932,-23.1018"/>
</g>
<!-- Node4 -->
<g id="node4" class="node"><title>Node4</title>
<polygon fill="white" stroke="#bfbfbf" points="134,-0.5 134,-19.5 180,-19.5 180,-0.5 134,-0.5"/>
<text text-anchor="middle" x="157" y="-7.5" font-family="Helvetica,sans-Serif" font-size="10.00">atomic</text>
</g>
<!-- Node2&#45;&gt;Node4 -->
<g id="edge3" class="edge"><title>Node2&#45;&gt;Node4</title>
<path fill="none" stroke="midnightblue" d="M111.082,-56.083C119.171,-48.1409 131.195,-36.3354 140.91,-26.7973"/>
<polygon fill="midnightblue" stroke="midnightblue" points="143.403,-29.2545 148.087,-19.7511 138.499,-24.2595 143.403,-29.2545"/>
</g>
<!-- Node5 -->
<g id="node5" class="node"><title>Node5</title>
<polygon fill="white" stroke="#bfbfbf" points="80.5,-0.5 80.5,-19.5 115.5,-19.5 115.5,-0.5 80.5,-0.5"/>
<text text-anchor="middle" x="98" y="-7.5" font-family="Helvetica,sans-Serif" font-size="10.00">map</text>
</g>
<!-- Node2&#45;&gt;Node5 -->
<g id="edge4" class="edge"><title>Node2&#45;&gt;Node5</title>
<path fill="none" stroke="midnightblue" d="M101.339,-56.083C100.815,-49.0059 100.064,-38.8611 99.4064,-29.9865"/>
<polygon fill="midnightblue" stroke="midnightblue" points="102.877,-29.4652 98.6482,-19.7511 95.8966,-29.9823 102.877,-29.4652"/>
</g>
<!-- Node6 -->
<g id="node6" class="node"><title>Node6</title>
<polygon fill="white" stroke="#bfbfbf" points="198.5,-0.5 198.5,-19.5 255.5,-19.5 255.5,-0.5 198.5,-0.5"/>
<text text-anchor="middle" x="227" y="-7.5" font-family="Helvetica,sans-Serif" font-size="10.00">pthread.h</text>
</g>
<!-- Node2&#45;&gt;Node6 -->
<g id="edge5" class="edge"><title>Node2&#45;&gt;Node6</title>
<path fill="none" stroke="midnightblue" d="M121.807,-56.4435C142.287,-47.5961 174.483,-33.6875 197.865,-23.5865"/>
<polygon fill="midnightblue" stroke="midnightblue" points="199.494,-26.6953 207.286,-19.5164 196.718,-20.2692 199.494,-26.6953"/>
</g>
<!-- Node11 -->
<g id="node11" class="node"><title>Node11</title>
<polygon fill="white" stroke="#bfbfbf" points="621.5,-0.5 621.5,-19.5 662.5,-19.5 662.5,-0.5 621.5,-0.5"/>
<text text-anchor="middle" x="642" y="-7.5" font-family="Helvetica,sans-Serif" font-size="10.00">string</text>
</g>
<!-- Node10&#45;&gt;Node11 -->
<g id="edge10" class="edge"><title>Node10&#45;&gt;Node11</title>
<path fill="none" stroke="midnightblue" d="M552.191,-56.324C569.351,-47.6641 595.946,-34.2424 615.747,-24.249"/>
<polygon fill="midnightblue" stroke="midnightblue" points="617.501,-27.2847 624.851,-19.6545 614.347,-21.0354 617.501,-27.2847"/>
</g>
<!-- Node12&#45;&gt;Node11 -->
<g id="edge12" class="edge"><title>Node12&#45;&gt;Node11</title>
<path fill="none" stroke="midnightblue" d="M732.648,-56.324C715.328,-47.6641 688.485,-34.2424 668.498,-24.249"/>
<polygon fill="midnightblue" stroke="midnightblue" points="669.819,-20.9962 659.309,-19.6545 666.688,-27.2572 669.819,-20.9962"/>
</g>
<!-- Node13 -->
<g id="node13" class="node"><title>Node13</title>
<polygon fill="white" stroke="#bfbfbf" points="725,-0.5 725,-19.5 775,-19.5 775,-0.5 725,-0.5"/>
<text text-anchor="middle" x="750" y="-7.5" font-family="Helvetica,sans-Serif" font-size="10.00">fstream</text>
</g>
<!-- Node12&#45;&gt;Node13 -->
<g id="edge13" class="edge"><title>Node12&#45;&gt;Node13</title>
<path fill="none" stroke="midnightblue" d="M750,-56.083C750,-49.0059 750,-38.8611 750,-29.9865"/>
<polygon fill="midnightblue" stroke="midnightblue" points="753.5,-29.751 750,-19.7511 746.5,-29.7511 753.5,-29.751"/>
</g>
<!-- Node14&#45;&gt;Node11 -->
<g id="edge15" class="edge"><title>Node14&#45;&gt;Node11</title>
<path fill="none" stroke="midnightblue" d="M642,-56.083C642,-49.0059 642,-38.8611 642,-29.9865"/>
<polygon fill="midnightblue" stroke="midnightblue" points="645.5,-29.751 642,-19.7511 638.5,-29.7511 645.5,-29.751"/>
</g>
<!-- Node15&#45;&gt;Node4 -->
<g id="edge17" class="edge"><title>Node15&#45;&gt;Node4</title>
<path fill="none" stroke="midnightblue" d="M212.396,-56.324C202.544,-48.2631 187.649,-36.0765 175.785,-26.3695"/>
<polygon fill="midnightblue" stroke="midnightblue" points="177.753,-23.4575 167.797,-19.8339 173.32,-28.8752 177.753,-23.4575"/>
</g>
<!-- Node15&#45;&gt;Node6 -->
<g id="edge18" class="edge"><title>Node15&#45;&gt;Node6</title>
<path fill="none" stroke="midnightblue" d="M223.661,-56.083C224.185,-49.0059 224.936,-38.8611 225.594,-29.9865"/>
<polygon fill="midnightblue" stroke="midnightblue" points="229.103,-29.9823 226.352,-19.7511 222.123,-29.4652 229.103,-29.9823"/>
</g>
</g>
</svg>
