<?xml version="1.0" encoding="UTF-8" standalone="no"?>
<!DOCTYPE svg PUBLIC "-//W3C//DTD SVG 1.1//EN"
 "http://www.w3.org/Graphics/SVG/1.1/DTD/svg11.dtd">
<!-- Generated by graphviz version 2.38.0 (20140413.2041)
 -->
<!-- Title: HandleHostBandwidth.cpp Pages: 1 -->
<svg width="692pt" height="196pt"
 viewBox="0.00 0.00 691.76 196.00" xmlns="http://www.w3.org/2000/svg" xmlns:xlink="http://www.w3.org/1999/xlink">
<g id="graph0" class="graph" transform="scale(1 1) rotate(0) translate(4 192)">
<title>HandleHostBandwidth.cpp</title>
<polygon fill="white" stroke="none" points="-4,4 -4,-192 687.761,-192 687.761,4 -4,4"/>
<!-- Node1 -->
<g id="node1" class="node"><title>Node1</title>
<polygon fill="#bfbfbf" stroke="black" points="369.5,-168.5 369.5,-187.5 502.5,-187.5 502.5,-168.5 369.5,-168.5"/>
<text text-anchor="middle" x="436" y="-175.5" font-family="Helvetica,sans-Serif" font-size="10.00">HandleHostBandwidth.cpp</text>
</g>
<!-- Node2 -->
<g id="node2" class="node"><title>Node2</title>
<g id="a_node2"><a xlink:href="HandleHostBandwidth_8h.html" target="_top" xlink:title="HandleHostBandwidth.h">
<polygon fill="white" stroke="black" points="37,-112.5 37,-131.5 159,-131.5 159,-112.5 37,-112.5"/>
<text text-anchor="middle" x="98" y="-119.5" font-family="Helvetica,sans-Serif" font-size="10.00">HandleHostBandwidth.h</text>
</a>
</g>
</g>
<!-- Node1&#45;&gt;Node2 -->
<g id="edge1" class="edge"><title>Node1&#45;&gt;Node2</title>
<path fill="none" stroke="midnightblue" d="M382.443,-168.444C322.367,-158.846 225.01,-143.292 161.242,-133.104"/>
<polygon fill="midnightblue" stroke="midnightblue" points="161.734,-129.638 151.307,-131.516 160.629,-136.55 161.734,-129.638"/>
</g>
<!-- Node6 -->
<g id="node6" class="node"><title>Node6</title>
<polygon fill="white" stroke="#bfbfbf" points="419.5,-0.5 419.5,-19.5 460.5,-19.5 460.5,-0.5 419.5,-0.5"/>
<text text-anchor="middle" x="440" y="-7.5" font-family="Helvetica,sans-Serif" font-size="10.00">string</text>
</g>
<!-- Node1&#45;&gt;Node6 -->
<g id="edge10" class="edge"><title>Node1&#45;&gt;Node6</title>
<path fill="none" stroke="midnightblue" d="M502.574,-173.541C564.672,-168.756 650.829,-157.589 672,-132 731.462,-60.1288 546.266,-25.7055 470.644,-14.8962"/>
<polygon fill="midnightblue" stroke="midnightblue" points="471.122,-11.4291 460.737,-13.5262 470.163,-18.3631 471.122,-11.4291"/>
</g>
<!-- Node8 -->
<g id="node8" class="node"><title>Node8</title>
<polygon fill="white" stroke="#bfbfbf" points="278.5,-112.5 278.5,-131.5 329.5,-131.5 329.5,-112.5 278.5,-112.5"/>
<text text-anchor="middle" x="304" y="-119.5" font-family="Helvetica,sans-Serif" font-size="10.00">unistd.h</text>
</g>
<!-- Node1&#45;&gt;Node8 -->
<g id="edge7" class="edge"><title>Node1&#45;&gt;Node8</title>
<path fill="none" stroke="midnightblue" d="M415.084,-168.444C393.264,-159.517 358.85,-145.439 334.108,-135.317"/>
<polygon fill="midnightblue" stroke="midnightblue" points="335.399,-132.063 324.818,-131.516 332.748,-138.542 335.399,-132.063"/>
</g>
<!-- Node9 -->
<g id="node9" class="node"><title>Node9</title>
<polygon fill="white" stroke="#bfbfbf" points="348,-112.5 348,-131.5 394,-131.5 394,-112.5 348,-112.5"/>
<text text-anchor="middle" x="371" y="-119.5" font-family="Helvetica,sans-Serif" font-size="10.00">stdio.h</text>
</g>
<!-- Node1&#45;&gt;Node9 -->
<g id="edge8" class="edge"><title>Node1&#45;&gt;Node9</title>
<path fill="none" stroke="midnightblue" d="M425.557,-168.324C415.854,-160.263 401.185,-148.077 389.5,-138.369"/>
<polygon fill="midnightblue" stroke="midnightblue" points="391.562,-135.532 381.633,-131.834 387.089,-140.916 391.562,-135.532"/>
</g>
<!-- Node10 -->
<g id="node10" class="node"><title>Node10</title>
<polygon fill="white" stroke="#bfbfbf" points="412,-112.5 412,-131.5 460,-131.5 460,-112.5 412,-112.5"/>
<text text-anchor="middle" x="436" y="-119.5" font-family="Helvetica,sans-Serif" font-size="10.00">stdlib.h</text>
</g>
<!-- Node1&#45;&gt;Node10 -->
<g id="edge9" class="edge"><title>Node1&#45;&gt;Node10</title>
<path fill="none" stroke="midnightblue" d="M436,-168.083C436,-161.006 436,-150.861 436,-141.986"/>
<polygon fill="midnightblue" stroke="midnightblue" points="439.5,-141.751 436,-131.751 432.5,-141.751 439.5,-141.751"/>
</g>
<!-- Node11 -->
<g id="node11" class="node"><title>Node11</title>
<polygon fill="white" stroke="#bfbfbf" points="478.5,-112.5 478.5,-131.5 527.5,-131.5 527.5,-112.5 478.5,-112.5"/>
<text text-anchor="middle" x="503" y="-119.5" font-family="Helvetica,sans-Serif" font-size="10.00">string.h</text>
</g>
<!-- Node1&#45;&gt;Node11 -->
<g id="edge11" class="edge"><title>Node1&#45;&gt;Node11</title>
<path fill="none" stroke="midnightblue" d="M446.765,-168.324C456.766,-160.263 471.887,-148.077 483.93,-138.369"/>
<polygon fill="midnightblue" stroke="midnightblue" points="486.45,-140.834 492.039,-131.834 482.057,-135.384 486.45,-140.834"/>
</g>
<!-- Node12 -->
<g id="node12" class="node"><title>Node12</title>
<polygon fill="white" stroke="#bfbfbf" points="545.5,-112.5 545.5,-131.5 592.5,-131.5 592.5,-112.5 545.5,-112.5"/>
<text text-anchor="middle" x="569" y="-119.5" font-family="Helvetica,sans-Serif" font-size="10.00">errno.h</text>
</g>
<!-- Node1&#45;&gt;Node12 -->
<g id="edge12" class="edge"><title>Node1&#45;&gt;Node12</title>
<path fill="none" stroke="midnightblue" d="M457.074,-168.444C479.06,-159.517 513.734,-145.439 538.664,-135.317"/>
<polygon fill="midnightblue" stroke="midnightblue" points="540.076,-138.521 548.024,-131.516 537.442,-132.035 540.076,-138.521"/>
</g>
<!-- Node13 -->
<g id="node13" class="node"><title>Node13</title>
<polygon fill="white" stroke="#bfbfbf" points="611,-112.5 611,-131.5 663,-131.5 663,-112.5 611,-112.5"/>
<text text-anchor="middle" x="637" y="-119.5" font-family="Helvetica,sans-Serif" font-size="10.00">sstream</text>
</g>
<!-- Node1&#45;&gt;Node13 -->
<g id="edge13" class="edge"><title>Node1&#45;&gt;Node13</title>
<path fill="none" stroke="midnightblue" d="M467.849,-168.444C503.972,-158.739 562.76,-142.945 600.648,-132.766"/>
<polygon fill="midnightblue" stroke="midnightblue" points="601.995,-136.028 610.745,-130.054 600.179,-129.268 601.995,-136.028"/>
</g>
<!-- Node14 -->
<g id="node14" class="node"><title>Node14</title>
<g id="a_node14"><a xlink:href="ThreadHelper_8h.html" target="_top" xlink:title="ThreadHelper.h">
<polygon fill="white" stroke="black" points="177.5,-112.5 177.5,-131.5 260.5,-131.5 260.5,-112.5 177.5,-112.5"/>
<text text-anchor="middle" x="219" y="-119.5" font-family="Helvetica,sans-Serif" font-size="10.00">ThreadHelper.h</text>
</a>
</g>
</g>
<!-- Node1&#45;&gt;Node14 -->
<g id="edge14" class="edge"><title>Node1&#45;&gt;Node14</title>
<path fill="none" stroke="midnightblue" d="M401.616,-168.444C364.078,-159.102 303.869,-144.119 262.933,-133.933"/>
<polygon fill="midnightblue" stroke="midnightblue" points="263.773,-130.535 253.223,-131.516 262.082,-137.328 263.773,-130.535"/>
</g>
<!-- Node3 -->
<g id="node3" class="node"><title>Node3</title>
<polygon fill="white" stroke="#bfbfbf" points="0,-56.5 0,-75.5 62,-75.5 62,-56.5 0,-56.5"/>
<text text-anchor="middle" x="31" y="-63.5" font-family="Helvetica,sans-Serif" font-size="10.00">arpa/inet.h</text>
</g>
<!-- Node2&#45;&gt;Node3 -->
<g id="edge2" class="edge"><title>Node2&#45;&gt;Node3</title>
<path fill="none" stroke="midnightblue" d="M87.2353,-112.324C77.2339,-104.263 62.1135,-92.0765 50.0695,-82.3695"/>
<polygon fill="midnightblue" stroke="midnightblue" points="51.9429,-79.3841 41.9606,-75.8339 47.5502,-84.8343 51.9429,-79.3841"/>
</g>
<!-- Node4 -->
<g id="node4" class="node"><title>Node4</title>
<polygon fill="white" stroke="#bfbfbf" points="190.5,-56.5 190.5,-75.5 247.5,-75.5 247.5,-56.5 190.5,-56.5"/>
<text text-anchor="middle" x="219" y="-63.5" font-family="Helvetica,sans-Serif" font-size="10.00">pthread.h</text>
</g>
<!-- Node2&#45;&gt;Node4 -->
<g id="edge3" class="edge"><title>Node2&#45;&gt;Node4</title>
<path fill="none" stroke="midnightblue" d="M117.173,-112.444C136.909,-103.636 167.885,-89.8116 190.493,-79.722"/>
<polygon fill="midnightblue" stroke="midnightblue" points="192.211,-82.788 199.917,-75.5164 189.359,-76.3957 192.211,-82.788"/>
</g>
<!-- Node5 -->
<g id="node5" class="node"><title>Node5</title>
<g id="a_node5"><a xlink:href="LoggingHandler_8h.html" target="_top" xlink:title="LoggingHandler.h">
<polygon fill="white" stroke="black" points="80,-56.5 80,-75.5 172,-75.5 172,-56.5 80,-56.5"/>
<text text-anchor="middle" x="126" y="-63.5" font-family="Helvetica,sans-Serif" font-size="10.00">LoggingHandler.h</text>
</a>
</g>
</g>
<!-- Node2&#45;&gt;Node5 -->
<g id="edge4" class="edge"><title>Node2&#45;&gt;Node5</title>
<path fill="none" stroke="midnightblue" d="M102.624,-112.083C106.456,-104.691 112.024,-93.9533 116.765,-84.8111"/>
<polygon fill="midnightblue" stroke="midnightblue" points="119.966,-86.2398 121.462,-75.7511 113.752,-83.0175 119.966,-86.2398"/>
</g>
<!-- Node5&#45;&gt;Node6 -->
<g id="edge5" class="edge"><title>Node5&#45;&gt;Node6</title>
<path fill="none" stroke="midnightblue" d="M172.332,-57.0321C237.4,-45.8421 354.067,-25.7782 409.345,-16.2718"/>
<polygon fill="midnightblue" stroke="midnightblue" points="409.976,-19.7148 419.238,-14.5705 408.79,-12.8161 409.976,-19.7148"/>
</g>
<!-- Node7 -->
<g id="node7" class="node"><title>Node7</title>
<polygon fill="white" stroke="#bfbfbf" points="101,-0.5 101,-19.5 151,-19.5 151,-0.5 101,-0.5"/>
<text text-anchor="middle" x="126" y="-7.5" font-family="Helvetica,sans-Serif" font-size="10.00">fstream</text>
</g>
<!-- Node5&#45;&gt;Node7 -->
<g id="edge6" class="edge"><title>Node5&#45;&gt;Node7</title>
<path fill="none" stroke="midnightblue" d="M126,-56.083C126,-49.0059 126,-38.8611 126,-29.9865"/>
<polygon fill="midnightblue" stroke="midnightblue" points="129.5,-29.751 126,-19.7511 122.5,-29.7511 129.5,-29.751"/>
</g>
<!-- Node14&#45;&gt;Node4 -->
<g id="edge15" class="edge"><title>Node14&#45;&gt;Node4</title>
<path fill="none" stroke="midnightblue" d="M219,-112.083C219,-105.006 219,-94.8611 219,-85.9865"/>
<polygon fill="midnightblue" stroke="midnightblue" points="222.5,-85.751 219,-75.7511 215.5,-85.7511 222.5,-85.751"/>
</g>
</g>
</svg>
