<?xml version="1.0" encoding="UTF-8" standalone="no"?>
<!DOCTYPE svg PUBLIC "-//W3C//DTD SVG 1.1//EN"
 "http://www.w3.org/Graphics/SVG/1.1/DTD/svg11.dtd">
<!-- Generated by graphviz version 2.38.0 (20140413.2041)
 -->
<!-- Title: HandleHostBandwidth.h Pages: 1 -->
<svg width="263pt" height="84pt"
 viewBox="0.00 0.00 262.50 84.00" xmlns="http://www.w3.org/2000/svg" xmlns:xlink="http://www.w3.org/1999/xlink">
<g id="graph0" class="graph" transform="scale(1 1) rotate(0) translate(4 80)">
<title>HandleHostBandwidth.h</title>
<polygon fill="white" stroke="none" points="-4,4 -4,-80 258.5,-80 258.5,4 -4,4"/>
<!-- Node1 -->
<g id="node1" class="node"><title>Node1</title>
<polygon fill="#bfbfbf" stroke="black" points="71,-56.5 71,-75.5 193,-75.5 193,-56.5 71,-56.5"/>
<text text-anchor="middle" x="132" y="-63.5" font-family="Helvetica,sans-Serif" font-size="10.00">HandleHostBandwidth.h</text>
</g>
<!-- Node2 -->
<g id="node2" class="node"><title>Node2</title>
<polygon fill="white" stroke="#bfbfbf" points="0,-0.5 0,-19.5 62,-19.5 62,-0.5 0,-0.5"/>
<text text-anchor="middle" x="31" y="-7.5" font-family="Helvetica,sans-Serif" font-size="10.00">arpa/inet.h</text>
</g>
<!-- Node1&#45;&gt;Node2 -->
<g id="edge1" class="edge"><title>Node1&#45;&gt;Node2</title>
<path fill="none" stroke="midnightblue" d="M115.773,-56.324C99.649,-47.7034 74.6998,-34.3643 56.0359,-24.3855"/>
<polygon fill="midnightblue" stroke="midnightblue" points="57.6561,-21.283 47.1871,-19.6545 54.3556,-27.456 57.6561,-21.283"/>
</g>
<!-- Node3 -->
<g id="node3" class="node"><title>Node3</title>
<polygon fill="white" stroke="#bfbfbf" points="80,-0.5 80,-19.5 126,-19.5 126,-0.5 80,-0.5"/>
<text text-anchor="middle" x="103" y="-7.5" font-family="Helvetica,sans-Serif" font-size="10.00">atomic</text>
</g>
<!-- Node1&#45;&gt;Node3 -->
<g id="edge2" class="edge"><title>Node1&#45;&gt;Node3</title>
<path fill="none" stroke="midnightblue" d="M127.211,-56.083C123.242,-48.6913 117.475,-37.9533 112.565,-28.8111"/>
<polygon fill="midnightblue" stroke="midnightblue" points="115.514,-26.9051 107.7,-19.7511 109.347,-30.217 115.514,-26.9051"/>
</g>
<!-- Node4 -->
<g id="node4" class="node"><title>Node4</title>
<polygon fill="white" stroke="#bfbfbf" points="144.5,-0.5 144.5,-19.5 179.5,-19.5 179.5,-0.5 144.5,-0.5"/>
<text text-anchor="middle" x="162" y="-7.5" font-family="Helvetica,sans-Serif" font-size="10.00">map</text>
</g>
<!-- Node1&#45;&gt;Node4 -->
<g id="edge3" class="edge"><title>Node1&#45;&gt;Node4</title>
<path fill="none" stroke="midnightblue" d="M136.954,-56.083C141.104,-48.6127 147.153,-37.7244 152.267,-28.5199"/>
<polygon fill="midnightblue" stroke="midnightblue" points="155.341,-30.1924 157.138,-19.7511 149.222,-26.7929 155.341,-30.1924"/>
</g>
<!-- Node5 -->
<g id="node5" class="node"><title>Node5</title>
<polygon fill="white" stroke="#bfbfbf" points="197.5,-0.5 197.5,-19.5 254.5,-19.5 254.5,-0.5 197.5,-0.5"/>
<text text-anchor="middle" x="226" y="-7.5" font-family="Helvetica,sans-Serif" font-size="10.00">pthread.h</text>
</g>
<!-- Node1&#45;&gt;Node5 -->
<g id="edge4" class="edge"><title>Node1&#45;&gt;Node5</title>
<path fill="none" stroke="midnightblue" d="M147.103,-56.324C161.903,-47.8215 184.694,-34.7288 201.982,-24.7975"/>
<polygon fill="midnightblue" stroke="midnightblue" points="204.007,-27.6707 210.935,-19.6545 200.52,-21.6009 204.007,-27.6707"/>
</g>
</g>
</svg>
