<?xml version="1.0" encoding="UTF-8" standalone="no"?>
<!DOCTYPE svg PUBLIC "-//W3C//DTD SVG 1.1//EN"
 "http://www.w3.org/Graphics/SVG/1.1/DTD/svg11.dtd">
<!-- Generated by graphviz version 2.38.0 (20140413.2041)
 -->
<!-- Title: HandleHostBandwidth.h Pages: 1 -->
<svg width="267pt" height="140pt"
 viewBox="0.00 0.00 267.00 140.00" xmlns="http://www.w3.org/2000/svg" xmlns:xlink="http://www.w3.org/1999/xlink">
<g id="graph0" class="graph" transform="scale(1 1) rotate(0) translate(4 136)">
<title>HandleHostBandwidth.h</title>
<polygon fill="white" stroke="none" points="-4,4 -4,-136 263,-136 263,4 -4,4"/>
<!-- Node1 -->
<g id="node1" class="node"><title>Node1</title>
<polygon fill="#bfbfbf" stroke="black" points="48,-112.5 48,-131.5 170,-131.5 170,-112.5 48,-112.5"/>
<text text-anchor="middle" x="109" y="-119.5" font-family="Helvetica,sans-Serif" font-size="10.00">HandleHostBandwidth.h</text>
</g>
<!-- Node2 -->
<g id="node2" class="node"><title>Node2</title>
<polygon fill="white" stroke="#bfbfbf" points="-3.55271e-15,-56.5 -3.55271e-15,-75.5 62,-75.5 62,-56.5 -3.55271e-15,-56.5"/>
<text text-anchor="middle" x="31" y="-63.5" font-family="Helvetica,sans-Serif" font-size="10.00">arpa/inet.h</text>
</g>
<!-- Node1&#45;&gt;Node2 -->
<g id="edge1" class="edge"><title>Node1&#45;&gt;Node2</title>
<path fill="none" stroke="midnightblue" d="M96.468,-112.324C84.4141,-103.979 65.9732,-91.2122 51.7313,-81.3524"/>
<polygon fill="midnightblue" stroke="midnightblue" points="53.7151,-78.469 43.5009,-75.6545 49.7306,-84.2243 53.7151,-78.469"/>
</g>
<!-- Node3 -->
<g id="node3" class="node"><title>Node3</title>
<polygon fill="white" stroke="#bfbfbf" points="80.5,-56.5 80.5,-75.5 137.5,-75.5 137.5,-56.5 80.5,-56.5"/>
<text text-anchor="middle" x="109" y="-63.5" font-family="Helvetica,sans-Serif" font-size="10.00">pthread.h</text>
</g>
<!-- Node1&#45;&gt;Node3 -->
<g id="edge2" class="edge"><title>Node1&#45;&gt;Node3</title>
<path fill="none" stroke="midnightblue" d="M109,-112.083C109,-105.006 109,-94.8611 109,-85.9865"/>
<polygon fill="midnightblue" stroke="midnightblue" points="112.5,-85.751 109,-75.7511 105.5,-85.7511 112.5,-85.751"/>
</g>
<!-- Node4 -->
<g id="node4" class="node"><title>Node4</title>
<g id="a_node4"><a xlink:href="LoggingHandler_8h.html" target="_top" xlink:title="LoggingHandler.h">
<polygon fill="white" stroke="black" points="156,-56.5 156,-75.5 248,-75.5 248,-56.5 156,-56.5"/>
<text text-anchor="middle" x="202" y="-63.5" font-family="Helvetica,sans-Serif" font-size="10.00">LoggingHandler.h</text>
</a>
</g>
</g>
<!-- Node1&#45;&gt;Node4 -->
<g id="edge3" class="edge"><title>Node1&#45;&gt;Node4</title>
<path fill="none" stroke="midnightblue" d="M123.942,-112.324C138.585,-103.822 161.134,-90.7288 178.238,-80.7975"/>
<polygon fill="midnightblue" stroke="midnightblue" points="180.205,-83.7027 187.095,-75.6545 176.69,-77.6491 180.205,-83.7027"/>
</g>
<!-- Node5 -->
<g id="node5" class="node"><title>Node5</title>
<polygon fill="white" stroke="#bfbfbf" points="149.5,-0.5 149.5,-19.5 190.5,-19.5 190.5,-0.5 149.5,-0.5"/>
<text text-anchor="middle" x="170" y="-7.5" font-family="Helvetica,sans-Serif" font-size="10.00">string</text>
</g>
<!-- Node4&#45;&gt;Node5 -->
<g id="edge4" class="edge"><title>Node4&#45;&gt;Node5</title>
<path fill="none" stroke="midnightblue" d="M196.716,-56.083C192.289,-48.6127 185.837,-37.7244 180.382,-28.5199"/>
<polygon fill="midnightblue" stroke="midnightblue" points="183.295,-26.5697 175.186,-19.7511 177.273,-30.1383 183.295,-26.5697"/>
</g>
<!-- Node6 -->
<g id="node6" class="node"><title>Node6</title>
<polygon fill="white" stroke="#bfbfbf" points="209,-0.5 209,-19.5 259,-19.5 259,-0.5 209,-0.5"/>
<text text-anchor="middle" x="234" y="-7.5" font-family="Helvetica,sans-Serif" font-size="10.00">fstream</text>
</g>
<!-- Node4&#45;&gt;Node6 -->
<g id="edge5" class="edge"><title>Node4&#45;&gt;Node6</title>
<path fill="none" stroke="midnightblue" d="M207.284,-56.083C211.711,-48.6127 218.163,-37.7244 223.618,-28.5199"/>
<polygon fill="midnightblue" stroke="midnightblue" points="226.727,-30.1383 228.814,-19.7511 220.705,-26.5697 226.727,-30.1383"/>
</g>
</g>
</svg>
