<?xml version="1.0" encoding="UTF-8" standalone="no"?>
<!DOCTYPE svg PUBLIC "-//W3C//DTD SVG 1.1//EN"
 "http://www.w3.org/Graphics/SVG/1.1/DTD/svg11.dtd">
<!-- Generated by graphviz version 2.38.0 (20140413.2041)
 -->
<!-- Title: HandleHostBandwidth.cpp Pages: 1 -->
<svg width="446pt" height="196pt"
 viewBox="0.00 0.00 446.00 196.00" xmlns="http://www.w3.org/2000/svg" xmlns:xlink="http://www.w3.org/1999/xlink">
<g id="graph0" class="graph" transform="scale(1 1) rotate(0) translate(4 192)">
<title>HandleHostBandwidth.cpp</title>
<polygon fill="white" stroke="none" points="-4,4 -4,-192 442,-192 442,4 -4,4"/>
<!-- Node1 -->
<g id="node1" class="node"><title>Node1</title>
<polygon fill="#bfbfbf" stroke="black" points="209,-168.5 209,-187.5 342,-187.5 342,-168.5 209,-168.5"/>
<text text-anchor="middle" x="275.5" y="-175.5" font-family="Helvetica,sans-Serif" font-size="10.00">HandleHostBandwidth.cpp</text>
</g>
<!-- Node2 -->
<g id="node2" class="node"><title>Node2</title>
<g id="a_node2"><a xlink:href="HandleHostBandwidth_8h.html" target="_top" xlink:title="HandleHostBandwidth.h">
<polygon fill="white" stroke="black" points="109.5,-112.5 109.5,-131.5 231.5,-131.5 231.5,-112.5 109.5,-112.5"/>
<text text-anchor="middle" x="170.5" y="-119.5" font-family="Helvetica,sans-Serif" font-size="10.00">HandleHostBandwidth.h</text>
</a>
</g>
</g>
<!-- Node1&#45;&gt;Node2 -->
<g id="edge1" class="edge"><title>Node1&#45;&gt;Node2</title>
<path fill="none" stroke="midnightblue" d="M258.63,-168.324C241.791,-159.664 215.693,-146.242 196.262,-136.249"/>
<polygon fill="midnightblue" stroke="midnightblue" points="197.822,-133.116 187.328,-131.655 194.62,-139.341 197.822,-133.116"/>
</g>
<!-- Node10 -->
<g id="node10" class="node"><title>Node10</title>
<polygon fill="white" stroke="#bfbfbf" points="249.5,-112.5 249.5,-131.5 301.5,-131.5 301.5,-112.5 249.5,-112.5"/>
<text text-anchor="middle" x="275.5" y="-119.5" font-family="Helvetica,sans-Serif" font-size="10.00">sstream</text>
</g>
<!-- Node1&#45;&gt;Node10 -->
<g id="edge9" class="edge"><title>Node1&#45;&gt;Node10</title>
<path fill="none" stroke="midnightblue" d="M275.5,-168.083C275.5,-161.006 275.5,-150.861 275.5,-141.986"/>
<polygon fill="midnightblue" stroke="midnightblue" points="279,-141.751 275.5,-131.751 272,-141.751 279,-141.751"/>
</g>
<!-- Node11 -->
<g id="node11" class="node"><title>Node11</title>
<polygon fill="white" stroke="#bfbfbf" points="320,-112.5 320,-131.5 369,-131.5 369,-112.5 320,-112.5"/>
<text text-anchor="middle" x="344.5" y="-119.5" font-family="Helvetica,sans-Serif" font-size="10.00">string.h</text>
</g>
<!-- Node1&#45;&gt;Node11 -->
<g id="edge10" class="edge"><title>Node1&#45;&gt;Node11</title>
<path fill="none" stroke="midnightblue" d="M286.586,-168.324C296.986,-160.185 312.761,-147.839 325.222,-138.087"/>
<polygon fill="midnightblue" stroke="midnightblue" points="327.494,-140.753 333.212,-131.834 323.18,-135.241 327.494,-140.753"/>
</g>
<!-- Node12 -->
<g id="node12" class="node"><title>Node12</title>
<polygon fill="white" stroke="#bfbfbf" points="387,-112.5 387,-131.5 438,-131.5 438,-112.5 387,-112.5"/>
<text text-anchor="middle" x="412.5" y="-119.5" font-family="Helvetica,sans-Serif" font-size="10.00">unistd.h</text>
</g>
<!-- Node1&#45;&gt;Node12 -->
<g id="edge11" class="edge"><title>Node1&#45;&gt;Node12</title>
<path fill="none" stroke="midnightblue" d="M297.208,-168.444C319.855,-159.517 355.572,-145.439 381.252,-135.317"/>
<polygon fill="midnightblue" stroke="midnightblue" points="382.874,-138.44 390.894,-131.516 380.307,-131.927 382.874,-138.44"/>
</g>
<!-- Node13 -->
<g id="node13" class="node"><title>Node13</title>
<g id="a_node13"><a xlink:href="ThreadHelper_8h.html" target="_top" xlink:title="ThreadHelper.h">
<polygon fill="white" stroke="black" points="8,-112.5 8,-131.5 91,-131.5 91,-112.5 8,-112.5"/>
<text text-anchor="middle" x="49.5" y="-119.5" font-family="Helvetica,sans-Serif" font-size="10.00">ThreadHelper.h</text>
</a>
</g>
</g>
<!-- Node1&#45;&gt;Node13 -->
<g id="edge12" class="edge"><title>Node1&#45;&gt;Node13</title>
<path fill="none" stroke="midnightblue" d="M239.69,-168.444C200.512,-159.083 137.623,-144.056 94.9846,-133.868"/>
<polygon fill="midnightblue" stroke="midnightblue" points="95.6825,-130.436 85.1428,-131.516 94.0556,-137.245 95.6825,-130.436"/>
</g>
<!-- Node3 -->
<g id="node3" class="node"><title>Node3</title>
<polygon fill="white" stroke="#bfbfbf" points="139.5,-56.5 139.5,-75.5 201.5,-75.5 201.5,-56.5 139.5,-56.5"/>
<text text-anchor="middle" x="170.5" y="-63.5" font-family="Helvetica,sans-Serif" font-size="10.00">arpa/inet.h</text>
</g>
<!-- Node2&#45;&gt;Node3 -->
<g id="edge2" class="edge"><title>Node2&#45;&gt;Node3</title>
<path fill="none" stroke="midnightblue" d="M170.5,-112.083C170.5,-105.006 170.5,-94.8611 170.5,-85.9865"/>
<polygon fill="midnightblue" stroke="midnightblue" points="174,-85.751 170.5,-75.7511 167,-85.7511 174,-85.751"/>
</g>
<!-- Node4 -->
<g id="node4" class="node"><title>Node4</title>
<polygon fill="white" stroke="#bfbfbf" points="75.5,-56.5 75.5,-75.5 121.5,-75.5 121.5,-56.5 75.5,-56.5"/>
<text text-anchor="middle" x="98.5" y="-63.5" font-family="Helvetica,sans-Serif" font-size="10.00">atomic</text>
</g>
<!-- Node2&#45;&gt;Node4 -->
<g id="edge3" class="edge"><title>Node2&#45;&gt;Node4</title>
<path fill="none" stroke="midnightblue" d="M158.932,-112.324C148.08,-104.185 131.619,-91.8395 118.617,-82.0874"/>
<polygon fill="midnightblue" stroke="midnightblue" points="120.379,-79.0339 110.279,-75.8339 116.179,-84.6339 120.379,-79.0339"/>
</g>
<!-- Node5 -->
<g id="node5" class="node"><title>Node5</title>
<polygon fill="white" stroke="#bfbfbf" points="220,-56.5 220,-75.5 255,-75.5 255,-56.5 220,-56.5"/>
<text text-anchor="middle" x="237.5" y="-63.5" font-family="Helvetica,sans-Serif" font-size="10.00">map</text>
</g>
<!-- Node2&#45;&gt;Node5 -->
<g id="edge4" class="edge"><title>Node2&#45;&gt;Node5</title>
<path fill="none" stroke="midnightblue" d="M181.265,-112.324C191.266,-104.263 206.387,-92.0765 218.43,-82.3695"/>
<polygon fill="midnightblue" stroke="midnightblue" points="220.95,-84.8343 226.539,-75.8339 216.557,-79.3841 220.95,-84.8343"/>
</g>
<!-- Node6 -->
<g id="node6" class="node"><title>Node6</title>
<polygon fill="white" stroke="#bfbfbf" points="0,-56.5 0,-75.5 57,-75.5 57,-56.5 0,-56.5"/>
<text text-anchor="middle" x="28.5" y="-63.5" font-family="Helvetica,sans-Serif" font-size="10.00">pthread.h</text>
</g>
<!-- Node2&#45;&gt;Node6 -->
<g id="edge5" class="edge"><title>Node2&#45;&gt;Node6</title>
<path fill="none" stroke="midnightblue" d="M148,-112.444C124.423,-103.478 87.1776,-89.314 60.536,-79.1827"/>
<polygon fill="midnightblue" stroke="midnightblue" points="61.4861,-75.7995 50.8951,-75.5164 58.9979,-82.3424 61.4861,-75.7995"/>
</g>
<!-- Node7 -->
<g id="node7" class="node"><title>Node7</title>
<g id="a_node7"><a xlink:href="LoggingHandler_8h.html" target="_top" xlink:title="LoggingHandler.h">
<polygon fill="white" stroke="black" points="273.5,-56.5 273.5,-75.5 365.5,-75.5 365.5,-56.5 273.5,-56.5"/>
<text text-anchor="middle" x="319.5" y="-63.5" font-family="Helvetica,sans-Serif" font-size="10.00">LoggingHandler.h</text>
</a>
</g>
</g>
<!-- Node2&#45;&gt;Node7 -->
<g id="edge6" class="edge"><title>Node2&#45;&gt;Node7</title>
<path fill="none" stroke="midnightblue" d="M194.109,-112.444C218.958,-103.438 258.274,-89.1891 286.254,-79.049"/>
<polygon fill="midnightblue" stroke="midnightblue" points="287.792,-82.2144 296.001,-75.5164 285.407,-75.6332 287.792,-82.2144"/>
</g>
<!-- Node8 -->
<g id="node8" class="node"><title>Node8</title>
<polygon fill="white" stroke="#bfbfbf" points="267,-0.5 267,-19.5 308,-19.5 308,-0.5 267,-0.5"/>
<text text-anchor="middle" x="287.5" y="-7.5" font-family="Helvetica,sans-Serif" font-size="10.00">string</text>
</g>
<!-- Node7&#45;&gt;Node8 -->
<g id="edge7" class="edge"><title>Node7&#45;&gt;Node8</title>
<path fill="none" stroke="midnightblue" d="M314.216,-56.083C309.789,-48.6127 303.337,-37.7244 297.882,-28.5199"/>
<polygon fill="midnightblue" stroke="midnightblue" points="300.795,-26.5697 292.686,-19.7511 294.773,-30.1383 300.795,-26.5697"/>
</g>
<!-- Node9 -->
<g id="node9" class="node"><title>Node9</title>
<polygon fill="white" stroke="#bfbfbf" points="326.5,-0.5 326.5,-19.5 376.5,-19.5 376.5,-0.5 326.5,-0.5"/>
<text text-anchor="middle" x="351.5" y="-7.5" font-family="Helvetica,sans-Serif" font-size="10.00">fstream</text>
</g>
<!-- Node7&#45;&gt;Node9 -->
<g id="edge8" class="edge"><title>Node7&#45;&gt;Node9</title>
<path fill="none" stroke="midnightblue" d="M324.784,-56.083C329.211,-48.6127 335.663,-37.7244 341.118,-28.5199"/>
<polygon fill="midnightblue" stroke="midnightblue" points="344.227,-30.1383 346.314,-19.7511 338.205,-26.5697 344.227,-30.1383"/>
</g>
<!-- Node13&#45;&gt;Node4 -->
<g id="edge13" class="edge"><title>Node13&#45;&gt;Node4</title>
<path fill="none" stroke="midnightblue" d="M57.5914,-112.083C64.6554,-104.298 75.0876,-92.8015 83.6489,-83.3665"/>
<polygon fill="midnightblue" stroke="midnightblue" points="86.4312,-85.5087 90.5592,-75.7511 81.2473,-80.8047 86.4312,-85.5087"/>
</g>
<!-- Node13&#45;&gt;Node6 -->
<g id="edge14" class="edge"><title>Node13&#45;&gt;Node6</title>
<path fill="none" stroke="midnightblue" d="M46.0323,-112.083C43.1883,-104.77 39.0705,-94.1814 35.5402,-85.1034"/>
<polygon fill="midnightblue" stroke="midnightblue" points="38.7897,-83.8025 31.9032,-75.7511 32.2657,-86.3397 38.7897,-83.8025"/>
</g>
</g>
</svg>
