<?xml version="1.0" encoding="UTF-8" standalone="no"?>
<!DOCTYPE svg PUBLIC "-//W3C//DTD SVG 1.1//EN"
 "http://www.w3.org/Graphics/SVG/1.1/DTD/svg11.dtd">
<!-- Generated by graphviz version 2.38.0 (20140413.2041)
 -->
<!-- Title: HandleHostBandwidth.h Pages: 1 -->
<svg width="384pt" height="140pt"
 viewBox="0.00 0.00 384.00 140.00" xmlns="http://www.w3.org/2000/svg" xmlns:xlink="http://www.w3.org/1999/xlink">
<g id="graph0" class="graph" transform="scale(1 1) rotate(0) translate(4 136)">
<title>HandleHostBandwidth.h</title>
<polygon fill="white" stroke="none" points="-4,4 -4,-136 380,-136 380,4 -4,4"/>
<!-- Node1 -->
<g id="node1" class="node"><title>Node1</title>
<polygon fill="#bfbfbf" stroke="black" points="101,-112.5 101,-131.5 223,-131.5 223,-112.5 101,-112.5"/>
<text text-anchor="middle" x="162" y="-119.5" font-family="Helvetica,sans-Serif" font-size="10.00">HandleHostBandwidth.h</text>
</g>
<!-- Node2 -->
<g id="node2" class="node"><title>Node2</title>
<polygon fill="white" stroke="#bfbfbf" points="-3.55271e-15,-56.5 -3.55271e-15,-75.5 62,-75.5 62,-56.5 -3.55271e-15,-56.5"/>
<text text-anchor="middle" x="31" y="-63.5" font-family="Helvetica,sans-Serif" font-size="10.00">arpa/inet.h</text>
</g>
<!-- Node1&#45;&gt;Node2 -->
<g id="edge1" class="edge"><title>Node1&#45;&gt;Node2</title>
<path fill="none" stroke="midnightblue" d="M141.243,-112.444C119.684,-103.557 85.7367,-89.5632 61.2062,-79.4514"/>
<polygon fill="midnightblue" stroke="midnightblue" points="62.2394,-76.0917 51.6602,-75.5164 59.5717,-82.5634 62.2394,-76.0917"/>
</g>
<!-- Node3 -->
<g id="node3" class="node"><title>Node3</title>
<polygon fill="white" stroke="#bfbfbf" points="80,-56.5 80,-75.5 126,-75.5 126,-56.5 80,-56.5"/>
<text text-anchor="middle" x="103" y="-63.5" font-family="Helvetica,sans-Serif" font-size="10.00">atomic</text>
</g>
<!-- Node1&#45;&gt;Node3 -->
<g id="edge2" class="edge"><title>Node1&#45;&gt;Node3</title>
<path fill="none" stroke="midnightblue" d="M152.521,-112.324C143.799,-104.341 130.657,-92.3128 120.102,-82.6529"/>
<polygon fill="midnightblue" stroke="midnightblue" points="122.392,-80.0036 112.652,-75.8339 117.666,-85.1674 122.392,-80.0036"/>
</g>
<!-- Node4 -->
<g id="node4" class="node"><title>Node4</title>
<polygon fill="white" stroke="#bfbfbf" points="144.5,-56.5 144.5,-75.5 179.5,-75.5 179.5,-56.5 144.5,-56.5"/>
<text text-anchor="middle" x="162" y="-63.5" font-family="Helvetica,sans-Serif" font-size="10.00">map</text>
</g>
<!-- Node1&#45;&gt;Node4 -->
<g id="edge3" class="edge"><title>Node1&#45;&gt;Node4</title>
<path fill="none" stroke="midnightblue" d="M162,-112.083C162,-105.006 162,-94.8611 162,-85.9865"/>
<polygon fill="midnightblue" stroke="midnightblue" points="165.5,-85.751 162,-75.7511 158.5,-85.7511 165.5,-85.751"/>
</g>
<!-- Node5 -->
<g id="node5" class="node"><title>Node5</title>
<polygon fill="white" stroke="#bfbfbf" points="197.5,-56.5 197.5,-75.5 254.5,-75.5 254.5,-56.5 197.5,-56.5"/>
<text text-anchor="middle" x="226" y="-63.5" font-family="Helvetica,sans-Serif" font-size="10.00">pthread.h</text>
</g>
<!-- Node1&#45;&gt;Node5 -->
<g id="edge4" class="edge"><title>Node1&#45;&gt;Node5</title>
<path fill="none" stroke="midnightblue" d="M172.283,-112.324C181.836,-104.263 196.28,-92.0765 207.784,-82.3695"/>
<polygon fill="midnightblue" stroke="midnightblue" points="210.144,-84.9577 215.53,-75.8339 205.63,-79.6076 210.144,-84.9577"/>
</g>
<!-- Node6 -->
<g id="node6" class="node"><title>Node6</title>
<g id="a_node6"><a xlink:href="LoggingHandler_8h.html" target="_top" xlink:title="LoggingHandler.h">
<polygon fill="white" stroke="black" points="273,-56.5 273,-75.5 365,-75.5 365,-56.5 273,-56.5"/>
<text text-anchor="middle" x="319" y="-63.5" font-family="Helvetica,sans-Serif" font-size="10.00">LoggingHandler.h</text>
</a>
</g>
</g>
<!-- Node1&#45;&gt;Node6 -->
<g id="edge5" class="edge"><title>Node1&#45;&gt;Node6</title>
<path fill="none" stroke="midnightblue" d="M186.877,-112.444C213.289,-103.359 255.215,-88.9388 284.742,-78.7831"/>
<polygon fill="midnightblue" stroke="midnightblue" points="285.921,-82.0787 294.239,-75.5164 283.645,-75.4593 285.921,-82.0787"/>
</g>
<!-- Node7 -->
<g id="node7" class="node"><title>Node7</title>
<polygon fill="white" stroke="#bfbfbf" points="266.5,-0.5 266.5,-19.5 307.5,-19.5 307.5,-0.5 266.5,-0.5"/>
<text text-anchor="middle" x="287" y="-7.5" font-family="Helvetica,sans-Serif" font-size="10.00">string</text>
</g>
<!-- Node6&#45;&gt;Node7 -->
<g id="edge6" class="edge"><title>Node6&#45;&gt;Node7</title>
<path fill="none" stroke="midnightblue" d="M313.716,-56.083C309.289,-48.6127 302.837,-37.7244 297.382,-28.5199"/>
<polygon fill="midnightblue" stroke="midnightblue" points="300.295,-26.5697 292.186,-19.7511 294.273,-30.1383 300.295,-26.5697"/>
</g>
<!-- Node8 -->
<g id="node8" class="node"><title>Node8</title>
<polygon fill="white" stroke="#bfbfbf" points="326,-0.5 326,-19.5 376,-19.5 376,-0.5 326,-0.5"/>
<text text-anchor="middle" x="351" y="-7.5" font-family="Helvetica,sans-Serif" font-size="10.00">fstream</text>
</g>
<!-- Node6&#45;&gt;Node8 -->
<g id="edge7" class="edge"><title>Node6&#45;&gt;Node8</title>
<path fill="none" stroke="midnightblue" d="M324.284,-56.083C328.711,-48.6127 335.163,-37.7244 340.618,-28.5199"/>
<polygon fill="midnightblue" stroke="midnightblue" points="343.727,-30.1383 345.814,-19.7511 337.705,-26.5697 343.727,-30.1383"/>
</g>
</g>
</svg>
