<?xml version="1.0" encoding="UTF-8" standalone="no"?>
<!DOCTYPE svg PUBLIC "-//W3C//DTD SVG 1.1//EN"
 "http://www.w3.org/Graphics/SVG/1.1/DTD/svg11.dtd">
<!-- Generated by graphviz version 2.38.0 (20140413.2041)
 -->
<!-- Title: HelperMethods.cpp Pages: 1 -->
<svg width="306pt" height="140pt"
 viewBox="0.00 0.00 306.00 140.00" xmlns="http://www.w3.org/2000/svg" xmlns:xlink="http://www.w3.org/1999/xlink">
<g id="graph0" class="graph" transform="scale(1 1) rotate(0) translate(4 136)">
<title>HelperMethods.cpp</title>
<polygon fill="white" stroke="none" points="-4,4 -4,-136 302,-136 302,4 -4,4"/>
<!-- Node1 -->
<g id="node1" class="node"><title>Node1</title>
<polygon fill="#bfbfbf" stroke="black" points="121,-112.5 121,-131.5 222,-131.5 222,-112.5 121,-112.5"/>
<text text-anchor="middle" x="171.5" y="-119.5" font-family="Helvetica,sans-Serif" font-size="10.00">HelperMethods.cpp</text>
</g>
<!-- Node2 -->
<g id="node2" class="node"><title>Node2</title>
<g id="a_node2"><a xlink:href="HelperMethods_8h.html" target="_top" xlink:title="HelperMethods.h">
<polygon fill="white" stroke="black" points="0,-56.5 0,-75.5 91,-75.5 91,-56.5 0,-56.5"/>
<text text-anchor="middle" x="45.5" y="-63.5" font-family="Helvetica,sans-Serif" font-size="10.00">HelperMethods.h</text>
</a>
</g>
</g>
<!-- Node1&#45;&gt;Node2 -->
<g id="edge1" class="edge"><title>Node1&#45;&gt;Node2</title>
<path fill="none" stroke="midnightblue" d="M151.535,-112.444C130.891,-103.596 98.4375,-89.6875 74.8684,-79.5865"/>
<polygon fill="midnightblue" stroke="midnightblue" points="75.9419,-76.2387 65.3717,-75.5164 73.1844,-82.6727 75.9419,-76.2387"/>
</g>
<!-- Node4 -->
<g id="node4" class="node"><title>Node4</title>
<polygon fill="white" stroke="#bfbfbf" points="109.5,-56.5 109.5,-75.5 163.5,-75.5 163.5,-56.5 109.5,-56.5"/>
<text text-anchor="middle" x="136.5" y="-63.5" font-family="Helvetica,sans-Serif" font-size="10.00">ifaddrs.h</text>
</g>
<!-- Node1&#45;&gt;Node4 -->
<g id="edge3" class="edge"><title>Node1&#45;&gt;Node4</title>
<path fill="none" stroke="midnightblue" d="M165.72,-112.083C160.828,-104.534 153.673,-93.4948 147.667,-84.2298"/>
<polygon fill="midnightblue" stroke="midnightblue" points="150.548,-82.239 142.172,-75.7511 144.674,-86.0463 150.548,-82.239"/>
</g>
<!-- Node5 -->
<g id="node5" class="node"><title>Node5</title>
<polygon fill="white" stroke="#bfbfbf" points="182,-56.5 182,-75.5 231,-75.5 231,-56.5 182,-56.5"/>
<text text-anchor="middle" x="206.5" y="-63.5" font-family="Helvetica,sans-Serif" font-size="10.00">netdb.h</text>
</g>
<!-- Node1&#45;&gt;Node5 -->
<g id="edge4" class="edge"><title>Node1&#45;&gt;Node5</title>
<path fill="none" stroke="midnightblue" d="M177.28,-112.083C182.172,-104.534 189.327,-93.4948 195.333,-84.2298"/>
<polygon fill="midnightblue" stroke="midnightblue" points="198.326,-86.0463 200.828,-75.7511 192.452,-82.239 198.326,-86.0463"/>
</g>
<!-- Node6 -->
<g id="node6" class="node"><title>Node6</title>
<polygon fill="white" stroke="#bfbfbf" points="249,-56.5 249,-75.5 298,-75.5 298,-56.5 249,-56.5"/>
<text text-anchor="middle" x="273.5" y="-63.5" font-family="Helvetica,sans-Serif" font-size="10.00">string.h</text>
</g>
<!-- Node1&#45;&gt;Node6 -->
<g id="edge5" class="edge"><title>Node1&#45;&gt;Node6</title>
<path fill="none" stroke="midnightblue" d="M187.888,-112.324C204.171,-103.703 229.367,-90.3643 248.216,-80.3855"/>
<polygon fill="midnightblue" stroke="midnightblue" points="249.952,-83.4267 257.153,-75.6545 246.677,-77.2402 249.952,-83.4267"/>
</g>
<!-- Node3 -->
<g id="node3" class="node"><title>Node3</title>
<polygon fill="white" stroke="#bfbfbf" points="25,-0.5 25,-19.5 66,-19.5 66,-0.5 25,-0.5"/>
<text text-anchor="middle" x="45.5" y="-7.5" font-family="Helvetica,sans-Serif" font-size="10.00">string</text>
</g>
<!-- Node2&#45;&gt;Node3 -->
<g id="edge2" class="edge"><title>Node2&#45;&gt;Node3</title>
<path fill="none" stroke="midnightblue" d="M45.5,-56.083C45.5,-49.0059 45.5,-38.8611 45.5,-29.9865"/>
<polygon fill="midnightblue" stroke="midnightblue" points="49.0001,-29.751 45.5,-19.7511 42.0001,-29.7511 49.0001,-29.751"/>
</g>
</g>
</svg>
