<?xml version="1.0" encoding="UTF-8" standalone="no"?>
<!DOCTYPE svg PUBLIC "-//W3C//DTD SVG 1.1//EN"
 "http://www.w3.org/Graphics/SVG/1.1/DTD/svg11.dtd">
<!-- Generated by graphviz version 2.38.0 (20140413.2041)
 -->
<!-- Title: HelperMethods.h Pages: 1 -->
<svg width="363pt" height="84pt"
 viewBox="0.00 0.00 363.00 84.00" xmlns="http://www.w3.org/2000/svg" xmlns:xlink="http://www.w3.org/1999/xlink">
<g id="graph0" class="graph" transform="scale(1 1) rotate(0) translate(4 80)">
<title>HelperMethods.h</title>
<polygon fill="white" stroke="none" points="-4,4 -4,-80 359,-80 359,4 -4,4"/>
<!-- Node1 -->
<g id="node1" class="node"><title>Node1</title>
<polygon fill="#bfbfbf" stroke="black" points="156,-56.5 156,-75.5 247,-75.5 247,-56.5 156,-56.5"/>
<text text-anchor="middle" x="201.5" y="-63.5" font-family="Helvetica,sans-Serif" font-size="10.00">HelperMethods.h</text>
</g>
<!-- Node2 -->
<g id="node2" class="node"><title>Node2</title>
<g id="a_node2"><a xlink:href="HandleHostBandwidth_8cpp.html" target="_top" xlink:title="HandleHostBandwidth.cpp">
<polygon fill="white" stroke="black" points="0,-0.5 0,-19.5 133,-19.5 133,-0.5 0,-0.5"/>
<text text-anchor="middle" x="66.5" y="-7.5" font-family="Helvetica,sans-Serif" font-size="10.00">HandleHostBandwidth.cpp</text>
</a>
</g>
</g>
<!-- Node1&#45;&gt;Node2 -->
<g id="edge1" class="edge"><title>Node1&#45;&gt;Node2</title>
<path fill="none" stroke="midnightblue" d="M170.594,-52.6377C145.26,-42.504 110.069,-28.4274 87.7911,-19.5164"/>
<polygon fill="midnightblue" stroke="midnightblue" points="169.524,-55.9792 180.109,-56.4435 172.124,-49.4799 169.524,-55.9792"/>
</g>
<!-- Node3 -->
<g id="node3" class="node"><title>Node3</title>
<g id="a_node3"><a xlink:href="HelperMethods_8cpp.html" target="_top" xlink:title="HelperMethods.cpp">
<polygon fill="white" stroke="black" points="151,-0.5 151,-19.5 252,-19.5 252,-0.5 151,-0.5"/>
<text text-anchor="middle" x="201.5" y="-7.5" font-family="Helvetica,sans-Serif" font-size="10.00">HelperMethods.cpp</text>
</a>
</g>
</g>
<!-- Node1&#45;&gt;Node3 -->
<g id="edge2" class="edge"><title>Node1&#45;&gt;Node3</title>
<path fill="none" stroke="midnightblue" d="M201.5,-45.8045C201.5,-36.9102 201.5,-26.7798 201.5,-19.7511"/>
<polygon fill="midnightblue" stroke="midnightblue" points="198,-46.083 201.5,-56.083 205,-46.083 198,-46.083"/>
</g>
<!-- Node4 -->
<g id="node4" class="node"><title>Node4</title>
<g id="a_node4"><a xlink:href="MainObject_8cpp.html" target="_top" xlink:title="MainObject.cpp">
<polygon fill="white" stroke="black" points="270,-0.5 270,-19.5 355,-19.5 355,-0.5 270,-0.5"/>
<text text-anchor="middle" x="312.5" y="-7.5" font-family="Helvetica,sans-Serif" font-size="10.00">MainObject.cpp</text>
</a>
</g>
</g>
<!-- Node1&#45;&gt;Node4 -->
<g id="edge3" class="edge"><title>Node1&#45;&gt;Node4</title>
<path fill="none" stroke="midnightblue" d="M228.505,-51.8622C249.088,-41.8492 276.845,-28.3458 294.71,-19.6545"/>
<polygon fill="midnightblue" stroke="midnightblue" points="226.795,-48.8019 219.334,-56.324 229.858,-55.0966 226.795,-48.8019"/>
</g>
</g>
</svg>
