<?xml version="1.0" encoding="UTF-8" standalone="no"?>
<!DOCTYPE svg PUBLIC "-//W3C//DTD SVG 1.1//EN"
 "http://www.w3.org/Graphics/SVG/1.1/DTD/svg11.dtd">
<!-- Generated by graphviz version 2.38.0 (20140413.2041)
 -->
<!-- Title: HelperMethods.cpp Pages: 1 -->
<svg width="403pt" height="140pt"
 viewBox="0.00 0.00 403.00 140.00" xmlns="http://www.w3.org/2000/svg" xmlns:xlink="http://www.w3.org/1999/xlink">
<g id="graph0" class="graph" transform="scale(1 1) rotate(0) translate(4 136)">
<title>HelperMethods.cpp</title>
<polygon fill="white" stroke="none" points="-4,4 -4,-136 399,-136 399,4 -4,4"/>
<!-- Node1 -->
<g id="node1" class="node"><title>Node1</title>
<polygon fill="#bfbfbf" stroke="black" points="156,-112.5 156,-131.5 257,-131.5 257,-112.5 156,-112.5"/>
<text text-anchor="middle" x="206.5" y="-119.5" font-family="Helvetica,sans-Serif" font-size="10.00">HelperMethods.cpp</text>
</g>
<!-- Node2 -->
<g id="node2" class="node"><title>Node2</title>
<g id="a_node2"><a xlink:href="HelperMethods_8h.html" target="_top" xlink:title="HelperMethods.h">
<polygon fill="white" stroke="black" points="0,-56.5 0,-75.5 91,-75.5 91,-56.5 0,-56.5"/>
<text text-anchor="middle" x="45.5" y="-63.5" font-family="Helvetica,sans-Serif" font-size="10.00">HelperMethods.h</text>
</a>
</g>
</g>
<!-- Node1&#45;&gt;Node2 -->
<g id="edge1" class="edge"><title>Node1&#45;&gt;Node2</title>
<path fill="none" stroke="midnightblue" d="M180.989,-112.444C153.904,-103.359 110.91,-88.9388 80.6312,-78.7831"/>
<polygon fill="midnightblue" stroke="midnightblue" points="81.4855,-75.3781 70.8916,-75.5164 79.2595,-82.0148 81.4855,-75.3781"/>
</g>
<!-- Node4 -->
<g id="node4" class="node"><title>Node4</title>
<polygon fill="white" stroke="#bfbfbf" points="109.5,-56.5 109.5,-75.5 163.5,-75.5 163.5,-56.5 109.5,-56.5"/>
<text text-anchor="middle" x="136.5" y="-63.5" font-family="Helvetica,sans-Serif" font-size="10.00">ifaddrs.h</text>
</g>
<!-- Node1&#45;&gt;Node4 -->
<g id="edge3" class="edge"><title>Node1&#45;&gt;Node4</title>
<path fill="none" stroke="midnightblue" d="M195.253,-112.324C184.703,-104.185 168.699,-91.8395 156.058,-82.0874"/>
<polygon fill="midnightblue" stroke="midnightblue" points="158.007,-79.1707 147.951,-75.8339 153.731,-84.7132 158.007,-79.1707"/>
</g>
<!-- Node5 -->
<g id="node5" class="node"><title>Node5</title>
<polygon fill="white" stroke="#bfbfbf" points="182,-56.5 182,-75.5 231,-75.5 231,-56.5 182,-56.5"/>
<text text-anchor="middle" x="206.5" y="-63.5" font-family="Helvetica,sans-Serif" font-size="10.00">netdb.h</text>
</g>
<!-- Node1&#45;&gt;Node5 -->
<g id="edge4" class="edge"><title>Node1&#45;&gt;Node5</title>
<path fill="none" stroke="midnightblue" d="M206.5,-112.083C206.5,-105.006 206.5,-94.8611 206.5,-85.9865"/>
<polygon fill="midnightblue" stroke="midnightblue" points="210,-85.751 206.5,-75.7511 203,-85.7511 210,-85.751"/>
</g>
<!-- Node6 -->
<g id="node6" class="node"><title>Node6</title>
<polygon fill="white" stroke="#bfbfbf" points="249,-56.5 249,-75.5 298,-75.5 298,-56.5 249,-56.5"/>
<text text-anchor="middle" x="273.5" y="-63.5" font-family="Helvetica,sans-Serif" font-size="10.00">string.h</text>
</g>
<!-- Node1&#45;&gt;Node6 -->
<g id="edge5" class="edge"><title>Node1&#45;&gt;Node6</title>
<path fill="none" stroke="midnightblue" d="M217.265,-112.324C227.266,-104.263 242.387,-92.0765 254.43,-82.3695"/>
<polygon fill="midnightblue" stroke="midnightblue" points="256.95,-84.8343 262.539,-75.8339 252.557,-79.3841 256.95,-84.8343"/>
</g>
<!-- Node7 -->
<g id="node7" class="node"><title>Node7</title>
<g id="a_node7"><a xlink:href="PrintHandler_8h.html" target="_top" xlink:title="PrintHandler.h">
<polygon fill="white" stroke="black" points="316,-56.5 316,-75.5 395,-75.5 395,-56.5 316,-56.5"/>
<text text-anchor="middle" x="355.5" y="-63.5" font-family="Helvetica,sans-Serif" font-size="10.00">PrintHandler.h</text>
</a>
</g>
</g>
<!-- Node1&#45;&gt;Node7 -->
<g id="edge6" class="edge"><title>Node1&#45;&gt;Node7</title>
<path fill="none" stroke="midnightblue" d="M230.109,-112.444C254.958,-103.438 294.274,-89.1891 322.254,-79.049"/>
<polygon fill="midnightblue" stroke="midnightblue" points="323.792,-82.2144 332.001,-75.5164 321.407,-75.6332 323.792,-82.2144"/>
</g>
<!-- Node3 -->
<g id="node3" class="node"><title>Node3</title>
<polygon fill="white" stroke="#bfbfbf" points="25,-0.5 25,-19.5 66,-19.5 66,-0.5 25,-0.5"/>
<text text-anchor="middle" x="45.5" y="-7.5" font-family="Helvetica,sans-Serif" font-size="10.00">string</text>
</g>
<!-- Node2&#45;&gt;Node3 -->
<g id="edge2" class="edge"><title>Node2&#45;&gt;Node3</title>
<path fill="none" stroke="midnightblue" d="M45.5,-56.083C45.5,-49.0059 45.5,-38.8611 45.5,-29.9865"/>
<polygon fill="midnightblue" stroke="midnightblue" points="49.0001,-29.751 45.5,-19.7511 42.0001,-29.7511 49.0001,-29.751"/>
</g>
<!-- Node8 -->
<g id="node8" class="node"><title>Node8</title>
<polygon fill="white" stroke="#bfbfbf" points="332.5,-0.5 332.5,-19.5 378.5,-19.5 378.5,-0.5 332.5,-0.5"/>
<text text-anchor="middle" x="355.5" y="-7.5" font-family="Helvetica,sans-Serif" font-size="10.00">stdio.h</text>
</g>
<!-- Node7&#45;&gt;Node8 -->
<g id="edge7" class="edge"><title>Node7&#45;&gt;Node8</title>
<path fill="none" stroke="midnightblue" d="M355.5,-56.083C355.5,-49.0059 355.5,-38.8611 355.5,-29.9865"/>
<polygon fill="midnightblue" stroke="midnightblue" points="359,-29.751 355.5,-19.7511 352,-29.7511 359,-29.751"/>
</g>
</g>
</svg>
