<?xml version="1.0" encoding="UTF-8" standalone="no"?>
<!DOCTYPE svg PUBLIC "-//W3C//DTD SVG 1.1//EN"
 "http://www.w3.org/Graphics/SVG/1.1/DTD/svg11.dtd">
<!-- Generated by graphviz version 2.38.0 (20140413.2041)
 -->
<!-- Title: HelperMethods.h Pages: 1 -->
<svg width="466pt" height="84pt"
 viewBox="0.00 0.00 466.00 84.00" xmlns="http://www.w3.org/2000/svg" xmlns:xlink="http://www.w3.org/1999/xlink">
<g id="graph0" class="graph" transform="scale(1 1) rotate(0) translate(4 80)">
<title>HelperMethods.h</title>
<polygon fill="white" stroke="none" points="-4,4 -4,-80 462,-80 462,4 -4,4"/>
<!-- Node1 -->
<g id="node1" class="node"><title>Node1</title>
<polygon fill="#bfbfbf" stroke="black" points="211,-56.5 211,-75.5 302,-75.5 302,-56.5 211,-56.5"/>
<text text-anchor="middle" x="256.5" y="-63.5" font-family="Helvetica,sans-Serif" font-size="10.00">HelperMethods.h</text>
</g>
<!-- Node2 -->
<g id="node2" class="node"><title>Node2</title>
<g id="a_node2"><a xlink:href="HandleHostBandwidth_8cpp.html" target="_top" xlink:title="HandleHostBandwidth.cpp">
<polygon fill="white" stroke="black" points="0,-0.5 0,-19.5 133,-19.5 133,-0.5 0,-0.5"/>
<text text-anchor="middle" x="66.5" y="-7.5" font-family="Helvetica,sans-Serif" font-size="10.00">HandleHostBandwidth.cpp</text>
</a>
</g>
</g>
<!-- Node1&#45;&gt;Node2 -->
<g id="edge1" class="edge"><title>Node1&#45;&gt;Node2</title>
<path fill="none" stroke="midnightblue" d="M216.736,-53.6986C180.877,-43.507 128.929,-28.7429 96.4652,-19.5164"/>
<polygon fill="midnightblue" stroke="midnightblue" points="215.818,-57.0763 226.394,-56.4435 217.732,-50.343 215.818,-57.0763"/>
</g>
<!-- Node3 -->
<g id="node3" class="node"><title>Node3</title>
<g id="a_node3"><a xlink:href="HelperMethods_8cpp.html" target="_top" xlink:title="HelperMethods.cpp">
<polygon fill="white" stroke="black" points="151,-0.5 151,-19.5 252,-19.5 252,-0.5 151,-0.5"/>
<text text-anchor="middle" x="201.5" y="-7.5" font-family="Helvetica,sans-Serif" font-size="10.00">HelperMethods.cpp</text>
</a>
</g>
</g>
<!-- Node1&#45;&gt;Node3 -->
<g id="edge2" class="edge"><title>Node1&#45;&gt;Node3</title>
<path fill="none" stroke="midnightblue" d="M240.206,-49.0024C230.459,-39.4329 218.447,-27.6389 210.413,-19.7511"/>
<polygon fill="midnightblue" stroke="midnightblue" points="237.83,-51.5746 247.418,-56.083 242.734,-46.5796 237.83,-51.5746"/>
</g>
<!-- Node4 -->
<g id="node4" class="node"><title>Node4</title>
<g id="a_node4"><a xlink:href="TestHandler_2MainObject_8cpp.html" target="_top" xlink:title="MainObject.cpp">
<polygon fill="white" stroke="black" points="270,-0.5 270,-19.5 355,-19.5 355,-0.5 270,-0.5"/>
<text text-anchor="middle" x="312.5" y="-7.5" font-family="Helvetica,sans-Serif" font-size="10.00">MainObject.cpp</text>
</a>
</g>
</g>
<!-- Node1&#45;&gt;Node4 -->
<g id="edge3" class="edge"><title>Node1&#45;&gt;Node4</title>
<path fill="none" stroke="midnightblue" d="M272.83,-49.2533C282.765,-39.6731 295.088,-27.7906 303.339,-19.8339"/>
<polygon fill="midnightblue" stroke="midnightblue" points="270.266,-46.8631 265.497,-56.324 275.125,-51.902 270.266,-46.8631"/>
</g>
<!-- Node5 -->
<g id="node5" class="node"><title>Node5</title>
<g id="a_node5"><a xlink:href="WCEnabler_2MainObject_8cpp.html" target="_top" xlink:title="MainObject.cpp">
<polygon fill="white" stroke="black" points="373,-0.5 373,-19.5 458,-19.5 458,-0.5 373,-0.5"/>
<text text-anchor="middle" x="415.5" y="-7.5" font-family="Helvetica,sans-Serif" font-size="10.00">MainObject.cpp</text>
</a>
</g>
</g>
<!-- Node1&#45;&gt;Node5 -->
<g id="edge4" class="edge"><title>Node1&#45;&gt;Node5</title>
<path fill="none" stroke="midnightblue" d="M291.327,-53.172C321.266,-43.0039 363.721,-28.5852 390.424,-19.5164"/>
<polygon fill="midnightblue" stroke="midnightblue" points="290.037,-49.9136 281.694,-56.4435 292.288,-56.5417 290.037,-49.9136"/>
</g>
</g>
</svg>
