<?xml version="1.0" encoding="UTF-8" standalone="no"?>
<!DOCTYPE svg PUBLIC "-//W3C//DTD SVG 1.1//EN"
 "http://www.w3.org/Graphics/SVG/1.1/DTD/svg11.dtd">
<!-- Generated by graphviz version 2.38.0 (20140413.2041)
 -->
<!-- Title: Graphical Class Hierarchy Pages: 1 -->
<svg width="386pt" height="218pt"
 viewBox="0.00 0.00 386.00 218.00" xmlns="http://www.w3.org/2000/svg" xmlns:xlink="http://www.w3.org/1999/xlink">
<g id="graph0" class="graph" transform="scale(1 1) rotate(0) translate(4 214)">
<title>Graphical Class Hierarchy</title>
<polygon fill="white" stroke="none" points="-4,4 -4,-214 382,-214 382,4 -4,4"/>
<!-- Node1 -->
<g id="node1" class="node"><title>Node1</title>
<polygon fill="white" stroke="#bfbfbf" points="0,-95.5 0,-114.5 43,-114.5 43,-95.5 0,-95.5"/>
<text text-anchor="middle" x="21.5" y="-102.5" font-family="Helvetica,sans-Serif" font-size="10.00">object</text>
</g>
<!-- Node2 -->
<g id="node2" class="node"><title>Node2</title>
<g id="a_node2"><a xlink:href="classTests_1_1TestBaseClass.html" target="_top" xlink:title="Tests.TestBaseClass">
<polygon fill="white" stroke="black" points="79,-95.5 79,-114.5 191,-114.5 191,-95.5 79,-95.5"/>
<text text-anchor="middle" x="135" y="-102.5" font-family="Helvetica,sans-Serif" font-size="10.00">Tests.TestBaseClass</text>
</a>
</g>
</g>
<!-- Node1&#45;&gt;Node2 -->
<g id="edge1" class="edge"><title>Node1&#45;&gt;Node2</title>
<path fill="none" stroke="midnightblue" d="M53.3312,-105C61.1885,-105 69.8773,-105 78.5562,-105"/>
<polygon fill="midnightblue" stroke="midnightblue" points="53.211,-101.5 43.211,-105 53.211,-108.5 53.211,-101.5"/>
</g>
<!-- Node3 -->
<g id="node3" class="node"><title>Node3</title>
<g id="a_node3"><a xlink:href="classTests_1_1Efficiency.html" target="_top" xlink:title="Tests.Efficiency">
<polygon fill="white" stroke="black" points="258.5,-190.5 258.5,-209.5 346.5,-209.5 346.5,-190.5 258.5,-190.5"/>
<text text-anchor="middle" x="302.5" y="-197.5" font-family="Helvetica,sans-Serif" font-size="10.00">Tests.Efficiency</text>
</a>
</g>
</g>
<!-- Node2&#45;&gt;Node3 -->
<g id="edge2" class="edge"><title>Node2&#45;&gt;Node3</title>
<path fill="none" stroke="midnightblue" d="M151.467,-121.744C168.393,-139.078 197.123,-165.719 227,-181 236.626,-185.923 247.619,-189.633 258.15,-192.405"/>
<polygon fill="midnightblue" stroke="midnightblue" points="153.996,-119.324 144.558,-114.508 148.933,-124.158 153.996,-119.324"/>
</g>
<!-- Node4 -->
<g id="node4" class="node"><title>Node4</title>
<g id="a_node4"><a xlink:href="classTests_1_1LongFlowHandling.html" target="_top" xlink:title="Tests.LongFlowHandling">
<polygon fill="white" stroke="black" points="240,-152.5 240,-171.5 365,-171.5 365,-152.5 240,-152.5"/>
<text text-anchor="middle" x="302.5" y="-159.5" font-family="Helvetica,sans-Serif" font-size="10.00">Tests.LongFlowHandling</text>
</a>
</g>
</g>
<!-- Node2&#45;&gt;Node4 -->
<g id="edge3" class="edge"><title>Node2&#45;&gt;Node4</title>
<path fill="none" stroke="midnightblue" d="M165.809,-118.743C183.377,-126.514 206.176,-136.038 227,-143 237.381,-146.47 248.755,-149.667 259.421,-152.409"/>
<polygon fill="midnightblue" stroke="midnightblue" points="167.19,-115.527 156.633,-114.633 164.329,-121.915 167.19,-115.527"/>
</g>
<!-- Node5 -->
<g id="node5" class="node"><title>Node5</title>
<g id="a_node5"><a xlink:href="classTests_1_1RandomFlowHandling.html" target="_top" xlink:title="Tests.RandomFlowHandling">
<polygon fill="white" stroke="black" points="232.5,-114.5 232.5,-133.5 372.5,-133.5 372.5,-114.5 232.5,-114.5"/>
<text text-anchor="middle" x="302.5" y="-121.5" font-family="Helvetica,sans-Serif" font-size="10.00">Tests.RandomFlowHandling</text>
</a>
</g>
</g>
<!-- Node2&#45;&gt;Node5 -->
<g id="edge4" class="edge"><title>Node2&#45;&gt;Node5</title>
<path fill="none" stroke="midnightblue" d="M201.229,-112.488C211.499,-113.668 222.146,-114.89 232.498,-116.078"/>
<polygon fill="midnightblue" stroke="midnightblue" points="201.443,-108.99 191.109,-111.327 200.645,-115.945 201.443,-108.99"/>
</g>
<!-- Node6 -->
<g id="node6" class="node"><title>Node6</title>
<g id="a_node6"><a xlink:href="classTests_1_1ShortFlowHandling.html" target="_top" xlink:title="Tests.ShortFlowHandling">
<polygon fill="white" stroke="black" points="239,-76.5 239,-95.5 366,-95.5 366,-76.5 239,-76.5"/>
<text text-anchor="middle" x="302.5" y="-83.5" font-family="Helvetica,sans-Serif" font-size="10.00">Tests.ShortFlowHandling</text>
</a>
</g>
</g>
<!-- Node2&#45;&gt;Node6 -->
<g id="edge5" class="edge"><title>Node2&#45;&gt;Node6</title>
<path fill="none" stroke="midnightblue" d="M201.347,-97.4979C213.718,-96.0777 226.632,-94.5951 238.915,-93.185"/>
<polygon fill="midnightblue" stroke="midnightblue" points="200.645,-94.0555 191.109,-98.6733 201.443,-101.01 200.645,-94.0555"/>
</g>
<!-- Node7 -->
<g id="node7" class="node"><title>Node7</title>
<g id="a_node7"><a xlink:href="classTests_1_1WCBandwidthUtilization.html" target="_top" xlink:title="Tests.WCBandwidthUtilization">
<polygon fill="white" stroke="black" points="227,-38.5 227,-57.5 378,-57.5 378,-38.5 227,-38.5"/>
<text text-anchor="middle" x="302.5" y="-45.5" font-family="Helvetica,sans-Serif" font-size="10.00">Tests.WCBandwidthUtilization</text>
</a>
</g>
</g>
<!-- Node2&#45;&gt;Node7 -->
<g id="edge6" class="edge"><title>Node2&#45;&gt;Node7</title>
<path fill="none" stroke="midnightblue" d="M165.809,-91.2568C183.377,-83.4856 206.176,-73.9621 227,-67 237.381,-63.5295 248.755,-60.3329 259.421,-57.5908"/>
<polygon fill="midnightblue" stroke="midnightblue" points="164.329,-88.0847 156.633,-95.3665 167.19,-94.4733 164.329,-88.0847"/>
</g>
<!-- Node8 -->
<g id="node8" class="node"><title>Node8</title>
<g id="a_node8"><a xlink:href="classTests_1_1WCLogic.html" target="_top" xlink:title="Tests.WCLogic">
<polygon fill="white" stroke="black" points="260,-0.5 260,-19.5 345,-19.5 345,-0.5 260,-0.5"/>
<text text-anchor="middle" x="302.5" y="-7.5" font-family="Helvetica,sans-Serif" font-size="10.00">Tests.WCLogic</text>
</a>
</g>
</g>
<!-- Node2&#45;&gt;Node8 -->
<g id="edge7" class="edge"><title>Node2&#45;&gt;Node8</title>
<path fill="none" stroke="midnightblue" d="M151.467,-88.2562C168.393,-70.9216 197.123,-44.2806 227,-29 237.101,-23.8337 248.708,-20.0035 259.707,-17.1917"/>
<polygon fill="midnightblue" stroke="midnightblue" points="148.933,-85.8419 144.558,-95.4916 153.996,-90.6759 148.933,-85.8419"/>
</g>
</g>
</svg>
