<?xml version="1.0" encoding="UTF-8" standalone="no"?>
<!DOCTYPE svg PUBLIC "-//W3C//DTD SVG 1.1//EN"
 "http://www.w3.org/Graphics/SVG/1.1/DTD/svg11.dtd">
<!-- Generated by graphviz version 2.38.0 (20140413.2041)
 -->
<!-- Title: Graphical Class Hierarchy Pages: 1 -->
<svg width="427pt" height="28pt"
 viewBox="0.00 0.00 427.00 28.00" xmlns="http://www.w3.org/2000/svg" xmlns:xlink="http://www.w3.org/1999/xlink">
<g id="graph0" class="graph" transform="scale(1 1) rotate(0) translate(4 24)">
<title>Graphical Class Hierarchy</title>
<polygon fill="white" stroke="none" points="-4,4 -4,-24 423,-24 423,4 -4,4"/>
<!-- Node1 -->
<g id="node1" class="node"><title>Node1</title>
<polygon fill="white" stroke="#bfbfbf" points="0,-0.5 0,-19.5 38,-19.5 38,-0.5 0,-0.5"/>
<text text-anchor="middle" x="19" y="-7.5" font-family="Helvetica,sans-Serif" font-size="10.00">Topo</text>
</g>
<!-- Node2 -->
<g id="node2" class="node"><title>Node2</title>
<g id="a_node2"><a xlink:href="classFatTreeTopology_1_1StructuredTopo.html" target="_top" xlink:title="FatTreeTopology.StructuredTopo">
<polygon fill="white" stroke="black" points="74,-0.5 74,-19.5 234,-19.5 234,-0.5 74,-0.5"/>
<text text-anchor="middle" x="154" y="-7.5" font-family="Helvetica,sans-Serif" font-size="10.00">FatTreeTopology.StructuredTopo</text>
</a>
</g>
</g>
<!-- Node1&#45;&gt;Node2 -->
<g id="edge1" class="edge"><title>Node1&#45;&gt;Node2</title>
<path fill="none" stroke="midnightblue" d="M48.3484,-10C56.0558,-10 64.7965,-10 73.8625,-10"/>
<polygon fill="midnightblue" stroke="midnightblue" points="48.2142,-6.5001 38.2142,-10 48.2142,-13.5001 48.2142,-6.5001"/>
</g>
<!-- Node3 -->
<g id="node3" class="node"><title>Node3</title>
<g id="a_node3"><a xlink:href="classFatTreeTopology_1_1FatTreeTopo.html" target="_top" xlink:title="FatTreeTopology.FatTreeTopo">
<polygon fill="white" stroke="black" points="270,-0.5 270,-19.5 419,-19.5 419,-0.5 270,-0.5"/>
<text text-anchor="middle" x="344.5" y="-7.5" font-family="Helvetica,sans-Serif" font-size="10.00">FatTreeTopology.FatTreeTopo</text>
</a>
</g>
</g>
<!-- Node2&#45;&gt;Node3 -->
<g id="edge2" class="edge"><title>Node2&#45;&gt;Node3</title>
<path fill="none" stroke="midnightblue" d="M244.214,-10C252.847,-10 261.538,-10 269.994,-10"/>
<polygon fill="midnightblue" stroke="midnightblue" points="244.122,-6.5001 234.122,-10 244.122,-13.5001 244.122,-6.5001"/>
</g>
</g>
</svg>
