<?xml version="1.0" encoding="UTF-8" standalone="no"?>
<!DOCTYPE svg PUBLIC "-//W3C//DTD SVG 1.1//EN"
 "http://www.w3.org/Graphics/SVG/1.1/DTD/svg11.dtd">
<!-- Generated by graphviz version 2.38.0 (20140413.2041)
 -->
<!-- Title: Graphical Class Hierarchy Pages: 1 -->
<svg width="326pt" height="28pt"
 viewBox="0.00 0.00 326.00 28.00" xmlns="http://www.w3.org/2000/svg" xmlns:xlink="http://www.w3.org/1999/xlink">
<g id="graph0" class="graph" transform="scale(1 1) rotate(0) translate(4 24)">
<title>Graphical Class Hierarchy</title>
<polygon fill="white" stroke="none" points="-4,4 -4,-24 322,-24 322,4 -4,4"/>
<!-- Node1 -->
<g id="node1" class="node"><title>Node1</title>
<polygon fill="white" stroke="#bfbfbf" points="0,-0.5 0,-19.5 43,-19.5 43,-0.5 0,-0.5"/>
<text text-anchor="middle" x="21.5" y="-7.5" font-family="Helvetica,sans-Serif" font-size="10.00">object</text>
</g>
<!-- Node2 -->
<g id="node2" class="node"><title>Node2</title>
<g id="a_node2"><a xlink:href="classTests_1_1TestBaseClass.html" target="_top" xlink:title="Tests.TestBaseClass">
<polygon fill="white" stroke="black" points="79,-0.5 79,-19.5 191,-19.5 191,-0.5 79,-0.5"/>
<text text-anchor="middle" x="135" y="-7.5" font-family="Helvetica,sans-Serif" font-size="10.00">Tests.TestBaseClass</text>
</a>
</g>
</g>
<!-- Node1&#45;&gt;Node2 -->
<g id="edge1" class="edge"><title>Node1&#45;&gt;Node2</title>
<path fill="none" stroke="midnightblue" d="M53.3312,-10C61.1885,-10 69.8773,-10 78.5562,-10"/>
<polygon fill="midnightblue" stroke="midnightblue" points="53.211,-6.5001 43.211,-10 53.211,-13.5001 53.211,-6.5001"/>
</g>
<!-- Node3 -->
<g id="node3" class="node"><title>Node3</title>
<g id="a_node3"><a xlink:href="classTests_1_1iperfTester.html" target="_top" xlink:title="Tests.iperfTester">
<polygon fill="white" stroke="black" points="227,-0.5 227,-19.5 318,-19.5 318,-0.5 227,-0.5"/>
<text text-anchor="middle" x="272.5" y="-7.5" font-family="Helvetica,sans-Serif" font-size="10.00">Tests.iperfTester</text>
</a>
</g>
</g>
<!-- Node2&#45;&gt;Node3 -->
<g id="edge2" class="edge"><title>Node2&#45;&gt;Node3</title>
<path fill="none" stroke="midnightblue" d="M201.221,-10C209.883,-10 218.599,-10 226.804,-10"/>
<polygon fill="midnightblue" stroke="midnightblue" points="201.113,-6.5001 191.113,-10 201.113,-13.5001 201.113,-6.5001"/>
</g>
</g>
</svg>
