<?xml version="1.0" encoding="UTF-8" standalone="no"?>
<!DOCTYPE svg PUBLIC "-//W3C//DTD SVG 1.1//EN"
 "http://www.w3.org/Graphics/SVG/1.1/DTD/svg11.dtd">
<!-- Generated by graphviz version 2.38.0 (20140413.2041)
 -->
<!-- Title: Graphical Class Hierarchy Pages: 1 -->
<svg width="270pt" height="88pt"
 viewBox="0.00 0.00 270.00 88.00" xmlns="http://www.w3.org/2000/svg" xmlns:xlink="http://www.w3.org/1999/xlink">
<g id="graph0" class="graph" transform="scale(1 1) rotate(0) translate(4 84)">
<title>Graphical Class Hierarchy</title>
<polygon fill="white" stroke="none" points="-4,4 -4,-84 266,-84 266,4 -4,4"/>
<!-- Node1 -->
<g id="node1" class="node"><title>Node1</title>
<polygon fill="white" stroke="#bfbfbf" points="0,-30 0,-49 53,-49 53,-30 0,-30"/>
<text text-anchor="middle" x="26.5" y="-37" font-family="Helvetica,sans-Serif" font-size="10.00">IntEnum</text>
</g>
<!-- Node2 -->
<g id="node2" class="node"><title>Node2</title>
<g id="a_node2"><a xlink:href="classMapReduceHost_1_1HostMapReduce_1_1MapReduceClassIndex.html" target="_top" xlink:title="MapReduceHost.HostMapReduce.\lMapReduceClassIndex">
<polygon fill="white" stroke="black" points="90.5,-49.5 90.5,-79.5 260.5,-79.5 260.5,-49.5 90.5,-49.5"/>
<text text-anchor="start" x="98.5" y="-67.5" font-family="Helvetica,sans-Serif" font-size="10.00">MapReduceHost.HostMapReduce.</text>
<text text-anchor="middle" x="175.5" y="-56.5" font-family="Helvetica,sans-Serif" font-size="10.00">MapReduceClassIndex</text>
</a>
</g>
</g>
<!-- Node1&#45;&gt;Node2 -->
<g id="edge1" class="edge"><title>Node1&#45;&gt;Node2</title>
<path fill="none" stroke="midnightblue" d="M63.213,-45.5736C71.6141,-47.0024 80.9198,-48.585 90.4676,-50.2088"/>
<polygon fill="midnightblue" stroke="midnightblue" points="63.5507,-42.0809 53.1054,-43.8547 62.3771,-48.9818 63.5507,-42.0809"/>
</g>
<!-- Node3 -->
<g id="node3" class="node"><title>Node3</title>
<g id="a_node3"><a xlink:href="classMapReduceScheduler_1_1MapReduceScheduler_1_1MegabytesPerHostEnum.html" target="_top" xlink:title="MapReduceScheduler.MapReduce\lScheduler.MegabytesPerHostEnum">
<polygon fill="white" stroke="black" points="89,-0.5 89,-30.5 262,-30.5 262,-0.5 89,-0.5"/>
<text text-anchor="start" x="97" y="-18.5" font-family="Helvetica,sans-Serif" font-size="10.00">MapReduceScheduler.MapReduce</text>
<text text-anchor="middle" x="175.5" y="-7.5" font-family="Helvetica,sans-Serif" font-size="10.00">Scheduler.MegabytesPerHostEnum</text>
</a>
</g>
</g>
<!-- Node1&#45;&gt;Node3 -->
<g id="edge2" class="edge"><title>Node1&#45;&gt;Node3</title>
<path fill="none" stroke="midnightblue" d="M63.0731,-33.6921C71.0517,-32.3895 79.8515,-30.9528 88.9031,-29.475"/>
<polygon fill="midnightblue" stroke="midnightblue" points="62.4108,-30.2539 53.1054,-35.3195 63.5388,-37.1624 62.4108,-30.2539"/>
</g>
</g>
</svg>
