<?xml version="1.0" encoding="UTF-8" standalone="no"?>
<!DOCTYPE svg PUBLIC "-//W3C//DTD SVG 1.1//EN"
 "http://www.w3.org/Graphics/SVG/1.1/DTD/svg11.dtd">
<!-- Generated by graphviz version 2.38.0 (20140413.2041)
 -->
<!-- Title: Graphical Class Hierarchy Pages: 1 -->
<svg width="443pt" height="403pt"
 viewBox="0.00 0.00 443.00 402.50" xmlns="http://www.w3.org/2000/svg" xmlns:xlink="http://www.w3.org/1999/xlink">
<g id="graph0" class="graph" transform="scale(1 1) rotate(0) translate(4 398.5)">
<title>Graphical Class Hierarchy</title>
<polygon fill="white" stroke="none" points="-4,4 -4,-398.5 439,-398.5 439,4 -4,4"/>
<!-- Node1 -->
<g id="node1" class="node"><title>Node1</title>
<polygon fill="white" stroke="#bfbfbf" points="0,-232.5 0,-251.5 43,-251.5 43,-232.5 0,-232.5"/>
<text text-anchor="middle" x="21.5" y="-239.5" font-family="Helvetica,sans-Serif" font-size="10.00">object</text>
</g>
<!-- Node2 -->
<g id="node2" class="node"><title>Node2</title>
<g id="a_node2"><a xlink:href="classFatTreeTopology_1_1NodeID.html" target="_top" xlink:title="FatTreeTopology.NodeID">
<polygon fill="white" stroke="black" points="99.5,-369.5 99.5,-388.5 226.5,-388.5 226.5,-369.5 99.5,-369.5"/>
<text text-anchor="middle" x="163" y="-376.5" font-family="Helvetica,sans-Serif" font-size="10.00">FatTreeTopology.NodeID</text>
</a>
</g>
</g>
<!-- Node1&#45;&gt;Node2 -->
<g id="edge1" class="edge"><title>Node1&#45;&gt;Node2</title>
<path fill="none" stroke="midnightblue" d="M26.3779,-261.714C32.656,-288.225 47.6488,-334.924 79,-360 85.0029,-364.801 91.9917,-368.436 99.3182,-371.18"/>
<polygon fill="midnightblue" stroke="midnightblue" points="29.747,-260.736 24.1985,-251.711 22.9075,-262.227 29.747,-260.736"/>
</g>
<!-- Node4 -->
<g id="node4" class="node"><title>Node4</title>
<g id="a_node4"><a xlink:href="classFatTreeTopology_1_1StructuredEdgeSpec.html" target="_top" xlink:title="FatTreeTopology.Structured\lEdgeSpec">
<polygon fill="white" stroke="black" points="94,-320 94,-350 232,-350 232,-320 94,-320"/>
<text text-anchor="start" x="102" y="-338" font-family="Helvetica,sans-Serif" font-size="10.00">FatTreeTopology.Structured</text>
<text text-anchor="middle" x="163" y="-327" font-family="Helvetica,sans-Serif" font-size="10.00">EdgeSpec</text>
</a>
</g>
</g>
<!-- Node1&#45;&gt;Node4 -->
<g id="edge3" class="edge"><title>Node1&#45;&gt;Node4</title>
<path fill="none" stroke="midnightblue" d="M33.0975,-260.379C43.0395,-276.039 59.3061,-298.01 79,-311 84.2591,-314.469 90.0266,-317.445 95.9942,-319.998"/>
<polygon fill="midnightblue" stroke="midnightblue" points="35.9351,-258.309 27.7503,-251.582 29.9533,-261.945 35.9351,-258.309"/>
</g>
<!-- Node5 -->
<g id="node5" class="node"><title>Node5</title>
<g id="a_node5"><a xlink:href="classFatTreeTopology_1_1StructuredNodeSpec.html" target="_top" xlink:title="FatTreeTopology.Structured\lNodeSpec">
<polygon fill="white" stroke="black" points="94,-271 94,-301 232,-301 232,-271 94,-271"/>
<text text-anchor="start" x="102" y="-289" font-family="Helvetica,sans-Serif" font-size="10.00">FatTreeTopology.Structured</text>
<text text-anchor="middle" x="163" y="-278" font-family="Helvetica,sans-Serif" font-size="10.00">NodeSpec</text>
</a>
</g>
</g>
<!-- Node1&#45;&gt;Node5 -->
<g id="edge4" class="edge"><title>Node1&#45;&gt;Node5</title>
<path fill="none" stroke="midnightblue" d="M52.6526,-252.338C61.155,-255.199 70.4246,-258.267 79,-261 89.3239,-264.29 100.406,-267.707 111.003,-270.919"/>
<polygon fill="midnightblue" stroke="midnightblue" points="53.7057,-248.999 43.1114,-249.107 51.4605,-255.629 53.7057,-248.999"/>
</g>
<!-- Node6 -->
<g id="node6" class="node"><title>Node6</title>
<g id="a_node6"><a xlink:href="classMapReduceHost_1_1HostMapReduce.html" target="_top" xlink:title="MapReduceHost.HostMapReduce">
<polygon fill="white" stroke="black" points="79.5,-232.5 79.5,-251.5 246.5,-251.5 246.5,-232.5 79.5,-232.5"/>
<text text-anchor="middle" x="163" y="-239.5" font-family="Helvetica,sans-Serif" font-size="10.00">MapReduceHost.HostMapReduce</text>
</a>
</g>
</g>
<!-- Node1&#45;&gt;Node6 -->
<g id="edge5" class="edge"><title>Node1&#45;&gt;Node6</title>
<path fill="none" stroke="midnightblue" d="M53.2035,-242C61.1215,-242 70.0299,-242 79.2526,-242"/>
<polygon fill="midnightblue" stroke="midnightblue" points="53.0837,-238.5 43.0837,-242 53.0837,-245.5 53.0837,-238.5"/>
</g>
<!-- Node7 -->
<g id="node7" class="node"><title>Node7</title>
<g id="a_node7"><a xlink:href="classMapReduceManager_1_1MapReduceManager.html" target="_top" xlink:title="MapReduceManager.MapReduce\lManager">
<polygon fill="white" stroke="black" points="82,-183 82,-213 244,-213 244,-183 82,-183"/>
<text text-anchor="start" x="90" y="-201" font-family="Helvetica,sans-Serif" font-size="10.00">MapReduceManager.MapReduce</text>
<text text-anchor="middle" x="163" y="-190" font-family="Helvetica,sans-Serif" font-size="10.00">Manager</text>
</a>
</g>
</g>
<!-- Node1&#45;&gt;Node7 -->
<g id="edge6" class="edge"><title>Node1&#45;&gt;Node7</title>
<path fill="none" stroke="midnightblue" d="M52.6526,-231.662C61.155,-228.801 70.4246,-225.733 79,-223 89.3239,-219.71 100.406,-216.293 111.003,-213.081"/>
<polygon fill="midnightblue" stroke="midnightblue" points="51.4605,-228.371 43.1114,-234.893 53.7057,-235.001 51.4605,-228.371"/>
</g>
<!-- Node8 -->
<g id="node8" class="node"><title>Node8</title>
<g id="a_node8"><a xlink:href="classMapReduceScheduler_1_1MapReduceScheduler.html" target="_top" xlink:title="MapReduceScheduler.MapReduce\lScheduler">
<polygon fill="white" stroke="black" points="79,-134 79,-164 247,-164 247,-134 79,-134"/>
<text text-anchor="start" x="87" y="-152" font-family="Helvetica,sans-Serif" font-size="10.00">MapReduceScheduler.MapReduce</text>
<text text-anchor="middle" x="163" y="-141" font-family="Helvetica,sans-Serif" font-size="10.00">Scheduler</text>
</a>
</g>
</g>
<!-- Node1&#45;&gt;Node8 -->
<g id="edge7" class="edge"><title>Node1&#45;&gt;Node8</title>
<path fill="none" stroke="midnightblue" d="M33.0975,-223.621C43.0395,-207.961 59.3061,-185.99 79,-173 84.2591,-169.531 90.0266,-166.555 95.9942,-164.002"/>
<polygon fill="midnightblue" stroke="midnightblue" points="29.9533,-222.055 27.7503,-232.418 35.9351,-225.691 29.9533,-222.055"/>
</g>
<!-- Node9 -->
<g id="node9" class="node"><title>Node9</title>
<g id="a_node9"><a xlink:href="classTests_1_1TestBaseClass.html" target="_top" xlink:title="Tests.TestBaseClass">
<polygon fill="white" stroke="black" points="107,-95.5 107,-114.5 219,-114.5 219,-95.5 107,-95.5"/>
<text text-anchor="middle" x="163" y="-102.5" font-family="Helvetica,sans-Serif" font-size="10.00">Tests.TestBaseClass</text>
</a>
</g>
</g>
<!-- Node1&#45;&gt;Node9 -->
<g id="edge8" class="edge"><title>Node1&#45;&gt;Node9</title>
<path fill="none" stroke="midnightblue" d="M26.3779,-222.286C32.656,-195.775 47.6488,-149.076 79,-124 86.9654,-117.629 96.6667,-113.312 106.589,-110.405"/>
<polygon fill="midnightblue" stroke="midnightblue" points="22.9075,-221.773 24.1985,-232.289 29.747,-223.264 22.9075,-221.773"/>
</g>
<!-- Node3 -->
<g id="node3" class="node"><title>Node3</title>
<g id="a_node3"><a xlink:href="classFatTreeTopology_1_1FatTreeTopo_1_1FatTreeNodeID.html" target="_top" xlink:title="FatTreeTopology.FatTreeTopo.\lFatTreeNodeID">
<polygon fill="white" stroke="black" points="283,-364 283,-394 435,-394 435,-364 283,-364"/>
<text text-anchor="start" x="291" y="-382" font-family="Helvetica,sans-Serif" font-size="10.00">FatTreeTopology.FatTreeTopo.</text>
<text text-anchor="middle" x="359" y="-371" font-family="Helvetica,sans-Serif" font-size="10.00">FatTreeNodeID</text>
</a>
</g>
</g>
<!-- Node2&#45;&gt;Node3 -->
<g id="edge2" class="edge"><title>Node2&#45;&gt;Node3</title>
<path fill="none" stroke="midnightblue" d="M236.976,-379C252.01,-379 267.866,-379 282.972,-379"/>
<polygon fill="midnightblue" stroke="midnightblue" points="236.718,-375.5 226.718,-379 236.718,-382.5 236.718,-375.5"/>
</g>
<!-- Node10 -->
<g id="node10" class="node"><title>Node10</title>
<g id="a_node10"><a xlink:href="classTests_1_1Efficiency.html" target="_top" xlink:title="Tests.Efficiency">
<polygon fill="white" stroke="black" points="315,-190.5 315,-209.5 403,-209.5 403,-190.5 315,-190.5"/>
<text text-anchor="middle" x="359" y="-197.5" font-family="Helvetica,sans-Serif" font-size="10.00">Tests.Efficiency</text>
</a>
</g>
</g>
<!-- Node9&#45;&gt;Node10 -->
<g id="edge9" class="edge"><title>Node9&#45;&gt;Node10</title>
<path fill="none" stroke="midnightblue" d="M228.854,-114.497C235.301,-116.981 241.489,-120.096 247,-124 271.451,-141.318 258.75,-163.401 283,-181 292.24,-187.706 303.613,-192.054 314.683,-194.869"/>
<polygon fill="midnightblue" stroke="midnightblue" points="229.865,-111.144 219.271,-111.29 227.643,-117.783 229.865,-111.144"/>
</g>
<!-- Node11 -->
<g id="node11" class="node"><title>Node11</title>
<g id="a_node11"><a xlink:href="classTests_1_1LongFlowHandling.html" target="_top" xlink:title="Tests.LongFlowHandling">
<polygon fill="white" stroke="black" points="296.5,-152.5 296.5,-171.5 421.5,-171.5 421.5,-152.5 296.5,-152.5"/>
<text text-anchor="middle" x="359" y="-159.5" font-family="Helvetica,sans-Serif" font-size="10.00">Tests.LongFlowHandling</text>
</a>
</g>
</g>
<!-- Node9&#45;&gt;Node11 -->
<g id="edge10" class="edge"><title>Node9&#45;&gt;Node11</title>
<path fill="none" stroke="midnightblue" d="M225.499,-117.174C232.829,-119.183 240.14,-121.454 247,-124 263.962,-130.294 266.112,-136.511 283,-143 292.529,-146.662 303.01,-149.824 313.039,-152.46"/>
<polygon fill="midnightblue" stroke="midnightblue" points="226.09,-113.712 215.532,-114.598 224.338,-120.489 226.09,-113.712"/>
</g>
<!-- Node12 -->
<g id="node12" class="node"><title>Node12</title>
<g id="a_node12"><a xlink:href="classTests_1_1RandomFlowHandling.html" target="_top" xlink:title="Tests.RandomFlowHandling">
<polygon fill="white" stroke="black" points="289,-114.5 289,-133.5 429,-133.5 429,-114.5 289,-114.5"/>
<text text-anchor="middle" x="359" y="-121.5" font-family="Helvetica,sans-Serif" font-size="10.00">Tests.RandomFlowHandling</text>
</a>
</g>
</g>
<!-- Node9&#45;&gt;Node12 -->
<g id="edge11" class="edge"><title>Node9&#45;&gt;Node12</title>
<path fill="none" stroke="midnightblue" d="M229.228,-111.388C248.434,-113.269 269.508,-115.333 288.946,-117.237"/>
<polygon fill="midnightblue" stroke="midnightblue" points="229.367,-107.885 219.074,-110.394 228.685,-114.852 229.367,-107.885"/>
</g>
<!-- Node13 -->
<g id="node13" class="node"><title>Node13</title>
<g id="a_node13"><a xlink:href="classTests_1_1ShortFlowHandling.html" target="_top" xlink:title="Tests.ShortFlowHandling">
<polygon fill="white" stroke="black" points="295.5,-76.5 295.5,-95.5 422.5,-95.5 422.5,-76.5 295.5,-76.5"/>
<text text-anchor="middle" x="359" y="-83.5" font-family="Helvetica,sans-Serif" font-size="10.00">Tests.ShortFlowHandling</text>
</a>
</g>
</g>
<!-- Node9&#45;&gt;Node13 -->
<g id="edge12" class="edge"><title>Node9&#45;&gt;Node13</title>
<path fill="none" stroke="midnightblue" d="M229.028,-98.6313C250.388,-96.5393 274.078,-94.2192 295.265,-92.1442"/>
<polygon fill="midnightblue" stroke="midnightblue" points="228.685,-95.148 219.074,-99.6062 229.367,-102.115 228.685,-95.148"/>
</g>
<!-- Node14 -->
<g id="node14" class="node"><title>Node14</title>
<g id="a_node14"><a xlink:href="classTests_1_1WCBandwidthUtilization.html" target="_top" xlink:title="Tests.WCBandwidthUtilization">
<polygon fill="white" stroke="black" points="283.5,-38.5 283.5,-57.5 434.5,-57.5 434.5,-38.5 283.5,-38.5"/>
<text text-anchor="middle" x="359" y="-45.5" font-family="Helvetica,sans-Serif" font-size="10.00">Tests.WCBandwidthUtilization</text>
</a>
</g>
</g>
<!-- Node9&#45;&gt;Node14 -->
<g id="edge13" class="edge"><title>Node9&#45;&gt;Node14</title>
<path fill="none" stroke="midnightblue" d="M201.738,-92.3003C225.048,-84.618 255.633,-74.8282 283,-67 294.494,-63.7123 307.06,-60.4142 318.565,-57.5102"/>
<polygon fill="midnightblue" stroke="midnightblue" points="200.616,-88.9847 192.224,-95.4518 202.818,-95.6297 200.616,-88.9847"/>
</g>
<!-- Node15 -->
<g id="node15" class="node"><title>Node15</title>
<g id="a_node15"><a xlink:href="classTests_1_1WCLogic.html" target="_top" xlink:title="Tests.WCLogic">
<polygon fill="white" stroke="black" points="316.5,-0.5 316.5,-19.5 401.5,-19.5 401.5,-0.5 316.5,-0.5"/>
<text text-anchor="middle" x="359" y="-7.5" font-family="Helvetica,sans-Serif" font-size="10.00">Tests.WCLogic</text>
</a>
</g>
</g>
<!-- Node9&#45;&gt;Node15 -->
<g id="edge14" class="edge"><title>Node9&#45;&gt;Node15</title>
<path fill="none" stroke="midnightblue" d="M184.311,-89.1313C207.132,-72.0157 245.857,-45.0656 283,-29 293.479,-24.4674 305.268,-20.8501 316.341,-18.04"/>
<polygon fill="midnightblue" stroke="midnightblue" points="181.942,-86.5365 176.105,-95.3789 186.182,-92.1061 181.942,-86.5365"/>
</g>
</g>
</svg>
