<?xml version="1.0" encoding="UTF-8" standalone="no"?>
<!DOCTYPE svg PUBLIC "-//W3C//DTD SVG 1.1//EN"
 "http://www.w3.org/Graphics/SVG/1.1/DTD/svg11.dtd">
<!-- Generated by graphviz version 2.38.0 (20140413.2041)
 -->
<!-- Title: Graphical Class Hierarchy Pages: 1 -->
<svg width="243pt" height="66pt"
 viewBox="0.00 0.00 243.00 66.00" xmlns="http://www.w3.org/2000/svg" xmlns:xlink="http://www.w3.org/1999/xlink">
<g id="graph0" class="graph" transform="scale(1 1) rotate(0) translate(4 62)">
<title>Graphical Class Hierarchy</title>
<polygon fill="white" stroke="none" points="-4,4 -4,-62 239,-62 239,4 -4,4"/>
<!-- Node1 -->
<g id="node1" class="node"><title>Node1</title>
<polygon fill="white" stroke="#bfbfbf" points="0,-19.5 0,-38.5 38,-38.5 38,-19.5 0,-19.5"/>
<text text-anchor="middle" x="19" y="-26.5" font-family="Helvetica,sans-Serif" font-size="10.00">Topo</text>
</g>
<!-- Node2 -->
<g id="node2" class="node"><title>Node2</title>
<g id="a_node2"><a xlink:href="classAnotherFatTreeTopology_1_1FatTree.html" target="_top" xlink:title="AnotherFatTreeTopology.FatTree">
<polygon fill="white" stroke="black" points="74,-38.5 74,-57.5 235,-57.5 235,-38.5 74,-38.5"/>
<text text-anchor="middle" x="154.5" y="-45.5" font-family="Helvetica,sans-Serif" font-size="10.00">AnotherFatTreeTopology.FatTree</text>
</a>
</g>
</g>
<!-- Node1&#45;&gt;Node2 -->
<g id="edge1" class="edge"><title>Node1&#45;&gt;Node2</title>
<path fill="none" stroke="midnightblue" d="M48.1033,-32.9997C59.4385,-34.613 73.0418,-36.549 86.6507,-38.4859"/>
<polygon fill="midnightblue" stroke="midnightblue" points="48.3978,-29.5064 38.0044,-31.5624 47.4115,-36.4366 48.3978,-29.5064"/>
</g>
<!-- Node3 -->
<g id="node3" class="node"><title>Node3</title>
<g id="a_node3"><a xlink:href="classFatTreeTopology_1_1FatTree.html" target="_top" xlink:title="FatTreeTopology.FatTree">
<polygon fill="white" stroke="black" points="91,-0.5 91,-19.5 218,-19.5 218,-0.5 91,-0.5"/>
<text text-anchor="middle" x="154.5" y="-7.5" font-family="Helvetica,sans-Serif" font-size="10.00">FatTreeTopology.FatTree</text>
</a>
</g>
</g>
<!-- Node1&#45;&gt;Node3 -->
<g id="edge2" class="edge"><title>Node1&#45;&gt;Node3</title>
<path fill="none" stroke="midnightblue" d="M48.1974,-24.9869C60.6849,-23.2096 75.9115,-21.0426 90.862,-18.9148"/>
<polygon fill="midnightblue" stroke="midnightblue" points="47.4115,-21.5634 38.0044,-26.4376 48.3978,-28.4936 47.4115,-21.5634"/>
</g>
</g>
</svg>
