<?xml version="1.0" encoding="UTF-8" standalone="no"?>
<!DOCTYPE svg PUBLIC "-//W3C//DTD SVG 1.1//EN"
 "http://www.w3.org/Graphics/SVG/1.1/DTD/svg11.dtd">
<!-- Generated by graphviz version 2.38.0 (20140413.2041)
 -->
<!-- Title: Graphical Class Hierarchy Pages: 1 -->
<svg width="267pt" height="88pt"
 viewBox="0.00 0.00 267.00 88.00" xmlns="http://www.w3.org/2000/svg" xmlns:xlink="http://www.w3.org/1999/xlink">
<g id="graph0" class="graph" transform="scale(1 1) rotate(0) translate(4 84)">
<title>Graphical Class Hierarchy</title>
<polygon fill="white" stroke="none" points="-4,4 -4,-84 263,-84 263,4 -4,4"/>
<!-- Node1 -->
<g id="node1" class="node"><title>Node1</title>
<polygon fill="white" stroke="#bfbfbf" points="0,-30 0,-49 53,-49 53,-30 0,-30"/>
<text text-anchor="middle" x="26.5" y="-37" font-family="Helvetica,sans-Serif" font-size="10.00">IntEnum</text>
</g>
<!-- Node2 -->
<g id="node2" class="node"><title>Node2</title>
<g id="a_node2"><a xlink:href="classMapReduceHost_1_1HostMapReduce_1_1MapReduceClassIndex.html" target="_top" xlink:title="MapReduceHost.HostMapReduce.\lMapReduceClassIndex">
<polygon fill="white" stroke="black" points="89,-49.5 89,-79.5 259,-79.5 259,-49.5 89,-49.5"/>
<text text-anchor="start" x="97" y="-67.5" font-family="Helvetica,sans-Serif" font-size="10.00">MapReduceHost.HostMapReduce.</text>
<text text-anchor="middle" x="174" y="-56.5" font-family="Helvetica,sans-Serif" font-size="10.00">MapReduceClassIndex</text>
</a>
</g>
</g>
<!-- Node1&#45;&gt;Node2 -->
<g id="edge1" class="edge"><title>Node1&#45;&gt;Node2</title>
<path fill="none" stroke="midnightblue" d="M63.1373,-45.6232C71.1057,-46.9924 79.8854,-48.5009 88.9036,-50.0504"/>
<polygon fill="midnightblue" stroke="midnightblue" points="63.6258,-42.156 53.1776,-43.912 62.4404,-49.0549 63.6258,-42.156"/>
</g>
<!-- Node3 -->
<g id="node3" class="node"><title>Node3</title>
<g id="a_node3"><a xlink:href="classMapReduceScheduler_1_1MapReduceScheduler_1_1BytesPerHostEnum.html" target="_top" xlink:title="MapReduceScheduler.MapReduce\lScheduler.BytesPerHostEnum">
<polygon fill="white" stroke="black" points="90,-0.5 90,-30.5 258,-30.5 258,-0.5 90,-0.5"/>
<text text-anchor="start" x="98" y="-18.5" font-family="Helvetica,sans-Serif" font-size="10.00">MapReduceScheduler.MapReduce</text>
<text text-anchor="middle" x="174" y="-7.5" font-family="Helvetica,sans-Serif" font-size="10.00">Scheduler.BytesPerHostEnum</text>
</a>
</g>
</g>
<!-- Node1&#45;&gt;Node3 -->
<g id="edge2" class="edge"><title>Node1&#45;&gt;Node3</title>
<path fill="none" stroke="midnightblue" d="M63.1117,-33.6259C71.3597,-32.2654 80.478,-30.7614 89.8309,-29.2186"/>
<polygon fill="midnightblue" stroke="midnightblue" points="62.4746,-30.1836 53.1776,-35.2645 63.6139,-37.0903 62.4746,-30.1836"/>
</g>
</g>
</svg>
