<?xml version="1.0" encoding="UTF-8" standalone="no"?>
<!DOCTYPE svg PUBLIC "-//W3C//DTD SVG 1.1//EN"
 "http://www.w3.org/Graphics/SVG/1.1/DTD/svg11.dtd">
<!-- Generated by graphviz version 2.38.0 (20140413.2041)
 -->
<!-- Title: Graphical Class Hierarchy Pages: 1 -->
<svg width="251pt" height="66pt"
 viewBox="0.00 0.00 251.00 66.00" xmlns="http://www.w3.org/2000/svg" xmlns:xlink="http://www.w3.org/1999/xlink">
<g id="graph0" class="graph" transform="scale(1 1) rotate(0) translate(4 62)">
<title>Graphical Class Hierarchy</title>
<polygon fill="white" stroke="none" points="-4,4 -4,-62 247,-62 247,4 -4,4"/>
<!-- Node1 -->
<g id="node1" class="node"><title>Node1</title>
<polygon fill="white" stroke="#bfbfbf" points="0,-19.5 0,-38.5 65,-38.5 65,-19.5 0,-19.5"/>
<text text-anchor="middle" x="32.5" y="-26.5" font-family="Helvetica,sans-Serif" font-size="10.00">EventMixin</text>
</g>
<!-- Node2 -->
<g id="node2" class="node"><title>Node2</title>
<g id="a_node2"><a xlink:href="classriplpox_1_1riplpox_1_1RipLController.html" target="_top" xlink:title="riplpox.riplpox.RipLController">
<polygon fill="white" stroke="black" points="101,-38.5 101,-57.5 243,-57.5 243,-38.5 101,-38.5"/>
<text text-anchor="middle" x="172" y="-45.5" font-family="Helvetica,sans-Serif" font-size="10.00">riplpox.riplpox.RipLController</text>
</a>
</g>
</g>
<!-- Node1&#45;&gt;Node2 -->
<g id="edge1" class="edge"><title>Node1&#45;&gt;Node2</title>
<path fill="none" stroke="midnightblue" d="M75.0908,-34.7471C83.6339,-35.9276 92.8437,-37.2002 102.058,-38.4735"/>
<polygon fill="midnightblue" stroke="midnightblue" points="75.4303,-31.2608 65.0453,-33.359 74.472,-38.1949 75.4303,-31.2608"/>
</g>
<!-- Node3 -->
<g id="node3" class="node"><title>Node3</title>
<g id="a_node3"><a xlink:href="classriplpox_1_1riplpox_1_1Switch.html" target="_top" xlink:title="riplpox.riplpox.Switch">
<polygon fill="white" stroke="black" points="117,-0.5 117,-19.5 227,-19.5 227,-0.5 117,-0.5"/>
<text text-anchor="middle" x="172" y="-7.5" font-family="Helvetica,sans-Serif" font-size="10.00">riplpox.riplpox.Switch</text>
</a>
</g>
</g>
<!-- Node1&#45;&gt;Node3 -->
<g id="edge2" class="edge"><title>Node1&#45;&gt;Node3</title>
<path fill="none" stroke="midnightblue" d="M75.2075,-23.2368C88.356,-21.4199 103.074,-19.3861 116.954,-17.4682"/>
<polygon fill="midnightblue" stroke="midnightblue" points="74.472,-19.8051 65.0453,-24.641 75.4303,-26.7392 74.472,-19.8051"/>
</g>
</g>
</svg>
