<?xml version="1.0" encoding="UTF-8" standalone="no"?>
<!DOCTYPE svg PUBLIC "-//W3C//DTD SVG 1.1//EN"
 "http://www.w3.org/Graphics/SVG/1.1/DTD/svg11.dtd">
<!-- Generated by graphviz version 2.38.0 (20140413.2041)
 -->
<!-- Title: libnetlink.h Pages: 1 -->
<svg width="572pt" height="84pt"
 viewBox="0.00 0.00 571.50 84.00" xmlns="http://www.w3.org/2000/svg" xmlns:xlink="http://www.w3.org/1999/xlink">
<g id="graph0" class="graph" transform="scale(1 1) rotate(0) translate(4 80)">
<title>libnetlink.h</title>
<polygon fill="white" stroke="none" points="-4,4 -4,-80 567.5,-80 567.5,4 -4,4"/>
<!-- Node1 -->
<g id="node1" class="node"><title>Node1</title>
<polygon fill="#bfbfbf" stroke="black" points="242,-56.5 242,-75.5 305,-75.5 305,-56.5 242,-56.5"/>
<text text-anchor="middle" x="273.5" y="-63.5" font-family="Helvetica,sans-Serif" font-size="10.00">libnetlink.h</text>
</g>
<!-- Node2 -->
<g id="node2" class="node"><title>Node2</title>
<polygon fill="white" stroke="#bfbfbf" points="0,-0.5 0,-19.5 71,-19.5 71,-0.5 0,-0.5"/>
<text text-anchor="middle" x="35.5" y="-7.5" font-family="Helvetica,sans-Serif" font-size="10.00">asm/types.h</text>
</g>
<!-- Node1&#45;&gt;Node2 -->
<g id="edge1" class="edge"><title>Node1&#45;&gt;Node2</title>
<path fill="none" stroke="midnightblue" d="M241.895,-57.8292C200.664,-48.4743 128.237,-32.0413 81.0728,-21.34"/>
<polygon fill="midnightblue" stroke="midnightblue" points="81.6475,-17.8816 71.121,-19.0821 80.0986,-24.7081 81.6475,-17.8816"/>
</g>
<!-- Node3 -->
<g id="node3" class="node"><title>Node3</title>
<polygon fill="white" stroke="#bfbfbf" points="89,-0.5 89,-19.5 166,-19.5 166,-0.5 89,-0.5"/>
<text text-anchor="middle" x="127.5" y="-7.5" font-family="Helvetica,sans-Serif" font-size="10.00">linux/netlink.h</text>
</g>
<!-- Node1&#45;&gt;Node3 -->
<g id="edge2" class="edge"><title>Node1&#45;&gt;Node3</title>
<path fill="none" stroke="midnightblue" d="M250.366,-56.4435C226.018,-47.4381 187.493,-33.1891 160.077,-23.049"/>
<polygon fill="midnightblue" stroke="midnightblue" points="161.119,-19.7028 150.526,-19.5164 158.691,-26.2681 161.119,-19.7028"/>
</g>
<!-- Node4 -->
<g id="node4" class="node"><title>Node4</title>
<polygon fill="white" stroke="#bfbfbf" points="184,-0.5 184,-19.5 267,-19.5 267,-0.5 184,-0.5"/>
<text text-anchor="middle" x="225.5" y="-7.5" font-family="Helvetica,sans-Serif" font-size="10.00">linux/rtnetlink.h</text>
</g>
<!-- Node1&#45;&gt;Node4 -->
<g id="edge3" class="edge"><title>Node1&#45;&gt;Node4</title>
<path fill="none" stroke="midnightblue" d="M265.574,-56.083C258.654,-48.2982 248.435,-36.8015 240.048,-27.3665"/>
<polygon fill="midnightblue" stroke="midnightblue" points="242.538,-24.8999 233.279,-19.7511 237.306,-29.5505 242.538,-24.8999"/>
</g>
<!-- Node5 -->
<g id="node5" class="node"><title>Node5</title>
<polygon fill="white" stroke="#bfbfbf" points="285.5,-0.5 285.5,-19.5 359.5,-19.5 359.5,-0.5 285.5,-0.5"/>
<text text-anchor="middle" x="322.5" y="-7.5" font-family="Helvetica,sans-Serif" font-size="10.00">linux/if_link.h</text>
</g>
<!-- Node1&#45;&gt;Node5 -->
<g id="edge4" class="edge"><title>Node1&#45;&gt;Node5</title>
<path fill="none" stroke="midnightblue" d="M281.591,-56.083C288.655,-48.2982 299.088,-36.8015 307.649,-27.3665"/>
<polygon fill="midnightblue" stroke="midnightblue" points="310.431,-29.5087 314.559,-19.7511 305.247,-24.8047 310.431,-29.5087"/>
</g>
<!-- Node6 -->
<g id="node6" class="node"><title>Node6</title>
<polygon fill="white" stroke="#bfbfbf" points="378,-0.5 378,-19.5 455,-19.5 455,-0.5 378,-0.5"/>
<text text-anchor="middle" x="416.5" y="-7.5" font-family="Helvetica,sans-Serif" font-size="10.00">linux/if_addr.h</text>
</g>
<!-- Node1&#45;&gt;Node6 -->
<g id="edge5" class="edge"><title>Node1&#45;&gt;Node6</title>
<path fill="none" stroke="midnightblue" d="M296.159,-56.4435C319.902,-47.4776 357.409,-33.314 384.238,-23.1827"/>
<polygon fill="midnightblue" stroke="midnightblue" points="385.829,-26.3235 393.947,-19.5164 383.356,-19.7749 385.829,-26.3235"/>
</g>
<!-- Node7 -->
<g id="node7" class="node"><title>Node7</title>
<polygon fill="white" stroke="#bfbfbf" points="473.5,-0.5 473.5,-19.5 563.5,-19.5 563.5,-0.5 473.5,-0.5"/>
<text text-anchor="middle" x="518.5" y="-7.5" font-family="Helvetica,sans-Serif" font-size="10.00">linux/neighbour.h</text>
</g>
<!-- Node1&#45;&gt;Node7 -->
<g id="edge6" class="edge"><title>Node1&#45;&gt;Node7</title>
<path fill="none" stroke="midnightblue" d="M305.028,-58.051C346.775,-48.8495 420.816,-32.5303 469.785,-21.7372"/>
<polygon fill="midnightblue" stroke="midnightblue" points="470.821,-25.0929 479.833,-19.5225 469.314,-18.257 470.821,-25.0929"/>
</g>
</g>
</svg>
