<?xml version="1.0" encoding="UTF-8" standalone="no"?>
<!DOCTYPE svg PUBLIC "-//W3C//DTD SVG 1.1//EN"
 "http://www.w3.org/Graphics/SVG/1.1/DTD/svg11.dtd">
<!-- Generated by graphviz version 2.38.0 (20140413.2041)
 -->
<!-- Title: LoggingHandler.h Pages: 1 -->
<svg width="977pt" height="84pt"
 viewBox="0.00 0.00 977.00 84.00" xmlns="http://www.w3.org/2000/svg" xmlns:xlink="http://www.w3.org/1999/xlink">
<g id="graph0" class="graph" transform="scale(1 1) rotate(0) translate(4 80)">
<title>LoggingHandler.h</title>
<polygon fill="white" stroke="none" points="-4,4 -4,-80 973,-80 973,4 -4,4"/>
<!-- Node1 -->
<g id="node1" class="node"><title>Node1</title>
<polygon fill="#bfbfbf" stroke="black" points="405.5,-56.5 405.5,-75.5 497.5,-75.5 497.5,-56.5 405.5,-56.5"/>
<text text-anchor="middle" x="451.5" y="-63.5" font-family="Helvetica,sans-Serif" font-size="10.00">LoggingHandler.h</text>
</g>
<!-- Node2 -->
<g id="node2" class="node"><title>Node2</title>
<g id="a_node2"><a xlink:href="HandleHostBandwidth_8cpp.html" target="_top" xlink:title="HandleHostBandwidth.cpp">
<polygon fill="white" stroke="black" points="0,-0.5 0,-19.5 133,-19.5 133,-0.5 0,-0.5"/>
<text text-anchor="middle" x="66.5" y="-7.5" font-family="Helvetica,sans-Serif" font-size="10.00">HandleHostBandwidth.cpp</text>
</a>
</g>
</g>
<!-- Node1&#45;&gt;Node2 -->
<g id="edge1" class="edge"><title>Node1&#45;&gt;Node2</title>
<path fill="none" stroke="midnightblue" d="M395.277,-57.1142C323.764,-47.0838 200.744,-29.8291 127.169,-19.5095"/>
<polygon fill="midnightblue" stroke="midnightblue" points="395.053,-60.617 405.442,-58.54 396.026,-53.6848 395.053,-60.617"/>
</g>
<!-- Node3 -->
<g id="node3" class="node"><title>Node3</title>
<g id="a_node3"><a xlink:href="LoggerFactory_8cpp.html" target="_top" xlink:title="LoggerFactory.cpp">
<polygon fill="white" stroke="black" points="151.5,-0.5 151.5,-19.5 249.5,-19.5 249.5,-0.5 151.5,-0.5"/>
<text text-anchor="middle" x="200.5" y="-7.5" font-family="Helvetica,sans-Serif" font-size="10.00">LoggerFactory.cpp</text>
</a>
</g>
</g>
<!-- Node1&#45;&gt;Node3 -->
<g id="edge2" class="edge"><title>Node1&#45;&gt;Node3</title>
<path fill="none" stroke="midnightblue" d="M401.679,-54.2815C354.247,-44.0769 283.796,-28.9203 240.086,-19.5164"/>
<polygon fill="midnightblue" stroke="midnightblue" points="401.216,-57.7619 411.728,-56.4435 402.688,-50.9185 401.216,-57.7619"/>
</g>
<!-- Node4 -->
<g id="node4" class="node"><title>Node4</title>
<g id="a_node4"><a xlink:href="LoggingHandler_8cpp.html" target="_top" xlink:title="LoggingHandler.cpp">
<polygon fill="white" stroke="black" points="268,-0.5 268,-19.5 371,-19.5 371,-0.5 268,-0.5"/>
<text text-anchor="middle" x="319.5" y="-7.5" font-family="Helvetica,sans-Serif" font-size="10.00">LoggingHandler.cpp</text>
</a>
</g>
</g>
<!-- Node1&#45;&gt;Node4 -->
<g id="edge3" class="edge"><title>Node1&#45;&gt;Node4</title>
<path fill="none" stroke="midnightblue" d="M421.281,-52.6377C396.51,-42.504 362.1,-28.4274 340.318,-19.5164"/>
<polygon fill="midnightblue" stroke="midnightblue" points="420.003,-55.8966 430.584,-56.4435 422.654,-49.4177 420.003,-55.8966"/>
</g>
<!-- Node5 -->
<g id="node5" class="node"><title>Node5</title>
<g id="a_node5"><a xlink:href="BandwidthCalculator_8cpp.html" target="_top" xlink:title="BandwidthCalculator.cpp">
<polygon fill="white" stroke="black" points="389,-0.5 389,-19.5 514,-19.5 514,-0.5 389,-0.5"/>
<text text-anchor="middle" x="451.5" y="-7.5" font-family="Helvetica,sans-Serif" font-size="10.00">BandwidthCalculator.cpp</text>
</a>
</g>
</g>
<!-- Node1&#45;&gt;Node5 -->
<g id="edge4" class="edge"><title>Node1&#45;&gt;Node5</title>
<path fill="none" stroke="midnightblue" d="M451.5,-45.8045C451.5,-36.9102 451.5,-26.7798 451.5,-19.7511"/>
<polygon fill="midnightblue" stroke="midnightblue" points="448,-46.083 451.5,-56.083 455,-46.083 448,-46.083"/>
</g>
<!-- Node6 -->
<g id="node6" class="node"><title>Node6</title>
<g id="a_node6"><a xlink:href="BandwidthCommunicator_8cpp.html" target="_top" xlink:title="BandwidthCommunicator.cpp">
<polygon fill="white" stroke="black" points="532,-0.5 532,-19.5 677,-19.5 677,-0.5 532,-0.5"/>
<text text-anchor="middle" x="604.5" y="-7.5" font-family="Helvetica,sans-Serif" font-size="10.00">BandwidthCommunicator.cpp</text>
</a>
</g>
</g>
<!-- Node1&#45;&gt;Node6 -->
<g id="edge5" class="edge"><title>Node1&#45;&gt;Node6</title>
<path fill="none" stroke="midnightblue" d="M485.389,-53.0392C514.177,-42.8786 554.787,-28.5457 580.37,-19.5164"/>
<polygon fill="midnightblue" stroke="midnightblue" points="484.008,-49.8148 475.743,-56.4435 486.338,-56.4157 484.008,-49.8148"/>
</g>
<!-- Node7 -->
<g id="node7" class="node"><title>Node7</title>
<g id="a_node7"><a xlink:href="MainObject_8cpp.html" target="_top" xlink:title="MainObject.cpp">
<polygon fill="white" stroke="black" points="695,-0.5 695,-19.5 780,-19.5 780,-0.5 695,-0.5"/>
<text text-anchor="middle" x="737.5" y="-7.5" font-family="Helvetica,sans-Serif" font-size="10.00">MainObject.cpp</text>
</a>
</g>
</g>
<!-- Node1&#45;&gt;Node7 -->
<g id="edge6" class="edge"><title>Node1&#45;&gt;Node7</title>
<path fill="none" stroke="midnightblue" d="M506.726,-54.5727C561.623,-44.2076 644.663,-28.5287 694.73,-19.0755"/>
<polygon fill="midnightblue" stroke="midnightblue" points="505.995,-51.1489 496.818,-56.4435 507.293,-58.0274 505.995,-51.1489"/>
</g>
<!-- Node8 -->
<g id="node8" class="node"><title>Node8</title>
<g id="a_node8"><a xlink:href="WorkConservationFlowHandler_8cpp.html" target="_top" xlink:title="WorkConservationFlowHandler.cpp">
<polygon fill="white" stroke="black" points="798,-0.5 798,-19.5 969,-19.5 969,-0.5 798,-0.5"/>
<text text-anchor="middle" x="883.5" y="-7.5" font-family="Helvetica,sans-Serif" font-size="10.00">WorkConservationFlowHandler.cpp</text>
</a>
</g>
</g>
<!-- Node1&#45;&gt;Node8 -->
<g id="edge7" class="edge"><title>Node1&#45;&gt;Node8</title>
<path fill="none" stroke="midnightblue" d="M507.978,-57.9403C587.021,-48.0599 730.457,-30.1304 815.339,-19.5201"/>
<polygon fill="midnightblue" stroke="midnightblue" points="507.22,-54.5076 497.732,-59.2211 508.088,-61.4536 507.22,-54.5076"/>
</g>
</g>
</svg>
