<?xml version="1.0" encoding="UTF-8" standalone="no"?>
<!DOCTYPE svg PUBLIC "-//W3C//DTD SVG 1.1//EN"
 "http://www.w3.org/Graphics/SVG/1.1/DTD/svg11.dtd">
<!-- Generated by graphviz version 2.38.0 (20140413.2041)
 -->
<!-- Title: LoggingHandler.h Pages: 1 -->
<svg width="911pt" height="140pt"
 viewBox="0.00 0.00 911.00 140.00" xmlns="http://www.w3.org/2000/svg" xmlns:xlink="http://www.w3.org/1999/xlink">
<g id="graph0" class="graph" transform="scale(1 1) rotate(0) translate(4 136)">
<title>LoggingHandler.h</title>
<polygon fill="white" stroke="none" points="-4,4 -4,-136 907,-136 907,4 -4,4"/>
<!-- Node1 -->
<g id="node1" class="node"><title>Node1</title>
<polygon fill="#bfbfbf" stroke="black" points="415.5,-112.5 415.5,-131.5 507.5,-131.5 507.5,-112.5 415.5,-112.5"/>
<text text-anchor="middle" x="461.5" y="-119.5" font-family="Helvetica,sans-Serif" font-size="10.00">LoggingHandler.h</text>
</g>
<!-- Node2 -->
<g id="node2" class="node"><title>Node2</title>
<g id="a_node2"><a xlink:href="HandleHostBandwidth_8h.html" target="_top" xlink:title="HandleHostBandwidth.h">
<polygon fill="white" stroke="black" points="61.5,-56.5 61.5,-75.5 183.5,-75.5 183.5,-56.5 61.5,-56.5"/>
<text text-anchor="middle" x="122.5" y="-63.5" font-family="Helvetica,sans-Serif" font-size="10.00">HandleHostBandwidth.h</text>
</a>
</g>
</g>
<!-- Node1&#45;&gt;Node2 -->
<g id="edge1" class="edge"><title>Node1&#45;&gt;Node2</title>
<path fill="none" stroke="midnightblue" d="M405.169,-112.027C341.475,-101.881 238.525,-85.4819 176.016,-75.5246"/>
<polygon fill="midnightblue" stroke="midnightblue" points="405.002,-115.544 415.428,-113.661 406.103,-108.632 405.002,-115.544"/>
</g>
<!-- Node5 -->
<g id="node5" class="node"><title>Node5</title>
<g id="a_node5"><a xlink:href="LoggingHandler_8cpp.html" target="_top" xlink:title="LoggingHandler.cpp">
<polygon fill="white" stroke="black" points="202,-56.5 202,-75.5 305,-75.5 305,-56.5 202,-56.5"/>
<text text-anchor="middle" x="253.5" y="-63.5" font-family="Helvetica,sans-Serif" font-size="10.00">LoggingHandler.cpp</text>
</a>
</g>
</g>
<!-- Node1&#45;&gt;Node5 -->
<g id="edge4" class="edge"><title>Node1&#45;&gt;Node5</title>
<path fill="none" stroke="midnightblue" d="M418.722,-109.894C379.442,-99.6966 322.071,-84.802 286.304,-75.5164"/>
<polygon fill="midnightblue" stroke="midnightblue" points="417.983,-113.318 428.542,-112.444 419.742,-106.543 417.983,-113.318"/>
</g>
<!-- Node6 -->
<g id="node6" class="node"><title>Node6</title>
<g id="a_node6"><a xlink:href="BandwidthCalculator_8cpp.html" target="_top" xlink:title="BandwidthCalculator.cpp">
<polygon fill="white" stroke="black" points="323,-56.5 323,-75.5 448,-75.5 448,-56.5 323,-56.5"/>
<text text-anchor="middle" x="385.5" y="-63.5" font-family="Helvetica,sans-Serif" font-size="10.00">BandwidthCalculator.cpp</text>
</a>
</g>
</g>
<!-- Node1&#45;&gt;Node6 -->
<g id="edge5" class="edge"><title>Node1&#45;&gt;Node6</title>
<path fill="none" stroke="midnightblue" d="M440.924,-106.38C427.188,-96.6204 409.575,-84.1057 397.933,-75.8339"/>
<polygon fill="midnightblue" stroke="midnightblue" points="439.11,-109.385 449.289,-112.324 443.165,-103.679 439.11,-109.385"/>
</g>
<!-- Node7 -->
<g id="node7" class="node"><title>Node7</title>
<g id="a_node7"><a xlink:href="BandwidthCommunicator_8cpp.html" target="_top" xlink:title="BandwidthCommunicator.cpp">
<polygon fill="white" stroke="black" points="466,-56.5 466,-75.5 611,-75.5 611,-56.5 466,-56.5"/>
<text text-anchor="middle" x="538.5" y="-63.5" font-family="Helvetica,sans-Serif" font-size="10.00">BandwidthCommunicator.cpp</text>
</a>
</g>
</g>
<!-- Node1&#45;&gt;Node7 -->
<g id="edge6" class="edge"><title>Node1&#45;&gt;Node7</title>
<path fill="none" stroke="midnightblue" d="M482.401,-106.342C496.411,-96.5169 514.383,-83.9132 526.159,-75.6545"/>
<polygon fill="midnightblue" stroke="midnightblue" points="480.049,-103.717 473.871,-112.324 484.068,-109.448 480.049,-103.717"/>
</g>
<!-- Node8 -->
<g id="node8" class="node"><title>Node8</title>
<g id="a_node8"><a xlink:href="MainObject_8cpp.html" target="_top" xlink:title="MainObject.cpp">
<polygon fill="white" stroke="black" points="629,-56.5 629,-75.5 714,-75.5 714,-56.5 629,-56.5"/>
<text text-anchor="middle" x="671.5" y="-63.5" font-family="Helvetica,sans-Serif" font-size="10.00">MainObject.cpp</text>
</a>
</g>
</g>
<!-- Node1&#45;&gt;Node8 -->
<g id="edge7" class="edge"><title>Node1&#45;&gt;Node8</title>
<path fill="none" stroke="midnightblue" d="M504.69,-109.894C544.347,-99.6966 602.27,-84.802 638.381,-75.5164"/>
<polygon fill="midnightblue" stroke="midnightblue" points="503.588,-106.563 494.775,-112.444 505.332,-113.343 503.588,-106.563"/>
</g>
<!-- Node9 -->
<g id="node9" class="node"><title>Node9</title>
<g id="a_node9"><a xlink:href="WorkConservationFlowHandler_8cpp.html" target="_top" xlink:title="WorkConservationFlowHandler.cpp">
<polygon fill="white" stroke="black" points="732,-56.5 732,-75.5 903,-75.5 903,-56.5 732,-56.5"/>
<text text-anchor="middle" x="817.5" y="-63.5" font-family="Helvetica,sans-Serif" font-size="10.00">WorkConservationFlowHandler.cpp</text>
</a>
</g>
</g>
<!-- Node1&#45;&gt;Node9 -->
<g id="edge8" class="edge"><title>Node1&#45;&gt;Node9</title>
<path fill="none" stroke="midnightblue" d="M517.582,-112.493C584.237,-102.383 694.797,-85.6122 761.442,-75.5032"/>
<polygon fill="midnightblue" stroke="midnightblue" points="517.038,-109.036 507.676,-113.996 518.088,-115.956 517.038,-109.036"/>
</g>
<!-- Node3 -->
<g id="node3" class="node"><title>Node3</title>
<g id="a_node3"><a xlink:href="HandleHostBandwidth_8cpp.html" target="_top" xlink:title="HandleHostBandwidth.cpp">
<polygon fill="white" stroke="black" points="0,-0.5 0,-19.5 133,-19.5 133,-0.5 0,-0.5"/>
<text text-anchor="middle" x="66.5" y="-7.5" font-family="Helvetica,sans-Serif" font-size="10.00">HandleHostBandwidth.cpp</text>
</a>
</g>
</g>
<!-- Node2&#45;&gt;Node3 -->
<g id="edge2" class="edge"><title>Node2&#45;&gt;Node3</title>
<path fill="none" stroke="midnightblue" d="M106.17,-49.2533C96.235,-39.6731 83.9125,-27.7906 75.6611,-19.8339"/>
<polygon fill="midnightblue" stroke="midnightblue" points="103.875,-51.902 113.503,-56.324 108.734,-46.8631 103.875,-51.902"/>
</g>
<!-- Node4 -->
<g id="node4" class="node"><title>Node4</title>
<g id="a_node4"><a xlink:href="BGAdaptor_2main_8cpp.html" target="_top" xlink:title="main.cpp">
<polygon fill="white" stroke="black" points="151.5,-0.5 151.5,-19.5 207.5,-19.5 207.5,-0.5 151.5,-0.5"/>
<text text-anchor="middle" x="179.5" y="-7.5" font-family="Helvetica,sans-Serif" font-size="10.00">main.cpp</text>
</a>
</g>
</g>
<!-- Node2&#45;&gt;Node4 -->
<g id="edge3" class="edge"><title>Node2&#45;&gt;Node4</title>
<path fill="none" stroke="midnightblue" d="M139.121,-49.2533C149.234,-39.6731 161.777,-27.7906 170.175,-19.8339"/>
<polygon fill="midnightblue" stroke="midnightblue" points="136.51,-46.9056 131.658,-56.324 141.325,-51.9873 136.51,-46.9056"/>
</g>
</g>
</svg>
