<?xml version="1.0" encoding="UTF-8" standalone="no"?>
<!DOCTYPE svg PUBLIC "-//W3C//DTD SVG 1.1//EN"
 "http://www.w3.org/Graphics/SVG/1.1/DTD/svg11.dtd">
<!-- Generated by graphviz version 2.38.0 (20140413.2041)
 -->
<!-- Title: LoggerFactory.h Pages: 1 -->
<svg width="361pt" height="84pt"
 viewBox="0.00 0.00 361.00 84.00" xmlns="http://www.w3.org/2000/svg" xmlns:xlink="http://www.w3.org/1999/xlink">
<g id="graph0" class="graph" transform="scale(1 1) rotate(0) translate(4 80)">
<title>LoggerFactory.h</title>
<polygon fill="white" stroke="none" points="-4,4 -4,-80 357,-80 357,4 -4,4"/>
<!-- Node1 -->
<g id="node1" class="node"><title>Node1</title>
<polygon fill="#bfbfbf" stroke="black" points="157,-56.5 157,-75.5 244,-75.5 244,-56.5 157,-56.5"/>
<text text-anchor="middle" x="200.5" y="-63.5" font-family="Helvetica,sans-Serif" font-size="10.00">LoggerFactory.h</text>
</g>
<!-- Node2 -->
<g id="node2" class="node"><title>Node2</title>
<g id="a_node2"><a xlink:href="HandleHostBandwidth_8cpp.html" target="_top" xlink:title="HandleHostBandwidth.cpp">
<polygon fill="white" stroke="black" points="0,-0.5 0,-19.5 133,-19.5 133,-0.5 0,-0.5"/>
<text text-anchor="middle" x="66.5" y="-7.5" font-family="Helvetica,sans-Serif" font-size="10.00">HandleHostBandwidth.cpp</text>
</a>
</g>
</g>
<!-- Node1&#45;&gt;Node2 -->
<g id="edge1" class="edge"><title>Node1&#45;&gt;Node2</title>
<path fill="none" stroke="midnightblue" d="M169.823,-52.6377C144.677,-42.504 109.746,-28.4274 87.6334,-19.5164"/>
<polygon fill="midnightblue" stroke="midnightblue" points="168.684,-55.952 179.267,-56.4435 171.3,-49.4594 168.684,-55.952"/>
</g>
<!-- Node3 -->
<g id="node3" class="node"><title>Node3</title>
<g id="a_node3"><a xlink:href="LoggerFactory_8cpp.html" target="_top" xlink:title="LoggerFactory.cpp">
<polygon fill="white" stroke="black" points="151.5,-0.5 151.5,-19.5 249.5,-19.5 249.5,-0.5 151.5,-0.5"/>
<text text-anchor="middle" x="200.5" y="-7.5" font-family="Helvetica,sans-Serif" font-size="10.00">LoggerFactory.cpp</text>
</a>
</g>
</g>
<!-- Node1&#45;&gt;Node3 -->
<g id="edge2" class="edge"><title>Node1&#45;&gt;Node3</title>
<path fill="none" stroke="midnightblue" d="M200.5,-45.8045C200.5,-36.9102 200.5,-26.7798 200.5,-19.7511"/>
<polygon fill="midnightblue" stroke="midnightblue" points="197,-46.083 200.5,-56.083 204,-46.083 197,-46.083"/>
</g>
<!-- Node4 -->
<g id="node4" class="node"><title>Node4</title>
<g id="a_node4"><a xlink:href="WCEnabler_2MainObject_8cpp.html" target="_top" xlink:title="MainObject.cpp">
<polygon fill="white" stroke="black" points="268,-0.5 268,-19.5 353,-19.5 353,-0.5 268,-0.5"/>
<text text-anchor="middle" x="310.5" y="-7.5" font-family="Helvetica,sans-Serif" font-size="10.00">MainObject.cpp</text>
</a>
</g>
</g>
<!-- Node1&#45;&gt;Node4 -->
<g id="edge3" class="edge"><title>Node1&#45;&gt;Node4</title>
<path fill="none" stroke="midnightblue" d="M227.262,-51.8622C247.659,-41.8492 275.166,-28.3458 292.87,-19.6545"/>
<polygon fill="midnightblue" stroke="midnightblue" points="225.608,-48.7753 218.173,-56.324 228.692,-55.059 225.608,-48.7753"/>
</g>
</g>
</svg>
