<?xml version="1.0" encoding="UTF-8" standalone="no"?>
<!DOCTYPE svg PUBLIC "-//W3C//DTD SVG 1.1//EN"
 "http://www.w3.org/Graphics/SVG/1.1/DTD/svg11.dtd">
<!-- Generated by graphviz version 2.38.0 (20140413.2041)
 -->
<!-- Title: LoggerFactory.cpp Pages: 1 -->
<svg width="490pt" height="140pt"
 viewBox="0.00 0.00 489.50 140.00" xmlns="http://www.w3.org/2000/svg" xmlns:xlink="http://www.w3.org/1999/xlink">
<g id="graph0" class="graph" transform="scale(1 1) rotate(0) translate(4 136)">
<title>LoggerFactory.cpp</title>
<polygon fill="white" stroke="none" points="-4,4 -4,-136 485.5,-136 485.5,4 -4,4"/>
<!-- Node1 -->
<g id="node1" class="node"><title>Node1</title>
<polygon fill="#bfbfbf" stroke="black" points="190.5,-112.5 190.5,-131.5 288.5,-131.5 288.5,-112.5 190.5,-112.5"/>
<text text-anchor="middle" x="239.5" y="-119.5" font-family="Helvetica,sans-Serif" font-size="10.00">LoggerFactory.cpp</text>
</g>
<!-- Node2 -->
<g id="node2" class="node"><title>Node2</title>
<g id="a_node2"><a xlink:href="LoggerFactory_8h.html" target="_top" xlink:title="LoggerFactory.h">
<polygon fill="white" stroke="black" points="0,-56.5 0,-75.5 87,-75.5 87,-56.5 0,-56.5"/>
<text text-anchor="middle" x="43.5" y="-63.5" font-family="Helvetica,sans-Serif" font-size="10.00">LoggerFactory.h</text>
</a>
</g>
</g>
<!-- Node1&#45;&gt;Node2 -->
<g id="edge1" class="edge"><title>Node1&#45;&gt;Node2</title>
<path fill="none" stroke="midnightblue" d="M208.443,-112.444C174.897,-103.201 121.303,-88.4356 84.3595,-78.2572"/>
<polygon fill="midnightblue" stroke="midnightblue" points="84.982,-74.7984 74.4115,-75.5164 83.1226,-81.5469 84.982,-74.7984"/>
</g>
<!-- Node4 -->
<g id="node4" class="node"><title>Node4</title>
<polygon fill="white" stroke="#bfbfbf" points="105.5,-56.5 105.5,-75.5 161.5,-75.5 161.5,-56.5 105.5,-56.5"/>
<text text-anchor="middle" x="133.5" y="-63.5" font-family="Helvetica,sans-Serif" font-size="10.00">algorithm</text>
</g>
<!-- Node1&#45;&gt;Node4 -->
<g id="edge3" class="edge"><title>Node1&#45;&gt;Node4</title>
<path fill="none" stroke="midnightblue" d="M222.469,-112.324C205.47,-103.664 179.124,-90.2424 159.507,-80.249"/>
<polygon fill="midnightblue" stroke="midnightblue" points="160.988,-77.0752 150.488,-75.6545 157.81,-83.3125 160.988,-77.0752"/>
</g>
<!-- Node5 -->
<g id="node5" class="node"><title>Node5</title>
<polygon fill="white" stroke="#bfbfbf" points="179.5,-56.5 179.5,-75.5 231.5,-75.5 231.5,-56.5 179.5,-56.5"/>
<text text-anchor="middle" x="205.5" y="-63.5" font-family="Helvetica,sans-Serif" font-size="10.00">sstream</text>
</g>
<!-- Node1&#45;&gt;Node5 -->
<g id="edge4" class="edge"><title>Node1&#45;&gt;Node5</title>
<path fill="none" stroke="midnightblue" d="M233.886,-112.083C229.133,-104.534 222.182,-93.4948 216.348,-84.2298"/>
<polygon fill="midnightblue" stroke="midnightblue" points="219.3,-82.3486 211.01,-75.7511 213.376,-86.0783 219.3,-82.3486"/>
</g>
<!-- Node6 -->
<g id="node6" class="node"><title>Node6</title>
<polygon fill="white" stroke="#bfbfbf" points="250,-56.5 250,-75.5 299,-75.5 299,-56.5 250,-56.5"/>
<text text-anchor="middle" x="274.5" y="-63.5" font-family="Helvetica,sans-Serif" font-size="10.00">string.h</text>
</g>
<!-- Node1&#45;&gt;Node6 -->
<g id="edge5" class="edge"><title>Node1&#45;&gt;Node6</title>
<path fill="none" stroke="midnightblue" d="M245.28,-112.083C250.172,-104.534 257.327,-93.4948 263.333,-84.2298"/>
<polygon fill="midnightblue" stroke="midnightblue" points="266.326,-86.0463 268.828,-75.7511 260.452,-82.239 266.326,-86.0463"/>
</g>
<!-- Node7 -->
<g id="node7" class="node"><title>Node7</title>
<g id="a_node7"><a xlink:href="LoggingHandler_8h.html" target="_top" xlink:title="LoggingHandler.h">
<polygon fill="white" stroke="black" points="317.5,-56.5 317.5,-75.5 409.5,-75.5 409.5,-56.5 317.5,-56.5"/>
<text text-anchor="middle" x="363.5" y="-63.5" font-family="Helvetica,sans-Serif" font-size="10.00">LoggingHandler.h</text>
</a>
</g>
</g>
<!-- Node1&#45;&gt;Node7 -->
<g id="edge6" class="edge"><title>Node1&#45;&gt;Node7</title>
<path fill="none" stroke="midnightblue" d="M259.148,-112.444C279.465,-103.596 311.403,-89.6875 334.598,-79.5865"/>
<polygon fill="midnightblue" stroke="midnightblue" points="336.173,-82.7181 343.944,-75.5164 333.378,-76.3002 336.173,-82.7181"/>
</g>
<!-- Node9 -->
<g id="node9" class="node"><title>Node9</title>
<polygon fill="white" stroke="#bfbfbf" points="427.5,-56.5 427.5,-75.5 481.5,-75.5 481.5,-56.5 427.5,-56.5"/>
<text text-anchor="middle" x="454.5" y="-63.5" font-family="Helvetica,sans-Serif" font-size="10.00">iostream</text>
</g>
<!-- Node1&#45;&gt;Node9 -->
<g id="edge9" class="edge"><title>Node1&#45;&gt;Node9</title>
<path fill="none" stroke="midnightblue" d="M273.567,-112.444C312.864,-102.574 377.236,-86.4057 417.666,-76.2512"/>
<polygon fill="midnightblue" stroke="midnightblue" points="418.553,-79.6373 427.399,-73.8067 416.848,-72.8481 418.553,-79.6373"/>
</g>
<!-- Node3 -->
<g id="node3" class="node"><title>Node3</title>
<polygon fill="white" stroke="#bfbfbf" points="151,-0.5 151,-19.5 192,-19.5 192,-0.5 151,-0.5"/>
<text text-anchor="middle" x="171.5" y="-7.5" font-family="Helvetica,sans-Serif" font-size="10.00">string</text>
</g>
<!-- Node2&#45;&gt;Node3 -->
<g id="edge2" class="edge"><title>Node2&#45;&gt;Node3</title>
<path fill="none" stroke="midnightblue" d="M63.782,-56.4435C84.8473,-47.5566 118.017,-33.5632 141.986,-23.4514"/>
<polygon fill="midnightblue" stroke="midnightblue" points="143.46,-26.6283 151.313,-19.5164 140.739,-20.1787 143.46,-26.6283"/>
</g>
<!-- Node7&#45;&gt;Node3 -->
<g id="edge7" class="edge"><title>Node7&#45;&gt;Node3</title>
<path fill="none" stroke="midnightblue" d="M333.077,-56.4435C297.18,-46.3474 237.849,-29.6606 201.943,-19.562"/>
<polygon fill="midnightblue" stroke="midnightblue" points="202.614,-16.115 192.04,-16.7767 200.718,-22.8536 202.614,-16.115"/>
</g>
<!-- Node8 -->
<g id="node8" class="node"><title>Node8</title>
<polygon fill="white" stroke="#bfbfbf" points="338.5,-0.5 338.5,-19.5 388.5,-19.5 388.5,-0.5 338.5,-0.5"/>
<text text-anchor="middle" x="363.5" y="-7.5" font-family="Helvetica,sans-Serif" font-size="10.00">fstream</text>
</g>
<!-- Node7&#45;&gt;Node8 -->
<g id="edge8" class="edge"><title>Node7&#45;&gt;Node8</title>
<path fill="none" stroke="midnightblue" d="M363.5,-56.083C363.5,-49.0059 363.5,-38.8611 363.5,-29.9865"/>
<polygon fill="midnightblue" stroke="midnightblue" points="367,-29.751 363.5,-19.7511 360,-29.7511 367,-29.751"/>
</g>
</g>
</svg>
