<?xml version="1.0" encoding="UTF-8" standalone="no"?>
<!DOCTYPE svg PUBLIC "-//W3C//DTD SVG 1.1//EN"
 "http://www.w3.org/Graphics/SVG/1.1/DTD/svg11.dtd">
<!-- Generated by graphviz version 2.38.0 (20140413.2041)
 -->
<!-- Title: LoggingHandler.cpp Pages: 1 -->
<svg width="118pt" height="140pt"
 viewBox="0.00 0.00 117.50 140.00" xmlns="http://www.w3.org/2000/svg" xmlns:xlink="http://www.w3.org/1999/xlink">
<g id="graph0" class="graph" transform="scale(1 1) rotate(0) translate(4 136)">
<title>LoggingHandler.cpp</title>
<polygon fill="white" stroke="none" points="-4,4 -4,-136 113.5,-136 113.5,4 -4,4"/>
<!-- Node1 -->
<g id="node1" class="node"><title>Node1</title>
<polygon fill="#bfbfbf" stroke="black" points="1,-112.5 1,-131.5 104,-131.5 104,-112.5 1,-112.5"/>
<text text-anchor="middle" x="52.5" y="-119.5" font-family="Helvetica,sans-Serif" font-size="10.00">LoggingHandler.cpp</text>
</g>
<!-- Node2 -->
<g id="node2" class="node"><title>Node2</title>
<g id="a_node2"><a xlink:href="LoggingHandler_8h.html" target="_top" xlink:title="LoggingHandler.h">
<polygon fill="white" stroke="black" points="6.5,-56.5 6.5,-75.5 98.5,-75.5 98.5,-56.5 6.5,-56.5"/>
<text text-anchor="middle" x="52.5" y="-63.5" font-family="Helvetica,sans-Serif" font-size="10.00">LoggingHandler.h</text>
</a>
</g>
</g>
<!-- Node1&#45;&gt;Node2 -->
<g id="edge1" class="edge"><title>Node1&#45;&gt;Node2</title>
<path fill="none" stroke="midnightblue" d="M52.5,-112.083C52.5,-105.006 52.5,-94.8611 52.5,-85.9865"/>
<polygon fill="midnightblue" stroke="midnightblue" points="56.0001,-85.751 52.5,-75.7511 49.0001,-85.7511 56.0001,-85.751"/>
</g>
<!-- Node3 -->
<g id="node3" class="node"><title>Node3</title>
<polygon fill="white" stroke="#bfbfbf" points="0,-0.5 0,-19.5 41,-19.5 41,-0.5 0,-0.5"/>
<text text-anchor="middle" x="20.5" y="-7.5" font-family="Helvetica,sans-Serif" font-size="10.00">string</text>
</g>
<!-- Node2&#45;&gt;Node3 -->
<g id="edge2" class="edge"><title>Node2&#45;&gt;Node3</title>
<path fill="none" stroke="midnightblue" d="M47.2159,-56.083C42.789,-48.6127 36.3367,-37.7244 30.8821,-28.5199"/>
<polygon fill="midnightblue" stroke="midnightblue" points="33.7949,-26.5697 25.6858,-19.7511 27.7729,-30.1383 33.7949,-26.5697"/>
</g>
<!-- Node4 -->
<g id="node4" class="node"><title>Node4</title>
<polygon fill="white" stroke="#bfbfbf" points="59.5,-0.5 59.5,-19.5 109.5,-19.5 109.5,-0.5 59.5,-0.5"/>
<text text-anchor="middle" x="84.5" y="-7.5" font-family="Helvetica,sans-Serif" font-size="10.00">fstream</text>
</g>
<!-- Node2&#45;&gt;Node4 -->
<g id="edge3" class="edge"><title>Node2&#45;&gt;Node4</title>
<path fill="none" stroke="midnightblue" d="M57.7841,-56.083C62.211,-48.6127 68.6633,-37.7244 74.1179,-28.5199"/>
<polygon fill="midnightblue" stroke="midnightblue" points="77.2271,-30.1383 79.3142,-19.7511 71.2051,-26.5697 77.2271,-30.1383"/>
</g>
</g>
</svg>
