<?xml version="1.0" encoding="UTF-8" standalone="no"?>
<!DOCTYPE svg PUBLIC "-//W3C//DTD SVG 1.1//EN"
 "http://www.w3.org/Graphics/SVG/1.1/DTD/svg11.dtd">
<!-- Generated by graphviz version 2.38.0 (20140413.2041)
 -->
<!-- Title: LoggerFactory.cpp Pages: 1 -->
<svg width="418pt" height="140pt"
 viewBox="0.00 0.00 417.50 140.00" xmlns="http://www.w3.org/2000/svg" xmlns:xlink="http://www.w3.org/1999/xlink">
<g id="graph0" class="graph" transform="scale(1 1) rotate(0) translate(4 136)">
<title>LoggerFactory.cpp</title>
<polygon fill="white" stroke="none" points="-4,4 -4,-136 413.5,-136 413.5,4 -4,4"/>
<!-- Node1 -->
<g id="node1" class="node"><title>Node1</title>
<polygon fill="#bfbfbf" stroke="black" points="156.5,-112.5 156.5,-131.5 254.5,-131.5 254.5,-112.5 156.5,-112.5"/>
<text text-anchor="middle" x="205.5" y="-119.5" font-family="Helvetica,sans-Serif" font-size="10.00">LoggerFactory.cpp</text>
</g>
<!-- Node2 -->
<g id="node2" class="node"><title>Node2</title>
<g id="a_node2"><a xlink:href="LoggerFactory_8h.html" target="_top" xlink:title="LoggerFactory.h">
<polygon fill="white" stroke="black" points="0,-56.5 0,-75.5 87,-75.5 87,-56.5 0,-56.5"/>
<text text-anchor="middle" x="43.5" y="-63.5" font-family="Helvetica,sans-Serif" font-size="10.00">LoggerFactory.h</text>
</a>
</g>
</g>
<!-- Node1&#45;&gt;Node2 -->
<g id="edge1" class="edge"><title>Node1&#45;&gt;Node2</title>
<path fill="none" stroke="midnightblue" d="M179.831,-112.444C152.577,-103.359 109.316,-88.9388 78.8494,-78.7831"/>
<polygon fill="midnightblue" stroke="midnightblue" points="79.6429,-75.3584 69.0493,-75.5164 77.4293,-81.9992 79.6429,-75.3584"/>
</g>
<!-- Node4 -->
<g id="node4" class="node"><title>Node4</title>
<polygon fill="white" stroke="#bfbfbf" points="105.5,-56.5 105.5,-75.5 161.5,-75.5 161.5,-56.5 105.5,-56.5"/>
<text text-anchor="middle" x="133.5" y="-63.5" font-family="Helvetica,sans-Serif" font-size="10.00">algorithm</text>
</g>
<!-- Node1&#45;&gt;Node4 -->
<g id="edge3" class="edge"><title>Node1&#45;&gt;Node4</title>
<path fill="none" stroke="midnightblue" d="M193.932,-112.324C183.08,-104.185 166.619,-91.8395 153.617,-82.0874"/>
<polygon fill="midnightblue" stroke="midnightblue" points="155.379,-79.0339 145.279,-75.8339 151.179,-84.6339 155.379,-79.0339"/>
</g>
<!-- Node5 -->
<g id="node5" class="node"><title>Node5</title>
<polygon fill="white" stroke="#bfbfbf" points="179.5,-56.5 179.5,-75.5 231.5,-75.5 231.5,-56.5 179.5,-56.5"/>
<text text-anchor="middle" x="205.5" y="-63.5" font-family="Helvetica,sans-Serif" font-size="10.00">sstream</text>
</g>
<!-- Node1&#45;&gt;Node5 -->
<g id="edge4" class="edge"><title>Node1&#45;&gt;Node5</title>
<path fill="none" stroke="midnightblue" d="M205.5,-112.083C205.5,-105.006 205.5,-94.8611 205.5,-85.9865"/>
<polygon fill="midnightblue" stroke="midnightblue" points="209,-85.751 205.5,-75.7511 202,-85.7511 209,-85.751"/>
</g>
<!-- Node6 -->
<g id="node6" class="node"><title>Node6</title>
<polygon fill="white" stroke="#bfbfbf" points="250,-56.5 250,-75.5 299,-75.5 299,-56.5 250,-56.5"/>
<text text-anchor="middle" x="274.5" y="-63.5" font-family="Helvetica,sans-Serif" font-size="10.00">string.h</text>
</g>
<!-- Node1&#45;&gt;Node6 -->
<g id="edge5" class="edge"><title>Node1&#45;&gt;Node6</title>
<path fill="none" stroke="midnightblue" d="M216.586,-112.324C226.986,-104.185 242.761,-91.8395 255.222,-82.0874"/>
<polygon fill="midnightblue" stroke="midnightblue" points="257.494,-84.7533 263.212,-75.8339 253.18,-79.2407 257.494,-84.7533"/>
</g>
<!-- Node7 -->
<g id="node7" class="node"><title>Node7</title>
<g id="a_node7"><a xlink:href="LoggingHandler_8h.html" target="_top" xlink:title="LoggingHandler.h">
<polygon fill="white" stroke="black" points="317.5,-56.5 317.5,-75.5 409.5,-75.5 409.5,-56.5 317.5,-56.5"/>
<text text-anchor="middle" x="363.5" y="-63.5" font-family="Helvetica,sans-Serif" font-size="10.00">LoggingHandler.h</text>
</a>
</g>
</g>
<!-- Node1&#45;&gt;Node7 -->
<g id="edge6" class="edge"><title>Node1&#45;&gt;Node7</title>
<path fill="none" stroke="midnightblue" d="M230.536,-112.444C257.116,-103.359 299.309,-88.9388 329.023,-78.7831"/>
<polygon fill="midnightblue" stroke="midnightblue" points="330.251,-82.0625 338.582,-75.5164 327.987,-75.4386 330.251,-82.0625"/>
</g>
<!-- Node3 -->
<g id="node3" class="node"><title>Node3</title>
<polygon fill="white" stroke="#bfbfbf" points="151,-0.5 151,-19.5 192,-19.5 192,-0.5 151,-0.5"/>
<text text-anchor="middle" x="171.5" y="-7.5" font-family="Helvetica,sans-Serif" font-size="10.00">string</text>
</g>
<!-- Node2&#45;&gt;Node3 -->
<g id="edge2" class="edge"><title>Node2&#45;&gt;Node3</title>
<path fill="none" stroke="midnightblue" d="M63.782,-56.4435C84.8473,-47.5566 118.017,-33.5632 141.986,-23.4514"/>
<polygon fill="midnightblue" stroke="midnightblue" points="143.46,-26.6283 151.313,-19.5164 140.739,-20.1787 143.46,-26.6283"/>
</g>
<!-- Node7&#45;&gt;Node3 -->
<g id="edge7" class="edge"><title>Node7&#45;&gt;Node3</title>
<path fill="none" stroke="midnightblue" d="M333.077,-56.4435C297.18,-46.3474 237.849,-29.6606 201.943,-19.562"/>
<polygon fill="midnightblue" stroke="midnightblue" points="202.614,-16.115 192.04,-16.7767 200.718,-22.8536 202.614,-16.115"/>
</g>
<!-- Node8 -->
<g id="node8" class="node"><title>Node8</title>
<polygon fill="white" stroke="#bfbfbf" points="338.5,-0.5 338.5,-19.5 388.5,-19.5 388.5,-0.5 338.5,-0.5"/>
<text text-anchor="middle" x="363.5" y="-7.5" font-family="Helvetica,sans-Serif" font-size="10.00">fstream</text>
</g>
<!-- Node7&#45;&gt;Node8 -->
<g id="edge8" class="edge"><title>Node7&#45;&gt;Node8</title>
<path fill="none" stroke="midnightblue" d="M363.5,-56.083C363.5,-49.0059 363.5,-38.8611 363.5,-29.9865"/>
<polygon fill="midnightblue" stroke="midnightblue" points="367,-29.751 363.5,-19.7511 360,-29.7511 367,-29.751"/>
</g>
</g>
</svg>
