<?xml version="1.0" encoding="UTF-8" standalone="no"?>
<!DOCTYPE svg PUBLIC "-//W3C//DTD SVG 1.1//EN"
 "http://www.w3.org/Graphics/SVG/1.1/DTD/svg11.dtd">
<!-- Generated by graphviz version 2.38.0 (20140413.2041)
 -->
<!-- Title: LoggingHandler.h Pages: 1 -->
<svg width="1027pt" height="140pt"
 viewBox="0.00 0.00 1027.00 140.00" xmlns="http://www.w3.org/2000/svg" xmlns:xlink="http://www.w3.org/1999/xlink">
<g id="graph0" class="graph" transform="scale(1 1) rotate(0) translate(4 136)">
<title>LoggingHandler.h</title>
<polygon fill="white" stroke="none" points="-4,4 -4,-136 1023,-136 1023,4 -4,4"/>
<!-- Node1 -->
<g id="node1" class="node"><title>Node1</title>
<polygon fill="#bfbfbf" stroke="black" points="455.5,-112.5 455.5,-131.5 547.5,-131.5 547.5,-112.5 455.5,-112.5"/>
<text text-anchor="middle" x="501.5" y="-119.5" font-family="Helvetica,sans-Serif" font-size="10.00">LoggingHandler.h</text>
</g>
<!-- Node2 -->
<g id="node2" class="node"><title>Node2</title>
<g id="a_node2"><a xlink:href="HandleHostBandwidth_8h.html" target="_top" xlink:title="HandleHostBandwidth.h">
<polygon fill="white" stroke="black" points="61.5,-56.5 61.5,-75.5 183.5,-75.5 183.5,-56.5 61.5,-56.5"/>
<text text-anchor="middle" x="122.5" y="-63.5" font-family="Helvetica,sans-Serif" font-size="10.00">HandleHostBandwidth.h</text>
</a>
</g>
</g>
<!-- Node1&#45;&gt;Node2 -->
<g id="edge1" class="edge"><title>Node1&#45;&gt;Node2</title>
<path fill="none" stroke="midnightblue" d="M445.38,-113.004C374.89,-102.961 254.454,-85.8008 182.283,-75.5179"/>
<polygon fill="midnightblue" stroke="midnightblue" points="445.012,-116.487 455.406,-114.433 446,-109.557 445.012,-116.487"/>
</g>
<!-- Node5 -->
<g id="node5" class="node"><title>Node5</title>
<g id="a_node5"><a xlink:href="LoggerFactory_8cpp.html" target="_top" xlink:title="LoggerFactory.cpp">
<polygon fill="white" stroke="black" points="201.5,-56.5 201.5,-75.5 299.5,-75.5 299.5,-56.5 201.5,-56.5"/>
<text text-anchor="middle" x="250.5" y="-63.5" font-family="Helvetica,sans-Serif" font-size="10.00">LoggerFactory.cpp</text>
</a>
</g>
</g>
<!-- Node1&#45;&gt;Node5 -->
<g id="edge4" class="edge"><title>Node1&#45;&gt;Node5</title>
<path fill="none" stroke="midnightblue" d="M451.679,-110.281C404.247,-100.077 333.796,-84.9203 290.086,-75.5164"/>
<polygon fill="midnightblue" stroke="midnightblue" points="451.216,-113.762 461.728,-112.444 452.688,-106.918 451.216,-113.762"/>
</g>
<!-- Node6 -->
<g id="node6" class="node"><title>Node6</title>
<g id="a_node6"><a xlink:href="LoggingHandler_8cpp.html" target="_top" xlink:title="LoggingHandler.cpp">
<polygon fill="white" stroke="black" points="318,-56.5 318,-75.5 421,-75.5 421,-56.5 318,-56.5"/>
<text text-anchor="middle" x="369.5" y="-63.5" font-family="Helvetica,sans-Serif" font-size="10.00">LoggingHandler.cpp</text>
</a>
</g>
</g>
<!-- Node1&#45;&gt;Node6 -->
<g id="edge5" class="edge"><title>Node1&#45;&gt;Node6</title>
<path fill="none" stroke="midnightblue" d="M471.281,-108.638C446.51,-98.504 412.1,-84.4274 390.318,-75.5164"/>
<polygon fill="midnightblue" stroke="midnightblue" points="470.003,-111.897 480.584,-112.444 472.654,-105.418 470.003,-111.897"/>
</g>
<!-- Node7 -->
<g id="node7" class="node"><title>Node7</title>
<g id="a_node7"><a xlink:href="BandwidthCalculator_8cpp.html" target="_top" xlink:title="BandwidthCalculator.cpp">
<polygon fill="white" stroke="black" points="439,-56.5 439,-75.5 564,-75.5 564,-56.5 439,-56.5"/>
<text text-anchor="middle" x="501.5" y="-63.5" font-family="Helvetica,sans-Serif" font-size="10.00">BandwidthCalculator.cpp</text>
</a>
</g>
</g>
<!-- Node1&#45;&gt;Node7 -->
<g id="edge6" class="edge"><title>Node1&#45;&gt;Node7</title>
<path fill="none" stroke="midnightblue" d="M501.5,-101.805C501.5,-92.9102 501.5,-82.7798 501.5,-75.7511"/>
<polygon fill="midnightblue" stroke="midnightblue" points="498,-102.083 501.5,-112.083 505,-102.083 498,-102.083"/>
</g>
<!-- Node8 -->
<g id="node8" class="node"><title>Node8</title>
<g id="a_node8"><a xlink:href="BandwidthCommunicator_8cpp.html" target="_top" xlink:title="BandwidthCommunicator.cpp">
<polygon fill="white" stroke="black" points="582,-56.5 582,-75.5 727,-75.5 727,-56.5 582,-56.5"/>
<text text-anchor="middle" x="654.5" y="-63.5" font-family="Helvetica,sans-Serif" font-size="10.00">BandwidthCommunicator.cpp</text>
</a>
</g>
</g>
<!-- Node1&#45;&gt;Node8 -->
<g id="edge7" class="edge"><title>Node1&#45;&gt;Node8</title>
<path fill="none" stroke="midnightblue" d="M535.389,-109.039C564.177,-98.8786 604.787,-84.5457 630.37,-75.5164"/>
<polygon fill="midnightblue" stroke="midnightblue" points="534.008,-105.815 525.743,-112.444 536.338,-112.416 534.008,-105.815"/>
</g>
<!-- Node9 -->
<g id="node9" class="node"><title>Node9</title>
<g id="a_node9"><a xlink:href="MainObject_8cpp.html" target="_top" xlink:title="MainObject.cpp">
<polygon fill="white" stroke="black" points="745,-56.5 745,-75.5 830,-75.5 830,-56.5 745,-56.5"/>
<text text-anchor="middle" x="787.5" y="-63.5" font-family="Helvetica,sans-Serif" font-size="10.00">MainObject.cpp</text>
</a>
</g>
</g>
<!-- Node1&#45;&gt;Node9 -->
<g id="edge8" class="edge"><title>Node1&#45;&gt;Node9</title>
<path fill="none" stroke="midnightblue" d="M556.726,-110.573C611.623,-100.208 694.663,-84.5287 744.73,-75.0755"/>
<polygon fill="midnightblue" stroke="midnightblue" points="555.995,-107.149 546.818,-112.444 557.293,-114.027 555.995,-107.149"/>
</g>
<!-- Node10 -->
<g id="node10" class="node"><title>Node10</title>
<g id="a_node10"><a xlink:href="WorkConservationFlowHandler_8cpp.html" target="_top" xlink:title="WorkConservationFlowHandler.cpp">
<polygon fill="white" stroke="black" points="848,-56.5 848,-75.5 1019,-75.5 1019,-56.5 848,-56.5"/>
<text text-anchor="middle" x="933.5" y="-63.5" font-family="Helvetica,sans-Serif" font-size="10.00">WorkConservationFlowHandler.cpp</text>
</a>
</g>
</g>
<!-- Node1&#45;&gt;Node10 -->
<g id="edge9" class="edge"><title>Node1&#45;&gt;Node10</title>
<path fill="none" stroke="midnightblue" d="M557.978,-113.94C637.021,-104.06 780.457,-86.1304 865.339,-75.5201"/>
<polygon fill="midnightblue" stroke="midnightblue" points="557.22,-110.508 547.732,-115.221 558.088,-117.454 557.22,-110.508"/>
</g>
<!-- Node3 -->
<g id="node3" class="node"><title>Node3</title>
<g id="a_node3"><a xlink:href="HandleHostBandwidth_8cpp.html" target="_top" xlink:title="HandleHostBandwidth.cpp">
<polygon fill="white" stroke="black" points="0,-0.5 0,-19.5 133,-19.5 133,-0.5 0,-0.5"/>
<text text-anchor="middle" x="66.5" y="-7.5" font-family="Helvetica,sans-Serif" font-size="10.00">HandleHostBandwidth.cpp</text>
</a>
</g>
</g>
<!-- Node2&#45;&gt;Node3 -->
<g id="edge2" class="edge"><title>Node2&#45;&gt;Node3</title>
<path fill="none" stroke="midnightblue" d="M106.17,-49.2533C96.235,-39.6731 83.9125,-27.7906 75.6611,-19.8339"/>
<polygon fill="midnightblue" stroke="midnightblue" points="103.875,-51.902 113.503,-56.324 108.734,-46.8631 103.875,-51.902"/>
</g>
<!-- Node4 -->
<g id="node4" class="node"><title>Node4</title>
<g id="a_node4"><a xlink:href="BGAdaptor_2main_8cpp.html" target="_top" xlink:title="main.cpp">
<polygon fill="white" stroke="black" points="151.5,-0.5 151.5,-19.5 207.5,-19.5 207.5,-0.5 151.5,-0.5"/>
<text text-anchor="middle" x="179.5" y="-7.5" font-family="Helvetica,sans-Serif" font-size="10.00">main.cpp</text>
</a>
</g>
</g>
<!-- Node2&#45;&gt;Node4 -->
<g id="edge3" class="edge"><title>Node2&#45;&gt;Node4</title>
<path fill="none" stroke="midnightblue" d="M139.121,-49.2533C149.234,-39.6731 161.777,-27.7906 170.175,-19.8339"/>
<polygon fill="midnightblue" stroke="midnightblue" points="136.51,-46.9056 131.658,-56.324 141.325,-51.9873 136.51,-46.9056"/>
</g>
</g>
</svg>
