<?xml version="1.0" encoding="UTF-8" standalone="no"?>
<!DOCTYPE svg PUBLIC "-//W3C//DTD SVG 1.1//EN"
 "http://www.w3.org/Graphics/SVG/1.1/DTD/svg11.dtd">
<!-- Generated by graphviz version 2.38.0 (20140413.2041)
 -->
<!-- Title: Macros.h Pages: 1 -->
<svg width="207pt" height="84pt"
 viewBox="0.00 0.00 206.50 84.00" xmlns="http://www.w3.org/2000/svg" xmlns:xlink="http://www.w3.org/1999/xlink">
<g id="graph0" class="graph" transform="scale(1 1) rotate(0) translate(4 80)">
<title>Macros.h</title>
<polygon fill="white" stroke="none" points="-4,4 -4,-80 202.5,-80 202.5,4 -4,4"/>
<!-- Node1 -->
<g id="node1" class="node"><title>Node1</title>
<polygon fill="#bfbfbf" stroke="black" points="88,-56.5 88,-75.5 145,-75.5 145,-56.5 88,-56.5"/>
<text text-anchor="middle" x="116.5" y="-63.5" font-family="Helvetica,sans-Serif" font-size="10.00">Macros.h</text>
</g>
<!-- Node2 -->
<g id="node2" class="node"><title>Node2</title>
<g id="a_node2"><a xlink:href="BandwidthCalculator_8cpp.html" target="_top" xlink:title="BandwidthCalculator.cpp">
<polygon fill="white" stroke="black" points="0,-0.5 0,-19.5 125,-19.5 125,-0.5 0,-0.5"/>
<text text-anchor="middle" x="62.5" y="-7.5" font-family="Helvetica,sans-Serif" font-size="10.00">BandwidthCalculator.cpp</text>
</a>
</g>
</g>
<!-- Node1&#45;&gt;Node2 -->
<g id="edge1" class="edge"><title>Node1&#45;&gt;Node2</title>
<path fill="none" stroke="midnightblue" d="M100.502,-49.0024C90.9329,-39.4329 79.1389,-27.6389 71.2511,-19.7511"/>
<polygon fill="midnightblue" stroke="midnightblue" points="98.037,-51.4868 107.583,-56.083 102.987,-46.537 98.037,-51.4868"/>
</g>
<!-- Node3 -->
<g id="node3" class="node"><title>Node3</title>
<g id="a_node3"><a xlink:href="WCEnabler_2main_8cpp.html" target="_top" xlink:title="main.cpp">
<polygon fill="white" stroke="black" points="142.5,-0.5 142.5,-19.5 198.5,-19.5 198.5,-0.5 142.5,-0.5"/>
<text text-anchor="middle" x="170.5" y="-7.5" font-family="Helvetica,sans-Serif" font-size="10.00">main.cpp</text>
</a>
</g>
</g>
<!-- Node1&#45;&gt;Node3 -->
<g id="edge2" class="edge"><title>Node1&#45;&gt;Node3</title>
<path fill="none" stroke="midnightblue" d="M132.498,-49.0024C142.067,-39.4329 153.861,-27.6389 161.749,-19.7511"/>
<polygon fill="midnightblue" stroke="midnightblue" points="130.013,-46.537 125.417,-56.083 134.963,-51.4868 130.013,-46.537"/>
</g>
</g>
</svg>
