<?xml version="1.0" encoding="UTF-8" standalone="no"?>
<!DOCTYPE svg PUBLIC "-//W3C//DTD SVG 1.1//EN"
 "http://www.w3.org/Graphics/SVG/1.1/DTD/svg11.dtd">
<!-- Generated by graphviz version 2.38.0 (20140413.2041)
 -->
<!-- Title: MainObject.cpp Pages: 1 -->
<svg width="1177pt" height="252pt"
 viewBox="0.00 0.00 1176.50 252.00" xmlns="http://www.w3.org/2000/svg" xmlns:xlink="http://www.w3.org/1999/xlink">
<g id="graph0" class="graph" transform="scale(1 1) rotate(0) translate(4 248)">
<title>MainObject.cpp</title>
<polygon fill="white" stroke="none" points="-4,4 -4,-248 1172.5,-248 1172.5,4 -4,4"/>
<!-- Node1 -->
<g id="node1" class="node"><title>Node1</title>
<polygon fill="#bfbfbf" stroke="black" points="745.5,-224.5 745.5,-243.5 830.5,-243.5 830.5,-224.5 745.5,-224.5"/>
<text text-anchor="middle" x="788" y="-231.5" font-family="Helvetica,sans-Serif" font-size="10.00">MainObject.cpp</text>
</g>
<!-- Node2 -->
<g id="node2" class="node"><title>Node2</title>
<g id="a_node2"><a xlink:href="MainObject_8h.html" target="_top" xlink:title="MainObject.h">
<polygon fill="white" stroke="black" points="558,-168.5 558,-187.5 632,-187.5 632,-168.5 558,-168.5"/>
<text text-anchor="middle" x="595" y="-175.5" font-family="Helvetica,sans-Serif" font-size="10.00">MainObject.h</text>
</a>
</g>
</g>
<!-- Node1&#45;&gt;Node2 -->
<g id="edge1" class="edge"><title>Node1&#45;&gt;Node2</title>
<path fill="none" stroke="midnightblue" d="M757.419,-224.444C724.385,-215.201 671.612,-200.436 635.234,-190.257"/>
<polygon fill="midnightblue" stroke="midnightblue" points="636.012,-186.84 625.438,-187.516 634.125,-193.582 636.012,-186.84"/>
</g>
<!-- Node4 -->
<g id="node4" class="node"><title>Node4</title>
<polygon fill="white" stroke="#bfbfbf" points="760,-168.5 760,-187.5 816,-187.5 816,-168.5 760,-168.5"/>
<text text-anchor="middle" x="788" y="-175.5" font-family="Helvetica,sans-Serif" font-size="10.00">algorithm</text>
</g>
<!-- Node1&#45;&gt;Node4 -->
<g id="edge3" class="edge"><title>Node1&#45;&gt;Node4</title>
<path fill="none" stroke="midnightblue" d="M788,-224.083C788,-217.006 788,-206.861 788,-197.986"/>
<polygon fill="midnightblue" stroke="midnightblue" points="791.5,-197.751 788,-187.751 784.5,-197.751 791.5,-197.751"/>
</g>
<!-- Node5 -->
<g id="node5" class="node"><title>Node5</title>
<polygon fill="white" stroke="#bfbfbf" points="834,-168.5 834,-187.5 888,-187.5 888,-168.5 834,-168.5"/>
<text text-anchor="middle" x="861" y="-175.5" font-family="Helvetica,sans-Serif" font-size="10.00">ifaddrs.h</text>
</g>
<!-- Node1&#45;&gt;Node5 -->
<g id="edge4" class="edge"><title>Node1&#45;&gt;Node5</title>
<path fill="none" stroke="midnightblue" d="M799.729,-224.324C810.837,-216.107 827.742,-203.602 840.983,-193.807"/>
<polygon fill="midnightblue" stroke="midnightblue" points="843.1,-196.595 849.058,-187.834 838.937,-190.967 843.1,-196.595"/>
</g>
<!-- Node6 -->
<g id="node6" class="node"><title>Node6</title>
<polygon fill="white" stroke="#bfbfbf" points="906.5,-168.5 906.5,-187.5 955.5,-187.5 955.5,-168.5 906.5,-168.5"/>
<text text-anchor="middle" x="931" y="-175.5" font-family="Helvetica,sans-Serif" font-size="10.00">netdb.h</text>
</g>
<!-- Node1&#45;&gt;Node6 -->
<g id="edge5" class="edge"><title>Node1&#45;&gt;Node6</title>
<path fill="none" stroke="midnightblue" d="M810.659,-224.444C834.402,-215.478 871.909,-201.314 898.738,-191.183"/>
<polygon fill="midnightblue" stroke="midnightblue" points="900.329,-194.324 908.447,-187.516 897.856,-187.775 900.329,-194.324"/>
</g>
<!-- Node7 -->
<g id="node7" class="node"><title>Node7</title>
<polygon fill="white" stroke="#bfbfbf" points="974,-168.5 974,-187.5 1026,-187.5 1026,-168.5 974,-168.5"/>
<text text-anchor="middle" x="1000" y="-175.5" font-family="Helvetica,sans-Serif" font-size="10.00">sstream</text>
</g>
<!-- Node1&#45;&gt;Node7 -->
<g id="edge6" class="edge"><title>Node1&#45;&gt;Node7</title>
<path fill="none" stroke="midnightblue" d="M821.61,-224.484C855.202,-215.966 908.599,-202.41 963.691,-188.33"/>
<polygon fill="midnightblue" stroke="midnightblue" points="964.807,-191.657 973.629,-185.789 963.073,-184.875 964.807,-191.657"/>
</g>
<!-- Node8 -->
<g id="node8" class="node"><title>Node8</title>
<polygon fill="white" stroke="#bfbfbf" points="1044.5,-168.5 1044.5,-187.5 1093.5,-187.5 1093.5,-168.5 1044.5,-168.5"/>
<text text-anchor="middle" x="1069" y="-175.5" font-family="Helvetica,sans-Serif" font-size="10.00">string.h</text>
</g>
<!-- Node1&#45;&gt;Node8 -->
<g id="edge7" class="edge"><title>Node1&#45;&gt;Node8</title>
<path fill="none" stroke="midnightblue" d="M830.599,-226.284C877.964,-218.585 956.93,-205.064 1034.26,-188.019"/>
<polygon fill="midnightblue" stroke="midnightblue" points="1035.17,-191.402 1044.17,-185.813 1033.65,-184.569 1035.17,-191.402"/>
</g>
<!-- Node9 -->
<g id="node9" class="node"><title>Node9</title>
<g id="a_node9"><a xlink:href="BandwidthCalculator_8h.html" target="_top" xlink:title="BandwidthCalculator.h">
<polygon fill="white" stroke="black" points="245.5,-168.5 245.5,-187.5 360.5,-187.5 360.5,-168.5 245.5,-168.5"/>
<text text-anchor="middle" x="303" y="-175.5" font-family="Helvetica,sans-Serif" font-size="10.00">BandwidthCalculator.h</text>
</a>
</g>
</g>
<!-- Node1&#45;&gt;Node9 -->
<g id="edge8" class="edge"><title>Node1&#45;&gt;Node9</title>
<path fill="none" stroke="midnightblue" d="M745.429,-228.833C671.434,-221.502 514.044,-205.52 370.863,-188.2"/>
<polygon fill="midnightblue" stroke="midnightblue" points="370.93,-184.682 360.58,-186.95 370.085,-191.631 370.93,-184.682"/>
</g>
<!-- Node17 -->
<g id="node17" class="node"><title>Node17</title>
<g id="a_node17"><a xlink:href="BandwidthCommunicator_8h.html" target="_top" xlink:title="BandwidthCommunicator.h">
<polygon fill="white" stroke="black" points="93,-168.5 93,-187.5 227,-187.5 227,-168.5 93,-168.5"/>
<text text-anchor="middle" x="160" y="-175.5" font-family="Helvetica,sans-Serif" font-size="10.00">BandwidthCommunicator.h</text>
</a>
</g>
</g>
<!-- Node1&#45;&gt;Node17 -->
<g id="edge18" class="edge"><title>Node1&#45;&gt;Node17</title>
<path fill="none" stroke="midnightblue" d="M745.359,-230.057C654.205,-223.651 433.393,-207.52 237.326,-188.099"/>
<polygon fill="midnightblue" stroke="midnightblue" points="237.42,-184.591 227.122,-187.083 236.726,-191.557 237.42,-184.591"/>
</g>
<!-- Node20 -->
<g id="node20" class="node"><title>Node20</title>
<g id="a_node20"><a xlink:href="LoggingHandler_8h.html" target="_top" xlink:title="LoggingHandler.h">
<polygon fill="white" stroke="black" points="650,-168.5 650,-187.5 742,-187.5 742,-168.5 650,-168.5"/>
<text text-anchor="middle" x="696" y="-175.5" font-family="Helvetica,sans-Serif" font-size="10.00">LoggingHandler.h</text>
</a>
</g>
</g>
<!-- Node1&#45;&gt;Node20 -->
<g id="edge23" class="edge"><title>Node1&#45;&gt;Node20</title>
<path fill="none" stroke="midnightblue" d="M773.219,-224.324C758.733,-215.822 736.427,-202.729 719.507,-192.797"/>
<polygon fill="midnightblue" stroke="midnightblue" points="721.141,-189.698 710.745,-187.655 717.597,-195.735 721.141,-189.698"/>
</g>
<!-- Node22 -->
<g id="node22" class="node"><title>Node22</title>
<g id="a_node22"><a xlink:href="Macros_8h.html" target="_top" xlink:title="Macros.h">
<polygon fill="white" stroke="black" points="1111.5,-168.5 1111.5,-187.5 1168.5,-187.5 1168.5,-168.5 1111.5,-168.5"/>
<text text-anchor="middle" x="1140" y="-175.5" font-family="Helvetica,sans-Serif" font-size="10.00">Macros.h</text>
</a>
</g>
</g>
<!-- Node1&#45;&gt;Node22 -->
<g id="edge26" class="edge"><title>Node1&#45;&gt;Node22</title>
<path fill="none" stroke="midnightblue" d="M830.506,-228.252C889.329,-221.39 999.04,-207.548 1101.49,-188.147"/>
<polygon fill="midnightblue" stroke="midnightblue" points="1102.21,-191.571 1111.38,-186.252 1100.9,-184.696 1102.21,-191.571"/>
</g>
<!-- Node23 -->
<g id="node23" class="node"><title>Node23</title>
<g id="a_node23"><a xlink:href="WorkConservationFlowHandler_8h.html" target="_top" xlink:title="WorkConservationFlowHandler.h">
<polygon fill="white" stroke="black" points="378.5,-168.5 378.5,-187.5 539.5,-187.5 539.5,-168.5 378.5,-168.5"/>
<text text-anchor="middle" x="459" y="-175.5" font-family="Helvetica,sans-Serif" font-size="10.00">WorkConservationFlowHandler.h</text>
</a>
</g>
</g>
<!-- Node1&#45;&gt;Node23 -->
<g id="edge27" class="edge"><title>Node1&#45;&gt;Node23</title>
<path fill="none" stroke="midnightblue" d="M745.326,-225.996C688.224,-216.623 586.563,-199.937 521.006,-189.177"/>
<polygon fill="midnightblue" stroke="midnightblue" points="521.241,-185.669 510.806,-187.503 520.107,-192.577 521.241,-185.669"/>
</g>
<!-- Node3 -->
<g id="node3" class="node"><title>Node3</title>
<polygon fill="white" stroke="#bfbfbf" points="443.5,-112.5 443.5,-131.5 484.5,-131.5 484.5,-112.5 443.5,-112.5"/>
<text text-anchor="middle" x="464" y="-119.5" font-family="Helvetica,sans-Serif" font-size="10.00">string</text>
</g>
<!-- Node2&#45;&gt;Node3 -->
<g id="edge2" class="edge"><title>Node2&#45;&gt;Node3</title>
<path fill="none" stroke="midnightblue" d="M574.243,-168.444C552.684,-159.557 518.737,-145.563 494.206,-135.451"/>
<polygon fill="midnightblue" stroke="midnightblue" points="495.239,-132.092 484.66,-131.516 492.572,-138.563 495.239,-132.092"/>
</g>
<!-- Node9&#45;&gt;Node3 -->
<g id="edge11" class="edge"><title>Node9&#45;&gt;Node3</title>
<path fill="none" stroke="midnightblue" d="M328.511,-168.444C357.03,-158.878 403.187,-143.397 433.567,-133.207"/>
<polygon fill="midnightblue" stroke="midnightblue" points="434.848,-136.469 443.216,-129.971 432.622,-129.833 434.848,-136.469"/>
</g>
<!-- Node10 -->
<g id="node10" class="node"><title>Node10</title>
<polygon fill="white" stroke="#bfbfbf" points="163.5,-112.5 163.5,-131.5 220.5,-131.5 220.5,-112.5 163.5,-112.5"/>
<text text-anchor="middle" x="192" y="-119.5" font-family="Helvetica,sans-Serif" font-size="10.00">pthread.h</text>
</g>
<!-- Node9&#45;&gt;Node10 -->
<g id="edge9" class="edge"><title>Node9&#45;&gt;Node10</title>
<path fill="none" stroke="midnightblue" d="M285.166,-168.324C267.284,-159.625 239.525,-146.12 218.954,-136.113"/>
<polygon fill="midnightblue" stroke="midnightblue" points="220.313,-132.882 209.79,-131.655 217.251,-139.177 220.313,-132.882"/>
</g>
<!-- Node11 -->
<g id="node11" class="node"><title>Node11</title>
<polygon fill="white" stroke="#bfbfbf" points="376.5,-112.5 376.5,-131.5 425.5,-131.5 425.5,-112.5 376.5,-112.5"/>
<text text-anchor="middle" x="401" y="-119.5" font-family="Helvetica,sans-Serif" font-size="10.00">stdint.h</text>
</g>
<!-- Node9&#45;&gt;Node11 -->
<g id="edge10" class="edge"><title>Node9&#45;&gt;Node11</title>
<path fill="none" stroke="midnightblue" d="M318.745,-168.324C334.319,-159.743 358.377,-146.486 376.459,-136.522"/>
<polygon fill="midnightblue" stroke="midnightblue" points="378.224,-139.546 385.294,-131.655 374.846,-133.415 378.224,-139.546"/>
</g>
<!-- Node12 -->
<g id="node12" class="node"><title>Node12</title>
<g id="a_node12"><a xlink:href="SimpleRateCalculator_8h.html" target="_top" xlink:title="SimpleRateCalculator.h">
<polygon fill="white" stroke="black" points="239,-112.5 239,-131.5 359,-131.5 359,-112.5 239,-112.5"/>
<text text-anchor="middle" x="299" y="-119.5" font-family="Helvetica,sans-Serif" font-size="10.00">SimpleRateCalculator.h</text>
</a>
</g>
</g>
<!-- Node9&#45;&gt;Node12 -->
<g id="edge12" class="edge"><title>Node9&#45;&gt;Node12</title>
<path fill="none" stroke="midnightblue" d="M302.339,-168.083C301.815,-161.006 301.064,-150.861 300.406,-141.986"/>
<polygon fill="midnightblue" stroke="midnightblue" points="303.877,-141.465 299.648,-131.751 296.897,-141.982 303.877,-141.465"/>
</g>
<!-- Node13 -->
<g id="node13" class="node"><title>Node13</title>
<polygon fill="white" stroke="#bfbfbf" points="397.5,-56.5 397.5,-75.5 438.5,-75.5 438.5,-56.5 397.5,-56.5"/>
<text text-anchor="middle" x="418" y="-63.5" font-family="Helvetica,sans-Serif" font-size="10.00">ctime</text>
</g>
<!-- Node12&#45;&gt;Node13 -->
<g id="edge13" class="edge"><title>Node12&#45;&gt;Node13</title>
<path fill="none" stroke="midnightblue" d="M317.856,-112.444C337.266,-103.636 367.73,-89.8116 389.965,-79.722"/>
<polygon fill="midnightblue" stroke="midnightblue" points="391.572,-82.836 399.232,-75.5164 388.68,-76.4615 391.572,-82.836"/>
</g>
<!-- Node14 -->
<g id="node14" class="node"><title>Node14</title>
<g id="a_node14"><a xlink:href="CurrentAndLastValues_8h.html" target="_top" xlink:title="CurrentAndLastValues.h">
<polygon fill="white" stroke="black" points="421.5,-0.5 421.5,-19.5 544.5,-19.5 544.5,-0.5 421.5,-0.5"/>
<text text-anchor="middle" x="483" y="-7.5" font-family="Helvetica,sans-Serif" font-size="10.00">CurrentAndLastValues.h</text>
</a>
</g>
</g>
<!-- Node12&#45;&gt;Node14 -->
<g id="edge14" class="edge"><title>Node12&#45;&gt;Node14</title>
<path fill="none" stroke="midnightblue" d="M309.508,-112.309C325.714,-99.1447 358.071,-73.8017 388,-56 408.837,-43.6065 433.63,-31.9579 452.662,-23.6185"/>
<polygon fill="midnightblue" stroke="midnightblue" points="454.243,-26.7482 462.038,-19.5727 451.47,-20.321 454.243,-26.7482"/>
</g>
<!-- Node15 -->
<g id="node15" class="node"><title>Node15</title>
<g id="a_node15"><a xlink:href="SimpleRateCalculation_8h.html" target="_top" xlink:title="SimpleRateCalculation.h">
<polygon fill="white" stroke="black" points="215.5,-56.5 215.5,-75.5 340.5,-75.5 340.5,-56.5 215.5,-56.5"/>
<text text-anchor="middle" x="278" y="-63.5" font-family="Helvetica,sans-Serif" font-size="10.00">SimpleRateCalculation.h</text>
</a>
</g>
</g>
<!-- Node12&#45;&gt;Node15 -->
<g id="edge15" class="edge"><title>Node12&#45;&gt;Node15</title>
<path fill="none" stroke="midnightblue" d="M295.532,-112.083C292.688,-104.77 288.571,-94.1814 285.04,-85.1034"/>
<polygon fill="midnightblue" stroke="midnightblue" points="288.29,-83.8025 281.403,-75.7511 281.766,-86.3397 288.29,-83.8025"/>
</g>
<!-- Node15&#45;&gt;Node14 -->
<g id="edge16" class="edge"><title>Node15&#45;&gt;Node14</title>
<path fill="none" stroke="midnightblue" d="M310.483,-56.4435C345.72,-47.1616 402.104,-32.3093 440.759,-22.127"/>
<polygon fill="midnightblue" stroke="midnightblue" points="441.891,-25.4483 450.669,-19.5164 440.107,-18.6792 441.891,-25.4483"/>
</g>
<!-- Node16 -->
<g id="node16" class="node"><title>Node16</title>
<polygon fill="white" stroke="#bfbfbf" points="325,-0.5 325,-19.5 369,-19.5 369,-0.5 325,-0.5"/>
<text text-anchor="middle" x="347" y="-7.5" font-family="Helvetica,sans-Serif" font-size="10.00">time.h</text>
</g>
<!-- Node15&#45;&gt;Node16 -->
<g id="edge17" class="edge"><title>Node15&#45;&gt;Node16</title>
<path fill="none" stroke="midnightblue" d="M289.086,-56.324C299.486,-48.1849 315.261,-35.8395 327.722,-26.0874"/>
<polygon fill="midnightblue" stroke="midnightblue" points="329.994,-28.7533 335.712,-19.8339 325.68,-23.2407 329.994,-28.7533"/>
</g>
<!-- Node17&#45;&gt;Node3 -->
<g id="edge22" class="edge"><title>Node17&#45;&gt;Node3</title>
<path fill="none" stroke="midnightblue" d="M226.91,-168.464C280.391,-161.08 357.387,-149.198 433.656,-131.81"/>
<polygon fill="midnightblue" stroke="midnightblue" points="434.482,-135.212 443.437,-129.549 432.905,-128.392 434.482,-135.212"/>
</g>
<!-- Node17&#45;&gt;Node10 -->
<g id="edge21" class="edge"><title>Node17&#45;&gt;Node10</title>
<path fill="none" stroke="midnightblue" d="M165.284,-168.083C169.711,-160.613 176.163,-149.724 181.618,-140.52"/>
<polygon fill="midnightblue" stroke="midnightblue" points="184.727,-142.138 186.814,-131.751 178.705,-138.57 184.727,-142.138"/>
</g>
<!-- Node18 -->
<g id="node18" class="node"><title>Node18</title>
<polygon fill="white" stroke="#bfbfbf" points="0,-112.5 0,-131.5 62,-131.5 62,-112.5 0,-112.5"/>
<text text-anchor="middle" x="31" y="-119.5" font-family="Helvetica,sans-Serif" font-size="10.00">arpa/inet.h</text>
</g>
<!-- Node17&#45;&gt;Node18 -->
<g id="edge19" class="edge"><title>Node17&#45;&gt;Node18</title>
<path fill="none" stroke="midnightblue" d="M139.56,-168.444C118.33,-159.557 84.901,-145.563 60.745,-135.451"/>
<polygon fill="midnightblue" stroke="midnightblue" points="61.9207,-132.149 51.3448,-131.516 59.2177,-138.606 61.9207,-132.149"/>
</g>
<!-- Node19 -->
<g id="node19" class="node"><title>Node19</title>
<polygon fill="white" stroke="#bfbfbf" points="80.5,-112.5 80.5,-131.5 145.5,-131.5 145.5,-112.5 80.5,-112.5"/>
<text text-anchor="middle" x="113" y="-119.5" font-family="Helvetica,sans-Serif" font-size="10.00">netinet/ip.h</text>
</g>
<!-- Node17&#45;&gt;Node19 -->
<g id="edge20" class="edge"><title>Node17&#45;&gt;Node19</title>
<path fill="none" stroke="midnightblue" d="M152.239,-168.083C145.463,-160.298 135.457,-148.801 127.245,-139.367"/>
<polygon fill="midnightblue" stroke="midnightblue" points="129.822,-136.996 120.617,-131.751 124.542,-141.592 129.822,-136.996"/>
</g>
<!-- Node20&#45;&gt;Node3 -->
<g id="edge24" class="edge"><title>Node20&#45;&gt;Node3</title>
<path fill="none" stroke="midnightblue" d="M652.585,-168.461C613.487,-160.529 554.259,-147.917 494.514,-132.248"/>
<polygon fill="midnightblue" stroke="midnightblue" points="495.097,-128.782 484.534,-129.603 493.304,-135.548 495.097,-128.782"/>
</g>
<!-- Node21 -->
<g id="node21" class="node"><title>Node21</title>
<polygon fill="white" stroke="#bfbfbf" points="687,-112.5 687,-131.5 737,-131.5 737,-112.5 687,-112.5"/>
<text text-anchor="middle" x="712" y="-119.5" font-family="Helvetica,sans-Serif" font-size="10.00">fstream</text>
</g>
<!-- Node20&#45;&gt;Node21 -->
<g id="edge25" class="edge"><title>Node20&#45;&gt;Node21</title>
<path fill="none" stroke="midnightblue" d="M698.642,-168.083C700.786,-160.849 703.879,-150.409 706.549,-141.397"/>
<polygon fill="midnightblue" stroke="midnightblue" points="709.922,-142.333 709.407,-131.751 703.21,-140.345 709.922,-142.333"/>
</g>
<!-- Node23&#45;&gt;Node3 -->
<g id="edge29" class="edge"><title>Node23&#45;&gt;Node3</title>
<path fill="none" stroke="midnightblue" d="M459.826,-168.083C460.481,-161.006 461.42,-150.861 462.242,-141.986"/>
<polygon fill="midnightblue" stroke="midnightblue" points="465.753,-142.031 463.19,-131.751 458.783,-141.386 465.753,-142.031"/>
</g>
<!-- Node23&#45;&gt;Node11 -->
<g id="edge28" class="edge"><title>Node23&#45;&gt;Node11</title>
<path fill="none" stroke="midnightblue" d="M449.681,-168.324C441.107,-160.341 428.188,-148.313 417.812,-138.653"/>
<polygon fill="midnightblue" stroke="midnightblue" points="420.192,-136.086 410.488,-131.834 415.422,-141.21 420.192,-136.086"/>
</g>
<!-- Node24 -->
<g id="node24" class="node"><title>Node24</title>
<g id="a_node24"><a xlink:href="ExponentialSmoothingCalculator_8h.html" target="_top" xlink:title="ExponentialSmoothingCalculator.h">
<polygon fill="white" stroke="black" points="502.5,-112.5 502.5,-131.5 669.5,-131.5 669.5,-112.5 502.5,-112.5"/>
<text text-anchor="middle" x="586" y="-119.5" font-family="Helvetica,sans-Serif" font-size="10.00">ExponentialSmoothingCalculator.h</text>
</a>
</g>
</g>
<!-- Node23&#45;&gt;Node24 -->
<g id="edge30" class="edge"><title>Node23&#45;&gt;Node24</title>
<path fill="none" stroke="midnightblue" d="M479.124,-168.444C500.024,-159.557 532.935,-145.563 556.716,-135.451"/>
<polygon fill="midnightblue" stroke="midnightblue" points="558.138,-138.65 565.971,-131.516 555.398,-132.208 558.138,-138.65"/>
</g>
<!-- Node24&#45;&gt;Node13 -->
<g id="edge31" class="edge"><title>Node24&#45;&gt;Node13</title>
<path fill="none" stroke="midnightblue" d="M559.38,-112.444C529.158,-102.729 479.953,-86.9134 448.288,-76.7354"/>
<polygon fill="midnightblue" stroke="midnightblue" points="449.261,-73.3719 438.67,-73.6439 447.119,-80.0361 449.261,-73.3719"/>
</g>
<!-- Node24&#45;&gt;Node14 -->
<g id="edge32" class="edge"><title>Node24&#45;&gt;Node14</title>
<path fill="none" stroke="midnightblue" d="M589.24,-112.146C593.529,-98.7704 599.311,-73.1542 588,-56 577.36,-39.8645 559.605,-29.4927 541.694,-22.8346"/>
<polygon fill="midnightblue" stroke="midnightblue" points="542.365,-19.3681 531.771,-19.5047 540.138,-26.0044 542.365,-19.3681"/>
</g>
<!-- Node25 -->
<g id="node25" class="node"><title>Node25</title>
<g id="a_node25"><a xlink:href="ExponentialSmoothing_8h.html" target="_top" xlink:title="ExponentialSmoothing.h">
<polygon fill="white" stroke="black" points="457,-56.5 457,-75.5 579,-75.5 579,-56.5 457,-56.5"/>
<text text-anchor="middle" x="518" y="-63.5" font-family="Helvetica,sans-Serif" font-size="10.00">ExponentialSmoothing.h</text>
</a>
</g>
</g>
<!-- Node24&#45;&gt;Node25 -->
<g id="edge33" class="edge"><title>Node24&#45;&gt;Node25</title>
<path fill="none" stroke="midnightblue" d="M575.075,-112.324C564.825,-104.185 549.279,-91.8395 536.999,-82.0874"/>
<polygon fill="midnightblue" stroke="midnightblue" points="539.132,-79.3119 529.124,-75.8339 534.779,-84.7937 539.132,-79.3119"/>
</g>
<!-- Node25&#45;&gt;Node14 -->
<g id="edge35" class="edge"><title>Node25&#45;&gt;Node14</title>
<path fill="none" stroke="midnightblue" d="M512.22,-56.083C507.328,-48.5341 500.173,-37.4948 494.167,-28.2298"/>
<polygon fill="midnightblue" stroke="midnightblue" points="497.048,-26.239 488.672,-19.7511 491.174,-30.0463 497.048,-26.239"/>
</g>
<!-- Node25&#45;&gt;Node16 -->
<g id="edge34" class="edge"><title>Node25&#45;&gt;Node16</title>
<path fill="none" stroke="midnightblue" d="M490.905,-56.4435C460.482,-46.8366 411.164,-31.2622 378.904,-21.0749"/>
<polygon fill="midnightblue" stroke="midnightblue" points="379.665,-17.6448 369.075,-17.971 377.557,-24.3199 379.665,-17.6448"/>
</g>
</g>
</svg>
