<?xml version="1.0" encoding="UTF-8" standalone="no"?>
<!DOCTYPE svg PUBLIC "-//W3C//DTD SVG 1.1//EN"
 "http://www.w3.org/Graphics/SVG/1.1/DTD/svg11.dtd">
<!-- Generated by graphviz version 2.38.0 (20140413.2041)
 -->
<!-- Title: MainObject.cpp Pages: 1 -->
<svg width="1204pt" height="252pt"
 viewBox="0.00 0.00 1203.50 252.00" xmlns="http://www.w3.org/2000/svg" xmlns:xlink="http://www.w3.org/1999/xlink">
<g id="graph0" class="graph" transform="scale(1 1) rotate(0) translate(4 248)">
<title>MainObject.cpp</title>
<polygon fill="white" stroke="none" points="-4,4 -4,-248 1199.5,-248 1199.5,4 -4,4"/>
<!-- Node1 -->
<g id="node1" class="node"><title>Node1</title>
<polygon fill="#bfbfbf" stroke="black" points="447,-224.5 447,-243.5 532,-243.5 532,-224.5 447,-224.5"/>
<text text-anchor="middle" x="489.5" y="-231.5" font-family="Helvetica,sans-Serif" font-size="10.00">MainObject.cpp</text>
</g>
<!-- Node2 -->
<g id="node2" class="node"><title>Node2</title>
<g id="a_node2"><a xlink:href="MainObject_8h.html" target="_top" xlink:title="MainObject.h">
<polygon fill="white" stroke="black" points="783.5,-168.5 783.5,-187.5 857.5,-187.5 857.5,-168.5 783.5,-168.5"/>
<text text-anchor="middle" x="820.5" y="-175.5" font-family="Helvetica,sans-Serif" font-size="10.00">MainObject.h</text>
</a>
</g>
</g>
<!-- Node1&#45;&gt;Node2 -->
<g id="edge1" class="edge"><title>Node1&#45;&gt;Node2</title>
<path fill="none" stroke="midnightblue" d="M532.392,-226.642C586.105,-218.582 681.198,-203.996 773.27,-187.989"/>
<polygon fill="midnightblue" stroke="midnightblue" points="774.071,-191.402 783.32,-186.234 772.867,-184.506 774.071,-191.402"/>
</g>
<!-- Node5 -->
<g id="node5" class="node"><title>Node5</title>
<polygon fill="white" stroke="#bfbfbf" points="119.5,-168.5 119.5,-187.5 175.5,-187.5 175.5,-168.5 119.5,-168.5"/>
<text text-anchor="middle" x="147.5" y="-175.5" font-family="Helvetica,sans-Serif" font-size="10.00">algorithm</text>
</g>
<!-- Node1&#45;&gt;Node5 -->
<g id="edge4" class="edge"><title>Node1&#45;&gt;Node5</title>
<path fill="none" stroke="midnightblue" d="M446.856,-227.968C389.601,-220.935 284.538,-207.061 185.586,-188.063"/>
<polygon fill="midnightblue" stroke="midnightblue" points="186.207,-184.619 175.723,-186.149 184.872,-191.49 186.207,-184.619"/>
</g>
<!-- Node6 -->
<g id="node6" class="node"><title>Node6</title>
<polygon fill="white" stroke="#bfbfbf" points="193.5,-168.5 193.5,-187.5 247.5,-187.5 247.5,-168.5 193.5,-168.5"/>
<text text-anchor="middle" x="220.5" y="-175.5" font-family="Helvetica,sans-Serif" font-size="10.00">ifaddrs.h</text>
</g>
<!-- Node1&#45;&gt;Node6 -->
<g id="edge5" class="edge"><title>Node1&#45;&gt;Node6</title>
<path fill="none" stroke="midnightblue" d="M446.84,-225.478C402.112,-217.432 329.557,-203.932 257.719,-188.177"/>
<polygon fill="midnightblue" stroke="midnightblue" points="258.109,-184.679 247.59,-185.939 256.599,-191.514 258.109,-184.679"/>
</g>
<!-- Node7 -->
<g id="node7" class="node"><title>Node7</title>
<polygon fill="white" stroke="#bfbfbf" points="266,-168.5 266,-187.5 315,-187.5 315,-168.5 266,-168.5"/>
<text text-anchor="middle" x="290.5" y="-175.5" font-family="Helvetica,sans-Serif" font-size="10.00">netdb.h</text>
</g>
<!-- Node1&#45;&gt;Node7 -->
<g id="edge6" class="edge"><title>Node1&#45;&gt;Node7</title>
<path fill="none" stroke="midnightblue" d="M457.968,-224.444C421.804,-214.63 362.695,-198.591 325.237,-188.426"/>
<polygon fill="midnightblue" stroke="midnightblue" points="325.851,-184.966 315.283,-185.725 324.017,-191.722 325.851,-184.966"/>
</g>
<!-- Node8 -->
<g id="node8" class="node"><title>Node8</title>
<polygon fill="white" stroke="#bfbfbf" points="333.5,-168.5 333.5,-187.5 385.5,-187.5 385.5,-168.5 333.5,-168.5"/>
<text text-anchor="middle" x="359.5" y="-175.5" font-family="Helvetica,sans-Serif" font-size="10.00">sstream</text>
</g>
<!-- Node1&#45;&gt;Node8 -->
<g id="edge7" class="edge"><title>Node1&#45;&gt;Node8</title>
<path fill="none" stroke="midnightblue" d="M468.901,-224.444C447.507,-215.557 413.819,-201.563 389.476,-191.451"/>
<polygon fill="midnightblue" stroke="midnightblue" points="390.58,-188.12 380.003,-187.516 387.895,-194.585 390.58,-188.12"/>
</g>
<!-- Node9 -->
<g id="node9" class="node"><title>Node9</title>
<polygon fill="white" stroke="#bfbfbf" points="404,-168.5 404,-187.5 453,-187.5 453,-168.5 404,-168.5"/>
<text text-anchor="middle" x="428.5" y="-175.5" font-family="Helvetica,sans-Serif" font-size="10.00">string.h</text>
</g>
<!-- Node1&#45;&gt;Node9 -->
<g id="edge8" class="edge"><title>Node1&#45;&gt;Node9</title>
<path fill="none" stroke="midnightblue" d="M479.699,-224.324C470.682,-216.341 457.094,-204.313 446.182,-194.653"/>
<polygon fill="midnightblue" stroke="midnightblue" points="448.287,-191.842 438.479,-187.834 443.647,-197.083 448.287,-191.842"/>
</g>
<!-- Node10 -->
<g id="node10" class="node"><title>Node10</title>
<g id="a_node10"><a xlink:href="BandwidthCalculator_8h.html" target="_top" xlink:title="BandwidthCalculator.h">
<polygon fill="white" stroke="black" points="650,-168.5 650,-187.5 765,-187.5 765,-168.5 650,-168.5"/>
<text text-anchor="middle" x="707.5" y="-175.5" font-family="Helvetica,sans-Serif" font-size="10.00">BandwidthCalculator.h</text>
</a>
</g>
</g>
<!-- Node1&#45;&gt;Node10 -->
<g id="edge9" class="edge"><title>Node1&#45;&gt;Node10</title>
<path fill="none" stroke="midnightblue" d="M524.043,-224.444C561.753,-215.102 622.24,-200.119 663.365,-189.933"/>
<polygon fill="midnightblue" stroke="midnightblue" points="664.254,-193.318 673.119,-187.516 662.571,-186.524 664.254,-193.318"/>
</g>
<!-- Node18 -->
<g id="node18" class="node"><title>Node18</title>
<g id="a_node18"><a xlink:href="BandwidthCommunicator_8h.html" target="_top" xlink:title="BandwidthCommunicator.h">
<polygon fill="white" stroke="black" points="875.5,-168.5 875.5,-187.5 1009.5,-187.5 1009.5,-168.5 875.5,-168.5"/>
<text text-anchor="middle" x="942.5" y="-175.5" font-family="Helvetica,sans-Serif" font-size="10.00">BandwidthCommunicator.h</text>
</a>
</g>
</g>
<!-- Node1&#45;&gt;Node18 -->
<g id="edge20" class="edge"><title>Node1&#45;&gt;Node18</title>
<path fill="none" stroke="midnightblue" d="M532.117,-227.92C608.378,-218.829 769.175,-199.661 865.294,-188.203"/>
<polygon fill="midnightblue" stroke="midnightblue" points="865.734,-191.676 875.25,-187.017 864.906,-184.725 865.734,-191.676"/>
</g>
<!-- Node21 -->
<g id="node21" class="node"><title>Node21</title>
<g id="a_node21"><a xlink:href="BandwidthValues_8h.html" target="_top" xlink:title="BandwidthValues.h">
<polygon fill="white" stroke="black" points="0,-168.5 0,-187.5 101,-187.5 101,-168.5 0,-168.5"/>
<text text-anchor="middle" x="50.5" y="-175.5" font-family="Helvetica,sans-Serif" font-size="10.00">BandwidthValues.h</text>
</a>
</g>
</g>
<!-- Node1&#45;&gt;Node21 -->
<g id="edge26" class="edge"><title>Node1&#45;&gt;Node21</title>
<path fill="none" stroke="midnightblue" d="M446.818,-228.365C378.376,-220.837 239.598,-205.186 111.233,-188.062"/>
<polygon fill="midnightblue" stroke="midnightblue" points="111.6,-184.58 101.223,-186.72 110.67,-191.518 111.6,-184.58"/>
</g>
<!-- Node22 -->
<g id="node22" class="node"><title>Node22</title>
<g id="a_node22"><a xlink:href="LoggingHandler_8h.html" target="_top" xlink:title="LoggingHandler.h">
<polygon fill="white" stroke="black" points="1103.5,-168.5 1103.5,-187.5 1195.5,-187.5 1195.5,-168.5 1103.5,-168.5"/>
<text text-anchor="middle" x="1149.5" y="-175.5" font-family="Helvetica,sans-Serif" font-size="10.00">LoggingHandler.h</text>
</a>
</g>
</g>
<!-- Node1&#45;&gt;Node22 -->
<g id="edge28" class="edge"><title>Node1&#45;&gt;Node22</title>
<path fill="none" stroke="midnightblue" d="M532.091,-231.074C629.458,-226.402 875.974,-213.055 1093.39,-187.896"/>
<polygon fill="midnightblue" stroke="midnightblue" points="1093.87,-191.364 1103.4,-186.727 1093.06,-184.411 1093.87,-191.364"/>
</g>
<!-- Node24 -->
<g id="node24" class="node"><title>Node24</title>
<g id="a_node24"><a xlink:href="Macros_8h.html" target="_top" xlink:title="Macros.h">
<polygon fill="white" stroke="black" points="1028,-168.5 1028,-187.5 1085,-187.5 1085,-168.5 1028,-168.5"/>
<text text-anchor="middle" x="1056.5" y="-175.5" font-family="Helvetica,sans-Serif" font-size="10.00">Macros.h</text>
</a>
</g>
</g>
<!-- Node1&#45;&gt;Node24 -->
<g id="edge31" class="edge"><title>Node1&#45;&gt;Node24</title>
<path fill="none" stroke="midnightblue" d="M532.273,-231.504C621.005,-227.94 831.627,-217.088 1017.98,-187.826"/>
<polygon fill="midnightblue" stroke="midnightblue" points="1018.63,-191.266 1027.96,-186.238 1017.53,-184.353 1018.63,-191.266"/>
</g>
<!-- Node25 -->
<g id="node25" class="node"><title>Node25</title>
<g id="a_node25"><a xlink:href="WorkConservationFlowHandler_8h.html" target="_top" xlink:title="WorkConservationFlowHandler.h">
<polygon fill="white" stroke="black" points="471,-168.5 471,-187.5 632,-187.5 632,-168.5 471,-168.5"/>
<text text-anchor="middle" x="551.5" y="-175.5" font-family="Helvetica,sans-Serif" font-size="10.00">WorkConservationFlowHandler.h</text>
</a>
</g>
</g>
<!-- Node1&#45;&gt;Node25 -->
<g id="edge32" class="edge"><title>Node1&#45;&gt;Node25</title>
<path fill="none" stroke="midnightblue" d="M499.461,-224.324C508.627,-216.341 522.437,-204.313 533.528,-194.653"/>
<polygon fill="midnightblue" stroke="midnightblue" points="536.115,-197.041 541.357,-187.834 531.518,-191.762 536.115,-197.041"/>
</g>
<!-- Node3 -->
<g id="node3" class="node"><title>Node3</title>
<polygon fill="white" stroke="#bfbfbf" points="710,-112.5 710,-131.5 759,-131.5 759,-112.5 710,-112.5"/>
<text text-anchor="middle" x="734.5" y="-119.5" font-family="Helvetica,sans-Serif" font-size="10.00">stdint.h</text>
</g>
<!-- Node2&#45;&gt;Node3 -->
<g id="edge2" class="edge"><title>Node2&#45;&gt;Node3</title>
<path fill="none" stroke="midnightblue" d="M806.683,-168.324C793.267,-159.9 772.676,-146.971 756.914,-137.074"/>
<polygon fill="midnightblue" stroke="midnightblue" points="758.613,-134.008 748.283,-131.655 754.891,-139.936 758.613,-134.008"/>
</g>
<!-- Node4 -->
<g id="node4" class="node"><title>Node4</title>
<polygon fill="white" stroke="#bfbfbf" points="852,-112.5 852,-131.5 893,-131.5 893,-112.5 852,-112.5"/>
<text text-anchor="middle" x="872.5" y="-119.5" font-family="Helvetica,sans-Serif" font-size="10.00">string</text>
</g>
<!-- Node2&#45;&gt;Node4 -->
<g id="edge3" class="edge"><title>Node2&#45;&gt;Node4</title>
<path fill="none" stroke="midnightblue" d="M829.087,-168.083C836.659,-160.22 847.878,-148.569 857.014,-139.081"/>
<polygon fill="midnightblue" stroke="midnightblue" points="859.658,-141.382 864.073,-131.751 854.615,-136.527 859.658,-141.382"/>
</g>
<!-- Node10&#45;&gt;Node3 -->
<g id="edge12" class="edge"><title>Node10&#45;&gt;Node3</title>
<path fill="none" stroke="midnightblue" d="M711.959,-168.083C715.654,-160.691 721.023,-149.953 725.594,-140.811"/>
<polygon fill="midnightblue" stroke="midnightblue" points="728.783,-142.261 730.124,-131.751 722.522,-139.13 728.783,-142.261"/>
</g>
<!-- Node10&#45;&gt;Node4 -->
<g id="edge13" class="edge"><title>Node10&#45;&gt;Node4</title>
<path fill="none" stroke="midnightblue" d="M733.645,-168.444C763.036,-158.825 810.705,-143.224 841.831,-133.037"/>
<polygon fill="midnightblue" stroke="midnightblue" points="843.287,-136.244 851.702,-129.807 841.109,-129.591 843.287,-136.244"/>
</g>
<!-- Node11 -->
<g id="node11" class="node"><title>Node11</title>
<polygon fill="white" stroke="#bfbfbf" points="508.5,-112.5 508.5,-131.5 554.5,-131.5 554.5,-112.5 508.5,-112.5"/>
<text text-anchor="middle" x="531.5" y="-119.5" font-family="Helvetica,sans-Serif" font-size="10.00">atomic</text>
</g>
<!-- Node10&#45;&gt;Node11 -->
<g id="edge10" class="edge"><title>Node10&#45;&gt;Node11</title>
<path fill="none" stroke="midnightblue" d="M679.612,-168.444C648.341,-158.849 597.67,-143.302 564.464,-133.114"/>
<polygon fill="midnightblue" stroke="midnightblue" points="565.348,-129.724 554.761,-130.137 563.294,-136.416 565.348,-129.724"/>
</g>
<!-- Node12 -->
<g id="node12" class="node"><title>Node12</title>
<polygon fill="white" stroke="#bfbfbf" points="777,-112.5 777,-131.5 834,-131.5 834,-112.5 777,-112.5"/>
<text text-anchor="middle" x="805.5" y="-119.5" font-family="Helvetica,sans-Serif" font-size="10.00">pthread.h</text>
</g>
<!-- Node10&#45;&gt;Node12 -->
<g id="edge11" class="edge"><title>Node10&#45;&gt;Node12</title>
<path fill="none" stroke="midnightblue" d="M723.245,-168.324C738.819,-159.743 762.877,-146.486 780.959,-136.522"/>
<polygon fill="midnightblue" stroke="midnightblue" points="782.724,-139.546 789.794,-131.655 779.346,-133.415 782.724,-139.546"/>
</g>
<!-- Node13 -->
<g id="node13" class="node"><title>Node13</title>
<g id="a_node13"><a xlink:href="SimpleRateCalculator_8h.html" target="_top" xlink:title="SimpleRateCalculator.h">
<polygon fill="white" stroke="black" points="572.5,-112.5 572.5,-131.5 692.5,-131.5 692.5,-112.5 572.5,-112.5"/>
<text text-anchor="middle" x="632.5" y="-119.5" font-family="Helvetica,sans-Serif" font-size="10.00">SimpleRateCalculator.h</text>
</a>
</g>
</g>
<!-- Node10&#45;&gt;Node13 -->
<g id="edge14" class="edge"><title>Node10&#45;&gt;Node13</title>
<path fill="none" stroke="midnightblue" d="M695.45,-168.324C684.037,-160.107 666.669,-147.602 653.065,-137.807"/>
<polygon fill="midnightblue" stroke="midnightblue" points="654.93,-134.837 644.769,-131.834 650.84,-140.517 654.93,-134.837"/>
</g>
<!-- Node14 -->
<g id="node14" class="node"><title>Node14</title>
<polygon fill="white" stroke="#bfbfbf" points="474,-56.5 474,-75.5 515,-75.5 515,-56.5 474,-56.5"/>
<text text-anchor="middle" x="494.5" y="-63.5" font-family="Helvetica,sans-Serif" font-size="10.00">ctime</text>
</g>
<!-- Node13&#45;&gt;Node14 -->
<g id="edge15" class="edge"><title>Node13&#45;&gt;Node14</title>
<path fill="none" stroke="midnightblue" d="M610.633,-112.444C587.451,-103.372 550.671,-88.98 524.724,-78.8268"/>
<polygon fill="midnightblue" stroke="midnightblue" points="525.949,-75.5477 515.361,-75.1629 523.398,-82.0664 525.949,-75.5477"/>
</g>
<!-- Node15 -->
<g id="node15" class="node"><title>Node15</title>
<g id="a_node15"><a xlink:href="CurrentAndLastValues_8h.html" target="_top" xlink:title="CurrentAndLastValues.h">
<polygon fill="white" stroke="black" points="499,-0.5 499,-19.5 622,-19.5 622,-0.5 499,-0.5"/>
<text text-anchor="middle" x="560.5" y="-7.5" font-family="Helvetica,sans-Serif" font-size="10.00">CurrentAndLastValues.h</text>
</a>
</g>
</g>
<!-- Node13&#45;&gt;Node15 -->
<g id="edge16" class="edge"><title>Node13&#45;&gt;Node15</title>
<path fill="none" stroke="midnightblue" d="M643.056,-112.269C657.203,-99.4851 679.152,-75.1159 666.5,-56 655.84,-39.8936 638.13,-29.535 620.208,-22.8797"/>
<polygon fill="midnightblue" stroke="midnightblue" points="620.868,-19.4095 610.274,-19.5504 618.643,-26.0467 620.868,-19.4095"/>
</g>
<!-- Node16 -->
<g id="node16" class="node"><title>Node16</title>
<g id="a_node16"><a xlink:href="SimpleRateCalculation_8h.html" target="_top" xlink:title="SimpleRateCalculation.h">
<polygon fill="white" stroke="black" points="533,-56.5 533,-75.5 658,-75.5 658,-56.5 533,-56.5"/>
<text text-anchor="middle" x="595.5" y="-63.5" font-family="Helvetica,sans-Serif" font-size="10.00">SimpleRateCalculation.h</text>
</a>
</g>
</g>
<!-- Node13&#45;&gt;Node16 -->
<g id="edge17" class="edge"><title>Node13&#45;&gt;Node16</title>
<path fill="none" stroke="midnightblue" d="M626.39,-112.083C621.218,-104.534 613.654,-93.4948 607.306,-84.2298"/>
<polygon fill="midnightblue" stroke="midnightblue" points="610.036,-82.0221 601.496,-75.7511 604.261,-85.9787 610.036,-82.0221"/>
</g>
<!-- Node16&#45;&gt;Node15 -->
<g id="edge18" class="edge"><title>Node16&#45;&gt;Node15</title>
<path fill="none" stroke="midnightblue" d="M589.72,-56.083C584.828,-48.5341 577.673,-37.4948 571.667,-28.2298"/>
<polygon fill="midnightblue" stroke="midnightblue" points="574.548,-26.239 566.172,-19.7511 568.674,-30.0463 574.548,-26.239"/>
</g>
<!-- Node17 -->
<g id="node17" class="node"><title>Node17</title>
<polygon fill="white" stroke="#bfbfbf" points="402.5,-0.5 402.5,-19.5 446.5,-19.5 446.5,-0.5 402.5,-0.5"/>
<text text-anchor="middle" x="424.5" y="-7.5" font-family="Helvetica,sans-Serif" font-size="10.00">time.h</text>
</g>
<!-- Node16&#45;&gt;Node17 -->
<g id="edge19" class="edge"><title>Node16&#45;&gt;Node17</title>
<path fill="none" stroke="midnightblue" d="M568.405,-56.4435C537.982,-46.8366 488.664,-31.2622 456.404,-21.0749"/>
<polygon fill="midnightblue" stroke="midnightblue" points="457.165,-17.6448 446.575,-17.971 455.057,-24.3199 457.165,-17.6448"/>
</g>
<!-- Node18&#45;&gt;Node4 -->
<g id="edge25" class="edge"><title>Node18&#45;&gt;Node4</title>
<path fill="none" stroke="midnightblue" d="M931.253,-168.324C920.703,-160.185 904.699,-147.839 892.058,-138.087"/>
<polygon fill="midnightblue" stroke="midnightblue" points="894.007,-135.171 883.951,-131.834 889.731,-140.713 894.007,-135.171"/>
</g>
<!-- Node18&#45;&gt;Node11 -->
<g id="edge22" class="edge"><title>Node18&#45;&gt;Node11</title>
<path fill="none" stroke="midnightblue" d="M875.385,-169.048C778.871,-157.61 608.339,-137.392 564.804,-131.504"/>
<polygon fill="midnightblue" stroke="midnightblue" points="565.224,-128.028 554.817,-130.012 564.19,-134.951 565.224,-128.028"/>
</g>
<!-- Node18&#45;&gt;Node12 -->
<g id="edge24" class="edge"><title>Node18&#45;&gt;Node12</title>
<path fill="none" stroke="midnightblue" d="M920.792,-168.444C898.145,-159.517 862.428,-145.439 836.748,-135.317"/>
<polygon fill="midnightblue" stroke="midnightblue" points="837.693,-131.927 827.106,-131.516 835.126,-138.44 837.693,-131.927"/>
</g>
<!-- Node19 -->
<g id="node19" class="node"><title>Node19</title>
<polygon fill="white" stroke="#bfbfbf" points="911.5,-112.5 911.5,-131.5 973.5,-131.5 973.5,-112.5 911.5,-112.5"/>
<text text-anchor="middle" x="942.5" y="-119.5" font-family="Helvetica,sans-Serif" font-size="10.00">arpa/inet.h</text>
</g>
<!-- Node18&#45;&gt;Node19 -->
<g id="edge21" class="edge"><title>Node18&#45;&gt;Node19</title>
<path fill="none" stroke="midnightblue" d="M942.5,-168.083C942.5,-161.006 942.5,-150.861 942.5,-141.986"/>
<polygon fill="midnightblue" stroke="midnightblue" points="946,-141.751 942.5,-131.751 939,-141.751 946,-141.751"/>
</g>
<!-- Node20 -->
<g id="node20" class="node"><title>Node20</title>
<polygon fill="white" stroke="#bfbfbf" points="992,-112.5 992,-131.5 1057,-131.5 1057,-112.5 992,-112.5"/>
<text text-anchor="middle" x="1024.5" y="-119.5" font-family="Helvetica,sans-Serif" font-size="10.00">netinet/ip.h</text>
</g>
<!-- Node18&#45;&gt;Node20 -->
<g id="edge23" class="edge"><title>Node18&#45;&gt;Node20</title>
<path fill="none" stroke="midnightblue" d="M955.675,-168.324C968.347,-159.979 987.733,-147.212 1002.71,-137.352"/>
<polygon fill="midnightblue" stroke="midnightblue" points="1004.93,-140.078 1011.36,-131.655 1001.08,-134.231 1004.93,-140.078"/>
</g>
<!-- Node21&#45;&gt;Node11 -->
<g id="edge27" class="edge"><title>Node21&#45;&gt;Node11</title>
<path fill="none" stroke="midnightblue" d="M101.212,-169.187C104.352,-168.767 107.468,-168.367 110.5,-168 279.669,-147.501 327.031,-163.035 498.346,-131.899"/>
<polygon fill="midnightblue" stroke="midnightblue" points="498.997,-135.338 508.197,-130.083 497.728,-128.454 498.997,-135.338"/>
</g>
<!-- Node22&#45;&gt;Node4 -->
<g id="edge29" class="edge"><title>Node22&#45;&gt;Node4</title>
<path fill="none" stroke="midnightblue" d="M1103.4,-169.233C1046.87,-159.607 953.341,-143.325 903.108,-131.868"/>
<polygon fill="midnightblue" stroke="midnightblue" points="903.611,-128.391 893.075,-129.501 902.004,-135.204 903.611,-128.391"/>
</g>
<!-- Node23 -->
<g id="node23" class="node"><title>Node23</title>
<polygon fill="white" stroke="#bfbfbf" points="1124.5,-112.5 1124.5,-131.5 1174.5,-131.5 1174.5,-112.5 1124.5,-112.5"/>
<text text-anchor="middle" x="1149.5" y="-119.5" font-family="Helvetica,sans-Serif" font-size="10.00">fstream</text>
</g>
<!-- Node22&#45;&gt;Node23 -->
<g id="edge30" class="edge"><title>Node22&#45;&gt;Node23</title>
<path fill="none" stroke="midnightblue" d="M1149.5,-168.083C1149.5,-161.006 1149.5,-150.861 1149.5,-141.986"/>
<polygon fill="midnightblue" stroke="midnightblue" points="1153,-141.751 1149.5,-131.751 1146,-141.751 1153,-141.751"/>
</g>
<!-- Node25&#45;&gt;Node3 -->
<g id="edge34" class="edge"><title>Node25&#45;&gt;Node3</title>
<path fill="none" stroke="midnightblue" d="M580.497,-168.444C612.969,-158.862 665.558,-143.344 700.086,-133.155"/>
<polygon fill="midnightblue" stroke="midnightblue" points="701.146,-136.491 709.747,-130.304 699.165,-129.778 701.146,-136.491"/>
</g>
<!-- Node25&#45;&gt;Node4 -->
<g id="edge35" class="edge"><title>Node25&#45;&gt;Node4</title>
<path fill="none" stroke="midnightblue" d="M624.978,-168.49C681.706,-161.264 762.268,-149.586 841.752,-131.88"/>
<polygon fill="midnightblue" stroke="midnightblue" points="842.961,-135.195 851.942,-129.575 841.417,-128.367 842.961,-135.195"/>
</g>
<!-- Node25&#45;&gt;Node11 -->
<g id="edge36" class="edge"><title>Node25&#45;&gt;Node11</title>
<path fill="none" stroke="midnightblue" d="M548.197,-168.083C545.518,-160.849 541.651,-150.409 538.314,-141.397"/>
<polygon fill="midnightblue" stroke="midnightblue" points="541.496,-139.913 534.741,-131.751 534.932,-142.344 541.496,-139.913"/>
</g>
<!-- Node25&#45;&gt;Node12 -->
<g id="edge33" class="edge"><title>Node25&#45;&gt;Node12</title>
<path fill="none" stroke="midnightblue" d="M594.197,-168.461C635.692,-160.083 700.747,-146.738 766.721,-132.125"/>
<polygon fill="midnightblue" stroke="midnightblue" points="767.883,-135.452 776.885,-129.865 766.364,-128.619 767.883,-135.452"/>
</g>
<!-- Node26 -->
<g id="node26" class="node"><title>Node26</title>
<g id="a_node26"><a xlink:href="ExponentialSmoothingCalculator_8h.html" target="_top" xlink:title="ExponentialSmoothingCalculator.h">
<polygon fill="white" stroke="black" points="324,-112.5 324,-131.5 491,-131.5 491,-112.5 324,-112.5"/>
<text text-anchor="middle" x="407.5" y="-119.5" font-family="Helvetica,sans-Serif" font-size="10.00">ExponentialSmoothingCalculator.h</text>
</a>
</g>
</g>
<!-- Node25&#45;&gt;Node26 -->
<g id="edge37" class="edge"><title>Node25&#45;&gt;Node26</title>
<path fill="none" stroke="midnightblue" d="M528.683,-168.444C504.668,-159.438 466.671,-145.189 439.631,-135.049"/>
<polygon fill="midnightblue" stroke="midnightblue" points="440.803,-131.751 430.21,-131.516 438.345,-138.305 440.803,-131.751"/>
</g>
<!-- Node26&#45;&gt;Node14 -->
<g id="edge38" class="edge"><title>Node26&#45;&gt;Node14</title>
<path fill="none" stroke="midnightblue" d="M421.478,-112.324C435.05,-103.9 455.88,-90.9709 471.825,-81.0741"/>
<polygon fill="midnightblue" stroke="midnightblue" points="473.906,-83.9019 480.557,-75.6545 470.214,-77.9544 473.906,-83.9019"/>
</g>
<!-- Node26&#45;&gt;Node15 -->
<g id="edge39" class="edge"><title>Node26&#45;&gt;Node15</title>
<path fill="none" stroke="midnightblue" d="M413.252,-112.405C422.637,-98.9135 442.425,-72.5945 464.5,-56 483.043,-42.0604 506.596,-30.9394 525.731,-23.2403"/>
<polygon fill="midnightblue" stroke="midnightblue" points="527.231,-26.4126 535.285,-19.5293 524.696,-19.8875 527.231,-26.4126"/>
</g>
<!-- Node27 -->
<g id="node27" class="node"><title>Node27</title>
<g id="a_node27"><a xlink:href="ExponentialSmoothing_8h.html" target="_top" xlink:title="ExponentialSmoothing.h">
<polygon fill="white" stroke="black" points="295.5,-56.5 295.5,-75.5 417.5,-75.5 417.5,-56.5 295.5,-56.5"/>
<text text-anchor="middle" x="356.5" y="-63.5" font-family="Helvetica,sans-Serif" font-size="10.00">ExponentialSmoothing.h</text>
</a>
</g>
</g>
<!-- Node26&#45;&gt;Node27 -->
<g id="edge40" class="edge"><title>Node26&#45;&gt;Node27</title>
<path fill="none" stroke="midnightblue" d="M399.078,-112.083C391.652,-104.22 380.648,-92.5688 371.688,-83.0813"/>
<polygon fill="midnightblue" stroke="midnightblue" points="374.176,-80.618 364.765,-75.7511 369.087,-85.4244 374.176,-80.618"/>
</g>
<!-- Node27&#45;&gt;Node15 -->
<g id="edge42" class="edge"><title>Node27&#45;&gt;Node15</title>
<path fill="none" stroke="midnightblue" d="M388.824,-56.4435C423.889,-47.1616 479.998,-32.3093 518.465,-22.127"/>
<polygon fill="midnightblue" stroke="midnightblue" points="519.555,-25.4589 528.327,-19.5164 517.764,-18.692 519.555,-25.4589"/>
</g>
<!-- Node27&#45;&gt;Node17 -->
<g id="edge41" class="edge"><title>Node27&#45;&gt;Node17</title>
<path fill="none" stroke="midnightblue" d="M367.425,-56.324C377.675,-48.1849 393.221,-35.8395 405.501,-26.0874"/>
<polygon fill="midnightblue" stroke="midnightblue" points="407.721,-28.7937 413.376,-19.8339 403.368,-23.3119 407.721,-28.7937"/>
</g>
</g>
</svg>
