<?xml version="1.0" encoding="UTF-8" standalone="no"?>
<!DOCTYPE svg PUBLIC "-//W3C//DTD SVG 1.1//EN"
 "http://www.w3.org/Graphics/SVG/1.1/DTD/svg11.dtd">
<!-- Generated by graphviz version 2.38.0 (20140413.2041)
 -->
<!-- Title: MainObject.cpp Pages: 1 -->
<svg width="1203pt" height="252pt"
 viewBox="0.00 0.00 1203.00 252.00" xmlns="http://www.w3.org/2000/svg" xmlns:xlink="http://www.w3.org/1999/xlink">
<g id="graph0" class="graph" transform="scale(1 1) rotate(0) translate(4 248)">
<title>MainObject.cpp</title>
<polygon fill="white" stroke="none" points="-4,4 -4,-248 1199,-248 1199,4 -4,4"/>
<!-- Node1 -->
<g id="node1" class="node"><title>Node1</title>
<polygon fill="#bfbfbf" stroke="black" points="726,-224.5 726,-243.5 811,-243.5 811,-224.5 726,-224.5"/>
<text text-anchor="middle" x="768.5" y="-231.5" font-family="Helvetica,sans-Serif" font-size="10.00">MainObject.cpp</text>
</g>
<!-- Node2 -->
<g id="node2" class="node"><title>Node2</title>
<g id="a_node2"><a xlink:href="MainObject_8h.html" target="_top" xlink:title="MainObject.h">
<polygon fill="white" stroke="black" points="432.5,-168.5 432.5,-187.5 506.5,-187.5 506.5,-168.5 432.5,-168.5"/>
<text text-anchor="middle" x="469.5" y="-175.5" font-family="Helvetica,sans-Serif" font-size="10.00">MainObject.h</text>
</a>
</g>
</g>
<!-- Node1&#45;&gt;Node2 -->
<g id="edge1" class="edge"><title>Node1&#45;&gt;Node2</title>
<path fill="none" stroke="midnightblue" d="M725.933,-225.659C677.686,-217.287 596.408,-203.03 516.843,-188.227"/>
<polygon fill="midnightblue" stroke="midnightblue" points="517.119,-184.718 506.647,-186.325 515.835,-191.599 517.119,-184.718"/>
</g>
<!-- Node5 -->
<g id="node5" class="node"><title>Node5</title>
<polygon fill="white" stroke="#bfbfbf" points="786.5,-168.5 786.5,-187.5 842.5,-187.5 842.5,-168.5 786.5,-168.5"/>
<text text-anchor="middle" x="814.5" y="-175.5" font-family="Helvetica,sans-Serif" font-size="10.00">algorithm</text>
</g>
<!-- Node1&#45;&gt;Node5 -->
<g id="edge4" class="edge"><title>Node1&#45;&gt;Node5</title>
<path fill="none" stroke="midnightblue" d="M776.096,-224.083C782.727,-216.298 792.521,-204.801 800.558,-195.367"/>
<polygon fill="midnightblue" stroke="midnightblue" points="803.225,-197.633 807.045,-187.751 797.896,-193.094 803.225,-197.633"/>
</g>
<!-- Node6 -->
<g id="node6" class="node"><title>Node6</title>
<polygon fill="white" stroke="#bfbfbf" points="860.5,-168.5 860.5,-187.5 914.5,-187.5 914.5,-168.5 860.5,-168.5"/>
<text text-anchor="middle" x="887.5" y="-175.5" font-family="Helvetica,sans-Serif" font-size="10.00">ifaddrs.h</text>
</g>
<!-- Node1&#45;&gt;Node6 -->
<g id="edge5" class="edge"><title>Node1&#45;&gt;Node6</title>
<path fill="none" stroke="midnightblue" d="M787.356,-224.444C806.766,-215.636 837.23,-201.812 859.465,-191.722"/>
<polygon fill="midnightblue" stroke="midnightblue" points="861.072,-194.836 868.732,-187.516 858.18,-188.462 861.072,-194.836"/>
</g>
<!-- Node7 -->
<g id="node7" class="node"><title>Node7</title>
<polygon fill="white" stroke="#bfbfbf" points="933,-168.5 933,-187.5 982,-187.5 982,-168.5 933,-168.5"/>
<text text-anchor="middle" x="957.5" y="-175.5" font-family="Helvetica,sans-Serif" font-size="10.00">netdb.h</text>
</g>
<!-- Node1&#45;&gt;Node7 -->
<g id="edge6" class="edge"><title>Node1&#45;&gt;Node7</title>
<path fill="none" stroke="midnightblue" d="M798.448,-224.444C832.268,-214.78 887.22,-199.08 922.861,-188.897"/>
<polygon fill="midnightblue" stroke="midnightblue" points="924.158,-192.166 932.812,-186.054 922.235,-185.436 924.158,-192.166"/>
</g>
<!-- Node8 -->
<g id="node8" class="node"><title>Node8</title>
<polygon fill="white" stroke="#bfbfbf" points="1000.5,-168.5 1000.5,-187.5 1052.5,-187.5 1052.5,-168.5 1000.5,-168.5"/>
<text text-anchor="middle" x="1026.5" y="-175.5" font-family="Helvetica,sans-Serif" font-size="10.00">sstream</text>
</g>
<!-- Node1&#45;&gt;Node8 -->
<g id="edge7" class="edge"><title>Node1&#45;&gt;Node8</title>
<path fill="none" stroke="midnightblue" d="M811.394,-225.038C854.291,-216.921 922.378,-203.621 990.166,-188.218"/>
<polygon fill="midnightblue" stroke="midnightblue" points="991.196,-191.573 1000.16,-185.93 989.634,-184.749 991.196,-191.573"/>
</g>
<!-- Node9 -->
<g id="node9" class="node"><title>Node9</title>
<polygon fill="white" stroke="#bfbfbf" points="1071,-168.5 1071,-187.5 1120,-187.5 1120,-168.5 1071,-168.5"/>
<text text-anchor="middle" x="1095.5" y="-175.5" font-family="Helvetica,sans-Serif" font-size="10.00">string.h</text>
</g>
<!-- Node1&#45;&gt;Node9 -->
<g id="edge8" class="edge"><title>Node1&#45;&gt;Node9</title>
<path fill="none" stroke="midnightblue" d="M811.457,-227.857C866.829,-220.909 966.242,-207.353 1060.68,-187.973"/>
<polygon fill="midnightblue" stroke="midnightblue" points="1061.61,-191.355 1070.69,-185.893 1060.19,-184.501 1061.61,-191.355"/>
</g>
<!-- Node10 -->
<g id="node10" class="node"><title>Node10</title>
<g id="a_node10"><a xlink:href="BandwidthCalculator_8h.html" target="_top" xlink:title="BandwidthCalculator.h">
<polygon fill="white" stroke="black" points="120,-168.5 120,-187.5 235,-187.5 235,-168.5 120,-168.5"/>
<text text-anchor="middle" x="177.5" y="-175.5" font-family="Helvetica,sans-Serif" font-size="10.00">BandwidthCalculator.h</text>
</a>
</g>
</g>
<!-- Node1&#45;&gt;Node10 -->
<g id="edge9" class="edge"><title>Node1&#45;&gt;Node10</title>
<path fill="none" stroke="midnightblue" d="M725.897,-230.074C638.028,-223.883 430.082,-208.423 245.25,-188.147"/>
<polygon fill="midnightblue" stroke="midnightblue" points="245.396,-184.642 235.072,-187.023 244.627,-191.6 245.396,-184.642"/>
</g>
<!-- Node17 -->
<g id="node17" class="node"><title>Node17</title>
<g id="a_node17"><a xlink:href="BandwidthCommunicator_8h.html" target="_top" xlink:title="BandwidthCommunicator.h">
<polygon fill="white" stroke="black" points="524.5,-168.5 524.5,-187.5 658.5,-187.5 658.5,-168.5 524.5,-168.5"/>
<text text-anchor="middle" x="591.5" y="-175.5" font-family="Helvetica,sans-Serif" font-size="10.00">BandwidthCommunicator.h</text>
</a>
</g>
</g>
<!-- Node1&#45;&gt;Node17 -->
<g id="edge19" class="edge"><title>Node1&#45;&gt;Node17</title>
<path fill="none" stroke="midnightblue" d="M740.454,-224.444C710.418,-215.28 662.587,-200.688 629.257,-190.519"/>
<polygon fill="midnightblue" stroke="midnightblue" points="630.001,-187.087 619.415,-187.516 627.958,-193.782 630.001,-187.087"/>
</g>
<!-- Node20 -->
<g id="node20" class="node"><title>Node20</title>
<g id="a_node20"><a xlink:href="BandwidthValues_8h.html" target="_top" xlink:title="BandwidthValues.h">
<polygon fill="white" stroke="black" points="1,-168.5 1,-187.5 102,-187.5 102,-168.5 1,-168.5"/>
<text text-anchor="middle" x="51.5" y="-175.5" font-family="Helvetica,sans-Serif" font-size="10.00">BandwidthValues.h</text>
</a>
</g>
</g>
<!-- Node1&#45;&gt;Node20 -->
<g id="edge24" class="edge"><title>Node1&#45;&gt;Node20</title>
<path fill="none" stroke="midnightblue" d="M725.665,-231.305C622.089,-226.941 349.685,-213.886 112.511,-188.142"/>
<polygon fill="midnightblue" stroke="midnightblue" points="112.635,-184.635 102.313,-187.025 111.873,-191.594 112.635,-184.635"/>
</g>
<!-- Node21 -->
<g id="node21" class="node"><title>Node21</title>
<g id="a_node21"><a xlink:href="LoggingHandler_8h.html" target="_top" xlink:title="LoggingHandler.h">
<polygon fill="white" stroke="black" points="676.5,-168.5 676.5,-187.5 768.5,-187.5 768.5,-168.5 676.5,-168.5"/>
<text text-anchor="middle" x="722.5" y="-175.5" font-family="Helvetica,sans-Serif" font-size="10.00">LoggingHandler.h</text>
</a>
</g>
</g>
<!-- Node1&#45;&gt;Node21 -->
<g id="edge26" class="edge"><title>Node1&#45;&gt;Node21</title>
<path fill="none" stroke="midnightblue" d="M760.904,-224.083C754.273,-216.298 744.479,-204.801 736.442,-195.367"/>
<polygon fill="midnightblue" stroke="midnightblue" points="739.104,-193.094 729.955,-187.751 733.775,-197.633 739.104,-193.094"/>
</g>
<!-- Node23 -->
<g id="node23" class="node"><title>Node23</title>
<g id="a_node23"><a xlink:href="Macros_8h.html" target="_top" xlink:title="Macros.h">
<polygon fill="white" stroke="black" points="1138,-168.5 1138,-187.5 1195,-187.5 1195,-168.5 1138,-168.5"/>
<text text-anchor="middle" x="1166.5" y="-175.5" font-family="Helvetica,sans-Serif" font-size="10.00">Macros.h</text>
</a>
</g>
</g>
<!-- Node1&#45;&gt;Node23 -->
<g id="edge29" class="edge"><title>Node1&#45;&gt;Node23</title>
<path fill="none" stroke="midnightblue" d="M811.255,-229.271C877.225,-223.168 1007.95,-209.69 1127.81,-188.14"/>
<polygon fill="midnightblue" stroke="midnightblue" points="1128.68,-191.539 1137.89,-186.303 1127.42,-184.652 1128.68,-191.539"/>
</g>
<!-- Node24 -->
<g id="node24" class="node"><title>Node24</title>
<g id="a_node24"><a xlink:href="WorkConservationFlowHandler_8h.html" target="_top" xlink:title="WorkConservationFlowHandler.h">
<polygon fill="white" stroke="black" points="253,-168.5 253,-187.5 414,-187.5 414,-168.5 253,-168.5"/>
<text text-anchor="middle" x="333.5" y="-175.5" font-family="Helvetica,sans-Serif" font-size="10.00">WorkConservationFlowHandler.h</text>
</a>
</g>
</g>
<!-- Node1&#45;&gt;Node24 -->
<g id="edge30" class="edge"><title>Node1&#45;&gt;Node24</title>
<path fill="none" stroke="midnightblue" d="M725.998,-227.724C653.362,-218.707 504.286,-200.201 412.208,-188.771"/>
<polygon fill="midnightblue" stroke="midnightblue" points="412.455,-185.275 402.1,-187.516 411.593,-192.221 412.455,-185.275"/>
</g>
<!-- Node3 -->
<g id="node3" class="node"><title>Node3</title>
<polygon fill="white" stroke="#bfbfbf" points="153,-112.5 153,-131.5 202,-131.5 202,-112.5 153,-112.5"/>
<text text-anchor="middle" x="177.5" y="-119.5" font-family="Helvetica,sans-Serif" font-size="10.00">stdint.h</text>
</g>
<!-- Node2&#45;&gt;Node3 -->
<g id="edge2" class="edge"><title>Node2&#45;&gt;Node3</title>
<path fill="none" stroke="midnightblue" d="M432.313,-169.804C428.996,-169.185 425.689,-168.576 422.5,-168 331.574,-151.576 305.537,-152.513 212.165,-132.212"/>
<polygon fill="midnightblue" stroke="midnightblue" points="212.82,-128.773 202.302,-130.044 211.317,-135.61 212.82,-128.773"/>
</g>
<!-- Node4 -->
<g id="node4" class="node"><title>Node4</title>
<polygon fill="white" stroke="#bfbfbf" points="480,-112.5 480,-131.5 521,-131.5 521,-112.5 480,-112.5"/>
<text text-anchor="middle" x="500.5" y="-119.5" font-family="Helvetica,sans-Serif" font-size="10.00">string</text>
</g>
<!-- Node2&#45;&gt;Node4 -->
<g id="edge3" class="edge"><title>Node2&#45;&gt;Node4</title>
<path fill="none" stroke="midnightblue" d="M474.619,-168.083C478.908,-160.613 485.158,-149.724 490.442,-140.52"/>
<polygon fill="midnightblue" stroke="midnightblue" points="493.533,-142.166 495.476,-131.751 487.462,-138.681 493.533,-142.166"/>
</g>
<!-- Node10&#45;&gt;Node3 -->
<g id="edge11" class="edge"><title>Node10&#45;&gt;Node3</title>
<path fill="none" stroke="midnightblue" d="M177.5,-168.083C177.5,-161.006 177.5,-150.861 177.5,-141.986"/>
<polygon fill="midnightblue" stroke="midnightblue" points="181,-141.751 177.5,-131.751 174,-141.751 181,-141.751"/>
</g>
<!-- Node10&#45;&gt;Node4 -->
<g id="edge12" class="edge"><title>Node10&#45;&gt;Node4</title>
<path fill="none" stroke="midnightblue" d="M235.295,-169.097C303.274,-159.641 413.059,-143.833 469.956,-131.782"/>
<polygon fill="midnightblue" stroke="midnightblue" points="470.933,-135.151 479.943,-129.578 469.424,-128.315 470.933,-135.151"/>
</g>
<!-- Node11 -->
<g id="node11" class="node"><title>Node11</title>
<polygon fill="white" stroke="#bfbfbf" points="220,-112.5 220,-131.5 277,-131.5 277,-112.5 220,-112.5"/>
<text text-anchor="middle" x="248.5" y="-119.5" font-family="Helvetica,sans-Serif" font-size="10.00">pthread.h</text>
</g>
<!-- Node10&#45;&gt;Node11 -->
<g id="edge10" class="edge"><title>Node10&#45;&gt;Node11</title>
<path fill="none" stroke="midnightblue" d="M188.907,-168.324C199.609,-160.185 215.841,-147.839 228.663,-138.087"/>
<polygon fill="midnightblue" stroke="midnightblue" points="231.044,-140.673 236.885,-131.834 226.807,-135.102 231.044,-140.673"/>
</g>
<!-- Node12 -->
<g id="node12" class="node"><title>Node12</title>
<g id="a_node12"><a xlink:href="SimpleRateCalculator_8h.html" target="_top" xlink:title="SimpleRateCalculator.h">
<polygon fill="white" stroke="black" points="15.5,-112.5 15.5,-131.5 135.5,-131.5 135.5,-112.5 15.5,-112.5"/>
<text text-anchor="middle" x="75.5" y="-119.5" font-family="Helvetica,sans-Serif" font-size="10.00">SimpleRateCalculator.h</text>
</a>
</g>
</g>
<!-- Node10&#45;&gt;Node12 -->
<g id="edge13" class="edge"><title>Node10&#45;&gt;Node12</title>
<path fill="none" stroke="midnightblue" d="M161.112,-168.324C144.829,-159.703 119.633,-146.364 100.784,-136.386"/>
<polygon fill="midnightblue" stroke="midnightblue" points="102.323,-133.24 91.8474,-131.655 99.0477,-139.427 102.323,-133.24"/>
</g>
<!-- Node13 -->
<g id="node13" class="node"><title>Node13</title>
<polygon fill="white" stroke="#bfbfbf" points="182,-56.5 182,-75.5 223,-75.5 223,-56.5 182,-56.5"/>
<text text-anchor="middle" x="202.5" y="-63.5" font-family="Helvetica,sans-Serif" font-size="10.00">ctime</text>
</g>
<!-- Node12&#45;&gt;Node13 -->
<g id="edge14" class="edge"><title>Node12&#45;&gt;Node13</title>
<path fill="none" stroke="midnightblue" d="M95.6235,-112.444C116.524,-103.557 149.435,-89.5632 173.216,-79.4514"/>
<polygon fill="midnightblue" stroke="midnightblue" points="174.638,-82.6504 182.471,-75.5164 171.898,-76.2085 174.638,-82.6504"/>
</g>
<!-- Node14 -->
<g id="node14" class="node"><title>Node14</title>
<g id="a_node14"><a xlink:href="CurrentAndLastValues_8h.html" target="_top" xlink:title="CurrentAndLastValues.h">
<polygon fill="white" stroke="black" points="206,-0.5 206,-19.5 329,-19.5 329,-0.5 206,-0.5"/>
<text text-anchor="middle" x="267.5" y="-7.5" font-family="Helvetica,sans-Serif" font-size="10.00">CurrentAndLastValues.h</text>
</a>
</g>
</g>
<!-- Node12&#45;&gt;Node14 -->
<g id="edge15" class="edge"><title>Node12&#45;&gt;Node14</title>
<path fill="none" stroke="midnightblue" d="M87.0869,-112.412C104.925,-99.3842 140.416,-74.2159 172.5,-56 193.718,-43.9534 218.684,-32.216 237.697,-23.7504"/>
<polygon fill="midnightblue" stroke="midnightblue" points="239.301,-26.8683 247.045,-19.6375 236.482,-20.461 239.301,-26.8683"/>
</g>
<!-- Node15 -->
<g id="node15" class="node"><title>Node15</title>
<g id="a_node15"><a xlink:href="SimpleRateCalculation_8h.html" target="_top" xlink:title="SimpleRateCalculation.h">
<polygon fill="white" stroke="black" points="0,-56.5 0,-75.5 125,-75.5 125,-56.5 0,-56.5"/>
<text text-anchor="middle" x="62.5" y="-63.5" font-family="Helvetica,sans-Serif" font-size="10.00">SimpleRateCalculation.h</text>
</a>
</g>
</g>
<!-- Node12&#45;&gt;Node15 -->
<g id="edge16" class="edge"><title>Node12&#45;&gt;Node15</title>
<path fill="none" stroke="midnightblue" d="M73.3533,-112.083C71.6306,-104.927 69.1529,-94.6353 66.9997,-85.6911"/>
<polygon fill="midnightblue" stroke="midnightblue" points="70.3501,-84.6541 64.6067,-75.7511 63.5446,-86.2925 70.3501,-84.6541"/>
</g>
<!-- Node15&#45;&gt;Node14 -->
<g id="edge17" class="edge"><title>Node15&#45;&gt;Node14</title>
<path fill="none" stroke="midnightblue" d="M94.9829,-56.4435C130.22,-47.1616 186.604,-32.3093 225.259,-22.127"/>
<polygon fill="midnightblue" stroke="midnightblue" points="226.391,-25.4483 235.169,-19.5164 224.607,-18.6792 226.391,-25.4483"/>
</g>
<!-- Node16 -->
<g id="node16" class="node"><title>Node16</title>
<polygon fill="white" stroke="#bfbfbf" points="109.5,-0.5 109.5,-19.5 153.5,-19.5 153.5,-0.5 109.5,-0.5"/>
<text text-anchor="middle" x="131.5" y="-7.5" font-family="Helvetica,sans-Serif" font-size="10.00">time.h</text>
</g>
<!-- Node15&#45;&gt;Node16 -->
<g id="edge18" class="edge"><title>Node15&#45;&gt;Node16</title>
<path fill="none" stroke="midnightblue" d="M73.586,-56.324C83.986,-48.1849 99.7606,-35.8395 112.222,-26.0874"/>
<polygon fill="midnightblue" stroke="midnightblue" points="114.494,-28.7533 120.212,-19.8339 110.18,-23.2407 114.494,-28.7533"/>
</g>
<!-- Node17&#45;&gt;Node4 -->
<g id="edge23" class="edge"><title>Node17&#45;&gt;Node4</title>
<path fill="none" stroke="midnightblue" d="M576.879,-168.324C562.551,-159.822 540.487,-146.729 523.751,-136.797"/>
<polygon fill="midnightblue" stroke="midnightblue" points="525.47,-133.748 515.084,-131.655 521.898,-139.768 525.47,-133.748"/>
</g>
<!-- Node17&#45;&gt;Node11 -->
<g id="edge22" class="edge"><title>Node17&#45;&gt;Node11</title>
<path fill="none" stroke="midnightblue" d="M524.341,-168.942C464.448,-161.342 374.197,-148.876 287.171,-132.188"/>
<polygon fill="midnightblue" stroke="midnightblue" points="287.609,-128.708 277.126,-130.24 286.276,-135.58 287.609,-128.708"/>
</g>
<!-- Node18 -->
<g id="node18" class="node"><title>Node18</title>
<polygon fill="white" stroke="#bfbfbf" points="539.5,-112.5 539.5,-131.5 601.5,-131.5 601.5,-112.5 539.5,-112.5"/>
<text text-anchor="middle" x="570.5" y="-119.5" font-family="Helvetica,sans-Serif" font-size="10.00">arpa/inet.h</text>
</g>
<!-- Node17&#45;&gt;Node18 -->
<g id="edge20" class="edge"><title>Node17&#45;&gt;Node18</title>
<path fill="none" stroke="midnightblue" d="M588.032,-168.083C585.188,-160.77 581.071,-150.181 577.54,-141.103"/>
<polygon fill="midnightblue" stroke="midnightblue" points="580.79,-139.803 573.903,-131.751 574.266,-142.34 580.79,-139.803"/>
</g>
<!-- Node19 -->
<g id="node19" class="node"><title>Node19</title>
<polygon fill="white" stroke="#bfbfbf" points="620,-112.5 620,-131.5 685,-131.5 685,-112.5 620,-112.5"/>
<text text-anchor="middle" x="652.5" y="-119.5" font-family="Helvetica,sans-Serif" font-size="10.00">netinet/ip.h</text>
</g>
<!-- Node17&#45;&gt;Node19 -->
<g id="edge21" class="edge"><title>Node17&#45;&gt;Node19</title>
<path fill="none" stroke="midnightblue" d="M601.301,-168.324C610.318,-160.341 623.906,-148.313 634.818,-138.653"/>
<polygon fill="midnightblue" stroke="midnightblue" points="637.353,-141.083 642.521,-131.834 632.713,-135.842 637.353,-141.083"/>
</g>
<!-- Node20&#45;&gt;Node3 -->
<g id="edge25" class="edge"><title>Node20&#45;&gt;Node3</title>
<path fill="none" stroke="midnightblue" d="M71.4651,-168.444C92.1091,-159.596 124.563,-145.687 148.132,-135.586"/>
<polygon fill="midnightblue" stroke="midnightblue" points="149.816,-138.673 157.628,-131.516 147.058,-132.239 149.816,-138.673"/>
</g>
<!-- Node21&#45;&gt;Node4 -->
<g id="edge27" class="edge"><title>Node21&#45;&gt;Node4</title>
<path fill="none" stroke="midnightblue" d="M682.978,-168.48C646.09,-160.362 589.313,-147.447 530.881,-131.972"/>
<polygon fill="midnightblue" stroke="midnightblue" points="531.674,-128.561 521.11,-129.364 529.869,-135.324 531.674,-128.561"/>
</g>
<!-- Node22 -->
<g id="node22" class="node"><title>Node22</title>
<polygon fill="white" stroke="#bfbfbf" points="703.5,-112.5 703.5,-131.5 753.5,-131.5 753.5,-112.5 703.5,-112.5"/>
<text text-anchor="middle" x="728.5" y="-119.5" font-family="Helvetica,sans-Serif" font-size="10.00">fstream</text>
</g>
<!-- Node21&#45;&gt;Node22 -->
<g id="edge28" class="edge"><title>Node21&#45;&gt;Node22</title>
<path fill="none" stroke="midnightblue" d="M723.491,-168.083C724.286,-160.927 725.429,-150.635 726.423,-141.691"/>
<polygon fill="midnightblue" stroke="midnightblue" points="729.902,-142.076 727.528,-131.751 722.945,-141.303 729.902,-142.076"/>
</g>
<!-- Node24&#45;&gt;Node3 -->
<g id="edge32" class="edge"><title>Node24&#45;&gt;Node3</title>
<path fill="none" stroke="midnightblue" d="M308.781,-168.444C282.652,-159.399 241.241,-145.064 211.924,-134.916"/>
<polygon fill="midnightblue" stroke="midnightblue" points="212.698,-131.48 202.103,-131.516 210.408,-138.095 212.698,-131.48"/>
</g>
<!-- Node24&#45;&gt;Node4 -->
<g id="edge33" class="edge"><title>Node24&#45;&gt;Node4</title>
<path fill="none" stroke="midnightblue" d="M359.962,-168.444C390.004,-158.729 438.916,-142.913 470.392,-132.735"/>
<polygon fill="midnightblue" stroke="midnightblue" points="471.515,-136.051 479.953,-129.644 469.361,-129.39 471.515,-136.051"/>
</g>
<!-- Node24&#45;&gt;Node11 -->
<g id="edge31" class="edge"><title>Node24&#45;&gt;Node11</title>
<path fill="none" stroke="midnightblue" d="M319.843,-168.324C306.584,-159.9 286.232,-146.971 270.654,-137.074"/>
<polygon fill="midnightblue" stroke="midnightblue" points="272.44,-134.063 262.123,-131.655 268.687,-139.971 272.44,-134.063"/>
</g>
<!-- Node25 -->
<g id="node25" class="node"><title>Node25</title>
<g id="a_node25"><a xlink:href="ExponentialSmoothingCalculator_8h.html" target="_top" xlink:title="ExponentialSmoothingCalculator.h">
<polygon fill="white" stroke="black" points="295,-112.5 295,-131.5 462,-131.5 462,-112.5 295,-112.5"/>
<text text-anchor="middle" x="378.5" y="-119.5" font-family="Helvetica,sans-Serif" font-size="10.00">ExponentialSmoothingCalculator.h</text>
</a>
</g>
</g>
<!-- Node24&#45;&gt;Node25 -->
<g id="edge34" class="edge"><title>Node24&#45;&gt;Node25</title>
<path fill="none" stroke="midnightblue" d="M340.931,-168.083C347.353,-160.377 356.806,-149.033 364.622,-139.653"/>
<polygon fill="midnightblue" stroke="midnightblue" points="367.494,-141.674 371.207,-131.751 362.117,-137.193 367.494,-141.674"/>
</g>
<!-- Node25&#45;&gt;Node13 -->
<g id="edge35" class="edge"><title>Node25&#45;&gt;Node13</title>
<path fill="none" stroke="midnightblue" d="M350.612,-112.444C318.462,-102.579 265.808,-86.424 232.708,-76.2685"/>
<polygon fill="midnightblue" stroke="midnightblue" points="233.695,-72.9102 223.108,-73.323 231.642,-79.6023 233.695,-72.9102"/>
</g>
<!-- Node25&#45;&gt;Node14 -->
<g id="edge36" class="edge"><title>Node25&#45;&gt;Node14</title>
<path fill="none" stroke="midnightblue" d="M380.254,-112.469C382.5,-99.0638 384.768,-72.8617 372.5,-56 360.726,-39.8167 341.919,-29.3996 323.454,-22.7175"/>
<polygon fill="midnightblue" stroke="midnightblue" points="324.461,-19.3642 313.868,-19.5529 322.266,-26.0114 324.461,-19.3642"/>
</g>
<!-- Node26 -->
<g id="node26" class="node"><title>Node26</title>
<g id="a_node26"><a xlink:href="ExponentialSmoothing_8h.html" target="_top" xlink:title="ExponentialSmoothing.h">
<polygon fill="white" stroke="black" points="241.5,-56.5 241.5,-75.5 363.5,-75.5 363.5,-56.5 241.5,-56.5"/>
<text text-anchor="middle" x="302.5" y="-63.5" font-family="Helvetica,sans-Serif" font-size="10.00">ExponentialSmoothing.h</text>
</a>
</g>
</g>
<!-- Node25&#45;&gt;Node26 -->
<g id="edge37" class="edge"><title>Node25&#45;&gt;Node26</title>
<path fill="none" stroke="midnightblue" d="M366.289,-112.324C354.724,-104.107 337.125,-91.6017 323.339,-81.8069"/>
<polygon fill="midnightblue" stroke="midnightblue" points="325.112,-78.7729 314.933,-75.8339 321.057,-84.4791 325.112,-78.7729"/>
</g>
<!-- Node26&#45;&gt;Node14 -->
<g id="edge39" class="edge"><title>Node26&#45;&gt;Node14</title>
<path fill="none" stroke="midnightblue" d="M296.72,-56.083C291.828,-48.5341 284.673,-37.4948 278.667,-28.2298"/>
<polygon fill="midnightblue" stroke="midnightblue" points="281.548,-26.239 273.172,-19.7511 275.674,-30.0463 281.548,-26.239"/>
</g>
<!-- Node26&#45;&gt;Node16 -->
<g id="edge38" class="edge"><title>Node26&#45;&gt;Node16</title>
<path fill="none" stroke="midnightblue" d="M275.405,-56.4435C244.982,-46.8366 195.664,-31.2622 163.404,-21.0749"/>
<polygon fill="midnightblue" stroke="midnightblue" points="164.165,-17.6448 153.575,-17.971 162.057,-24.3199 164.165,-17.6448"/>
</g>
</g>
</svg>
