<?xml version="1.0" encoding="UTF-8" standalone="no"?>
<!DOCTYPE svg PUBLIC "-//W3C//DTD SVG 1.1//EN"
 "http://www.w3.org/Graphics/SVG/1.1/DTD/svg11.dtd">
<!-- Generated by graphviz version 2.40.1 (20161225.0304)
 -->
<!-- Title: main.cpp Pages: 1 -->
<svg width="1261pt" height="143pt"
 viewBox="0.00 0.00 1260.95 143.00" xmlns="http://www.w3.org/2000/svg" xmlns:xlink="http://www.w3.org/1999/xlink">
<g id="graph0" class="graph" transform="scale(1 1) rotate(0) translate(4 139)">
<title>main.cpp</title>
<polygon fill="#ffffff" stroke="transparent" points="-4,4 -4,-139 1256.9535,-139 1256.9535,4 -4,4"/>
<!-- Node0 -->
<g id="node1" class="node">
<title>Node0</title>
<polygon fill="#bfbfbf" stroke="#000000" points="568.4455,-114.5 568.4455,-134.5 625.0085,-134.5 625.0085,-114.5 568.4455,-114.5"/>
<text text-anchor="middle" x="596.727" y="-121.5" font-family="Helvetica,sans-Serif" font-size="10.00" fill="#000000">main.cpp</text>
</g>
<!-- Node1 -->
<g id="node2" class="node">
<title>Node1</title>
<polygon fill="#ffffff" stroke="#bfbfbf" points="0,-57.5 0,-77.5 45.454,-77.5 45.454,-57.5 0,-57.5"/>
<text text-anchor="middle" x="22.727" y="-64.5" font-family="Helvetica,sans-Serif" font-size="10.00" fill="#000000">stdio.h</text>
</g>
<!-- Node0&#45;&gt;Node1 -->
<g id="edge1" class="edge">
<title>Node0&#45;&gt;Node1</title>
<path fill="none" stroke="#191970" d="M568.148,-122.9238C473.925,-117.5944 172.9081,-99.4775 55.7244,-77.6997"/>
<polygon fill="#191970" stroke="#191970" points="56.1142,-74.2095 45.6273,-75.7181 54.7661,-81.0785 56.1142,-74.2095"/>
</g>
<!-- Node2 -->
<g id="node3" class="node">
<title>Node2</title>
<polygon fill="#ffffff" stroke="#bfbfbf" points="63.8905,-57.5 63.8905,-77.5 111.5635,-77.5 111.5635,-57.5 63.8905,-57.5"/>
<text text-anchor="middle" x="87.727" y="-64.5" font-family="Helvetica,sans-Serif" font-size="10.00" fill="#000000">stdlib.h</text>
</g>
<!-- Node0&#45;&gt;Node2 -->
<g id="edge2" class="edge">
<title>Node0&#45;&gt;Node2</title>
<path fill="none" stroke="#191970" d="M568.4428,-123.9051C495.4972,-121.9157 295.0894,-113.565 121.5006,-78.0328"/>
<polygon fill="#191970" stroke="#191970" points="122.1887,-74.6011 111.6851,-75.9882 120.7612,-81.454 122.1887,-74.6011"/>
</g>
<!-- Node3 -->
<g id="node4" class="node">
<title>Node3</title>
<polygon fill="#ffffff" stroke="#bfbfbf" points="129.2205,-57.5 129.2205,-77.5 180.2335,-77.5 180.2335,-57.5 129.2205,-57.5"/>
<text text-anchor="middle" x="154.727" y="-64.5" font-family="Helvetica,sans-Serif" font-size="10.00" fill="#000000">unistd.h</text>
</g>
<!-- Node0&#45;&gt;Node3 -->
<g id="edge3" class="edge">
<title>Node0&#45;&gt;Node3</title>
<path fill="none" stroke="#191970" d="M568.3287,-122.9957C503.1467,-119.1745 337.7546,-107.3826 190.6961,-77.8793"/>
<polygon fill="#191970" stroke="#191970" points="191.0875,-74.3872 180.5897,-75.8175 189.6882,-81.2459 191.0875,-74.3872"/>
</g>
<!-- Node4 -->
<g id="node5" class="node">
<title>Node4</title>
<polygon fill="#ffffff" stroke="#bfbfbf" points="198.3895,-57.5 198.3895,-77.5 251.0645,-77.5 251.0645,-57.5 198.3895,-57.5"/>
<text text-anchor="middle" x="224.727" y="-64.5" font-family="Helvetica,sans-Serif" font-size="10.00" fill="#000000">syslog.h</text>
</g>
<!-- Node0&#45;&gt;Node4 -->
<g id="edge4" class="edge">
<title>Node0&#45;&gt;Node4</title>
<path fill="none" stroke="#191970" d="M568.1627,-121.9699C511.487,-116.6468 380.7214,-102.8557 261.3879,-77.8707"/>
<polygon fill="#191970" stroke="#191970" points="261.8619,-74.3933 251.3526,-75.7369 260.406,-81.2402 261.8619,-74.3933"/>
</g>
<!-- Node5 -->
<g id="node6" class="node">
<title>Node5</title>
<polygon fill="#ffffff" stroke="#bfbfbf" points="269.39,-57.5 269.39,-77.5 312.064,-77.5 312.064,-57.5 269.39,-57.5"/>
<text text-anchor="middle" x="290.727" y="-64.5" font-family="Helvetica,sans-Serif" font-size="10.00" fill="#000000">fcntl.h</text>
</g>
<!-- Node0&#45;&gt;Node5 -->
<g id="edge5" class="edge">
<title>Node0&#45;&gt;Node5</title>
<path fill="none" stroke="#191970" d="M568.2788,-120.3346C510.964,-111.8459 382.5317,-92.3125 322.0163,-77.9517"/>
<polygon fill="#191970" stroke="#191970" points="322.7718,-74.533 312.2225,-75.5144 321.0813,-81.3258 322.7718,-74.533"/>
</g>
<!-- Node6 -->
<g id="node7" class="node">
<title>Node6</title>
<polygon fill="#ffffff" stroke="#bfbfbf" points="330,-57.5 330,-77.5 375.454,-77.5 375.454,-57.5 330,-57.5"/>
<text text-anchor="middle" x="352.727" y="-64.5" font-family="Helvetica,sans-Serif" font-size="10.00" fill="#000000">dlfcn.h</text>
</g>
<!-- Node0&#45;&gt;Node6 -->
<g id="edge6" class="edge">
<title>Node0&#45;&gt;Node6</title>
<path fill="none" stroke="#191970" d="M568.2276,-119.3284C528.9821,-111.9807 455.9547,-97.4992 385.5713,-78.323"/>
<polygon fill="#191970" stroke="#191970" points="386.2321,-74.8745 375.6612,-75.5862 384.3687,-81.622 386.2321,-74.8745"/>
</g>
<!-- Node7 -->
<g id="node8" class="node">
<title>Node7</title>
<polygon fill="#ffffff" stroke="#bfbfbf" points="393.22,-57.5 393.22,-77.5 464.234,-77.5 464.234,-57.5 393.22,-57.5"/>
<text text-anchor="middle" x="428.727" y="-64.5" font-family="Helvetica,sans-Serif" font-size="10.00" fill="#000000">sys/socket.h</text>
</g>
<!-- Node0&#45;&gt;Node7 -->
<g id="edge7" class="edge">
<title>Node0&#45;&gt;Node7</title>
<path fill="none" stroke="#191970" d="M568.2281,-114.8307C540.6053,-105.4587 498.489,-91.1693 467.7587,-80.7429"/>
<polygon fill="#191970" stroke="#191970" points="468.8085,-77.4032 458.2142,-77.5046 466.5594,-84.032 468.8085,-77.4032"/>
</g>
<!-- Node8 -->
<g id="node9" class="node">
<title>Node8</title>
<polygon fill="#ffffff" stroke="#bfbfbf" points="482.273,-57.5 482.273,-77.5 547.181,-77.5 547.181,-57.5 482.273,-57.5"/>
<text text-anchor="middle" x="514.727" y="-64.5" font-family="Helvetica,sans-Serif" font-size="10.00" fill="#000000">netinet/in.h</text>
</g>
<!-- Node0&#45;&gt;Node8 -->
<g id="edge8" class="edge">
<title>Node0&#45;&gt;Node8</title>
<path fill="none" stroke="#191970" d="M582.067,-114.3095C569.7068,-105.7177 551.8079,-93.2758 537.5699,-83.3786"/>
<polygon fill="#191970" stroke="#191970" points="539.4689,-80.4361 529.26,-77.6022 535.4734,-86.1839 539.4689,-80.4361"/>
</g>
<!-- Node9 -->
<g id="node10" class="node">
<title>Node9</title>
<polygon fill="#ffffff" stroke="#bfbfbf" points="565.1075,-57.5 565.1075,-77.5 628.3465,-77.5 628.3465,-57.5 565.1075,-57.5"/>
<text text-anchor="middle" x="596.727" y="-64.5" font-family="Helvetica,sans-Serif" font-size="10.00" fill="#000000">arpa/inet.h</text>
</g>
<!-- Node0&#45;&gt;Node9 -->
<g id="edge9" class="edge">
<title>Node0&#45;&gt;Node9</title>
<path fill="none" stroke="#191970" d="M596.727,-114.3095C596.727,-106.9335 596.727,-96.72 596.727,-87.715"/>
<polygon fill="#191970" stroke="#191970" points="600.2271,-87.6022 596.727,-77.6022 593.2271,-87.6023 600.2271,-87.6022"/>
</g>
<!-- Node10 -->
<g id="node11" class="node">
<title>Node10</title>
<polygon fill="#ffffff" stroke="#bfbfbf" points="634.5045,-.5 634.5045,-20.5 674.9495,-20.5 674.9495,-.5 634.5045,-.5"/>
<text text-anchor="middle" x="654.727" y="-7.5" font-family="Helvetica,sans-Serif" font-size="10.00" fill="#000000">string</text>
</g>
<!-- Node0&#45;&gt;Node10 -->
<g id="edge10" class="edge">
<title>Node0&#45;&gt;Node10</title>
<path fill="none" stroke="#191970" d="M608.4987,-114.1804C617.7616,-105.4338 630.3054,-92.0944 637.727,-78 645.5463,-63.1503 649.8848,-44.5477 652.218,-30.634"/>
<polygon fill="#191970" stroke="#191970" points="655.6951,-31.0449 653.6873,-20.642 648.7696,-30.0264 655.6951,-31.0449"/>
</g>
<!-- Node11 -->
<g id="node12" class="node">
<title>Node11</title>
<polygon fill="#ffffff" stroke="#bfbfbf" points="994.8905,-57.5 994.8905,-77.5 1042.5635,-77.5 1042.5635,-57.5 994.8905,-57.5"/>
<text text-anchor="middle" x="1018.727" y="-64.5" font-family="Helvetica,sans-Serif" font-size="10.00" fill="#000000">errno.h</text>
</g>
<!-- Node0&#45;&gt;Node11 -->
<g id="edge11" class="edge">
<title>Node0&#45;&gt;Node11</title>
<path fill="none" stroke="#191970" d="M625.3416,-122.936C688.6194,-119.0844 845.2146,-107.39 984.7064,-77.8736"/>
<polygon fill="#191970" stroke="#191970" points="985.6797,-81.2443 994.7187,-75.7175 984.206,-74.4012 985.6797,-81.2443"/>
</g>
<!-- Node12 -->
<g id="node13" class="node">
<title>Node12</title>
<polygon fill="#ffffff" stroke="#bfbfbf" points="693.06,-.5 693.06,-20.5 742.394,-20.5 742.394,-.5 693.06,-.5"/>
<text text-anchor="middle" x="717.727" y="-7.5" font-family="Helvetica,sans-Serif" font-size="10.00" fill="#000000">fstream</text>
</g>
<!-- Node0&#45;&gt;Node12 -->
<g id="edge12" class="edge">
<title>Node0&#45;&gt;Node12</title>
<path fill="none" stroke="#191970" d="M610.8301,-114.3859C623.1163,-105.3444 641.1905,-91.4786 655.727,-78 672.7331,-62.2315 690.4718,-42.5385 702.5964,-28.5009"/>
<polygon fill="#191970" stroke="#191970" points="705.5308,-30.4544 709.3634,-20.577 700.2077,-25.9084 705.5308,-30.4544"/>
</g>
<!-- Node13 -->
<g id="node14" class="node">
<title>Node13</title>
<polygon fill="#ffffff" stroke="#bfbfbf" points="1060.9495,-57.5 1060.9495,-77.5 1112.5045,-77.5 1112.5045,-57.5 1060.9495,-57.5"/>
<text text-anchor="middle" x="1086.727" y="-64.5" font-family="Helvetica,sans-Serif" font-size="10.00" fill="#000000">sstream</text>
</g>
<!-- Node0&#45;&gt;Node13 -->
<g id="edge13" class="edge">
<title>Node0&#45;&gt;Node13</title>
<path fill="none" stroke="#191970" d="M625.2251,-123.4636C695.8974,-120.4972 884.8976,-110.1426 1050.9749,-77.8111"/>
<polygon fill="#191970" stroke="#191970" points="1051.7412,-81.2275 1060.8715,-75.8527 1050.3822,-74.3606 1051.7412,-81.2275"/>
</g>
<!-- Node14 -->
<g id="node15" class="node">
<title>Node14</title>
<polygon fill="#ffffff" stroke="#bfbfbf" points="1130.5605,-57.5 1130.5605,-77.5 1184.8935,-77.5 1184.8935,-57.5 1130.5605,-57.5"/>
<text text-anchor="middle" x="1157.727" y="-64.5" font-family="Helvetica,sans-Serif" font-size="10.00" fill="#000000">iostream</text>
</g>
<!-- Node0&#45;&gt;Node14 -->
<g id="edge14" class="edge">
<title>Node0&#45;&gt;Node14</title>
<path fill="none" stroke="#191970" d="M625.1636,-123.9295C703.0976,-121.956 926.6442,-113.5461 1120.2719,-77.9664"/>
<polygon fill="#191970" stroke="#191970" points="1121.156,-81.3619 1130.3437,-76.0858 1119.8711,-74.4808 1121.156,-81.3619"/>
</g>
<!-- Node15 -->
<g id="node16" class="node">
<title>Node15</title>
<polygon fill="#ffffff" stroke="#bfbfbf" points="1202.5005,-57.5 1202.5005,-77.5 1252.9535,-77.5 1252.9535,-57.5 1202.5005,-57.5"/>
<text text-anchor="middle" x="1227.727" y="-64.5" font-family="Helvetica,sans-Serif" font-size="10.00" fill="#000000">signal.h</text>
</g>
<!-- Node0&#45;&gt;Node15 -->
<g id="edge15" class="edge">
<title>Node0&#45;&gt;Node15</title>
<path fill="none" stroke="#191970" d="M625.2815,-123.1174C725.8528,-118.1203 1064.0563,-100.204 1192.3118,-77.8544"/>
<polygon fill="#191970" stroke="#191970" points="1193.0567,-81.2762 1202.2609,-76.029 1191.7935,-74.3911 1193.0567,-81.2762"/>
</g>
<!-- Node16 -->
<g id="node17" class="node">
<title>Node16</title>
<g id="a_node17"><a xlink:href="ExponentialSmoothing_8h.html" target="_top" xlink:title="ExponentialSmoothing.h">
<polygon fill="#ffffff" stroke="#000000" points="852.5425,-57.5 852.5425,-77.5 976.9115,-77.5 976.9115,-57.5 852.5425,-57.5"/>
<text text-anchor="middle" x="914.727" y="-64.5" font-family="Helvetica,sans-Serif" font-size="10.00" fill="#000000">ExponentialSmoothing.h</text>
</a>
</g>
</g>
<!-- Node0&#45;&gt;Node16 -->
<g id="edge16" class="edge">
<title>Node0&#45;&gt;Node16</title>
<path fill="none" stroke="#191970" d="M625.2272,-119.3915C675.2838,-110.4191 780.2023,-91.6129 849.0282,-79.2762"/>
<polygon fill="#191970" stroke="#191970" points="849.6846,-82.7144 858.9102,-77.5049 848.4495,-75.8242 849.6846,-82.7144"/>
</g>
<!-- Node19 -->
<g id="node20" class="node">
<title>Node19</title>
<g id="a_node20"><a xlink:href="DataRateCalculator_8h.html" target="_top" xlink:title="DataRateCalculator.h">
<polygon fill="#ffffff" stroke="#000000" points="722.9415,-57.5 722.9415,-77.5 834.5125,-77.5 834.5125,-57.5 722.9415,-57.5"/>
<text text-anchor="middle" x="778.727" y="-64.5" font-family="Helvetica,sans-Serif" font-size="10.00" fill="#000000">DataRateCalculator.h</text>
</a>
</g>
</g>
<!-- Node0&#45;&gt;Node19 -->
<g id="edge19" class="edge">
<title>Node0&#45;&gt;Node19</title>
<path fill="none" stroke="#191970" d="M625.1645,-115.5938C655.1013,-106.2179 702.5466,-91.3587 736.7811,-80.6369"/>
<polygon fill="#191970" stroke="#191970" points="738.0066,-83.9208 746.5034,-77.592 735.9144,-77.2408 738.0066,-83.9208"/>
</g>
<!-- Node17 -->
<g id="node18" class="node">
<title>Node17</title>
<g id="a_node18"><a xlink:href="CurrentAndLastValues_8h.html" target="_top" xlink:title="CurrentAndLastValues.h">
<polygon fill="#ffffff" stroke="#000000" points="818.267,-.5 818.267,-20.5 943.187,-20.5 943.187,-.5 818.267,-.5"/>
<text text-anchor="middle" x="880.727" y="-7.5" font-family="Helvetica,sans-Serif" font-size="10.00" fill="#000000">CurrentAndLastValues.h</text>
</a>
</g>
</g>
<!-- Node16&#45;&gt;Node17 -->
<g id="edge17" class="edge">
<title>Node16&#45;&gt;Node17</title>
<path fill="none" stroke="#191970" d="M908.6485,-57.3095C904.007,-49.5282 897.4819,-38.589 891.9066,-29.2423"/>
<polygon fill="#191970" stroke="#191970" points="894.8816,-27.3975 886.7529,-20.6022 888.8699,-30.9834 894.8816,-27.3975"/>
</g>
<!-- Node18 -->
<g id="node19" class="node">
<title>Node18</title>
<polygon fill="#ffffff" stroke="#bfbfbf" points="961.115,-.5 961.115,-20.5 1004.339,-20.5 1004.339,-.5 961.115,-.5"/>
<text text-anchor="middle" x="982.727" y="-7.5" font-family="Helvetica,sans-Serif" font-size="10.00" fill="#000000">time.h</text>
</g>
<!-- Node16&#45;&gt;Node18 -->
<g id="edge18" class="edge">
<title>Node16&#45;&gt;Node18</title>
<path fill="none" stroke="#191970" d="M926.884,-57.3095C936.8439,-48.9608 951.1405,-36.9769 962.7745,-27.2249"/>
<polygon fill="#191970" stroke="#191970" points="965.2599,-29.7086 970.6752,-20.6022 960.7631,-24.344 965.2599,-29.7086"/>
</g>
<!-- Node19&#45;&gt;Node10 -->
<g id="edge20" class="edge">
<title>Node19&#45;&gt;Node10</title>
<path fill="none" stroke="#191970" d="M756.8437,-57.4408C736.7362,-48.1978 706.7633,-34.4199 684.4853,-24.1792"/>
<polygon fill="#191970" stroke="#191970" points="685.7053,-20.888 675.1575,-19.8914 682.7817,-27.2482 685.7053,-20.888"/>
</g>
<!-- Node19&#45;&gt;Node12 -->
<g id="edge21" class="edge">
<title>Node19&#45;&gt;Node12</title>
<path fill="none" stroke="#191970" d="M767.8214,-57.3095C758.9736,-49.0419 746.3106,-37.2093 735.9302,-27.5096"/>
<polygon fill="#191970" stroke="#191970" points="738.2344,-24.8724 728.5382,-20.6022 733.4551,-29.987 738.2344,-24.8724"/>
</g>
<!-- Node19&#45;&gt;Node17 -->
<g id="edge23" class="edge">
<title>Node19&#45;&gt;Node17</title>
<path fill="none" stroke="#191970" d="M796.9626,-57.3095C812.7726,-48.4745 835.8677,-35.5684 853.8052,-25.5445"/>
<polygon fill="#191970" stroke="#191970" points="855.6273,-28.5358 862.6493,-20.6022 852.2125,-22.4252 855.6273,-28.5358"/>
</g>
<!-- Node20 -->
<g id="node21" class="node">
<title>Node20</title>
<polygon fill="#ffffff" stroke="#bfbfbf" points="760.784,-.5 760.784,-20.5 800.67,-20.5 800.67,-.5 760.784,-.5"/>
<text text-anchor="middle" x="780.727" y="-7.5" font-family="Helvetica,sans-Serif" font-size="10.00" fill="#000000">ctime</text>
</g>
<!-- Node19&#45;&gt;Node20 -->
<g id="edge22" class="edge">
<title>Node19&#45;&gt;Node20</title>
<path fill="none" stroke="#191970" d="M779.0846,-57.3095C779.3434,-49.9335 779.7017,-39.72 780.0177,-30.715"/>
<polygon fill="#191970" stroke="#191970" points="783.5196,-30.7188 780.3725,-20.6022 776.5239,-30.4733 783.5196,-30.7188"/>
</g>
</g>
</svg>
