<?xml version="1.0" encoding="UTF-8" standalone="no"?>
<!DOCTYPE svg PUBLIC "-//W3C//DTD SVG 1.1//EN"
 "http://www.w3.org/Graphics/SVG/1.1/DTD/svg11.dtd">
<!-- Generated by graphviz version 2.38.0 (20140413.2041)
 -->
<!-- Title: MainObject.cpp Pages: 1 -->
<svg width="1200pt" height="252pt"
 viewBox="0.00 0.00 1199.50 252.00" xmlns="http://www.w3.org/2000/svg" xmlns:xlink="http://www.w3.org/1999/xlink">
<g id="graph0" class="graph" transform="scale(1 1) rotate(0) translate(4 248)">
<title>MainObject.cpp</title>
<polygon fill="white" stroke="none" points="-4,4 -4,-248 1195.5,-248 1195.5,4 -4,4"/>
<!-- Node1 -->
<g id="node1" class="node"><title>Node1</title>
<polygon fill="#bfbfbf" stroke="black" points="676.5,-224.5 676.5,-243.5 761.5,-243.5 761.5,-224.5 676.5,-224.5"/>
<text text-anchor="middle" x="719" y="-231.5" font-family="Helvetica,sans-Serif" font-size="10.00">MainObject.cpp</text>
</g>
<!-- Node2 -->
<g id="node2" class="node"><title>Node2</title>
<g id="a_node2"><a xlink:href="MainObject_8h.html" target="_top" xlink:title="MainObject.h">
<polygon fill="white" stroke="black" points="63,-168.5 63,-187.5 137,-187.5 137,-168.5 63,-168.5"/>
<text text-anchor="middle" x="100" y="-175.5" font-family="Helvetica,sans-Serif" font-size="10.00">MainObject.h</text>
</a>
</g>
</g>
<!-- Node1&#45;&gt;Node2 -->
<g id="edge1" class="edge"><title>Node1&#45;&gt;Node2</title>
<path fill="none" stroke="midnightblue" d="M676.41,-231.33C582.584,-227.29 350.866,-215.343 147.085,-187.994"/>
<polygon fill="midnightblue" stroke="midnightblue" points="147.476,-184.515 137.096,-186.637 146.534,-191.451 147.476,-184.515"/>
</g>
<!-- Node4 -->
<g id="node4" class="node"><title>Node4</title>
<polygon fill="white" stroke="#bfbfbf" points="1064,-168.5 1064,-187.5 1116,-187.5 1116,-168.5 1064,-168.5"/>
<text text-anchor="middle" x="1090" y="-175.5" font-family="Helvetica,sans-Serif" font-size="10.00">sstream</text>
</g>
<!-- Node1&#45;&gt;Node4 -->
<g id="edge3" class="edge"><title>Node1&#45;&gt;Node4</title>
<path fill="none" stroke="midnightblue" d="M761.696,-228.921C823.893,-222.621 943.187,-209.188 1053.72,-188.053"/>
<polygon fill="midnightblue" stroke="midnightblue" points="1054.55,-191.457 1063.7,-186.119 1053.22,-184.585 1054.55,-191.457"/>
</g>
<!-- Node5 -->
<g id="node5" class="node"><title>Node5</title>
<g id="a_node5"><a xlink:href="BandwidthCalculator_8h.html" target="_top" xlink:title="BandwidthCalculator.h">
<polygon fill="white" stroke="black" points="334.5,-168.5 334.5,-187.5 449.5,-187.5 449.5,-168.5 334.5,-168.5"/>
<text text-anchor="middle" x="392" y="-175.5" font-family="Helvetica,sans-Serif" font-size="10.00">BandwidthCalculator.h</text>
</a>
</g>
</g>
<!-- Node1&#45;&gt;Node5 -->
<g id="edge4" class="edge"><title>Node1&#45;&gt;Node5</title>
<path fill="none" stroke="midnightblue" d="M676.25,-225.94C619.475,-216.565 518.809,-199.941 453.773,-189.201"/>
<polygon fill="midnightblue" stroke="midnightblue" points="454.09,-185.706 443.653,-187.53 452.949,-192.613 454.09,-185.706"/>
</g>
<!-- Node14 -->
<g id="node14" class="node"><title>Node14</title>
<g id="a_node14"><a xlink:href="BandwidthCommunicator_8h.html" target="_top" xlink:title="BandwidthCommunicator.h">
<polygon fill="white" stroke="black" points="587,-168.5 587,-187.5 721,-187.5 721,-168.5 587,-168.5"/>
<text text-anchor="middle" x="654" y="-175.5" font-family="Helvetica,sans-Serif" font-size="10.00">BandwidthCommunicator.h</text>
</a>
</g>
</g>
<!-- Node1&#45;&gt;Node14 -->
<g id="edge15" class="edge"><title>Node1&#45;&gt;Node14</title>
<path fill="none" stroke="midnightblue" d="M708.557,-224.324C698.854,-216.263 684.185,-204.077 672.5,-194.369"/>
<polygon fill="midnightblue" stroke="midnightblue" points="674.562,-191.532 664.633,-187.834 670.089,-196.916 674.562,-191.532"/>
</g>
<!-- Node17 -->
<g id="node17" class="node"><title>Node17</title>
<g id="a_node17"><a xlink:href="BandwidthValues_8h.html" target="_top" xlink:title="BandwidthValues.h">
<polygon fill="white" stroke="black" points="467.5,-168.5 467.5,-187.5 568.5,-187.5 568.5,-168.5 467.5,-168.5"/>
<text text-anchor="middle" x="518" y="-175.5" font-family="Helvetica,sans-Serif" font-size="10.00">BandwidthValues.h</text>
</a>
</g>
</g>
<!-- Node1&#45;&gt;Node17 -->
<g id="edge21" class="edge"><title>Node1&#45;&gt;Node17</title>
<path fill="none" stroke="midnightblue" d="M687.151,-224.444C652.602,-215.162 597.318,-200.309 559.417,-190.127"/>
<polygon fill="midnightblue" stroke="midnightblue" points="560.266,-186.731 549.7,-187.516 558.449,-193.491 560.266,-186.731"/>
</g>
<!-- Node18 -->
<g id="node18" class="node"><title>Node18</title>
<g id="a_node18"><a xlink:href="HelperMethods_8h.html" target="_top" xlink:title="HelperMethods.h">
<polygon fill="white" stroke="black" points="739.5,-168.5 739.5,-187.5 830.5,-187.5 830.5,-168.5 739.5,-168.5"/>
<text text-anchor="middle" x="785" y="-175.5" font-family="Helvetica,sans-Serif" font-size="10.00">HelperMethods.h</text>
</a>
</g>
</g>
<!-- Node1&#45;&gt;Node18 -->
<g id="edge23" class="edge"><title>Node1&#45;&gt;Node18</title>
<path fill="none" stroke="midnightblue" d="M729.604,-224.324C739.456,-216.263 754.351,-204.077 766.215,-194.369"/>
<polygon fill="midnightblue" stroke="midnightblue" points="768.68,-196.875 774.203,-187.834 764.247,-191.457 768.68,-196.875"/>
</g>
<!-- Node19 -->
<g id="node19" class="node"><title>Node19</title>
<g id="a_node19"><a xlink:href="LoggerFactory_8h.html" target="_top" xlink:title="LoggerFactory.h">
<polygon fill="white" stroke="black" points="848.5,-168.5 848.5,-187.5 935.5,-187.5 935.5,-168.5 848.5,-168.5"/>
<text text-anchor="middle" x="892" y="-175.5" font-family="Helvetica,sans-Serif" font-size="10.00">LoggerFactory.h</text>
</a>
</g>
</g>
<!-- Node1&#45;&gt;Node19 -->
<g id="edge25" class="edge"><title>Node1&#45;&gt;Node19</title>
<path fill="none" stroke="midnightblue" d="M746.412,-224.444C775.769,-215.28 822.519,-200.688 855.096,-190.519"/>
<polygon fill="midnightblue" stroke="midnightblue" points="856.213,-193.837 864.716,-187.516 854.127,-187.155 856.213,-193.837"/>
</g>
<!-- Node20 -->
<g id="node20" class="node"><title>Node20</title>
<g id="a_node20"><a xlink:href="LoggingHandler_8h.html" target="_top" xlink:title="LoggingHandler.h">
<polygon fill="white" stroke="black" points="954,-168.5 954,-187.5 1046,-187.5 1046,-168.5 954,-168.5"/>
<text text-anchor="middle" x="1000" y="-175.5" font-family="Helvetica,sans-Serif" font-size="10.00">LoggingHandler.h</text>
</a>
</g>
</g>
<!-- Node1&#45;&gt;Node20 -->
<g id="edge27" class="edge"><title>Node1&#45;&gt;Node20</title>
<path fill="none" stroke="midnightblue" d="M761.678,-224.799C810.863,-215.347 891.799,-199.793 945.498,-189.474"/>
<polygon fill="midnightblue" stroke="midnightblue" points="946.366,-192.871 955.526,-187.547 945.045,-185.997 946.366,-192.871"/>
</g>
<!-- Node22 -->
<g id="node22" class="node"><title>Node22</title>
<g id="a_node22"><a xlink:href="Macros_8h.html" target="_top" xlink:title="Macros.h">
<polygon fill="white" stroke="black" points="1134.5,-168.5 1134.5,-187.5 1191.5,-187.5 1191.5,-168.5 1134.5,-168.5"/>
<text text-anchor="middle" x="1163" y="-175.5" font-family="Helvetica,sans-Serif" font-size="10.00">Macros.h</text>
</a>
</g>
</g>
<!-- Node1&#45;&gt;Node22 -->
<g id="edge30" class="edge"><title>Node1&#45;&gt;Node22</title>
<path fill="none" stroke="midnightblue" d="M761.617,-229.999C834.093,-224.522 986.112,-211.414 1124.5,-187.871"/>
<polygon fill="midnightblue" stroke="midnightblue" points="1125.18,-191.306 1134.44,-186.158 1123.99,-184.408 1125.18,-191.306"/>
</g>
<!-- Node23 -->
<g id="node23" class="node"><title>Node23</title>
<g id="a_node23"><a xlink:href="WorkConservationFlowHandler_8h.html" target="_top" xlink:title="WorkConservationFlowHandler.h">
<polygon fill="white" stroke="black" points="155.5,-168.5 155.5,-187.5 316.5,-187.5 316.5,-168.5 155.5,-168.5"/>
<text text-anchor="middle" x="236" y="-175.5" font-family="Helvetica,sans-Serif" font-size="10.00">WorkConservationFlowHandler.h</text>
</a>
</g>
</g>
<!-- Node1&#45;&gt;Node23 -->
<g id="edge31" class="edge"><title>Node1&#45;&gt;Node23</title>
<path fill="none" stroke="midnightblue" d="M676.137,-228.208C596.929,-219.352 426.252,-200.27 322.251,-188.643"/>
<polygon fill="midnightblue" stroke="midnightblue" points="322.416,-185.14 312.089,-187.507 321.639,-192.096 322.416,-185.14"/>
</g>
<!-- Node3 -->
<g id="node3" class="node"><title>Node3</title>
<polygon fill="white" stroke="#bfbfbf" points="212.5,-112.5 212.5,-131.5 261.5,-131.5 261.5,-112.5 212.5,-112.5"/>
<text text-anchor="middle" x="237" y="-119.5" font-family="Helvetica,sans-Serif" font-size="10.00">stdint.h</text>
</g>
<!-- Node2&#45;&gt;Node3 -->
<g id="edge2" class="edge"><title>Node2&#45;&gt;Node3</title>
<path fill="none" stroke="midnightblue" d="M121.708,-168.444C144.355,-159.517 180.072,-145.439 205.752,-135.317"/>
<polygon fill="midnightblue" stroke="midnightblue" points="207.374,-138.44 215.394,-131.516 204.807,-131.927 207.374,-138.44"/>
</g>
<!-- Node5&#45;&gt;Node3 -->
<g id="edge7" class="edge"><title>Node5&#45;&gt;Node3</title>
<path fill="none" stroke="midnightblue" d="M367.44,-168.444C341.477,-159.399 300.332,-145.064 271.203,-134.916"/>
<polygon fill="midnightblue" stroke="midnightblue" points="272.04,-131.501 261.445,-131.516 269.737,-138.112 272.04,-131.501"/>
</g>
<!-- Node6 -->
<g id="node6" class="node"><title>Node6</title>
<polygon fill="white" stroke="#bfbfbf" points="494,-112.5 494,-131.5 540,-131.5 540,-112.5 494,-112.5"/>
<text text-anchor="middle" x="517" y="-119.5" font-family="Helvetica,sans-Serif" font-size="10.00">atomic</text>
</g>
<!-- Node5&#45;&gt;Node6 -->
<g id="edge5" class="edge"><title>Node5&#45;&gt;Node6</title>
<path fill="none" stroke="midnightblue" d="M411.807,-168.444C432.287,-159.596 464.483,-145.687 487.865,-135.586"/>
<polygon fill="midnightblue" stroke="midnightblue" points="489.494,-138.695 497.286,-131.516 486.718,-132.269 489.494,-138.695"/>
</g>
<!-- Node7 -->
<g id="node7" class="node"><title>Node7</title>
<polygon fill="white" stroke="#bfbfbf" points="417.5,-112.5 417.5,-131.5 474.5,-131.5 474.5,-112.5 417.5,-112.5"/>
<text text-anchor="middle" x="446" y="-119.5" font-family="Helvetica,sans-Serif" font-size="10.00">pthread.h</text>
</g>
<!-- Node5&#45;&gt;Node7 -->
<g id="edge6" class="edge"><title>Node5&#45;&gt;Node7</title>
<path fill="none" stroke="midnightblue" d="M400.917,-168.083C408.78,-160.22 420.431,-148.569 429.919,-139.081"/>
<polygon fill="midnightblue" stroke="midnightblue" points="432.653,-141.297 437.249,-131.751 427.703,-136.347 432.653,-141.297"/>
</g>
<!-- Node8 -->
<g id="node8" class="node"><title>Node8</title>
<polygon fill="white" stroke="#bfbfbf" points="744.5,-112.5 744.5,-131.5 785.5,-131.5 785.5,-112.5 744.5,-112.5"/>
<text text-anchor="middle" x="765" y="-119.5" font-family="Helvetica,sans-Serif" font-size="10.00">string</text>
</g>
<!-- Node5&#45;&gt;Node8 -->
<g id="edge8" class="edge"><title>Node5&#45;&gt;Node8</title>
<path fill="none" stroke="midnightblue" d="M449.592,-169.141C452.435,-168.755 455.25,-168.373 458,-168 576.655,-151.911 607.144,-153.162 725,-132 728.054,-131.452 731.228,-130.829 734.392,-130.173"/>
<polygon fill="midnightblue" stroke="midnightblue" points="735.281,-133.562 744.309,-128.017 733.794,-126.722 735.281,-133.562"/>
</g>
<!-- Node9 -->
<g id="node9" class="node"><title>Node9</title>
<g id="a_node9"><a xlink:href="SimpleRateCalculator_8h.html" target="_top" xlink:title="SimpleRateCalculator.h">
<polygon fill="white" stroke="black" points="279,-112.5 279,-131.5 399,-131.5 399,-112.5 279,-112.5"/>
<text text-anchor="middle" x="339" y="-119.5" font-family="Helvetica,sans-Serif" font-size="10.00">SimpleRateCalculator.h</text>
</a>
</g>
</g>
<!-- Node5&#45;&gt;Node9 -->
<g id="edge9" class="edge"><title>Node5&#45;&gt;Node9</title>
<path fill="none" stroke="midnightblue" d="M383.248,-168.083C375.53,-160.22 364.095,-148.569 354.783,-139.081"/>
<polygon fill="midnightblue" stroke="midnightblue" points="357.092,-136.436 347.589,-131.751 352.096,-141.34 357.092,-136.436"/>
</g>
<!-- Node10 -->
<g id="node10" class="node"><title>Node10</title>
<polygon fill="white" stroke="#bfbfbf" points="178.5,-56.5 178.5,-75.5 219.5,-75.5 219.5,-56.5 178.5,-56.5"/>
<text text-anchor="middle" x="199" y="-63.5" font-family="Helvetica,sans-Serif" font-size="10.00">ctime</text>
</g>
<!-- Node9&#45;&gt;Node10 -->
<g id="edge10" class="edge"><title>Node9&#45;&gt;Node10</title>
<path fill="none" stroke="midnightblue" d="M316.817,-112.444C293.161,-103.319 255.551,-88.8125 229.204,-78.6501"/>
<polygon fill="midnightblue" stroke="midnightblue" points="230.3,-75.3216 219.71,-74.9883 227.781,-81.8526 230.3,-75.3216"/>
</g>
<!-- Node11 -->
<g id="node11" class="node"><title>Node11</title>
<g id="a_node11"><a xlink:href="CurrentAndLastValues_8h.html" target="_top" xlink:title="CurrentAndLastValues.h">
<polygon fill="white" stroke="black" points="203.5,-0.5 203.5,-19.5 326.5,-19.5 326.5,-0.5 203.5,-0.5"/>
<text text-anchor="middle" x="265" y="-7.5" font-family="Helvetica,sans-Serif" font-size="10.00">CurrentAndLastValues.h</text>
</a>
</g>
</g>
<!-- Node9&#45;&gt;Node11 -->
<g id="edge11" class="edge"><title>Node9&#45;&gt;Node11</title>
<path fill="none" stroke="midnightblue" d="M349.09,-112.207C362.599,-99.345 383.496,-74.88 371,-56 360.34,-39.8936 342.63,-29.535 324.708,-22.8797"/>
<polygon fill="midnightblue" stroke="midnightblue" points="325.368,-19.4095 314.774,-19.5504 323.143,-26.0467 325.368,-19.4095"/>
</g>
<!-- Node12 -->
<g id="node12" class="node"><title>Node12</title>
<g id="a_node12"><a xlink:href="SimpleRateCalculation_8h.html" target="_top" xlink:title="SimpleRateCalculation.h">
<polygon fill="white" stroke="black" points="237.5,-56.5 237.5,-75.5 362.5,-75.5 362.5,-56.5 237.5,-56.5"/>
<text text-anchor="middle" x="300" y="-63.5" font-family="Helvetica,sans-Serif" font-size="10.00">SimpleRateCalculation.h</text>
</a>
</g>
</g>
<!-- Node9&#45;&gt;Node12 -->
<g id="edge12" class="edge"><title>Node9&#45;&gt;Node12</title>
<path fill="none" stroke="midnightblue" d="M332.56,-112.083C327.051,-104.455 318.969,-93.2645 312.235,-83.9408"/>
<polygon fill="midnightblue" stroke="midnightblue" points="315.013,-81.8087 306.32,-75.7511 309.338,-85.9071 315.013,-81.8087"/>
</g>
<!-- Node12&#45;&gt;Node11 -->
<g id="edge13" class="edge"><title>Node12&#45;&gt;Node11</title>
<path fill="none" stroke="midnightblue" d="M294.22,-56.083C289.328,-48.5341 282.173,-37.4948 276.167,-28.2298"/>
<polygon fill="midnightblue" stroke="midnightblue" points="279.048,-26.239 270.672,-19.7511 273.174,-30.0463 279.048,-26.239"/>
</g>
<!-- Node13 -->
<g id="node13" class="node"><title>Node13</title>
<polygon fill="white" stroke="#bfbfbf" points="107,-0.5 107,-19.5 151,-19.5 151,-0.5 107,-0.5"/>
<text text-anchor="middle" x="129" y="-7.5" font-family="Helvetica,sans-Serif" font-size="10.00">time.h</text>
</g>
<!-- Node12&#45;&gt;Node13 -->
<g id="edge14" class="edge"><title>Node12&#45;&gt;Node13</title>
<path fill="none" stroke="midnightblue" d="M272.905,-56.4435C242.482,-46.8366 193.164,-31.2622 160.904,-21.0749"/>
<polygon fill="midnightblue" stroke="midnightblue" points="161.665,-17.6448 151.075,-17.971 159.557,-24.3199 161.665,-17.6448"/>
</g>
<!-- Node14&#45;&gt;Node6 -->
<g id="edge17" class="edge"><title>Node14&#45;&gt;Node6</title>
<path fill="none" stroke="midnightblue" d="M632.292,-168.444C609.645,-159.517 573.928,-145.439 548.248,-135.317"/>
<polygon fill="midnightblue" stroke="midnightblue" points="549.193,-131.927 538.606,-131.516 546.626,-138.44 549.193,-131.927"/>
</g>
<!-- Node14&#45;&gt;Node7 -->
<g id="edge19" class="edge"><title>Node14&#45;&gt;Node7</title>
<path fill="none" stroke="midnightblue" d="M621.042,-168.444C583.949,-158.814 523.76,-143.188 484.525,-133.002"/>
<polygon fill="midnightblue" stroke="midnightblue" points="485.344,-129.598 474.785,-130.473 483.585,-136.374 485.344,-129.598"/>
</g>
<!-- Node14&#45;&gt;Node8 -->
<g id="edge20" class="edge"><title>Node14&#45;&gt;Node8</title>
<path fill="none" stroke="midnightblue" d="M671.834,-168.324C689.716,-159.625 717.475,-146.12 738.046,-136.113"/>
<polygon fill="midnightblue" stroke="midnightblue" points="739.749,-139.177 747.21,-131.655 736.687,-132.882 739.749,-139.177"/>
</g>
<!-- Node15 -->
<g id="node15" class="node"><title>Node15</title>
<polygon fill="white" stroke="#bfbfbf" points="654,-112.5 654,-131.5 716,-131.5 716,-112.5 654,-112.5"/>
<text text-anchor="middle" x="685" y="-119.5" font-family="Helvetica,sans-Serif" font-size="10.00">arpa/inet.h</text>
</g>
<!-- Node14&#45;&gt;Node15 -->
<g id="edge16" class="edge"><title>Node14&#45;&gt;Node15</title>
<path fill="none" stroke="midnightblue" d="M659.119,-168.083C663.408,-160.613 669.658,-149.724 674.942,-140.52"/>
<polygon fill="midnightblue" stroke="midnightblue" points="678.033,-142.166 679.976,-131.751 671.962,-138.681 678.033,-142.166"/>
</g>
<!-- Node16 -->
<g id="node16" class="node"><title>Node16</title>
<polygon fill="white" stroke="#bfbfbf" points="570.5,-112.5 570.5,-131.5 635.5,-131.5 635.5,-112.5 570.5,-112.5"/>
<text text-anchor="middle" x="603" y="-119.5" font-family="Helvetica,sans-Serif" font-size="10.00">netinet/ip.h</text>
</g>
<!-- Node14&#45;&gt;Node16 -->
<g id="edge18" class="edge"><title>Node14&#45;&gt;Node16</title>
<path fill="none" stroke="midnightblue" d="M645.578,-168.083C638.152,-160.22 627.148,-148.569 618.188,-139.081"/>
<polygon fill="midnightblue" stroke="midnightblue" points="620.676,-136.618 611.265,-131.751 615.587,-141.424 620.676,-136.618"/>
</g>
<!-- Node17&#45;&gt;Node6 -->
<g id="edge22" class="edge"><title>Node17&#45;&gt;Node6</title>
<path fill="none" stroke="midnightblue" d="M517.835,-168.083C517.704,-161.006 517.516,-150.861 517.352,-141.986"/>
<polygon fill="midnightblue" stroke="midnightblue" points="520.847,-141.685 517.162,-131.751 513.848,-141.814 520.847,-141.685"/>
</g>
<!-- Node18&#45;&gt;Node8 -->
<g id="edge24" class="edge"><title>Node18&#45;&gt;Node8</title>
<path fill="none" stroke="midnightblue" d="M781.697,-168.083C779.018,-160.849 775.151,-150.409 771.814,-141.397"/>
<polygon fill="midnightblue" stroke="midnightblue" points="774.996,-139.913 768.241,-131.751 768.432,-142.344 774.996,-139.913"/>
</g>
<!-- Node19&#45;&gt;Node8 -->
<g id="edge26" class="edge"><title>Node19&#45;&gt;Node8</title>
<path fill="none" stroke="midnightblue" d="M871.876,-168.444C850.976,-159.557 818.065,-145.563 794.284,-135.451"/>
<polygon fill="midnightblue" stroke="midnightblue" points="795.602,-132.208 785.029,-131.516 792.862,-138.65 795.602,-132.208"/>
</g>
<!-- Node20&#45;&gt;Node8 -->
<g id="edge28" class="edge"><title>Node20&#45;&gt;Node8</title>
<path fill="none" stroke="midnightblue" d="M962.764,-168.444C916.493,-157.811 838.413,-139.869 795.509,-130.011"/>
<polygon fill="midnightblue" stroke="midnightblue" points="796.181,-126.574 785.651,-127.745 794.613,-133.396 796.181,-126.574"/>
</g>
<!-- Node21 -->
<g id="node21" class="node"><title>Node21</title>
<polygon fill="white" stroke="#bfbfbf" points="975,-112.5 975,-131.5 1025,-131.5 1025,-112.5 975,-112.5"/>
<text text-anchor="middle" x="1000" y="-119.5" font-family="Helvetica,sans-Serif" font-size="10.00">fstream</text>
</g>
<!-- Node20&#45;&gt;Node21 -->
<g id="edge29" class="edge"><title>Node20&#45;&gt;Node21</title>
<path fill="none" stroke="midnightblue" d="M1000,-168.083C1000,-161.006 1000,-150.861 1000,-141.986"/>
<polygon fill="midnightblue" stroke="midnightblue" points="1003.5,-141.751 1000,-131.751 996.5,-141.751 1003.5,-141.751"/>
</g>
<!-- Node23&#45;&gt;Node3 -->
<g id="edge33" class="edge"><title>Node23&#45;&gt;Node3</title>
<path fill="none" stroke="midnightblue" d="M236.165,-168.083C236.296,-161.006 236.484,-150.861 236.648,-141.986"/>
<polygon fill="midnightblue" stroke="midnightblue" points="240.152,-141.814 236.838,-131.751 233.153,-141.685 240.152,-141.814"/>
</g>
<!-- Node23&#45;&gt;Node6 -->
<g id="edge35" class="edge"><title>Node23&#45;&gt;Node6</title>
<path fill="none" stroke="midnightblue" d="M289.727,-168.463C339.926,-160.19 416.847,-146.758 483,-132 483.216,-131.952 483.433,-131.903 483.65,-131.854"/>
<polygon fill="midnightblue" stroke="midnightblue" points="484.749,-135.189 493.648,-129.44 483.106,-128.385 484.749,-135.189"/>
</g>
<!-- Node23&#45;&gt;Node7 -->
<g id="edge32" class="edge"><title>Node23&#45;&gt;Node7</title>
<path fill="none" stroke="midnightblue" d="M269.275,-168.444C306.831,-158.786 367.838,-143.099 407.441,-132.915"/>
<polygon fill="midnightblue" stroke="midnightblue" points="408.454,-136.269 417.267,-130.388 406.711,-129.489 408.454,-136.269"/>
</g>
<!-- Node23&#45;&gt;Node8 -->
<g id="edge34" class="edge"><title>Node23&#45;&gt;Node8</title>
<path fill="none" stroke="midnightblue" d="M316.526,-168.817C319.386,-168.539 322.217,-168.266 325,-168 502.687,-151.02 548.658,-159.651 725,-132 728.066,-131.519 731.247,-130.941 734.416,-130.313"/>
<polygon fill="midnightblue" stroke="midnightblue" points="735.291,-133.705 744.339,-128.193 733.828,-126.86 735.291,-133.705"/>
</g>
<!-- Node24 -->
<g id="node24" class="node"><title>Node24</title>
<g id="a_node24"><a xlink:href="ExponentialSmoothingCalculator_8h.html" target="_top" xlink:title="ExponentialSmoothingCalculator.h">
<polygon fill="white" stroke="black" points="27.5,-112.5 27.5,-131.5 194.5,-131.5 194.5,-112.5 27.5,-112.5"/>
<text text-anchor="middle" x="111" y="-119.5" font-family="Helvetica,sans-Serif" font-size="10.00">ExponentialSmoothingCalculator.h</text>
</a>
</g>
</g>
<!-- Node23&#45;&gt;Node24 -->
<g id="edge36" class="edge"><title>Node23&#45;&gt;Node24</title>
<path fill="none" stroke="midnightblue" d="M216.193,-168.444C195.713,-159.596 163.517,-145.687 140.135,-135.586"/>
<polygon fill="midnightblue" stroke="midnightblue" points="141.282,-132.269 130.714,-131.516 138.506,-138.695 141.282,-132.269"/>
</g>
<!-- Node24&#45;&gt;Node10 -->
<g id="edge37" class="edge"><title>Node24&#45;&gt;Node10</title>
<path fill="none" stroke="midnightblue" d="M125.139,-112.324C138.866,-103.9 159.936,-90.9709 176.064,-81.0741"/>
<polygon fill="midnightblue" stroke="midnightblue" points="178.204,-83.8678 184.896,-75.6545 174.543,-77.9016 178.204,-83.8678"/>
</g>
<!-- Node24&#45;&gt;Node11 -->
<g id="edge38" class="edge"><title>Node24&#45;&gt;Node11</title>
<path fill="none" stroke="midnightblue" d="M116.887,-112.413C126.484,-98.9309 146.684,-72.6255 169,-56 187.603,-42.1406 211.157,-31.0208 230.278,-23.3023"/>
<polygon fill="midnightblue" stroke="midnightblue" points="231.778,-26.4739 239.823,-19.5795 229.235,-19.9524 231.778,-26.4739"/>
</g>
<!-- Node25 -->
<g id="node25" class="node"><title>Node25</title>
<g id="a_node25"><a xlink:href="ExponentialSmoothing_8h.html" target="_top" xlink:title="ExponentialSmoothing.h">
<polygon fill="white" stroke="black" points="0,-56.5 0,-75.5 122,-75.5 122,-56.5 0,-56.5"/>
<text text-anchor="middle" x="61" y="-63.5" font-family="Helvetica,sans-Serif" font-size="10.00">ExponentialSmoothing.h</text>
</a>
</g>
</g>
<!-- Node24&#45;&gt;Node25 -->
<g id="edge39" class="edge"><title>Node24&#45;&gt;Node25</title>
<path fill="none" stroke="midnightblue" d="M102.744,-112.083C95.5353,-104.298 84.8902,-92.8015 76.1542,-83.3665"/>
<polygon fill="midnightblue" stroke="midnightblue" points="78.4651,-80.7108 69.1028,-75.7511 73.3288,-85.4666 78.4651,-80.7108"/>
</g>
<!-- Node25&#45;&gt;Node11 -->
<g id="edge41" class="edge"><title>Node25&#45;&gt;Node11</title>
<path fill="none" stroke="midnightblue" d="M93.3244,-56.4435C128.389,-47.1616 184.498,-32.3093 222.965,-22.127"/>
<polygon fill="midnightblue" stroke="midnightblue" points="224.055,-25.4589 232.827,-19.5164 222.264,-18.692 224.055,-25.4589"/>
</g>
<!-- Node25&#45;&gt;Node13 -->
<g id="edge40" class="edge"><title>Node25&#45;&gt;Node13</title>
<path fill="none" stroke="midnightblue" d="M71.9254,-56.324C82.1746,-48.1849 97.7206,-35.8395 110.001,-26.0874"/>
<polygon fill="midnightblue" stroke="midnightblue" points="112.221,-28.7937 117.876,-19.8339 107.868,-23.3119 112.221,-28.7937"/>
</g>
</g>
</svg>
