<?xml version="1.0" encoding="UTF-8" standalone="no"?>
<!DOCTYPE svg PUBLIC "-//W3C//DTD SVG 1.1//EN"
 "http://www.w3.org/Graphics/SVG/1.1/DTD/svg11.dtd">
<!-- Generated by graphviz version 2.38.0 (20140413.2041)
 -->
<!-- Title: riplpox.riplpox.launch Pages: 1 -->
<svg width="263pt" height="66pt"
 viewBox="0.00 0.00 263.00 66.00" xmlns="http://www.w3.org/2000/svg" xmlns:xlink="http://www.w3.org/1999/xlink">
<g id="graph0" class="graph" transform="scale(1 1) rotate(0) translate(4 62)">
<title>riplpox.riplpox.launch</title>
<polygon fill="white" stroke="none" points="-4,4 -4,-62 259,-62 259,4 -4,4"/>
<!-- Node1 -->
<g id="node1" class="node"><title>Node1</title>
<polygon fill="#bfbfbf" stroke="black" points="0,-19.5 0,-38.5 108,-38.5 108,-19.5 0,-19.5"/>
<text text-anchor="middle" x="54" y="-26.5" font-family="Helvetica,sans-Serif" font-size="10.00">riplpox.riplpox.launch</text>
</g>
<!-- Node2 -->
<g id="node2" class="node"><title>Node2</title>
<g id="a_node2"><a xlink:href="namespaceriplpox_1_1util.html#a20be21dfbdc27ec2a0441e39f987fdca" target="_top" xlink:title="riplpox.util.buildTopo">
<polygon fill="white" stroke="black" points="146.5,-38.5 146.5,-57.5 252.5,-57.5 252.5,-38.5 146.5,-38.5"/>
<text text-anchor="middle" x="199.5" y="-45.5" font-family="Helvetica,sans-Serif" font-size="10.00">riplpox.util.buildTopo</text>
</a>
</g>
</g>
<!-- Node1&#45;&gt;Node2 -->
<g id="edge1" class="edge"><title>Node1&#45;&gt;Node2</title>
<path fill="none" stroke="midnightblue" d="M108.026,-36.0209C117.173,-37.232 126.756,-38.5008 136.122,-39.7409"/>
<polygon fill="midnightblue" stroke="midnightblue" points="135.797,-43.2283 146.17,-41.0713 136.716,-36.2889 135.797,-43.2283"/>
</g>
<!-- Node3 -->
<g id="node3" class="node"><title>Node3</title>
<g id="a_node3"><a xlink:href="namespaceriplpox_1_1util.html#aa3b9de89003839f7eed3a2a2a9780e72" target="_top" xlink:title="riplpox.util.getRouting">
<polygon fill="white" stroke="black" points="144,-0.5 144,-19.5 255,-19.5 255,-0.5 144,-0.5"/>
<text text-anchor="middle" x="199.5" y="-7.5" font-family="Helvetica,sans-Serif" font-size="10.00">riplpox.util.getRouting</text>
</a>
</g>
</g>
<!-- Node1&#45;&gt;Node3 -->
<g id="edge2" class="edge"><title>Node1&#45;&gt;Node3</title>
<path fill="none" stroke="midnightblue" d="M108.026,-21.9791C116.405,-20.8698 125.149,-19.712 133.757,-18.5722"/>
<polygon fill="midnightblue" stroke="midnightblue" points="134.317,-22.0288 143.771,-17.2464 133.398,-15.0894 134.317,-22.0288"/>
</g>
</g>
</svg>
