<?xml version="1.0" encoding="UTF-8" standalone="no"?>
<!DOCTYPE svg PUBLIC "-//W3C//DTD SVG 1.1//EN"
 "http://www.w3.org/Graphics/SVG/1.1/DTD/svg11.dtd">
<!-- Generated by graphviz version 2.38.0 (20140413.2041)
 -->
<!-- Title: BandwidthShare.createTopo Pages: 1 -->
<svg width="538pt" height="39pt"
 viewBox="0.00 0.00 538.00 39.00" xmlns="http://www.w3.org/2000/svg" xmlns:xlink="http://www.w3.org/1999/xlink">
<g id="graph0" class="graph" transform="scale(1 1) rotate(0) translate(4 35)">
<title>BandwidthShare.createTopo</title>
<polygon fill="white" stroke="none" points="-4,4 -4,-35 534,-35 534,4 -4,4"/>
<!-- Node1 -->
<g id="node1" class="node"><title>Node1</title>
<polygon fill="#bfbfbf" stroke="black" points="0,-6 0,-25 140,-25 140,-6 0,-6"/>
<text text-anchor="middle" x="70" y="-13" font-family="Helvetica,sans-Serif" font-size="10.00">BandwidthShare.createTopo</text>
</g>
<!-- Node2 -->
<g id="node2" class="node"><title>Node2</title>
<g id="a_node2"><a xlink:href="namespaceBandwidthShare.html#aff67b9005530a9cef112638ce744689d" target="_top" xlink:title="BandwidthShare.setupSwitch\lQueues">
<polygon fill="white" stroke="black" points="176,-0.5 176,-30.5 321,-30.5 321,-0.5 176,-0.5"/>
<text text-anchor="start" x="184" y="-18.5" font-family="Helvetica,sans-Serif" font-size="10.00">BandwidthShare.setupSwitch</text>
<text text-anchor="middle" x="248.5" y="-7.5" font-family="Helvetica,sans-Serif" font-size="10.00">Queues</text>
</a>
</g>
</g>
<!-- Node1&#45;&gt;Node2 -->
<g id="edge1" class="edge"><title>Node1&#45;&gt;Node2</title>
<path fill="none" stroke="midnightblue" d="M140.251,-15.5C148.559,-15.5 157.103,-15.5 165.568,-15.5"/>
<polygon fill="midnightblue" stroke="midnightblue" points="165.835,-19.0001 175.835,-15.5 165.835,-12.0001 165.835,-19.0001"/>
</g>
<!-- Node3 -->
<g id="node3" class="node"><title>Node3</title>
<g id="a_node3"><a xlink:href="namespaceBandwidthShare.html#a66f8eaf1804f5555de6cfffa9b90642f" target="_top" xlink:title="BandwidthShare.setupTCCommand">
<polygon fill="white" stroke="black" points="357,-6 357,-25 530,-25 530,-6 357,-6"/>
<text text-anchor="middle" x="443.5" y="-13" font-family="Helvetica,sans-Serif" font-size="10.00">BandwidthShare.setupTCCommand</text>
</a>
</g>
</g>
<!-- Node2&#45;&gt;Node3 -->
<g id="edge2" class="edge"><title>Node2&#45;&gt;Node3</title>
<path fill="none" stroke="midnightblue" d="M321.092,-15.5C329.496,-15.5 338.171,-15.5 346.837,-15.5"/>
<polygon fill="midnightblue" stroke="midnightblue" points="346.99,-19.0001 356.99,-15.5 346.99,-12.0001 346.99,-19.0001"/>
</g>
</g>
</svg>
