<?xml version="1.0" encoding="UTF-8" standalone="no"?>
<!DOCTYPE svg PUBLIC "-//W3C//DTD SVG 1.1//EN"
 "http://www.w3.org/Graphics/SVG/1.1/DTD/svg11.dtd">
<!-- Generated by graphviz version 2.38.0 (20140413.2041)
 -->
<!-- Title: TestHandler::printVector Pages: 1 -->
<svg width="522pt" height="50pt"
 viewBox="0.00 0.00 522.00 50.00" xmlns="http://www.w3.org/2000/svg" xmlns:xlink="http://www.w3.org/1999/xlink">
<g id="graph0" class="graph" transform="scale(1 1) rotate(0) translate(4 46)">
<title>TestHandler::printVector</title>
<polygon fill="white" stroke="none" points="-4,4 -4,-46 518,-46 518,4 -4,4"/>
<!-- Node1 -->
<g id="node1" class="node"><title>Node1</title>
<polygon fill="#bfbfbf" stroke="black" points="0,-11.5 0,-30.5 123,-30.5 123,-11.5 0,-11.5"/>
<text text-anchor="middle" x="61.5" y="-18.5" font-family="Helvetica,sans-Serif" font-size="10.00">TestHandler::printVector</text>
</g>
<!-- Node2 -->
<g id="node2" class="node"><title>Node2</title>
<g id="a_node2"><a xlink:href="classTestHandler_1_1CommandLineArgumentParser.html#af9e3ca8df421fb38db39b3ca98869dc3" target="_top" xlink:title="TestHandler::CommandLine\lArgumentParser::parseCommand\lLineArguments">
<polygon fill="white" stroke="black" points="159,-0.5 159,-41.5 321,-41.5 321,-0.5 159,-0.5"/>
<text text-anchor="start" x="167" y="-29.5" font-family="Helvetica,sans-Serif" font-size="10.00">TestHandler::CommandLine</text>
<text text-anchor="start" x="167" y="-18.5" font-family="Helvetica,sans-Serif" font-size="10.00">ArgumentParser::parseCommand</text>
<text text-anchor="middle" x="240" y="-7.5" font-family="Helvetica,sans-Serif" font-size="10.00">LineArguments</text>
</a>
</g>
</g>
<!-- Node1&#45;&gt;Node2 -->
<g id="edge1" class="edge"><title>Node1&#45;&gt;Node2</title>
<path fill="none" stroke="midnightblue" d="M133.337,-21C141.72,-21 150.321,-21 158.822,-21"/>
<polygon fill="midnightblue" stroke="midnightblue" points="133.241,-17.5001 123.241,-21 133.241,-24.5001 133.241,-17.5001"/>
</g>
<!-- Node3 -->
<g id="node3" class="node"><title>Node3</title>
<g id="a_node3"><a xlink:href="classTestHandler_1_1MainObject.html#aa2854c84556d89e8d9d364d0a2b79f23" target="_top" xlink:title="TestHandler::MainObject\l::parseCommandLineArguments">
<polygon fill="white" stroke="black" points="357,-6 357,-36 514,-36 514,-6 357,-6"/>
<text text-anchor="start" x="365" y="-24" font-family="Helvetica,sans-Serif" font-size="10.00">TestHandler::MainObject</text>
<text text-anchor="middle" x="435.5" y="-13" font-family="Helvetica,sans-Serif" font-size="10.00">::parseCommandLineArguments</text>
</a>
</g>
</g>
<!-- Node2&#45;&gt;Node3 -->
<g id="edge2" class="edge"><title>Node2&#45;&gt;Node3</title>
<path fill="none" stroke="midnightblue" d="M331.166,-21C339.782,-21 348.468,-21 356.949,-21"/>
<polygon fill="midnightblue" stroke="midnightblue" points="331.101,-17.5001 321.101,-21 331.101,-24.5001 331.101,-17.5001"/>
</g>
</g>
</svg>
