<?xml version="1.0" encoding="UTF-8" standalone="no"?>
<!DOCTYPE svg PUBLIC "-//W3C//DTD SVG 1.1//EN"
 "http://www.w3.org/Graphics/SVG/1.1/DTD/svg11.dtd">
<!-- Generated by graphviz version 2.38.0 (20140413.2041)
 -->
<!-- Title: TestHandler::printUsage Pages: 1 -->
<svg width="522pt" height="126pt"
 viewBox="0.00 0.00 522.00 126.00" xmlns="http://www.w3.org/2000/svg" xmlns:xlink="http://www.w3.org/1999/xlink">
<g id="graph0" class="graph" transform="scale(1 1) rotate(0) translate(4 122)">
<title>TestHandler::printUsage</title>
<polygon fill="white" stroke="none" points="-4,4 -4,-122 518,-122 518,4 -4,4"/>
<!-- Node1 -->
<g id="node1" class="node"><title>Node1</title>
<polygon fill="#bfbfbf" stroke="black" points="0,-38.5 0,-57.5 123,-57.5 123,-38.5 0,-38.5"/>
<text text-anchor="middle" x="61.5" y="-45.5" font-family="Helvetica,sans-Serif" font-size="10.00">TestHandler::printUsage</text>
</g>
<!-- Node2 -->
<g id="node2" class="node"><title>Node2</title>
<g id="a_node2"><a xlink:href="classTestHandler_1_1CommandLineArgumentParser.html#af9e3ca8df421fb38db39b3ca98869dc3" target="_top" xlink:title="TestHandler::CommandLine\lArgumentParser::parseCommand\lLineArguments">
<polygon fill="white" stroke="black" points="159,-76.5 159,-117.5 321,-117.5 321,-76.5 159,-76.5"/>
<text text-anchor="start" x="167" y="-105.5" font-family="Helvetica,sans-Serif" font-size="10.00">TestHandler::CommandLine</text>
<text text-anchor="start" x="167" y="-94.5" font-family="Helvetica,sans-Serif" font-size="10.00">ArgumentParser::parseCommand</text>
<text text-anchor="middle" x="240" y="-83.5" font-family="Helvetica,sans-Serif" font-size="10.00">LineArguments</text>
</a>
</g>
</g>
<!-- Node1&#45;&gt;Node2 -->
<g id="edge1" class="edge"><title>Node1&#45;&gt;Node2</title>
<path fill="none" stroke="midnightblue" d="M106.9,-60.3264C124.462,-65.2018 145.129,-70.9394 164.834,-76.4101"/>
<polygon fill="midnightblue" stroke="midnightblue" points="107.522,-56.8667 96.95,-57.564 105.649,-63.6116 107.522,-56.8667"/>
</g>
<!-- Node3 -->
<g id="node3" class="node"><title>Node3</title>
<g id="a_node3"><a xlink:href="classTestHandler_1_1MainObject.html#aa2854c84556d89e8d9d364d0a2b79f23" target="_top" xlink:title="TestHandler::MainObject\l::parseCommandLineArguments">
<polygon fill="white" stroke="black" points="357,-57 357,-87 514,-87 514,-57 357,-57"/>
<text text-anchor="start" x="365" y="-75" font-family="Helvetica,sans-Serif" font-size="10.00">TestHandler::MainObject</text>
<text text-anchor="middle" x="435.5" y="-64" font-family="Helvetica,sans-Serif" font-size="10.00">::parseCommandLineArguments</text>
</a>
</g>
</g>
<!-- Node1&#45;&gt;Node3 -->
<g id="edge4" class="edge"><title>Node1&#45;&gt;Node3</title>
<path fill="none" stroke="midnightblue" d="M133.079,-52.5535C196.941,-56.6736 290.82,-62.7303 356.799,-66.987"/>
<polygon fill="midnightblue" stroke="midnightblue" points="133.301,-49.0606 123.096,-51.9094 132.85,-56.0461 133.301,-49.0606"/>
</g>
<!-- Node4 -->
<g id="node4" class="node"><title>Node4</title>
<g id="a_node4"><a xlink:href="TestHandler_2main_8cpp.html#a0ddf1224851353fc92bfbff6f499fa97" target="_top" xlink:title="main">
<polygon fill="white" stroke="black" points="221,-0.5 221,-19.5 259,-19.5 259,-0.5 221,-0.5"/>
<text text-anchor="middle" x="240" y="-7.5" font-family="Helvetica,sans-Serif" font-size="10.00">main</text>
</a>
</g>
</g>
<!-- Node1&#45;&gt;Node4 -->
<g id="edge3" class="edge"><title>Node1&#45;&gt;Node4</title>
<path fill="none" stroke="midnightblue" d="M117.248,-36.2128C152.65,-28.5908 196.499,-19.1503 220.735,-13.9324"/>
<polygon fill="midnightblue" stroke="midnightblue" points="116.078,-32.8846 107.038,-38.411 117.551,-39.7278 116.078,-32.8846"/>
</g>
<!-- Node2&#45;&gt;Node3 -->
<g id="edge2" class="edge"><title>Node2&#45;&gt;Node3</title>
<path fill="none" stroke="midnightblue" d="M331.166,-85.3506C339.782,-84.2374 348.468,-83.1152 356.949,-82.0195"/>
<polygon fill="midnightblue" stroke="midnightblue" points="330.57,-81.8985 321.101,-86.6511 331.467,-88.8408 330.57,-81.8985"/>
</g>
</g>
</svg>
