<?xml version="1.0" encoding="UTF-8" standalone="no"?>
<!DOCTYPE svg PUBLIC "-//W3C//DTD SVG 1.1//EN"
 "http://www.w3.org/Graphics/SVG/1.1/DTD/svg11.dtd">
<!-- Generated by graphviz version 2.38.0 (20140413.2041)
 -->
<!-- Title: riplpox.riplpox.sep Pages: 1 -->
<svg width="302pt" height="57pt"
 viewBox="0.00 0.00 302.00 57.00" xmlns="http://www.w3.org/2000/svg" xmlns:xlink="http://www.w3.org/1999/xlink">
<g id="graph0" class="graph" transform="scale(1 1) rotate(0) translate(4 53)">
<title>riplpox.riplpox.sep</title>
<polygon fill="white" stroke="none" points="-4,4 -4,-53 298,-53 298,4 -4,4"/>
<!-- Node1 -->
<g id="node1" class="node"><title>Node1</title>
<polygon fill="#bfbfbf" stroke="black" points="0,-6 0,-25 95,-25 95,-6 0,-6"/>
<text text-anchor="middle" x="47.5" y="-13" font-family="Helvetica,sans-Serif" font-size="10.00">riplpox.riplpox.sep</text>
</g>
<!-- Node2 -->
<g id="node2" class="node"><title>Node2</title>
<g id="a_node2"><a xlink:href="classriplpox_1_1riplpox_1_1RipLController.html#a3ba6639e536be1d7de38fb7da3df30f3" target="_top" xlink:title="riplpox.riplpox.RipLController.dpid\l_port_to_host_index">
<polygon fill="white" stroke="black" points="131,-0.5 131,-30.5 294,-30.5 294,-0.5 131,-0.5"/>
<text text-anchor="start" x="139" y="-18.5" font-family="Helvetica,sans-Serif" font-size="10.00">riplpox.riplpox.RipLController.dpid</text>
<text text-anchor="middle" x="212.5" y="-7.5" font-family="Helvetica,sans-Serif" font-size="10.00">_port_to_host_index</text>
</a>
</g>
</g>
<!-- Node1&#45;&gt;Node2 -->
<g id="edge1" class="edge"><title>Node1&#45;&gt;Node2</title>
<path fill="none" stroke="midnightblue" d="M105.436,-15.5C113.689,-15.5 122.312,-15.5 130.922,-15.5"/>
<polygon fill="midnightblue" stroke="midnightblue" points="105.209,-12.0001 95.2093,-15.5 105.209,-19.0001 105.209,-12.0001"/>
</g>
<!-- Node2&#45;&gt;Node2 -->
<g id="edge2" class="edge"><title>Node2&#45;&gt;Node2</title>
<path fill="none" stroke="midnightblue" d="M183.359,-40.9579C186.976,-45.679 196.69,-49 212.5,-49 238.445,-49 247.972,-40.0566 241.08,-30.659"/>
<polygon fill="midnightblue" stroke="midnightblue" points="186.871,-40.8344 183.92,-30.659 179.881,-40.454 186.871,-40.8344"/>
</g>
</g>
</svg>
