<?xml version="1.0" encoding="UTF-8" standalone="no"?>
<!DOCTYPE svg PUBLIC "-//W3C//DTD SVG 1.1//EN"
 "http://www.w3.org/Graphics/SVG/1.1/DTD/svg11.dtd">
<!-- Generated by graphviz version 2.38.0 (20140413.2041)
 -->
<!-- Title: BandwidthShare.createTopo Pages: 1 -->
<svg width="545pt" height="78pt"
 viewBox="0.00 0.00 545.00 77.50" xmlns="http://www.w3.org/2000/svg" xmlns:xlink="http://www.w3.org/1999/xlink">
<g id="graph0" class="graph" transform="scale(1 1) rotate(0) translate(4 73.5)">
<title>BandwidthShare.createTopo</title>
<polygon fill="white" stroke="none" points="-4,4 -4,-73.5 541,-73.5 541,4 -4,4"/>
<!-- Node1 -->
<g id="node1" class="node"><title>Node1</title>
<polygon fill="#bfbfbf" stroke="black" points="0,-22.5 0,-41.5 140,-41.5 140,-22.5 0,-22.5"/>
<text text-anchor="middle" x="70" y="-29.5" font-family="Helvetica,sans-Serif" font-size="10.00">BandwidthShare.createTopo</text>
</g>
<!-- Node2 -->
<g id="node2" class="node"><title>Node2</title>
<g id="a_node2"><a xlink:href="namespaceBandwidthShare.html#aff67b9005530a9cef112638ce744689d" target="_top" xlink:title="BandwidthShare.setupSwitch\lQueues">
<polygon fill="white" stroke="black" points="179.5,-39 179.5,-69 324.5,-69 324.5,-39 179.5,-39"/>
<text text-anchor="start" x="187.5" y="-57" font-family="Helvetica,sans-Serif" font-size="10.00">BandwidthShare.setupSwitch</text>
<text text-anchor="middle" x="252" y="-46" font-family="Helvetica,sans-Serif" font-size="10.00">Queues</text>
</a>
</g>
</g>
<!-- Node1&#45;&gt;Node2 -->
<g id="edge1" class="edge"><title>Node1&#45;&gt;Node2</title>
<path fill="none" stroke="midnightblue" d="M140.078,-40.4429C149.644,-41.612 159.543,-42.8219 169.311,-44.0158"/>
<polygon fill="midnightblue" stroke="midnightblue" points="169.072,-47.5126 179.423,-45.2517 169.921,-40.5643 169.072,-47.5126"/>
</g>
<!-- Node4 -->
<g id="node4" class="node"><title>Node4</title>
<g id="a_node4"><a xlink:href="namespaceBandwidthShare.html#aaa2990fcd3435a79cd031b51afed9d0f" target="_top" xlink:title="BandwidthShare.startBWShare">
<polygon fill="white" stroke="black" points="176,-0.5 176,-19.5 328,-19.5 328,-0.5 176,-0.5"/>
<text text-anchor="middle" x="252" y="-7.5" font-family="Helvetica,sans-Serif" font-size="10.00">BandwidthShare.startBWShare</text>
</a>
</g>
</g>
<!-- Node1&#45;&gt;Node4 -->
<g id="edge3" class="edge"><title>Node1&#45;&gt;Node4</title>
<path fill="none" stroke="midnightblue" d="M140.078,-23.5571C148.486,-22.5294 157.153,-21.4702 165.761,-20.4181"/>
<polygon fill="midnightblue" stroke="midnightblue" points="166.319,-23.876 175.821,-19.1886 165.47,-16.9277 166.319,-23.876"/>
</g>
<!-- Node3 -->
<g id="node3" class="node"><title>Node3</title>
<g id="a_node3"><a xlink:href="namespaceBandwidthShare.html#a66f8eaf1804f5555de6cfffa9b90642f" target="_top" xlink:title="BandwidthShare.setupTCCommand">
<polygon fill="white" stroke="black" points="364,-44.5 364,-63.5 537,-63.5 537,-44.5 364,-44.5"/>
<text text-anchor="middle" x="450.5" y="-51.5" font-family="Helvetica,sans-Serif" font-size="10.00">BandwidthShare.setupTCCommand</text>
</a>
</g>
</g>
<!-- Node2&#45;&gt;Node3 -->
<g id="edge2" class="edge"><title>Node2&#45;&gt;Node3</title>
<path fill="none" stroke="midnightblue" d="M324.775,-54C334.214,-54 344.005,-54 353.763,-54"/>
<polygon fill="midnightblue" stroke="midnightblue" points="353.904,-57.5001 363.904,-54 353.904,-50.5001 353.904,-57.5001"/>
</g>
</g>
</svg>
