<?xml version="1.0" encoding="UTF-8" standalone="no"?>
<!DOCTYPE svg PUBLIC "-//W3C//DTD SVG 1.1//EN"
 "http://www.w3.org/Graphics/SVG/1.1/DTD/svg11.dtd">
<!-- Generated by graphviz version 2.38.0 (20140413.2041)
 -->
<!-- Title: param.h Pages: 1 -->
<svg width="442pt" height="84pt"
 viewBox="0.00 0.00 441.50 84.00" xmlns="http://www.w3.org/2000/svg" xmlns:xlink="http://www.w3.org/1999/xlink">
<g id="graph0" class="graph" transform="scale(1 1) rotate(0) translate(4 80)">
<title>param.h</title>
<polygon fill="white" stroke="none" points="-4,4 -4,-80 437.5,-80 437.5,4 -4,4"/>
<!-- Node1 -->
<g id="node1" class="node"><title>Node1</title>
<polygon fill="#bfbfbf" stroke="black" points="188,-56.5 188,-75.5 240,-75.5 240,-56.5 188,-56.5"/>
<text text-anchor="middle" x="214" y="-63.5" font-family="Helvetica,sans-Serif" font-size="10.00">param.h</text>
</g>
<!-- Node2 -->
<g id="node2" class="node"><title>Node2</title>
<polygon fill="white" stroke="#bfbfbf" points="0,-0.5 0,-19.5 52,-19.5 52,-0.5 0,-0.5"/>
<text text-anchor="middle" x="26" y="-7.5" font-family="Helvetica,sans-Serif" font-size="10.00">stddef.h</text>
</g>
<!-- Node1&#45;&gt;Node2 -->
<g id="edge1" class="edge"><title>Node1&#45;&gt;Node2</title>
<path fill="none" stroke="midnightblue" d="M187.859,-57.4915C155.12,-48.0878 98.8657,-31.9295 62.0528,-21.3556"/>
<polygon fill="midnightblue" stroke="midnightblue" points="62.7986,-17.9284 52.2209,-18.5315 60.866,-24.6563 62.7986,-17.9284"/>
</g>
<!-- Node3 -->
<g id="node3" class="node"><title>Node3</title>
<polygon fill="white" stroke="#bfbfbf" points="70,-0.5 70,-19.5 138,-19.5 138,-0.5 70,-0.5"/>
<text text-anchor="middle" x="104" y="-7.5" font-family="Helvetica,sans-Serif" font-size="10.00">sys/types.h</text>
</g>
<!-- Node1&#45;&gt;Node3 -->
<g id="edge2" class="edge"><title>Node1&#45;&gt;Node3</title>
<path fill="none" stroke="midnightblue" d="M196.327,-56.324C178.606,-47.6247 151.097,-34.1202 130.712,-24.113"/>
<polygon fill="midnightblue" stroke="midnightblue" points="132.149,-20.9195 121.63,-19.6545 129.064,-27.2031 132.149,-20.9195"/>
</g>
<!-- Node4 -->
<g id="node4" class="node"><title>Node4</title>
<polygon fill="white" stroke="#bfbfbf" points="156,-0.5 156,-19.5 204,-19.5 204,-0.5 156,-0.5"/>
<text text-anchor="middle" x="180" y="-7.5" font-family="Helvetica,sans-Serif" font-size="10.00">limits.h</text>
</g>
<!-- Node1&#45;&gt;Node4 -->
<g id="edge3" class="edge"><title>Node1&#45;&gt;Node4</title>
<path fill="none" stroke="midnightblue" d="M208.386,-56.083C203.633,-48.5341 196.682,-37.4948 190.848,-28.2298"/>
<polygon fill="midnightblue" stroke="midnightblue" points="193.8,-26.3486 185.51,-19.7511 187.876,-30.0783 193.8,-26.3486"/>
</g>
<!-- Node5 -->
<g id="node5" class="node"><title>Node5</title>
<polygon fill="white" stroke="#bfbfbf" points="222.5,-0.5 222.5,-19.5 275.5,-19.5 275.5,-0.5 222.5,-0.5"/>
<text text-anchor="middle" x="249" y="-7.5" font-family="Helvetica,sans-Serif" font-size="10.00">endian.h</text>
</g>
<!-- Node1&#45;&gt;Node5 -->
<g id="edge4" class="edge"><title>Node1&#45;&gt;Node5</title>
<path fill="none" stroke="midnightblue" d="M219.78,-56.083C224.672,-48.5341 231.827,-37.4948 237.833,-28.2298"/>
<polygon fill="midnightblue" stroke="midnightblue" points="240.826,-30.0463 243.328,-19.7511 234.952,-26.239 240.826,-30.0463"/>
</g>
<!-- Node6 -->
<g id="node6" class="node"><title>Node6</title>
<polygon fill="white" stroke="#bfbfbf" points="294,-0.5 294,-19.5 344,-19.5 344,-0.5 294,-0.5"/>
<text text-anchor="middle" x="319" y="-7.5" font-family="Helvetica,sans-Serif" font-size="10.00">signal.h</text>
</g>
<!-- Node1&#45;&gt;Node6 -->
<g id="edge5" class="edge"><title>Node1&#45;&gt;Node6</title>
<path fill="none" stroke="midnightblue" d="M230.87,-56.324C247.709,-47.6641 273.807,-34.2424 293.238,-24.249"/>
<polygon fill="midnightblue" stroke="midnightblue" points="294.88,-27.3405 302.172,-19.6545 291.678,-21.1155 294.88,-27.3405"/>
</g>
<!-- Node7 -->
<g id="node7" class="node"><title>Node7</title>
<polygon fill="white" stroke="#bfbfbf" points="362.5,-0.5 362.5,-19.5 433.5,-19.5 433.5,-0.5 362.5,-0.5"/>
<text text-anchor="middle" x="398" y="-7.5" font-family="Helvetica,sans-Serif" font-size="10.00">bits/param.h</text>
</g>
<!-- Node1&#45;&gt;Node7 -->
<g id="edge6" class="edge"><title>Node1&#45;&gt;Node7</title>
<path fill="none" stroke="midnightblue" d="M240.363,-57.2631C271.518,-48.1198 323.627,-32.8269 359.345,-22.3443"/>
<polygon fill="midnightblue" stroke="midnightblue" points="360.344,-25.6988 368.954,-19.5243 358.373,-18.9821 360.344,-25.6988"/>
</g>
</g>
</svg>
