<?xml version="1.0" encoding="UTF-8" standalone="no"?>
<!DOCTYPE svg PUBLIC "-//W3C//DTD SVG 1.1//EN"
 "http://www.w3.org/Graphics/SVG/1.1/DTD/svg11.dtd">
<!-- Generated by graphviz version 2.38.0 (20140413.2041)
 -->
<!-- Title: PrintHandler.h Pages: 1 -->
<svg width="780pt" height="84pt"
 viewBox="0.00 0.00 779.50 84.00" xmlns="http://www.w3.org/2000/svg" xmlns:xlink="http://www.w3.org/1999/xlink">
<g id="graph0" class="graph" transform="scale(1 1) rotate(0) translate(4 80)">
<title>PrintHandler.h</title>
<polygon fill="white" stroke="none" points="-4,4 -4,-80 775.5,-80 775.5,4 -4,4"/>
<!-- Node1 -->
<g id="node1" class="node"><title>Node1</title>
<polygon fill="#bfbfbf" stroke="black" points="370,-56.5 370,-75.5 449,-75.5 449,-56.5 370,-56.5"/>
<text text-anchor="middle" x="409.5" y="-63.5" font-family="Helvetica,sans-Serif" font-size="10.00">PrintHandler.h</text>
</g>
<!-- Node2 -->
<g id="node2" class="node"><title>Node2</title>
<g id="a_node2"><a xlink:href="HelperMethods_8cpp.html" target="_top" xlink:title="HelperMethods.cpp">
<polygon fill="white" stroke="black" points="0,-0.5 0,-19.5 101,-19.5 101,-0.5 0,-0.5"/>
<text text-anchor="middle" x="50.5" y="-7.5" font-family="Helvetica,sans-Serif" font-size="10.00">HelperMethods.cpp</text>
</a>
</g>
</g>
<!-- Node1&#45;&gt;Node2 -->
<g id="edge1" class="edge"><title>Node1&#45;&gt;Node2</title>
<path fill="none" stroke="midnightblue" d="M359.451,-57.5315C299.889,-48.6344 197.432,-33.3016 109.5,-20 106.734,-19.5816 103.895,-19.1513 101.029,-18.7163"/>
<polygon fill="midnightblue" stroke="midnightblue" points="359.296,-61.047 369.703,-59.0626 360.33,-54.1238 359.296,-61.047"/>
</g>
<!-- Node3 -->
<g id="node3" class="node"><title>Node3</title>
<g id="a_node3"><a xlink:href="CommandLineArgumentParser_8cpp.html" target="_top" xlink:title="CommandLineArgumentParser.cpp">
<polygon fill="white" stroke="black" points="119,-0.5 119,-19.5 288,-19.5 288,-0.5 119,-0.5"/>
<text text-anchor="middle" x="203.5" y="-7.5" font-family="Helvetica,sans-Serif" font-size="10.00">CommandLineArgumentParser.cpp</text>
</a>
</g>
</g>
<!-- Node1&#45;&gt;Node3 -->
<g id="edge2" class="edge"><title>Node1&#45;&gt;Node3</title>
<path fill="none" stroke="midnightblue" d="M366.885,-53.8291C327.99,-43.6333 271.336,-28.7823 235.989,-19.5164"/>
<polygon fill="midnightblue" stroke="midnightblue" points="366.298,-57.2934 376.859,-56.4435 368.073,-50.5222 366.298,-57.2934"/>
</g>
<!-- Node4 -->
<g id="node4" class="node"><title>Node4</title>
<g id="a_node4"><a xlink:href="TestHandler_2MainObject_8cpp.html" target="_top" xlink:title="MainObject.cpp">
<polygon fill="white" stroke="black" points="306,-0.5 306,-19.5 391,-19.5 391,-0.5 306,-0.5"/>
<text text-anchor="middle" x="348.5" y="-7.5" font-family="Helvetica,sans-Serif" font-size="10.00">MainObject.cpp</text>
</a>
</g>
</g>
<!-- Node1&#45;&gt;Node4 -->
<g id="edge3" class="edge"><title>Node1&#45;&gt;Node4</title>
<path fill="none" stroke="midnightblue" d="M392.033,-49.5372C381.156,-39.9087 367.556,-27.8694 358.479,-19.8339"/>
<polygon fill="midnightblue" stroke="midnightblue" points="389.892,-52.3162 399.699,-56.324 394.532,-47.0749 389.892,-52.3162"/>
</g>
<!-- Node5 -->
<g id="node5" class="node"><title>Node5</title>
<g id="a_node5"><a xlink:href="BandwidthCalculator_8cpp.html" target="_top" xlink:title="BandwidthCalculator.cpp">
<polygon fill="white" stroke="black" points="409,-0.5 409,-19.5 534,-19.5 534,-0.5 409,-0.5"/>
<text text-anchor="middle" x="471.5" y="-7.5" font-family="Helvetica,sans-Serif" font-size="10.00">BandwidthCalculator.cpp</text>
</a>
</g>
</g>
<!-- Node1&#45;&gt;Node5 -->
<g id="edge4" class="edge"><title>Node1&#45;&gt;Node5</title>
<path fill="none" stroke="midnightblue" d="M427.254,-49.5372C438.308,-39.9087 452.131,-27.8694 461.357,-19.8339"/>
<polygon fill="midnightblue" stroke="midnightblue" points="424.703,-47.1168 419.461,-56.324 429.301,-52.3954 424.703,-47.1168"/>
</g>
<!-- Node6 -->
<g id="node6" class="node"><title>Node6</title>
<g id="a_node6"><a xlink:href="BandwidthCommunicator_8cpp.html" target="_top" xlink:title="BandwidthCommunicator.cpp">
<polygon fill="white" stroke="black" points="552,-0.5 552,-19.5 697,-19.5 697,-0.5 552,-0.5"/>
<text text-anchor="middle" x="624.5" y="-7.5" font-family="Helvetica,sans-Serif" font-size="10.00">BandwidthCommunicator.cpp</text>
</a>
</g>
</g>
<!-- Node1&#45;&gt;Node6 -->
<g id="edge5" class="edge"><title>Node1&#45;&gt;Node6</title>
<path fill="none" stroke="midnightblue" d="M453.46,-53.959C494.067,-43.7598 553.543,-28.8217 590.592,-19.5164"/>
<polygon fill="midnightblue" stroke="midnightblue" points="452.414,-50.6129 443.567,-56.4435 454.119,-57.4021 452.414,-50.6129"/>
</g>
<!-- Node7 -->
<g id="node7" class="node"><title>Node7</title>
<g id="a_node7"><a xlink:href="WCEnabler_2main_8cpp.html" target="_top" xlink:title="main.cpp">
<polygon fill="white" stroke="black" points="715.5,-0.5 715.5,-19.5 771.5,-19.5 771.5,-0.5 715.5,-0.5"/>
<text text-anchor="middle" x="743.5" y="-7.5" font-family="Helvetica,sans-Serif" font-size="10.00">main.cpp</text>
</a>
</g>
</g>
<!-- Node1&#45;&gt;Node7 -->
<g id="edge6" class="edge"><title>Node1&#45;&gt;Node7</title>
<path fill="none" stroke="midnightblue" d="M459.275,-58.8238C518.458,-51.1656 620.097,-37.0196 706.5,-20 709.354,-19.4378 712.32,-18.803 715.275,-18.1372"/>
<polygon fill="midnightblue" stroke="midnightblue" points="458.559,-55.3869 449.086,-60.1323 459.451,-62.3299 458.559,-55.3869"/>
</g>
</g>
</svg>
