<?xml version="1.0" encoding="UTF-8" standalone="no"?>
<!DOCTYPE svg PUBLIC "-//W3C//DTD SVG 1.1//EN"
 "http://www.w3.org/Graphics/SVG/1.1/DTD/svg11.dtd">
<!-- Generated by graphviz version 2.38.0 (20140413.2041)
 -->
<!-- Title: PrintHandler.h Pages: 1 -->
<svg width="1282pt" height="84pt"
 viewBox="0.00 0.00 1281.50 84.00" xmlns="http://www.w3.org/2000/svg" xmlns:xlink="http://www.w3.org/1999/xlink">
<g id="graph0" class="graph" transform="scale(1 1) rotate(0) translate(4 80)">
<title>PrintHandler.h</title>
<polygon fill="white" stroke="none" points="-4,4 -4,-80 1277.5,-80 1277.5,4 -4,4"/>
<!-- Node1 -->
<g id="node1" class="node"><title>Node1</title>
<polygon fill="#bfbfbf" stroke="black" points="613,-56.5 613,-75.5 692,-75.5 692,-56.5 613,-56.5"/>
<text text-anchor="middle" x="652.5" y="-63.5" font-family="Helvetica,sans-Serif" font-size="10.00">PrintHandler.h</text>
</g>
<!-- Node2 -->
<g id="node2" class="node"><title>Node2</title>
<g id="a_node2"><a xlink:href="HelperMethods_8cpp.html" target="_top" xlink:title="HelperMethods.cpp">
<polygon fill="white" stroke="black" points="0,-0.5 0,-19.5 101,-19.5 101,-0.5 0,-0.5"/>
<text text-anchor="middle" x="50.5" y="-7.5" font-family="Helvetica,sans-Serif" font-size="10.00">HelperMethods.cpp</text>
</a>
</g>
</g>
<!-- Node1&#45;&gt;Node2 -->
<g id="edge1" class="edge"><title>Node1&#45;&gt;Node2</title>
<path fill="none" stroke="midnightblue" d="M602.636,-62.0174C506.861,-56.0342 290.605,-41.2919 109.5,-20 106.824,-19.6854 104.084,-19.3419 101.319,-18.9786"/>
<polygon fill="midnightblue" stroke="midnightblue" points="602.693,-65.5276 612.891,-62.6533 603.126,-58.541 602.693,-65.5276"/>
</g>
<!-- Node3 -->
<g id="node3" class="node"><title>Node3</title>
<g id="a_node3"><a xlink:href="CommandLineArgumentParser_8cpp.html" target="_top" xlink:title="CommandLineArgumentParser.cpp">
<polygon fill="white" stroke="black" points="119,-0.5 119,-19.5 288,-19.5 288,-0.5 119,-0.5"/>
<text text-anchor="middle" x="203.5" y="-7.5" font-family="Helvetica,sans-Serif" font-size="10.00">CommandLineArgumentParser.cpp</text>
</a>
</g>
</g>
<!-- Node1&#45;&gt;Node3 -->
<g id="edge2" class="edge"><title>Node1&#45;&gt;Node3</title>
<path fill="none" stroke="midnightblue" d="M602.357,-58.9694C522.362,-49.3486 365.597,-30.4949 274.233,-19.5069"/>
<polygon fill="midnightblue" stroke="midnightblue" points="602.308,-62.4887 612.654,-60.2079 603.144,-55.5387 602.308,-62.4887"/>
</g>
<!-- Node4 -->
<g id="node4" class="node"><title>Node4</title>
<g id="a_node4"><a xlink:href="TestHandler_2MainObject_8cpp.html" target="_top" xlink:title="MainObject.cpp">
<polygon fill="white" stroke="black" points="306,-0.5 306,-19.5 391,-19.5 391,-0.5 306,-0.5"/>
<text text-anchor="middle" x="348.5" y="-7.5" font-family="Helvetica,sans-Serif" font-size="10.00">MainObject.cpp</text>
</a>
</g>
</g>
<!-- Node1&#45;&gt;Node4 -->
<g id="edge3" class="edge"><title>Node1&#45;&gt;Node4</title>
<path fill="none" stroke="midnightblue" d="M602.576,-56.1319C543.674,-45.669 446.749,-28.4522 391.19,-18.5831"/>
<polygon fill="midnightblue" stroke="midnightblue" points="602.299,-59.6375 612.757,-57.9404 603.524,-52.7454 602.299,-59.6375"/>
</g>
<!-- Node5 -->
<g id="node5" class="node"><title>Node5</title>
<g id="a_node5"><a xlink:href="ClientServerTest_8cpp.html" target="_top" xlink:title="ClientServerTest.cpp">
<polygon fill="white" stroke="black" points="409,-0.5 409,-19.5 518,-19.5 518,-0.5 409,-0.5"/>
<text text-anchor="middle" x="463.5" y="-7.5" font-family="Helvetica,sans-Serif" font-size="10.00">ClientServerTest.cpp</text>
</a>
</g>
</g>
<!-- Node1&#45;&gt;Node5 -->
<g id="edge4" class="edge"><title>Node1&#45;&gt;Node5</title>
<path fill="none" stroke="midnightblue" d="M612.487,-53.5677C576.833,-43.381 525.462,-28.7034 493.308,-19.5164"/>
<polygon fill="midnightblue" stroke="midnightblue" points="611.976,-57.0616 622.552,-56.4435 613.899,-50.3309 611.976,-57.0616"/>
</g>
<!-- Node6 -->
<g id="node6" class="node"><title>Node6</title>
<g id="a_node6"><a xlink:href="SingleClientTest_8cpp.html" target="_top" xlink:title="SingleClientTest.cpp">
<polygon fill="white" stroke="black" points="536,-0.5 536,-19.5 643,-19.5 643,-0.5 536,-0.5"/>
<text text-anchor="middle" x="589.5" y="-7.5" font-family="Helvetica,sans-Serif" font-size="10.00">SingleClientTest.cpp</text>
</a>
</g>
</g>
<!-- Node1&#45;&gt;Node6 -->
<g id="edge5" class="edge"><title>Node1&#45;&gt;Node6</title>
<path fill="none" stroke="midnightblue" d="M634.46,-49.5372C623.227,-39.9087 609.181,-27.8694 599.806,-19.8339"/>
<polygon fill="midnightblue" stroke="midnightblue" points="632.508,-52.4734 642.378,-56.324 637.063,-47.1586 632.508,-52.4734"/>
</g>
<!-- Node7 -->
<g id="node7" class="node"><title>Node7</title>
<g id="a_node7"><a xlink:href="SingleServerTest_8cpp.html" target="_top" xlink:title="SingleServerTest.cpp">
<polygon fill="white" stroke="black" points="661.5,-0.5 661.5,-19.5 771.5,-19.5 771.5,-0.5 661.5,-0.5"/>
<text text-anchor="middle" x="716.5" y="-7.5" font-family="Helvetica,sans-Serif" font-size="10.00">SingleServerTest.cpp</text>
</a>
</g>
</g>
<!-- Node1&#45;&gt;Node7 -->
<g id="edge6" class="edge"><title>Node1&#45;&gt;Node7</title>
<path fill="none" stroke="midnightblue" d="M670.491,-49.8197C681.958,-40.1452 696.413,-27.9481 706.03,-19.8339"/>
<polygon fill="midnightblue" stroke="midnightblue" points="668.169,-47.2002 662.783,-56.324 672.683,-52.5502 668.169,-47.2002"/>
</g>
<!-- Node8 -->
<g id="node8" class="node"><title>Node8</title>
<g id="a_node8"><a xlink:href="TestBaseClass_8cpp.html" target="_top" xlink:title="TestBaseClass.cpp">
<polygon fill="white" stroke="black" points="790,-0.5 790,-19.5 893,-19.5 893,-0.5 790,-0.5"/>
<text text-anchor="middle" x="841.5" y="-7.5" font-family="Helvetica,sans-Serif" font-size="10.00">TestBaseClass.cpp</text>
</a>
</g>
</g>
<!-- Node1&#45;&gt;Node8 -->
<g id="edge7" class="edge"><title>Node1&#45;&gt;Node8</title>
<path fill="none" stroke="midnightblue" d="M692.513,-53.5677C728.167,-43.381 779.538,-28.7034 811.692,-19.5164"/>
<polygon fill="midnightblue" stroke="midnightblue" points="691.101,-50.3309 682.448,-56.4435 693.024,-57.0616 691.101,-50.3309"/>
</g>
<!-- Node9 -->
<g id="node9" class="node"><title>Node9</title>
<g id="a_node9"><a xlink:href="BandwidthCalculator_8cpp.html" target="_top" xlink:title="BandwidthCalculator.cpp">
<polygon fill="white" stroke="black" points="911,-0.5 911,-19.5 1036,-19.5 1036,-0.5 911,-0.5"/>
<text text-anchor="middle" x="973.5" y="-7.5" font-family="Helvetica,sans-Serif" font-size="10.00">BandwidthCalculator.cpp</text>
</a>
</g>
</g>
<!-- Node1&#45;&gt;Node9 -->
<g id="edge8" class="edge"><title>Node1&#45;&gt;Node9</title>
<path fill="none" stroke="midnightblue" d="M702.168,-56.6446C762.126,-46.5583 862.409,-29.6882 922.817,-19.5261"/>
<polygon fill="midnightblue" stroke="midnightblue" points="701.464,-53.2139 692.183,-58.3244 702.625,-60.1169 701.464,-53.2139"/>
</g>
<!-- Node10 -->
<g id="node10" class="node"><title>Node10</title>
<g id="a_node10"><a xlink:href="BandwidthCommunicator_8cpp.html" target="_top" xlink:title="BandwidthCommunicator.cpp">
<polygon fill="white" stroke="black" points="1054,-0.5 1054,-19.5 1199,-19.5 1199,-0.5 1054,-0.5"/>
<text text-anchor="middle" x="1126.5" y="-7.5" font-family="Helvetica,sans-Serif" font-size="10.00">BandwidthCommunicator.cpp</text>
</a>
</g>
</g>
<!-- Node1&#45;&gt;Node10 -->
<g id="edge9" class="edge"><title>Node1&#45;&gt;Node10</title>
<path fill="none" stroke="midnightblue" d="M702.14,-59.3448C786.092,-49.7806 956.46,-30.3716 1053.86,-19.2754"/>
<polygon fill="midnightblue" stroke="midnightblue" points="701.637,-55.8794 692.098,-60.4889 702.43,-62.8344 701.637,-55.8794"/>
</g>
<!-- Node11 -->
<g id="node11" class="node"><title>Node11</title>
<g id="a_node11"><a xlink:href="WCEnabler_2main_8cpp.html" target="_top" xlink:title="main.cpp">
<polygon fill="white" stroke="black" points="1217.5,-0.5 1217.5,-19.5 1273.5,-19.5 1273.5,-0.5 1217.5,-0.5"/>
<text text-anchor="middle" x="1245.5" y="-7.5" font-family="Helvetica,sans-Serif" font-size="10.00">main.cpp</text>
</a>
</g>
</g>
<!-- Node1&#45;&gt;Node11 -->
<g id="edge10" class="edge"><title>Node1&#45;&gt;Node11</title>
<path fill="none" stroke="midnightblue" d="M702.365,-63.601C800.065,-60.2794 1023.31,-49.8262 1208.5,-20 1211.37,-19.5375 1214.35,-18.9681 1217.31,-18.3422"/>
<polygon fill="midnightblue" stroke="midnightblue" points="702.073,-60.1086 692.194,-63.9363 702.303,-67.1048 702.073,-60.1086"/>
</g>
</g>
</svg>
