<?xml version="1.0" encoding="UTF-8" standalone="no"?>
<!DOCTYPE svg PUBLIC "-//W3C//DTD SVG 1.1//EN"
 "http://www.w3.org/Graphics/SVG/1.1/DTD/svg11.dtd">
<!-- Generated by graphviz version 2.38.0 (20140413.2041)
 -->
<!-- Title: PrintUsage.h Pages: 1 -->
<svg width="458pt" height="84pt"
 viewBox="0.00 0.00 457.50 84.00" xmlns="http://www.w3.org/2000/svg" xmlns:xlink="http://www.w3.org/1999/xlink">
<g id="graph0" class="graph" transform="scale(1 1) rotate(0) translate(4 80)">
<title>PrintUsage.h</title>
<polygon fill="white" stroke="none" points="-4,4 -4,-80 453.5,-80 453.5,4 -4,4"/>
<!-- Node1 -->
<g id="node1" class="node"><title>Node1</title>
<polygon fill="#bfbfbf" stroke="black" points="222.5,-56.5 222.5,-75.5 296.5,-75.5 296.5,-56.5 222.5,-56.5"/>
<text text-anchor="middle" x="259.5" y="-63.5" font-family="Helvetica,sans-Serif" font-size="10.00">PrintUsage.h</text>
</g>
<!-- Node2 -->
<g id="node2" class="node"><title>Node2</title>
<g id="a_node2"><a xlink:href="CommandLineArgumentParser_8cpp.html" target="_top" xlink:title="CommandLineArgumentParser.cpp">
<polygon fill="white" stroke="black" points="0,-0.5 0,-19.5 169,-19.5 169,-0.5 0,-0.5"/>
<text text-anchor="middle" x="84.5" y="-7.5" font-family="Helvetica,sans-Serif" font-size="10.00">CommandLineArgumentParser.cpp</text>
</a>
</g>
</g>
<!-- Node1&#45;&gt;Node2 -->
<g id="edge1" class="edge"><title>Node1&#45;&gt;Node2</title>
<path fill="none" stroke="midnightblue" d="M222.025,-53.4363C189.03,-43.2551 141.744,-28.664 112.1,-19.5164"/>
<polygon fill="midnightblue" stroke="midnightblue" points="221.183,-56.8393 231.771,-56.4435 223.247,-50.1505 221.183,-56.8393"/>
</g>
<!-- Node3 -->
<g id="node3" class="node"><title>Node3</title>
<g id="a_node3"><a xlink:href="TestHandler_2main_8cpp.html" target="_top" xlink:title="main.cpp">
<polygon fill="white" stroke="black" points="187.5,-0.5 187.5,-19.5 243.5,-19.5 243.5,-0.5 187.5,-0.5"/>
<text text-anchor="middle" x="215.5" y="-7.5" font-family="Helvetica,sans-Serif" font-size="10.00">main.cpp</text>
</a>
</g>
</g>
<!-- Node1&#45;&gt;Node3 -->
<g id="edge2" class="edge"><title>Node1&#45;&gt;Node3</title>
<path fill="none" stroke="midnightblue" d="M245.765,-48.144C238.099,-38.7357 228.867,-27.4046 222.631,-19.7511"/>
<polygon fill="midnightblue" stroke="midnightblue" points="243.204,-50.5415 252.234,-56.083 248.631,-46.1198 243.204,-50.5415"/>
</g>
<!-- Node4 -->
<g id="node4" class="node"><title>Node4</title>
<g id="a_node4"><a xlink:href="TestHandler_2MainObject_8cpp.html" target="_top" xlink:title="MainObject.cpp">
<polygon fill="white" stroke="black" points="262,-0.5 262,-19.5 347,-19.5 347,-0.5 262,-0.5"/>
<text text-anchor="middle" x="304.5" y="-7.5" font-family="Helvetica,sans-Serif" font-size="10.00">MainObject.cpp</text>
</a>
</g>
</g>
<!-- Node1&#45;&gt;Node4 -->
<g id="edge3" class="edge"><title>Node1&#45;&gt;Node4</title>
<path fill="none" stroke="midnightblue" d="M273.547,-48.144C281.387,-38.7357 290.829,-27.4046 297.207,-19.7511"/>
<polygon fill="midnightblue" stroke="midnightblue" points="270.644,-46.1601 266.931,-56.083 276.021,-50.6414 270.644,-46.1601"/>
</g>
<!-- Node5 -->
<g id="node5" class="node"><title>Node5</title>
<g id="a_node5"><a xlink:href="PrintUsage_8cpp.html" target="_top" xlink:title="PrintUsage.cpp">
<polygon fill="white" stroke="black" points="365.5,-0.5 365.5,-19.5 449.5,-19.5 449.5,-0.5 365.5,-0.5"/>
<text text-anchor="middle" x="407.5" y="-7.5" font-family="Helvetica,sans-Serif" font-size="10.00">PrintUsage.cpp</text>
</a>
</g>
</g>
<!-- Node1&#45;&gt;Node5 -->
<g id="edge4" class="edge"><title>Node1&#45;&gt;Node5</title>
<path fill="none" stroke="midnightblue" d="M292.647,-52.9058C320.472,-42.7536 359.52,-28.5063 384.159,-19.5164"/>
<polygon fill="midnightblue" stroke="midnightblue" points="291.146,-49.7279 282.951,-56.4435 293.545,-56.3038 291.146,-49.7279"/>
</g>
</g>
</svg>
