<?xml version="1.0" encoding="UTF-8" standalone="no"?>
<!DOCTYPE svg PUBLIC "-//W3C//DTD SVG 1.1//EN"
 "http://www.w3.org/Graphics/SVG/1.1/DTD/svg11.dtd">
<!-- Generated by graphviz version 2.38.0 (20140413.2041)
 -->
<!-- Title: rtnetlink.h Pages: 1 -->
<svg width="472pt" height="84pt"
 viewBox="0.00 0.00 472.00 84.00" xmlns="http://www.w3.org/2000/svg" xmlns:xlink="http://www.w3.org/1999/xlink">
<g id="graph0" class="graph" transform="scale(1 1) rotate(0) translate(4 80)">
<title>rtnetlink.h</title>
<polygon fill="white" stroke="none" points="-4,4 -4,-80 468,-80 468,4 -4,4"/>
<!-- Node1 -->
<g id="node1" class="node"><title>Node1</title>
<polygon fill="#bfbfbf" stroke="black" points="193.5,-56.5 193.5,-75.5 252.5,-75.5 252.5,-56.5 193.5,-56.5"/>
<text text-anchor="middle" x="223" y="-63.5" font-family="Helvetica,sans-Serif" font-size="10.00">rtnetlink.h</text>
</g>
<!-- Node2 -->
<g id="node2" class="node"><title>Node2</title>
<polygon fill="white" stroke="#bfbfbf" points="0,-0.5 0,-19.5 72,-19.5 72,-0.5 0,-0.5"/>
<text text-anchor="middle" x="36" y="-7.5" font-family="Helvetica,sans-Serif" font-size="10.00">linux/types.h</text>
</g>
<!-- Node1&#45;&gt;Node2 -->
<g id="edge1" class="edge"><title>Node1&#45;&gt;Node2</title>
<path fill="none" stroke="midnightblue" d="M193.369,-56.4435C161.5,-47.2406 110.667,-32.5617 75.436,-22.3879"/>
<polygon fill="midnightblue" stroke="midnightblue" points="76.0706,-18.9282 65.4921,-19.5164 74.1285,-25.6534 76.0706,-18.9282"/>
</g>
<!-- Node3 -->
<g id="node3" class="node"><title>Node3</title>
<polygon fill="white" stroke="#bfbfbf" points="90.5,-0.5 90.5,-19.5 167.5,-19.5 167.5,-0.5 90.5,-0.5"/>
<text text-anchor="middle" x="129" y="-7.5" font-family="Helvetica,sans-Serif" font-size="10.00">linux/netlink.h</text>
</g>
<!-- Node1&#45;&gt;Node3 -->
<g id="edge2" class="edge"><title>Node1&#45;&gt;Node3</title>
<path fill="none" stroke="midnightblue" d="M207.897,-56.324C193.097,-47.8215 170.306,-34.7288 153.018,-24.7975"/>
<polygon fill="midnightblue" stroke="midnightblue" points="154.48,-21.6009 144.065,-19.6545 150.993,-27.6707 154.48,-21.6009"/>
</g>
<!-- Node4 -->
<g id="node4" class="node"><title>Node4</title>
<polygon fill="white" stroke="#bfbfbf" points="186,-0.5 186,-19.5 260,-19.5 260,-0.5 186,-0.5"/>
<text text-anchor="middle" x="223" y="-7.5" font-family="Helvetica,sans-Serif" font-size="10.00">linux/if_link.h</text>
</g>
<!-- Node1&#45;&gt;Node4 -->
<g id="edge3" class="edge"><title>Node1&#45;&gt;Node4</title>
<path fill="none" stroke="midnightblue" d="M223,-56.083C223,-49.0059 223,-38.8611 223,-29.9865"/>
<polygon fill="midnightblue" stroke="midnightblue" points="226.5,-29.751 223,-19.7511 219.5,-29.7511 226.5,-29.751"/>
</g>
<!-- Node5 -->
<g id="node5" class="node"><title>Node5</title>
<polygon fill="white" stroke="#bfbfbf" points="278.5,-0.5 278.5,-19.5 355.5,-19.5 355.5,-0.5 278.5,-0.5"/>
<text text-anchor="middle" x="317" y="-7.5" font-family="Helvetica,sans-Serif" font-size="10.00">linux/if_addr.h</text>
</g>
<!-- Node1&#45;&gt;Node5 -->
<g id="edge4" class="edge"><title>Node1&#45;&gt;Node5</title>
<path fill="none" stroke="midnightblue" d="M238.103,-56.324C252.903,-47.8215 275.694,-34.7288 292.982,-24.7975"/>
<polygon fill="midnightblue" stroke="midnightblue" points="295.007,-27.6707 301.935,-19.6545 291.52,-21.6009 295.007,-27.6707"/>
</g>
<!-- Node6 -->
<g id="node6" class="node"><title>Node6</title>
<polygon fill="white" stroke="#bfbfbf" points="374,-0.5 374,-19.5 464,-19.5 464,-0.5 374,-0.5"/>
<text text-anchor="middle" x="419" y="-7.5" font-family="Helvetica,sans-Serif" font-size="10.00">linux/neighbour.h</text>
</g>
<!-- Node1&#45;&gt;Node6 -->
<g id="edge5" class="edge"><title>Node1&#45;&gt;Node6</title>
<path fill="none" stroke="midnightblue" d="M252.768,-56.7986C286.148,-47.6021 340.493,-32.6294 377.907,-22.3216"/>
<polygon fill="midnightblue" stroke="midnightblue" points="379.268,-25.5772 387.979,-19.5467 377.408,-18.8286 379.268,-25.5772"/>
</g>
</g>
</svg>
