<?xml version="1.0" encoding="UTF-8" standalone="no"?>
<!DOCTYPE svg PUBLIC "-//W3C//DTD SVG 1.1//EN"
 "http://www.w3.org/Graphics/SVG/1.1/DTD/svg11.dtd">
<!-- Generated by graphviz version 2.38.0 (20140413.2041)
 -->
<!-- Title: SimpleRateCalculation.h Pages: 1 -->
<svg width="429pt" height="196pt"
 viewBox="0.00 0.00 428.50 196.00" xmlns="http://www.w3.org/2000/svg" xmlns:xlink="http://www.w3.org/1999/xlink">
<g id="graph0" class="graph" transform="scale(1 1) rotate(0) translate(4 192)">
<title>SimpleRateCalculation.h</title>
<polygon fill="white" stroke="none" points="-4,4 -4,-192 424.5,-192 424.5,4 -4,4"/>
<!-- Node1 -->
<g id="node1" class="node"><title>Node1</title>
<polygon fill="#bfbfbf" stroke="black" points="80,-168.5 80,-187.5 205,-187.5 205,-168.5 80,-168.5"/>
<text text-anchor="middle" x="142.5" y="-175.5" font-family="Helvetica,sans-Serif" font-size="10.00">SimpleRateCalculation.h</text>
</g>
<!-- Node2 -->
<g id="node2" class="node"><title>Node2</title>
<g id="a_node2"><a xlink:href="SimpleRateCalculation_8cpp.html" target="_top" xlink:title="SimpleRateCalculation.cpp">
<polygon fill="white" stroke="black" points="2,-112.5 2,-131.5 137,-131.5 137,-112.5 2,-112.5"/>
<text text-anchor="middle" x="69.5" y="-119.5" font-family="Helvetica,sans-Serif" font-size="10.00">SimpleRateCalculation.cpp</text>
</a>
</g>
</g>
<!-- Node1&#45;&gt;Node2 -->
<g id="edge1" class="edge"><title>Node1&#45;&gt;Node2</title>
<path fill="none" stroke="midnightblue" d="M122.358,-162.101C109.221,-152.382 92.5179,-140.027 81.4421,-131.834"/>
<polygon fill="midnightblue" stroke="midnightblue" points="120.65,-165.191 130.771,-168.324 124.813,-159.563 120.65,-165.191"/>
</g>
<!-- Node3 -->
<g id="node3" class="node"><title>Node3</title>
<g id="a_node3"><a xlink:href="SimpleRateCalculator_8h.html" target="_top" xlink:title="SimpleRateCalculator.h">
<polygon fill="white" stroke="black" points="155.5,-112.5 155.5,-131.5 275.5,-131.5 275.5,-112.5 155.5,-112.5"/>
<text text-anchor="middle" x="215.5" y="-119.5" font-family="Helvetica,sans-Serif" font-size="10.00">SimpleRateCalculator.h</text>
</a>
</g>
</g>
<!-- Node1&#45;&gt;Node3 -->
<g id="edge2" class="edge"><title>Node1&#45;&gt;Node3</title>
<path fill="none" stroke="midnightblue" d="M162.642,-162.101C175.779,-152.382 192.482,-140.027 203.558,-131.834"/>
<polygon fill="midnightblue" stroke="midnightblue" points="160.187,-159.563 154.229,-168.324 164.35,-165.191 160.187,-159.563"/>
</g>
<!-- Node4 -->
<g id="node4" class="node"><title>Node4</title>
<g id="a_node4"><a xlink:href="BandwidthCalculator_8h.html" target="_top" xlink:title="BandwidthCalculator.h">
<polygon fill="white" stroke="black" points="158,-56.5 158,-75.5 273,-75.5 273,-56.5 158,-56.5"/>
<text text-anchor="middle" x="215.5" y="-63.5" font-family="Helvetica,sans-Serif" font-size="10.00">BandwidthCalculator.h</text>
</a>
</g>
</g>
<!-- Node3&#45;&gt;Node4 -->
<g id="edge3" class="edge"><title>Node3&#45;&gt;Node4</title>
<path fill="none" stroke="midnightblue" d="M215.5,-101.805C215.5,-92.9102 215.5,-82.7798 215.5,-75.7511"/>
<polygon fill="midnightblue" stroke="midnightblue" points="212,-102.083 215.5,-112.083 219,-102.083 212,-102.083"/>
</g>
<!-- Node5 -->
<g id="node5" class="node"><title>Node5</title>
<g id="a_node5"><a xlink:href="BandwidthCalculator_8cpp.html" target="_top" xlink:title="BandwidthCalculator.cpp">
<polygon fill="white" stroke="black" points="0,-0.5 0,-19.5 125,-19.5 125,-0.5 0,-0.5"/>
<text text-anchor="middle" x="62.5" y="-7.5" font-family="Helvetica,sans-Serif" font-size="10.00">BandwidthCalculator.cpp</text>
</a>
</g>
</g>
<!-- Node4&#45;&gt;Node5 -->
<g id="edge4" class="edge"><title>Node4&#45;&gt;Node5</title>
<path fill="none" stroke="midnightblue" d="M181.611,-53.0392C152.823,-42.8786 112.213,-28.5457 86.6299,-19.5164"/>
<polygon fill="midnightblue" stroke="midnightblue" points="180.662,-56.4157 191.257,-56.4435 182.992,-49.8148 180.662,-56.4157"/>
</g>
<!-- Node6 -->
<g id="node6" class="node"><title>Node6</title>
<g id="a_node6"><a xlink:href="BandwidthCommunicator_8cpp.html" target="_top" xlink:title="BandwidthCommunicator.cpp">
<polygon fill="white" stroke="black" points="143,-0.5 143,-19.5 288,-19.5 288,-0.5 143,-0.5"/>
<text text-anchor="middle" x="215.5" y="-7.5" font-family="Helvetica,sans-Serif" font-size="10.00">BandwidthCommunicator.cpp</text>
</a>
</g>
</g>
<!-- Node4&#45;&gt;Node6 -->
<g id="edge5" class="edge"><title>Node4&#45;&gt;Node6</title>
<path fill="none" stroke="midnightblue" d="M215.5,-45.8045C215.5,-36.9102 215.5,-26.7798 215.5,-19.7511"/>
<polygon fill="midnightblue" stroke="midnightblue" points="212,-46.083 215.5,-56.083 219,-46.083 212,-46.083"/>
</g>
<!-- Node7 -->
<g id="node7" class="node"><title>Node7</title>
<g id="a_node7"><a xlink:href="WCEnablerObject_8cpp.html" target="_top" xlink:title="WCEnablerObject.cpp">
<polygon fill="white" stroke="black" points="306.5,-0.5 306.5,-19.5 420.5,-19.5 420.5,-0.5 306.5,-0.5"/>
<text text-anchor="middle" x="363.5" y="-7.5" font-family="Helvetica,sans-Serif" font-size="10.00">WCEnablerObject.cpp</text>
</a>
</g>
</g>
<!-- Node4&#45;&gt;Node7 -->
<g id="edge6" class="edge"><title>Node4&#45;&gt;Node7</title>
<path fill="none" stroke="midnightblue" d="M248.647,-52.9058C276.472,-42.7536 315.52,-28.5063 340.159,-19.5164"/>
<polygon fill="midnightblue" stroke="midnightblue" points="247.146,-49.7279 238.951,-56.4435 249.545,-56.3038 247.146,-49.7279"/>
</g>
</g>
</svg>
