<?xml version="1.0" encoding="UTF-8" standalone="no"?>
<!DOCTYPE svg PUBLIC "-//W3C//DTD SVG 1.1//EN"
 "http://www.w3.org/Graphics/SVG/1.1/DTD/svg11.dtd">
<!-- Generated by graphviz version 2.38.0 (20140413.2041)
 -->
<!-- Title: SimpleRateCalculation.h Pages: 1 -->
<svg width="194pt" height="84pt"
 viewBox="0.00 0.00 193.50 84.00" xmlns="http://www.w3.org/2000/svg" xmlns:xlink="http://www.w3.org/1999/xlink">
<g id="graph0" class="graph" transform="scale(1 1) rotate(0) translate(4 80)">
<title>SimpleRateCalculation.h</title>
<polygon fill="white" stroke="none" points="-4,4 -4,-80 189.5,-80 189.5,4 -4,4"/>
<!-- Node1 -->
<g id="node1" class="node"><title>Node1</title>
<polygon fill="#bfbfbf" stroke="black" points="50,-56.5 50,-75.5 175,-75.5 175,-56.5 50,-56.5"/>
<text text-anchor="middle" x="112.5" y="-63.5" font-family="Helvetica,sans-Serif" font-size="10.00">SimpleRateCalculation.h</text>
</g>
<!-- Node2 -->
<g id="node2" class="node"><title>Node2</title>
<g id="a_node2"><a xlink:href="CurrentAndLastValues_8h.html" target="_top" xlink:title="CurrentAndLastValues.h">
<polygon fill="white" stroke="black" points="0,-0.5 0,-19.5 123,-19.5 123,-0.5 0,-0.5"/>
<text text-anchor="middle" x="61.5" y="-7.5" font-family="Helvetica,sans-Serif" font-size="10.00">CurrentAndLastValues.h</text>
</a>
</g>
</g>
<!-- Node1&#45;&gt;Node2 -->
<g id="edge1" class="edge"><title>Node1&#45;&gt;Node2</title>
<path fill="none" stroke="midnightblue" d="M104.078,-56.083C96.6518,-48.2195 85.6483,-36.5688 76.6878,-27.0813"/>
<polygon fill="midnightblue" stroke="midnightblue" points="79.1757,-24.618 69.7649,-19.7511 74.0866,-29.4244 79.1757,-24.618"/>
</g>
<!-- Node3 -->
<g id="node3" class="node"><title>Node3</title>
<polygon fill="white" stroke="#bfbfbf" points="141.5,-0.5 141.5,-19.5 185.5,-19.5 185.5,-0.5 141.5,-0.5"/>
<text text-anchor="middle" x="163.5" y="-7.5" font-family="Helvetica,sans-Serif" font-size="10.00">time.h</text>
</g>
<!-- Node1&#45;&gt;Node3 -->
<g id="edge2" class="edge"><title>Node1&#45;&gt;Node3</title>
<path fill="none" stroke="midnightblue" d="M120.922,-56.083C128.348,-48.2195 139.352,-36.5688 148.312,-27.0813"/>
<polygon fill="midnightblue" stroke="midnightblue" points="150.913,-29.4244 155.235,-19.7511 145.824,-24.618 150.913,-29.4244"/>
</g>
</g>
</svg>
