<?xml version="1.0" encoding="UTF-8" standalone="no"?>
<!DOCTYPE svg PUBLIC "-//W3C//DTD SVG 1.1//EN"
 "http://www.w3.org/Graphics/SVG/1.1/DTD/svg11.dtd">
<!-- Generated by graphviz version 2.38.0 (20140413.2041)
 -->
<!-- Title: SimpleRateCalculator.h Pages: 1 -->
<svg width="231pt" height="140pt"
 viewBox="0.00 0.00 231.00 140.00" xmlns="http://www.w3.org/2000/svg" xmlns:xlink="http://www.w3.org/1999/xlink">
<g id="graph0" class="graph" transform="scale(1 1) rotate(0) translate(4 136)">
<title>SimpleRateCalculator.h</title>
<polygon fill="white" stroke="none" points="-4,4 -4,-136 227,-136 227,4 -4,4"/>
<!-- Node1 -->
<g id="node1" class="node"><title>Node1</title>
<polygon fill="#bfbfbf" stroke="black" points="9.5,-112.5 9.5,-131.5 129.5,-131.5 129.5,-112.5 9.5,-112.5"/>
<text text-anchor="middle" x="69.5" y="-119.5" font-family="Helvetica,sans-Serif" font-size="10.00">SimpleRateCalculator.h</text>
</g>
<!-- Node2 -->
<g id="node2" class="node"><title>Node2</title>
<polygon fill="white" stroke="#bfbfbf" points="0,-56.5 0,-75.5 41,-75.5 41,-56.5 0,-56.5"/>
<text text-anchor="middle" x="20.5" y="-63.5" font-family="Helvetica,sans-Serif" font-size="10.00">ctime</text>
</g>
<!-- Node1&#45;&gt;Node2 -->
<g id="edge1" class="edge"><title>Node1&#45;&gt;Node2</title>
<path fill="none" stroke="midnightblue" d="M61.4086,-112.083C54.3446,-104.298 43.9124,-92.8015 35.3511,-83.3665"/>
<polygon fill="midnightblue" stroke="midnightblue" points="37.7527,-80.8047 28.4408,-75.7511 32.5688,-85.5087 37.7527,-80.8047"/>
</g>
<!-- Node3 -->
<g id="node3" class="node"><title>Node3</title>
<g id="a_node3"><a xlink:href="CurrentAndLastValues_8h.html" target="_top" xlink:title="CurrentAndLastValues.h">
<polygon fill="white" stroke="black" points="8,-0.5 8,-19.5 131,-19.5 131,-0.5 8,-0.5"/>
<text text-anchor="middle" x="69.5" y="-7.5" font-family="Helvetica,sans-Serif" font-size="10.00">CurrentAndLastValues.h</text>
</a>
</g>
</g>
<!-- Node1&#45;&gt;Node3 -->
<g id="edge2" class="edge"><title>Node1&#45;&gt;Node3</title>
<path fill="none" stroke="midnightblue" d="M69.5,-112.368C69.5,-94.617 69.5,-53.6664 69.5,-29.5974"/>
<polygon fill="midnightblue" stroke="midnightblue" points="73.0001,-29.5914 69.5,-19.5914 66.0001,-29.5915 73.0001,-29.5914"/>
</g>
<!-- Node4 -->
<g id="node4" class="node"><title>Node4</title>
<g id="a_node4"><a xlink:href="SimpleRateCalculation_8h.html" target="_top" xlink:title="SimpleRateCalculation.h">
<polygon fill="white" stroke="black" points="98,-56.5 98,-75.5 223,-75.5 223,-56.5 98,-56.5"/>
<text text-anchor="middle" x="160.5" y="-63.5" font-family="Helvetica,sans-Serif" font-size="10.00">SimpleRateCalculation.h</text>
</a>
</g>
</g>
<!-- Node1&#45;&gt;Node4 -->
<g id="edge3" class="edge"><title>Node1&#45;&gt;Node4</title>
<path fill="none" stroke="midnightblue" d="M84.1207,-112.324C98.4489,-103.822 120.513,-90.7288 137.249,-80.7975"/>
<polygon fill="midnightblue" stroke="midnightblue" points="139.102,-83.7677 145.916,-75.6545 135.53,-77.7478 139.102,-83.7677"/>
</g>
<!-- Node4&#45;&gt;Node3 -->
<g id="edge4" class="edge"><title>Node4&#45;&gt;Node3</title>
<path fill="none" stroke="midnightblue" d="M145.879,-56.324C131.551,-47.8215 109.487,-34.7288 92.7513,-24.7975"/>
<polygon fill="midnightblue" stroke="midnightblue" points="94.4704,-21.7478 84.0844,-19.6545 90.8982,-27.7677 94.4704,-21.7478"/>
</g>
<!-- Node5 -->
<g id="node5" class="node"><title>Node5</title>
<polygon fill="white" stroke="#bfbfbf" points="149.5,-0.5 149.5,-19.5 193.5,-19.5 193.5,-0.5 149.5,-0.5"/>
<text text-anchor="middle" x="171.5" y="-7.5" font-family="Helvetica,sans-Serif" font-size="10.00">time.h</text>
</g>
<!-- Node4&#45;&gt;Node5 -->
<g id="edge5" class="edge"><title>Node4&#45;&gt;Node5</title>
<path fill="none" stroke="midnightblue" d="M162.316,-56.083C163.774,-48.9272 165.871,-38.6353 167.693,-29.6911"/>
<polygon fill="midnightblue" stroke="midnightblue" points="171.151,-30.2485 169.717,-19.7511 164.292,-28.8512 171.151,-30.2485"/>
</g>
</g>
</svg>
