<?xml version="1.0" encoding="UTF-8" standalone="no"?>
<!DOCTYPE svg PUBLIC "-//W3C//DTD SVG 1.1//EN"
 "http://www.w3.org/Graphics/SVG/1.1/DTD/svg11.dtd">
<!-- Generated by graphviz version 2.38.0 (20140413.2041)
 -->
<!-- Title: SingleClientTest.cpp Pages: 1 -->
<svg width="488pt" height="252pt"
 viewBox="0.00 0.00 487.50 252.00" xmlns="http://www.w3.org/2000/svg" xmlns:xlink="http://www.w3.org/1999/xlink">
<g id="graph0" class="graph" transform="scale(1 1) rotate(0) translate(4 248)">
<title>SingleClientTest.cpp</title>
<polygon fill="white" stroke="none" points="-4,4 -4,-248 483.5,-248 483.5,4 -4,4"/>
<!-- Node1 -->
<g id="node1" class="node"><title>Node1</title>
<polygon fill="#bfbfbf" stroke="black" points="191.5,-224.5 191.5,-243.5 298.5,-243.5 298.5,-224.5 191.5,-224.5"/>
<text text-anchor="middle" x="245" y="-231.5" font-family="Helvetica,sans-Serif" font-size="10.00">SingleClientTest.cpp</text>
</g>
<!-- Node2 -->
<g id="node2" class="node"><title>Node2</title>
<g id="a_node2"><a xlink:href="SingleClientTest_8h.html" target="_top" xlink:title="SingleClientTest.h">
<polygon fill="white" stroke="black" points="31.5,-168.5 31.5,-187.5 128.5,-187.5 128.5,-168.5 31.5,-168.5"/>
<text text-anchor="middle" x="80" y="-175.5" font-family="Helvetica,sans-Serif" font-size="10.00">SingleClientTest.h</text>
</a>
</g>
</g>
<!-- Node1&#45;&gt;Node2 -->
<g id="edge1" class="edge"><title>Node1&#45;&gt;Node2</title>
<path fill="none" stroke="midnightblue" d="M218.855,-224.444C190.977,-215.32 146.652,-200.813 115.6,-190.651"/>
<polygon fill="midnightblue" stroke="midnightblue" points="116.615,-187.3 106.022,-187.516 114.438,-193.953 116.615,-187.3"/>
</g>
<!-- Node7 -->
<g id="node7" class="node"><title>Node7</title>
<polygon fill="white" stroke="#bfbfbf" points="132.5,-0.5 132.5,-19.5 181.5,-19.5 181.5,-0.5 132.5,-0.5"/>
<text text-anchor="middle" x="157" y="-7.5" font-family="Helvetica,sans-Serif" font-size="10.00">string.h</text>
</g>
<!-- Node1&#45;&gt;Node7 -->
<g id="edge8" class="edge"><title>Node1&#45;&gt;Node7</title>
<path fill="none" stroke="midnightblue" d="M222.452,-224.477C206.682,-217.266 186.613,-205.314 176,-188 145.091,-137.576 149.775,-63.6315 154.111,-29.5077"/>
<polygon fill="midnightblue" stroke="midnightblue" points="157.584,-29.9445 155.516,-19.5534 150.653,-28.966 157.584,-29.9445"/>
</g>
<!-- Node8 -->
<g id="node8" class="node"><title>Node8</title>
<polygon fill="white" stroke="#bfbfbf" points="185,-168.5 185,-187.5 233,-187.5 233,-168.5 185,-168.5"/>
<text text-anchor="middle" x="209" y="-175.5" font-family="Helvetica,sans-Serif" font-size="10.00">stdlib.h</text>
</g>
<!-- Node1&#45;&gt;Node8 -->
<g id="edge7" class="edge"><title>Node1&#45;&gt;Node8</title>
<path fill="none" stroke="midnightblue" d="M239.055,-224.083C234.023,-216.534 226.663,-205.495 220.487,-196.23"/>
<polygon fill="midnightblue" stroke="midnightblue" points="223.293,-194.13 214.834,-187.751 217.469,-198.013 223.293,-194.13"/>
</g>
<!-- Node9 -->
<g id="node9" class="node"><title>Node9</title>
<polygon fill="white" stroke="#bfbfbf" points="251,-168.5 251,-187.5 313,-187.5 313,-168.5 251,-168.5"/>
<text text-anchor="middle" x="282" y="-175.5" font-family="Helvetica,sans-Serif" font-size="10.00">sys/wait.h</text>
</g>
<!-- Node1&#45;&gt;Node9 -->
<g id="edge9" class="edge"><title>Node1&#45;&gt;Node9</title>
<path fill="none" stroke="midnightblue" d="M251.11,-224.083C256.282,-216.534 263.846,-205.495 270.194,-196.23"/>
<polygon fill="midnightblue" stroke="midnightblue" points="273.239,-197.979 276.004,-187.751 267.464,-194.022 273.239,-197.979"/>
</g>
<!-- Node10 -->
<g id="node10" class="node"><title>Node10</title>
<polygon fill="white" stroke="#bfbfbf" points="331.5,-168.5 331.5,-187.5 382.5,-187.5 382.5,-168.5 331.5,-168.5"/>
<text text-anchor="middle" x="357" y="-175.5" font-family="Helvetica,sans-Serif" font-size="10.00">unistd.h</text>
</g>
<!-- Node1&#45;&gt;Node10 -->
<g id="edge10" class="edge"><title>Node1&#45;&gt;Node10</title>
<path fill="none" stroke="midnightblue" d="M262.995,-224.324C281.038,-215.625 309.047,-202.12 329.803,-192.113"/>
<polygon fill="midnightblue" stroke="midnightblue" points="331.562,-195.15 339.05,-187.655 328.522,-188.845 331.562,-195.15"/>
</g>
<!-- Node11 -->
<g id="node11" class="node"><title>Node11</title>
<g id="a_node11"><a xlink:href="PrintHandler_8h.html" target="_top" xlink:title="PrintHandler.h">
<polygon fill="white" stroke="black" points="400.5,-168.5 400.5,-187.5 479.5,-187.5 479.5,-168.5 400.5,-168.5"/>
<text text-anchor="middle" x="440" y="-175.5" font-family="Helvetica,sans-Serif" font-size="10.00">PrintHandler.h</text>
</a>
</g>
</g>
<!-- Node1&#45;&gt;Node11 -->
<g id="edge11" class="edge"><title>Node1&#45;&gt;Node11</title>
<path fill="none" stroke="midnightblue" d="M275.898,-224.444C309.274,-215.201 362.594,-200.436 399.349,-190.257"/>
<polygon fill="midnightblue" stroke="midnightblue" points="400.543,-193.558 409.246,-187.516 398.675,-186.812 400.543,-193.558"/>
</g>
<!-- Node3 -->
<g id="node3" class="node"><title>Node3</title>
<g id="a_node3"><a xlink:href="TestBaseClass_8h.html" target="_top" xlink:title="TestBaseClass.h">
<polygon fill="white" stroke="black" points="34,-112.5 34,-131.5 126,-131.5 126,-112.5 34,-112.5"/>
<text text-anchor="middle" x="80" y="-119.5" font-family="Helvetica,sans-Serif" font-size="10.00">TestBaseClass.h</text>
</a>
</g>
</g>
<!-- Node2&#45;&gt;Node3 -->
<g id="edge2" class="edge"><title>Node2&#45;&gt;Node3</title>
<path fill="none" stroke="midnightblue" d="M80,-168.083C80,-161.006 80,-150.861 80,-141.986"/>
<polygon fill="midnightblue" stroke="midnightblue" points="83.5001,-141.751 80,-131.751 76.5001,-141.751 83.5001,-141.751"/>
</g>
<!-- Node4 -->
<g id="node4" class="node"><title>Node4</title>
<polygon fill="white" stroke="#bfbfbf" points="0,-56.5 0,-75.5 44,-75.5 44,-56.5 0,-56.5"/>
<text text-anchor="middle" x="22" y="-63.5" font-family="Helvetica,sans-Serif" font-size="10.00">vector</text>
</g>
<!-- Node3&#45;&gt;Node4 -->
<g id="edge3" class="edge"><title>Node3&#45;&gt;Node4</title>
<path fill="none" stroke="midnightblue" d="M70.6813,-112.324C62.1074,-104.341 49.1878,-92.3128 38.8124,-82.6529"/>
<polygon fill="midnightblue" stroke="midnightblue" points="41.1922,-80.0865 31.4883,-75.8339 36.4223,-85.2098 41.1922,-80.0865"/>
</g>
<!-- Node5 -->
<g id="node5" class="node"><title>Node5</title>
<g id="a_node5"><a xlink:href="TestData_8h.html" target="_top" xlink:title="TestData.h">
<polygon fill="white" stroke="black" points="62.5,-56.5 62.5,-75.5 127.5,-75.5 127.5,-56.5 62.5,-56.5"/>
<text text-anchor="middle" x="95" y="-63.5" font-family="Helvetica,sans-Serif" font-size="10.00">TestData.h</text>
</a>
</g>
</g>
<!-- Node3&#45;&gt;Node5 -->
<g id="edge4" class="edge"><title>Node3&#45;&gt;Node5</title>
<path fill="none" stroke="midnightblue" d="M82.4769,-112.083C84.4865,-104.849 87.3865,-94.4087 89.8898,-85.3968"/>
<polygon fill="midnightblue" stroke="midnightblue" points="93.2649,-86.323 92.5691,-75.7511 86.5203,-84.4495 93.2649,-86.323"/>
</g>
<!-- Node6 -->
<g id="node6" class="node"><title>Node6</title>
<polygon fill="white" stroke="#bfbfbf" points="73.5,-0.5 73.5,-19.5 114.5,-19.5 114.5,-0.5 73.5,-0.5"/>
<text text-anchor="middle" x="94" y="-7.5" font-family="Helvetica,sans-Serif" font-size="10.00">string</text>
</g>
<!-- Node5&#45;&gt;Node6 -->
<g id="edge5" class="edge"><title>Node5&#45;&gt;Node6</title>
<path fill="none" stroke="midnightblue" d="M94.8349,-56.083C94.7038,-49.0059 94.5159,-38.8611 94.3516,-29.9865"/>
<polygon fill="midnightblue" stroke="midnightblue" points="97.8467,-29.6845 94.1621,-19.7511 90.8479,-29.8142 97.8467,-29.6845"/>
</g>
<!-- Node5&#45;&gt;Node7 -->
<g id="edge6" class="edge"><title>Node5&#45;&gt;Node7</title>
<path fill="none" stroke="midnightblue" d="M104.961,-56.324C114.127,-48.3414 127.937,-36.3128 139.028,-26.6529"/>
<polygon fill="midnightblue" stroke="midnightblue" points="141.615,-29.041 146.857,-19.8339 137.018,-23.7624 141.615,-29.041"/>
</g>
<!-- Node12 -->
<g id="node12" class="node"><title>Node12</title>
<polygon fill="white" stroke="#bfbfbf" points="417,-112.5 417,-131.5 463,-131.5 463,-112.5 417,-112.5"/>
<text text-anchor="middle" x="440" y="-119.5" font-family="Helvetica,sans-Serif" font-size="10.00">stdio.h</text>
</g>
<!-- Node11&#45;&gt;Node12 -->
<g id="edge12" class="edge"><title>Node11&#45;&gt;Node12</title>
<path fill="none" stroke="midnightblue" d="M440,-168.083C440,-161.006 440,-150.861 440,-141.986"/>
<polygon fill="midnightblue" stroke="midnightblue" points="443.5,-141.751 440,-131.751 436.5,-141.751 443.5,-141.751"/>
</g>
</g>
</svg>
