<?xml version="1.0" encoding="UTF-8" standalone="no"?>
<!DOCTYPE svg PUBLIC "-//W3C//DTD SVG 1.1//EN"
 "http://www.w3.org/Graphics/SVG/1.1/DTD/svg11.dtd">
<!-- Generated by graphviz version 2.38.0 (20140413.2041)
 -->
<!-- Title: SingleServerTest.cpp Pages: 1 -->
<svg width="363pt" height="252pt"
 viewBox="0.00 0.00 362.50 252.00" xmlns="http://www.w3.org/2000/svg" xmlns:xlink="http://www.w3.org/1999/xlink">
<g id="graph0" class="graph" transform="scale(1 1) rotate(0) translate(4 248)">
<title>SingleServerTest.cpp</title>
<polygon fill="white" stroke="none" points="-4,4 -4,-248 358.5,-248 358.5,4 -4,4"/>
<!-- Node1 -->
<g id="node1" class="node"><title>Node1</title>
<polygon fill="#bfbfbf" stroke="black" points="139,-224.5 139,-243.5 249,-243.5 249,-224.5 139,-224.5"/>
<text text-anchor="middle" x="194" y="-231.5" font-family="Helvetica,sans-Serif" font-size="10.00">SingleServerTest.cpp</text>
</g>
<!-- Node2 -->
<g id="node2" class="node"><title>Node2</title>
<g id="a_node2"><a xlink:href="SingleServerTest_8h.html" target="_top" xlink:title="SingleServerTest.h">
<polygon fill="white" stroke="black" points="8,-168.5 8,-187.5 108,-187.5 108,-168.5 8,-168.5"/>
<text text-anchor="middle" x="58" y="-175.5" font-family="Helvetica,sans-Serif" font-size="10.00">SingleServerTest.h</text>
</a>
</g>
</g>
<!-- Node1&#45;&gt;Node2 -->
<g id="edge1" class="edge"><title>Node1&#45;&gt;Node2</title>
<path fill="none" stroke="midnightblue" d="M172.45,-224.444C149.969,-215.517 114.512,-201.439 89.0201,-191.317"/>
<polygon fill="midnightblue" stroke="midnightblue" points="90.0346,-187.954 79.4488,-187.516 87.4513,-194.46 90.0346,-187.954"/>
</g>
<!-- Node8 -->
<g id="node8" class="node"><title>Node8</title>
<polygon fill="white" stroke="#bfbfbf" points="126,-168.5 126,-187.5 188,-187.5 188,-168.5 126,-168.5"/>
<text text-anchor="middle" x="157" y="-175.5" font-family="Helvetica,sans-Serif" font-size="10.00">sys/wait.h</text>
</g>
<!-- Node1&#45;&gt;Node8 -->
<g id="edge7" class="edge"><title>Node1&#45;&gt;Node8</title>
<path fill="none" stroke="midnightblue" d="M187.89,-224.083C182.718,-216.534 175.154,-205.495 168.806,-196.23"/>
<polygon fill="midnightblue" stroke="midnightblue" points="171.536,-194.022 162.996,-187.751 165.761,-197.979 171.536,-194.022"/>
</g>
<!-- Node9 -->
<g id="node9" class="node"><title>Node9</title>
<polygon fill="white" stroke="#bfbfbf" points="206.5,-168.5 206.5,-187.5 257.5,-187.5 257.5,-168.5 206.5,-168.5"/>
<text text-anchor="middle" x="232" y="-175.5" font-family="Helvetica,sans-Serif" font-size="10.00">unistd.h</text>
</g>
<!-- Node1&#45;&gt;Node9 -->
<g id="edge8" class="edge"><title>Node1&#45;&gt;Node9</title>
<path fill="none" stroke="midnightblue" d="M200.275,-224.083C205.642,-216.455 213.518,-205.264 220.079,-195.941"/>
<polygon fill="midnightblue" stroke="midnightblue" points="222.949,-197.943 225.842,-187.751 217.225,-193.915 222.949,-197.943"/>
</g>
<!-- Node10 -->
<g id="node10" class="node"><title>Node10</title>
<g id="a_node10"><a xlink:href="PrintHandler_8h.html" target="_top" xlink:title="PrintHandler.h">
<polygon fill="white" stroke="black" points="275.5,-168.5 275.5,-187.5 354.5,-187.5 354.5,-168.5 275.5,-168.5"/>
<text text-anchor="middle" x="315" y="-175.5" font-family="Helvetica,sans-Serif" font-size="10.00">PrintHandler.h</text>
</a>
</g>
</g>
<!-- Node1&#45;&gt;Node10 -->
<g id="edge9" class="edge"><title>Node1&#45;&gt;Node10</title>
<path fill="none" stroke="midnightblue" d="M213.173,-224.444C232.909,-215.636 263.885,-201.812 286.493,-191.722"/>
<polygon fill="midnightblue" stroke="midnightblue" points="288.211,-194.788 295.917,-187.516 285.359,-188.396 288.211,-194.788"/>
</g>
<!-- Node3 -->
<g id="node3" class="node"><title>Node3</title>
<g id="a_node3"><a xlink:href="TestBaseClass_8h.html" target="_top" xlink:title="TestBaseClass.h">
<polygon fill="white" stroke="black" points="12,-112.5 12,-131.5 104,-131.5 104,-112.5 12,-112.5"/>
<text text-anchor="middle" x="58" y="-119.5" font-family="Helvetica,sans-Serif" font-size="10.00">TestBaseClass.h</text>
</a>
</g>
</g>
<!-- Node2&#45;&gt;Node3 -->
<g id="edge2" class="edge"><title>Node2&#45;&gt;Node3</title>
<path fill="none" stroke="midnightblue" d="M58,-168.083C58,-161.006 58,-150.861 58,-141.986"/>
<polygon fill="midnightblue" stroke="midnightblue" points="61.5001,-141.751 58,-131.751 54.5001,-141.751 61.5001,-141.751"/>
</g>
<!-- Node4 -->
<g id="node4" class="node"><title>Node4</title>
<polygon fill="white" stroke="#bfbfbf" points="0,-56.5 0,-75.5 44,-75.5 44,-56.5 0,-56.5"/>
<text text-anchor="middle" x="22" y="-63.5" font-family="Helvetica,sans-Serif" font-size="10.00">vector</text>
</g>
<!-- Node3&#45;&gt;Node4 -->
<g id="edge3" class="edge"><title>Node3&#45;&gt;Node4</title>
<path fill="none" stroke="midnightblue" d="M52.0553,-112.083C47.0227,-104.534 39.6632,-93.4948 33.4865,-84.2298"/>
<polygon fill="midnightblue" stroke="midnightblue" points="36.2933,-82.1301 27.8341,-75.7511 30.4689,-86.0131 36.2933,-82.1301"/>
</g>
<!-- Node5 -->
<g id="node5" class="node"><title>Node5</title>
<g id="a_node5"><a xlink:href="TestData_8h.html" target="_top" xlink:title="TestData.h">
<polygon fill="white" stroke="black" points="62.5,-56.5 62.5,-75.5 127.5,-75.5 127.5,-56.5 62.5,-56.5"/>
<text text-anchor="middle" x="95" y="-63.5" font-family="Helvetica,sans-Serif" font-size="10.00">TestData.h</text>
</a>
</g>
</g>
<!-- Node3&#45;&gt;Node5 -->
<g id="edge4" class="edge"><title>Node3&#45;&gt;Node5</title>
<path fill="none" stroke="midnightblue" d="M64.1098,-112.083C69.2822,-104.534 76.8461,-93.4948 83.1944,-84.2298"/>
<polygon fill="midnightblue" stroke="midnightblue" points="86.2388,-85.9787 89.0039,-75.7511 80.4643,-82.0221 86.2388,-85.9787"/>
</g>
<!-- Node6 -->
<g id="node6" class="node"><title>Node6</title>
<polygon fill="white" stroke="#bfbfbf" points="42.5,-0.5 42.5,-19.5 83.5,-19.5 83.5,-0.5 42.5,-0.5"/>
<text text-anchor="middle" x="63" y="-7.5" font-family="Helvetica,sans-Serif" font-size="10.00">string</text>
</g>
<!-- Node5&#45;&gt;Node6 -->
<g id="edge5" class="edge"><title>Node5&#45;&gt;Node6</title>
<path fill="none" stroke="midnightblue" d="M89.7159,-56.083C85.289,-48.6127 78.8367,-37.7244 73.3821,-28.5199"/>
<polygon fill="midnightblue" stroke="midnightblue" points="76.2949,-26.5697 68.1858,-19.7511 70.2729,-30.1383 76.2949,-26.5697"/>
</g>
<!-- Node7 -->
<g id="node7" class="node"><title>Node7</title>
<polygon fill="white" stroke="#bfbfbf" points="101.5,-0.5 101.5,-19.5 150.5,-19.5 150.5,-0.5 101.5,-0.5"/>
<text text-anchor="middle" x="126" y="-7.5" font-family="Helvetica,sans-Serif" font-size="10.00">string.h</text>
</g>
<!-- Node5&#45;&gt;Node7 -->
<g id="edge6" class="edge"><title>Node5&#45;&gt;Node7</title>
<path fill="none" stroke="midnightblue" d="M100.119,-56.083C104.408,-48.6127 110.658,-37.7244 115.942,-28.5199"/>
<polygon fill="midnightblue" stroke="midnightblue" points="119.033,-30.1662 120.976,-19.7511 112.962,-26.6811 119.033,-30.1662"/>
</g>
<!-- Node11 -->
<g id="node11" class="node"><title>Node11</title>
<polygon fill="white" stroke="#bfbfbf" points="292,-112.5 292,-131.5 338,-131.5 338,-112.5 292,-112.5"/>
<text text-anchor="middle" x="315" y="-119.5" font-family="Helvetica,sans-Serif" font-size="10.00">stdio.h</text>
</g>
<!-- Node10&#45;&gt;Node11 -->
<g id="edge10" class="edge"><title>Node10&#45;&gt;Node11</title>
<path fill="none" stroke="midnightblue" d="M315,-168.083C315,-161.006 315,-150.861 315,-141.986"/>
<polygon fill="midnightblue" stroke="midnightblue" points="318.5,-141.751 315,-131.751 311.5,-141.751 318.5,-141.751"/>
</g>
</g>
</svg>
