<?xml version="1.0" encoding="UTF-8" standalone="no"?>
<!DOCTYPE svg PUBLIC "-//W3C//DTD SVG 1.1//EN"
 "http://www.w3.org/Graphics/SVG/1.1/DTD/svg11.dtd">
<!-- Generated by graphviz version 2.38.0 (20140413.2041)
 -->
<!-- Title: SingleClientTest.h Pages: 1 -->
<svg width="302pt" height="84pt"
 viewBox="0.00 0.00 302.00 84.00" xmlns="http://www.w3.org/2000/svg" xmlns:xlink="http://www.w3.org/1999/xlink">
<g id="graph0" class="graph" transform="scale(1 1) rotate(0) translate(4 80)">
<title>SingleClientTest.h</title>
<polygon fill="white" stroke="none" points="-4,4 -4,-80 298,-80 298,4 -4,4"/>
<!-- Node1 -->
<g id="node1" class="node"><title>Node1</title>
<polygon fill="#bfbfbf" stroke="black" points="114,-56.5 114,-75.5 211,-75.5 211,-56.5 114,-56.5"/>
<text text-anchor="middle" x="162.5" y="-63.5" font-family="Helvetica,sans-Serif" font-size="10.00">SingleClientTest.h</text>
</g>
<!-- Node2 -->
<g id="node2" class="node"><title>Node2</title>
<g id="a_node2"><a xlink:href="CommandLineArgumentParser_8cpp.html" target="_top" xlink:title="CommandLineArgumentParser.cpp">
<polygon fill="white" stroke="black" points="0,-0.5 0,-19.5 169,-19.5 169,-0.5 0,-0.5"/>
<text text-anchor="middle" x="84.5" y="-7.5" font-family="Helvetica,sans-Serif" font-size="10.00">CommandLineArgumentParser.cpp</text>
</a>
</g>
</g>
<!-- Node1&#45;&gt;Node2 -->
<g id="edge1" class="edge"><title>Node1&#45;&gt;Node2</title>
<path fill="none" stroke="midnightblue" d="M141.732,-50.6221C127.483,-40.7574 109.044,-27.9919 97.0009,-19.6545"/>
<polygon fill="midnightblue" stroke="midnightblue" points="139.754,-53.5095 149.968,-56.324 143.738,-47.7541 139.754,-53.5095"/>
</g>
<!-- Node3 -->
<g id="node3" class="node"><title>Node3</title>
<g id="a_node3"><a xlink:href="SingleClientTest_8cpp.html" target="_top" xlink:title="SingleClientTest.cpp">
<polygon fill="white" stroke="black" points="187,-0.5 187,-19.5 294,-19.5 294,-0.5 187,-0.5"/>
<text text-anchor="middle" x="240.5" y="-7.5" font-family="Helvetica,sans-Serif" font-size="10.00">SingleClientTest.cpp</text>
</a>
</g>
</g>
<!-- Node1&#45;&gt;Node3 -->
<g id="edge2" class="edge"><title>Node1&#45;&gt;Node3</title>
<path fill="none" stroke="midnightblue" d="M183.268,-50.6221C197.517,-40.7574 215.956,-27.9919 227.999,-19.6545"/>
<polygon fill="midnightblue" stroke="midnightblue" points="181.262,-47.7541 175.032,-56.324 185.246,-53.5095 181.262,-47.7541"/>
</g>
</g>
</svg>
