<?xml version="1.0" encoding="UTF-8" standalone="no"?>
<!DOCTYPE svg PUBLIC "-//W3C//DTD SVG 1.1//EN"
 "http://www.w3.org/Graphics/SVG/1.1/DTD/svg11.dtd">
<!-- Generated by graphviz version 2.40.1 (20161225.0304)
 -->
<!-- Title: CurrentAndLastValues&lt; DataType &gt; Pages: 1 -->
<svg width="126pt" height="122pt"
 viewBox="0.00 0.00 125.75 122.00" xmlns="http://www.w3.org/2000/svg" xmlns:xlink="http://www.w3.org/1999/xlink">
<g id="graph0" class="graph" transform="scale(1 1) rotate(0) translate(4 118)">
<title>CurrentAndLastValues&lt; DataType &gt;</title>
<polygon fill="#ffffff" stroke="transparent" points="-4,4 -4,-118 121.749,-118 121.749,4 -4,4"/>
<!-- Node1 -->
<g id="node1" class="node">
<title>Node1</title>
<polygon fill="#bfbfbf" stroke="#000000" points="0,-.5 0,-32.5 116.582,-32.5 116.582,-.5 0,-.5"/>
<text text-anchor="start" x="8" y="-19.5" font-family="Helvetica,sans-Serif" font-size="10.00" fill="#000000">CurrentAndLastValues</text>
<text text-anchor="middle" x="58.291" y="-7.5" font-family="Helvetica,sans-Serif" font-size="10.00" fill="#000000">&lt; DataType &gt;</text>
</g>
<!-- Node2 -->
<g id="node2" class="node">
<title>Node2</title>
<polygon fill="#ffffff" stroke="#bfbfbf" points="28.6195,-93.5 28.6195,-113.5 87.9625,-113.5 87.9625,-93.5 28.6195,-93.5"/>
<text text-anchor="middle" x="58.291" y="-100.5" font-family="Helvetica,sans-Serif" font-size="10.00" fill="#000000">DataType</text>
</g>
<!-- Node2&#45;&gt;Node1 -->
<g id="edge1" class="edge">
<title>Node2&#45;&gt;Node1</title>
<path fill="none" stroke="#9a32cd" stroke-dasharray="5,2" d="M58.291,-83.1216C58.291,-67.759 58.291,-46.9725 58.291,-32.7269"/>
<polygon fill="#9a32cd" stroke="#9a32cd" points="54.7911,-83.1783 58.291,-93.1783 61.7911,-83.1783 54.7911,-83.1783"/>
<text text-anchor="middle" x="88.02" y="-66" font-family="Helvetica,sans-Serif" font-size="10.00" fill="#000000"> currentValue</text>
<text text-anchor="middle" x="88.02" y="-54" font-family="Helvetica,sans-Serif" font-size="10.00" fill="#000000">lastValue</text>
</g>
</g>
</svg>
