<?xml version="1.0" encoding="UTF-8" standalone="no"?>
<!DOCTYPE svg PUBLIC "-//W3C//DTD SVG 1.1//EN"
 "http://www.w3.org/Graphics/SVG/1.1/DTD/svg11.dtd">
<!-- Generated by graphviz version 2.38.0 (20140413.2041)
 -->
<!-- Title: Common::HelperMethods::InterfaceInfo::InterfaceInfo Pages: 1 -->
<svg width="474pt" height="61pt"
 viewBox="0.00 0.00 474.00 61.00" xmlns="http://www.w3.org/2000/svg" xmlns:xlink="http://www.w3.org/1999/xlink">
<g id="graph0" class="graph" transform="scale(1 1) rotate(0) translate(4 57)">
<title>Common::HelperMethods::InterfaceInfo::InterfaceInfo</title>
<polygon fill="white" stroke="none" points="-4,4 -4,-57 470,-57 470,4 -4,4"/>
<!-- Node1 -->
<g id="node1" class="node"><title>Node1</title>
<polygon fill="#bfbfbf" stroke="black" points="0,-22.5 0,-52.5 138,-52.5 138,-22.5 0,-22.5"/>
<text text-anchor="start" x="8" y="-40.5" font-family="Helvetica,sans-Serif" font-size="10.00">Common::HelperMethods</text>
<text text-anchor="middle" x="69" y="-29.5" font-family="Helvetica,sans-Serif" font-size="10.00">::InterfaceInfo::InterfaceInfo</text>
</g>
<!-- Node2 -->
<g id="node2" class="node"><title>Node2</title>
<g id="a_node2"><a xlink:href="classCommon_1_1HelperMethods.html#ac25baf3735415338e1f57cbfdc0890cb" target="_top" xlink:title="getInterfaceName getter ">
<polygon fill="white" stroke="black" points="338,-22.5 338,-52.5 466,-52.5 466,-22.5 338,-22.5"/>
<text text-anchor="start" x="346" y="-40.5" font-family="Helvetica,sans-Serif" font-size="10.00">Common::HelperMethods</text>
<text text-anchor="middle" x="402" y="-29.5" font-family="Helvetica,sans-Serif" font-size="10.00">::getInterfaceName</text>
</a>
</g>
</g>
<!-- Node1&#45;&gt;Node2 -->
<g id="edge1" class="edge"><title>Node1&#45;&gt;Node2</title>
<path fill="none" stroke="midnightblue" d="M138.244,-39.75C150.161,-40.0625 162.441,-40.3333 174,-40.5 230.883,-41.3203 245.118,-41.3617 302,-40.5 310.341,-40.3736 319.077,-40.1874 327.758,-39.9686"/>
<polygon fill="midnightblue" stroke="midnightblue" points="327.992,-43.4637 337.896,-39.6983 327.806,-36.4662 327.992,-43.4637"/>
</g>
<!-- Node3 -->
<g id="node3" class="node"><title>Node3</title>
<g id="a_node3"><a xlink:href="classCommon_1_1HelperMethods.html#a37ffcf3eafeb2f4dd5eb6a7b336632c8" target="_top" xlink:title="getHostName getter ">
<polygon fill="white" stroke="black" points="174,-0.5 174,-30.5 302,-30.5 302,-0.5 174,-0.5"/>
<text text-anchor="start" x="182" y="-18.5" font-family="Helvetica,sans-Serif" font-size="10.00">Common::HelperMethods</text>
<text text-anchor="middle" x="238" y="-7.5" font-family="Helvetica,sans-Serif" font-size="10.00">::getHostName</text>
</a>
</g>
</g>
<!-- Node1&#45;&gt;Node3 -->
<g id="edge2" class="edge"><title>Node1&#45;&gt;Node3</title>
<path fill="none" stroke="midnightblue" d="M138.407,-28.4883C146.732,-27.3916 155.264,-26.2676 163.657,-25.1619"/>
<polygon fill="midnightblue" stroke="midnightblue" points="164.346,-28.6015 173.803,-23.8253 163.432,-21.6615 164.346,-28.6015"/>
</g>
<!-- Node3&#45;&gt;Node2 -->
<g id="edge3" class="edge"><title>Node3&#45;&gt;Node2</title>
<path fill="none" stroke="midnightblue" d="M302.097,-24.0688C310.526,-25.2134 319.227,-26.3951 327.81,-27.5607"/>
<polygon fill="midnightblue" stroke="midnightblue" points="327.428,-31.0408 337.808,-28.9184 328.37,-24.1045 327.428,-31.0408"/>
</g>
</g>
</svg>
