<?xml version="1.0" encoding="UTF-8" standalone="no"?>
<!DOCTYPE svg PUBLIC "-//W3C//DTD SVG 1.1//EN"
 "http://www.w3.org/Graphics/SVG/1.1/DTD/svg11.dtd">
<!-- Generated by graphviz version 2.38.0 (20140413.2041)
 -->
<!-- Title: TCControl.cpp Pages: 1 -->
<svg width="278pt" height="140pt"
 viewBox="0.00 0.00 278.00 140.00" xmlns="http://www.w3.org/2000/svg" xmlns:xlink="http://www.w3.org/1999/xlink">
<g id="graph0" class="graph" transform="scale(1 1) rotate(0) translate(4 136)">
<title>TCControl.cpp</title>
<polygon fill="white" stroke="none" points="-4,4 -4,-136 274,-136 274,4 -4,4"/>
<!-- Node1 -->
<g id="node1" class="node"><title>Node1</title>
<polygon fill="#bfbfbf" stroke="black" points="107,-112.5 107,-131.5 187,-131.5 187,-112.5 107,-112.5"/>
<text text-anchor="middle" x="147" y="-119.5" font-family="Helvetica,sans-Serif" font-size="10.00">TCControl.cpp</text>
</g>
<!-- Node2 -->
<g id="node2" class="node"><title>Node2</title>
<g id="a_node2"><a xlink:href="TCControl_8h.html" target="_top" xlink:title="TCControl.h">
<polygon fill="white" stroke="black" points="0,-56.5 0,-75.5 70,-75.5 70,-56.5 0,-56.5"/>
<text text-anchor="middle" x="35" y="-63.5" font-family="Helvetica,sans-Serif" font-size="10.00">TCControl.h</text>
</a>
</g>
</g>
<!-- Node1&#45;&gt;Node2 -->
<g id="edge1" class="edge"><title>Node1&#45;&gt;Node2</title>
<path fill="none" stroke="midnightblue" d="M129.005,-112.324C110.962,-103.625 82.9531,-90.1202 62.1973,-80.113"/>
<polygon fill="midnightblue" stroke="midnightblue" points="63.4778,-76.8449 52.9501,-75.6545 60.4377,-83.1502 63.4778,-76.8449"/>
</g>
<!-- Node4 -->
<g id="node4" class="node"><title>Node4</title>
<polygon fill="white" stroke="#bfbfbf" points="88,-56.5 88,-75.5 140,-75.5 140,-56.5 88,-56.5"/>
<text text-anchor="middle" x="114" y="-63.5" font-family="Helvetica,sans-Serif" font-size="10.00">sstream</text>
</g>
<!-- Node1&#45;&gt;Node4 -->
<g id="edge3" class="edge"><title>Node1&#45;&gt;Node4</title>
<path fill="none" stroke="midnightblue" d="M141.551,-112.083C136.986,-104.613 130.332,-93.7244 124.707,-84.5199"/>
<polygon fill="midnightblue" stroke="midnightblue" points="127.549,-82.4588 119.348,-75.7511 121.576,-86.109 127.549,-82.4588"/>
</g>
<!-- Node5 -->
<g id="node5" class="node"><title>Node5</title>
<polygon fill="white" stroke="#bfbfbf" points="158,-56.5 158,-75.5 204,-75.5 204,-56.5 158,-56.5"/>
<text text-anchor="middle" x="181" y="-63.5" font-family="Helvetica,sans-Serif" font-size="10.00">stdio.h</text>
</g>
<!-- Node1&#45;&gt;Node5 -->
<g id="edge4" class="edge"><title>Node1&#45;&gt;Node5</title>
<path fill="none" stroke="midnightblue" d="M152.614,-112.083C157.367,-104.534 164.318,-93.4948 170.152,-84.2298"/>
<polygon fill="midnightblue" stroke="midnightblue" points="173.124,-86.0783 175.49,-75.7511 167.2,-82.3486 173.124,-86.0783"/>
</g>
<!-- Node6 -->
<g id="node6" class="node"><title>Node6</title>
<polygon fill="white" stroke="#bfbfbf" points="222,-56.5 222,-75.5 270,-75.5 270,-56.5 222,-56.5"/>
<text text-anchor="middle" x="246" y="-63.5" font-family="Helvetica,sans-Serif" font-size="10.00">stdlib.h</text>
</g>
<!-- Node1&#45;&gt;Node6 -->
<g id="edge5" class="edge"><title>Node1&#45;&gt;Node6</title>
<path fill="none" stroke="midnightblue" d="M162.906,-112.324C178.638,-103.743 202.942,-90.486 221.209,-80.5224"/>
<polygon fill="midnightblue" stroke="midnightblue" points="223.03,-83.5157 230.133,-75.6545 219.678,-77.3704 223.03,-83.5157"/>
</g>
<!-- Node3 -->
<g id="node3" class="node"><title>Node3</title>
<polygon fill="white" stroke="#bfbfbf" points="14.5,-0.5 14.5,-19.5 55.5,-19.5 55.5,-0.5 14.5,-0.5"/>
<text text-anchor="middle" x="35" y="-7.5" font-family="Helvetica,sans-Serif" font-size="10.00">string</text>
</g>
<!-- Node2&#45;&gt;Node3 -->
<g id="edge2" class="edge"><title>Node2&#45;&gt;Node3</title>
<path fill="none" stroke="midnightblue" d="M35,-56.083C35,-49.0059 35,-38.8611 35,-29.9865"/>
<polygon fill="midnightblue" stroke="midnightblue" points="38.5001,-29.751 35,-19.7511 31.5001,-29.7511 38.5001,-29.751"/>
</g>
</g>
</svg>
