<?xml version="1.0" encoding="UTF-8" standalone="no"?>
<!DOCTYPE svg PUBLIC "-//W3C//DTD SVG 1.1//EN"
 "http://www.w3.org/Graphics/SVG/1.1/DTD/svg11.dtd">
<!-- Generated by graphviz version 2.38.0 (20140413.2041)
 -->
<!-- Title: TestBaseClass.h Pages: 1 -->
<svg width="159pt" height="140pt"
 viewBox="0.00 0.00 158.50 140.00" xmlns="http://www.w3.org/2000/svg" xmlns:xlink="http://www.w3.org/1999/xlink">
<g id="graph0" class="graph" transform="scale(1 1) rotate(0) translate(4 136)">
<title>TestBaseClass.h</title>
<polygon fill="white" stroke="none" points="-4,4 -4,-136 154.5,-136 154.5,4 -4,4"/>
<!-- Node1 -->
<g id="node1" class="node"><title>Node1</title>
<polygon fill="#bfbfbf" stroke="black" points="12,-112.5 12,-131.5 104,-131.5 104,-112.5 12,-112.5"/>
<text text-anchor="middle" x="58" y="-119.5" font-family="Helvetica,sans-Serif" font-size="10.00">TestBaseClass.h</text>
</g>
<!-- Node2 -->
<g id="node2" class="node"><title>Node2</title>
<polygon fill="white" stroke="#bfbfbf" points="-3.55271e-15,-56.5 -3.55271e-15,-75.5 44,-75.5 44,-56.5 -3.55271e-15,-56.5"/>
<text text-anchor="middle" x="22" y="-63.5" font-family="Helvetica,sans-Serif" font-size="10.00">vector</text>
</g>
<!-- Node1&#45;&gt;Node2 -->
<g id="edge1" class="edge"><title>Node1&#45;&gt;Node2</title>
<path fill="none" stroke="midnightblue" d="M52.0553,-112.083C47.0227,-104.534 39.6632,-93.4948 33.4865,-84.2298"/>
<polygon fill="midnightblue" stroke="midnightblue" points="36.2933,-82.1301 27.8341,-75.7511 30.4689,-86.0131 36.2933,-82.1301"/>
</g>
<!-- Node3 -->
<g id="node3" class="node"><title>Node3</title>
<g id="a_node3"><a xlink:href="TestData_8h.html" target="_top" xlink:title="TestData.h">
<polygon fill="white" stroke="black" points="62.5,-56.5 62.5,-75.5 127.5,-75.5 127.5,-56.5 62.5,-56.5"/>
<text text-anchor="middle" x="95" y="-63.5" font-family="Helvetica,sans-Serif" font-size="10.00">TestData.h</text>
</a>
</g>
</g>
<!-- Node1&#45;&gt;Node3 -->
<g id="edge2" class="edge"><title>Node1&#45;&gt;Node3</title>
<path fill="none" stroke="midnightblue" d="M64.1098,-112.083C69.2822,-104.534 76.8461,-93.4948 83.1944,-84.2298"/>
<polygon fill="midnightblue" stroke="midnightblue" points="86.2388,-85.9787 89.0039,-75.7511 80.4643,-82.0221 86.2388,-85.9787"/>
</g>
<!-- Node4 -->
<g id="node4" class="node"><title>Node4</title>
<polygon fill="white" stroke="#bfbfbf" points="42.5,-0.5 42.5,-19.5 83.5,-19.5 83.5,-0.5 42.5,-0.5"/>
<text text-anchor="middle" x="63" y="-7.5" font-family="Helvetica,sans-Serif" font-size="10.00">string</text>
</g>
<!-- Node3&#45;&gt;Node4 -->
<g id="edge3" class="edge"><title>Node3&#45;&gt;Node4</title>
<path fill="none" stroke="midnightblue" d="M89.7159,-56.083C85.289,-48.6127 78.8367,-37.7244 73.3821,-28.5199"/>
<polygon fill="midnightblue" stroke="midnightblue" points="76.2949,-26.5697 68.1858,-19.7511 70.2729,-30.1383 76.2949,-26.5697"/>
</g>
<!-- Node5 -->
<g id="node5" class="node"><title>Node5</title>
<polygon fill="white" stroke="#bfbfbf" points="101.5,-0.5 101.5,-19.5 150.5,-19.5 150.5,-0.5 101.5,-0.5"/>
<text text-anchor="middle" x="126" y="-7.5" font-family="Helvetica,sans-Serif" font-size="10.00">string.h</text>
</g>
<!-- Node3&#45;&gt;Node5 -->
<g id="edge4" class="edge"><title>Node3&#45;&gt;Node5</title>
<path fill="none" stroke="midnightblue" d="M100.119,-56.083C104.408,-48.6127 110.658,-37.7244 115.942,-28.5199"/>
<polygon fill="midnightblue" stroke="midnightblue" points="119.033,-30.1662 120.976,-19.7511 112.962,-26.6811 119.033,-30.1662"/>
</g>
</g>
</svg>
