<?xml version="1.0" encoding="UTF-8" standalone="no"?>
<!DOCTYPE svg PUBLIC "-//W3C//DTD SVG 1.1//EN"
 "http://www.w3.org/Graphics/SVG/1.1/DTD/svg11.dtd">
<!-- Generated by graphviz version 2.38.0 (20140413.2041)
 -->
<!-- Title: main Pages: 1 -->
<svg width="207pt" height="78pt"
 viewBox="0.00 0.00 207.00 77.50" xmlns="http://www.w3.org/2000/svg" xmlns:xlink="http://www.w3.org/1999/xlink">
<g id="graph0" class="graph" transform="scale(1 1) rotate(0) translate(4 73.5)">
<title>main</title>
<polygon fill="white" stroke="none" points="-4,4 -4,-73.5 203,-73.5 203,4 -4,4"/>
<!-- Node1 -->
<g id="node1" class="node"><title>Node1</title>
<polygon fill="#bfbfbf" stroke="black" points="0,-28 0,-47 38,-47 38,-28 0,-28"/>
<text text-anchor="middle" x="19" y="-35" font-family="Helvetica,sans-Serif" font-size="10.00">main</text>
</g>
<!-- Node2 -->
<g id="node2" class="node"><title>Node2</title>
<g id="a_node2"><a xlink:href="namespaceTestHandler.html#a3344b72fe3d4a362f5ba33215107b87a" target="_top" xlink:title="TestHandler::printUsage">
<polygon fill="white" stroke="black" points="75,-50 75,-69 198,-69 198,-50 75,-50"/>
<text text-anchor="middle" x="136.5" y="-57" font-family="Helvetica,sans-Serif" font-size="10.00">TestHandler::printUsage</text>
</a>
</g>
</g>
<!-- Node1&#45;&gt;Node2 -->
<g id="edge1" class="edge"><title>Node1&#45;&gt;Node2</title>
<path fill="none" stroke="midnightblue" d="M38.0469,-40.9375C48.3088,-42.8921 61.8124,-45.4643 75.4856,-48.0687"/>
<polygon fill="midnightblue" stroke="midnightblue" points="74.9495,-51.5294 85.4279,-49.9624 76.2594,-44.6531 74.9495,-51.5294"/>
</g>
<!-- Node3 -->
<g id="node3" class="node"><title>Node3</title>
<g id="a_node3"><a xlink:href="classTestHandler_1_1MainObject.html#afc3235d3bd3511abc005293727ebc06b" target="_top" xlink:title="instance instance method is the Singleton method of creating and accessing this class. This ensures there can only be ONE instance of this class. ">
<polygon fill="white" stroke="black" points="74,-0.5 74,-30.5 199,-30.5 199,-0.5 74,-0.5"/>
<text text-anchor="start" x="82" y="-18.5" font-family="Helvetica,sans-Serif" font-size="10.00">TestHandler::MainObject</text>
<text text-anchor="middle" x="136.5" y="-7.5" font-family="Helvetica,sans-Serif" font-size="10.00">::instance</text>
</a>
</g>
</g>
<!-- Node1&#45;&gt;Node3 -->
<g id="edge2" class="edge"><title>Node1&#45;&gt;Node3</title>
<path fill="none" stroke="midnightblue" d="M38.0469,-34.0625C45.3456,-32.6723 54.2844,-30.9696 63.7576,-29.1652"/>
<polygon fill="midnightblue" stroke="midnightblue" points="64.6084,-32.5662 73.7768,-27.2568 63.2985,-25.6898 64.6084,-32.5662"/>
</g>
</g>
</svg>
