<?xml version="1.0" encoding="UTF-8" standalone="no"?>
<!DOCTYPE svg PUBLIC "-//W3C//DTD SVG 1.1//EN"
 "http://www.w3.org/Graphics/SVG/1.1/DTD/svg11.dtd">
<!-- Generated by graphviz version 2.38.0 (20140413.2041)
 -->
<!-- Title: TestBaseClass.h Pages: 1 -->
<svg width="348pt" height="140pt"
 viewBox="0.00 0.00 348.00 140.00" xmlns="http://www.w3.org/2000/svg" xmlns:xlink="http://www.w3.org/1999/xlink">
<g id="graph0" class="graph" transform="scale(1 1) rotate(0) translate(4 136)">
<title>TestBaseClass.h</title>
<polygon fill="white" stroke="none" points="-4,4 -4,-136 344,-136 344,4 -4,4"/>
<!-- Node1 -->
<g id="node1" class="node"><title>Node1</title>
<polygon fill="#bfbfbf" stroke="black" points="188.5,-112.5 188.5,-131.5 280.5,-131.5 280.5,-112.5 188.5,-112.5"/>
<text text-anchor="middle" x="234.5" y="-119.5" font-family="Helvetica,sans-Serif" font-size="10.00">TestBaseClass.h</text>
</g>
<!-- Node2 -->
<g id="node2" class="node"><title>Node2</title>
<g id="a_node2"><a xlink:href="WCBandwidthUtilization_8h.html" target="_top" xlink:title="WCBandwidthUtilization.h">
<polygon fill="white" stroke="black" points="106,-56.5 106,-75.5 237,-75.5 237,-56.5 106,-56.5"/>
<text text-anchor="middle" x="171.5" y="-63.5" font-family="Helvetica,sans-Serif" font-size="10.00">WCBandwidthUtilization.h</text>
</a>
</g>
</g>
<!-- Node1&#45;&gt;Node2 -->
<g id="edge1" class="edge"><title>Node1&#45;&gt;Node2</title>
<path fill="none" stroke="midnightblue" d="M216.46,-105.537C205.227,-95.9087 191.181,-83.8694 181.806,-75.8339"/>
<polygon fill="midnightblue" stroke="midnightblue" points="214.508,-108.473 224.378,-112.324 219.063,-103.159 214.508,-108.473"/>
</g>
<!-- Node5 -->
<g id="node5" class="node"><title>Node5</title>
<g id="a_node5"><a xlink:href="TestHandler_2MainObject_8cpp.html" target="_top" xlink:title="MainObject.cpp">
<polygon fill="white" stroke="black" points="255,-56.5 255,-75.5 340,-75.5 340,-56.5 255,-56.5"/>
<text text-anchor="middle" x="297.5" y="-63.5" font-family="Helvetica,sans-Serif" font-size="10.00">MainObject.cpp</text>
</a>
</g>
</g>
<!-- Node1&#45;&gt;Node5 -->
<g id="edge4" class="edge"><title>Node1&#45;&gt;Node5</title>
<path fill="none" stroke="midnightblue" d="M252.54,-105.537C263.773,-95.9087 277.819,-83.8694 287.194,-75.8339"/>
<polygon fill="midnightblue" stroke="midnightblue" points="249.937,-103.159 244.622,-112.324 254.492,-108.473 249.937,-103.159"/>
</g>
<!-- Node3 -->
<g id="node3" class="node"><title>Node3</title>
<g id="a_node3"><a xlink:href="CommandLineArgumentParser_8cpp.html" target="_top" xlink:title="CommandLineArgumentParser.cpp">
<polygon fill="white" stroke="black" points="0,-0.5 0,-19.5 169,-19.5 169,-0.5 0,-0.5"/>
<text text-anchor="middle" x="84.5" y="-7.5" font-family="Helvetica,sans-Serif" font-size="10.00">CommandLineArgumentParser.cpp</text>
</a>
</g>
</g>
<!-- Node2&#45;&gt;Node3 -->
<g id="edge2" class="edge"><title>Node2&#45;&gt;Node3</title>
<path fill="none" stroke="midnightblue" d="M148.784,-50.9005C132.831,-40.9986 112.003,-28.0705 98.4434,-19.6545"/>
<polygon fill="midnightblue" stroke="midnightblue" points="147.18,-54.024 157.522,-56.324 150.871,-48.0765 147.18,-54.024"/>
</g>
<!-- Node4 -->
<g id="node4" class="node"><title>Node4</title>
<g id="a_node4"><a xlink:href="WCBandwidthUtilization_8cpp.html" target="_top" xlink:title="WCBandwidthUtilization.cpp">
<polygon fill="white" stroke="black" points="187.5,-0.5 187.5,-19.5 329.5,-19.5 329.5,-0.5 187.5,-0.5"/>
<text text-anchor="middle" x="258.5" y="-7.5" font-family="Helvetica,sans-Serif" font-size="10.00">WCBandwidthUtilization.cpp</text>
</a>
</g>
</g>
<!-- Node2&#45;&gt;Node4 -->
<g id="edge3" class="edge"><title>Node2&#45;&gt;Node4</title>
<path fill="none" stroke="midnightblue" d="M194.216,-50.9005C210.169,-40.9986 230.997,-28.0705 244.557,-19.6545"/>
<polygon fill="midnightblue" stroke="midnightblue" points="192.129,-48.0765 185.478,-56.324 195.82,-54.024 192.129,-48.0765"/>
</g>
</g>
</svg>
