<?xml version="1.0" encoding="UTF-8" standalone="no"?>
<!DOCTYPE svg PUBLIC "-//W3C//DTD SVG 1.1//EN"
 "http://www.w3.org/Graphics/SVG/1.1/DTD/svg11.dtd">
<!-- Generated by graphviz version 2.38.0 (20140413.2041)
 -->
<!-- Title: main.cpp Pages: 1 -->
<svg width="308pt" height="140pt"
 viewBox="0.00 0.00 308.00 140.00" xmlns="http://www.w3.org/2000/svg" xmlns:xlink="http://www.w3.org/1999/xlink">
<g id="graph0" class="graph" transform="scale(1 1) rotate(0) translate(4 136)">
<title>main.cpp</title>
<polygon fill="white" stroke="none" points="-4,4 -4,-136 304,-136 304,4 -4,4"/>
<!-- Node1 -->
<g id="node1" class="node"><title>Node1</title>
<polygon fill="#bfbfbf" stroke="black" points="102,-112.5 102,-131.5 158,-131.5 158,-112.5 102,-112.5"/>
<text text-anchor="middle" x="130" y="-119.5" font-family="Helvetica,sans-Serif" font-size="10.00">main.cpp</text>
</g>
<!-- Node2 -->
<g id="node2" class="node"><title>Node2</title>
<polygon fill="white" stroke="#bfbfbf" points="0,-56.5 0,-75.5 46,-75.5 46,-56.5 0,-56.5"/>
<text text-anchor="middle" x="23" y="-63.5" font-family="Helvetica,sans-Serif" font-size="10.00">stdio.h</text>
</g>
<!-- Node1&#45;&gt;Node2 -->
<g id="edge1" class="edge"><title>Node1&#45;&gt;Node2</title>
<path fill="none" stroke="midnightblue" d="M112.809,-112.324C95.6491,-103.664 69.0543,-90.2424 49.2527,-80.249"/>
<polygon fill="midnightblue" stroke="midnightblue" points="50.6532,-77.0354 40.1487,-75.6545 47.4993,-83.2847 50.6532,-77.0354"/>
</g>
<!-- Node3 -->
<g id="node3" class="node"><title>Node3</title>
<polygon fill="white" stroke="#bfbfbf" points="64.5,-56.5 64.5,-75.5 115.5,-75.5 115.5,-56.5 64.5,-56.5"/>
<text text-anchor="middle" x="90" y="-63.5" font-family="Helvetica,sans-Serif" font-size="10.00">unistd.h</text>
</g>
<!-- Node1&#45;&gt;Node3 -->
<g id="edge2" class="edge"><title>Node1&#45;&gt;Node3</title>
<path fill="none" stroke="midnightblue" d="M123.395,-112.083C117.745,-104.455 109.455,-93.2645 102.549,-83.9408"/>
<polygon fill="midnightblue" stroke="midnightblue" points="105.247,-81.7034 96.4823,-75.7511 99.6221,-85.87 105.247,-81.7034"/>
</g>
<!-- Node4 -->
<g id="node4" class="node"><title>Node4</title>
<g id="a_node4"><a xlink:href="TestHandler_2MainObject_8h.html" target="_top" xlink:title="MainObject.h">
<polygon fill="white" stroke="black" points="134,-56.5 134,-75.5 208,-75.5 208,-56.5 134,-56.5"/>
<text text-anchor="middle" x="171" y="-63.5" font-family="Helvetica,sans-Serif" font-size="10.00">MainObject.h</text>
</a>
</g>
</g>
<!-- Node1&#45;&gt;Node4 -->
<g id="edge3" class="edge"><title>Node1&#45;&gt;Node4</title>
<path fill="none" stroke="midnightblue" d="M136.77,-112.083C142.562,-104.455 151.058,-93.2645 158.138,-83.9408"/>
<polygon fill="midnightblue" stroke="midnightblue" points="161.096,-85.8321 164.356,-75.7511 155.521,-81.5991 161.096,-85.8321"/>
</g>
<!-- Node7 -->
<g id="node7" class="node"><title>Node7</title>
<g id="a_node7"><a xlink:href="PrintUsage_8h.html" target="_top" xlink:title="PrintUsage.h">
<polygon fill="white" stroke="black" points="226,-56.5 226,-75.5 300,-75.5 300,-56.5 226,-56.5"/>
<text text-anchor="middle" x="263" y="-63.5" font-family="Helvetica,sans-Serif" font-size="10.00">PrintUsage.h</text>
</a>
</g>
</g>
<!-- Node1&#45;&gt;Node7 -->
<g id="edge6" class="edge"><title>Node1&#45;&gt;Node7</title>
<path fill="none" stroke="midnightblue" d="M151.074,-112.444C173.06,-103.517 207.734,-89.4387 232.664,-79.3168"/>
<polygon fill="midnightblue" stroke="midnightblue" points="234.076,-82.5213 242.024,-75.5164 231.442,-76.0355 234.076,-82.5213"/>
</g>
<!-- Node5 -->
<g id="node5" class="node"><title>Node5</title>
<polygon fill="white" stroke="#bfbfbf" points="119.5,-0.5 119.5,-19.5 160.5,-19.5 160.5,-0.5 119.5,-0.5"/>
<text text-anchor="middle" x="140" y="-7.5" font-family="Helvetica,sans-Serif" font-size="10.00">string</text>
</g>
<!-- Node4&#45;&gt;Node5 -->
<g id="edge4" class="edge"><title>Node4&#45;&gt;Node5</title>
<path fill="none" stroke="midnightblue" d="M165.881,-56.083C161.592,-48.6127 155.342,-37.7244 150.058,-28.5199"/>
<polygon fill="midnightblue" stroke="midnightblue" points="153.038,-26.6811 145.024,-19.7511 146.967,-30.1662 153.038,-26.6811"/>
</g>
<!-- Node6 -->
<g id="node6" class="node"><title>Node6</title>
<polygon fill="white" stroke="#bfbfbf" points="179,-0.5 179,-19.5 223,-19.5 223,-0.5 179,-0.5"/>
<text text-anchor="middle" x="201" y="-7.5" font-family="Helvetica,sans-Serif" font-size="10.00">vector</text>
</g>
<!-- Node4&#45;&gt;Node6 -->
<g id="edge5" class="edge"><title>Node4&#45;&gt;Node6</title>
<path fill="none" stroke="midnightblue" d="M175.954,-56.083C180.104,-48.6127 186.153,-37.7244 191.267,-28.5199"/>
<polygon fill="midnightblue" stroke="midnightblue" points="194.341,-30.1924 196.138,-19.7511 188.222,-26.7929 194.341,-30.1924"/>
</g>
</g>
</svg>
