<?xml version="1.0" encoding="UTF-8" standalone="no"?>
<!DOCTYPE svg PUBLIC "-//W3C//DTD SVG 1.1//EN"
 "http://www.w3.org/Graphics/SVG/1.1/DTD/svg11.dtd">
<!-- Generated by graphviz version 2.38.0 (20140413.2041)
 -->
<!-- Title: MainObject.cpp Pages: 1 -->
<svg width="834pt" height="196pt"
 viewBox="0.00 0.00 833.60 196.00" xmlns="http://www.w3.org/2000/svg" xmlns:xlink="http://www.w3.org/1999/xlink">
<g id="graph0" class="graph" transform="scale(1 1) rotate(0) translate(4 192)">
<title>MainObject.cpp</title>
<polygon fill="white" stroke="none" points="-4,4 -4,-192 829.599,-192 829.599,4 -4,4"/>
<!-- Node1 -->
<g id="node1" class="node"><title>Node1</title>
<polygon fill="#bfbfbf" stroke="black" points="429.599,-168.5 429.599,-187.5 514.599,-187.5 514.599,-168.5 429.599,-168.5"/>
<text text-anchor="middle" x="472.099" y="-175.5" font-family="Helvetica,sans-Serif" font-size="10.00">MainObject.cpp</text>
</g>
<!-- Node2 -->
<g id="node2" class="node"><title>Node2</title>
<g id="a_node2"><a xlink:href="TestHandler_2MainObject_8h.html" target="_top" xlink:title="MainObject.h">
<polygon fill="white" stroke="black" points="232.099,-112.5 232.099,-131.5 306.099,-131.5 306.099,-112.5 232.099,-112.5"/>
<text text-anchor="middle" x="269.099" y="-119.5" font-family="Helvetica,sans-Serif" font-size="10.00">MainObject.h</text>
</a>
</g>
</g>
<!-- Node1&#45;&gt;Node2 -->
<g id="edge1" class="edge"><title>Node1&#45;&gt;Node2</title>
<path fill="none" stroke="midnightblue" d="M439.933,-168.444C405.04,-159.162 349.206,-144.309 310.928,-134.127"/>
<polygon fill="midnightblue" stroke="midnightblue" points="311.678,-130.705 301.114,-131.516 309.878,-137.47 311.678,-130.705"/>
</g>
<!-- Node3 -->
<g id="node3" class="node"><title>Node3</title>
<polygon fill="white" stroke="#bfbfbf" points="117.599,-0.5 117.599,-19.5 158.599,-19.5 158.599,-0.5 117.599,-0.5"/>
<text text-anchor="middle" x="138.099" y="-7.5" font-family="Helvetica,sans-Serif" font-size="10.00">string</text>
</g>
<!-- Node1&#45;&gt;Node3 -->
<g id="edge7" class="edge"><title>Node1&#45;&gt;Node3</title>
<path fill="none" stroke="midnightblue" d="M429.321,-177.597C332.68,-178.162 101.011,-174.869 38.0988,-132 8.22228,-111.642 -11.8363,-85.4752 9.09879,-56 31.2143,-24.8628 76.5423,-15.0922 107.134,-12.1282"/>
<polygon fill="midnightblue" stroke="midnightblue" points="107.579,-15.6043 117.278,-11.3399 107.037,-8.62532 107.579,-15.6043"/>
</g>
<!-- Node5 -->
<g id="node5" class="node"><title>Node5</title>
<polygon fill="white" stroke="#bfbfbf" points="551.099,-56.5 551.099,-75.5 597.099,-75.5 597.099,-56.5 551.099,-56.5"/>
<text text-anchor="middle" x="574.099" y="-63.5" font-family="Helvetica,sans-Serif" font-size="10.00">stdio.h</text>
</g>
<!-- Node1&#45;&gt;Node5 -->
<g id="edge4" class="edge"><title>Node1&#45;&gt;Node5</title>
<path fill="none" stroke="midnightblue" d="M514.882,-172.354C540.73,-167.094 571.746,-155.884 588.099,-132 597.65,-118.051 591.691,-98.7885 584.842,-84.8576"/>
<polygon fill="midnightblue" stroke="midnightblue" points="587.768,-82.9119 579.907,-75.8083 581.622,-86.2634 587.768,-82.9119"/>
</g>
<!-- Node6 -->
<g id="node6" class="node"><title>Node6</title>
<polygon fill="white" stroke="#bfbfbf" points="636.099,-112.5 636.099,-131.5 686.099,-131.5 686.099,-112.5 636.099,-112.5"/>
<text text-anchor="middle" x="661.099" y="-119.5" font-family="Helvetica,sans-Serif" font-size="10.00">signal.h</text>
</g>
<!-- Node1&#45;&gt;Node6 -->
<g id="edge5" class="edge"><title>Node1&#45;&gt;Node6</title>
<path fill="none" stroke="midnightblue" d="M502.046,-168.444C535.678,-158.835 590.203,-143.256 625.859,-133.069"/>
<polygon fill="midnightblue" stroke="midnightblue" points="627.174,-136.333 635.828,-130.22 625.251,-129.602 627.174,-136.333"/>
</g>
<!-- Node7 -->
<g id="node7" class="node"><title>Node7</title>
<polygon fill="white" stroke="#bfbfbf" points="704.099,-112.5 704.099,-131.5 756.099,-131.5 756.099,-112.5 704.099,-112.5"/>
<text text-anchor="middle" x="730.099" y="-119.5" font-family="Helvetica,sans-Serif" font-size="10.00">sstream</text>
</g>
<!-- Node1&#45;&gt;Node7 -->
<g id="edge6" class="edge"><title>Node1&#45;&gt;Node7</title>
<path fill="none" stroke="midnightblue" d="M514.993,-169.038C557.889,-160.921 625.976,-147.621 693.765,-132.218"/>
<polygon fill="midnightblue" stroke="midnightblue" points="694.794,-135.573 703.762,-129.93 693.233,-128.749 694.794,-135.573"/>
</g>
<!-- Node8 -->
<g id="node8" class="node"><title>Node8</title>
<polygon fill="white" stroke="#bfbfbf" points="774.599,-112.5 774.599,-131.5 825.599,-131.5 825.599,-112.5 774.599,-112.5"/>
<text text-anchor="middle" x="800.099" y="-119.5" font-family="Helvetica,sans-Serif" font-size="10.00">unistd.h</text>
</g>
<!-- Node1&#45;&gt;Node8 -->
<g id="edge8" class="edge"><title>Node1&#45;&gt;Node8</title>
<path fill="none" stroke="midnightblue" d="M515.037,-171.764C570.387,-164.715 669.778,-151.048 764.514,-131.931"/>
<polygon fill="midnightblue" stroke="midnightblue" points="765.455,-135.312 774.553,-129.881 764.054,-128.453 765.455,-135.312"/>
</g>
<!-- Node9 -->
<g id="node9" class="node"><title>Node9</title>
<g id="a_node9"><a xlink:href="HelperMethods_8h.html" target="_top" xlink:title="HelperMethods.h">
<polygon fill="white" stroke="black" points="18.5988,-56.5 18.5988,-75.5 109.599,-75.5 109.599,-56.5 18.5988,-56.5"/>
<text text-anchor="middle" x="64.0988" y="-63.5" font-family="Helvetica,sans-Serif" font-size="10.00">HelperMethods.h</text>
</a>
</g>
</g>
<!-- Node1&#45;&gt;Node9 -->
<g id="edge9" class="edge"><title>Node1&#45;&gt;Node9</title>
<path fill="none" stroke="midnightblue" d="M429.372,-175.653C326.636,-171.974 72.3772,-160.096 47.0988,-132 35.3233,-118.912 43.3431,-98.6614 51.9091,-84.2443"/>
<polygon fill="midnightblue" stroke="midnightblue" points="54.9147,-86.0421 57.4145,-75.7464 49.0398,-82.236 54.9147,-86.0421"/>
</g>
<!-- Node10 -->
<g id="node10" class="node"><title>Node10</title>
<g id="a_node10"><a xlink:href="TestData_8h.html" target="_top" xlink:title="TestData.h">
<polygon fill="white" stroke="black" points="351.599,-56.5 351.599,-75.5 416.599,-75.5 416.599,-56.5 351.599,-56.5"/>
<text text-anchor="middle" x="384.099" y="-63.5" font-family="Helvetica,sans-Serif" font-size="10.00">TestData.h</text>
</a>
</g>
</g>
<!-- Node1&#45;&gt;Node10 -->
<g id="edge11" class="edge"><title>Node1&#45;&gt;Node10</title>
<path fill="none" stroke="midnightblue" d="M471.451,-168.153C470.076,-154.785 465.854,-129.18 453.099,-112 443.055,-98.4718 427.642,-87.8646 413.929,-80.355"/>
<polygon fill="midnightblue" stroke="midnightblue" points="415.287,-77.1176 404.794,-75.6531 412.084,-83.3415 415.287,-77.1176"/>
</g>
<!-- Node12 -->
<g id="node12" class="node"><title>Node12</title>
<g id="a_node12"><a xlink:href="CommandLineArgumentParser_8h.html" target="_top" xlink:title="CommandLineArgumentParser.h">
<polygon fill="white" stroke="black" points="56.0988,-112.5 56.0988,-131.5 214.099,-131.5 214.099,-112.5 56.0988,-112.5"/>
<text text-anchor="middle" x="135.099" y="-119.5" font-family="Helvetica,sans-Serif" font-size="10.00">CommandLineArgumentParser.h</text>
</a>
</g>
</g>
<!-- Node1&#45;&gt;Node12 -->
<g id="edge14" class="edge"><title>Node1&#45;&gt;Node12</title>
<path fill="none" stroke="midnightblue" d="M429.418,-170.161C371.044,-160.807 265.867,-143.954 198.329,-133.132"/>
<polygon fill="midnightblue" stroke="midnightblue" points="198.665,-129.641 188.237,-131.515 197.558,-136.553 198.665,-129.641"/>
</g>
<!-- Node13 -->
<g id="node13" class="node"><title>Node13</title>
<g id="a_node13"><a xlink:href="PrintHandler_8h.html" target="_top" xlink:title="PrintHandler.h">
<polygon fill="white" stroke="black" points="500.599,-112.5 500.599,-131.5 579.599,-131.5 579.599,-112.5 500.599,-112.5"/>
<text text-anchor="middle" x="540.099" y="-119.5" font-family="Helvetica,sans-Serif" font-size="10.00">PrintHandler.h</text>
</a>
</g>
</g>
<!-- Node1&#45;&gt;Node13 -->
<g id="edge17" class="edge"><title>Node1&#45;&gt;Node13</title>
<path fill="none" stroke="midnightblue" d="M483.024,-168.324C493.273,-160.185 508.819,-147.839 521.1,-138.087"/>
<polygon fill="midnightblue" stroke="midnightblue" points="523.32,-140.794 528.975,-131.834 518.967,-135.312 523.32,-140.794"/>
</g>
<!-- Node14 -->
<g id="node14" class="node"><title>Node14</title>
<g id="a_node14"><a xlink:href="TestBaseClass_8h.html" target="_top" xlink:title="Tests/TestBaseClass.h">
<polygon fill="white" stroke="black" points="324.099,-112.5 324.099,-131.5 444.099,-131.5 444.099,-112.5 324.099,-112.5"/>
<text text-anchor="middle" x="384.099" y="-119.5" font-family="Helvetica,sans-Serif" font-size="10.00">Tests/TestBaseClass.h</text>
</a>
</g>
</g>
<!-- Node1&#45;&gt;Node14 -->
<g id="edge19" class="edge"><title>Node1&#45;&gt;Node14</title>
<path fill="none" stroke="midnightblue" d="M457.96,-168.324C444.233,-159.9 423.162,-146.971 407.034,-137.074"/>
<polygon fill="midnightblue" stroke="midnightblue" points="408.556,-133.902 398.202,-131.655 404.895,-139.868 408.556,-133.902"/>
</g>
<!-- Node2&#45;&gt;Node3 -->
<g id="edge2" class="edge"><title>Node2&#45;&gt;Node3</title>
<path fill="none" stroke="midnightblue" d="M258.819,-112.368C236.627,-93.7334 183.987,-49.5324 156.122,-26.1338"/>
<polygon fill="midnightblue" stroke="midnightblue" points="158.239,-23.3416 148.33,-19.5914 153.738,-28.7024 158.239,-23.3416"/>
</g>
<!-- Node4 -->
<g id="node4" class="node"><title>Node4</title>
<polygon fill="white" stroke="#bfbfbf" points="247.099,-56.5 247.099,-75.5 291.099,-75.5 291.099,-56.5 247.099,-56.5"/>
<text text-anchor="middle" x="269.099" y="-63.5" font-family="Helvetica,sans-Serif" font-size="10.00">vector</text>
</g>
<!-- Node2&#45;&gt;Node4 -->
<g id="edge3" class="edge"><title>Node2&#45;&gt;Node4</title>
<path fill="none" stroke="midnightblue" d="M269.099,-112.083C269.099,-105.006 269.099,-94.8611 269.099,-85.9865"/>
<polygon fill="midnightblue" stroke="midnightblue" points="272.599,-85.751 269.099,-75.7511 265.599,-85.7511 272.599,-85.751"/>
</g>
<!-- Node9&#45;&gt;Node3 -->
<g id="edge10" class="edge"><title>Node9&#45;&gt;Node3</title>
<path fill="none" stroke="midnightblue" d="M75.9882,-56.324C87.249,-48.1066 104.385,-35.6017 117.808,-25.8069"/>
<polygon fill="midnightblue" stroke="midnightblue" points="119.978,-28.5559 125.993,-19.8339 115.852,-22.9014 119.978,-28.5559"/>
</g>
<!-- Node10&#45;&gt;Node3 -->
<g id="edge12" class="edge"><title>Node10&#45;&gt;Node3</title>
<path fill="none" stroke="midnightblue" d="M351.432,-57.8292C303.558,-47.3203 214.994,-27.8794 168.464,-17.6656"/>
<polygon fill="midnightblue" stroke="midnightblue" points="169.182,-14.2399 158.664,-15.5144 167.681,-21.0771 169.182,-14.2399"/>
</g>
<!-- Node11 -->
<g id="node11" class="node"><title>Node11</title>
<polygon fill="white" stroke="#bfbfbf" points="359.599,-0.5 359.599,-19.5 408.599,-19.5 408.599,-0.5 359.599,-0.5"/>
<text text-anchor="middle" x="384.099" y="-7.5" font-family="Helvetica,sans-Serif" font-size="10.00">string.h</text>
</g>
<!-- Node10&#45;&gt;Node11 -->
<g id="edge13" class="edge"><title>Node10&#45;&gt;Node11</title>
<path fill="none" stroke="midnightblue" d="M384.099,-56.083C384.099,-49.0059 384.099,-38.8611 384.099,-29.9865"/>
<polygon fill="midnightblue" stroke="midnightblue" points="387.599,-29.751 384.099,-19.7511 380.599,-29.7511 387.599,-29.751"/>
</g>
<!-- Node12&#45;&gt;Node3 -->
<g id="edge15" class="edge"><title>Node12&#45;&gt;Node3</title>
<path fill="none" stroke="midnightblue" d="M135.334,-112.368C135.818,-94.617 136.935,-53.6664 137.592,-29.5974"/>
<polygon fill="midnightblue" stroke="midnightblue" points="141.09,-29.6832 137.864,-19.5914 134.093,-29.4922 141.09,-29.6832"/>
</g>
<!-- Node12&#45;&gt;Node4 -->
<g id="edge16" class="edge"><title>Node12&#45;&gt;Node4</title>
<path fill="none" stroke="midnightblue" d="M156.331,-112.444C178.482,-103.517 213.418,-89.4387 238.535,-79.3168"/>
<polygon fill="midnightblue" stroke="midnightblue" points="239.998,-82.5006 247.965,-75.5164 237.382,-76.0079 239.998,-82.5006"/>
</g>
<!-- Node13&#45;&gt;Node5 -->
<g id="edge18" class="edge"><title>Node13&#45;&gt;Node5</title>
<path fill="none" stroke="midnightblue" d="M545.713,-112.083C550.466,-104.534 557.417,-93.4948 563.25,-84.2298"/>
<polygon fill="midnightblue" stroke="midnightblue" points="566.222,-86.0783 568.589,-75.7511 560.299,-82.3486 566.222,-86.0783"/>
</g>
<!-- Node14&#45;&gt;Node4 -->
<g id="edge20" class="edge"><title>Node14&#45;&gt;Node4</title>
<path fill="none" stroke="midnightblue" d="M365.877,-112.444C347.203,-103.675 317.943,-89.9355 296.481,-79.8579"/>
<polygon fill="midnightblue" stroke="midnightblue" points="297.775,-76.5988 287.236,-75.5164 294.8,-82.935 297.775,-76.5988"/>
</g>
<!-- Node14&#45;&gt;Node10 -->
<g id="edge21" class="edge"><title>Node14&#45;&gt;Node10</title>
<path fill="none" stroke="midnightblue" d="M384.099,-112.083C384.099,-105.006 384.099,-94.8611 384.099,-85.9865"/>
<polygon fill="midnightblue" stroke="midnightblue" points="387.599,-85.751 384.099,-75.7511 380.599,-85.7511 387.599,-85.751"/>
</g>
</g>
</svg>
