<?xml version="1.0" encoding="UTF-8" standalone="no"?>
<!DOCTYPE svg PUBLIC "-//W3C//DTD SVG 1.1//EN"
 "http://www.w3.org/Graphics/SVG/1.1/DTD/svg11.dtd">
<!-- Generated by graphviz version 2.38.0 (20140413.2041)
 -->
<!-- Title: MainObject.cpp Pages: 1 -->
<svg width="800pt" height="140pt"
 viewBox="0.00 0.00 800.00 140.00" xmlns="http://www.w3.org/2000/svg" xmlns:xlink="http://www.w3.org/1999/xlink">
<g id="graph0" class="graph" transform="scale(1 1) rotate(0) translate(4 136)">
<title>MainObject.cpp</title>
<polygon fill="white" stroke="none" points="-4,4 -4,-136 796,-136 796,4 -4,4"/>
<!-- Node1 -->
<g id="node1" class="node"><title>Node1</title>
<polygon fill="#bfbfbf" stroke="black" points="441.5,-112.5 441.5,-131.5 526.5,-131.5 526.5,-112.5 441.5,-112.5"/>
<text text-anchor="middle" x="484" y="-119.5" font-family="Helvetica,sans-Serif" font-size="10.00">MainObject.cpp</text>
</g>
<!-- Node2 -->
<g id="node2" class="node"><title>Node2</title>
<g id="a_node2"><a xlink:href="TestHandler_2MainObject_8h.html" target="_top" xlink:title="MainObject.h">
<polygon fill="white" stroke="black" points="352,-56.5 352,-75.5 426,-75.5 426,-56.5 352,-56.5"/>
<text text-anchor="middle" x="389" y="-63.5" font-family="Helvetica,sans-Serif" font-size="10.00">MainObject.h</text>
</a>
</g>
</g>
<!-- Node1&#45;&gt;Node2 -->
<g id="edge1" class="edge"><title>Node1&#45;&gt;Node2</title>
<path fill="none" stroke="midnightblue" d="M468.737,-112.324C453.779,-103.822 430.745,-90.7288 413.273,-80.7975"/>
<polygon fill="midnightblue" stroke="midnightblue" points="414.649,-77.5534 404.226,-75.6545 411.19,-83.639 414.649,-77.5534"/>
</g>
<!-- Node3 -->
<g id="node3" class="node"><title>Node3</title>
<polygon fill="white" stroke="#bfbfbf" points="150.5,-0.5 150.5,-19.5 191.5,-19.5 191.5,-0.5 150.5,-0.5"/>
<text text-anchor="middle" x="171" y="-7.5" font-family="Helvetica,sans-Serif" font-size="10.00">string</text>
</g>
<!-- Node1&#45;&gt;Node3 -->
<g id="edge6" class="edge"><title>Node1&#45;&gt;Node3</title>
<path fill="none" stroke="midnightblue" d="M441.333,-121.525C363.222,-121.475 202.027,-116.35 167,-76 156.133,-63.4812 159.026,-43.9798 163.482,-29.6011"/>
<polygon fill="midnightblue" stroke="midnightblue" points="166.914,-30.3992 166.993,-19.8046 160.325,-28.038 166.914,-30.3992"/>
</g>
<!-- Node5 -->
<g id="node5" class="node"><title>Node5</title>
<polygon fill="white" stroke="#bfbfbf" points="495,-0.5 495,-19.5 541,-19.5 541,-0.5 495,-0.5"/>
<text text-anchor="middle" x="518" y="-7.5" font-family="Helvetica,sans-Serif" font-size="10.00">stdio.h</text>
</g>
<!-- Node1&#45;&gt;Node5 -->
<g id="edge4" class="edge"><title>Node1&#45;&gt;Node5</title>
<path fill="none" stroke="midnightblue" d="M498.37,-112.33C509.88,-104.469 525.189,-91.7221 532,-76 538.582,-60.8068 533.393,-42.2331 527.557,-28.8369"/>
<polygon fill="midnightblue" stroke="midnightblue" points="530.662,-27.2178 523.153,-19.7437 524.362,-30.2693 530.662,-27.2178"/>
</g>
<!-- Node6 -->
<g id="node6" class="node"><title>Node6</title>
<polygon fill="white" stroke="#bfbfbf" points="580,-56.5 580,-75.5 630,-75.5 630,-56.5 580,-56.5"/>
<text text-anchor="middle" x="605" y="-63.5" font-family="Helvetica,sans-Serif" font-size="10.00">signal.h</text>
</g>
<!-- Node1&#45;&gt;Node6 -->
<g id="edge5" class="edge"><title>Node1&#45;&gt;Node6</title>
<path fill="none" stroke="midnightblue" d="M503.173,-112.444C522.909,-103.636 553.885,-89.8116 576.493,-79.722"/>
<polygon fill="midnightblue" stroke="midnightblue" points="578.211,-82.788 585.917,-75.5164 575.359,-76.3957 578.211,-82.788"/>
</g>
<!-- Node7 -->
<g id="node7" class="node"><title>Node7</title>
<polygon fill="white" stroke="#bfbfbf" points="648.5,-56.5 648.5,-75.5 699.5,-75.5 699.5,-56.5 648.5,-56.5"/>
<text text-anchor="middle" x="674" y="-63.5" font-family="Helvetica,sans-Serif" font-size="10.00">unistd.h</text>
</g>
<!-- Node1&#45;&gt;Node7 -->
<g id="edge7" class="edge"><title>Node1&#45;&gt;Node7</title>
<path fill="none" stroke="midnightblue" d="M514.106,-112.444C547.82,-102.862 602.421,-87.3435 638.27,-77.1548"/>
<polygon fill="midnightblue" stroke="midnightblue" points="639.638,-80.4047 648.3,-74.3042 637.724,-73.6714 639.638,-80.4047"/>
</g>
<!-- Node8 -->
<g id="node8" class="node"><title>Node8</title>
<g id="a_node8"><a xlink:href="CommandLineArgumentParser_8h.html" target="_top" xlink:title="CommandLineArgumentParser.h">
<polygon fill="white" stroke="black" points="176,-56.5 176,-75.5 334,-75.5 334,-56.5 176,-56.5"/>
<text text-anchor="middle" x="255" y="-63.5" font-family="Helvetica,sans-Serif" font-size="10.00">CommandLineArgumentParser.h</text>
</a>
</g>
</g>
<!-- Node1&#45;&gt;Node8 -->
<g id="edge8" class="edge"><title>Node1&#45;&gt;Node8</title>
<path fill="none" stroke="midnightblue" d="M447.714,-112.444C408.017,-103.083 344.293,-88.0561 301.088,-77.868"/>
<polygon fill="midnightblue" stroke="midnightblue" points="301.652,-74.4051 291.116,-75.5164 300.046,-81.2182 301.652,-74.4051"/>
</g>
<!-- Node9 -->
<g id="node9" class="node"><title>Node9</title>
<g id="a_node9"><a xlink:href="PrintHandler_8h.html" target="_top" xlink:title="PrintHandler.h">
<polygon fill="white" stroke="black" points="444.5,-56.5 444.5,-75.5 523.5,-75.5 523.5,-56.5 444.5,-56.5"/>
<text text-anchor="middle" x="484" y="-63.5" font-family="Helvetica,sans-Serif" font-size="10.00">PrintHandler.h</text>
</a>
</g>
</g>
<!-- Node1&#45;&gt;Node9 -->
<g id="edge11" class="edge"><title>Node1&#45;&gt;Node9</title>
<path fill="none" stroke="midnightblue" d="M484,-112.083C484,-105.006 484,-94.8611 484,-85.9865"/>
<polygon fill="midnightblue" stroke="midnightblue" points="487.5,-85.751 484,-75.7511 480.5,-85.7511 487.5,-85.751"/>
</g>
<!-- Node10 -->
<g id="node10" class="node"><title>Node10</title>
<g id="a_node10"><a xlink:href="PrintUsage_8h.html" target="_top" xlink:title="PrintUsage.h">
<polygon fill="white" stroke="black" points="718,-56.5 718,-75.5 792,-75.5 792,-56.5 718,-56.5"/>
<text text-anchor="middle" x="755" y="-63.5" font-family="Helvetica,sans-Serif" font-size="10.00">PrintUsage.h</text>
</a>
</g>
</g>
<!-- Node1&#45;&gt;Node10 -->
<g id="edge13" class="edge"><title>Node1&#45;&gt;Node10</title>
<path fill="none" stroke="midnightblue" d="M526.642,-112.503C575.868,-102.694 656.598,-86.6078 707.711,-76.4229"/>
<polygon fill="midnightblue" stroke="midnightblue" points="708.71,-79.7927 717.833,-74.4059 707.342,-72.9277 708.71,-79.7927"/>
</g>
<!-- Node11 -->
<g id="node11" class="node"><title>Node11</title>
<g id="a_node11"><a xlink:href="TestBaseClass_8h.html" target="_top" xlink:title="Tests/TestBaseClass.h">
<polygon fill="white" stroke="black" points="0,-56.5 0,-75.5 120,-75.5 120,-56.5 0,-56.5"/>
<text text-anchor="middle" x="60" y="-63.5" font-family="Helvetica,sans-Serif" font-size="10.00">Tests/TestBaseClass.h</text>
</a>
</g>
</g>
<!-- Node1&#45;&gt;Node11 -->
<g id="edge14" class="edge"><title>Node1&#45;&gt;Node11</title>
<path fill="none" stroke="midnightblue" d="M441.404,-115.575C368.407,-106.278 218.729,-87.2155 130.136,-75.9324"/>
<polygon fill="midnightblue" stroke="midnightblue" points="130.535,-72.4551 120.173,-74.6635 129.651,-79.399 130.535,-72.4551"/>
</g>
<!-- Node2&#45;&gt;Node3 -->
<g id="edge2" class="edge"><title>Node2&#45;&gt;Node3</title>
<path fill="none" stroke="midnightblue" d="M354.457,-56.4435C312.267,-45.9928 241.57,-28.4805 201.371,-18.5231"/>
<polygon fill="midnightblue" stroke="midnightblue" points="202.154,-15.1113 191.606,-16.1041 200.471,-21.9059 202.154,-15.1113"/>
</g>
<!-- Node4 -->
<g id="node4" class="node"><title>Node4</title>
<polygon fill="white" stroke="#bfbfbf" points="300,-0.5 300,-19.5 344,-19.5 344,-0.5 300,-0.5"/>
<text text-anchor="middle" x="322" y="-7.5" font-family="Helvetica,sans-Serif" font-size="10.00">vector</text>
</g>
<!-- Node2&#45;&gt;Node4 -->
<g id="edge3" class="edge"><title>Node2&#45;&gt;Node4</title>
<path fill="none" stroke="midnightblue" d="M378.235,-56.324C368.234,-48.2631 353.113,-36.0765 341.07,-26.3695"/>
<polygon fill="midnightblue" stroke="midnightblue" points="342.943,-23.3841 332.961,-19.8339 338.55,-28.8343 342.943,-23.3841"/>
</g>
<!-- Node8&#45;&gt;Node3 -->
<g id="edge9" class="edge"><title>Node8&#45;&gt;Node3</title>
<path fill="none" stroke="midnightblue" d="M241.504,-56.324C228.4,-47.9002 208.288,-34.9709 192.893,-25.0741"/>
<polygon fill="midnightblue" stroke="midnightblue" points="194.767,-22.118 184.463,-19.6545 190.982,-28.0063 194.767,-22.118"/>
</g>
<!-- Node8&#45;&gt;Node4 -->
<g id="edge10" class="edge"><title>Node8&#45;&gt;Node4</title>
<path fill="none" stroke="midnightblue" d="M265.765,-56.324C275.766,-48.2631 290.887,-36.0765 302.93,-26.3695"/>
<polygon fill="midnightblue" stroke="midnightblue" points="305.45,-28.8343 311.039,-19.8339 301.057,-23.3841 305.45,-28.8343"/>
</g>
<!-- Node9&#45;&gt;Node5 -->
<g id="edge12" class="edge"><title>Node9&#45;&gt;Node5</title>
<path fill="none" stroke="midnightblue" d="M489.614,-56.083C494.367,-48.5341 501.318,-37.4948 507.152,-28.2298"/>
<polygon fill="midnightblue" stroke="midnightblue" points="510.124,-30.0783 512.49,-19.7511 504.2,-26.3486 510.124,-30.0783"/>
</g>
<!-- Node11&#45;&gt;Node3 -->
<g id="edge15" class="edge"><title>Node11&#45;&gt;Node3</title>
<path fill="none" stroke="midnightblue" d="M77.8341,-56.324C95.7159,-47.6247 123.475,-34.1202 144.046,-24.113"/>
<polygon fill="midnightblue" stroke="midnightblue" points="145.749,-27.1765 153.21,-19.6545 142.687,-20.8819 145.749,-27.1765"/>
</g>
</g>
</svg>
