<?xml version="1.0" encoding="UTF-8" standalone="no"?>
<!DOCTYPE svg PUBLIC "-//W3C//DTD SVG 1.1//EN"
 "http://www.w3.org/Graphics/SVG/1.1/DTD/svg11.dtd">
<!-- Generated by graphviz version 2.38.0 (20140413.2041)
 -->
<!-- Title: TestBaseClass.h Pages: 1 -->
<svg width="666pt" height="140pt"
 viewBox="0.00 0.00 666.00 140.00" xmlns="http://www.w3.org/2000/svg" xmlns:xlink="http://www.w3.org/1999/xlink">
<g id="graph0" class="graph" transform="scale(1 1) rotate(0) translate(4 136)">
<title>TestBaseClass.h</title>
<polygon fill="white" stroke="none" points="-4,4 -4,-136 662,-136 662,4 -4,4"/>
<!-- Node1 -->
<g id="node1" class="node"><title>Node1</title>
<polygon fill="#bfbfbf" stroke="black" points="338.5,-112.5 338.5,-131.5 430.5,-131.5 430.5,-112.5 338.5,-112.5"/>
<text text-anchor="middle" x="384.5" y="-119.5" font-family="Helvetica,sans-Serif" font-size="10.00">TestBaseClass.h</text>
</g>
<!-- Node2 -->
<g id="node2" class="node"><title>Node2</title>
<g id="a_node2"><a xlink:href="ClientServerTest_8h.html" target="_top" xlink:title="ClientServerTest.h">
<polygon fill="white" stroke="black" points="335.5,-56.5 335.5,-75.5 433.5,-75.5 433.5,-56.5 335.5,-56.5"/>
<text text-anchor="middle" x="384.5" y="-63.5" font-family="Helvetica,sans-Serif" font-size="10.00">ClientServerTest.h</text>
</a>
</g>
</g>
<!-- Node1&#45;&gt;Node2 -->
<g id="edge1" class="edge"><title>Node1&#45;&gt;Node2</title>
<path fill="none" stroke="midnightblue" d="M384.5,-101.805C384.5,-92.9102 384.5,-82.7798 384.5,-75.7511"/>
<polygon fill="midnightblue" stroke="midnightblue" points="381,-102.083 384.5,-112.083 388,-102.083 381,-102.083"/>
</g>
<!-- Node5 -->
<g id="node5" class="node"><title>Node5</title>
<g id="a_node5"><a xlink:href="SingleClientTest_8h.html" target="_top" xlink:title="SingleClientTest.h">
<polygon fill="white" stroke="black" points="102,-56.5 102,-75.5 199,-75.5 199,-56.5 102,-56.5"/>
<text text-anchor="middle" x="150.5" y="-63.5" font-family="Helvetica,sans-Serif" font-size="10.00">SingleClientTest.h</text>
</a>
</g>
</g>
<!-- Node1&#45;&gt;Node5 -->
<g id="edge4" class="edge"><title>Node1&#45;&gt;Node5</title>
<path fill="none" stroke="midnightblue" d="M337.496,-110.153C293.283,-99.95 227.984,-84.8809 187.405,-75.5164"/>
<polygon fill="midnightblue" stroke="midnightblue" points="336.891,-113.605 347.422,-112.444 338.465,-106.784 336.891,-113.605"/>
</g>
<!-- Node7 -->
<g id="node7" class="node"><title>Node7</title>
<g id="a_node7"><a xlink:href="SingleServerTest_8h.html" target="_top" xlink:title="SingleServerTest.h">
<polygon fill="white" stroke="black" points="217.5,-56.5 217.5,-75.5 317.5,-75.5 317.5,-56.5 217.5,-56.5"/>
<text text-anchor="middle" x="267.5" y="-63.5" font-family="Helvetica,sans-Serif" font-size="10.00">SingleServerTest.h</text>
</a>
</g>
</g>
<!-- Node1&#45;&gt;Node7 -->
<g id="edge7" class="edge"><title>Node1&#45;&gt;Node7</title>
<path fill="none" stroke="midnightblue" d="M356.836,-108.232C334.951,-98.1312 305.003,-84.3091 285.952,-75.5164"/>
<polygon fill="midnightblue" stroke="midnightblue" points="355.415,-111.431 365.961,-112.444 358.348,-105.075 355.415,-111.431"/>
</g>
<!-- Node9 -->
<g id="node9" class="node"><title>Node9</title>
<g id="a_node9"><a xlink:href="TestHandler_2MainObject_8cpp.html" target="_top" xlink:title="MainObject.cpp">
<polygon fill="white" stroke="black" points="452,-56.5 452,-75.5 537,-75.5 537,-56.5 452,-56.5"/>
<text text-anchor="middle" x="494.5" y="-63.5" font-family="Helvetica,sans-Serif" font-size="10.00">MainObject.cpp</text>
</a>
</g>
</g>
<!-- Node1&#45;&gt;Node9 -->
<g id="edge10" class="edge"><title>Node1&#45;&gt;Node9</title>
<path fill="none" stroke="midnightblue" d="M411.262,-107.862C431.659,-97.8492 459.166,-84.3458 476.87,-75.6545"/>
<polygon fill="midnightblue" stroke="midnightblue" points="409.608,-104.775 402.173,-112.324 412.692,-111.059 409.608,-104.775"/>
</g>
<!-- Node10 -->
<g id="node10" class="node"><title>Node10</title>
<g id="a_node10"><a xlink:href="TestBaseClass_8cpp.html" target="_top" xlink:title="TestBaseClass.cpp">
<polygon fill="white" stroke="black" points="555,-56.5 555,-75.5 658,-75.5 658,-56.5 555,-56.5"/>
<text text-anchor="middle" x="606.5" y="-63.5" font-family="Helvetica,sans-Serif" font-size="10.00">TestBaseClass.cpp</text>
</a>
</g>
</g>
<!-- Node1&#45;&gt;Node10 -->
<g id="edge11" class="edge"><title>Node1&#45;&gt;Node10</title>
<path fill="none" stroke="midnightblue" d="M429.625,-110.024C471.56,-99.8232 533.152,-84.8414 571.488,-75.5164"/>
<polygon fill="midnightblue" stroke="midnightblue" points="428.566,-106.679 419.677,-112.444 430.22,-113.481 428.566,-106.679"/>
</g>
<!-- Node3 -->
<g id="node3" class="node"><title>Node3</title>
<g id="a_node3"><a xlink:href="CommandLineArgumentParser_8cpp.html" target="_top" xlink:title="CommandLineArgumentParser.cpp">
<polygon fill="white" stroke="black" points="125,-0.5 125,-19.5 294,-19.5 294,-0.5 125,-0.5"/>
<text text-anchor="middle" x="209.5" y="-7.5" font-family="Helvetica,sans-Serif" font-size="10.00">CommandLineArgumentParser.cpp</text>
</a>
</g>
</g>
<!-- Node2&#45;&gt;Node3 -->
<g id="edge2" class="edge"><title>Node2&#45;&gt;Node3</title>
<path fill="none" stroke="midnightblue" d="M347.025,-53.4363C314.03,-43.2551 266.744,-28.664 237.1,-19.5164"/>
<polygon fill="midnightblue" stroke="midnightblue" points="346.183,-56.8393 356.771,-56.4435 348.247,-50.1505 346.183,-56.8393"/>
</g>
<!-- Node4 -->
<g id="node4" class="node"><title>Node4</title>
<g id="a_node4"><a xlink:href="ClientServerTest_8cpp.html" target="_top" xlink:title="ClientServerTest.cpp">
<polygon fill="white" stroke="black" points="441,-0.5 441,-19.5 550,-19.5 550,-0.5 441,-0.5"/>
<text text-anchor="middle" x="495.5" y="-7.5" font-family="Helvetica,sans-Serif" font-size="10.00">ClientServerTest.cpp</text>
</a>
</g>
</g>
<!-- Node2&#45;&gt;Node4 -->
<g id="edge3" class="edge"><title>Node2&#45;&gt;Node4</title>
<path fill="none" stroke="midnightblue" d="M411.505,-51.8622C432.088,-41.8492 459.845,-28.3458 477.71,-19.6545"/>
<polygon fill="midnightblue" stroke="midnightblue" points="409.795,-48.8019 402.334,-56.324 412.858,-55.0966 409.795,-48.8019"/>
</g>
<!-- Node5&#45;&gt;Node3 -->
<g id="edge5" class="edge"><title>Node5&#45;&gt;Node3</title>
<path fill="none" stroke="midnightblue" d="M167.395,-49.5372C177.915,-39.9087 191.069,-27.8694 199.848,-19.8339"/>
<polygon fill="midnightblue" stroke="midnightblue" points="164.993,-46.9905 159.979,-56.324 169.719,-52.1542 164.993,-46.9905"/>
</g>
<!-- Node6 -->
<g id="node6" class="node"><title>Node6</title>
<g id="a_node6"><a xlink:href="SingleClientTest_8cpp.html" target="_top" xlink:title="SingleClientTest.cpp">
<polygon fill="white" stroke="black" points="0,-0.5 0,-19.5 107,-19.5 107,-0.5 0,-0.5"/>
<text text-anchor="middle" x="53.5" y="-7.5" font-family="Helvetica,sans-Serif" font-size="10.00">SingleClientTest.cpp</text>
</a>
</g>
</g>
<!-- Node5&#45;&gt;Node6 -->
<g id="edge6" class="edge"><title>Node5&#45;&gt;Node6</title>
<path fill="none" stroke="midnightblue" d="M126.165,-51.4526C108.257,-41.4835 84.4463,-28.2279 69.0461,-19.6545"/>
<polygon fill="midnightblue" stroke="midnightblue" points="124.475,-54.5179 134.915,-56.324 127.88,-48.4018 124.475,-54.5179"/>
</g>
<!-- Node7&#45;&gt;Node3 -->
<g id="edge8" class="edge"><title>Node7&#45;&gt;Node3</title>
<path fill="none" stroke="midnightblue" d="M250.587,-49.2533C240.297,-39.6731 227.534,-27.7906 218.988,-19.8339"/>
<polygon fill="midnightblue" stroke="midnightblue" points="248.477,-52.0714 258.181,-56.324 253.247,-46.9481 248.477,-52.0714"/>
</g>
<!-- Node8 -->
<g id="node8" class="node"><title>Node8</title>
<g id="a_node8"><a xlink:href="SingleServerTest_8cpp.html" target="_top" xlink:title="SingleServerTest.cpp">
<polygon fill="white" stroke="black" points="312.5,-0.5 312.5,-19.5 422.5,-19.5 422.5,-0.5 312.5,-0.5"/>
<text text-anchor="middle" x="367.5" y="-7.5" font-family="Helvetica,sans-Serif" font-size="10.00">SingleServerTest.cpp</text>
</a>
</g>
</g>
<!-- Node7&#45;&gt;Node8 -->
<g id="edge9" class="edge"><title>Node7&#45;&gt;Node8</title>
<path fill="none" stroke="midnightblue" d="M292.588,-51.4526C311.049,-41.4835 335.597,-28.2279 351.473,-19.6545"/>
<polygon fill="midnightblue" stroke="midnightblue" points="290.703,-48.4928 283.567,-56.324 294.029,-54.6521 290.703,-48.4928"/>
</g>
</g>
</svg>
