<?xml version="1.0" encoding="UTF-8" standalone="no"?>
<!DOCTYPE svg PUBLIC "-//W3C//DTD SVG 1.1//EN"
 "http://www.w3.org/Graphics/SVG/1.1/DTD/svg11.dtd">
<!-- Generated by graphviz version 2.38.0 (20140413.2041)
 -->
<!-- Title: TestBaseClass.cpp Pages: 1 -->
<svg width="232pt" height="196pt"
 viewBox="0.00 0.00 231.50 196.00" xmlns="http://www.w3.org/2000/svg" xmlns:xlink="http://www.w3.org/1999/xlink">
<g id="graph0" class="graph" transform="scale(1 1) rotate(0) translate(4 192)">
<title>TestBaseClass.cpp</title>
<polygon fill="white" stroke="none" points="-4,4 -4,-192 227.5,-192 227.5,4 -4,4"/>
<!-- Node1 -->
<g id="node1" class="node"><title>Node1</title>
<polygon fill="#bfbfbf" stroke="black" points="80.5,-168.5 80.5,-187.5 183.5,-187.5 183.5,-168.5 80.5,-168.5"/>
<text text-anchor="middle" x="132" y="-175.5" font-family="Helvetica,sans-Serif" font-size="10.00">TestBaseClass.cpp</text>
</g>
<!-- Node2 -->
<g id="node2" class="node"><title>Node2</title>
<g id="a_node2"><a xlink:href="TestBaseClass_8h.html" target="_top" xlink:title="TestBaseClass.h">
<polygon fill="white" stroke="black" points="34,-112.5 34,-131.5 126,-131.5 126,-112.5 34,-112.5"/>
<text text-anchor="middle" x="80" y="-119.5" font-family="Helvetica,sans-Serif" font-size="10.00">TestBaseClass.h</text>
</a>
</g>
</g>
<!-- Node1&#45;&gt;Node2 -->
<g id="edge1" class="edge"><title>Node1&#45;&gt;Node2</title>
<path fill="none" stroke="midnightblue" d="M123.413,-168.083C115.841,-160.22 104.622,-148.569 95.4856,-139.081"/>
<polygon fill="midnightblue" stroke="midnightblue" points="97.8845,-136.527 88.427,-131.751 92.8423,-141.382 97.8845,-136.527"/>
</g>
<!-- Node7 -->
<g id="node7" class="node"><title>Node7</title>
<g id="a_node7"><a xlink:href="PrintHandler_8h.html" target="_top" xlink:title="PrintHandler.h">
<polygon fill="white" stroke="black" points="144.5,-112.5 144.5,-131.5 223.5,-131.5 223.5,-112.5 144.5,-112.5"/>
<text text-anchor="middle" x="184" y="-119.5" font-family="Helvetica,sans-Serif" font-size="10.00">PrintHandler.h</text>
</a>
</g>
</g>
<!-- Node1&#45;&gt;Node7 -->
<g id="edge6" class="edge"><title>Node1&#45;&gt;Node7</title>
<path fill="none" stroke="midnightblue" d="M140.587,-168.083C148.159,-160.22 159.378,-148.569 168.514,-139.081"/>
<polygon fill="midnightblue" stroke="midnightblue" points="171.158,-141.382 175.573,-131.751 166.115,-136.527 171.158,-141.382"/>
</g>
<!-- Node3 -->
<g id="node3" class="node"><title>Node3</title>
<polygon fill="white" stroke="#bfbfbf" points="0,-56.5 0,-75.5 44,-75.5 44,-56.5 0,-56.5"/>
<text text-anchor="middle" x="22" y="-63.5" font-family="Helvetica,sans-Serif" font-size="10.00">vector</text>
</g>
<!-- Node2&#45;&gt;Node3 -->
<g id="edge2" class="edge"><title>Node2&#45;&gt;Node3</title>
<path fill="none" stroke="midnightblue" d="M70.6813,-112.324C62.1074,-104.341 49.1878,-92.3128 38.8124,-82.6529"/>
<polygon fill="midnightblue" stroke="midnightblue" points="41.1922,-80.0865 31.4883,-75.8339 36.4223,-85.2098 41.1922,-80.0865"/>
</g>
<!-- Node4 -->
<g id="node4" class="node"><title>Node4</title>
<g id="a_node4"><a xlink:href="TestData_8h.html" target="_top" xlink:title="TestData.h">
<polygon fill="white" stroke="black" points="62.5,-56.5 62.5,-75.5 127.5,-75.5 127.5,-56.5 62.5,-56.5"/>
<text text-anchor="middle" x="95" y="-63.5" font-family="Helvetica,sans-Serif" font-size="10.00">TestData.h</text>
</a>
</g>
</g>
<!-- Node2&#45;&gt;Node4 -->
<g id="edge3" class="edge"><title>Node2&#45;&gt;Node4</title>
<path fill="none" stroke="midnightblue" d="M82.4769,-112.083C84.4865,-104.849 87.3865,-94.4087 89.8898,-85.3968"/>
<polygon fill="midnightblue" stroke="midnightblue" points="93.2649,-86.323 92.5691,-75.7511 86.5203,-84.4495 93.2649,-86.323"/>
</g>
<!-- Node5 -->
<g id="node5" class="node"><title>Node5</title>
<polygon fill="white" stroke="#bfbfbf" points="42.5,-0.5 42.5,-19.5 83.5,-19.5 83.5,-0.5 42.5,-0.5"/>
<text text-anchor="middle" x="63" y="-7.5" font-family="Helvetica,sans-Serif" font-size="10.00">string</text>
</g>
<!-- Node4&#45;&gt;Node5 -->
<g id="edge4" class="edge"><title>Node4&#45;&gt;Node5</title>
<path fill="none" stroke="midnightblue" d="M89.7159,-56.083C85.289,-48.6127 78.8367,-37.7244 73.3821,-28.5199"/>
<polygon fill="midnightblue" stroke="midnightblue" points="76.2949,-26.5697 68.1858,-19.7511 70.2729,-30.1383 76.2949,-26.5697"/>
</g>
<!-- Node6 -->
<g id="node6" class="node"><title>Node6</title>
<polygon fill="white" stroke="#bfbfbf" points="101.5,-0.5 101.5,-19.5 150.5,-19.5 150.5,-0.5 101.5,-0.5"/>
<text text-anchor="middle" x="126" y="-7.5" font-family="Helvetica,sans-Serif" font-size="10.00">string.h</text>
</g>
<!-- Node4&#45;&gt;Node6 -->
<g id="edge5" class="edge"><title>Node4&#45;&gt;Node6</title>
<path fill="none" stroke="midnightblue" d="M100.119,-56.083C104.408,-48.6127 110.658,-37.7244 115.942,-28.5199"/>
<polygon fill="midnightblue" stroke="midnightblue" points="119.033,-30.1662 120.976,-19.7511 112.962,-26.6811 119.033,-30.1662"/>
</g>
<!-- Node8 -->
<g id="node8" class="node"><title>Node8</title>
<polygon fill="white" stroke="#bfbfbf" points="161,-56.5 161,-75.5 207,-75.5 207,-56.5 161,-56.5"/>
<text text-anchor="middle" x="184" y="-63.5" font-family="Helvetica,sans-Serif" font-size="10.00">stdio.h</text>
</g>
<!-- Node7&#45;&gt;Node8 -->
<g id="edge7" class="edge"><title>Node7&#45;&gt;Node8</title>
<path fill="none" stroke="midnightblue" d="M184,-112.083C184,-105.006 184,-94.8611 184,-85.9865"/>
<polygon fill="midnightblue" stroke="midnightblue" points="187.5,-85.751 184,-75.7511 180.5,-85.7511 187.5,-85.751"/>
</g>
</g>
</svg>
