<?xml version="1.0" encoding="UTF-8" standalone="no"?>
<!DOCTYPE svg PUBLIC "-//W3C//DTD SVG 1.1//EN"
 "http://www.w3.org/Graphics/SVG/1.1/DTD/svg11.dtd">
<!-- Generated by graphviz version 2.38.0 (20140413.2041)
 -->
<!-- Title: ThreadHelper.cpp Pages: 1 -->
<svg width="172pt" height="140pt"
 viewBox="0.00 0.00 172.00 140.00" xmlns="http://www.w3.org/2000/svg" xmlns:xlink="http://www.w3.org/1999/xlink">
<g id="graph0" class="graph" transform="scale(1 1) rotate(0) translate(4 136)">
<title>ThreadHelper.cpp</title>
<polygon fill="white" stroke="none" points="-4,4 -4,-136 168,-136 168,4 -4,4"/>
<!-- Node1 -->
<g id="node1" class="node"><title>Node1</title>
<polygon fill="#bfbfbf" stroke="black" points="52,-112.5 52,-131.5 146,-131.5 146,-112.5 52,-112.5"/>
<text text-anchor="middle" x="99" y="-119.5" font-family="Helvetica,sans-Serif" font-size="10.00">ThreadHelper.cpp</text>
</g>
<!-- Node2 -->
<g id="node2" class="node"><title>Node2</title>
<g id="a_node2"><a xlink:href="ThreadHelper_8h.html" target="_top" xlink:title="ThreadHelper.h">
<polygon fill="white" stroke="black" points="16.5,-56.5 16.5,-75.5 99.5,-75.5 99.5,-56.5 16.5,-56.5"/>
<text text-anchor="middle" x="58" y="-63.5" font-family="Helvetica,sans-Serif" font-size="10.00">ThreadHelper.h</text>
</a>
</g>
</g>
<!-- Node1&#45;&gt;Node2 -->
<g id="edge1" class="edge"><title>Node1&#45;&gt;Node2</title>
<path fill="none" stroke="midnightblue" d="M92.2297,-112.083C86.4384,-104.455 77.9415,-93.2645 70.8625,-83.9408"/>
<polygon fill="midnightblue" stroke="midnightblue" points="73.479,-81.5991 64.6443,-75.7511 67.9039,-85.8321 73.479,-81.5991"/>
</g>
<!-- Node5 -->
<g id="node5" class="node"><title>Node5</title>
<polygon fill="white" stroke="#bfbfbf" points="118,-56.5 118,-75.5 164,-75.5 164,-56.5 118,-56.5"/>
<text text-anchor="middle" x="141" y="-63.5" font-family="Helvetica,sans-Serif" font-size="10.00">stdio.h</text>
</g>
<!-- Node1&#45;&gt;Node5 -->
<g id="edge4" class="edge"><title>Node1&#45;&gt;Node5</title>
<path fill="none" stroke="midnightblue" d="M105.935,-112.083C111.929,-104.377 120.752,-93.0333 128.048,-83.6531"/>
<polygon fill="midnightblue" stroke="midnightblue" points="130.817,-85.7934 134.194,-75.7511 125.291,-81.4958 130.817,-85.7934"/>
</g>
<!-- Node3 -->
<g id="node3" class="node"><title>Node3</title>
<polygon fill="white" stroke="#bfbfbf" points="0,-0.5 0,-19.5 46,-19.5 46,-0.5 0,-0.5"/>
<text text-anchor="middle" x="23" y="-7.5" font-family="Helvetica,sans-Serif" font-size="10.00">atomic</text>
</g>
<!-- Node2&#45;&gt;Node3 -->
<g id="edge2" class="edge"><title>Node2&#45;&gt;Node3</title>
<path fill="none" stroke="midnightblue" d="M52.2205,-56.083C47.3276,-48.5341 40.1726,-37.4948 34.1674,-28.2298"/>
<polygon fill="midnightblue" stroke="midnightblue" points="37.048,-26.239 28.672,-19.7511 31.174,-30.0463 37.048,-26.239"/>
</g>
<!-- Node4 -->
<g id="node4" class="node"><title>Node4</title>
<polygon fill="white" stroke="#bfbfbf" points="64.5,-0.5 64.5,-19.5 121.5,-19.5 121.5,-0.5 64.5,-0.5"/>
<text text-anchor="middle" x="93" y="-7.5" font-family="Helvetica,sans-Serif" font-size="10.00">pthread.h</text>
</g>
<!-- Node2&#45;&gt;Node4 -->
<g id="edge3" class="edge"><title>Node2&#45;&gt;Node4</title>
<path fill="none" stroke="midnightblue" d="M63.7795,-56.083C68.6724,-48.5341 75.8274,-37.4948 81.8326,-28.2298"/>
<polygon fill="midnightblue" stroke="midnightblue" points="84.826,-30.0463 87.328,-19.7511 78.952,-26.239 84.826,-30.0463"/>
</g>
</g>
</svg>
