<?xml version="1.0" encoding="UTF-8" standalone="no"?>
<!DOCTYPE svg PUBLIC "-//W3C//DTD SVG 1.1//EN"
 "http://www.w3.org/Graphics/SVG/1.1/DTD/svg11.dtd">
<!-- Generated by graphviz version 2.38.0 (20140413.2041)
 -->
<!-- Title: ThreadHelper.h Pages: 1 -->
<svg width="749pt" height="84pt"
 viewBox="0.00 0.00 749.00 84.00" xmlns="http://www.w3.org/2000/svg" xmlns:xlink="http://www.w3.org/1999/xlink">
<g id="graph0" class="graph" transform="scale(1 1) rotate(0) translate(4 80)">
<title>ThreadHelper.h</title>
<polygon fill="white" stroke="none" points="-4,4 -4,-80 745,-80 745,4 -4,4"/>
<!-- Node1 -->
<g id="node1" class="node"><title>Node1</title>
<polygon fill="#bfbfbf" stroke="black" points="285,-56.5 285,-75.5 368,-75.5 368,-56.5 285,-56.5"/>
<text text-anchor="middle" x="326.5" y="-63.5" font-family="Helvetica,sans-Serif" font-size="10.00">ThreadHelper.h</text>
</g>
<!-- Node2 -->
<g id="node2" class="node"><title>Node2</title>
<g id="a_node2"><a xlink:href="HandleHostBandwidth_8cpp.html" target="_top" xlink:title="HandleHostBandwidth.cpp">
<polygon fill="white" stroke="black" points="0,-0.5 0,-19.5 133,-19.5 133,-0.5 0,-0.5"/>
<text text-anchor="middle" x="66.5" y="-7.5" font-family="Helvetica,sans-Serif" font-size="10.00">HandleHostBandwidth.cpp</text>
</a>
</g>
</g>
<!-- Node1&#45;&gt;Node2 -->
<g id="edge1" class="edge"><title>Node1&#45;&gt;Node2</title>
<path fill="none" stroke="midnightblue" d="M275.509,-54.4096C226.372,-44.2042 152.973,-28.9597 107.505,-19.5164"/>
<polygon fill="midnightblue" stroke="midnightblue" points="274.799,-57.8368 285.302,-56.4435 276.223,-50.9831 274.799,-57.8368"/>
</g>
<!-- Node3 -->
<g id="node3" class="node"><title>Node3</title>
<g id="a_node3"><a xlink:href="ThreadHelper_8cpp.html" target="_top" xlink:title="ThreadHelper.cpp">
<polygon fill="white" stroke="black" points="151.5,-0.5 151.5,-19.5 245.5,-19.5 245.5,-0.5 151.5,-0.5"/>
<text text-anchor="middle" x="198.5" y="-7.5" font-family="Helvetica,sans-Serif" font-size="10.00">ThreadHelper.cpp</text>
</a>
</g>
</g>
<!-- Node1&#45;&gt;Node3 -->
<g id="edge2" class="edge"><title>Node1&#45;&gt;Node3</title>
<path fill="none" stroke="midnightblue" d="M296.877,-52.503C272.881,-42.3795 239.716,-28.388 218.687,-19.5164"/>
<polygon fill="midnightblue" stroke="midnightblue" points="295.644,-55.7813 306.218,-56.4435 298.365,-49.3317 295.644,-55.7813"/>
</g>
<!-- Node4 -->
<g id="node4" class="node"><title>Node4</title>
<g id="a_node4"><a xlink:href="BandwidthCalculator_8cpp.html" target="_top" xlink:title="BandwidthCalculator.cpp">
<polygon fill="white" stroke="black" points="264,-0.5 264,-19.5 389,-19.5 389,-0.5 264,-0.5"/>
<text text-anchor="middle" x="326.5" y="-7.5" font-family="Helvetica,sans-Serif" font-size="10.00">BandwidthCalculator.cpp</text>
</a>
</g>
</g>
<!-- Node1&#45;&gt;Node4 -->
<g id="edge3" class="edge"><title>Node1&#45;&gt;Node4</title>
<path fill="none" stroke="midnightblue" d="M326.5,-45.8045C326.5,-36.9102 326.5,-26.7798 326.5,-19.7511"/>
<polygon fill="midnightblue" stroke="midnightblue" points="323,-46.083 326.5,-56.083 330,-46.083 323,-46.083"/>
</g>
<!-- Node5 -->
<g id="node5" class="node"><title>Node5</title>
<g id="a_node5"><a xlink:href="BandwidthCommunicator_8cpp.html" target="_top" xlink:title="BandwidthCommunicator.cpp">
<polygon fill="white" stroke="black" points="407,-0.5 407,-19.5 552,-19.5 552,-0.5 407,-0.5"/>
<text text-anchor="middle" x="479.5" y="-7.5" font-family="Helvetica,sans-Serif" font-size="10.00">BandwidthCommunicator.cpp</text>
</a>
</g>
</g>
<!-- Node1&#45;&gt;Node5 -->
<g id="edge4" class="edge"><title>Node1&#45;&gt;Node5</title>
<path fill="none" stroke="midnightblue" d="M360.389,-53.0392C389.177,-42.8786 429.787,-28.5457 455.37,-19.5164"/>
<polygon fill="midnightblue" stroke="midnightblue" points="359.008,-49.8148 350.743,-56.4435 361.338,-56.4157 359.008,-49.8148"/>
</g>
<!-- Node6 -->
<g id="node6" class="node"><title>Node6</title>
<g id="a_node6"><a xlink:href="WorkConservationFlowHandler_8cpp.html" target="_top" xlink:title="WorkConservationFlowHandler.cpp">
<polygon fill="white" stroke="black" points="570,-0.5 570,-19.5 741,-19.5 741,-0.5 570,-0.5"/>
<text text-anchor="middle" x="655.5" y="-7.5" font-family="Helvetica,sans-Serif" font-size="10.00">WorkConservationFlowHandler.cpp</text>
</a>
</g>
</g>
<!-- Node1&#45;&gt;Node6 -->
<g id="edge5" class="edge"><title>Node1&#45;&gt;Node6</title>
<path fill="none" stroke="midnightblue" d="M378.054,-56.5383C439.601,-46.4364 541.933,-29.6401 603.623,-19.5148"/>
<polygon fill="midnightblue" stroke="midnightblue" points="377.469,-53.0873 368.168,-58.1609 378.603,-59.9949 377.469,-53.0873"/>
</g>
</g>
</svg>
