<?xml version="1.0" encoding="UTF-8" standalone="no"?>
<!DOCTYPE svg PUBLIC "-//W3C//DTD SVG 1.1//EN"
 "http://www.w3.org/Graphics/SVG/1.1/DTD/svg11.dtd">
<!-- Generated by graphviz version 2.38.0 (20140413.2041)
 -->
<!-- Title: ThreadHelper.h Pages: 1 -->
<svg width="876pt" height="84pt"
 viewBox="0.00 0.00 876.00 84.00" xmlns="http://www.w3.org/2000/svg" xmlns:xlink="http://www.w3.org/1999/xlink">
<g id="graph0" class="graph" transform="scale(1 1) rotate(0) translate(4 80)">
<title>ThreadHelper.h</title>
<polygon fill="white" stroke="none" points="-4,4 -4,-80 872,-80 872,4 -4,4"/>
<!-- Node1 -->
<g id="node1" class="node"><title>Node1</title>
<polygon fill="#bfbfbf" stroke="black" points="344,-56.5 344,-75.5 427,-75.5 427,-56.5 344,-56.5"/>
<text text-anchor="middle" x="385.5" y="-63.5" font-family="Helvetica,sans-Serif" font-size="10.00">ThreadHelper.h</text>
</g>
<!-- Node2 -->
<g id="node2" class="node"><title>Node2</title>
<g id="a_node2"><a xlink:href="HandleHostBandwidth_8cpp.html" target="_top" xlink:title="HandleHostBandwidth.cpp">
<polygon fill="white" stroke="black" points="0,-0.5 0,-19.5 133,-19.5 133,-0.5 0,-0.5"/>
<text text-anchor="middle" x="66.5" y="-7.5" font-family="Helvetica,sans-Serif" font-size="10.00">HandleHostBandwidth.cpp</text>
</a>
</g>
</g>
<!-- Node1&#45;&gt;Node2 -->
<g id="edge1" class="edge"><title>Node1&#45;&gt;Node2</title>
<path fill="none" stroke="midnightblue" d="M333.812,-56.2503C273.996,-46.1248 176.148,-29.5611 116.89,-19.5299"/>
<polygon fill="midnightblue" stroke="midnightblue" points="333.352,-59.7222 343.796,-57.9404 334.521,-52.8204 333.352,-59.7222"/>
</g>
<!-- Node3 -->
<g id="node3" class="node"><title>Node3</title>
<g id="a_node3"><a xlink:href="ThreadHelper_8cpp.html" target="_top" xlink:title="ThreadHelper.cpp">
<polygon fill="white" stroke="black" points="151.5,-0.5 151.5,-19.5 245.5,-19.5 245.5,-0.5 151.5,-0.5"/>
<text text-anchor="middle" x="198.5" y="-7.5" font-family="Helvetica,sans-Serif" font-size="10.00">ThreadHelper.cpp</text>
</a>
</g>
</g>
<!-- Node1&#45;&gt;Node3 -->
<g id="edge2" class="edge"><title>Node1&#45;&gt;Node3</title>
<path fill="none" stroke="midnightblue" d="M345.91,-53.5677C310.634,-43.381 259.806,-28.7034 227.992,-19.5164"/>
<polygon fill="midnightblue" stroke="midnightblue" points="345.291,-57.0317 355.869,-56.4435 347.233,-50.3065 345.291,-57.0317"/>
</g>
<!-- Node4 -->
<g id="node4" class="node"><title>Node4</title>
<g id="a_node4"><a xlink:href="ClientServerTest_8cpp.html" target="_top" xlink:title="ClientServerTest.cpp">
<polygon fill="white" stroke="black" points="264,-0.5 264,-19.5 373,-19.5 373,-0.5 264,-0.5"/>
<text text-anchor="middle" x="318.5" y="-7.5" font-family="Helvetica,sans-Serif" font-size="10.00">ClientServerTest.cpp</text>
</a>
</g>
</g>
<!-- Node1&#45;&gt;Node4 -->
<g id="edge3" class="edge"><title>Node1&#45;&gt;Node4</title>
<path fill="none" stroke="midnightblue" d="M366.665,-49.8197C354.662,-40.1452 339.528,-27.9481 329.461,-19.8339"/>
<polygon fill="midnightblue" stroke="midnightblue" points="364.753,-52.7738 374.735,-56.324 369.146,-47.3236 364.753,-52.7738"/>
</g>
<!-- Node5 -->
<g id="node5" class="node"><title>Node5</title>
<g id="a_node5"><a xlink:href="BandwidthCalculator_8cpp.html" target="_top" xlink:title="BandwidthCalculator.cpp">
<polygon fill="white" stroke="black" points="391,-0.5 391,-19.5 516,-19.5 516,-0.5 391,-0.5"/>
<text text-anchor="middle" x="453.5" y="-7.5" font-family="Helvetica,sans-Serif" font-size="10.00">BandwidthCalculator.cpp</text>
</a>
</g>
</g>
<!-- Node1&#45;&gt;Node5 -->
<g id="edge4" class="edge"><title>Node1&#45;&gt;Node5</title>
<path fill="none" stroke="midnightblue" d="M404.262,-50.1008C416.5,-40.3824 432.059,-28.0269 442.376,-19.8339"/>
<polygon fill="midnightblue" stroke="midnightblue" points="402.08,-47.3642 396.425,-56.324 406.433,-52.846 402.08,-47.3642"/>
</g>
<!-- Node6 -->
<g id="node6" class="node"><title>Node6</title>
<g id="a_node6"><a xlink:href="BandwidthCommunicator_8cpp.html" target="_top" xlink:title="BandwidthCommunicator.cpp">
<polygon fill="white" stroke="black" points="534,-0.5 534,-19.5 679,-19.5 679,-0.5 534,-0.5"/>
<text text-anchor="middle" x="606.5" y="-7.5" font-family="Helvetica,sans-Serif" font-size="10.00">BandwidthCommunicator.cpp</text>
</a>
</g>
</g>
<!-- Node1&#45;&gt;Node6 -->
<g id="edge5" class="edge"><title>Node1&#45;&gt;Node6</title>
<path fill="none" stroke="midnightblue" d="M430.421,-54.0237C472.168,-43.8232 533.482,-28.8414 571.646,-19.5164"/>
<polygon fill="midnightblue" stroke="midnightblue" points="429.402,-50.6699 420.518,-56.4435 431.063,-57.4698 429.402,-50.6699"/>
</g>
<!-- Node7 -->
<g id="node7" class="node"><title>Node7</title>
<g id="a_node7"><a xlink:href="WorkConservationFlowHandler_8cpp.html" target="_top" xlink:title="WorkConservationFlowHandler.cpp">
<polygon fill="white" stroke="black" points="697,-0.5 697,-19.5 868,-19.5 868,-0.5 697,-0.5"/>
<text text-anchor="middle" x="782.5" y="-7.5" font-family="Helvetica,sans-Serif" font-size="10.00">WorkConservationFlowHandler.cpp</text>
</a>
</g>
</g>
<!-- Node1&#45;&gt;Node7 -->
<g id="edge6" class="edge"><title>Node1&#45;&gt;Node7</title>
<path fill="none" stroke="midnightblue" d="M437.518,-57.9246C510.204,-48.0377 641.98,-30.1135 719.935,-19.5102"/>
<polygon fill="midnightblue" stroke="midnightblue" points="436.673,-54.5072 427.236,-59.3231 437.616,-61.4433 436.673,-54.5072"/>
</g>
</g>
</svg>
