<?xml version="1.0" encoding="UTF-8" standalone="no"?>
<!DOCTYPE svg PUBLIC "-//W3C//DTD SVG 1.1//EN"
 "http://www.w3.org/Graphics/SVG/1.1/DTD/svg11.dtd">
<!-- Generated by graphviz version 2.38.0 (20140413.2041)
 -->
<!-- Title: ThreadHelper.cpp Pages: 1 -->
<svg width="156pt" height="140pt"
 viewBox="0.00 0.00 155.50 140.00" xmlns="http://www.w3.org/2000/svg" xmlns:xlink="http://www.w3.org/1999/xlink">
<g id="graph0" class="graph" transform="scale(1 1) rotate(0) translate(4 136)">
<title>ThreadHelper.cpp</title>
<polygon fill="white" stroke="none" points="-4,4 -4,-136 151.5,-136 151.5,4 -4,4"/>
<!-- Node1 -->
<g id="node1" class="node"><title>Node1</title>
<polygon fill="#bfbfbf" stroke="black" points="35.5,-112.5 35.5,-131.5 129.5,-131.5 129.5,-112.5 35.5,-112.5"/>
<text text-anchor="middle" x="82.5" y="-119.5" font-family="Helvetica,sans-Serif" font-size="10.00">ThreadHelper.cpp</text>
</g>
<!-- Node2 -->
<g id="node2" class="node"><title>Node2</title>
<g id="a_node2"><a xlink:href="ThreadHelper_8h.html" target="_top" xlink:title="ThreadHelper.h">
<polygon fill="white" stroke="black" points="0,-56.5 0,-75.5 83,-75.5 83,-56.5 0,-56.5"/>
<text text-anchor="middle" x="41.5" y="-63.5" font-family="Helvetica,sans-Serif" font-size="10.00">ThreadHelper.h</text>
</a>
</g>
</g>
<!-- Node1&#45;&gt;Node2 -->
<g id="edge1" class="edge"><title>Node1&#45;&gt;Node2</title>
<path fill="none" stroke="midnightblue" d="M75.7297,-112.083C69.9384,-104.455 61.4415,-93.2645 54.3625,-83.9408"/>
<polygon fill="midnightblue" stroke="midnightblue" points="56.979,-81.5991 48.1443,-75.7511 51.4039,-85.8321 56.979,-81.5991"/>
</g>
<!-- Node4 -->
<g id="node4" class="node"><title>Node4</title>
<polygon fill="white" stroke="#bfbfbf" points="101.5,-56.5 101.5,-75.5 147.5,-75.5 147.5,-56.5 101.5,-56.5"/>
<text text-anchor="middle" x="124.5" y="-63.5" font-family="Helvetica,sans-Serif" font-size="10.00">stdio.h</text>
</g>
<!-- Node1&#45;&gt;Node4 -->
<g id="edge3" class="edge"><title>Node1&#45;&gt;Node4</title>
<path fill="none" stroke="midnightblue" d="M89.4354,-112.083C95.4292,-104.377 104.252,-93.0333 111.548,-83.6531"/>
<polygon fill="midnightblue" stroke="midnightblue" points="114.317,-85.7934 117.694,-75.7511 108.791,-81.4958 114.317,-85.7934"/>
</g>
<!-- Node3 -->
<g id="node3" class="node"><title>Node3</title>
<polygon fill="white" stroke="#bfbfbf" points="13,-0.5 13,-19.5 70,-19.5 70,-0.5 13,-0.5"/>
<text text-anchor="middle" x="41.5" y="-7.5" font-family="Helvetica,sans-Serif" font-size="10.00">pthread.h</text>
</g>
<!-- Node2&#45;&gt;Node3 -->
<g id="edge2" class="edge"><title>Node2&#45;&gt;Node3</title>
<path fill="none" stroke="midnightblue" d="M41.5,-56.083C41.5,-49.0059 41.5,-38.8611 41.5,-29.9865"/>
<polygon fill="midnightblue" stroke="midnightblue" points="45.0001,-29.751 41.5,-19.7511 38.0001,-29.7511 45.0001,-29.751"/>
</g>
</g>
</svg>
