<?xml version="1.0" encoding="UTF-8" standalone="no"?>
<!DOCTYPE svg PUBLIC "-//W3C//DTD SVG 1.1//EN"
 "http://www.w3.org/Graphics/SVG/1.1/DTD/svg11.dtd">
<!-- Generated by graphviz version 2.38.0 (20140413.2041)
 -->
<!-- Title: WCBandwidthUtilization.h Pages: 1 -->
<svg width="338pt" height="84pt"
 viewBox="0.00 0.00 337.50 84.00" xmlns="http://www.w3.org/2000/svg" xmlns:xlink="http://www.w3.org/1999/xlink">
<g id="graph0" class="graph" transform="scale(1 1) rotate(0) translate(4 80)">
<title>WCBandwidthUtilization.h</title>
<polygon fill="white" stroke="none" points="-4,4 -4,-80 333.5,-80 333.5,4 -4,4"/>
<!-- Node1 -->
<g id="node1" class="node"><title>Node1</title>
<polygon fill="#bfbfbf" stroke="black" points="106,-56.5 106,-75.5 237,-75.5 237,-56.5 106,-56.5"/>
<text text-anchor="middle" x="171.5" y="-63.5" font-family="Helvetica,sans-Serif" font-size="10.00">WCBandwidthUtilization.h</text>
</g>
<!-- Node2 -->
<g id="node2" class="node"><title>Node2</title>
<g id="a_node2"><a xlink:href="CommandLineArgumentParser_8cpp.html" target="_top" xlink:title="CommandLineArgumentParser.cpp">
<polygon fill="white" stroke="black" points="0,-0.5 0,-19.5 169,-19.5 169,-0.5 0,-0.5"/>
<text text-anchor="middle" x="84.5" y="-7.5" font-family="Helvetica,sans-Serif" font-size="10.00">CommandLineArgumentParser.cpp</text>
</a>
</g>
</g>
<!-- Node1&#45;&gt;Node2 -->
<g id="edge1" class="edge"><title>Node1&#45;&gt;Node2</title>
<path fill="none" stroke="midnightblue" d="M148.784,-50.9005C132.831,-40.9986 112.003,-28.0705 98.4434,-19.6545"/>
<polygon fill="midnightblue" stroke="midnightblue" points="147.18,-54.024 157.522,-56.324 150.871,-48.0765 147.18,-54.024"/>
</g>
<!-- Node3 -->
<g id="node3" class="node"><title>Node3</title>
<g id="a_node3"><a xlink:href="WCBandwidthUtilization_8cpp.html" target="_top" xlink:title="WCBandwidthUtilization.cpp">
<polygon fill="white" stroke="black" points="187.5,-0.5 187.5,-19.5 329.5,-19.5 329.5,-0.5 187.5,-0.5"/>
<text text-anchor="middle" x="258.5" y="-7.5" font-family="Helvetica,sans-Serif" font-size="10.00">WCBandwidthUtilization.cpp</text>
</a>
</g>
</g>
<!-- Node1&#45;&gt;Node3 -->
<g id="edge2" class="edge"><title>Node1&#45;&gt;Node3</title>
<path fill="none" stroke="midnightblue" d="M194.216,-50.9005C210.169,-40.9986 230.997,-28.0705 244.557,-19.6545"/>
<polygon fill="midnightblue" stroke="midnightblue" points="192.129,-48.0765 185.478,-56.324 195.82,-54.024 192.129,-48.0765"/>
</g>
</g>
</svg>
