<?xml version="1.0" encoding="UTF-8" standalone="no"?>
<!DOCTYPE svg PUBLIC "-//W3C//DTD SVG 1.1//EN"
 "http://www.w3.org/Graphics/SVG/1.1/DTD/svg11.dtd">
<!-- Generated by graphviz version 2.38.0 (20140413.2041)
 -->
<!-- Title: WCBandwidthUtilization.cpp Pages: 1 -->
<svg width="150pt" height="196pt"
 viewBox="0.00 0.00 150.00 196.00" xmlns="http://www.w3.org/2000/svg" xmlns:xlink="http://www.w3.org/1999/xlink">
<g id="graph0" class="graph" transform="scale(1 1) rotate(0) translate(4 192)">
<title>WCBandwidthUtilization.cpp</title>
<polygon fill="white" stroke="none" points="-4,4 -4,-192 146,-192 146,4 -4,4"/>
<!-- Node1 -->
<g id="node1" class="node"><title>Node1</title>
<polygon fill="#bfbfbf" stroke="black" points="0,-168.5 0,-187.5 142,-187.5 142,-168.5 0,-168.5"/>
<text text-anchor="middle" x="71" y="-175.5" font-family="Helvetica,sans-Serif" font-size="10.00">WCBandwidthUtilization.cpp</text>
</g>
<!-- Node2 -->
<g id="node2" class="node"><title>Node2</title>
<g id="a_node2"><a xlink:href="WCBandwidthUtilization_8h.html" target="_top" xlink:title="WCBandwidthUtilization.h">
<polygon fill="white" stroke="black" points="5.5,-112.5 5.5,-131.5 136.5,-131.5 136.5,-112.5 5.5,-112.5"/>
<text text-anchor="middle" x="71" y="-119.5" font-family="Helvetica,sans-Serif" font-size="10.00">WCBandwidthUtilization.h</text>
</a>
</g>
</g>
<!-- Node1&#45;&gt;Node2 -->
<g id="edge1" class="edge"><title>Node1&#45;&gt;Node2</title>
<path fill="none" stroke="midnightblue" d="M71,-168.083C71,-161.006 71,-150.861 71,-141.986"/>
<polygon fill="midnightblue" stroke="midnightblue" points="74.5001,-141.751 71,-131.751 67.5001,-141.751 74.5001,-141.751"/>
</g>
<!-- Node3 -->
<g id="node3" class="node"><title>Node3</title>
<g id="a_node3"><a xlink:href="TestBaseClass_8h.html" target="_top" xlink:title="TestBaseClass.h">
<polygon fill="white" stroke="black" points="25,-56.5 25,-75.5 117,-75.5 117,-56.5 25,-56.5"/>
<text text-anchor="middle" x="71" y="-63.5" font-family="Helvetica,sans-Serif" font-size="10.00">TestBaseClass.h</text>
</a>
</g>
</g>
<!-- Node2&#45;&gt;Node3 -->
<g id="edge2" class="edge"><title>Node2&#45;&gt;Node3</title>
<path fill="none" stroke="midnightblue" d="M71,-112.083C71,-105.006 71,-94.8611 71,-85.9865"/>
<polygon fill="midnightblue" stroke="midnightblue" points="74.5001,-85.751 71,-75.7511 67.5001,-85.7511 74.5001,-85.751"/>
</g>
<!-- Node4 -->
<g id="node4" class="node"><title>Node4</title>
<polygon fill="white" stroke="#bfbfbf" points="50.5,-0.5 50.5,-19.5 91.5,-19.5 91.5,-0.5 50.5,-0.5"/>
<text text-anchor="middle" x="71" y="-7.5" font-family="Helvetica,sans-Serif" font-size="10.00">string</text>
</g>
<!-- Node3&#45;&gt;Node4 -->
<g id="edge3" class="edge"><title>Node3&#45;&gt;Node4</title>
<path fill="none" stroke="midnightblue" d="M71,-56.083C71,-49.0059 71,-38.8611 71,-29.9865"/>
<polygon fill="midnightblue" stroke="midnightblue" points="74.5001,-29.751 71,-19.7511 67.5001,-29.7511 74.5001,-29.751"/>
</g>
</g>
</svg>
