<?xml version="1.0" encoding="UTF-8" standalone="no"?>
<!DOCTYPE svg PUBLIC "-//W3C//DTD SVG 1.1//EN"
 "http://www.w3.org/Graphics/SVG/1.1/DTD/svg11.dtd">
<!-- Generated by graphviz version 2.38.0 (20140413.2041)
 -->
<!-- Title: main.cpp Pages: 1 -->
<svg width="470pt" height="140pt"
 viewBox="0.00 0.00 469.50 140.00" xmlns="http://www.w3.org/2000/svg" xmlns:xlink="http://www.w3.org/1999/xlink">
<g id="graph0" class="graph" transform="scale(1 1) rotate(0) translate(4 136)">
<title>main.cpp</title>
<polygon fill="white" stroke="none" points="-4,4 -4,-136 465.5,-136 465.5,4 -4,4"/>
<!-- Node1 -->
<g id="node1" class="node"><title>Node1</title>
<polygon fill="#bfbfbf" stroke="black" points="162,-112.5 162,-131.5 218,-131.5 218,-112.5 162,-112.5"/>
<text text-anchor="middle" x="190" y="-119.5" font-family="Helvetica,sans-Serif" font-size="10.00">main.cpp</text>
</g>
<!-- Node2 -->
<g id="node2" class="node"><title>Node2</title>
<polygon fill="white" stroke="#bfbfbf" points="0,-56.5 0,-75.5 50,-75.5 50,-56.5 0,-56.5"/>
<text text-anchor="middle" x="25" y="-63.5" font-family="Helvetica,sans-Serif" font-size="10.00">signal.h</text>
</g>
<!-- Node1&#45;&gt;Node2 -->
<g id="edge1" class="edge"><title>Node1&#45;&gt;Node2</title>
<path fill="none" stroke="midnightblue" d="M163.855,-112.444C135.731,-103.239 90.8681,-88.5568 59.7812,-78.3829"/>
<polygon fill="midnightblue" stroke="midnightblue" points="60.8034,-75.0349 50.2108,-75.2508 58.6261,-81.6876 60.8034,-75.0349"/>
</g>
<!-- Node3 -->
<g id="node3" class="node"><title>Node3</title>
<polygon fill="white" stroke="#bfbfbf" points="68,-56.5 68,-75.5 114,-75.5 114,-56.5 68,-56.5"/>
<text text-anchor="middle" x="91" y="-63.5" font-family="Helvetica,sans-Serif" font-size="10.00">stdio.h</text>
</g>
<!-- Node1&#45;&gt;Node3 -->
<g id="edge2" class="edge"><title>Node1&#45;&gt;Node3</title>
<path fill="none" stroke="midnightblue" d="M174.094,-112.324C158.362,-103.743 134.058,-90.486 115.791,-80.5224"/>
<polygon fill="midnightblue" stroke="midnightblue" points="117.322,-77.3704 106.867,-75.6545 113.97,-83.5157 117.322,-77.3704"/>
</g>
<!-- Node4 -->
<g id="node4" class="node"><title>Node4</title>
<polygon fill="white" stroke="#bfbfbf" points="132,-56.5 132,-75.5 180,-75.5 180,-56.5 132,-56.5"/>
<text text-anchor="middle" x="156" y="-63.5" font-family="Helvetica,sans-Serif" font-size="10.00">stdlib.h</text>
</g>
<!-- Node1&#45;&gt;Node4 -->
<g id="edge3" class="edge"><title>Node1&#45;&gt;Node4</title>
<path fill="none" stroke="midnightblue" d="M184.386,-112.083C179.633,-104.534 172.682,-93.4948 166.848,-84.2298"/>
<polygon fill="midnightblue" stroke="midnightblue" points="169.8,-82.3486 161.51,-75.7511 163.876,-86.0783 169.8,-82.3486"/>
</g>
<!-- Node5 -->
<g id="node5" class="node"><title>Node5</title>
<polygon fill="white" stroke="#bfbfbf" points="198.5,-56.5 198.5,-75.5 249.5,-75.5 249.5,-56.5 198.5,-56.5"/>
<text text-anchor="middle" x="224" y="-63.5" font-family="Helvetica,sans-Serif" font-size="10.00">unistd.h</text>
</g>
<!-- Node1&#45;&gt;Node5 -->
<g id="edge4" class="edge"><title>Node1&#45;&gt;Node5</title>
<path fill="none" stroke="midnightblue" d="M195.614,-112.083C200.367,-104.534 207.318,-93.4948 213.152,-84.2298"/>
<polygon fill="midnightblue" stroke="midnightblue" points="216.124,-86.0783 218.49,-75.7511 210.2,-82.3486 216.124,-86.0783"/>
</g>
<!-- Node6 -->
<g id="node6" class="node"><title>Node6</title>
<g id="a_node6"><a xlink:href="MainObject_8h.html" target="_top" xlink:title="MainObject.h">
<polygon fill="white" stroke="black" points="268,-56.5 268,-75.5 342,-75.5 342,-56.5 268,-56.5"/>
<text text-anchor="middle" x="305" y="-63.5" font-family="Helvetica,sans-Serif" font-size="10.00">MainObject.h</text>
</a>
</g>
</g>
<!-- Node1&#45;&gt;Node6 -->
<g id="edge5" class="edge"><title>Node1&#45;&gt;Node6</title>
<path fill="none" stroke="midnightblue" d="M208.222,-112.444C226.896,-103.675 256.156,-89.9355 277.617,-79.8579"/>
<polygon fill="midnightblue" stroke="midnightblue" points="279.299,-82.935 286.863,-75.5164 276.324,-76.5988 279.299,-82.935"/>
</g>
<!-- Node9 -->
<g id="node9" class="node"><title>Node9</title>
<g id="a_node9"><a xlink:href="BandwidthValues_8h.html" target="_top" xlink:title="BandwidthValues.h">
<polygon fill="white" stroke="black" points="360.5,-56.5 360.5,-75.5 461.5,-75.5 461.5,-56.5 360.5,-56.5"/>
<text text-anchor="middle" x="411" y="-63.5" font-family="Helvetica,sans-Serif" font-size="10.00">BandwidthValues.h</text>
</a>
</g>
</g>
<!-- Node1&#45;&gt;Node9 -->
<g id="edge8" class="edge"><title>Node1&#45;&gt;Node9</title>
<path fill="none" stroke="midnightblue" d="M218.439,-114.051C255.861,-104.907 322.048,-88.7349 366.223,-77.9411"/>
<polygon fill="midnightblue" stroke="midnightblue" points="367.238,-81.2961 376.121,-75.5225 365.576,-74.4962 367.238,-81.2961"/>
</g>
<!-- Node7 -->
<g id="node7" class="node"><title>Node7</title>
<polygon fill="white" stroke="#bfbfbf" points="239.5,-0.5 239.5,-19.5 288.5,-19.5 288.5,-0.5 239.5,-0.5"/>
<text text-anchor="middle" x="264" y="-7.5" font-family="Helvetica,sans-Serif" font-size="10.00">stdint.h</text>
</g>
<!-- Node6&#45;&gt;Node7 -->
<g id="edge6" class="edge"><title>Node6&#45;&gt;Node7</title>
<path fill="none" stroke="midnightblue" d="M298.23,-56.083C292.438,-48.4554 283.942,-37.2645 276.862,-27.9408"/>
<polygon fill="midnightblue" stroke="midnightblue" points="279.479,-25.5991 270.644,-19.7511 273.904,-29.8321 279.479,-25.5991"/>
</g>
<!-- Node8 -->
<g id="node8" class="node"><title>Node8</title>
<polygon fill="white" stroke="#bfbfbf" points="306.5,-0.5 306.5,-19.5 347.5,-19.5 347.5,-0.5 306.5,-0.5"/>
<text text-anchor="middle" x="327" y="-7.5" font-family="Helvetica,sans-Serif" font-size="10.00">string</text>
</g>
<!-- Node6&#45;&gt;Node8 -->
<g id="edge7" class="edge"><title>Node6&#45;&gt;Node8</title>
<path fill="none" stroke="midnightblue" d="M308.633,-56.083C311.612,-48.77 315.926,-38.1814 319.625,-29.1034"/>
<polygon fill="midnightblue" stroke="midnightblue" points="322.903,-30.3326 323.435,-19.7511 316.42,-27.6914 322.903,-30.3326"/>
</g>
<!-- Node10 -->
<g id="node10" class="node"><title>Node10</title>
<polygon fill="white" stroke="#bfbfbf" points="388,-0.5 388,-19.5 434,-19.5 434,-0.5 388,-0.5"/>
<text text-anchor="middle" x="411" y="-7.5" font-family="Helvetica,sans-Serif" font-size="10.00">atomic</text>
</g>
<!-- Node9&#45;&gt;Node10 -->
<g id="edge9" class="edge"><title>Node9&#45;&gt;Node10</title>
<path fill="none" stroke="midnightblue" d="M411,-56.083C411,-49.0059 411,-38.8611 411,-29.9865"/>
<polygon fill="midnightblue" stroke="midnightblue" points="414.5,-29.751 411,-19.7511 407.5,-29.7511 414.5,-29.751"/>
</g>
</g>
</svg>
