<?xml version="1.0" encoding="UTF-8" standalone="no"?>
<!DOCTYPE svg PUBLIC "-//W3C//DTD SVG 1.1//EN"
 "http://www.w3.org/Graphics/SVG/1.1/DTD/svg11.dtd">
<!-- Generated by graphviz version 2.38.0 (20140413.2041)
 -->
<!-- Title: WCEnablerObject.cpp Pages: 1 -->
<svg width="1128pt" height="252pt"
 viewBox="0.00 0.00 1127.50 252.00" xmlns="http://www.w3.org/2000/svg" xmlns:xlink="http://www.w3.org/1999/xlink">
<g id="graph0" class="graph" transform="scale(1 1) rotate(0) translate(4 248)">
<title>WCEnablerObject.cpp</title>
<polygon fill="white" stroke="none" points="-4,4 -4,-248 1123.5,-248 1123.5,4 -4,4"/>
<!-- Node1 -->
<g id="node1" class="node"><title>Node1</title>
<polygon fill="#bfbfbf" stroke="black" points="711,-224.5 711,-243.5 825,-243.5 825,-224.5 711,-224.5"/>
<text text-anchor="middle" x="768" y="-231.5" font-family="Helvetica,sans-Serif" font-size="10.00">WCEnablerObject.cpp</text>
</g>
<!-- Node2 -->
<g id="node2" class="node"><title>Node2</title>
<g id="a_node2"><a xlink:href="WCEnablerObject_8h.html" target="_top" xlink:title="WCEnablerObject.h">
<polygon fill="white" stroke="black" points="554,-168.5 554,-187.5 658,-187.5 658,-168.5 554,-168.5"/>
<text text-anchor="middle" x="606" y="-175.5" font-family="Helvetica,sans-Serif" font-size="10.00">WCEnablerObject.h</text>
</a>
</g>
</g>
<!-- Node1&#45;&gt;Node2 -->
<g id="edge1" class="edge"><title>Node1&#45;&gt;Node2</title>
<path fill="none" stroke="midnightblue" d="M742.331,-224.444C715.077,-215.359 671.816,-200.939 641.349,-190.783"/>
<polygon fill="midnightblue" stroke="midnightblue" points="642.143,-187.358 631.549,-187.516 639.929,-193.999 642.143,-187.358"/>
</g>
<!-- Node4 -->
<g id="node4" class="node"><title>Node4</title>
<polygon fill="white" stroke="#bfbfbf" points="786,-168.5 786,-187.5 842,-187.5 842,-168.5 786,-168.5"/>
<text text-anchor="middle" x="814" y="-175.5" font-family="Helvetica,sans-Serif" font-size="10.00">algorithm</text>
</g>
<!-- Node1&#45;&gt;Node4 -->
<g id="edge3" class="edge"><title>Node1&#45;&gt;Node4</title>
<path fill="none" stroke="midnightblue" d="M775.596,-224.083C782.227,-216.298 792.021,-204.801 800.058,-195.367"/>
<polygon fill="midnightblue" stroke="midnightblue" points="802.725,-197.633 806.545,-187.751 797.396,-193.094 802.725,-197.633"/>
</g>
<!-- Node5 -->
<g id="node5" class="node"><title>Node5</title>
<polygon fill="white" stroke="#bfbfbf" points="860,-168.5 860,-187.5 914,-187.5 914,-168.5 860,-168.5"/>
<text text-anchor="middle" x="887" y="-175.5" font-family="Helvetica,sans-Serif" font-size="10.00">ifaddrs.h</text>
</g>
<!-- Node1&#45;&gt;Node5 -->
<g id="edge4" class="edge"><title>Node1&#45;&gt;Node5</title>
<path fill="none" stroke="midnightblue" d="M786.856,-224.444C806.266,-215.636 836.73,-201.812 858.965,-191.722"/>
<polygon fill="midnightblue" stroke="midnightblue" points="860.572,-194.836 868.232,-187.516 857.68,-188.462 860.572,-194.836"/>
</g>
<!-- Node6 -->
<g id="node6" class="node"><title>Node6</title>
<polygon fill="white" stroke="#bfbfbf" points="932.5,-168.5 932.5,-187.5 981.5,-187.5 981.5,-168.5 932.5,-168.5"/>
<text text-anchor="middle" x="957" y="-175.5" font-family="Helvetica,sans-Serif" font-size="10.00">netdb.h</text>
</g>
<!-- Node1&#45;&gt;Node6 -->
<g id="edge5" class="edge"><title>Node1&#45;&gt;Node6</title>
<path fill="none" stroke="midnightblue" d="M797.948,-224.444C831.768,-214.78 886.72,-199.08 922.361,-188.897"/>
<polygon fill="midnightblue" stroke="midnightblue" points="923.658,-192.166 932.312,-186.054 921.735,-185.436 923.658,-192.166"/>
</g>
<!-- Node7 -->
<g id="node7" class="node"><title>Node7</title>
<polygon fill="white" stroke="#bfbfbf" points="1000,-168.5 1000,-187.5 1052,-187.5 1052,-168.5 1000,-168.5"/>
<text text-anchor="middle" x="1026" y="-175.5" font-family="Helvetica,sans-Serif" font-size="10.00">sstream</text>
</g>
<!-- Node1&#45;&gt;Node7 -->
<g id="edge6" class="edge"><title>Node1&#45;&gt;Node7</title>
<path fill="none" stroke="midnightblue" d="M813.849,-224.478C856.92,-216.309 923.388,-203.284 989.859,-188.175"/>
<polygon fill="midnightblue" stroke="midnightblue" points="990.696,-191.574 999.663,-185.93 989.134,-184.75 990.696,-191.574"/>
</g>
<!-- Node8 -->
<g id="node8" class="node"><title>Node8</title>
<polygon fill="white" stroke="#bfbfbf" points="1070.5,-168.5 1070.5,-187.5 1119.5,-187.5 1119.5,-168.5 1070.5,-168.5"/>
<text text-anchor="middle" x="1095" y="-175.5" font-family="Helvetica,sans-Serif" font-size="10.00">string.h</text>
</g>
<!-- Node1&#45;&gt;Node8 -->
<g id="edge7" class="edge"><title>Node1&#45;&gt;Node8</title>
<path fill="none" stroke="midnightblue" d="M825.039,-226.067C882.179,-218.711 972.794,-205.933 1060.36,-187.939"/>
<polygon fill="midnightblue" stroke="midnightblue" points="1061.11,-191.357 1070.19,-185.893 1059.69,-184.504 1061.11,-191.357"/>
</g>
<!-- Node9 -->
<g id="node9" class="node"><title>Node9</title>
<g id="a_node9"><a xlink:href="BandwidthCalculator_8h.html" target="_top" xlink:title="BandwidthCalculator.h">
<polygon fill="white" stroke="black" points="241.5,-168.5 241.5,-187.5 356.5,-187.5 356.5,-168.5 241.5,-168.5"/>
<text text-anchor="middle" x="299" y="-175.5" font-family="Helvetica,sans-Serif" font-size="10.00">BandwidthCalculator.h</text>
</a>
</g>
</g>
<!-- Node1&#45;&gt;Node9 -->
<g id="edge8" class="edge"><title>Node1&#45;&gt;Node9</title>
<path fill="none" stroke="midnightblue" d="M710.888,-227.065C634.726,-219.052 495.438,-204.054 366.627,-188.179"/>
<polygon fill="midnightblue" stroke="midnightblue" points="366.936,-184.69 356.582,-186.936 366.077,-191.637 366.936,-184.69"/>
</g>
<!-- Node17 -->
<g id="node17" class="node"><title>Node17</title>
<g id="a_node17"><a xlink:href="BandwidthCommunicator_8h.html" target="_top" xlink:title="BandwidthCommunicator.h">
<polygon fill="white" stroke="black" points="89,-168.5 89,-187.5 223,-187.5 223,-168.5 89,-168.5"/>
<text text-anchor="middle" x="156" y="-175.5" font-family="Helvetica,sans-Serif" font-size="10.00">BandwidthCommunicator.h</text>
</a>
</g>
</g>
<!-- Node1&#45;&gt;Node17 -->
<g id="edge18" class="edge"><title>Node1&#45;&gt;Node17</title>
<path fill="none" stroke="midnightblue" d="M710.826,-228.844C614.579,-221.705 413.832,-206.211 233.338,-188.104"/>
<polygon fill="midnightblue" stroke="midnightblue" points="233.424,-184.595 223.123,-187.075 232.722,-191.56 233.424,-184.595"/>
</g>
<!-- Node20 -->
<g id="node20" class="node"><title>Node20</title>
<g id="a_node20"><a xlink:href="LoggingHandler_8h.html" target="_top" xlink:title="LoggingHandler.h">
<polygon fill="white" stroke="black" points="676,-168.5 676,-187.5 768,-187.5 768,-168.5 676,-168.5"/>
<text text-anchor="middle" x="722" y="-175.5" font-family="Helvetica,sans-Serif" font-size="10.00">LoggingHandler.h</text>
</a>
</g>
</g>
<!-- Node1&#45;&gt;Node20 -->
<g id="edge23" class="edge"><title>Node1&#45;&gt;Node20</title>
<path fill="none" stroke="midnightblue" d="M760.404,-224.083C753.773,-216.298 743.979,-204.801 735.942,-195.367"/>
<polygon fill="midnightblue" stroke="midnightblue" points="738.604,-193.094 729.455,-187.751 733.275,-197.633 738.604,-193.094"/>
</g>
<!-- Node22 -->
<g id="node22" class="node"><title>Node22</title>
<g id="a_node22"><a xlink:href="WorkConservationFlowHandler_8h.html" target="_top" xlink:title="WorkConservationFlowHandler.h">
<polygon fill="white" stroke="black" points="374.5,-168.5 374.5,-187.5 535.5,-187.5 535.5,-168.5 374.5,-168.5"/>
<text text-anchor="middle" x="455" y="-175.5" font-family="Helvetica,sans-Serif" font-size="10.00">WorkConservationFlowHandler.h</text>
</a>
</g>
</g>
<!-- Node1&#45;&gt;Node22 -->
<g id="edge26" class="edge"><title>Node1&#45;&gt;Node22</title>
<path fill="none" stroke="midnightblue" d="M718.404,-224.444C663.001,-214.885 573.357,-199.419 514.295,-189.23"/>
<polygon fill="midnightblue" stroke="midnightblue" points="514.813,-185.768 504.364,-187.516 513.623,-192.666 514.813,-185.768"/>
</g>
<!-- Node3 -->
<g id="node3" class="node"><title>Node3</title>
<polygon fill="white" stroke="#bfbfbf" points="443.5,-112.5 443.5,-131.5 484.5,-131.5 484.5,-112.5 443.5,-112.5"/>
<text text-anchor="middle" x="464" y="-119.5" font-family="Helvetica,sans-Serif" font-size="10.00">string</text>
</g>
<!-- Node2&#45;&gt;Node3 -->
<g id="edge2" class="edge"><title>Node2&#45;&gt;Node3</title>
<path fill="none" stroke="midnightblue" d="M583.5,-168.444C559.368,-159.267 520.917,-144.645 494.173,-134.474"/>
<polygon fill="midnightblue" stroke="midnightblue" points="495.142,-131.098 484.551,-130.815 492.654,-137.641 495.142,-131.098"/>
</g>
<!-- Node9&#45;&gt;Node3 -->
<g id="edge11" class="edge"><title>Node9&#45;&gt;Node3</title>
<path fill="none" stroke="midnightblue" d="M325.145,-168.444C354.536,-158.825 402.205,-143.224 433.331,-133.037"/>
<polygon fill="midnightblue" stroke="midnightblue" points="434.787,-136.244 443.202,-129.807 432.609,-129.591 434.787,-136.244"/>
</g>
<!-- Node10 -->
<g id="node10" class="node"><title>Node10</title>
<polygon fill="white" stroke="#bfbfbf" points="163.5,-112.5 163.5,-131.5 220.5,-131.5 220.5,-112.5 163.5,-112.5"/>
<text text-anchor="middle" x="192" y="-119.5" font-family="Helvetica,sans-Serif" font-size="10.00">pthread.h</text>
</g>
<!-- Node9&#45;&gt;Node10 -->
<g id="edge9" class="edge"><title>Node9&#45;&gt;Node10</title>
<path fill="none" stroke="midnightblue" d="M281.809,-168.324C264.649,-159.664 238.054,-146.242 218.253,-136.249"/>
<polygon fill="midnightblue" stroke="midnightblue" points="219.653,-133.035 209.149,-131.655 216.499,-139.285 219.653,-133.035"/>
</g>
<!-- Node11 -->
<g id="node11" class="node"><title>Node11</title>
<polygon fill="white" stroke="#bfbfbf" points="376.5,-112.5 376.5,-131.5 425.5,-131.5 425.5,-112.5 376.5,-112.5"/>
<text text-anchor="middle" x="401" y="-119.5" font-family="Helvetica,sans-Serif" font-size="10.00">stdint.h</text>
</g>
<!-- Node9&#45;&gt;Node11 -->
<g id="edge10" class="edge"><title>Node9&#45;&gt;Node11</title>
<path fill="none" stroke="midnightblue" d="M315.388,-168.324C331.671,-159.703 356.867,-146.364 375.716,-136.386"/>
<polygon fill="midnightblue" stroke="midnightblue" points="377.452,-139.427 384.653,-131.655 374.177,-133.24 377.452,-139.427"/>
</g>
<!-- Node12 -->
<g id="node12" class="node"><title>Node12</title>
<g id="a_node12"><a xlink:href="SimpleRateCalculator_8h.html" target="_top" xlink:title="SimpleRateCalculator.h">
<polygon fill="white" stroke="black" points="239,-112.5 239,-131.5 359,-131.5 359,-112.5 239,-112.5"/>
<text text-anchor="middle" x="299" y="-119.5" font-family="Helvetica,sans-Serif" font-size="10.00">SimpleRateCalculator.h</text>
</a>
</g>
</g>
<!-- Node9&#45;&gt;Node12 -->
<g id="edge12" class="edge"><title>Node9&#45;&gt;Node12</title>
<path fill="none" stroke="midnightblue" d="M299,-168.083C299,-161.006 299,-150.861 299,-141.986"/>
<polygon fill="midnightblue" stroke="midnightblue" points="302.5,-141.751 299,-131.751 295.5,-141.751 302.5,-141.751"/>
</g>
<!-- Node13 -->
<g id="node13" class="node"><title>Node13</title>
<polygon fill="white" stroke="#bfbfbf" points="397.5,-56.5 397.5,-75.5 438.5,-75.5 438.5,-56.5 397.5,-56.5"/>
<text text-anchor="middle" x="418" y="-63.5" font-family="Helvetica,sans-Serif" font-size="10.00">ctime</text>
</g>
<!-- Node12&#45;&gt;Node13 -->
<g id="edge13" class="edge"><title>Node12&#45;&gt;Node13</title>
<path fill="none" stroke="midnightblue" d="M317.856,-112.444C337.266,-103.636 367.73,-89.8116 389.965,-79.722"/>
<polygon fill="midnightblue" stroke="midnightblue" points="391.572,-82.836 399.232,-75.5164 388.68,-76.4615 391.572,-82.836"/>
</g>
<!-- Node14 -->
<g id="node14" class="node"><title>Node14</title>
<g id="a_node14"><a xlink:href="CurrentAndLastValues_8h.html" target="_top" xlink:title="CurrentAndLastValues.h">
<polygon fill="white" stroke="black" points="421.5,-0.5 421.5,-19.5 544.5,-19.5 544.5,-0.5 421.5,-0.5"/>
<text text-anchor="middle" x="483" y="-7.5" font-family="Helvetica,sans-Serif" font-size="10.00">CurrentAndLastValues.h</text>
</a>
</g>
</g>
<!-- Node12&#45;&gt;Node14 -->
<g id="edge14" class="edge"><title>Node12&#45;&gt;Node14</title>
<path fill="none" stroke="midnightblue" d="M309.508,-112.309C325.714,-99.1447 358.071,-73.8017 388,-56 408.837,-43.6065 433.63,-31.9579 452.662,-23.6185"/>
<polygon fill="midnightblue" stroke="midnightblue" points="454.243,-26.7482 462.038,-19.5727 451.47,-20.321 454.243,-26.7482"/>
</g>
<!-- Node15 -->
<g id="node15" class="node"><title>Node15</title>
<g id="a_node15"><a xlink:href="SimpleRateCalculation_8h.html" target="_top" xlink:title="SimpleRateCalculation.h">
<polygon fill="white" stroke="black" points="215.5,-56.5 215.5,-75.5 340.5,-75.5 340.5,-56.5 215.5,-56.5"/>
<text text-anchor="middle" x="278" y="-63.5" font-family="Helvetica,sans-Serif" font-size="10.00">SimpleRateCalculation.h</text>
</a>
</g>
</g>
<!-- Node12&#45;&gt;Node15 -->
<g id="edge15" class="edge"><title>Node12&#45;&gt;Node15</title>
<path fill="none" stroke="midnightblue" d="M295.532,-112.083C292.688,-104.77 288.571,-94.1814 285.04,-85.1034"/>
<polygon fill="midnightblue" stroke="midnightblue" points="288.29,-83.8025 281.403,-75.7511 281.766,-86.3397 288.29,-83.8025"/>
</g>
<!-- Node15&#45;&gt;Node14 -->
<g id="edge16" class="edge"><title>Node15&#45;&gt;Node14</title>
<path fill="none" stroke="midnightblue" d="M310.483,-56.4435C345.72,-47.1616 402.104,-32.3093 440.759,-22.127"/>
<polygon fill="midnightblue" stroke="midnightblue" points="441.891,-25.4483 450.669,-19.5164 440.107,-18.6792 441.891,-25.4483"/>
</g>
<!-- Node16 -->
<g id="node16" class="node"><title>Node16</title>
<polygon fill="white" stroke="#bfbfbf" points="325,-0.5 325,-19.5 369,-19.5 369,-0.5 325,-0.5"/>
<text text-anchor="middle" x="347" y="-7.5" font-family="Helvetica,sans-Serif" font-size="10.00">time.h</text>
</g>
<!-- Node15&#45;&gt;Node16 -->
<g id="edge17" class="edge"><title>Node15&#45;&gt;Node16</title>
<path fill="none" stroke="midnightblue" d="M289.086,-56.324C299.486,-48.1849 315.261,-35.8395 327.722,-26.0874"/>
<polygon fill="midnightblue" stroke="midnightblue" points="329.994,-28.7533 335.712,-19.8339 325.68,-23.2407 329.994,-28.7533"/>
</g>
<!-- Node17&#45;&gt;Node3 -->
<g id="edge22" class="edge"><title>Node17&#45;&gt;Node3</title>
<path fill="none" stroke="midnightblue" d="M223.038,-168.657C277.323,-161.328 355.881,-149.43 433.488,-131.843"/>
<polygon fill="midnightblue" stroke="midnightblue" points="434.477,-135.207 443.438,-129.555 432.908,-128.385 434.477,-135.207"/>
</g>
<!-- Node17&#45;&gt;Node10 -->
<g id="edge21" class="edge"><title>Node17&#45;&gt;Node10</title>
<path fill="none" stroke="midnightblue" d="M161.945,-168.083C166.977,-160.534 174.337,-149.495 180.513,-140.23"/>
<polygon fill="midnightblue" stroke="midnightblue" points="183.531,-142.013 186.166,-131.751 177.707,-138.13 183.531,-142.013"/>
</g>
<!-- Node18 -->
<g id="node18" class="node"><title>Node18</title>
<polygon fill="white" stroke="#bfbfbf" points="0,-112.5 0,-131.5 62,-131.5 62,-112.5 0,-112.5"/>
<text text-anchor="middle" x="31" y="-119.5" font-family="Helvetica,sans-Serif" font-size="10.00">arpa/inet.h</text>
</g>
<!-- Node17&#45;&gt;Node18 -->
<g id="edge19" class="edge"><title>Node17&#45;&gt;Node18</title>
<path fill="none" stroke="midnightblue" d="M136.193,-168.444C115.713,-159.596 83.5173,-145.687 60.1353,-135.586"/>
<polygon fill="midnightblue" stroke="midnightblue" points="61.282,-132.269 50.714,-131.516 58.5059,-138.695 61.282,-132.269"/>
</g>
<!-- Node19 -->
<g id="node19" class="node"><title>Node19</title>
<polygon fill="white" stroke="#bfbfbf" points="80.5,-112.5 80.5,-131.5 145.5,-131.5 145.5,-112.5 80.5,-112.5"/>
<text text-anchor="middle" x="113" y="-119.5" font-family="Helvetica,sans-Serif" font-size="10.00">netinet/ip.h</text>
</g>
<!-- Node17&#45;&gt;Node19 -->
<g id="edge20" class="edge"><title>Node17&#45;&gt;Node19</title>
<path fill="none" stroke="midnightblue" d="M148.899,-168.083C142.763,-160.377 133.73,-149.033 126.261,-139.653"/>
<polygon fill="midnightblue" stroke="midnightblue" points="128.936,-137.394 119.968,-131.751 123.46,-141.754 128.936,-137.394"/>
</g>
<!-- Node20&#45;&gt;Node3 -->
<g id="edge24" class="edge"><title>Node20&#45;&gt;Node3</title>
<path fill="none" stroke="midnightblue" d="M675.622,-169.386C631.311,-161.777 562.485,-149.091 494.534,-132.189"/>
<polygon fill="midnightblue" stroke="midnightblue" points="495.07,-128.715 484.518,-129.665 493.36,-135.503 495.07,-128.715"/>
</g>
<!-- Node21 -->
<g id="node21" class="node"><title>Node21</title>
<polygon fill="white" stroke="#bfbfbf" points="697,-112.5 697,-131.5 747,-131.5 747,-112.5 697,-112.5"/>
<text text-anchor="middle" x="722" y="-119.5" font-family="Helvetica,sans-Serif" font-size="10.00">fstream</text>
</g>
<!-- Node20&#45;&gt;Node21 -->
<g id="edge25" class="edge"><title>Node20&#45;&gt;Node21</title>
<path fill="none" stroke="midnightblue" d="M722,-168.083C722,-161.006 722,-150.861 722,-141.986"/>
<polygon fill="midnightblue" stroke="midnightblue" points="725.5,-141.751 722,-131.751 718.5,-141.751 725.5,-141.751"/>
</g>
<!-- Node22&#45;&gt;Node3 -->
<g id="edge28" class="edge"><title>Node22&#45;&gt;Node3</title>
<path fill="none" stroke="midnightblue" d="M456.486,-168.083C457.679,-160.927 459.394,-150.635 460.885,-141.691"/>
<polygon fill="midnightblue" stroke="midnightblue" points="464.35,-142.19 462.541,-131.751 457.445,-141.04 464.35,-142.19"/>
</g>
<!-- Node22&#45;&gt;Node11 -->
<g id="edge27" class="edge"><title>Node22&#45;&gt;Node11</title>
<path fill="none" stroke="midnightblue" d="M446.083,-168.083C438.22,-160.22 426.569,-148.569 417.081,-139.081"/>
<polygon fill="midnightblue" stroke="midnightblue" points="419.297,-136.347 409.751,-131.751 414.347,-141.297 419.297,-136.347"/>
</g>
<!-- Node23 -->
<g id="node23" class="node"><title>Node23</title>
<g id="a_node23"><a xlink:href="ExponentialSmoothingCalculator_8h.html" target="_top" xlink:title="ExponentialSmoothingCalculator.h">
<polygon fill="white" stroke="black" points="502.5,-112.5 502.5,-131.5 669.5,-131.5 669.5,-112.5 502.5,-112.5"/>
<text text-anchor="middle" x="586" y="-119.5" font-family="Helvetica,sans-Serif" font-size="10.00">ExponentialSmoothingCalculator.h</text>
</a>
</g>
</g>
<!-- Node22&#45;&gt;Node23 -->
<g id="edge29" class="edge"><title>Node22&#45;&gt;Node23</title>
<path fill="none" stroke="midnightblue" d="M475.757,-168.444C497.316,-159.557 531.263,-145.563 555.794,-135.451"/>
<polygon fill="midnightblue" stroke="midnightblue" points="557.428,-138.563 565.34,-131.516 554.761,-132.092 557.428,-138.563"/>
</g>
<!-- Node23&#45;&gt;Node13 -->
<g id="edge30" class="edge"><title>Node23&#45;&gt;Node13</title>
<path fill="none" stroke="midnightblue" d="M559.38,-112.444C529.158,-102.729 479.953,-86.9134 448.288,-76.7354"/>
<polygon fill="midnightblue" stroke="midnightblue" points="449.261,-73.3719 438.67,-73.6439 447.119,-80.0361 449.261,-73.3719"/>
</g>
<!-- Node23&#45;&gt;Node14 -->
<g id="edge31" class="edge"><title>Node23&#45;&gt;Node14</title>
<path fill="none" stroke="midnightblue" d="M589.24,-112.146C593.529,-98.7704 599.311,-73.1542 588,-56 577.36,-39.8645 559.605,-29.4927 541.694,-22.8346"/>
<polygon fill="midnightblue" stroke="midnightblue" points="542.365,-19.3681 531.771,-19.5047 540.138,-26.0044 542.365,-19.3681"/>
</g>
<!-- Node24 -->
<g id="node24" class="node"><title>Node24</title>
<g id="a_node24"><a xlink:href="ExponentialSmoothing_8h.html" target="_top" xlink:title="ExponentialSmoothing.h">
<polygon fill="white" stroke="black" points="457,-56.5 457,-75.5 579,-75.5 579,-56.5 457,-56.5"/>
<text text-anchor="middle" x="518" y="-63.5" font-family="Helvetica,sans-Serif" font-size="10.00">ExponentialSmoothing.h</text>
</a>
</g>
</g>
<!-- Node23&#45;&gt;Node24 -->
<g id="edge32" class="edge"><title>Node23&#45;&gt;Node24</title>
<path fill="none" stroke="midnightblue" d="M575.075,-112.324C564.825,-104.185 549.279,-91.8395 536.999,-82.0874"/>
<polygon fill="midnightblue" stroke="midnightblue" points="539.132,-79.3119 529.124,-75.8339 534.779,-84.7937 539.132,-79.3119"/>
</g>
<!-- Node24&#45;&gt;Node14 -->
<g id="edge34" class="edge"><title>Node24&#45;&gt;Node14</title>
<path fill="none" stroke="midnightblue" d="M512.22,-56.083C507.328,-48.5341 500.173,-37.4948 494.167,-28.2298"/>
<polygon fill="midnightblue" stroke="midnightblue" points="497.048,-26.239 488.672,-19.7511 491.174,-30.0463 497.048,-26.239"/>
</g>
<!-- Node24&#45;&gt;Node16 -->
<g id="edge33" class="edge"><title>Node24&#45;&gt;Node16</title>
<path fill="none" stroke="midnightblue" d="M490.905,-56.4435C460.482,-46.8366 411.164,-31.2622 378.904,-21.0749"/>
<polygon fill="midnightblue" stroke="midnightblue" points="379.665,-17.6448 369.075,-17.971 377.557,-24.3199 379.665,-17.6448"/>
</g>
</g>
</svg>
