<?xml version="1.0" encoding="UTF-8" standalone="no"?>
<!DOCTYPE svg PUBLIC "-//W3C//DTD SVG 1.1//EN"
 "http://www.w3.org/Graphics/SVG/1.1/DTD/svg11.dtd">
<!-- Generated by graphviz version 2.38.0 (20140413.2041)
 -->
<!-- Title: main.cpp Pages: 1 -->
<svg width="529pt" height="140pt"
 viewBox="0.00 0.00 528.50 140.00" xmlns="http://www.w3.org/2000/svg" xmlns:xlink="http://www.w3.org/1999/xlink">
<g id="graph0" class="graph" transform="scale(1 1) rotate(0) translate(4 136)">
<title>main.cpp</title>
<polygon fill="white" stroke="none" points="-4,4 -4,-136 524.5,-136 524.5,4 -4,4"/>
<!-- Node1 -->
<g id="node1" class="node"><title>Node1</title>
<polygon fill="#bfbfbf" stroke="black" points="191,-112.5 191,-131.5 247,-131.5 247,-112.5 191,-112.5"/>
<text text-anchor="middle" x="219" y="-119.5" font-family="Helvetica,sans-Serif" font-size="10.00">main.cpp</text>
</g>
<!-- Node2 -->
<g id="node2" class="node"><title>Node2</title>
<polygon fill="white" stroke="#bfbfbf" points="0,-56.5 0,-75.5 50,-75.5 50,-56.5 0,-56.5"/>
<text text-anchor="middle" x="25" y="-63.5" font-family="Helvetica,sans-Serif" font-size="10.00">signal.h</text>
</g>
<!-- Node1&#45;&gt;Node2 -->
<g id="edge1" class="edge"><title>Node1&#45;&gt;Node2</title>
<path fill="none" stroke="midnightblue" d="M190.791,-113.148C156.21,-103.522 97.5972,-87.2075 60.1273,-76.7777"/>
<polygon fill="midnightblue" stroke="midnightblue" points="60.7294,-73.3123 50.157,-74.0025 58.8522,-80.0559 60.7294,-73.3123"/>
</g>
<!-- Node3 -->
<g id="node3" class="node"><title>Node3</title>
<polygon fill="white" stroke="#bfbfbf" points="68,-56.5 68,-75.5 114,-75.5 114,-56.5 68,-56.5"/>
<text text-anchor="middle" x="91" y="-63.5" font-family="Helvetica,sans-Serif" font-size="10.00">stdio.h</text>
</g>
<!-- Node1&#45;&gt;Node3 -->
<g id="edge2" class="edge"><title>Node1&#45;&gt;Node3</title>
<path fill="none" stroke="midnightblue" d="M198.718,-112.444C177.653,-103.557 144.483,-89.5632 120.514,-79.4514"/>
<polygon fill="midnightblue" stroke="midnightblue" points="121.761,-76.1787 111.187,-75.5164 119.04,-82.6283 121.761,-76.1787"/>
</g>
<!-- Node4 -->
<g id="node4" class="node"><title>Node4</title>
<polygon fill="white" stroke="#bfbfbf" points="132,-56.5 132,-75.5 180,-75.5 180,-56.5 132,-56.5"/>
<text text-anchor="middle" x="156" y="-63.5" font-family="Helvetica,sans-Serif" font-size="10.00">stdlib.h</text>
</g>
<!-- Node1&#45;&gt;Node4 -->
<g id="edge3" class="edge"><title>Node1&#45;&gt;Node4</title>
<path fill="none" stroke="midnightblue" d="M208.878,-112.324C199.474,-104.263 185.256,-92.0765 173.931,-82.3695"/>
<polygon fill="midnightblue" stroke="midnightblue" points="176.177,-79.6844 166.306,-75.8339 171.621,-84.9993 176.177,-79.6844"/>
</g>
<!-- Node5 -->
<g id="node5" class="node"><title>Node5</title>
<polygon fill="white" stroke="#bfbfbf" points="198.5,-56.5 198.5,-75.5 239.5,-75.5 239.5,-56.5 198.5,-56.5"/>
<text text-anchor="middle" x="219" y="-63.5" font-family="Helvetica,sans-Serif" font-size="10.00">string</text>
</g>
<!-- Node1&#45;&gt;Node5 -->
<g id="edge4" class="edge"><title>Node1&#45;&gt;Node5</title>
<path fill="none" stroke="midnightblue" d="M219,-112.083C219,-105.006 219,-94.8611 219,-85.9865"/>
<polygon fill="midnightblue" stroke="midnightblue" points="222.5,-85.751 219,-75.7511 215.5,-85.7511 222.5,-85.751"/>
</g>
<!-- Node6 -->
<g id="node6" class="node"><title>Node6</title>
<polygon fill="white" stroke="#bfbfbf" points="257.5,-56.5 257.5,-75.5 308.5,-75.5 308.5,-56.5 257.5,-56.5"/>
<text text-anchor="middle" x="283" y="-63.5" font-family="Helvetica,sans-Serif" font-size="10.00">unistd.h</text>
</g>
<!-- Node1&#45;&gt;Node6 -->
<g id="edge5" class="edge"><title>Node1&#45;&gt;Node6</title>
<path fill="none" stroke="midnightblue" d="M229.283,-112.324C238.836,-104.263 253.28,-92.0765 264.784,-82.3695"/>
<polygon fill="midnightblue" stroke="midnightblue" points="267.144,-84.9577 272.53,-75.8339 262.63,-79.6076 267.144,-84.9577"/>
</g>
<!-- Node7 -->
<g id="node7" class="node"><title>Node7</title>
<g id="a_node7"><a xlink:href="MainObject_8h.html" target="_top" xlink:title="MainObject.h">
<polygon fill="white" stroke="black" points="327,-56.5 327,-75.5 401,-75.5 401,-56.5 327,-56.5"/>
<text text-anchor="middle" x="364" y="-63.5" font-family="Helvetica,sans-Serif" font-size="10.00">MainObject.h</text>
</a>
</g>
</g>
<!-- Node1&#45;&gt;Node7 -->
<g id="edge6" class="edge"><title>Node1&#45;&gt;Node7</title>
<path fill="none" stroke="midnightblue" d="M241.976,-112.444C266.157,-103.438 304.418,-89.1891 331.646,-79.049"/>
<polygon fill="midnightblue" stroke="midnightblue" points="332.982,-82.2864 341.132,-75.5164 330.539,-75.7265 332.982,-82.2864"/>
</g>
<!-- Node9 -->
<g id="node9" class="node"><title>Node9</title>
<g id="a_node9"><a xlink:href="BandwidthValues_8h.html" target="_top" xlink:title="BandwidthValues.h">
<polygon fill="white" stroke="black" points="419.5,-56.5 419.5,-75.5 520.5,-75.5 520.5,-56.5 419.5,-56.5"/>
<text text-anchor="middle" x="470" y="-63.5" font-family="Helvetica,sans-Serif" font-size="10.00">BandwidthValues.h</text>
</a>
</g>
</g>
<!-- Node1&#45;&gt;Node9 -->
<g id="edge8" class="edge"><title>Node1&#45;&gt;Node9</title>
<path fill="none" stroke="midnightblue" d="M247.305,-114.91C289.253,-105.886 368.53,-88.8301 420.297,-77.6931"/>
<polygon fill="midnightblue" stroke="midnightblue" points="421.224,-81.0738 430.264,-75.5488 419.752,-74.2304 421.224,-81.0738"/>
</g>
<!-- Node8 -->
<g id="node8" class="node"><title>Node8</title>
<polygon fill="white" stroke="#bfbfbf" points="339.5,-0.5 339.5,-19.5 388.5,-19.5 388.5,-0.5 339.5,-0.5"/>
<text text-anchor="middle" x="364" y="-7.5" font-family="Helvetica,sans-Serif" font-size="10.00">stdint.h</text>
</g>
<!-- Node7&#45;&gt;Node8 -->
<g id="edge7" class="edge"><title>Node7&#45;&gt;Node8</title>
<path fill="none" stroke="midnightblue" d="M364,-56.083C364,-49.0059 364,-38.8611 364,-29.9865"/>
<polygon fill="midnightblue" stroke="midnightblue" points="367.5,-29.751 364,-19.7511 360.5,-29.7511 367.5,-29.751"/>
</g>
<!-- Node10 -->
<g id="node10" class="node"><title>Node10</title>
<polygon fill="white" stroke="#bfbfbf" points="447,-0.5 447,-19.5 493,-19.5 493,-0.5 447,-0.5"/>
<text text-anchor="middle" x="470" y="-7.5" font-family="Helvetica,sans-Serif" font-size="10.00">atomic</text>
</g>
<!-- Node9&#45;&gt;Node10 -->
<g id="edge9" class="edge"><title>Node9&#45;&gt;Node10</title>
<path fill="none" stroke="midnightblue" d="M470,-56.083C470,-49.0059 470,-38.8611 470,-29.9865"/>
<polygon fill="midnightblue" stroke="midnightblue" points="473.5,-29.751 470,-19.7511 466.5,-29.7511 473.5,-29.751"/>
</g>
</g>
</svg>
