<?xml version="1.0" encoding="UTF-8" standalone="no"?>
<!DOCTYPE svg PUBLIC "-//W3C//DTD SVG 1.1//EN"
 "http://www.w3.org/Graphics/SVG/1.1/DTD/svg11.dtd">
<!-- Generated by graphviz version 2.38.0 (20140413.2041)
 -->
<!-- Title: main.cpp Pages: 1 -->
<svg width="600pt" height="140pt"
 viewBox="0.00 0.00 599.50 140.00" xmlns="http://www.w3.org/2000/svg" xmlns:xlink="http://www.w3.org/1999/xlink">
<g id="graph0" class="graph" transform="scale(1 1) rotate(0) translate(4 136)">
<title>main.cpp</title>
<polygon fill="white" stroke="none" points="-4,4 -4,-136 595.5,-136 595.5,4 -4,4"/>
<!-- Node1 -->
<g id="node1" class="node"><title>Node1</title>
<polygon fill="#bfbfbf" stroke="black" points="197,-112.5 197,-131.5 253,-131.5 253,-112.5 197,-112.5"/>
<text text-anchor="middle" x="225" y="-119.5" font-family="Helvetica,sans-Serif" font-size="10.00">main.cpp</text>
</g>
<!-- Node2 -->
<g id="node2" class="node"><title>Node2</title>
<polygon fill="white" stroke="#bfbfbf" points="0,-56.5 0,-75.5 50,-75.5 50,-56.5 0,-56.5"/>
<text text-anchor="middle" x="25" y="-63.5" font-family="Helvetica,sans-Serif" font-size="10.00">signal.h</text>
</g>
<!-- Node1&#45;&gt;Node2 -->
<g id="edge1" class="edge"><title>Node1&#45;&gt;Node2</title>
<path fill="none" stroke="midnightblue" d="M196.769,-113.378C160.889,-103.69 98.9554,-86.9679 60.0787,-76.4712"/>
<polygon fill="midnightblue" stroke="midnightblue" points="60.8105,-73.0436 50.2438,-73.8158 58.9858,-79.8016 60.8105,-73.0436"/>
</g>
<!-- Node3 -->
<g id="node3" class="node"><title>Node3</title>
<polygon fill="white" stroke="#bfbfbf" points="186,-0.5 186,-19.5 232,-19.5 232,-0.5 186,-0.5"/>
<text text-anchor="middle" x="209" y="-7.5" font-family="Helvetica,sans-Serif" font-size="10.00">stdio.h</text>
</g>
<!-- Node1&#45;&gt;Node3 -->
<g id="edge2" class="edge"><title>Node1&#45;&gt;Node3</title>
<path fill="none" stroke="midnightblue" d="M196.769,-120.031C166.43,-117.299 119.536,-107.811 97,-76 74.1766,-43.7834 135.375,-25.1791 176.057,-16.6721"/>
<polygon fill="midnightblue" stroke="midnightblue" points="176.764,-20.1001 185.894,-14.7248 175.404,-13.2334 176.764,-20.1001"/>
</g>
<!-- Node4 -->
<g id="node4" class="node"><title>Node4</title>
<polygon fill="white" stroke="#bfbfbf" points="106,-56.5 106,-75.5 154,-75.5 154,-56.5 106,-56.5"/>
<text text-anchor="middle" x="130" y="-63.5" font-family="Helvetica,sans-Serif" font-size="10.00">stdlib.h</text>
</g>
<!-- Node1&#45;&gt;Node4 -->
<g id="edge3" class="edge"><title>Node1&#45;&gt;Node4</title>
<path fill="none" stroke="midnightblue" d="M209.737,-112.324C194.779,-103.822 171.745,-90.7288 154.273,-80.7975"/>
<polygon fill="midnightblue" stroke="midnightblue" points="155.649,-77.5534 145.226,-75.6545 152.19,-83.639 155.649,-77.5534"/>
</g>
<!-- Node5 -->
<g id="node5" class="node"><title>Node5</title>
<polygon fill="white" stroke="#bfbfbf" points="172.5,-56.5 172.5,-75.5 213.5,-75.5 213.5,-56.5 172.5,-56.5"/>
<text text-anchor="middle" x="193" y="-63.5" font-family="Helvetica,sans-Serif" font-size="10.00">string</text>
</g>
<!-- Node1&#45;&gt;Node5 -->
<g id="edge4" class="edge"><title>Node1&#45;&gt;Node5</title>
<path fill="none" stroke="midnightblue" d="M219.716,-112.083C215.289,-104.613 208.837,-93.7244 203.382,-84.5199"/>
<polygon fill="midnightblue" stroke="midnightblue" points="206.295,-82.5697 198.186,-75.7511 200.273,-86.1383 206.295,-82.5697"/>
</g>
<!-- Node6 -->
<g id="node6" class="node"><title>Node6</title>
<polygon fill="white" stroke="#bfbfbf" points="231.5,-56.5 231.5,-75.5 282.5,-75.5 282.5,-56.5 231.5,-56.5"/>
<text text-anchor="middle" x="257" y="-63.5" font-family="Helvetica,sans-Serif" font-size="10.00">unistd.h</text>
</g>
<!-- Node1&#45;&gt;Node6 -->
<g id="edge5" class="edge"><title>Node1&#45;&gt;Node6</title>
<path fill="none" stroke="midnightblue" d="M230.284,-112.083C234.711,-104.613 241.163,-93.7244 246.618,-84.5199"/>
<polygon fill="midnightblue" stroke="midnightblue" points="249.727,-86.1383 251.814,-75.7511 243.705,-82.5697 249.727,-86.1383"/>
</g>
<!-- Node7 -->
<g id="node7" class="node"><title>Node7</title>
<g id="a_node7"><a xlink:href="PrintHandler_8h.html" target="_top" xlink:title="PrintHandler.h">
<polygon fill="white" stroke="black" points="300.5,-56.5 300.5,-75.5 379.5,-75.5 379.5,-56.5 300.5,-56.5"/>
<text text-anchor="middle" x="340" y="-63.5" font-family="Helvetica,sans-Serif" font-size="10.00">PrintHandler.h</text>
</a>
</g>
</g>
<!-- Node1&#45;&gt;Node7 -->
<g id="edge6" class="edge"><title>Node1&#45;&gt;Node7</title>
<path fill="none" stroke="midnightblue" d="M243.222,-112.444C261.896,-103.675 291.156,-89.9355 312.617,-79.8579"/>
<polygon fill="midnightblue" stroke="midnightblue" points="314.299,-82.935 321.863,-75.5164 311.324,-76.5988 314.299,-82.935"/>
</g>
<!-- Node8 -->
<g id="node8" class="node"><title>Node8</title>
<g id="a_node8"><a xlink:href="WCEnabler_2MainObject_8h.html" target="_top" xlink:title="MainObject.h">
<polygon fill="white" stroke="black" points="398,-56.5 398,-75.5 472,-75.5 472,-56.5 398,-56.5"/>
<text text-anchor="middle" x="435" y="-63.5" font-family="Helvetica,sans-Serif" font-size="10.00">MainObject.h</text>
</a>
</g>
</g>
<!-- Node1&#45;&gt;Node8 -->
<g id="edge8" class="edge"><title>Node1&#45;&gt;Node8</title>
<path fill="none" stroke="midnightblue" d="M253.322,-113.717C288.901,-104.568 350.306,-88.7784 391.77,-78.1162"/>
<polygon fill="midnightblue" stroke="midnightblue" points="392.781,-81.4702 401.594,-75.59 391.038,-74.6908 392.781,-81.4702"/>
</g>
<!-- Node10 -->
<g id="node10" class="node"><title>Node10</title>
<g id="a_node10"><a xlink:href="BandwidthValues_8h.html" target="_top" xlink:title="BandwidthValues.h">
<polygon fill="white" stroke="black" points="490.5,-56.5 490.5,-75.5 591.5,-75.5 591.5,-56.5 490.5,-56.5"/>
<text text-anchor="middle" x="541" y="-63.5" font-family="Helvetica,sans-Serif" font-size="10.00">BandwidthValues.h</text>
</a>
</g>
</g>
<!-- Node1&#45;&gt;Node10 -->
<g id="edge10" class="edge"><title>Node1&#45;&gt;Node10</title>
<path fill="none" stroke="midnightblue" d="M253.043,-116.208C303.975,-107.504 412.715,-88.9221 481.031,-77.2479"/>
<polygon fill="midnightblue" stroke="midnightblue" points="481.951,-80.6414 491.219,-75.5069 480.772,-73.7414 481.951,-80.6414"/>
</g>
<!-- Node7&#45;&gt;Node3 -->
<g id="edge7" class="edge"><title>Node7&#45;&gt;Node3</title>
<path fill="none" stroke="midnightblue" d="M319.243,-56.4435C297.684,-47.5566 263.737,-33.5632 239.206,-23.4514"/>
<polygon fill="midnightblue" stroke="midnightblue" points="240.239,-20.0917 229.66,-19.5164 237.572,-26.5634 240.239,-20.0917"/>
</g>
<!-- Node9 -->
<g id="node9" class="node"><title>Node9</title>
<polygon fill="white" stroke="#bfbfbf" points="410.5,-0.5 410.5,-19.5 459.5,-19.5 459.5,-0.5 410.5,-0.5"/>
<text text-anchor="middle" x="435" y="-7.5" font-family="Helvetica,sans-Serif" font-size="10.00">stdint.h</text>
</g>
<!-- Node8&#45;&gt;Node9 -->
<g id="edge9" class="edge"><title>Node8&#45;&gt;Node9</title>
<path fill="none" stroke="midnightblue" d="M435,-56.083C435,-49.0059 435,-38.8611 435,-29.9865"/>
<polygon fill="midnightblue" stroke="midnightblue" points="438.5,-29.751 435,-19.7511 431.5,-29.7511 438.5,-29.751"/>
</g>
<!-- Node11 -->
<g id="node11" class="node"><title>Node11</title>
<polygon fill="white" stroke="#bfbfbf" points="518,-0.5 518,-19.5 564,-19.5 564,-0.5 518,-0.5"/>
<text text-anchor="middle" x="541" y="-7.5" font-family="Helvetica,sans-Serif" font-size="10.00">atomic</text>
</g>
<!-- Node10&#45;&gt;Node11 -->
<g id="edge11" class="edge"><title>Node10&#45;&gt;Node11</title>
<path fill="none" stroke="midnightblue" d="M541,-56.083C541,-49.0059 541,-38.8611 541,-29.9865"/>
<polygon fill="midnightblue" stroke="midnightblue" points="544.5,-29.751 541,-19.7511 537.5,-29.7511 544.5,-29.751"/>
</g>
</g>
</svg>
