<?xml version="1.0" encoding="UTF-8" standalone="no"?>
<!DOCTYPE svg PUBLIC "-//W3C//DTD SVG 1.1//EN"
 "http://www.w3.org/Graphics/SVG/1.1/DTD/svg11.dtd">
<!-- Generated by graphviz version 2.38.0 (20140413.2041)
 -->
<!-- Title: main.cpp Pages: 1 -->
<svg width="469pt" height="140pt"
 viewBox="0.00 0.00 469.00 140.00" xmlns="http://www.w3.org/2000/svg" xmlns:xlink="http://www.w3.org/1999/xlink">
<g id="graph0" class="graph" transform="scale(1 1) rotate(0) translate(4 136)">
<title>main.cpp</title>
<polygon fill="white" stroke="none" points="-4,4 -4,-136 465,-136 465,4 -4,4"/>
<!-- Node1 -->
<g id="node1" class="node"><title>Node1</title>
<polygon fill="#bfbfbf" stroke="black" points="162,-112.5 162,-131.5 218,-131.5 218,-112.5 162,-112.5"/>
<text text-anchor="middle" x="190" y="-119.5" font-family="Helvetica,sans-Serif" font-size="10.00">main.cpp</text>
</g>
<!-- Node2 -->
<g id="node2" class="node"><title>Node2</title>
<polygon fill="white" stroke="#bfbfbf" points="0,-56.5 0,-75.5 50,-75.5 50,-56.5 0,-56.5"/>
<text text-anchor="middle" x="25" y="-63.5" font-family="Helvetica,sans-Serif" font-size="10.00">signal.h</text>
</g>
<!-- Node1&#45;&gt;Node2 -->
<g id="edge1" class="edge"><title>Node1&#45;&gt;Node2</title>
<path fill="none" stroke="midnightblue" d="M163.855,-112.444C135.731,-103.239 90.8681,-88.5568 59.7812,-78.3829"/>
<polygon fill="midnightblue" stroke="midnightblue" points="60.8034,-75.0349 50.2108,-75.2508 58.6261,-81.6876 60.8034,-75.0349"/>
</g>
<!-- Node3 -->
<g id="node3" class="node"><title>Node3</title>
<polygon fill="white" stroke="#bfbfbf" points="68,-56.5 68,-75.5 114,-75.5 114,-56.5 68,-56.5"/>
<text text-anchor="middle" x="91" y="-63.5" font-family="Helvetica,sans-Serif" font-size="10.00">stdio.h</text>
</g>
<!-- Node1&#45;&gt;Node3 -->
<g id="edge2" class="edge"><title>Node1&#45;&gt;Node3</title>
<path fill="none" stroke="midnightblue" d="M174.094,-112.324C158.362,-103.743 134.058,-90.486 115.791,-80.5224"/>
<polygon fill="midnightblue" stroke="midnightblue" points="117.322,-77.3704 106.867,-75.6545 113.97,-83.5157 117.322,-77.3704"/>
</g>
<!-- Node4 -->
<g id="node4" class="node"><title>Node4</title>
<polygon fill="white" stroke="#bfbfbf" points="132,-56.5 132,-75.5 180,-75.5 180,-56.5 132,-56.5"/>
<text text-anchor="middle" x="156" y="-63.5" font-family="Helvetica,sans-Serif" font-size="10.00">stdlib.h</text>
</g>
<!-- Node1&#45;&gt;Node4 -->
<g id="edge3" class="edge"><title>Node1&#45;&gt;Node4</title>
<path fill="none" stroke="midnightblue" d="M184.386,-112.083C179.633,-104.534 172.682,-93.4948 166.848,-84.2298"/>
<polygon fill="midnightblue" stroke="midnightblue" points="169.8,-82.3486 161.51,-75.7511 163.876,-86.0783 169.8,-82.3486"/>
</g>
<!-- Node5 -->
<g id="node5" class="node"><title>Node5</title>
<polygon fill="white" stroke="#bfbfbf" points="198.5,-56.5 198.5,-75.5 249.5,-75.5 249.5,-56.5 198.5,-56.5"/>
<text text-anchor="middle" x="224" y="-63.5" font-family="Helvetica,sans-Serif" font-size="10.00">unistd.h</text>
</g>
<!-- Node1&#45;&gt;Node5 -->
<g id="edge4" class="edge"><title>Node1&#45;&gt;Node5</title>
<path fill="none" stroke="midnightblue" d="M195.614,-112.083C200.367,-104.534 207.318,-93.4948 213.152,-84.2298"/>
<polygon fill="midnightblue" stroke="midnightblue" points="216.124,-86.0783 218.49,-75.7511 210.2,-82.3486 216.124,-86.0783"/>
</g>
<!-- Node6 -->
<g id="node6" class="node"><title>Node6</title>
<g id="a_node6"><a xlink:href="MainObject_8h.html" target="_top" xlink:title="MainObject.h">
<polygon fill="white" stroke="black" points="387,-56.5 387,-75.5 461,-75.5 461,-56.5 387,-56.5"/>
<text text-anchor="middle" x="424" y="-63.5" font-family="Helvetica,sans-Serif" font-size="10.00">MainObject.h</text>
</a>
</g>
</g>
<!-- Node1&#45;&gt;Node6 -->
<g id="edge5" class="edge"><title>Node1&#45;&gt;Node6</title>
<path fill="none" stroke="midnightblue" d="M218.226,-114.486C257.605,-105.399 329.532,-88.8003 377.054,-77.8337"/>
<polygon fill="midnightblue" stroke="midnightblue" points="377.847,-81.2428 386.804,-75.5837 376.273,-74.422 377.847,-81.2428"/>
</g>
<!-- Node9 -->
<g id="node9" class="node"><title>Node9</title>
<g id="a_node9"><a xlink:href="BandwidthValues_8h.html" target="_top" xlink:title="BandwidthValues.h">
<polygon fill="white" stroke="black" points="267.5,-56.5 267.5,-75.5 368.5,-75.5 368.5,-56.5 267.5,-56.5"/>
<text text-anchor="middle" x="318" y="-63.5" font-family="Helvetica,sans-Serif" font-size="10.00">BandwidthValues.h</text>
</a>
</g>
</g>
<!-- Node1&#45;&gt;Node9 -->
<g id="edge8" class="edge"><title>Node1&#45;&gt;Node9</title>
<path fill="none" stroke="midnightblue" d="M210.282,-112.444C231.347,-103.557 264.517,-89.5632 288.486,-79.4514"/>
<polygon fill="midnightblue" stroke="midnightblue" points="289.96,-82.6283 297.813,-75.5164 287.239,-76.1787 289.96,-82.6283"/>
</g>
<!-- Node7 -->
<g id="node7" class="node"><title>Node7</title>
<polygon fill="white" stroke="#bfbfbf" points="315.5,-0.5 315.5,-19.5 364.5,-19.5 364.5,-0.5 315.5,-0.5"/>
<text text-anchor="middle" x="340" y="-7.5" font-family="Helvetica,sans-Serif" font-size="10.00">stdint.h</text>
</g>
<!-- Node6&#45;&gt;Node7 -->
<g id="edge6" class="edge"><title>Node6&#45;&gt;Node7</title>
<path fill="none" stroke="midnightblue" d="M410.504,-56.324C397.4,-47.9002 377.288,-34.9709 361.893,-25.0741"/>
<polygon fill="midnightblue" stroke="midnightblue" points="363.767,-22.118 353.463,-19.6545 359.982,-28.0063 363.767,-22.118"/>
</g>
<!-- Node8 -->
<g id="node8" class="node"><title>Node8</title>
<polygon fill="white" stroke="#bfbfbf" points="403.5,-0.5 403.5,-19.5 444.5,-19.5 444.5,-0.5 403.5,-0.5"/>
<text text-anchor="middle" x="424" y="-7.5" font-family="Helvetica,sans-Serif" font-size="10.00">string</text>
</g>
<!-- Node6&#45;&gt;Node8 -->
<g id="edge7" class="edge"><title>Node6&#45;&gt;Node8</title>
<path fill="none" stroke="midnightblue" d="M424,-56.083C424,-49.0059 424,-38.8611 424,-29.9865"/>
<polygon fill="midnightblue" stroke="midnightblue" points="427.5,-29.751 424,-19.7511 420.5,-29.7511 427.5,-29.751"/>
</g>
<!-- Node9&#45;&gt;Node7 -->
<g id="edge9" class="edge"><title>Node9&#45;&gt;Node7</title>
<path fill="none" stroke="midnightblue" d="M321.633,-56.083C324.612,-48.77 328.926,-38.1814 332.625,-29.1034"/>
<polygon fill="midnightblue" stroke="midnightblue" points="335.903,-30.3326 336.435,-19.7511 329.42,-27.6914 335.903,-30.3326"/>
</g>
</g>
</svg>
