<?xml version="1.0" encoding="UTF-8" standalone="no"?>
<!DOCTYPE svg PUBLIC "-//W3C//DTD SVG 1.1//EN"
 "http://www.w3.org/Graphics/SVG/1.1/DTD/svg11.dtd">
<!-- Generated by graphviz version 2.38.0 (20140413.2041)
 -->
<!-- Title: WCEnablerObject.h Pages: 1 -->
<svg width="196pt" height="84pt"
 viewBox="0.00 0.00 196.00 84.00" xmlns="http://www.w3.org/2000/svg" xmlns:xlink="http://www.w3.org/1999/xlink">
<g id="graph0" class="graph" transform="scale(1 1) rotate(0) translate(4 80)">
<title>WCEnablerObject.h</title>
<polygon fill="white" stroke="none" points="-4,4 -4,-80 192,-80 192,4 -4,4"/>
<!-- Node1 -->
<g id="node1" class="node"><title>Node1</title>
<polygon fill="#bfbfbf" stroke="black" points="27,-56.5 27,-75.5 131,-75.5 131,-56.5 27,-56.5"/>
<text text-anchor="middle" x="79" y="-63.5" font-family="Helvetica,sans-Serif" font-size="10.00">WCEnablerObject.h</text>
</g>
<!-- Node2 -->
<g id="node2" class="node"><title>Node2</title>
<g id="a_node2"><a xlink:href="WCEnabler_2main_8cpp.html" target="_top" xlink:title="main.cpp">
<polygon fill="white" stroke="black" points="0,-0.5 0,-19.5 56,-19.5 56,-0.5 0,-0.5"/>
<text text-anchor="middle" x="28" y="-7.5" font-family="Helvetica,sans-Serif" font-size="10.00">main.cpp</text>
</a>
</g>
</g>
<!-- Node1&#45;&gt;Node2 -->
<g id="edge1" class="edge"><title>Node1&#45;&gt;Node2</title>
<path fill="none" stroke="midnightblue" d="M63.6221,-48.7175C54.6331,-39.1997 43.6408,-27.5608 36.2649,-19.7511"/>
<polygon fill="midnightblue" stroke="midnightblue" points="61.1676,-51.216 70.5784,-56.083 66.2567,-46.4096 61.1676,-51.216"/>
</g>
<!-- Node3 -->
<g id="node3" class="node"><title>Node3</title>
<g id="a_node3"><a xlink:href="WCEnablerObject_8cpp.html" target="_top" xlink:title="WCEnablerObject.cpp">
<polygon fill="white" stroke="black" points="74,-0.5 74,-19.5 188,-19.5 188,-0.5 74,-0.5"/>
<text text-anchor="middle" x="131" y="-7.5" font-family="Helvetica,sans-Serif" font-size="10.00">WCEnablerObject.cpp</text>
</a>
</g>
</g>
<!-- Node1&#45;&gt;Node3 -->
<g id="edge2" class="edge"><title>Node1&#45;&gt;Node3</title>
<path fill="none" stroke="midnightblue" d="M94.6794,-48.7175C103.845,-39.1997 115.053,-27.5608 122.573,-19.7511"/>
<polygon fill="midnightblue" stroke="midnightblue" points="92.0021,-46.452 87.5867,-56.083 97.0443,-51.3075 92.0021,-46.452"/>
</g>
</g>
</svg>
