<?xml version="1.0" encoding="UTF-8" standalone="no"?>
<!DOCTYPE svg PUBLIC "-//W3C//DTD SVG 1.1//EN"
 "http://www.w3.org/Graphics/SVG/1.1/DTD/svg11.dtd">
<!-- Generated by graphviz version 2.38.0 (20140413.2041)
 -->
<!-- Title: main.cpp Pages: 1 -->
<svg width="350pt" height="140pt"
 viewBox="0.00 0.00 350.00 140.00" xmlns="http://www.w3.org/2000/svg" xmlns:xlink="http://www.w3.org/1999/xlink">
<g id="graph0" class="graph" transform="scale(1 1) rotate(0) translate(4 136)">
<title>main.cpp</title>
<polygon fill="white" stroke="none" points="-4,4 -4,-136 346,-136 346,4 -4,4"/>
<!-- Node1 -->
<g id="node1" class="node"><title>Node1</title>
<polygon fill="#bfbfbf" stroke="black" points="128,-112.5 128,-131.5 184,-131.5 184,-112.5 128,-112.5"/>
<text text-anchor="middle" x="156" y="-119.5" font-family="Helvetica,sans-Serif" font-size="10.00">main.cpp</text>
</g>
<!-- Node2 -->
<g id="node2" class="node"><title>Node2</title>
<polygon fill="white" stroke="#bfbfbf" points="0,-56.5 0,-75.5 50,-75.5 50,-56.5 0,-56.5"/>
<text text-anchor="middle" x="25" y="-63.5" font-family="Helvetica,sans-Serif" font-size="10.00">signal.h</text>
</g>
<!-- Node1&#45;&gt;Node2 -->
<g id="edge1" class="edge"><title>Node1&#45;&gt;Node2</title>
<path fill="none" stroke="midnightblue" d="M135.243,-112.444C113.684,-103.557 79.7367,-89.5632 55.2062,-79.4514"/>
<polygon fill="midnightblue" stroke="midnightblue" points="56.2394,-76.0917 45.6602,-75.5164 53.5717,-82.5634 56.2394,-76.0917"/>
</g>
<!-- Node3 -->
<g id="node3" class="node"><title>Node3</title>
<polygon fill="white" stroke="#bfbfbf" points="68,-56.5 68,-75.5 114,-75.5 114,-56.5 68,-56.5"/>
<text text-anchor="middle" x="91" y="-63.5" font-family="Helvetica,sans-Serif" font-size="10.00">stdio.h</text>
</g>
<!-- Node1&#45;&gt;Node3 -->
<g id="edge2" class="edge"><title>Node1&#45;&gt;Node3</title>
<path fill="none" stroke="midnightblue" d="M145.557,-112.324C135.854,-104.263 121.185,-92.0765 109.5,-82.3695"/>
<polygon fill="midnightblue" stroke="midnightblue" points="111.562,-79.532 101.633,-75.8339 107.089,-84.9163 111.562,-79.532"/>
</g>
<!-- Node4 -->
<g id="node4" class="node"><title>Node4</title>
<polygon fill="white" stroke="#bfbfbf" points="132,-56.5 132,-75.5 180,-75.5 180,-56.5 132,-56.5"/>
<text text-anchor="middle" x="156" y="-63.5" font-family="Helvetica,sans-Serif" font-size="10.00">stdlib.h</text>
</g>
<!-- Node1&#45;&gt;Node4 -->
<g id="edge3" class="edge"><title>Node1&#45;&gt;Node4</title>
<path fill="none" stroke="midnightblue" d="M156,-112.083C156,-105.006 156,-94.8611 156,-85.9865"/>
<polygon fill="midnightblue" stroke="midnightblue" points="159.5,-85.751 156,-75.7511 152.5,-85.7511 159.5,-85.751"/>
</g>
<!-- Node5 -->
<g id="node5" class="node"><title>Node5</title>
<polygon fill="white" stroke="#bfbfbf" points="198.5,-56.5 198.5,-75.5 249.5,-75.5 249.5,-56.5 198.5,-56.5"/>
<text text-anchor="middle" x="224" y="-63.5" font-family="Helvetica,sans-Serif" font-size="10.00">unistd.h</text>
</g>
<!-- Node1&#45;&gt;Node5 -->
<g id="edge4" class="edge"><title>Node1&#45;&gt;Node5</title>
<path fill="none" stroke="midnightblue" d="M166.925,-112.324C177.175,-104.185 192.721,-91.8395 205.001,-82.0874"/>
<polygon fill="midnightblue" stroke="midnightblue" points="207.221,-84.7937 212.876,-75.8339 202.868,-79.3119 207.221,-84.7937"/>
</g>
<!-- Node6 -->
<g id="node6" class="node"><title>Node6</title>
<g id="a_node6"><a xlink:href="MainObject_8h.html" target="_top" xlink:title="MainObject.h">
<polygon fill="white" stroke="black" points="268,-56.5 268,-75.5 342,-75.5 342,-56.5 268,-56.5"/>
<text text-anchor="middle" x="305" y="-63.5" font-family="Helvetica,sans-Serif" font-size="10.00">MainObject.h</text>
</a>
</g>
</g>
<!-- Node1&#45;&gt;Node6 -->
<g id="edge5" class="edge"><title>Node1&#45;&gt;Node6</title>
<path fill="none" stroke="midnightblue" d="M179.609,-112.444C204.458,-103.438 243.774,-89.1891 271.754,-79.049"/>
<polygon fill="midnightblue" stroke="midnightblue" points="273.292,-82.2144 281.501,-75.5164 270.907,-75.6332 273.292,-82.2144"/>
</g>
<!-- Node7 -->
<g id="node7" class="node"><title>Node7</title>
<polygon fill="white" stroke="#bfbfbf" points="284.5,-0.5 284.5,-19.5 325.5,-19.5 325.5,-0.5 284.5,-0.5"/>
<text text-anchor="middle" x="305" y="-7.5" font-family="Helvetica,sans-Serif" font-size="10.00">string</text>
</g>
<!-- Node6&#45;&gt;Node7 -->
<g id="edge6" class="edge"><title>Node6&#45;&gt;Node7</title>
<path fill="none" stroke="midnightblue" d="M305,-56.083C305,-49.0059 305,-38.8611 305,-29.9865"/>
<polygon fill="midnightblue" stroke="midnightblue" points="308.5,-29.751 305,-19.7511 301.5,-29.7511 308.5,-29.751"/>
</g>
</g>
</svg>
