<?xml version="1.0" encoding="UTF-8" standalone="no"?>
<!DOCTYPE svg PUBLIC "-//W3C//DTD SVG 1.1//EN"
 "http://www.w3.org/Graphics/SVG/1.1/DTD/svg11.dtd">
<!-- Generated by graphviz version 2.38.0 (20140413.2041)
 -->
<!-- Title: WorkConservationFlowHandler.h Pages: 1 -->
<svg width="443pt" height="196pt"
 viewBox="0.00 0.00 442.50 196.00" xmlns="http://www.w3.org/2000/svg" xmlns:xlink="http://www.w3.org/1999/xlink">
<g id="graph0" class="graph" transform="scale(1 1) rotate(0) translate(4 192)">
<title>WorkConservationFlowHandler.h</title>
<polygon fill="white" stroke="none" points="-4,4 -4,-192 438.5,-192 438.5,4 -4,4"/>
<!-- Node1 -->
<g id="node1" class="node"><title>Node1</title>
<polygon fill="#bfbfbf" stroke="black" points="50,-168.5 50,-187.5 211,-187.5 211,-168.5 50,-168.5"/>
<text text-anchor="middle" x="130.5" y="-175.5" font-family="Helvetica,sans-Serif" font-size="10.00">WorkConservationFlowHandler.h</text>
</g>
<!-- Node2 -->
<g id="node2" class="node"><title>Node2</title>
<polygon fill="white" stroke="#bfbfbf" points="0,-112.5 0,-131.5 57,-131.5 57,-112.5 0,-112.5"/>
<text text-anchor="middle" x="28.5" y="-119.5" font-family="Helvetica,sans-Serif" font-size="10.00">pthread.h</text>
</g>
<!-- Node1&#45;&gt;Node2 -->
<g id="edge1" class="edge"><title>Node1&#45;&gt;Node2</title>
<path fill="none" stroke="midnightblue" d="M114.112,-168.324C97.8287,-159.703 72.6325,-146.364 53.7837,-136.386"/>
<polygon fill="midnightblue" stroke="midnightblue" points="55.3229,-133.24 44.8474,-131.655 52.0477,-139.427 55.3229,-133.24"/>
</g>
<!-- Node3 -->
<g id="node3" class="node"><title>Node3</title>
<polygon fill="white" stroke="#bfbfbf" points="75,-112.5 75,-131.5 124,-131.5 124,-112.5 75,-112.5"/>
<text text-anchor="middle" x="99.5" y="-119.5" font-family="Helvetica,sans-Serif" font-size="10.00">stdint.h</text>
</g>
<!-- Node1&#45;&gt;Node3 -->
<g id="edge2" class="edge"><title>Node1&#45;&gt;Node3</title>
<path fill="none" stroke="midnightblue" d="M125.381,-168.083C121.092,-160.613 114.842,-149.724 109.558,-140.52"/>
<polygon fill="midnightblue" stroke="midnightblue" points="112.538,-138.681 104.524,-131.751 106.467,-142.166 112.538,-138.681"/>
</g>
<!-- Node4 -->
<g id="node4" class="node"><title>Node4</title>
<polygon fill="white" stroke="#bfbfbf" points="142,-112.5 142,-131.5 183,-131.5 183,-112.5 142,-112.5"/>
<text text-anchor="middle" x="162.5" y="-119.5" font-family="Helvetica,sans-Serif" font-size="10.00">string</text>
</g>
<!-- Node1&#45;&gt;Node4 -->
<g id="edge3" class="edge"><title>Node1&#45;&gt;Node4</title>
<path fill="none" stroke="midnightblue" d="M135.784,-168.083C140.211,-160.613 146.663,-149.724 152.118,-140.52"/>
<polygon fill="midnightblue" stroke="midnightblue" points="155.227,-142.138 157.314,-131.751 149.205,-138.57 155.227,-142.138"/>
</g>
<!-- Node5 -->
<g id="node5" class="node"><title>Node5</title>
<g id="a_node5"><a xlink:href="ExponentialSmoothingCalculator_8h.html" target="_top" xlink:title="ExponentialSmoothingCalculator.h">
<polygon fill="white" stroke="black" points="201,-112.5 201,-131.5 368,-131.5 368,-112.5 201,-112.5"/>
<text text-anchor="middle" x="284.5" y="-119.5" font-family="Helvetica,sans-Serif" font-size="10.00">ExponentialSmoothingCalculator.h</text>
</a>
</g>
</g>
<!-- Node1&#45;&gt;Node5 -->
<g id="edge4" class="edge"><title>Node1&#45;&gt;Node5</title>
<path fill="none" stroke="midnightblue" d="M154.902,-168.444C180.697,-159.399 221.577,-145.064 250.518,-134.916"/>
<polygon fill="midnightblue" stroke="midnightblue" points="251.934,-138.128 260.212,-131.516 249.618,-131.523 251.934,-138.128"/>
</g>
<!-- Node6 -->
<g id="node6" class="node"><title>Node6</title>
<polygon fill="white" stroke="#bfbfbf" points="215,-56.5 215,-75.5 256,-75.5 256,-56.5 215,-56.5"/>
<text text-anchor="middle" x="235.5" y="-63.5" font-family="Helvetica,sans-Serif" font-size="10.00">ctime</text>
</g>
<!-- Node5&#45;&gt;Node6 -->
<g id="edge5" class="edge"><title>Node5&#45;&gt;Node6</title>
<path fill="none" stroke="midnightblue" d="M276.409,-112.083C269.345,-104.298 258.912,-92.8015 250.351,-83.3665"/>
<polygon fill="midnightblue" stroke="midnightblue" points="252.753,-80.8047 243.441,-75.7511 247.569,-85.5087 252.753,-80.8047"/>
</g>
<!-- Node7 -->
<g id="node7" class="node"><title>Node7</title>
<g id="a_node7"><a xlink:href="CurrentAndLastValues_8h.html" target="_top" xlink:title="CurrentAndLastValues.h">
<polygon fill="white" stroke="black" points="223,-0.5 223,-19.5 346,-19.5 346,-0.5 223,-0.5"/>
<text text-anchor="middle" x="284.5" y="-7.5" font-family="Helvetica,sans-Serif" font-size="10.00">CurrentAndLastValues.h</text>
</a>
</g>
</g>
<!-- Node5&#45;&gt;Node7 -->
<g id="edge6" class="edge"><title>Node5&#45;&gt;Node7</title>
<path fill="none" stroke="midnightblue" d="M284.5,-112.368C284.5,-94.617 284.5,-53.6664 284.5,-29.5974"/>
<polygon fill="midnightblue" stroke="midnightblue" points="288,-29.5914 284.5,-19.5914 281,-29.5915 288,-29.5914"/>
</g>
<!-- Node8 -->
<g id="node8" class="node"><title>Node8</title>
<g id="a_node8"><a xlink:href="ExponentialSmoothing_8h.html" target="_top" xlink:title="ExponentialSmoothing.h">
<polygon fill="white" stroke="black" points="312.5,-56.5 312.5,-75.5 434.5,-75.5 434.5,-56.5 312.5,-56.5"/>
<text text-anchor="middle" x="373.5" y="-63.5" font-family="Helvetica,sans-Serif" font-size="10.00">ExponentialSmoothing.h</text>
</a>
</g>
</g>
<!-- Node5&#45;&gt;Node8 -->
<g id="edge7" class="edge"><title>Node5&#45;&gt;Node8</title>
<path fill="none" stroke="midnightblue" d="M298.799,-112.324C312.683,-103.9 333.992,-90.9709 350.304,-81.0741"/>
<polygon fill="midnightblue" stroke="midnightblue" points="352.502,-83.8341 359.236,-75.6545 348.871,-77.8495 352.502,-83.8341"/>
</g>
<!-- Node8&#45;&gt;Node7 -->
<g id="edge9" class="edge"><title>Node8&#45;&gt;Node7</title>
<path fill="none" stroke="midnightblue" d="M359.201,-56.324C345.317,-47.9002 324.008,-34.9709 307.696,-25.0741"/>
<polygon fill="midnightblue" stroke="midnightblue" points="309.129,-21.8495 298.764,-19.6545 305.498,-27.8341 309.129,-21.8495"/>
</g>
<!-- Node9 -->
<g id="node9" class="node"><title>Node9</title>
<polygon fill="white" stroke="#bfbfbf" points="364.5,-0.5 364.5,-19.5 408.5,-19.5 408.5,-0.5 364.5,-0.5"/>
<text text-anchor="middle" x="386.5" y="-7.5" font-family="Helvetica,sans-Serif" font-size="10.00">time.h</text>
</g>
<!-- Node8&#45;&gt;Node9 -->
<g id="edge8" class="edge"><title>Node8&#45;&gt;Node9</title>
<path fill="none" stroke="midnightblue" d="M375.647,-56.083C377.369,-48.9272 379.847,-38.6353 382,-29.6911"/>
<polygon fill="midnightblue" stroke="midnightblue" points="385.455,-30.2925 384.393,-19.7511 378.65,-28.6541 385.455,-30.2925"/>
</g>
</g>
</svg>
