<?xml version="1.0" encoding="UTF-8" standalone="no"?>
<!DOCTYPE svg PUBLIC "-//W3C//DTD SVG 1.1//EN"
 "http://www.w3.org/Graphics/SVG/1.1/DTD/svg11.dtd">
<!-- Generated by graphviz version 2.38.0 (20140413.2041)
 -->
<!-- Title: WorkConservationFlowHandler.h Pages: 1 -->
<svg width="507pt" height="196pt"
 viewBox="0.00 0.00 506.50 196.00" xmlns="http://www.w3.org/2000/svg" xmlns:xlink="http://www.w3.org/1999/xlink">
<g id="graph0" class="graph" transform="scale(1 1) rotate(0) translate(4 192)">
<title>WorkConservationFlowHandler.h</title>
<polygon fill="white" stroke="none" points="-4,4 -4,-192 502.5,-192 502.5,4 -4,4"/>
<!-- Node1 -->
<g id="node1" class="node"><title>Node1</title>
<polygon fill="#bfbfbf" stroke="black" points="82,-168.5 82,-187.5 243,-187.5 243,-168.5 82,-168.5"/>
<text text-anchor="middle" x="162.5" y="-175.5" font-family="Helvetica,sans-Serif" font-size="10.00">WorkConservationFlowHandler.h</text>
</g>
<!-- Node2 -->
<g id="node2" class="node"><title>Node2</title>
<polygon fill="white" stroke="#bfbfbf" points="0,-112.5 0,-131.5 57,-131.5 57,-112.5 0,-112.5"/>
<text text-anchor="middle" x="28.5" y="-119.5" font-family="Helvetica,sans-Serif" font-size="10.00">pthread.h</text>
</g>
<!-- Node1&#45;&gt;Node2 -->
<g id="edge1" class="edge"><title>Node1&#45;&gt;Node2</title>
<path fill="none" stroke="midnightblue" d="M141.267,-168.444C119.116,-159.517 84.1813,-145.439 59.064,-135.317"/>
<polygon fill="midnightblue" stroke="midnightblue" points="60.2168,-132.008 49.6334,-131.516 57.6003,-138.501 60.2168,-132.008"/>
</g>
<!-- Node3 -->
<g id="node3" class="node"><title>Node3</title>
<polygon fill="white" stroke="#bfbfbf" points="75,-112.5 75,-131.5 124,-131.5 124,-112.5 75,-112.5"/>
<text text-anchor="middle" x="99.5" y="-119.5" font-family="Helvetica,sans-Serif" font-size="10.00">stdint.h</text>
</g>
<!-- Node1&#45;&gt;Node3 -->
<g id="edge2" class="edge"><title>Node1&#45;&gt;Node3</title>
<path fill="none" stroke="midnightblue" d="M152.378,-168.324C142.974,-160.263 128.756,-148.077 117.431,-138.369"/>
<polygon fill="midnightblue" stroke="midnightblue" points="119.677,-135.684 109.806,-131.834 115.121,-140.999 119.677,-135.684"/>
</g>
<!-- Node4 -->
<g id="node4" class="node"><title>Node4</title>
<polygon fill="white" stroke="#bfbfbf" points="142,-112.5 142,-131.5 183,-131.5 183,-112.5 142,-112.5"/>
<text text-anchor="middle" x="162.5" y="-119.5" font-family="Helvetica,sans-Serif" font-size="10.00">string</text>
</g>
<!-- Node1&#45;&gt;Node4 -->
<g id="edge3" class="edge"><title>Node1&#45;&gt;Node4</title>
<path fill="none" stroke="midnightblue" d="M162.5,-168.083C162.5,-161.006 162.5,-150.861 162.5,-141.986"/>
<polygon fill="midnightblue" stroke="midnightblue" points="166,-141.751 162.5,-131.751 159,-141.751 166,-141.751"/>
</g>
<!-- Node5 -->
<g id="node5" class="node"><title>Node5</title>
<polygon fill="white" stroke="#bfbfbf" points="201.5,-112.5 201.5,-131.5 247.5,-131.5 247.5,-112.5 201.5,-112.5"/>
<text text-anchor="middle" x="224.5" y="-119.5" font-family="Helvetica,sans-Serif" font-size="10.00">atomic</text>
</g>
<!-- Node1&#45;&gt;Node5 -->
<g id="edge4" class="edge"><title>Node1&#45;&gt;Node5</title>
<path fill="none" stroke="midnightblue" d="M172.461,-168.324C181.627,-160.341 195.437,-148.313 206.528,-138.653"/>
<polygon fill="midnightblue" stroke="midnightblue" points="209.115,-141.041 214.357,-131.834 204.518,-135.762 209.115,-141.041"/>
</g>
<!-- Node6 -->
<g id="node6" class="node"><title>Node6</title>
<g id="a_node6"><a xlink:href="ExponentialSmoothingCalculator_8h.html" target="_top" xlink:title="ExponentialSmoothingCalculator.h">
<polygon fill="white" stroke="black" points="265,-112.5 265,-131.5 432,-131.5 432,-112.5 265,-112.5"/>
<text text-anchor="middle" x="348.5" y="-119.5" font-family="Helvetica,sans-Serif" font-size="10.00">ExponentialSmoothingCalculator.h</text>
</a>
</g>
</g>
<!-- Node1&#45;&gt;Node6 -->
<g id="edge5" class="edge"><title>Node1&#45;&gt;Node6</title>
<path fill="none" stroke="midnightblue" d="M191.972,-168.444C223.671,-159.241 274.232,-144.562 309.275,-134.388"/>
<polygon fill="midnightblue" stroke="midnightblue" points="310.538,-137.666 319.166,-131.516 308.586,-130.943 310.538,-137.666"/>
</g>
<!-- Node7 -->
<g id="node7" class="node"><title>Node7</title>
<polygon fill="white" stroke="#bfbfbf" points="279,-56.5 279,-75.5 320,-75.5 320,-56.5 279,-56.5"/>
<text text-anchor="middle" x="299.5" y="-63.5" font-family="Helvetica,sans-Serif" font-size="10.00">ctime</text>
</g>
<!-- Node6&#45;&gt;Node7 -->
<g id="edge6" class="edge"><title>Node6&#45;&gt;Node7</title>
<path fill="none" stroke="midnightblue" d="M340.409,-112.083C333.345,-104.298 322.912,-92.8015 314.351,-83.3665"/>
<polygon fill="midnightblue" stroke="midnightblue" points="316.753,-80.8047 307.441,-75.7511 311.569,-85.5087 316.753,-80.8047"/>
</g>
<!-- Node8 -->
<g id="node8" class="node"><title>Node8</title>
<g id="a_node8"><a xlink:href="CurrentAndLastValues_8h.html" target="_top" xlink:title="CurrentAndLastValues.h">
<polygon fill="white" stroke="black" points="287,-0.5 287,-19.5 410,-19.5 410,-0.5 287,-0.5"/>
<text text-anchor="middle" x="348.5" y="-7.5" font-family="Helvetica,sans-Serif" font-size="10.00">CurrentAndLastValues.h</text>
</a>
</g>
</g>
<!-- Node6&#45;&gt;Node8 -->
<g id="edge7" class="edge"><title>Node6&#45;&gt;Node8</title>
<path fill="none" stroke="midnightblue" d="M348.5,-112.368C348.5,-94.617 348.5,-53.6664 348.5,-29.5974"/>
<polygon fill="midnightblue" stroke="midnightblue" points="352,-29.5914 348.5,-19.5914 345,-29.5915 352,-29.5914"/>
</g>
<!-- Node9 -->
<g id="node9" class="node"><title>Node9</title>
<g id="a_node9"><a xlink:href="ExponentialSmoothing_8h.html" target="_top" xlink:title="ExponentialSmoothing.h">
<polygon fill="white" stroke="black" points="376.5,-56.5 376.5,-75.5 498.5,-75.5 498.5,-56.5 376.5,-56.5"/>
<text text-anchor="middle" x="437.5" y="-63.5" font-family="Helvetica,sans-Serif" font-size="10.00">ExponentialSmoothing.h</text>
</a>
</g>
</g>
<!-- Node6&#45;&gt;Node9 -->
<g id="edge8" class="edge"><title>Node6&#45;&gt;Node9</title>
<path fill="none" stroke="midnightblue" d="M362.799,-112.324C376.683,-103.9 397.992,-90.9709 414.304,-81.0741"/>
<polygon fill="midnightblue" stroke="midnightblue" points="416.502,-83.8341 423.236,-75.6545 412.871,-77.8495 416.502,-83.8341"/>
</g>
<!-- Node9&#45;&gt;Node8 -->
<g id="edge10" class="edge"><title>Node9&#45;&gt;Node8</title>
<path fill="none" stroke="midnightblue" d="M423.201,-56.324C409.317,-47.9002 388.008,-34.9709 371.696,-25.0741"/>
<polygon fill="midnightblue" stroke="midnightblue" points="373.129,-21.8495 362.764,-19.6545 369.498,-27.8341 373.129,-21.8495"/>
</g>
<!-- Node10 -->
<g id="node10" class="node"><title>Node10</title>
<polygon fill="white" stroke="#bfbfbf" points="428.5,-0.5 428.5,-19.5 472.5,-19.5 472.5,-0.5 428.5,-0.5"/>
<text text-anchor="middle" x="450.5" y="-7.5" font-family="Helvetica,sans-Serif" font-size="10.00">time.h</text>
</g>
<!-- Node9&#45;&gt;Node10 -->
<g id="edge9" class="edge"><title>Node9&#45;&gt;Node10</title>
<path fill="none" stroke="midnightblue" d="M439.647,-56.083C441.369,-48.9272 443.847,-38.6353 446,-29.6911"/>
<polygon fill="midnightblue" stroke="midnightblue" points="449.455,-30.2925 448.393,-19.7511 442.65,-28.6541 449.455,-30.2925"/>
</g>
</g>
</svg>
