<?xml version="1.0" encoding="UTF-8" standalone="no"?>
<!DOCTYPE svg PUBLIC "-//W3C//DTD SVG 1.1//EN"
 "http://www.w3.org/Graphics/SVG/1.1/DTD/svg11.dtd">
<!-- Generated by graphviz version 2.38.0 (20140413.2041)
 -->
<!-- Title: WorkConservationFlowHandler.cpp Pages: 1 -->
<svg width="870pt" height="252pt"
 viewBox="0.00 0.00 870.00 252.00" xmlns="http://www.w3.org/2000/svg" xmlns:xlink="http://www.w3.org/1999/xlink">
<g id="graph0" class="graph" transform="scale(1 1) rotate(0) translate(4 248)">
<title>WorkConservationFlowHandler.cpp</title>
<polygon fill="white" stroke="none" points="-4,4 -4,-248 866,-248 866,4 -4,4"/>
<!-- Node1 -->
<g id="node1" class="node"><title>Node1</title>
<polygon fill="#bfbfbf" stroke="black" points="460,-224.5 460,-243.5 631,-243.5 631,-224.5 460,-224.5"/>
<text text-anchor="middle" x="545.5" y="-231.5" font-family="Helvetica,sans-Serif" font-size="10.00">WorkConservationFlowHandler.cpp</text>
</g>
<!-- Node2 -->
<g id="node2" class="node"><title>Node2</title>
<g id="a_node2"><a xlink:href="WorkConservationFlowHandler_8h.html" target="_top" xlink:title="WorkConservationFlowHandler.h">
<polygon fill="white" stroke="black" points="220,-168.5 220,-187.5 381,-187.5 381,-168.5 220,-168.5"/>
<text text-anchor="middle" x="300.5" y="-175.5" font-family="Helvetica,sans-Serif" font-size="10.00">WorkConservationFlowHandler.h</text>
</a>
</g>
</g>
<!-- Node1&#45;&gt;Node2 -->
<g id="edge1" class="edge"><title>Node1&#45;&gt;Node2</title>
<path fill="none" stroke="midnightblue" d="M506.679,-224.444C463.939,-215.023 395.168,-199.866 348.934,-189.675"/>
<polygon fill="midnightblue" stroke="midnightblue" points="349.658,-186.251 339.139,-187.516 348.152,-193.087 349.658,-186.251"/>
</g>
<!-- Node11 -->
<g id="node11" class="node"><title>Node11</title>
<polygon fill="white" stroke="#bfbfbf" points="510,-168.5 510,-187.5 581,-187.5 581,-168.5 510,-168.5"/>
<text text-anchor="middle" x="545.5" y="-175.5" font-family="Helvetica,sans-Serif" font-size="10.00">netinet/tcp.h</text>
</g>
<!-- Node1&#45;&gt;Node11 -->
<g id="edge11" class="edge"><title>Node1&#45;&gt;Node11</title>
<path fill="none" stroke="midnightblue" d="M545.5,-224.083C545.5,-217.006 545.5,-206.861 545.5,-197.986"/>
<polygon fill="midnightblue" stroke="midnightblue" points="549,-197.751 545.5,-187.751 542,-197.751 549,-197.751"/>
</g>
<!-- Node12 -->
<g id="node12" class="node"><title>Node12</title>
<polygon fill="white" stroke="#bfbfbf" points="599.5,-168.5 599.5,-187.5 651.5,-187.5 651.5,-168.5 599.5,-168.5"/>
<text text-anchor="middle" x="625.5" y="-175.5" font-family="Helvetica,sans-Serif" font-size="10.00">sstream</text>
</g>
<!-- Node1&#45;&gt;Node12 -->
<g id="edge12" class="edge"><title>Node1&#45;&gt;Node12</title>
<path fill="none" stroke="midnightblue" d="M558.353,-224.324C570.716,-215.979 589.63,-203.212 604.237,-193.352"/>
<polygon fill="midnightblue" stroke="midnightblue" points="606.348,-196.15 612.679,-187.655 602.432,-190.348 606.348,-196.15"/>
</g>
<!-- Node13 -->
<g id="node13" class="node"><title>Node13</title>
<polygon fill="white" stroke="#bfbfbf" points="669.5,-168.5 669.5,-187.5 717.5,-187.5 717.5,-168.5 669.5,-168.5"/>
<text text-anchor="middle" x="693.5" y="-175.5" font-family="Helvetica,sans-Serif" font-size="10.00">stdlib.h</text>
</g>
<!-- Node1&#45;&gt;Node13 -->
<g id="edge13" class="edge"><title>Node1&#45;&gt;Node13</title>
<path fill="none" stroke="midnightblue" d="M568.951,-224.444C593.633,-215.438 632.685,-201.189 660.477,-191.049"/>
<polygon fill="midnightblue" stroke="midnightblue" points="661.964,-194.232 670.159,-187.516 659.565,-187.656 661.964,-194.232"/>
</g>
<!-- Node14 -->
<g id="node14" class="node"><title>Node14</title>
<polygon fill="white" stroke="#bfbfbf" points="736,-168.5 736,-187.5 787,-187.5 787,-168.5 736,-168.5"/>
<text text-anchor="middle" x="761.5" y="-175.5" font-family="Helvetica,sans-Serif" font-size="10.00">unistd.h</text>
</g>
<!-- Node1&#45;&gt;Node14 -->
<g id="edge14" class="edge"><title>Node1&#45;&gt;Node14</title>
<path fill="none" stroke="midnightblue" d="M580.22,-224.456C614.678,-215.956 669.262,-202.441 726.022,-188.105"/>
<polygon fill="midnightblue" stroke="midnightblue" points="727.055,-191.455 735.892,-185.61 725.339,-184.668 727.055,-191.455"/>
</g>
<!-- Node15 -->
<g id="node15" class="node"><title>Node15</title>
<g id="a_node15"><a xlink:href="BandwidthValues_8h.html" target="_top" xlink:title="BandwidthValues.h">
<polygon fill="white" stroke="black" points="101,-168.5 101,-187.5 202,-187.5 202,-168.5 101,-168.5"/>
<text text-anchor="middle" x="151.5" y="-175.5" font-family="Helvetica,sans-Serif" font-size="10.00">BandwidthValues.h</text>
</a>
</g>
</g>
<!-- Node1&#45;&gt;Node15 -->
<g id="edge15" class="edge"><title>Node1&#45;&gt;Node15</title>
<path fill="none" stroke="midnightblue" d="M479.346,-224.468C413.982,-215.957 310.859,-202.315 212.172,-188.221"/>
<polygon fill="midnightblue" stroke="midnightblue" points="212.417,-184.72 202.022,-186.767 211.425,-191.65 212.417,-184.72"/>
</g>
<!-- Node16 -->
<g id="node16" class="node"><title>Node16</title>
<g id="a_node16"><a xlink:href="LoggingHandler_8h.html" target="_top" xlink:title="LoggingHandler.h">
<polygon fill="white" stroke="black" points="399.5,-168.5 399.5,-187.5 491.5,-187.5 491.5,-168.5 399.5,-168.5"/>
<text text-anchor="middle" x="445.5" y="-175.5" font-family="Helvetica,sans-Serif" font-size="10.00">LoggingHandler.h</text>
</a>
</g>
</g>
<!-- Node1&#45;&gt;Node16 -->
<g id="edge17" class="edge"><title>Node1&#45;&gt;Node16</title>
<path fill="none" stroke="midnightblue" d="M529.433,-224.324C513.542,-215.743 488.993,-202.486 470.542,-192.522"/>
<polygon fill="midnightblue" stroke="midnightblue" points="471.989,-189.326 461.527,-187.655 468.663,-195.486 471.989,-189.326"/>
</g>
<!-- Node18 -->
<g id="node18" class="node"><title>Node18</title>
<g id="a_node18"><a xlink:href="Macros_8h.html" target="_top" xlink:title="Macros.h">
<polygon fill="white" stroke="black" points="805,-168.5 805,-187.5 862,-187.5 862,-168.5 805,-168.5"/>
<text text-anchor="middle" x="833.5" y="-175.5" font-family="Helvetica,sans-Serif" font-size="10.00">Macros.h</text>
</a>
</g>
</g>
<!-- Node1&#45;&gt;Node18 -->
<g id="edge20" class="edge"><title>Node1&#45;&gt;Node18</title>
<path fill="none" stroke="midnightblue" d="M598.567,-224.455C647.307,-216.389 721.755,-203.519 795,-188.225"/>
<polygon fill="midnightblue" stroke="midnightblue" points="795.792,-191.635 804.856,-186.151 794.35,-184.785 795.792,-191.635"/>
</g>
<!-- Node19 -->
<g id="node19" class="node"><title>Node19</title>
<g id="a_node19"><a xlink:href="ThreadHelper_8h.html" target="_top" xlink:title="ThreadHelper.h">
<polygon fill="white" stroke="black" points="0,-168.5 0,-187.5 83,-187.5 83,-168.5 0,-168.5"/>
<text text-anchor="middle" x="41.5" y="-175.5" font-family="Helvetica,sans-Serif" font-size="10.00">ThreadHelper.h</text>
</a>
</g>
</g>
<!-- Node1&#45;&gt;Node19 -->
<g id="edge21" class="edge"><title>Node1&#45;&gt;Node19</title>
<path fill="none" stroke="midnightblue" d="M459.911,-226.553C370.695,-219.368 226.615,-206.466 93.1976,-188.147"/>
<polygon fill="midnightblue" stroke="midnightblue" points="93.5882,-184.668 83.2023,-186.762 92.627,-191.602 93.5882,-184.668"/>
</g>
<!-- Node3 -->
<g id="node3" class="node"><title>Node3</title>
<polygon fill="white" stroke="#bfbfbf" points="32,-112.5 32,-131.5 89,-131.5 89,-112.5 32,-112.5"/>
<text text-anchor="middle" x="60.5" y="-119.5" font-family="Helvetica,sans-Serif" font-size="10.00">pthread.h</text>
</g>
<!-- Node2&#45;&gt;Node3 -->
<g id="edge2" class="edge"><title>Node2&#45;&gt;Node3</title>
<path fill="none" stroke="midnightblue" d="M262.471,-168.444C217.836,-158.401 144.219,-141.837 99.2671,-131.723"/>
<polygon fill="midnightblue" stroke="midnightblue" points="99.8361,-128.263 89.3117,-129.483 98.2995,-135.092 99.8361,-128.263"/>
</g>
<!-- Node4 -->
<g id="node4" class="node"><title>Node4</title>
<polygon fill="white" stroke="#bfbfbf" points="133,-112.5 133,-131.5 182,-131.5 182,-112.5 133,-112.5"/>
<text text-anchor="middle" x="157.5" y="-119.5" font-family="Helvetica,sans-Serif" font-size="10.00">stdint.h</text>
</g>
<!-- Node2&#45;&gt;Node4 -->
<g id="edge3" class="edge"><title>Node2&#45;&gt;Node4</title>
<path fill="none" stroke="midnightblue" d="M277.841,-168.444C254.098,-159.478 216.591,-145.314 189.762,-135.183"/>
<polygon fill="midnightblue" stroke="midnightblue" points="190.644,-131.775 180.053,-131.516 188.171,-138.324 190.644,-131.775"/>
</g>
<!-- Node5 -->
<g id="node5" class="node"><title>Node5</title>
<polygon fill="white" stroke="#bfbfbf" points="396,-112.5 396,-131.5 437,-131.5 437,-112.5 396,-112.5"/>
<text text-anchor="middle" x="416.5" y="-119.5" font-family="Helvetica,sans-Serif" font-size="10.00">string</text>
</g>
<!-- Node2&#45;&gt;Node5 -->
<g id="edge4" class="edge"><title>Node2&#45;&gt;Node5</title>
<path fill="none" stroke="midnightblue" d="M318.881,-168.444C337.716,-159.675 367.231,-145.935 388.879,-135.858"/>
<polygon fill="midnightblue" stroke="midnightblue" points="390.617,-138.91 398.205,-131.516 387.662,-132.564 390.617,-138.91"/>
</g>
<!-- Node6 -->
<g id="node6" class="node"><title>Node6</title>
<g id="a_node6"><a xlink:href="ExponentialSmoothingCalculator_8h.html" target="_top" xlink:title="ExponentialSmoothingCalculator.h">
<polygon fill="white" stroke="black" points="211,-112.5 211,-131.5 378,-131.5 378,-112.5 211,-112.5"/>
<text text-anchor="middle" x="294.5" y="-119.5" font-family="Helvetica,sans-Serif" font-size="10.00">ExponentialSmoothingCalculator.h</text>
</a>
</g>
</g>
<!-- Node2&#45;&gt;Node6 -->
<g id="edge5" class="edge"><title>Node2&#45;&gt;Node6</title>
<path fill="none" stroke="midnightblue" d="M299.509,-168.083C298.714,-160.927 297.571,-150.635 296.577,-141.691"/>
<polygon fill="midnightblue" stroke="midnightblue" points="300.055,-141.303 295.472,-131.751 293.098,-142.076 300.055,-141.303"/>
</g>
<!-- Node7 -->
<g id="node7" class="node"><title>Node7</title>
<polygon fill="white" stroke="#bfbfbf" points="225,-56.5 225,-75.5 266,-75.5 266,-56.5 225,-56.5"/>
<text text-anchor="middle" x="245.5" y="-63.5" font-family="Helvetica,sans-Serif" font-size="10.00">ctime</text>
</g>
<!-- Node6&#45;&gt;Node7 -->
<g id="edge6" class="edge"><title>Node6&#45;&gt;Node7</title>
<path fill="none" stroke="midnightblue" d="M286.409,-112.083C279.345,-104.298 268.912,-92.8015 260.351,-83.3665"/>
<polygon fill="midnightblue" stroke="midnightblue" points="262.753,-80.8047 253.441,-75.7511 257.569,-85.5087 262.753,-80.8047"/>
</g>
<!-- Node8 -->
<g id="node8" class="node"><title>Node8</title>
<g id="a_node8"><a xlink:href="CurrentAndLastValues_8h.html" target="_top" xlink:title="CurrentAndLastValues.h">
<polygon fill="white" stroke="black" points="233,-0.5 233,-19.5 356,-19.5 356,-0.5 233,-0.5"/>
<text text-anchor="middle" x="294.5" y="-7.5" font-family="Helvetica,sans-Serif" font-size="10.00">CurrentAndLastValues.h</text>
</a>
</g>
</g>
<!-- Node6&#45;&gt;Node8 -->
<g id="edge7" class="edge"><title>Node6&#45;&gt;Node8</title>
<path fill="none" stroke="midnightblue" d="M294.5,-112.368C294.5,-94.617 294.5,-53.6664 294.5,-29.5974"/>
<polygon fill="midnightblue" stroke="midnightblue" points="298,-29.5914 294.5,-19.5914 291,-29.5915 298,-29.5914"/>
</g>
<!-- Node9 -->
<g id="node9" class="node"><title>Node9</title>
<g id="a_node9"><a xlink:href="ExponentialSmoothing_8h.html" target="_top" xlink:title="ExponentialSmoothing.h">
<polygon fill="white" stroke="black" points="322.5,-56.5 322.5,-75.5 444.5,-75.5 444.5,-56.5 322.5,-56.5"/>
<text text-anchor="middle" x="383.5" y="-63.5" font-family="Helvetica,sans-Serif" font-size="10.00">ExponentialSmoothing.h</text>
</a>
</g>
</g>
<!-- Node6&#45;&gt;Node9 -->
<g id="edge8" class="edge"><title>Node6&#45;&gt;Node9</title>
<path fill="none" stroke="midnightblue" d="M308.799,-112.324C322.683,-103.9 343.992,-90.9709 360.304,-81.0741"/>
<polygon fill="midnightblue" stroke="midnightblue" points="362.502,-83.8341 369.236,-75.6545 358.871,-77.8495 362.502,-83.8341"/>
</g>
<!-- Node9&#45;&gt;Node8 -->
<g id="edge10" class="edge"><title>Node9&#45;&gt;Node8</title>
<path fill="none" stroke="midnightblue" d="M369.201,-56.324C355.317,-47.9002 334.008,-34.9709 317.696,-25.0741"/>
<polygon fill="midnightblue" stroke="midnightblue" points="319.129,-21.8495 308.764,-19.6545 315.498,-27.8341 319.129,-21.8495"/>
</g>
<!-- Node10 -->
<g id="node10" class="node"><title>Node10</title>
<polygon fill="white" stroke="#bfbfbf" points="374.5,-0.5 374.5,-19.5 418.5,-19.5 418.5,-0.5 374.5,-0.5"/>
<text text-anchor="middle" x="396.5" y="-7.5" font-family="Helvetica,sans-Serif" font-size="10.00">time.h</text>
</g>
<!-- Node9&#45;&gt;Node10 -->
<g id="edge9" class="edge"><title>Node9&#45;&gt;Node10</title>
<path fill="none" stroke="midnightblue" d="M385.647,-56.083C387.369,-48.9272 389.847,-38.6353 392,-29.6911"/>
<polygon fill="midnightblue" stroke="midnightblue" points="395.455,-30.2925 394.393,-19.7511 388.65,-28.6541 395.455,-30.2925"/>
</g>
<!-- Node15&#45;&gt;Node4 -->
<g id="edge16" class="edge"><title>Node15&#45;&gt;Node4</title>
<path fill="none" stroke="midnightblue" d="M152.491,-168.083C153.286,-160.927 154.429,-150.635 155.423,-141.691"/>
<polygon fill="midnightblue" stroke="midnightblue" points="158.902,-142.076 156.528,-131.751 151.945,-141.303 158.902,-142.076"/>
</g>
<!-- Node16&#45;&gt;Node5 -->
<g id="edge18" class="edge"><title>Node16&#45;&gt;Node5</title>
<path fill="none" stroke="midnightblue" d="M440.711,-168.083C436.742,-160.691 430.975,-149.953 426.065,-140.811"/>
<polygon fill="midnightblue" stroke="midnightblue" points="429.014,-138.905 421.2,-131.751 422.847,-142.217 429.014,-138.905"/>
</g>
<!-- Node17 -->
<g id="node17" class="node"><title>Node17</title>
<polygon fill="white" stroke="#bfbfbf" points="455.5,-112.5 455.5,-131.5 505.5,-131.5 505.5,-112.5 455.5,-112.5"/>
<text text-anchor="middle" x="480.5" y="-119.5" font-family="Helvetica,sans-Serif" font-size="10.00">fstream</text>
</g>
<!-- Node16&#45;&gt;Node17 -->
<g id="edge19" class="edge"><title>Node16&#45;&gt;Node17</title>
<path fill="none" stroke="midnightblue" d="M451.28,-168.083C456.172,-160.534 463.327,-149.495 469.333,-140.23"/>
<polygon fill="midnightblue" stroke="midnightblue" points="472.326,-142.046 474.828,-131.751 466.452,-138.239 472.326,-142.046"/>
</g>
<!-- Node19&#45;&gt;Node3 -->
<g id="edge22" class="edge"><title>Node19&#45;&gt;Node3</title>
<path fill="none" stroke="midnightblue" d="M44.6375,-168.083C47.1829,-160.849 50.8562,-150.409 54.0271,-141.397"/>
<polygon fill="midnightblue" stroke="midnightblue" points="57.4034,-142.346 57.4209,-131.751 50.8002,-140.023 57.4034,-142.346"/>
</g>
</g>
</svg>
