<?xml version="1.0" encoding="UTF-8" standalone="no"?>
<!DOCTYPE svg PUBLIC "-//W3C//DTD SVG 1.1//EN"
 "http://www.w3.org/Graphics/SVG/1.1/DTD/svg11.dtd">
<!-- Generated by graphviz version 2.38.0 (20140413.2041)
 -->
<!-- Title: WorkConservationFlowHandler.h Pages: 1 -->
<svg width="475pt" height="84pt"
 viewBox="0.00 0.00 475.00 84.00" xmlns="http://www.w3.org/2000/svg" xmlns:xlink="http://www.w3.org/1999/xlink">
<g id="graph0" class="graph" transform="scale(1 1) rotate(0) translate(4 80)">
<title>WorkConservationFlowHandler.h</title>
<polygon fill="white" stroke="none" points="-4,4 -4,-80 471,-80 471,4 -4,4"/>
<!-- Node1 -->
<g id="node1" class="node"><title>Node1</title>
<polygon fill="#bfbfbf" stroke="black" points="140,-56.5 140,-75.5 301,-75.5 301,-56.5 140,-56.5"/>
<text text-anchor="middle" x="220.5" y="-63.5" font-family="Helvetica,sans-Serif" font-size="10.00">WorkConservationFlowHandler.h</text>
</g>
<!-- Node2 -->
<g id="node2" class="node"><title>Node2</title>
<g id="a_node2"><a xlink:href="BandwidthCommunicator_8cpp.html" target="_top" xlink:title="BandwidthCommunicator.cpp">
<polygon fill="white" stroke="black" points="0,-0.5 0,-19.5 145,-19.5 145,-0.5 0,-0.5"/>
<text text-anchor="middle" x="72.5" y="-7.5" font-family="Helvetica,sans-Serif" font-size="10.00">BandwidthCommunicator.cpp</text>
</a>
</g>
</g>
<!-- Node1&#45;&gt;Node2 -->
<g id="edge1" class="edge"><title>Node1&#45;&gt;Node2</title>
<path fill="none" stroke="midnightblue" d="M187.353,-52.9058C159.528,-42.7536 120.48,-28.5063 95.8413,-19.5164"/>
<polygon fill="midnightblue" stroke="midnightblue" points="186.455,-56.3038 197.049,-56.4435 188.854,-49.7279 186.455,-56.3038"/>
</g>
<!-- Node3 -->
<g id="node3" class="node"><title>Node3</title>
<g id="a_node3"><a xlink:href="WCEnablerObject_8cpp.html" target="_top" xlink:title="WCEnablerObject.cpp">
<polygon fill="white" stroke="black" points="163.5,-0.5 163.5,-19.5 277.5,-19.5 277.5,-0.5 163.5,-0.5"/>
<text text-anchor="middle" x="220.5" y="-7.5" font-family="Helvetica,sans-Serif" font-size="10.00">WCEnablerObject.cpp</text>
</a>
</g>
</g>
<!-- Node1&#45;&gt;Node3 -->
<g id="edge2" class="edge"><title>Node1&#45;&gt;Node3</title>
<path fill="none" stroke="midnightblue" d="M220.5,-45.8045C220.5,-36.9102 220.5,-26.7798 220.5,-19.7511"/>
<polygon fill="midnightblue" stroke="midnightblue" points="217,-46.083 220.5,-56.083 224,-46.083 217,-46.083"/>
</g>
<!-- Node4 -->
<g id="node4" class="node"><title>Node4</title>
<g id="a_node4"><a xlink:href="WorkConservationFlowHandler_8cpp.html" target="_top" xlink:title="WorkConservationFlowHandler.cpp">
<polygon fill="white" stroke="black" points="296,-0.5 296,-19.5 467,-19.5 467,-0.5 296,-0.5"/>
<text text-anchor="middle" x="381.5" y="-7.5" font-family="Helvetica,sans-Serif" font-size="10.00">WorkConservationFlowHandler.cpp</text>
</a>
</g>
</g>
<!-- Node1&#45;&gt;Node4 -->
<g id="edge3" class="edge"><title>Node1&#45;&gt;Node4</title>
<path fill="none" stroke="midnightblue" d="M255.765,-53.172C286.081,-43.0039 329.07,-28.5852 356.108,-19.5164"/>
<polygon fill="midnightblue" stroke="midnightblue" points="254.379,-49.9452 246.011,-56.4435 256.605,-56.5819 254.379,-49.9452"/>
</g>
</g>
</svg>
