<?xml version="1.0" encoding="UTF-8" standalone="no"?>
<!DOCTYPE svg PUBLIC "-//W3C//DTD SVG 1.1//EN"
 "http://www.w3.org/Graphics/SVG/1.1/DTD/svg11.dtd">
<!-- Generated by graphviz version 2.38.0 (20140413.2041)
 -->
<!-- Title: WorkConservationFlowHandler.cpp Pages: 1 -->
<svg width="512pt" height="252pt"
 viewBox="0.00 0.00 511.50 252.00" xmlns="http://www.w3.org/2000/svg" xmlns:xlink="http://www.w3.org/1999/xlink">
<g id="graph0" class="graph" transform="scale(1 1) rotate(0) translate(4 248)">
<title>WorkConservationFlowHandler.cpp</title>
<polygon fill="white" stroke="none" points="-4,4 -4,-248 507.5,-248 507.5,4 -4,4"/>
<!-- Node1 -->
<g id="node1" class="node"><title>Node1</title>
<polygon fill="#bfbfbf" stroke="black" points="216,-224.5 216,-243.5 387,-243.5 387,-224.5 216,-224.5"/>
<text text-anchor="middle" x="301.5" y="-231.5" font-family="Helvetica,sans-Serif" font-size="10.00">WorkConservationFlowHandler.cpp</text>
</g>
<!-- Node2 -->
<g id="node2" class="node"><title>Node2</title>
<g id="a_node2"><a xlink:href="WorkConservationFlowHandler_8h.html" target="_top" xlink:title="WorkConservationFlowHandler.h">
<polygon fill="white" stroke="black" points="7,-168.5 7,-187.5 168,-187.5 168,-168.5 7,-168.5"/>
<text text-anchor="middle" x="87.5" y="-175.5" font-family="Helvetica,sans-Serif" font-size="10.00">WorkConservationFlowHandler.h</text>
</a>
</g>
</g>
<!-- Node1&#45;&gt;Node2 -->
<g id="edge1" class="edge"><title>Node1&#45;&gt;Node2</title>
<path fill="none" stroke="midnightblue" d="M267.591,-224.444C230.651,-215.122 171.446,-200.183 131.082,-189.997"/>
<polygon fill="midnightblue" stroke="midnightblue" points="131.803,-186.57 121.25,-187.516 130.09,-193.357 131.803,-186.57"/>
</g>
<!-- Node10 -->
<g id="node10" class="node"><title>Node10</title>
<polygon fill="white" stroke="#bfbfbf" points="186,-168.5 186,-187.5 257,-187.5 257,-168.5 186,-168.5"/>
<text text-anchor="middle" x="221.5" y="-175.5" font-family="Helvetica,sans-Serif" font-size="10.00">netinet/tcp.h</text>
</g>
<!-- Node1&#45;&gt;Node10 -->
<g id="edge10" class="edge"><title>Node1&#45;&gt;Node10</title>
<path fill="none" stroke="midnightblue" d="M288.647,-224.324C276.284,-215.979 257.37,-203.212 242.763,-193.352"/>
<polygon fill="midnightblue" stroke="midnightblue" points="244.568,-190.348 234.321,-187.655 240.652,-196.15 244.568,-190.348"/>
</g>
<!-- Node11 -->
<g id="node11" class="node"><title>Node11</title>
<polygon fill="white" stroke="#bfbfbf" points="275.5,-168.5 275.5,-187.5 327.5,-187.5 327.5,-168.5 275.5,-168.5"/>
<text text-anchor="middle" x="301.5" y="-175.5" font-family="Helvetica,sans-Serif" font-size="10.00">sstream</text>
</g>
<!-- Node1&#45;&gt;Node11 -->
<g id="edge11" class="edge"><title>Node1&#45;&gt;Node11</title>
<path fill="none" stroke="midnightblue" d="M301.5,-224.083C301.5,-217.006 301.5,-206.861 301.5,-197.986"/>
<polygon fill="midnightblue" stroke="midnightblue" points="305,-197.751 301.5,-187.751 298,-197.751 305,-197.751"/>
</g>
<!-- Node12 -->
<g id="node12" class="node"><title>Node12</title>
<polygon fill="white" stroke="#bfbfbf" points="345.5,-168.5 345.5,-187.5 393.5,-187.5 393.5,-168.5 345.5,-168.5"/>
<text text-anchor="middle" x="369.5" y="-175.5" font-family="Helvetica,sans-Serif" font-size="10.00">stdlib.h</text>
</g>
<!-- Node1&#45;&gt;Node12 -->
<g id="edge12" class="edge"><title>Node1&#45;&gt;Node12</title>
<path fill="none" stroke="midnightblue" d="M312.425,-224.324C322.675,-216.185 338.221,-203.839 350.501,-194.087"/>
<polygon fill="midnightblue" stroke="midnightblue" points="352.721,-196.794 358.376,-187.834 348.368,-191.312 352.721,-196.794"/>
</g>
<!-- Node13 -->
<g id="node13" class="node"><title>Node13</title>
<g id="a_node13"><a xlink:href="LoggingHandler_8h.html" target="_top" xlink:title="LoggingHandler.h">
<polygon fill="white" stroke="black" points="411.5,-168.5 411.5,-187.5 503.5,-187.5 503.5,-168.5 411.5,-168.5"/>
<text text-anchor="middle" x="457.5" y="-175.5" font-family="Helvetica,sans-Serif" font-size="10.00">LoggingHandler.h</text>
</a>
</g>
</g>
<!-- Node1&#45;&gt;Node13 -->
<g id="edge13" class="edge"><title>Node1&#45;&gt;Node13</title>
<path fill="none" stroke="midnightblue" d="M326.219,-224.444C352.348,-215.399 393.759,-201.064 423.076,-190.916"/>
<polygon fill="midnightblue" stroke="midnightblue" points="424.592,-194.095 432.897,-187.516 422.302,-187.48 424.592,-194.095"/>
</g>
<!-- Node3 -->
<g id="node3" class="node"><title>Node3</title>
<polygon fill="white" stroke="#bfbfbf" points="0,-112.5 0,-131.5 49,-131.5 49,-112.5 0,-112.5"/>
<text text-anchor="middle" x="24.5" y="-119.5" font-family="Helvetica,sans-Serif" font-size="10.00">stdint.h</text>
</g>
<!-- Node2&#45;&gt;Node3 -->
<g id="edge2" class="edge"><title>Node2&#45;&gt;Node3</title>
<path fill="none" stroke="midnightblue" d="M77.378,-168.324C67.9736,-160.263 53.7559,-148.077 42.431,-138.369"/>
<polygon fill="midnightblue" stroke="midnightblue" points="44.6766,-135.684 34.8062,-131.834 40.121,-140.999 44.6766,-135.684"/>
</g>
<!-- Node4 -->
<g id="node4" class="node"><title>Node4</title>
<polygon fill="white" stroke="#bfbfbf" points="344,-112.5 344,-131.5 385,-131.5 385,-112.5 344,-112.5"/>
<text text-anchor="middle" x="364.5" y="-119.5" font-family="Helvetica,sans-Serif" font-size="10.00">string</text>
</g>
<!-- Node2&#45;&gt;Node4 -->
<g id="edge3" class="edge"><title>Node2&#45;&gt;Node4</title>
<path fill="none" stroke="midnightblue" d="M131.391,-168.444C187.814,-157.444 284.365,-138.622 333.624,-129.019"/>
<polygon fill="midnightblue" stroke="midnightblue" points="334.523,-132.41 343.668,-127.061 333.183,-125.539 334.523,-132.41"/>
</g>
<!-- Node5 -->
<g id="node5" class="node"><title>Node5</title>
<g id="a_node5"><a xlink:href="ExponentialSmoothingCalculator_8h.html" target="_top" xlink:title="ExponentialSmoothingCalculator.h">
<polygon fill="white" stroke="black" points="67,-112.5 67,-131.5 234,-131.5 234,-112.5 67,-112.5"/>
<text text-anchor="middle" x="150.5" y="-119.5" font-family="Helvetica,sans-Serif" font-size="10.00">ExponentialSmoothingCalculator.h</text>
</a>
</g>
</g>
<!-- Node2&#45;&gt;Node5 -->
<g id="edge4" class="edge"><title>Node2&#45;&gt;Node5</title>
<path fill="none" stroke="midnightblue" d="M97.622,-168.324C107.026,-160.263 121.244,-148.077 132.569,-138.369"/>
<polygon fill="midnightblue" stroke="midnightblue" points="134.879,-140.999 140.194,-131.834 130.323,-135.684 134.879,-140.999"/>
</g>
<!-- Node6 -->
<g id="node6" class="node"><title>Node6</title>
<polygon fill="white" stroke="#bfbfbf" points="81,-56.5 81,-75.5 122,-75.5 122,-56.5 81,-56.5"/>
<text text-anchor="middle" x="101.5" y="-63.5" font-family="Helvetica,sans-Serif" font-size="10.00">ctime</text>
</g>
<!-- Node5&#45;&gt;Node6 -->
<g id="edge5" class="edge"><title>Node5&#45;&gt;Node6</title>
<path fill="none" stroke="midnightblue" d="M142.409,-112.083C135.345,-104.298 124.912,-92.8015 116.351,-83.3665"/>
<polygon fill="midnightblue" stroke="midnightblue" points="118.753,-80.8047 109.441,-75.7511 113.569,-85.5087 118.753,-80.8047"/>
</g>
<!-- Node7 -->
<g id="node7" class="node"><title>Node7</title>
<g id="a_node7"><a xlink:href="CurrentAndLastValues_8h.html" target="_top" xlink:title="CurrentAndLastValues.h">
<polygon fill="white" stroke="black" points="89,-0.5 89,-19.5 212,-19.5 212,-0.5 89,-0.5"/>
<text text-anchor="middle" x="150.5" y="-7.5" font-family="Helvetica,sans-Serif" font-size="10.00">CurrentAndLastValues.h</text>
</a>
</g>
</g>
<!-- Node5&#45;&gt;Node7 -->
<g id="edge6" class="edge"><title>Node5&#45;&gt;Node7</title>
<path fill="none" stroke="midnightblue" d="M150.5,-112.368C150.5,-94.617 150.5,-53.6664 150.5,-29.5974"/>
<polygon fill="midnightblue" stroke="midnightblue" points="154,-29.5914 150.5,-19.5914 147,-29.5915 154,-29.5914"/>
</g>
<!-- Node8 -->
<g id="node8" class="node"><title>Node8</title>
<g id="a_node8"><a xlink:href="ExponentialSmoothing_8h.html" target="_top" xlink:title="ExponentialSmoothing.h">
<polygon fill="white" stroke="black" points="178.5,-56.5 178.5,-75.5 300.5,-75.5 300.5,-56.5 178.5,-56.5"/>
<text text-anchor="middle" x="239.5" y="-63.5" font-family="Helvetica,sans-Serif" font-size="10.00">ExponentialSmoothing.h</text>
</a>
</g>
</g>
<!-- Node5&#45;&gt;Node8 -->
<g id="edge7" class="edge"><title>Node5&#45;&gt;Node8</title>
<path fill="none" stroke="midnightblue" d="M164.799,-112.324C178.683,-103.9 199.992,-90.9709 216.304,-81.0741"/>
<polygon fill="midnightblue" stroke="midnightblue" points="218.502,-83.8341 225.236,-75.6545 214.871,-77.8495 218.502,-83.8341"/>
</g>
<!-- Node8&#45;&gt;Node7 -->
<g id="edge9" class="edge"><title>Node8&#45;&gt;Node7</title>
<path fill="none" stroke="midnightblue" d="M225.201,-56.324C211.317,-47.9002 190.008,-34.9709 173.696,-25.0741"/>
<polygon fill="midnightblue" stroke="midnightblue" points="175.129,-21.8495 164.764,-19.6545 171.498,-27.8341 175.129,-21.8495"/>
</g>
<!-- Node9 -->
<g id="node9" class="node"><title>Node9</title>
<polygon fill="white" stroke="#bfbfbf" points="230.5,-0.5 230.5,-19.5 274.5,-19.5 274.5,-0.5 230.5,-0.5"/>
<text text-anchor="middle" x="252.5" y="-7.5" font-family="Helvetica,sans-Serif" font-size="10.00">time.h</text>
</g>
<!-- Node8&#45;&gt;Node9 -->
<g id="edge8" class="edge"><title>Node8&#45;&gt;Node9</title>
<path fill="none" stroke="midnightblue" d="M241.647,-56.083C243.369,-48.9272 245.847,-38.6353 248,-29.6911"/>
<polygon fill="midnightblue" stroke="midnightblue" points="251.455,-30.2925 250.393,-19.7511 244.65,-28.6541 251.455,-30.2925"/>
</g>
<!-- Node13&#45;&gt;Node4 -->
<g id="edge14" class="edge"><title>Node13&#45;&gt;Node4</title>
<path fill="none" stroke="midnightblue" d="M442.558,-168.324C427.915,-159.822 405.366,-146.729 388.262,-136.797"/>
<polygon fill="midnightblue" stroke="midnightblue" points="389.81,-133.649 379.405,-131.655 386.295,-139.703 389.81,-133.649"/>
</g>
<!-- Node14 -->
<g id="node14" class="node"><title>Node14</title>
<polygon fill="white" stroke="#bfbfbf" points="432.5,-112.5 432.5,-131.5 482.5,-131.5 482.5,-112.5 432.5,-112.5"/>
<text text-anchor="middle" x="457.5" y="-119.5" font-family="Helvetica,sans-Serif" font-size="10.00">fstream</text>
</g>
<!-- Node13&#45;&gt;Node14 -->
<g id="edge15" class="edge"><title>Node13&#45;&gt;Node14</title>
<path fill="none" stroke="midnightblue" d="M457.5,-168.083C457.5,-161.006 457.5,-150.861 457.5,-141.986"/>
<polygon fill="midnightblue" stroke="midnightblue" points="461,-141.751 457.5,-131.751 454,-141.751 461,-141.751"/>
</g>
</g>
</svg>
