<?xml version="1.0" encoding="UTF-8" standalone="no"?>
<!DOCTYPE svg PUBLIC "-//W3C//DTD SVG 1.1//EN"
 "http://www.w3.org/Graphics/SVG/1.1/DTD/svg11.dtd">
<!-- Generated by graphviz version 2.38.0 (20140413.2041)
 -->
<!-- Title: WorkConservationFlowHandler.h Pages: 1 -->
<svg width="368pt" height="196pt"
 viewBox="0.00 0.00 367.50 196.00" xmlns="http://www.w3.org/2000/svg" xmlns:xlink="http://www.w3.org/1999/xlink">
<g id="graph0" class="graph" transform="scale(1 1) rotate(0) translate(4 192)">
<title>WorkConservationFlowHandler.h</title>
<polygon fill="white" stroke="none" points="-4,4 -4,-192 363.5,-192 363.5,4 -4,4"/>
<!-- Node1 -->
<g id="node1" class="node"><title>Node1</title>
<polygon fill="#bfbfbf" stroke="black" points="7,-168.5 7,-187.5 168,-187.5 168,-168.5 7,-168.5"/>
<text text-anchor="middle" x="87.5" y="-175.5" font-family="Helvetica,sans-Serif" font-size="10.00">WorkConservationFlowHandler.h</text>
</g>
<!-- Node2 -->
<g id="node2" class="node"><title>Node2</title>
<polygon fill="white" stroke="#bfbfbf" points="0,-112.5 0,-131.5 49,-131.5 49,-112.5 0,-112.5"/>
<text text-anchor="middle" x="24.5" y="-119.5" font-family="Helvetica,sans-Serif" font-size="10.00">stdint.h</text>
</g>
<!-- Node1&#45;&gt;Node2 -->
<g id="edge1" class="edge"><title>Node1&#45;&gt;Node2</title>
<path fill="none" stroke="midnightblue" d="M77.378,-168.324C67.9736,-160.263 53.7559,-148.077 42.431,-138.369"/>
<polygon fill="midnightblue" stroke="midnightblue" points="44.6766,-135.684 34.8062,-131.834 40.121,-140.999 44.6766,-135.684"/>
</g>
<!-- Node3 -->
<g id="node3" class="node"><title>Node3</title>
<polygon fill="white" stroke="#bfbfbf" points="67,-112.5 67,-131.5 108,-131.5 108,-112.5 67,-112.5"/>
<text text-anchor="middle" x="87.5" y="-119.5" font-family="Helvetica,sans-Serif" font-size="10.00">string</text>
</g>
<!-- Node1&#45;&gt;Node3 -->
<g id="edge2" class="edge"><title>Node1&#45;&gt;Node3</title>
<path fill="none" stroke="midnightblue" d="M87.5,-168.083C87.5,-161.006 87.5,-150.861 87.5,-141.986"/>
<polygon fill="midnightblue" stroke="midnightblue" points="91.0001,-141.751 87.5,-131.751 84.0001,-141.751 91.0001,-141.751"/>
</g>
<!-- Node4 -->
<g id="node4" class="node"><title>Node4</title>
<g id="a_node4"><a xlink:href="ExponentialSmoothingCalculator_8h.html" target="_top" xlink:title="ExponentialSmoothingCalculator.h">
<polygon fill="white" stroke="black" points="126,-112.5 126,-131.5 293,-131.5 293,-112.5 126,-112.5"/>
<text text-anchor="middle" x="209.5" y="-119.5" font-family="Helvetica,sans-Serif" font-size="10.00">ExponentialSmoothingCalculator.h</text>
</a>
</g>
</g>
<!-- Node1&#45;&gt;Node4 -->
<g id="edge3" class="edge"><title>Node1&#45;&gt;Node4</title>
<path fill="none" stroke="midnightblue" d="M106.831,-168.444C126.82,-159.596 158.243,-145.687 181.064,-135.586"/>
<polygon fill="midnightblue" stroke="midnightblue" points="182.532,-138.764 190.259,-131.516 179.698,-132.363 182.532,-138.764"/>
</g>
<!-- Node5 -->
<g id="node5" class="node"><title>Node5</title>
<polygon fill="white" stroke="#bfbfbf" points="140,-56.5 140,-75.5 181,-75.5 181,-56.5 140,-56.5"/>
<text text-anchor="middle" x="160.5" y="-63.5" font-family="Helvetica,sans-Serif" font-size="10.00">ctime</text>
</g>
<!-- Node4&#45;&gt;Node5 -->
<g id="edge4" class="edge"><title>Node4&#45;&gt;Node5</title>
<path fill="none" stroke="midnightblue" d="M201.409,-112.083C194.345,-104.298 183.912,-92.8015 175.351,-83.3665"/>
<polygon fill="midnightblue" stroke="midnightblue" points="177.753,-80.8047 168.441,-75.7511 172.569,-85.5087 177.753,-80.8047"/>
</g>
<!-- Node6 -->
<g id="node6" class="node"><title>Node6</title>
<g id="a_node6"><a xlink:href="CurrentAndLastValues_8h.html" target="_top" xlink:title="CurrentAndLastValues.h">
<polygon fill="white" stroke="black" points="148,-0.5 148,-19.5 271,-19.5 271,-0.5 148,-0.5"/>
<text text-anchor="middle" x="209.5" y="-7.5" font-family="Helvetica,sans-Serif" font-size="10.00">CurrentAndLastValues.h</text>
</a>
</g>
</g>
<!-- Node4&#45;&gt;Node6 -->
<g id="edge5" class="edge"><title>Node4&#45;&gt;Node6</title>
<path fill="none" stroke="midnightblue" d="M209.5,-112.368C209.5,-94.617 209.5,-53.6664 209.5,-29.5974"/>
<polygon fill="midnightblue" stroke="midnightblue" points="213,-29.5914 209.5,-19.5914 206,-29.5915 213,-29.5914"/>
</g>
<!-- Node7 -->
<g id="node7" class="node"><title>Node7</title>
<g id="a_node7"><a xlink:href="ExponentialSmoothing_8h.html" target="_top" xlink:title="ExponentialSmoothing.h">
<polygon fill="white" stroke="black" points="237.5,-56.5 237.5,-75.5 359.5,-75.5 359.5,-56.5 237.5,-56.5"/>
<text text-anchor="middle" x="298.5" y="-63.5" font-family="Helvetica,sans-Serif" font-size="10.00">ExponentialSmoothing.h</text>
</a>
</g>
</g>
<!-- Node4&#45;&gt;Node7 -->
<g id="edge6" class="edge"><title>Node4&#45;&gt;Node7</title>
<path fill="none" stroke="midnightblue" d="M223.799,-112.324C237.683,-103.9 258.992,-90.9709 275.304,-81.0741"/>
<polygon fill="midnightblue" stroke="midnightblue" points="277.502,-83.8341 284.236,-75.6545 273.871,-77.8495 277.502,-83.8341"/>
</g>
<!-- Node7&#45;&gt;Node6 -->
<g id="edge8" class="edge"><title>Node7&#45;&gt;Node6</title>
<path fill="none" stroke="midnightblue" d="M284.201,-56.324C270.317,-47.9002 249.008,-34.9709 232.696,-25.0741"/>
<polygon fill="midnightblue" stroke="midnightblue" points="234.129,-21.8495 223.764,-19.6545 230.498,-27.8341 234.129,-21.8495"/>
</g>
<!-- Node8 -->
<g id="node8" class="node"><title>Node8</title>
<polygon fill="white" stroke="#bfbfbf" points="289.5,-0.5 289.5,-19.5 333.5,-19.5 333.5,-0.5 289.5,-0.5"/>
<text text-anchor="middle" x="311.5" y="-7.5" font-family="Helvetica,sans-Serif" font-size="10.00">time.h</text>
</g>
<!-- Node7&#45;&gt;Node8 -->
<g id="edge7" class="edge"><title>Node7&#45;&gt;Node8</title>
<path fill="none" stroke="midnightblue" d="M300.647,-56.083C302.369,-48.9272 304.847,-38.6353 307,-29.6911"/>
<polygon fill="midnightblue" stroke="midnightblue" points="310.455,-30.2925 309.393,-19.7511 303.65,-28.6541 310.455,-30.2925"/>
</g>
</g>
</svg>
