<?xml version="1.0" encoding="UTF-8" standalone="no"?>
<!DOCTYPE svg PUBLIC "-//W3C//DTD SVG 1.1//EN"
 "http://www.w3.org/Graphics/SVG/1.1/DTD/svg11.dtd">
<!-- Generated by graphviz version 2.38.0 (20140413.2041)
 -->
<!-- Title: WorkConservationFlowHandler.h Pages: 1 -->
<svg width="282pt" height="84pt"
 viewBox="0.00 0.00 282.00 84.00" xmlns="http://www.w3.org/2000/svg" xmlns:xlink="http://www.w3.org/1999/xlink">
<g id="graph0" class="graph" transform="scale(1 1) rotate(0) translate(4 80)">
<title>WorkConservationFlowHandler.h</title>
<polygon fill="white" stroke="none" points="-4,4 -4,-80 278,-80 278,4 -4,4"/>
<!-- Node1 -->
<g id="node1" class="node"><title>Node1</title>
<polygon fill="#bfbfbf" stroke="black" points="35,-56.5 35,-75.5 196,-75.5 196,-56.5 35,-56.5"/>
<text text-anchor="middle" x="115.5" y="-63.5" font-family="Helvetica,sans-Serif" font-size="10.00">WorkConservationFlowHandler.h</text>
</g>
<!-- Node2 -->
<g id="node2" class="node"><title>Node2</title>
<g id="a_node2"><a xlink:href="MainObject_8cpp.html" target="_top" xlink:title="MainObject.cpp">
<polygon fill="white" stroke="black" points="0,-0.5 0,-19.5 85,-19.5 85,-0.5 0,-0.5"/>
<text text-anchor="middle" x="42.5" y="-7.5" font-family="Helvetica,sans-Serif" font-size="10.00">MainObject.cpp</text>
</a>
</g>
</g>
<!-- Node1&#45;&gt;Node2 -->
<g id="edge1" class="edge"><title>Node1&#45;&gt;Node2</title>
<path fill="none" stroke="midnightblue" d="M95.3584,-50.1008C82.2207,-40.3824 65.5179,-28.0269 54.4421,-19.8339"/>
<polygon fill="midnightblue" stroke="midnightblue" points="93.6503,-53.1907 103.771,-56.324 97.8133,-47.5631 93.6503,-53.1907"/>
</g>
<!-- Node3 -->
<g id="node3" class="node"><title>Node3</title>
<g id="a_node3"><a xlink:href="WorkConservationFlowHandler_8cpp.html" target="_top" xlink:title="WorkConservationFlowHandler.cpp">
<polygon fill="white" stroke="black" points="103,-0.5 103,-19.5 274,-19.5 274,-0.5 103,-0.5"/>
<text text-anchor="middle" x="188.5" y="-7.5" font-family="Helvetica,sans-Serif" font-size="10.00">WorkConservationFlowHandler.cpp</text>
</a>
</g>
</g>
<!-- Node1&#45;&gt;Node3 -->
<g id="edge2" class="edge"><title>Node1&#45;&gt;Node3</title>
<path fill="none" stroke="midnightblue" d="M135.642,-50.1008C148.779,-40.3824 165.482,-28.0269 176.558,-19.8339"/>
<polygon fill="midnightblue" stroke="midnightblue" points="133.187,-47.5631 127.229,-56.324 137.35,-53.1907 133.187,-47.5631"/>
</g>
</g>
</svg>
