<?xml version="1.0" encoding="UTF-8" standalone="no"?>
<!DOCTYPE svg PUBLIC "-//W3C//DTD SVG 1.1//EN"
 "http://www.w3.org/Graphics/SVG/1.1/DTD/svg11.dtd">
<!-- Generated by graphviz version 2.38.0 (20140413.2041)
 -->
<!-- Title: WorkConservationFlowHandler.cpp Pages: 1 -->
<svg width="870pt" height="252pt"
 viewBox="0.00 0.00 870.00 252.00" xmlns="http://www.w3.org/2000/svg" xmlns:xlink="http://www.w3.org/1999/xlink">
<g id="graph0" class="graph" transform="scale(1 1) rotate(0) translate(4 248)">
<title>WorkConservationFlowHandler.cpp</title>
<polygon fill="white" stroke="none" points="-4,4 -4,-248 866,-248 866,4 -4,4"/>
<!-- Node1 -->
<g id="node1" class="node"><title>Node1</title>
<polygon fill="#bfbfbf" stroke="black" points="460,-224.5 460,-243.5 631,-243.5 631,-224.5 460,-224.5"/>
<text text-anchor="middle" x="545.5" y="-231.5" font-family="Helvetica,sans-Serif" font-size="10.00">WorkConservationFlowHandler.cpp</text>
</g>
<!-- Node2 -->
<g id="node2" class="node"><title>Node2</title>
<g id="a_node2"><a xlink:href="WorkConservationFlowHandler_8h.html" target="_top" xlink:title="WorkConservationFlowHandler.h">
<polygon fill="white" stroke="black" points="220,-168.5 220,-187.5 381,-187.5 381,-168.5 220,-168.5"/>
<text text-anchor="middle" x="300.5" y="-175.5" font-family="Helvetica,sans-Serif" font-size="10.00">WorkConservationFlowHandler.h</text>
</a>
</g>
</g>
<!-- Node1&#45;&gt;Node2 -->
<g id="edge1" class="edge"><title>Node1&#45;&gt;Node2</title>
<path fill="none" stroke="midnightblue" d="M506.679,-224.444C463.939,-215.023 395.168,-199.866 348.934,-189.675"/>
<polygon fill="midnightblue" stroke="midnightblue" points="349.658,-186.251 339.139,-187.516 348.152,-193.087 349.658,-186.251"/>
</g>
<!-- Node12 -->
<g id="node12" class="node"><title>Node12</title>
<polygon fill="white" stroke="#bfbfbf" points="510,-168.5 510,-187.5 581,-187.5 581,-168.5 510,-168.5"/>
<text text-anchor="middle" x="545.5" y="-175.5" font-family="Helvetica,sans-Serif" font-size="10.00">netinet/tcp.h</text>
</g>
<!-- Node1&#45;&gt;Node12 -->
<g id="edge12" class="edge"><title>Node1&#45;&gt;Node12</title>
<path fill="none" stroke="midnightblue" d="M545.5,-224.083C545.5,-217.006 545.5,-206.861 545.5,-197.986"/>
<polygon fill="midnightblue" stroke="midnightblue" points="549,-197.751 545.5,-187.751 542,-197.751 549,-197.751"/>
</g>
<!-- Node13 -->
<g id="node13" class="node"><title>Node13</title>
<polygon fill="white" stroke="#bfbfbf" points="599.5,-168.5 599.5,-187.5 651.5,-187.5 651.5,-168.5 599.5,-168.5"/>
<text text-anchor="middle" x="625.5" y="-175.5" font-family="Helvetica,sans-Serif" font-size="10.00">sstream</text>
</g>
<!-- Node1&#45;&gt;Node13 -->
<g id="edge13" class="edge"><title>Node1&#45;&gt;Node13</title>
<path fill="none" stroke="midnightblue" d="M558.353,-224.324C570.716,-215.979 589.63,-203.212 604.237,-193.352"/>
<polygon fill="midnightblue" stroke="midnightblue" points="606.348,-196.15 612.679,-187.655 602.432,-190.348 606.348,-196.15"/>
</g>
<!-- Node14 -->
<g id="node14" class="node"><title>Node14</title>
<polygon fill="white" stroke="#bfbfbf" points="669.5,-168.5 669.5,-187.5 717.5,-187.5 717.5,-168.5 669.5,-168.5"/>
<text text-anchor="middle" x="693.5" y="-175.5" font-family="Helvetica,sans-Serif" font-size="10.00">stdlib.h</text>
</g>
<!-- Node1&#45;&gt;Node14 -->
<g id="edge14" class="edge"><title>Node1&#45;&gt;Node14</title>
<path fill="none" stroke="midnightblue" d="M568.951,-224.444C593.633,-215.438 632.685,-201.189 660.477,-191.049"/>
<polygon fill="midnightblue" stroke="midnightblue" points="661.964,-194.232 670.159,-187.516 659.565,-187.656 661.964,-194.232"/>
</g>
<!-- Node15 -->
<g id="node15" class="node"><title>Node15</title>
<polygon fill="white" stroke="#bfbfbf" points="736,-168.5 736,-187.5 787,-187.5 787,-168.5 736,-168.5"/>
<text text-anchor="middle" x="761.5" y="-175.5" font-family="Helvetica,sans-Serif" font-size="10.00">unistd.h</text>
</g>
<!-- Node1&#45;&gt;Node15 -->
<g id="edge15" class="edge"><title>Node1&#45;&gt;Node15</title>
<path fill="none" stroke="midnightblue" d="M580.22,-224.456C614.678,-215.956 669.262,-202.441 726.022,-188.105"/>
<polygon fill="midnightblue" stroke="midnightblue" points="727.055,-191.455 735.892,-185.61 725.339,-184.668 727.055,-191.455"/>
</g>
<!-- Node16 -->
<g id="node16" class="node"><title>Node16</title>
<g id="a_node16"><a xlink:href="BandwidthValues_8h.html" target="_top" xlink:title="BandwidthValues.h">
<polygon fill="white" stroke="black" points="0,-168.5 0,-187.5 101,-187.5 101,-168.5 0,-168.5"/>
<text text-anchor="middle" x="50.5" y="-175.5" font-family="Helvetica,sans-Serif" font-size="10.00">BandwidthValues.h</text>
</a>
</g>
</g>
<!-- Node1&#45;&gt;Node16 -->
<g id="edge16" class="edge"><title>Node1&#45;&gt;Node16</title>
<path fill="none" stroke="midnightblue" d="M459.733,-225.387C374.027,-217.496 238.23,-204.23 111.3,-188.179"/>
<polygon fill="midnightblue" stroke="midnightblue" points="111.37,-184.66 101.008,-186.869 110.486,-191.604 111.37,-184.66"/>
</g>
<!-- Node17 -->
<g id="node17" class="node"><title>Node17</title>
<g id="a_node17"><a xlink:href="LoggingHandler_8h.html" target="_top" xlink:title="LoggingHandler.h">
<polygon fill="white" stroke="black" points="399.5,-168.5 399.5,-187.5 491.5,-187.5 491.5,-168.5 399.5,-168.5"/>
<text text-anchor="middle" x="445.5" y="-175.5" font-family="Helvetica,sans-Serif" font-size="10.00">LoggingHandler.h</text>
</a>
</g>
</g>
<!-- Node1&#45;&gt;Node17 -->
<g id="edge18" class="edge"><title>Node1&#45;&gt;Node17</title>
<path fill="none" stroke="midnightblue" d="M529.433,-224.324C513.542,-215.743 488.993,-202.486 470.542,-192.522"/>
<polygon fill="midnightblue" stroke="midnightblue" points="471.989,-189.326 461.527,-187.655 468.663,-195.486 471.989,-189.326"/>
</g>
<!-- Node19 -->
<g id="node19" class="node"><title>Node19</title>
<g id="a_node19"><a xlink:href="Macros_8h.html" target="_top" xlink:title="Macros.h">
<polygon fill="white" stroke="black" points="805,-168.5 805,-187.5 862,-187.5 862,-168.5 805,-168.5"/>
<text text-anchor="middle" x="833.5" y="-175.5" font-family="Helvetica,sans-Serif" font-size="10.00">Macros.h</text>
</a>
</g>
</g>
<!-- Node1&#45;&gt;Node19 -->
<g id="edge21" class="edge"><title>Node1&#45;&gt;Node19</title>
<path fill="none" stroke="midnightblue" d="M598.567,-224.455C647.307,-216.389 721.755,-203.519 795,-188.225"/>
<polygon fill="midnightblue" stroke="midnightblue" points="795.792,-191.635 804.856,-186.151 794.35,-184.785 795.792,-191.635"/>
</g>
<!-- Node20 -->
<g id="node20" class="node"><title>Node20</title>
<g id="a_node20"><a xlink:href="ThreadHelper_8h.html" target="_top" xlink:title="ThreadHelper.h">
<polygon fill="white" stroke="black" points="119,-168.5 119,-187.5 202,-187.5 202,-168.5 119,-168.5"/>
<text text-anchor="middle" x="160.5" y="-175.5" font-family="Helvetica,sans-Serif" font-size="10.00">ThreadHelper.h</text>
</a>
</g>
</g>
<!-- Node1&#45;&gt;Node20 -->
<g id="edge22" class="edge"><title>Node1&#45;&gt;Node20</title>
<path fill="none" stroke="midnightblue" d="M475.108,-224.47C409.482,-216.307 308.629,-203.224 212.142,-188.207"/>
<polygon fill="midnightblue" stroke="midnightblue" points="212.64,-184.742 202.218,-186.653 211.557,-191.658 212.64,-184.742"/>
</g>
<!-- Node3 -->
<g id="node3" class="node"><title>Node3</title>
<polygon fill="white" stroke="#bfbfbf" points="115,-112.5 115,-131.5 172,-131.5 172,-112.5 115,-112.5"/>
<text text-anchor="middle" x="143.5" y="-119.5" font-family="Helvetica,sans-Serif" font-size="10.00">pthread.h</text>
</g>
<!-- Node2&#45;&gt;Node3 -->
<g id="edge2" class="edge"><title>Node2&#45;&gt;Node3</title>
<path fill="none" stroke="midnightblue" d="M275.623,-168.444C249.211,-159.359 207.285,-144.939 177.758,-134.783"/>
<polygon fill="midnightblue" stroke="midnightblue" points="178.855,-131.459 168.261,-131.516 176.579,-138.079 178.855,-131.459"/>
</g>
<!-- Node4 -->
<g id="node4" class="node"><title>Node4</title>
<polygon fill="white" stroke="#bfbfbf" points="190,-112.5 190,-131.5 239,-131.5 239,-112.5 190,-112.5"/>
<text text-anchor="middle" x="214.5" y="-119.5" font-family="Helvetica,sans-Serif" font-size="10.00">stdint.h</text>
</g>
<!-- Node2&#45;&gt;Node4 -->
<g id="edge3" class="edge"><title>Node2&#45;&gt;Node4</title>
<path fill="none" stroke="midnightblue" d="M286.683,-168.324C273.267,-159.9 252.676,-146.971 236.914,-137.074"/>
<polygon fill="midnightblue" stroke="midnightblue" points="238.613,-134.008 228.283,-131.655 234.891,-139.936 238.613,-134.008"/>
</g>
<!-- Node5 -->
<g id="node5" class="node"><title>Node5</title>
<polygon fill="white" stroke="#bfbfbf" points="442,-112.5 442,-131.5 483,-131.5 483,-112.5 442,-112.5"/>
<text text-anchor="middle" x="462.5" y="-119.5" font-family="Helvetica,sans-Serif" font-size="10.00">string</text>
</g>
<!-- Node2&#45;&gt;Node5 -->
<g id="edge4" class="edge"><title>Node2&#45;&gt;Node5</title>
<path fill="none" stroke="midnightblue" d="M326.169,-168.444C354.866,-158.878 401.309,-143.397 431.878,-133.207"/>
<polygon fill="midnightblue" stroke="midnightblue" points="433.207,-136.454 441.587,-129.971 430.993,-129.813 433.207,-136.454"/>
</g>
<!-- Node6 -->
<g id="node6" class="node"><title>Node6</title>
<polygon fill="white" stroke="#bfbfbf" points="50.5,-112.5 50.5,-131.5 96.5,-131.5 96.5,-112.5 50.5,-112.5"/>
<text text-anchor="middle" x="73.5" y="-119.5" font-family="Helvetica,sans-Serif" font-size="10.00">atomic</text>
</g>
<!-- Node2&#45;&gt;Node6 -->
<g id="edge5" class="edge"><title>Node2&#45;&gt;Node6</title>
<path fill="none" stroke="midnightblue" d="M261.15,-168.493C223.754,-160.281 165.713,-147.207 106.444,-132.152"/>
<polygon fill="midnightblue" stroke="midnightblue" points="107.092,-128.705 96.5369,-129.62 105.359,-135.487 107.092,-128.705"/>
</g>
<!-- Node7 -->
<g id="node7" class="node"><title>Node7</title>
<g id="a_node7"><a xlink:href="ExponentialSmoothingCalculator_8h.html" target="_top" xlink:title="ExponentialSmoothingCalculator.h">
<polygon fill="white" stroke="black" points="257,-112.5 257,-131.5 424,-131.5 424,-112.5 257,-112.5"/>
<text text-anchor="middle" x="340.5" y="-119.5" font-family="Helvetica,sans-Serif" font-size="10.00">ExponentialSmoothingCalculator.h</text>
</a>
</g>
</g>
<!-- Node2&#45;&gt;Node7 -->
<g id="edge6" class="edge"><title>Node2&#45;&gt;Node7</title>
<path fill="none" stroke="midnightblue" d="M307.105,-168.083C312.755,-160.455 321.045,-149.264 327.951,-139.941"/>
<polygon fill="midnightblue" stroke="midnightblue" points="330.878,-141.87 334.018,-131.751 325.253,-137.703 330.878,-141.87"/>
</g>
<!-- Node8 -->
<g id="node8" class="node"><title>Node8</title>
<polygon fill="white" stroke="#bfbfbf" points="271,-56.5 271,-75.5 312,-75.5 312,-56.5 271,-56.5"/>
<text text-anchor="middle" x="291.5" y="-63.5" font-family="Helvetica,sans-Serif" font-size="10.00">ctime</text>
</g>
<!-- Node7&#45;&gt;Node8 -->
<g id="edge7" class="edge"><title>Node7&#45;&gt;Node8</title>
<path fill="none" stroke="midnightblue" d="M332.409,-112.083C325.345,-104.298 314.912,-92.8015 306.351,-83.3665"/>
<polygon fill="midnightblue" stroke="midnightblue" points="308.753,-80.8047 299.441,-75.7511 303.569,-85.5087 308.753,-80.8047"/>
</g>
<!-- Node9 -->
<g id="node9" class="node"><title>Node9</title>
<g id="a_node9"><a xlink:href="CurrentAndLastValues_8h.html" target="_top" xlink:title="CurrentAndLastValues.h">
<polygon fill="white" stroke="black" points="279,-0.5 279,-19.5 402,-19.5 402,-0.5 279,-0.5"/>
<text text-anchor="middle" x="340.5" y="-7.5" font-family="Helvetica,sans-Serif" font-size="10.00">CurrentAndLastValues.h</text>
</a>
</g>
</g>
<!-- Node7&#45;&gt;Node9 -->
<g id="edge8" class="edge"><title>Node7&#45;&gt;Node9</title>
<path fill="none" stroke="midnightblue" d="M340.5,-112.368C340.5,-94.617 340.5,-53.6664 340.5,-29.5974"/>
<polygon fill="midnightblue" stroke="midnightblue" points="344,-29.5914 340.5,-19.5914 337,-29.5915 344,-29.5914"/>
</g>
<!-- Node10 -->
<g id="node10" class="node"><title>Node10</title>
<g id="a_node10"><a xlink:href="ExponentialSmoothing_8h.html" target="_top" xlink:title="ExponentialSmoothing.h">
<polygon fill="white" stroke="black" points="368.5,-56.5 368.5,-75.5 490.5,-75.5 490.5,-56.5 368.5,-56.5"/>
<text text-anchor="middle" x="429.5" y="-63.5" font-family="Helvetica,sans-Serif" font-size="10.00">ExponentialSmoothing.h</text>
</a>
</g>
</g>
<!-- Node7&#45;&gt;Node10 -->
<g id="edge9" class="edge"><title>Node7&#45;&gt;Node10</title>
<path fill="none" stroke="midnightblue" d="M354.799,-112.324C368.683,-103.9 389.992,-90.9709 406.304,-81.0741"/>
<polygon fill="midnightblue" stroke="midnightblue" points="408.502,-83.8341 415.236,-75.6545 404.871,-77.8495 408.502,-83.8341"/>
</g>
<!-- Node10&#45;&gt;Node9 -->
<g id="edge11" class="edge"><title>Node10&#45;&gt;Node9</title>
<path fill="none" stroke="midnightblue" d="M415.201,-56.324C401.317,-47.9002 380.008,-34.9709 363.696,-25.0741"/>
<polygon fill="midnightblue" stroke="midnightblue" points="365.129,-21.8495 354.764,-19.6545 361.498,-27.8341 365.129,-21.8495"/>
</g>
<!-- Node11 -->
<g id="node11" class="node"><title>Node11</title>
<polygon fill="white" stroke="#bfbfbf" points="420.5,-0.5 420.5,-19.5 464.5,-19.5 464.5,-0.5 420.5,-0.5"/>
<text text-anchor="middle" x="442.5" y="-7.5" font-family="Helvetica,sans-Serif" font-size="10.00">time.h</text>
</g>
<!-- Node10&#45;&gt;Node11 -->
<g id="edge10" class="edge"><title>Node10&#45;&gt;Node11</title>
<path fill="none" stroke="midnightblue" d="M431.647,-56.083C433.369,-48.9272 435.847,-38.6353 438,-29.6911"/>
<polygon fill="midnightblue" stroke="midnightblue" points="441.455,-30.2925 440.393,-19.7511 434.65,-28.6541 441.455,-30.2925"/>
</g>
<!-- Node16&#45;&gt;Node6 -->
<g id="edge17" class="edge"><title>Node16&#45;&gt;Node6</title>
<path fill="none" stroke="midnightblue" d="M54.298,-168.083C57.4128,-160.77 61.9228,-150.181 65.7893,-141.103"/>
<polygon fill="midnightblue" stroke="midnightblue" points="69.0741,-142.323 69.7727,-131.751 62.6339,-139.58 69.0741,-142.323"/>
</g>
<!-- Node17&#45;&gt;Node5 -->
<g id="edge19" class="edge"><title>Node17&#45;&gt;Node5</title>
<path fill="none" stroke="midnightblue" d="M448.307,-168.083C450.585,-160.849 453.871,-150.409 456.708,-141.397"/>
<polygon fill="midnightblue" stroke="midnightblue" points="460.081,-142.341 459.745,-131.751 453.404,-140.239 460.081,-142.341"/>
</g>
<!-- Node18 -->
<g id="node18" class="node"><title>Node18</title>
<polygon fill="white" stroke="#bfbfbf" points="501.5,-112.5 501.5,-131.5 551.5,-131.5 551.5,-112.5 501.5,-112.5"/>
<text text-anchor="middle" x="526.5" y="-119.5" font-family="Helvetica,sans-Serif" font-size="10.00">fstream</text>
</g>
<!-- Node17&#45;&gt;Node18 -->
<g id="edge20" class="edge"><title>Node17&#45;&gt;Node18</title>
<path fill="none" stroke="midnightblue" d="M458.514,-168.324C471.032,-159.979 490.182,-147.212 504.971,-137.352"/>
<polygon fill="midnightblue" stroke="midnightblue" points="507.139,-140.114 513.518,-131.655 503.256,-134.289 507.139,-140.114"/>
</g>
<!-- Node20&#45;&gt;Node3 -->
<g id="edge24" class="edge"><title>Node20&#45;&gt;Node3</title>
<path fill="none" stroke="midnightblue" d="M157.693,-168.083C155.415,-160.849 152.129,-150.409 149.292,-141.397"/>
<polygon fill="midnightblue" stroke="midnightblue" points="152.596,-140.239 146.255,-131.751 145.919,-142.341 152.596,-140.239"/>
</g>
<!-- Node20&#45;&gt;Node6 -->
<g id="edge23" class="edge"><title>Node20&#45;&gt;Node6</title>
<path fill="none" stroke="midnightblue" d="M146.522,-168.324C132.95,-159.9 112.12,-146.971 96.175,-137.074"/>
<polygon fill="midnightblue" stroke="midnightblue" points="97.7856,-133.954 87.4434,-131.655 94.094,-139.902 97.7856,-133.954"/>
</g>
</g>
</svg>
